<?xml version="1.0" encoding="utf-8"?>
<!-- Generator: Adobe Illustrator 21.0.0, SVG Export Plug-In . SVG Version: 6.00 Build 0)  -->
<svg version="1.1" id="Camada_1" xmlns="http://www.w3.org/2000/svg" xmlns:xlink="http://www.w3.org/1999/xlink" x="0px" y="0px"
	 viewBox="0 0 245.8 24.5" style="enable-background:new 0 0 245.8 24.5;" xml:space="preserve">
<style type="text/css">
	.st0{fill:#28286D;}
	.st1{fill:#25256B;}
	.st2{fill:#27276D;}
	.st3{fill:#29296E;}
	.st4{fill:#27276C;}
	.st5{fill:#04A0E3;}
	.st6{fill:#FDFDFE;}
	.st7{fill:#FDFDFD;}
	.st8{fill:#EFEFF4;}
	.st9{fill:#F1F1F6;}
	.st10{fill:#F2F2F6;}
</style>
<g>
	<path class="st0" d="M225.9,12.2c0-2.6,0.2-5.3-0.1-7.9c-0.2-2.3,1.1-3.5,2.9-3.6c4-0.2,8-0.5,12,0.8c6.2,2.1,9.6,11.3,5.2,17.5
		c-2.2,3.1-4.9,5.4-9.3,4.9c-3.4-0.4-6.9-0.4-10.4-0.6c-0.1-3.3-0.2-6.6-0.4-9.9C225.9,12.9,225.9,12.6,225.9,12.2z M230.9,12.7
		C230.9,12.7,230.9,12.7,230.9,12.7c0,1.8-0.1,3.5,0.1,5.3c0.1,0.6,0.9,1.4,1.5,1.5c1.2,0.2,2.5,0.1,3.7,0.1
		c3.2-0.1,5.4-1.6,6.2-4.6c0.8-2.8,0.7-5.6-1.7-7.8c-1.5-1.3-7.5-2.7-8.9-1.5c-1.8,1.5-0.5,4-0.9,6C230.9,12,230.9,12.4,230.9,12.7z
		"/>
	<path class="st1" d="M66.7,0.3C75.4,0.5,79,5.6,79.3,12.8c0.3,6.4-6.1,11.9-12.9,11.9c-7.3,0-12.3-5.2-12.2-12.7
		C54.2,4.8,59.2,0.2,66.7,0.3z M66.5,19.7c4.8,0.4,8.1-3.5,7.8-7.8c-0.3-4-3.8-7.3-8.1-7.2c-4.2,0.1-7.9,3.8-7.7,7.7
		C58.7,16.4,62.3,19.7,66.5,19.7z"/>
	<path class="st1" d="M49.3,16.5c-0.5,1.8-0.4,4.1-1.5,5.3c-2.2,2.4-5.7,3-8.7,2.7c-6.6-0.8-10.1-3.1-11.3-9
		c-1.3-6.8,1.7-12.6,7.6-14.4c2.7-0.8,5.8-0.4,8.8-0.3c0.8,0,1.6,0.7,2.3,1.2c1.3,0.9,2.4,2.3,1.7,3.8c-0.9,1.9-2.4,1.2-4,0.3
		C39.6,3.8,35.8,4.6,33.4,8c-2,2.8-1.9,6.6,0.1,9.3c1.8,2.2,7.1,3.3,9.7,1.9c1.3-0.7,1.6-1.9,1.2-3.1c-0.2-0.5-1.3-0.8-2-1
		c-1.3-0.4-2.8-0.4-4-0.9c-1.5-0.6-1.6-2.5-0.2-3.2c3.2-1.5,6.4-1.4,9.6,0c0.5,0.2,0.9,1,0.9,1.6c0.1,1.2,0,2.5,0,3.7
		C49,16.4,49.1,16.5,49.3,16.5z"/>
	<path class="st2" d="M85,12.5c0-2.6-0.1-5.3,0-7.9c0.1-2.7,1.2-3.8,3.8-4c2.6-0.1,5.3-0.1,7.9,0c3.3,0.2,5.9,2,6.9,4.9
		c0.9,2.5,0.9,5.5-1.4,7.9c-2.1,2.2-2,2.4-0.1,4.7c0.6,0.7,1.4,1.2,1.7,2c0.4,1,1.5,2.2,0.1,3.2c-1.3,0.9-2.8,0.9-3.8-0.2
		c-1.3-1.4-2.1-3.2-3.2-4.7c-0.8-1.1-1.6-2.2-3.3-2.2c-3-0.1-3.3,0-3.4,3c0,0.5,0,1.1,0,1.6c-0.2,2.2-1.1,3.3-2.7,3.1
		c-2-0.2-2.5-1.6-2.5-3.4C85,17.8,85,15.2,85,12.5z M93.8,12C93.8,12,93.8,12,93.8,12c0.9,0,1.9,0.4,2.6,0c1.2-0.8,2.6-1.8,3.2-3
		c0.7-1.4-0.5-3-1.7-3.3c-2.3-0.5-4.7-0.5-7-0.6c-0.2,0-0.5,0.5-0.6,0.8c-0.1,1.7-0.1,3.5,0,5.2c0,0.3,0.6,0.9,1,0.9
		C92,12.1,92.9,12,93.8,12z"/>
	<path class="st3" d="M199.5,12.8c0-2.8-0.1-5.6,0-8.5c0.1-2.4,1.2-3.6,3.5-3.7c3.5-0.1,7-0.1,10.6,0c1.6,0,2.8,0.8,2.7,2.5
		c0,1.7-1.2,2.5-2.8,2.5c-2.5,0.1-4.9,0-7.4,0c-1.6,0-1.5,1.1-1.5,2.1c0,1-0.2,2.2,1.4,2.2c1.8,0,3.5,0,5.3,0c0.9,0,1.9,0,2.5,0.4
		c0.6,0.4,1.3,1.3,1.3,2c0,0.6-0.7,1.7-1.3,1.8c-2.4,0.4-4.8,0.7-7.2,0.8c-1.7,0-2,0.9-2,2.3c0,1.4,0.2,2.3,2,2.2
		c2.6-0.1,5.3,0,7.9,0c1.5,0,2.5,0.7,2.6,2c0.1,1.7-1.2,2.3-2.8,2.3c-4.1,0-8.1,0-12.2,0c-1.8,0-2.6-1-2.6-2.6
		C199.4,18.4,199.5,15.6,199.5,12.8z"/>
	<path class="st1" d="M170.6,12.4c0-2.6,0-5.3,0-7.9c0.1-3.3,0.5-3.7,3.5-3.8c2.3-0.1,4.6-0.1,6.9,0c4.7,0.2,8.1,3,8.3,7.6
		c0.1,1.8-0.9,4.5-2.3,5.5c-2.2,1.6-1.2,2.3-0.1,3.6c0.8,0.9,1.6,1.9,2.1,3c0.4,0.8,0.6,2,0.3,2.8c-0.4,1-2.8,1.1-3.7,0.1
		c-1.2-1.3-2.1-2.8-3.2-4.1c-1.3-1.6-2.5-3.5-5.2-2.9c-1.3,0.3-2.4,0.3-2.2,2.1c0.1,1-0.1,2.1,0,3.2c0.1,1.9-0.8,2.5-2.5,2.5
		c-1.7,0-1.9-1.1-1.9-2.5C170.6,18.4,170.6,15.4,170.6,12.4z M175,8.5c0,3.3-0.4,3.6,3.3,3.5c1.2,0,2.5,0.1,3.6-0.2
		c1.5-0.5,2.7-1.3,2.7-3.3c0-1.9-1-2.9-2.6-3.3c-1.1-0.3-2.4-0.3-3.6-0.3C175.4,4.9,175,5.3,175,8.5z"/>
	<path class="st1" d="M21.8,21.6c-0.4,0.8-0.6,1.8-1.1,1.9c-0.7,0.2-1.6,0-2.5-0.1c-0.1,0-0.3-0.2-0.4-0.4
		c-2.9-5.9-8.2-2.8-12.5-3.3c-0.9-0.1-1.9,1.7-3,2.6c-0.6,0.5-1.2,1.2-1.9,1.4c-1.7,0.4-2.8-0.6-2.5-2.3c0.2-1,0.6-2,1.1-2.9
		C1.4,13.8,3.9,9,6.4,4.2c0.3-0.6,0.6-1.3,1-1.8c1.9-2.7,3.5-2.7,5,0.2c2.7,5.1,5.3,10.2,7.9,15.3C20.9,19,21.3,20.3,21.8,21.6z
		 M9.5,15.2C9.5,15.2,9.5,15.2,9.5,15.2c0.9,0,1.8,0.1,2.6-0.1c0.3-0.1,0.8-0.8,0.7-1.1c-0.8-2-1.8-3.9-2.7-5.9c-1,1.6-2,3.1-3,4.7
		c-0.2,0.3-0.6,0.6-0.5,0.9C6.8,14.3,7,15,7.4,15.2C8,15.4,8.8,15.2,9.5,15.2z"/>
	<path class="st4" d="M153.3-0.2c2.4,1,4.9,1.7,7.1,3c1,0.6,2,1.9,0.8,3.5c-1.1,1.4-2.4,1.5-3.5,0.4c-2-1.8-4.2-2.5-6.8-1.7
		c-4.5,1.4-6.4,5.8-4.7,10.5c1.5,3.9,6.4,5.6,10.6,3.5c0.8-0.4,1.4-1.3,2.2-1.3c0.9,0,2.2,0.5,2.6,1.1c0.4,0.6,0.3,2.4-0.2,2.7
		c-1.5,1.1-3.3,1.9-5,2.4c-10,2.8-17-5.4-15.1-14.4C142.6,3.6,147.1,0.3,153.3-0.2z"/>
	<path class="st5" d="M135.6,22c-0.6,0.5-1.1,1.4-1.8,1.6c-0.7,0.2-1.8,0-2.4-0.5c-0.7-0.6-1.2-1.7-1.6-2.6c-1.9-3.7-4-7.3-5.6-11.1
		c-0.8-2-1.4-1-1.8-0.1c-2.2,4.1-4.2,8.3-6.2,12.5c-0.7,1.4-1.3,2.5-3.1,1.9c-1.6-0.5-2.2-2.1-1.3-3.9c3-6,6.1-12,9.4-17.9
		c1.2-2.1,3.5-2.1,4.6,0c3.3,6.3,6.4,12.6,9.5,19C135.5,21.2,135.5,21.5,135.6,22z"/>
	<path class="st6" d="M230.9,12.7c0-0.4,0-0.7,0-1.1c0.3-2-1-4.5,0.9-6c1.5-1.2,7.5,0.2,8.9,1.5c2.5,2.2,2.5,4.9,1.7,7.8
		c-0.9,3-3,4.5-6.2,4.6c-1.2,0-2.5,0.2-3.7-0.1c-0.6-0.1-1.5-0.9-1.5-1.5C230.8,16.3,230.9,14.5,230.9,12.7
		C230.9,12.7,230.9,12.7,230.9,12.7z"/>
	<path class="st7" d="M66.5,19.7c-4.2,0-7.8-3.3-8-7.3c-0.2-3.9,3.5-7.6,7.7-7.7c4.3-0.1,7.8,3.2,8.1,7.2
		C74.6,16.1,71.3,20.1,66.5,19.7z"/>
	<path class="st8" d="M93.8,12c-0.9,0-1.8,0.1-2.6,0c-0.4-0.1-1-0.6-1-0.9c-0.1-1.7,0-3.5,0-5.2c0-0.3,0.4-0.8,0.6-0.8
		c2.4,0.1,4.8,0,7,0.6c1.3,0.3,2.4,1.9,1.7,3.3c-0.6,1.2-2,2.2-3.2,3C95.7,12.3,94.6,12,93.8,12C93.8,12,93.8,12,93.8,12z"/>
	<path class="st9" d="M175,8.5c0-3.3,0.4-3.6,3.5-3.7c1.2,0,2.4,0,3.6,0.3c1.6,0.4,2.6,1.4,2.6,3.3c0,2-1.2,2.8-2.7,3.3
		c-1.1,0.3-2.4,0.2-3.6,0.2C174.6,12.1,175.1,11.8,175,8.5z"/>
	<path class="st10" d="M9.5,15.2c-0.7,0-1.5,0.2-2.1-0.1C7,15,6.8,14.3,6.6,13.7c-0.1-0.2,0.3-0.6,0.5-0.9c1-1.6,2-3.1,3-4.7
		c0.9,2,1.8,3.9,2.7,5.9c0.1,0.3-0.4,1-0.7,1.1C11.3,15.3,10.4,15.2,9.5,15.2C9.5,15.2,9.5,15.2,9.5,15.2z"/>
</g>
</svg>
