<?xml version="1.0" encoding="utf-8"?>
<!-- Generator: Adobe Illustrator 21.0.0, SVG Export Plug-In . SVG Version: 6.00 Build 0)  -->
<svg version="1.1" id="Camada_1" xmlns="http://www.w3.org/2000/svg" xmlns:xlink="http://www.w3.org/1999/xlink" x="0px" y="0px"
	 viewBox="0 0 250 250.2" style="enable-background:new 0 0 250 250.2;" xml:space="preserve">
<style type="text/css">
	.st0{fill:#FDFEFE;}
	.st1{fill:#2385C6;}
	.st2{fill:#2C78BC;}
	.st3{fill:#1A92D1;}
	.st4{fill:#1796D3;}
	.st5{fill:#10A1DC;}
	.st6{fill:#119FDA;}
	.st7{fill:#7FCAF0;}
	.st8{fill:#208ACA;}
	.st9{fill:#2681C3;}
	.st10{fill:#74C6EE;}
	.st11{fill:#68C2EC;}
	.st12{fill:#5BBEEB;}
	.st13{fill:#51BBE9;}
	.st14{fill:#1CAAE1;}
	.st15{fill:#3CB4E6;}
	.st16{fill:#23ACE2;}
	.st17{fill:#47B8E8;}
	.st18{fill:#30B0E4;}
	.st19{fill:#27ADE2;}
	.st20{fill:#33B1E4;}
	.st21{fill:#1A94D1;}
	.st22{fill:#10A3DD;}
	.st23{fill:#129ED9;}
	.st24{fill:#62C0EC;}
	.st25{fill:#6FC5EE;}
	.st26{fill:#97D2F4;}
	.st27{fill:#8CCEF2;}
	.st28{fill:#1E8DCC;}
</style>
<g>
	<g>
		<path class="st0" d="M0,0c83.3,0,166.7,0,250,0c0,83.4,0,166.8,0,250.2c-83.3,0-166.7,0-250,0C0,166.8,0,83.4,0,0z M104.2,103.5
			C104.2,103.5,104.1,103.5,104.2,103.5c-1.1-0.1-2.1-0.1-3.1-0.1c-4,0-7.9,0-11.9,0c0-0.3-0.1-0.5-0.1-0.8c0-1.4,0-2.8,0-4.2
			c1.4,0,2.5,0,3.7,0c3.9,0,7.8,0,11.7,0c0-2,0-3.8,0-5.7c-2.2,0-4.3,0-6.4,0c-0.1,0-0.2,0-0.4,0c-4.9,0-9.8,0-14.6,0
			c-0.1,0-0.3,0-0.5,0c0,0.2,0,0.5,0,0.7c0,4.4,0,8.8,0,13.2c0,3.6,0,7.2,0,10.7c0,0.9,0,1.9,0,2.9c3.1,0,6.2,0,9.2,0
			c4.2,0,8.4,0,12.7,0c0-1.9,0-3.8,0-5.6c-1.8,0-3.5,0-5.2,0c-0.2,0-0.4,0-0.7,0c-2.9,0-5.9,0-8.8,0c-0.3,0-0.7,0-0.7-0.5
			c0-1.7,0-3.3,0-5.1c2.1,0,4.1,0,6.1,0c3,0,6,0,9,0C104.2,107.2,104.2,105.3,104.2,103.5z M241.3,141.8c0-0.1,0-0.2,0-0.3
			c0-2.1,0-4.2,0-6.2c0-0.1,0-0.2-0.1-0.3c0,0,0-0.1,0-0.1c0-0.2,0.1-0.4,0.1-0.7c0-41.6,0-83.1,0-124.7c0-1,0-2,0-3
			c-0.3,0-0.5,0-0.8,0c-2.1,0-4.1,0-6.2,0c-2.4,0-4.7,0-7.1,0c-0.1,0-0.3,0-0.4,0c-7.8,0-15.5,0-23.2,0c-0.1,0-0.3,0-0.4,0
			c-0.1,0-0.3,0-0.5,0c-9.6,0-19.2,0-28.8,0c-0.1,0-0.3,0-0.5,0c-0.1,0-0.3,0-0.5,0c-8.7,0-17.4,0-26.1,0c-0.1,0-0.3,0-0.5,0
			c-2.2,0-4.4,0-6.6,0c-1.9,0-3.8,0-5.6,0c-2.1,0-4.2,0-6.2,0c-2.2,0-4.5,0-6.7,0c-2.2,0-4.4,0-6.6,0c-2.5,0-5,0-7.5,0
			c-3,0-6.1,0-9.1,0c-3.9,0-7.7,0-11.5,0c-5.5,0-11,0-16.5,0c-0.1,0-0.3,0-0.5,0c-13.1,0-26.2,0-39.3,0c-0.1,0-0.3,0-0.5,0
			c0,0-0.1,0-0.2,0c-7.5,0-14.9,0-22.4,0c-0.1,0-0.3,0-0.5,0c0,0.3,0,0.5,0,0.8c0,4.7,0,9.3,0,14c0,2.9,0,5.8,0,8.7
			c0,0.2,0,0.4,0,0.5c0,12.2,0,24.4,0,36.6c0,0.2,0,0.4,0,0.5c0,2.7,0,5.5,0,8.2c0,3,0,6,0,8.9c0,0.1,0,0.2,0,0.3
			c0,6.6,0,13.3,0,19.9c0,0.1,0,0.2,0,0.4c0.8-1.9,1.6-3.6,2.3-5.3c1.3-3.1,2.7-6.2,4-9.3c0.4-1,1-2.1,1.4-3.1
			c0.2-0.4,0.4-0.5,0.9-0.5c3.1,0,6.2,0,9.4,0c2.2,0,4.4,0,6.6,0c0.4,0,0.6,0.1,0.8,0.5c0.5,1.1,1,2.1,1.6,3.3
			c0,0.1,0.2,0.3,0.3,0.5c0-0.1,0.1-0.1,0.1-0.2c0-0.9,0-1.8,0-2.7c0-1.3,0-1.4,1.4-1.4c6.1,0,12.2,0,18.3,0c0.4,0,0.7,0.1,0.8,0.5
			c0.9,2.1,1.9,4.2,2.8,6.3c0.4,1,0.9,2.1,1.4,3.1c0.1-0.2,0.2-0.3,0.2-0.5c1.2-2.7,2.3-5.5,3.5-8.3c0.3-0.7,0.5-1.3,1.5-1.1
			c0.5,0.1,1.2,0,1.8,0c2.3,0,4.7,0,7,0c5.2,0,10.4,0,15.5,0c3.7,0,7.3,0,11,0c3,0,6,0,9,0c2.5,0,5,0,7.5,0c2.1,0,4.3,0,6.5,0.1
			c2.2,0,4.4,0,6.6,0c2.1,0.2,4.1,0.7,5.8,2.2c0-0.7,0-1.3,0-1.8c0-0.1,0.2-0.3,0.3-0.5c1.9,0,3.8,0,5.6,0c2.2,0,4.4,0,6.6,0
			c1.7,0,3.3,0,5,0c0,0.8,0,1.5,0,2.2c0.1,0,0.2,0,0.2-0.1c2.2-1.1,4.7-1.8,7.2-1.9c2.8-0.1,5.5-0.1,8.3-0.2c2.1,0,4.2,0,6.3,0
			c0.2,0,0.5,0,0.7,0c4.3,0,8.6,0,13,0c0.5,0,0.8,0.2,1,0.6c0.6,1.3,1.3,2.5,1.9,3.8c0,0,0.1,0,0.1,0c0-1.4,0-2.8,0-4.3
			c1.4,0,2.8,0,4.2,0c2.9,0,5.8,0,8.7,0c1.5,0,2.9,0.1,4.3,0c1.2-0.1,1.9,0.2,2.4,1.4c0.4,1,1.1,2,1.7,3c0,0,0.1,0,0.1,0
			c0-1.4,0-2.8,0-4.2c0.3,0,0.5,0,0.8,0c3.5,0,7,0,10.5,0c1.4,0,2.9,0,4.3,0c0.9,0,1.8,0,2.7,0c0,12.9,0,25.7,0,38.6
			c-0.3,0-0.5,0-0.7,0c-3.2,0-6.5,0-9.7,0c-1.9,0-3.8,0-5.8,0c-0.5,0-1.1,0-1.7,0c-0.4,0-0.7-0.1-0.9-0.5c-0.8-1.4-1.7-2.8-2.5-4.2
			c-0.2-0.3-0.4-0.6-0.6-1c0,0-0.1,0-0.1,0c0,1.9,0,3.7,0,5.6c-0.3,0-0.5,0-0.8,0c-4.3,0-8.6,0-13,0c-1.6,0-3.1,0-4.7,0
			c-1.4,0-2.7,0-4.1,0c-0.5,0-0.7-0.1-0.8-0.6c-0.6-1.7-1.4-3.3-2.1-5c-0.1-0.4-0.4-0.5-0.8-0.5c-1.5,0-3,0-4.5,0
			c-0.4,0-0.6,0.1-0.8,0.5c-0.7,1.7-1.4,3.3-2.1,5c-0.2,0.5-0.4,0.6-1,0.6c-2.8,0-5.7,0-8.5,0c-0.4,0-0.8,0-1.3,0
			c-1.8-0.1-3.6-0.1-5.4-0.3c-2.1-0.2-4.2-0.9-6.2-1.8c-0.2-0.1-0.4-0.1-0.7-0.3c0,0.8,0,1.6,0,2.3c-0.3,0-0.6,0-0.8,0
			c-2.8,0-5.6,0-8.3,0c-0.2,0-0.5,0-0.7,0c-6,0-11.9,0-17.9,0c-0.2,0-0.5,0-0.8,0c0-0.9,0-1.8,0-2.6c0-0.6,0-1.2,0-1.8
			c0-1.6,0-3.2,0-4.8c0-0.4-0.1-0.8-0.6-0.8c-0.4,0-0.9,0-1.3,0c0,3,0,5.9,0,8.8c0,0.4,0,0.8,0,1.3c-0.6,0-1.3,0-1.9,0
			c-3.7,0-7.3,0-11,0c-2.8,0-5.7,0-8.5,0c-3.5,0-6.9,0-10.4,0c-4.1,0-8.2,0-12.3,0c-3.7,0-7.4,0-11.1,0c0-1.6,0-3,0-4.5
			c-0.6,1.3-1.2,2.6-1.7,4c-0.1,0.4-0.4,0.5-0.8,0.5c-3.5,0-6.9,0-10.4,0c-0.4,0-0.6-0.1-0.8-0.6c-0.5-1.3-1.1-2.6-1.7-4
			c0,0-0.1,0-0.1,0c0,1.5,0,2.9,0,4.4c-0.1,0-0.2,0-0.3,0c-7.1,0-14.3,0-21.4,0c-0.3,0-0.5-0.1-0.6-0.4c-0.7-1.8-1.4-3.5-2.1-5.2
			c-0.1-0.3-0.3-0.5-0.7-0.5c-1.6,0-3.1,0-4.7,0c-0.4,0-0.6,0.1-0.7,0.5c-0.8,1.9-1.6,3.8-2.3,5.6c-3.6,0-7.1,0-10.7,0
			c-0.4,0-0.6,0.1-0.5,0.5c0,2.5,0,5,0,7.5c0,3.7,0,7.4,0,11.1c0,0.1,0,0.3,0,0.4c0,11.4,0,22.8,0,34.1c0,0.1,0,0.3,0,0.4
			s0,0.3,0,0.4c0,10.3,0,20.6,0,30.9c0,0.1,0,0.3,0,0.4s0,0.2,0,0.4c0,9.9,0,19.7,0,29.6c0,0.1,0,0.3,0,0.5c0.3,0,0.5,0,0.8,0
			c31.4,0,62.8,0,94.2,0c0.2,0,0.5,0,0.7,0c0.2,0,0.4,0,0.6,0c45.9,0,91.9,0,137.8,0c0.2,0,0.4,0,0.7,0c0-0.3,0-0.6,0-0.9
			c0-22.9,0-45.9,0-68.9c0-0.3,0-0.5,0-0.8c0-2.3,0-4.6,0-6.9c0-0.2,0.1-0.4,0.2-0.6c1.6-3.4,1.7-6.7-0.1-10c0-2.3,0-4.7,0-7.1
			c0-0.2,0-0.4-0.1-0.6c0,0,0-0.1,0-0.1c0-0.2,0-0.4,0-0.7C241.3,144.2,241.3,143,241.3,141.8z M70.9,112.5c0,2.6,0,5.1,0,7.7
			c2.3,0,4.5,0,6.7,0c0-3.5,0-6.9,0-10.4c0-3.1,0-6.2,0-9.2c0-2.6,0-5.3,0-7.9c-0.2,0-0.3,0-0.4,0c-3.4,0-6.7,0-10.1,0
			c-0.3,0-0.5,0.1-0.6,0.4c-1,2.4-2,4.7-3,7.1c-0.8,2-1.7,4-2.5,5.9c-0.7,1.7-1.5,3.4-2.3,5.2c-0.8-1.8-1.6-3.4-2.3-5
			c0,0,0-0.1,0-0.2c-2-4.3-4.1-8.7-6.1-13.1c-0.1-0.3-0.4-0.5-0.8-0.5c-3.2,0-6.3,0-9.5,0c-0.6,0-0.8,0.1-0.8,0.8c0,4,0,8,0,11.9
			c0,0.2,0,0.4,0,0.7c0,2.2,0,4.4,0,6.6c0,0.6,0,1.2,0,1.8c0,1.4,0,2.7,0,4.1c0,0-0.1,0-0.1,0c-0.1-0.2-0.2-0.4-0.3-0.6
			c-0.9-2-1.8-4.1-2.6-6.1c-1-2.4-2.1-4.9-3.1-7.4c-1.6-3.8-3.2-7.6-4.9-11.4c0-0.1-0.4-0.3-0.6-0.3c-3,0-6,0-8.9,0
			c-0.2,0-0.5,0.2-0.6,0.4c-0.4,0.9-0.8,1.9-1.2,2.8c-0.7,1.6-1.4,3.3-2.1,4.9c0,0-0.1,0.1-0.1,0.2c-1.4,3.2-2.8,6.4-4.2,9.7
			c0,0.1,0,0.3-0.1,0.4c-0.1,0.1-0.2,0.2-0.2,0.3c-0.8,1.9-1.6,3.7-2.4,5.5c-0.4,1.1-0.9,2.1-1.4,3.3c2.3,0,4.6,0,6.9,0
			c0.1,0,0.4-0.2,0.4-0.4c0.3-0.6,0.5-1.2,0.7-1.9c0.5-1.3,1.1-2.6,1.6-3.9c4.4,0,8.9,0,13.3,0c0.4,0,0.5,0.1,0.7,0.5
			c0.7,1.7,1.4,3.4,2.1,5.1c0.2,0.4,0.4,0.6,0.9,0.6c4.1,0,8.1,0,12.1,0c0.2,0,0.4,0,0.7,0c0-1.9,0-3.6,0-5.4c0-2.8,0-5.6,0-8.3
			c0-2.5,0-5.1,0-7.6c0.4,0.5,0.6,1.1,0.9,1.7c0.9,2.1,1.9,4.2,2.8,6.3c1.9,4.3,3.8,8.7,5.8,13.1c0.1,0.1,0.4,0.3,0.6,0.3
			c1.6,0,3.2,0,4.7,0c0.5,0,0.6-0.2,0.8-0.6c1.2-2.8,2.4-5.5,3.7-8.3c1.1-2.4,2.1-4.9,3.2-7.3c0.8-1.8,1.6-3.5,2.4-5.3
			c0,0,0,0,0.1,0c0,1.7,0,3.3,0,5C70.9,106.8,70.9,109.7,70.9,112.5z M133.3,94.7c-0.7-0.4-1.3-0.9-2-1.2c-1.7-0.7-3.6-0.8-5.4-0.8
			c-2.7,0-5.4,0-8.1,0c-2.9,0-5.7,0-8.6,0c0,0.1,0,0.1,0,0.2c0,3.7,0,7.3,0,11c0,3.3,0,6.5,0,9.8c0,2.2,0,4.4,0,6.6
			c2.2,0,4.3,0,6.6,0c0-3.4,0-6.6,0-10c2.5,0,4.9,0,7.3,0c0.7,0,1.4,0,2.1,0.1c1.9,0.3,3,0.8,3.4,3.1c0,0.1,0,0.2,0.1,0.3
			c0,2.1,0.1,4.3,0.1,6.4c2.2,0,4.4,0,6.7,0c0-2.6,0-5.2-0.2-7.9c-0.1-1.7-0.9-3-2.4-4c-0.5-0.3-1.1-0.7-1.6-1c0,0,0,0,0.1-0.1
			c3.2-1.7,4.5-4.4,4.4-7.9C135.6,97.6,134.9,95.9,133.3,94.7z M163.7,114.5c-0.6,0-1.3,0-1.9,0c-2.7-0.1-4.2-1.1-4.9-3.5
			c-0.9-2.8-0.9-5.7,0-8.5c0.5-1.7,1.6-3,3.4-3.5c0.7-0.2,1.6-0.3,2.3-0.3c2.1,0,4.1,0,6.2,0c0.2,0,0.4,0,0.6,0c0-2.1,0-4,0-5.9
			c-0.1,0-0.1,0-0.1,0c-3.2,0-6.4,0-9.6,0.2c-4.9,0.4-8.2,3.4-9.5,8.1c-0.9,3.2-0.9,6.5-0.3,9.7c1.1,6,4.6,9,10.7,9.4
			c0.3,0,0.6,0.1,1,0.1c2.7,0,5.5,0,8.2,0c0.5,0,0.7-0.2,0.8-0.6c0.7-1.9,1.5-3.7,2.2-5.5c0.1,0,0.2,0,0.3,0c4.3,0,8.6,0,13,0
			c0.3,0,0.5,0.1,0.6,0.4c0.7,1.8,1.5,3.5,2.2,5.2c0.1,0.2,0.3,0.3,0.5,0.4c0.1,0,0.1,0,0.2,0c4.2,0,8.3,0,12.5,0c0.1,0,0.3,0,0.5,0
			c0-6.8,0-13.7,0-20.6c0.2,0.3,0.3,0.6,0.5,0.8c3.9,6.4,7.8,12.9,11.7,19.3c0.2,0.4,0.5,0.5,0.9,0.5c2.7,0,5.4,0,8.1,0
			c0.2,0,0.4,0,0.6,0c0-9.2,0-18.4,0-27.6c-2.2,0-4.4,0-6.7,0c0,6.3,0,12.6,0,19.1c-0.2-0.3-0.3-0.5-0.4-0.6
			c-3.6-6-7.2-11.9-10.8-17.9c-0.3-0.5-0.6-0.6-1.1-0.6c-2.8,0-5.7,0-8.5,0c-0.2,0-0.4,0-0.7,0c0,8.6,0,17.2,0,25.8c0,0,0,0-0.1,0
			c-0.9-2-1.8-4-2.6-6c0,0,0-0.1,0-0.1c-2.7-6.4-5.5-12.9-8.3-19.3c-0.1-0.4-0.4-0.4-0.7-0.4c-2.9,0-5.8,0-8.7,0
			c-0.5,0-0.7,0.1-0.9,0.6c-2.8,6.6-5.7,13.3-8.5,20c-0.4,0.9-0.8,1.4-1.8,1.2C164.2,114.4,164,114.4,163.7,114.5z M146.3,120.3
			c0-9.2,0-18.4,0-27.6c-2.2,0-4.4,0-6.6,0c0,9.2,0,18.4,0,27.6C141.8,120.3,144,120.3,146.3,120.3z"/>
		<path class="st1" d="M102.1,242.1c-0.2,0-0.5,0-0.7,0c-31.4,0-62.8,0-94.2,0c-0.2,0-0.5,0-0.8,0c0-0.2,0-0.3,0-0.5
			c0-9.9,0-19.7,0-29.6c0-0.1,0-0.2,0-0.4c1.9,0.4,3.8,1,5.7,1.4c4.4,0.8,8.9,1.6,13.4,2.3c2,0.3,3.9,0.5,5.9,0.7
			c2.1,0.2,4.1,0.4,6.2,0.5c2,0.1,4,0.2,6,0.2c3.3,0,6.6,0,9.9-0.1c2.1,0,4.2-0.1,6.4-0.2c0.6,0,1.2-0.1,1.8-0.1
			c1.9-0.2,3.8-0.4,5.7-0.6c2.1-0.2,4.1-0.4,6.2-0.8c3.1-0.5,6.2-1.1,9.2-1.7c5.4-1.1,10.8-2.5,16.1-4.2c3-0.9,5.9-2,8.8-3.1
			c4.2-1.7,8.4-3.4,12.5-5.3c5.6-2.6,11.1-5.6,16.4-8.8c4.3-2.6,8.4-5.4,12.5-8.4c2.3-1.8,4.6-3.6,6.8-5.4c1.6-1.3,3.1-2.6,4.6-4
			c0.2-0.1,0.3-0.4,0.4-0.7c0.2,0,0.4,0,0.5,0c14.5,0,29,0,43.5,0c0.2,0,0.4,0,0.5,0c-0.1,0.2-0.1,0.4-0.3,0.5
			c-1.8,2.1-3.6,4.3-5.5,6.4c-2.1,2.4-4.2,4.8-6.4,7c-2.9,3-6,5.8-8.9,8.7c-1.4,1.3-2.8,2.6-4.2,3.9c-2.3,2-4.6,3.9-7,5.8
			c-3.4,2.6-6.7,5.2-10.2,7.6c-3.9,2.6-7.8,5.2-11.8,7.6c-3.6,2.1-7.2,4.1-10.9,6.1c-2.7,1.5-5.6,2.8-8.3,4.1
			c-2.4,1.1-4.9,2.2-7.4,3.2c-2.6,1.1-5.3,2.1-8,3.1s-5.4,1.8-8.1,2.7c-1.9,0.6-3.9,1.2-5.8,1.8C102.4,241.7,102.2,242,102.1,242.1z
			"/>
		<path class="st2" d="M102.1,242.1c0.1-0.1,0.3-0.4,0.5-0.4c1.9-0.6,3.9-1.2,5.8-1.8c2.7-0.9,5.4-1.8,8.1-2.7c2.7-1,5.3-2,8-3.1
			c2.5-1,4.9-2.1,7.4-3.2c2.8-1.3,5.6-2.6,8.3-4.1c3.7-2,7.3-3.9,10.9-6.1c4-2.4,8-4.9,11.8-7.6c3.5-2.4,6.8-5,10.2-7.6
			c2.4-1.9,4.7-3.8,7-5.8c1.5-1.2,2.9-2.5,4.2-3.9c3-2.9,6-5.8,8.9-8.7c2.2-2.2,4.3-4.6,6.4-7c1.9-2.1,3.7-4.3,5.5-6.4
			c0.1-0.1,0.2-0.3,0.3-0.5c1.8-0.2,3.5-0.3,5.2-0.7c1.4-0.3,2.6-1,3.9-1.5c0,0.7,0,1.4,0,2.2c0.2,0,0.3,0,0.5,0
			c5.6,0,11.2,0,16.8,0c3.3,0,6.4-0.4,9.4-1.7l0,0c0,0.3,0,0.5,0,0.8c0,22.9,0,45.9,0,68.9c0,0.2,0,0.5,0,0.9c-0.3,0-0.5,0-0.7,0
			c-45.9,0-91.9,0-137.8,0C102.5,242.1,102.3,242.1,102.1,242.1z"/>
		<path class="st3" d="M160.7,173.3c-0.1,0.2-0.2,0.5-0.4,0.7c-1.5,1.3-3,2.7-4.6,4c-2.2,1.8-4.5,3.6-6.8,5.4c-4,3-8.2,5.8-12.5,8.4
			c-5.3,3.3-10.7,6.2-16.4,8.8c-4.1,1.9-8.3,3.6-12.5,5.3c-2.9,1.2-5.9,2.1-8.8,3.1c-5.3,1.7-10.6,3.1-16.1,4.2
			c-3.1,0.6-6.1,1.2-9.2,1.7c-2.1,0.3-4.1,0.5-6.2,0.8c-1.9,0.2-3.8,0.4-5.7,0.6c-0.6,0-1.2,0.1-1.8,0.1c-2.1,0.1-4.2,0.2-6.4,0.2
			c-3.3,0-6.6,0.1-9.9,0.1c-2,0-4-0.1-6-0.2c-2.1-0.1-4.2-0.3-6.2-0.5c-2-0.2-4-0.4-5.9-0.7c-4.4-0.7-8.9-1.5-13.4-2.3
			c-1.9-0.3-3.8-0.9-5.7-1.4c0-0.1,0-0.3,0-0.4c0-10.3,0-20.6,0-30.9c0-0.1,0-0.3,0-0.4c2.2,0.6,4.4,1.3,6.6,1.9
			c3.4,0.8,6.7,1.6,10.1,2.2c2.1,0.4,4.2,0.7,6.3,1s4.2,0.4,6.3,0.6c2.2,0.2,4.4,0.4,6.6,0.5c3.9,0,7.7,0,11.5-0.1c2,0,4-0.2,6-0.4
			c1.8-0.1,3.6-0.2,5.3-0.5c3-0.4,6-0.9,8.9-1.5c5.9-1,11.6-2.6,17.2-4.4c4.7-1.5,9.2-3.3,13.7-5.4c0.1-0.1,0.2-0.3,0.4-0.5
			c0.1,0,0.3,0,0.4,0c4.5,0,9,0,13.6,0c0.3,0,0.6,0,1,0c0-3,0-6,0-9c3.9,0,7.6,0.1,11.3-1.4c0,3.5,0,6.9,0,10.4c5.9,0,11.8,0,17.8,0
			c0-3.3,0-6.6,0-10c0.2,0,0.5,0,0.7,0c1.4,0,1.4,0,1.4,1.4c0,2.6,0,5.3,0,8c0,0.2,0,0.4,0,0.7c0.3,0,0.6,0,0.8,0
			C155.2,173.3,158,173.3,160.7,173.3z"/>
		<path class="st0" d="M160.7,173.3c-2.8,0-5.5,0-8.3,0c-0.2,0-0.5,0-0.8,0c0-0.2,0-0.5,0-0.7c0-2.6,0-5.3,0-8c0-1.4,0-1.4-1.4-1.4
			c-0.2,0-0.4,0-0.7,0c0,3.4,0,6.6,0,10c-6,0-11.8,0-17.8,0c0-3.4,0-6.8,0-10.4c-3.7,1.5-7.5,1.4-11.3,1.4c0,3,0,6,0,9
			c-0.4,0-0.7,0-1,0c-4.5,0-9,0-13.6,0c-0.1,0-0.3,0-0.4,0c-1.8,0-3.5,0-5.2,0c-0.8,0-1.6,0-2.1-0.8c-0.7-0.9-1.5-1.8-2.3-2.7
			c-0.7-0.8-1.5-1.6-2.2-2.5c-0.8,0.8-1.5,1.6-2.2,2.4c-1,1-2,2.1-2.9,3.1c-0.3,0.3-0.6,0.4-1,0.4c-11.2,0-22.4,0-33.6,0
			c-0.2,0-0.4,0-0.7,0c0-0.3,0-0.6,0-0.8c0-6.2,0-12.4,0-18.6c0-0.2,0-0.5,0-0.7c0-3.4,0-6.8,0-10.3c0-2.2,0-4.5,0-6.7
			c0-0.4,0-0.9,0-1.4c0.3,0,0.5,0,0.7,0c2.7,0,5.5,0,8.2,0c1.4,0,2.9,0,4.3,0c0.1,0,0.3,0,0.4,0c5.7,0,11.3,0,17,0
			c0.1,0,0.3,0,0.4,0c1.2,0,2.4,0,3.7,0c0.6,0,1,0.2,1.3,0.6c0.4,0.6,1,1.1,1.5,1.7c1,1.2,2.1,2.4,3.1,3.6c1.4-1.5,2.8-2.9,4.1-4.4
			c0.9-1.2,2-1.6,3.4-1.5c2.6,0.1,5.2,0,7.7,0c4.6,0,9.2,0,13.8,0c2,0,3.9,0.2,5.8,0.5c1,0.1,2,0.7,2.9,1.1c0.7,0.3,0.8,0.2,0.9-0.5
			c0-0.3,0-0.7,0-1.1c0.9,0,1.7,0,2.5,0c0.2,0,0.5,0,0.7,0c5.9,0,11.8,0,17.7,0c1.8,0,3.6,0.4,5.4,0.6c1.3,0.4,2.5,0.9,3.9,1.4
			c0-0.6,0-1.3,0-2c0.3,0,0.5,0,0.8,0c6.9,0,13.9,0,20.8,0c0.2,0,0.5,0,0.7,0c3.3,0,6.5,0,9.9,0c0,0.8,0,1.5,0,2.1
			c0.6-0.3,1.2-0.7,1.8-1c1.7-0.7,3.5-1.1,5.3-1.1c2.7,0,5.4,0,8.1,0c3.6,0,7.2,0,10.8,0c0,0.8,0,1.5,0,2.2c0.2-0.1,0.3-0.1,0.4-0.2
			c1.7-1.1,3.5-1.7,5.5-1.8c1.9-0.1,3.8-0.1,5.6-0.1c3,0,6,0,8.9,0c0,0,0,0.1,0,0.1c0,1.8,0,3.6,0,5.4c-2.9,0-5.9,0-8.7,0
			c-1.5,0-2.9,0-4.3,0c-0.9,0-1.9,0.1-2.8,0.3c-3.1,0.6-5.4,2.3-6.2,5.4c-0.3,1.2-0.4,2.6-0.3,3.9c0.2,3,1.8,5.2,4.7,6.2
			c0.8,0.3,1.7,0.4,2.6,0.6c0.9,0.1,1.8,0.2,2.7,0.2c1.7,0.1,3.4,0.1,5,0.3c1.2,0.1,1.9,1.1,1.9,2.2c0,1.2-0.7,2.1-1.8,2.4
			c-0.6,0.1-1.3,0.1-1.9,0.1c-3.9,0-7.8,0-11.7,0c-0.2,0-0.5,0-0.7,0c0,2.1,0,4,0,6c0.2,0,0.5,0,0.7,0c3.8,0,7.6,0,11.4,0
			c1.2,0,2.4,0,3.6-0.2c2.2-0.3,4.2-1.1,5.7-2.9c0,0,0.2-0.1,0.3-0.1c0,2.3,0,4.6,0,6.9c-3,1.3-6.2,1.7-9.4,1.7
			c-5.6,0-11.2,0-16.8,0c-0.1,0-0.3,0-0.5,0c0-0.8,0-1.5,0-2.2c-1.3,0.5-2.6,1.2-3.9,1.5c-1.7,0.4-3.5,0.5-5.2,0.7
			c-0.2,0-0.4,0-0.5,0c-14.5,0-29,0-43.5,0C161.1,173.3,160.9,173.3,160.7,173.3z M59.1,146c0,2,0,3.9,0,5.9c0,0.1,0,0.2,0,0.4
			c0,5.1,0,10.1,0,15.2c0,0.1,0,0.3,0,0.4c0.1,0,0.3,0,0.4,0c8.4,0,16.8,0,25.2,0c0.3,0,0.6-0.2,0.8-0.4c2.6-2.8,5.2-5.6,7.7-8.3
			c0.1-0.1,0.1-0.3,0.2-0.5c0.6,0.7,1.1,1.2,1.6,1.7c0.1,0.2,0.2,0.4,0.4,0.5c2,2.2,4,4.5,6,6.7c0.2,0.2,0.6,0.3,0.9,0.3
			c3.9,0,7.8,0,11.7,0c0.2,0,0.3,0,0.6,0c0-1.6,0-3.1,0-4.6s0-3.1,0-4.6c0.3,0,0.5,0,0.8,0c2.4,0,4.8,0.1,7.2,0
			c1.8-0.1,3.7-0.2,5.4-0.6c2.9-0.6,5.1-2.4,5.9-5.4c0.3-1.3,0.5-2.6,0.4-4c-0.1-4.4-2.6-7.4-7.6-8.1c-0.9-0.1-1.7-0.2-2.6-0.2
			c-7.2,0-14.4,0-21.6,0c-0.2,0-0.5,0.1-0.7,0.3c-1.7,1.8-3.3,3.5-4.9,5.3c-1.1,1.2-2.1,2.3-3.2,3.5c-1.6-1.7-3.1-3.4-4.6-5
			c-1.1-1.3-2.2-2.5-3.4-3.8c-0.1-0.1-0.3-0.2-0.5-0.2c-1,0-2,0-2.9,0c-0.1,0-0.2,0-0.4,0c-7.5,0-14.9,0-22.4,0c-0.1,0-0.3,0-0.5,0
			C59.1,142.2,59.1,144.1,59.1,146z M207.2,151.1c-1.2,0-2.4,0-3.6-0.1c-0.7,0-1.4-0.1-2.1-0.2c-1.1-0.2-1.7-1.1-1.7-2.2
			c0-1.2,0.6-2,1.8-2.2c0.4-0.1,0.8-0.1,1.2-0.1c4,0,8,0,12,0c0.2,0,0.5,0,0.7,0c0-2,0-3.9,0-5.9c-0.2,0-0.3,0-0.5,0
			c-4.3,0-8.6,0-12.9,0c-0.9,0-1.9,0.1-2.7,0.3c-2.8,0.6-5,2.1-6.1,4.9c-0.5,1.5-0.6,2.9-0.4,4.4c0.3,3,1.9,5.1,4.8,6.1
			c1.9,0.6,3.9,0.8,5.9,0.8c0.1,0,0.3,0,0.5,0c1.3,0.1,2.6,0.1,3.9,0.2c1.1,0.1,1.8,1.1,1.9,2.1c0,1.1-0.6,2.1-1.7,2.4
			c-0.6,0.1-1.4,0.2-2.1,0.2c-4,0-7.9,0-11.8,0c-0.2,0-0.5,0-0.7,0c0,2.1,0,4,0,5.9c0.2,0,0.3,0,0.4,0c4.2,0,8.3,0,12.5,0
			c1.2,0,2.4-0.1,3.6-0.3c3.3-0.7,5.6-2.4,6.4-5.9c0.4-1.8,0.4-3.5,0-5.3c-0.5-2.2-1.9-3.8-4.1-4.5
			C210.8,151.2,209,151.1,207.2,151.1z M157.1,167.8c2.2,0,4.4,0,6.5,0c0-2.6,0.1-5.2,0-7.7c0-1.8-1-3.2-2.5-4.2
			c-0.5-0.3-1-0.6-1.5-0.9c0,0,0.1-0.1,0.1-0.1c3.1-1.6,4.4-4.2,4.3-7.7c-0.1-3-1.7-5.2-4.5-6.2c-1.6-0.6-3.3-0.7-5-0.7
			c-5.5,0-10.9,0-16.5,0c-0.1,0-0.3,0-0.5,0c0,9.2,0,18.4,0,27.5c2.2,0,4.3,0,6.6,0c0-3.4,0-6.7,0-10c3.2,0,6.2-0.1,9.3,0
			c2.1,0.1,3.1,1.1,3.5,3.2c0.1,0.9,0.1,1.8,0.2,2.7C157.1,165.1,157.1,166.5,157.1,167.8z M189.7,162.1c-5.2,0-10.3,0-15.4,0
			c0-1.9,0-3.6,0-5.5c5,0,10.1,0,15,0c0-1.9,0-3.8,0-5.6c-5,0-10,0-15,0c0-1.7,0-3.3,0-5c5.1,0,10.3,0,15.4,0c0-2,0-3.8,0-5.7
			c-7.3,0-14.6,0-21.9,0c0,9.2,0,18.4,0,27.5c7.4,0,14.6,0,22,0C189.7,165.9,189.7,164.1,189.7,162.1z"/>
		<path class="st4" d="M173.3,6.4c0.1,0,0.3,0,0.5,0c9.6,0,19.2,0,28.8,0c0.1,0,0.3,0,0.5,0c0.2,1.1,0.4,2.1,0.7,3.2
			c1.1,4.5,2.1,9.1,2.7,13.7c0.4,2.9,0.8,5.7,1.1,8.6c0.2,2.1,0.4,4.3,0.5,6.4c0.1,2.7,0.2,5.4,0.2,8.2c0,1.4,0,2.7-0.1,4.1
			c-0.1,2.9-0.2,5.9-0.4,8.7c-0.1,2.1-0.2,4.2-0.5,6.2c-0.3,2.6-0.6,5.2-1.1,7.7c-0.7,3.7-1.4,7.3-2.1,11c-0.2,0.9-0.4,1.9-0.6,2.8
			c-2.9,0-5.8,0-8.7,0c-1.4,0-2.7,0-4.2,0c0,1.5,0,2.9,0,4.3c0,0-0.1,0-0.1,0c-0.6-1.2-1.3-2.5-1.9-3.8c-0.2-0.4-0.5-0.6-1-0.6
			c-4.3,0-8.6,0-13,0c-0.2,0-0.5,0-0.7,0c0-0.3,0-0.6,0.1-0.8c0.5-1.7,1-3.4,1.5-5.1c1.5-5.6,2.6-11.2,3.3-17
			c0.3-2.8,0.6-5.6,0.9-8.3c0.1-1.9,0.2-3.8,0.2-5.7c0-2.1,0-4.2-0.1-6.3c-0.1-2.9-0.3-5.8-0.5-8.6c-0.1-1.7-0.3-3.4-0.5-5.1
			c-0.3-2.5-0.8-5-1.2-7.5c-0.9-4.8-2.1-9.6-3.6-14.4C173.7,7.8,173.5,7.1,173.3,6.4z"/>
		<path class="st5" d="M173.3,6.4c0.2,0.7,0.3,1.4,0.5,2.1c1.5,4.7,2.7,9.5,3.6,14.4c0.4,2.5,0.9,5,1.2,7.5c0.2,1.7,0.4,3.4,0.5,5.1
			c0.2,2.9,0.4,5.8,0.5,8.6c0.1,2.1,0.1,4.2,0.1,6.3c0,1.9-0.1,3.8-0.2,5.7c-0.2,2.8-0.5,5.6-0.9,8.3c-0.6,5.8-1.8,11.4-3.3,17
			c-0.4,1.7-1,3.4-1.5,5.1c-0.1,0.3-0.1,0.6-0.1,0.8c-2.1,0-4.2,0-6.3,0c-2.8,0-5.5,0-8.3,0.2c-2.5,0.1-4.9,0.8-7.2,1.9
			c0,0-0.1,0-0.2,0.1c0-0.7,0-1.4,0-2.2c-1.7,0-3.4,0-5,0c0-0.2,0.1-0.3,0.1-0.5c1-2.9,2.1-5.7,3-8.6c0.9-3.1,1.7-6.3,2.3-9.4
			c0.7-3.4,1.1-6.9,1.5-10.4c0.3-2.2,0.5-4.5,0.5-6.7c0-3.9-0.1-7.9-0.2-11.8c0-1.6-0.2-3.2-0.4-4.7c-0.3-2.4-0.7-4.8-1.1-7.2
			c-0.8-4.2-1.8-8.3-3.1-12.4c-1-3-2.1-6-3.3-9c0.1,0,0.3,0,0.5,0c8.7,0,17.4,0,26.1,0C173,6.3,173.2,6.4,173.3,6.4z"/>
		<path class="st6" d="M53,153.2c0,0.2,0,0.5,0,0.7c0,6.2,0,12.4,0,18.6c0,0.2,0,0.5,0,0.8c0.2,0,0.5,0,0.7,0c11.2,0,22.4,0,33.6,0
			c0.4,0,0.7-0.1,1-0.4c1-1.1,2-2.1,2.9-3.1c0.7-0.8,1.5-1.6,2.2-2.4c0.8,0.9,1.5,1.7,2.2,2.5c0.8,0.9,1.6,1.7,2.3,2.7
			c0.6,0.8,1.3,0.8,2.1,0.8c1.8,0,3.5,0,5.2,0c-0.1,0.1-0.2,0.4-0.4,0.5c-4.5,2.1-9,3.9-13.7,5.4c-5.6,1.9-11.3,3.4-17.2,4.4
			c-3,0.5-6,1-8.9,1.5c-1.8,0.2-3.5,0.4-5.3,0.5c-2,0.1-4,0.3-6,0.4c-3.9,0.1-7.7,0.1-11.5,0.1c-2.2,0-4.4-0.3-6.6-0.5
			c-2.1-0.2-4.2-0.4-6.3-0.6c-2.1-0.3-4.2-0.6-6.3-1c-3.4-0.7-6.7-1.4-10.1-2.2c-2.2-0.5-4.4-1.2-6.6-1.9c0-0.1,0-0.3,0-0.4
			c0-11.4,0-22.8,0-34.1c0-0.1,0-0.3,0-0.4c0.5,0.1,1,0.3,1.5,0.5c3.3,1.2,6.6,2.4,10,3.5c2.6,0.8,5.3,1.5,8,2
			c3.4,0.7,6.8,1.2,10.2,1.7c2.2,0.3,4.4,0.5,6.6,0.6c1.9,0.1,3.8,0.1,5.7,0.1C50,153.3,51.5,153.2,53,153.2z"/>
		<path class="st7" d="M72.4,87.2c-2.3,0-4.7,0-7,0c-0.6,0-1.2,0.1-1.8,0c-1-0.1-1.2,0.4-1.5,1.1c-1.2,2.7-2.3,5.5-3.5,8.3
			c0,0.1-0.1,0.2-0.2,0.5c-0.5-1.1-0.9-2.1-1.4-3.1c-0.9-2.1-1.9-4.2-2.8-6.2c-0.2-0.4-0.4-0.5-0.8-0.5c-6.1,0-12.2,0-18.3,0
			c-1.4,0-1.4,0-1.4,1.4c0,0.9,0,1.8,0,2.7c0,0,0,0-0.1,0.2c-0.1-0.2-0.2-0.3-0.3-0.5c-0.5-1.1-1.1-2.1-1.6-3.3
			c-0.2-0.4-0.4-0.5-0.8-0.5c-2.2,0-4.4,0-6.6,0c-0.4-0.3-0.8-0.6-1.2-0.9c-3.9-2.5-7.3-5.6-10.4-9.1c-2.1-2.5-4-5.2-5.5-8.1
			c-0.2-0.5-0.6-0.9-0.9-1.4c0-0.2,0-0.4,0-0.5c0-12.2,0-24.4,0-36.6c0-0.2,0-0.4,0-0.5c0.1-0.1,0.3-0.3,0.4-0.5
			c0.7-1.3,1.3-2.7,2-4c1.7-2.9,3.6-5.5,5.8-8c1.7-1.9,3.6-3.6,5.6-5.2c2.7-2.2,5.7-3.9,8.8-5.4c0.2-0.1,0.3-0.3,0.5-0.4
			c0.1,0,0.3,0,0.5,0c13.1,0,26.2,0,39.3,0c0.1,0,0.3,0,0.5,0c0.3,0.2,0.6,0.5,0.9,0.7c3.2,1.8,6.1,4,8.7,6.4c1.4,1.3,2.7,2.8,4,4.2
			c2.2,2.5,4,5.3,5.5,8.2c1.9,3.6,3.2,7.3,4.1,11.2c0.7,3.2,1.1,6.5,1.2,9.9c0,1.6,0,3.2-0.2,4.8c-0.2,2.1-0.5,4.2-0.9,6.2
			c-0.9,4.3-2.5,8.4-4.7,12.2c-1.7,3-3.7,5.9-6.1,8.4c-2.8,3-5.9,5.8-9.4,8C72.7,86.8,72.5,87,72.4,87.2z M46.6,84.5
			c8.4,0,15.1-2,21.2-5.9c5.6-3.6,9.9-8.3,12.9-14.2c2.7-5.3,4.2-10.9,4.1-16.8c-0.1-10-3.5-18.7-10.6-25.9
			c-7-7.2-15.7-11-25.7-11.1c-21.4-0.2-36.8,16.3-37.6,35.2c-0.4,10.2,2.7,19.2,9.6,26.8C27.8,80.4,37,84.3,46.6,84.5z"/>
		<path class="st8" d="M203.5,87.2c0.2-0.9,0.4-1.9,0.6-2.8c0.7-3.7,1.5-7.3,2.1-11c0.4-2.5,0.8-5.1,1.1-7.7
			c0.2-2.1,0.4-4.2,0.5-6.2c0.1-2.9,0.2-5.9,0.4-8.7c0-1.4,0.1-2.7,0.1-4.1c0-2.7-0.1-5.4-0.2-8.2c-0.1-2.1-0.2-4.3-0.5-6.4
			c-0.3-2.9-0.7-5.7-1.1-8.6c-0.6-4.6-1.6-9.2-2.7-13.7c-0.2-1.1-0.4-2.1-0.7-3.2c0.1,0,0.3,0,0.4,0c7.8,0,15.5,0,23.2,0
			c0.1,0,0.3,0,0.4,0c0.2,1,0.4,2,0.6,2.9c0.6,3,1.1,6.1,1.7,9.1c0.3,1.8,0.6,3.7,0.8,5.5c0.2,1.7,0.3,3.3,0.5,4.9
			c0.2,2.2,0.4,4.4,0.6,6.6c0.1,1.6,0.2,3.2,0.2,4.8c0,1.8,0.1,3.5,0.1,5.2c0,2.3,0,4.7-0.1,7.1c0,0.9,0,1.9-0.1,2.8
			c-0.1,2.7-0.3,5.4-0.5,8.1c-0.1,1.9-0.3,3.8-0.5,5.6c-0.2,2.1-0.5,4.1-0.9,6.2c-0.4,2.6-0.9,5.2-1.3,7.8c-0.2,1.4-0.5,2.7-0.8,4.1
			c-1.4,0-2.9,0-4.3,0c-3.5,0-7,0-10.5,0c-0.2,0-0.5,0-0.8,0c0,1.5,0,2.9,0,4.2c0,0-0.1,0-0.1,0c-0.5-1-1.2-1.9-1.7-3
			c-0.5-1.1-1.2-1.5-2.4-1.4C206.4,87.3,204.9,87.2,203.5,87.2z"/>
		<path class="st9" d="M227.6,87.2c0.2-1.4,0.5-2.7,0.8-4.1c0.4-2.6,0.9-5.2,1.3-7.8c0.3-2.1,0.6-4.1,0.9-6.2
			c0.2-1.9,0.4-3.8,0.5-5.6c0.2-2.7,0.3-5.4,0.5-8.1c0-0.9,0.1-1.9,0.1-2.8c0-2.3,0.1-4.7,0.1-7.1c0-1.8,0-3.5-0.1-5.2
			c0-1.6-0.1-3.2-0.2-4.8c-0.2-2.2-0.4-4.4-0.6-6.6c-0.1-1.7-0.3-3.3-0.5-4.9c-0.2-1.9-0.5-3.7-0.8-5.5c-0.5-3.1-1.1-6.1-1.7-9.1
			c-0.2-1-0.4-2-0.6-2.9c2.4,0,4.7,0,7.1,0c2.1,0,4.1,0,6.2,0c0.2,0,0.4,0,0.8,0c0,1.1,0,2.1,0,3c0,41.6,0,83.1,0,124.7
			c0,0.2,0,0.4-0.1,0.7c-3,0-6,0-8.9,0c-1.9,0-3.8,0-5.6,0.1c-2,0.1-3.8,0.7-5.5,1.8c-0.1,0-0.2,0.1-0.4,0.2c0-0.8,0-1.4,0-2.2
			c-3.7,0-7.3,0-10.8,0c0.1-0.2,0.1-0.5,0.2-0.8c1-1.9,2-3.8,2.9-5.7c0.4-0.8,0.7-1.7,1-2.4c1.9,0,3.8,0,5.8,0c3.2,0,6.5,0,9.7,0
			c0.2,0,0.4,0,0.7,0c0-12.8,0-25.6,0-38.6C229.4,87.2,228.5,87.2,227.6,87.2z"/>
		<path class="st10" d="M72.4,87.2c0.1-0.1,0.3-0.4,0.5-0.5c3.5-2.2,6.6-4.9,9.4-8c2.4-2.6,4.3-5.4,6.1-8.4
			c2.2-3.9,3.8-7.9,4.7-12.2c0.4-2.1,0.7-4.1,0.9-6.2c0.2-1.6,0.2-3.2,0.2-4.8c0-3.3-0.4-6.6-1.2-9.9c-0.9-3.9-2.2-7.7-4.1-11.2
			c-1.6-2.9-3.4-5.7-5.5-8.2c-1.3-1.5-2.6-2.9-4-4.2c-2.6-2.5-5.6-4.6-8.7-6.4c-0.3-0.2-0.6-0.4-0.9-0.7c5.5,0,11,0,16.5,0
			c0.1,0.2,0.2,0.4,0.4,0.6c1,1,2,2,2.9,3c2.1,2.2,3.8,4.6,5.4,7.1c2.5,3.8,4.4,7.9,5.9,12.2c1.1,3.2,1.9,6.4,2.3,9.7
			c0.3,2.4,0.6,4.9,0.7,7.4c0.1,3-0.1,6-0.6,9c-0.4,3-1,5.9-2,8.7c-1.3,4.1-3,7.9-5.1,11.6c-2.2,3.8-4.8,7.3-7.8,10.4
			c-0.3,0.3-0.5,0.7-0.7,1C82.7,87.2,77.5,87.2,72.4,87.2z"/>
		<path class="st11" d="M87.8,87.2c0.2-0.3,0.4-0.7,0.7-1c3-3.2,5.6-6.6,7.8-10.4c2.1-3.7,3.8-7.6,5.1-11.6c0.9-2.8,1.5-5.8,2-8.7
			c0.4-3,0.7-6,0.6-9c-0.1-2.5-0.4-4.9-0.7-7.4c-0.4-3.3-1.3-6.5-2.3-9.7C99.4,25,97.4,20.9,95,17c-1.6-2.5-3.4-4.9-5.4-7.1
			c-0.9-1-1.9-2-2.9-3c-0.1-0.2-0.3-0.4-0.4-0.6c3.9,0,7.7,0,11.5,0C97.9,6.7,98,7,98.3,7.3c2.5,3,4.6,6.3,6.4,9.8
			c2.1,3.8,3.6,7.7,4.9,11.9c1.5,4.9,2.4,10,2.6,15.1c0.1,2.5,0,5.1-0.1,7.7c-0.1,2-0.4,4-0.6,5.9c-0.4,3.1-1.2,6.1-2.1,9
			c-1.3,4.1-2.8,8-4.9,11.7c-1.2,2.1-2.6,4.2-3.9,6.2c-0.5,0.9-1.2,1.7-1.8,2.5C95.2,87.2,91.5,87.2,87.8,87.2z"/>
		<path class="st12" d="M98.8,87.2c0.6-0.8,1.2-1.7,1.8-2.5c1.3-2.1,2.7-4.1,3.9-6.3c2.1-3.7,3.7-7.7,4.9-11.7
			c0.9-2.9,1.7-5.9,2.1-9c0.2-2,0.5-4,0.6-5.9c0.1-2.5,0.2-5.1,0.1-7.7c-0.2-5.1-1.1-10.2-2.6-15.1c-1.3-4.1-2.8-8.1-4.9-11.9
			c-1.9-3.4-4-6.7-6.4-9.8c-0.2-0.3-0.3-0.6-0.5-0.9c3,0,6.1,0,9.1,0c0.1,0.2,0.2,0.5,0.3,0.8c1.4,2.2,2.8,4.4,4.1,6.8
			c1.9,3.4,3.4,7,4.6,10.7c1.5,4.4,2.6,8.9,3.1,13.5c0.2,2,0.6,4,0.6,6c0,3.2,0,6.3-0.2,9.5c-0.1,2.1-0.4,4.2-0.8,6.3
			c-0.7,4.2-1.9,8.3-3.3,12.4c-1.7,4.5-3.7,8.8-6.2,12.8c-0.4,0.7-0.8,1.4-1.2,2.1C104.8,87.2,101.9,87.2,98.8,87.2z"/>
		<path class="st8" d="M193.3,112.5c0.9,2,1.8,4,2.6,6c0,0,0,0,0.1,0c0-8.6,0-17.2,0-25.8c0.3,0,0.5,0,0.7,0c2.8,0,5.7,0,8.5,0
			c0.5,0,0.8,0.1,1.1,0.6c3.6,6,7.2,12,10.8,17.9c0.1,0.2,0.2,0.3,0.4,0.6c0-6.4,0-12.8,0-19.1c2.3,0,4.5,0,6.7,0
			c0,9.2,0,18.4,0,27.6c-0.2,0-0.4,0-0.6,0c-2.7,0-5.4,0-8.1,0c-0.4,0-0.7-0.1-0.9-0.5c-3.9-6.4-7.8-12.9-11.7-19.3
			c-0.1-0.2-0.3-0.4-0.5-0.8c0,6.9,0,13.8,0,20.6c-0.2,0-0.3,0-0.5,0c-4.2,0-8.3,0-12.5,0c-0.1,0-0.1,0-0.2,0
			c0.1-0.2,0.1-0.5,0.2-0.7c1-2.2,2.1-4.4,3.1-6.5C193,112.8,193.2,112.6,193.3,112.5z"/>
		<path class="st13" d="M107.9,87.2c0.4-0.7,0.8-1.4,1.2-2.1c2.5-4.1,4.5-8.3,6.2-12.8c1.5-4,2.6-8.2,3.3-12.4
			c0.4-2.1,0.6-4.2,0.8-6.3c0.2-3.1,0.3-6.3,0.2-9.5c0-2-0.3-4-0.6-6c-0.5-4.6-1.7-9.1-3.1-13.5c-1.2-3.7-2.7-7.3-4.6-10.7
			c-1.3-2.3-2.7-4.5-4.1-6.8c-0.1-0.2-0.2-0.5-0.3-0.8c2.5,0,5,0,7.5,0c0,0.1,0.1,0.2,0.1,0.3c1.1,1.9,2.2,3.8,3.2,5.8
			c1.1,2.3,2.1,4.6,3,7c1.1,3.1,2.1,6.2,3,9.4c0.9,3.4,1.5,6.8,1.8,10.4c0.2,2.2,0.4,4.5,0.5,6.8c0,1.4,0,2.8-0.1,4.2
			c-0.2,2.6-0.3,5.3-0.6,7.9c-0.3,2.6-0.8,5.3-1.5,7.9c-0.7,2.8-1.6,5.7-2.5,8.4c-1.4,4.2-3.3,8.1-5.5,11.9
			c-0.1,0.2-0.2,0.5-0.3,0.8C112.8,87.2,110.4,87.2,107.9,87.2z"/>
		<path class="st14" d="M146.2,6.4c1.1,3,2.2,6,3.3,9c1.4,4.1,2.3,8.2,3.1,12.4c0.4,2.4,0.8,4.8,1.1,7.2c0.2,1.6,0.3,3.2,0.4,4.7
			c0.1,3.9,0.2,7.9,0.2,11.8c0,2.2-0.2,4.5-0.5,6.7c-0.4,3.5-0.9,6.9-1.5,10.4c-0.6,3.2-1.4,6.3-2.3,9.4c-0.9,2.9-2,5.8-3,8.6
			c0,0.2-0.1,0.3-0.1,0.5c-2.2,0-4.4,0-6.6,0c0.1-0.3,0.1-0.6,0.2-0.8c1.8-4.2,3.2-8.4,4.4-12.8c1.4-5.3,2.4-10.6,2.9-16.1
			c0.1-2,0.4-4.1,0.5-6.1c0-3.6,0-7.1-0.2-10.6c-0.1-2.4-0.4-4.9-0.7-7.3c-0.4-2.9-0.9-5.8-1.6-8.6c-1.3-5.5-3-10.9-5.2-16.2
			c-0.3-0.7-0.5-1.5-0.8-2.2C141.8,6.4,144,6.4,146.2,6.4z"/>
		<path class="st15" d="M128.5,87.3c-2.2,0-4.4,0-6.6,0c0-0.2,0.1-0.4,0.2-0.6c1-2.1,2-4.2,2.9-6.2c1.6-3.5,2.7-7,3.8-10.7
			c1.3-4.7,2.1-9.5,2.6-14.3c0.2-2.3,0.3-4.7,0.4-7.1c0-1.2,0-2.3-0.1-3.5c0-1.5-0.1-2.9-0.2-4.3c-0.2-2.3-0.5-4.6-0.9-6.9
			c-0.5-3.9-1.5-7.7-2.7-11.4c-0.9-2.8-2-5.5-3.1-8.2c-0.7-1.7-1.5-3.2-2.3-4.8c-0.4-0.9-0.9-1.8-1.4-2.7c2.2,0,4.5,0,6.7,0
			c0,0.2,0,0.4,0.1,0.5c1.4,3.2,2.9,6.3,4.2,9.6c1.6,4.2,2.9,8.4,3.7,12.8c0.6,3.1,1,6.2,1.4,9.3c0.2,2.2,0.4,4.3,0.5,6.5
			c0,1.9,0,3.8-0.1,5.7c-0.1,2.3-0.2,4.5-0.5,6.8c-0.2,2.1-0.4,4.2-0.9,6.3c-0.8,3.7-1.8,7.5-2.8,11.1c-1.2,3.9-2.7,7.7-4.5,11.3
			C128.6,86.7,128.6,87,128.5,87.3z"/>
		<path class="st16" d="M53,153.2c-1.6,0-3.1,0.1-4.7,0.1c-1.9,0-3.8,0-5.7-0.1c-2.2-0.1-4.4-0.3-6.6-0.6c-3.4-0.5-6.8-1-10.2-1.7
			c-2.7-0.5-5.3-1.2-8-2c-3.4-1-6.6-2.3-10-3.5c-0.5-0.2-1-0.3-1.5-0.5c0-3.7,0-7.4,0-11.1c0.4,0.1,0.8,0.3,1.2,0.4
			c3,1.2,6,2.6,9.1,3.7c3.4,1.1,6.8,2.1,10.2,2.9c3.1,0.7,6.2,1.2,9.3,1.6c2.4,0.3,4.8,0.6,7.2,0.6c3.2,0.1,6.5,0,9.7-0.1
			C53,146.3,53,149.8,53,153.2z"/>
		<path class="st17" d="M121,6.4c0.4,0.9,0.9,1.8,1.4,2.7c0.8,1.6,1.7,3.2,2.3,4.8c1.1,2.7,2.1,5.5,3.1,8.2
			c1.3,3.7,2.2,7.5,2.7,11.4c0.3,2.3,0.6,4.6,0.9,6.9c0.1,1.4,0.2,2.9,0.2,4.3c0,1.2,0.1,2.3,0.1,3.5c-0.1,2.3-0.1,4.7-0.4,7.1
			c-0.4,4.8-1.3,9.6-2.6,14.3c-1,3.7-2.2,7.2-3.8,10.7c-0.9,2.1-2,4.2-2.9,6.2c-0.1,0.2-0.1,0.4-0.2,0.6c-2.1,0-4.3,0-6.5-0.1
			c0.1-0.3,0.2-0.6,0.3-0.8c2.1-3.8,4.1-7.8,5.5-11.9c0.9-2.8,1.9-5.6,2.5-8.4c0.6-2.6,1.1-5.3,1.5-7.9c0.3-2.6,0.5-5.2,0.6-7.9
			c0.1-1.4,0.2-2.8,0.1-4.2c-0.1-2.3-0.3-4.5-0.5-6.8c-0.3-3.5-0.9-7-1.8-10.4c-0.8-3.2-1.9-6.3-3-9.4c-0.9-2.4-1.9-4.7-3-7
			c-1-2-2.1-3.9-3.2-5.8c0-0.1-0.1-0.2-0.1-0.3C116.6,6.4,118.8,6.4,121,6.4z"/>
		<path class="st18" d="M128.5,87.3c0-0.2,0.1-0.5,0.2-0.8c1.8-3.7,3.4-7.4,4.5-11.3c1.1-3.7,2-7.4,2.8-11.1
			c0.5-2.1,0.7-4.2,0.9-6.3c0.2-2.2,0.4-4.5,0.5-6.8c0.1-1.9,0.2-3.8,0.1-5.7c0-2.2-0.2-4.4-0.5-6.5c-0.4-3.1-0.8-6.2-1.4-9.3
			c-0.8-4.4-2.1-8.7-3.7-12.8c-1.3-3.2-2.8-6.4-4.2-9.6c0-0.1-0.1-0.3-0.1-0.5c2.1,0,4.2,0,6.2,0c0.2,0.6,0.4,1.2,0.6,1.8
			c1.1,2.7,2.3,5.4,3.2,8.1c1,3.1,2,6.2,2.7,9.4c0.7,3.1,1.3,6.3,1.8,9.5c0.4,2.9,0.6,5.9,0.7,8.8c0.1,2.6,0,5.3-0.1,7.9
			c-0.1,2.9-0.4,5.7-0.7,8.6c-0.3,2.6-0.8,5.3-1.4,7.9c-1.1,5.1-2.6,10-4.6,14.8c-0.5,1.4-1.1,2.7-1.7,4.1c-0.1,0.1-0.3,0.3-0.3,0.5
			c0,0.5,0,1.1,0,1.8C132.5,88,130.5,87.5,128.5,87.3z"/>
		<path class="st4" d="M193.3,112.5c-0.1,0.1-0.4,0.2-0.4,0.4c-1.1,2.2-2.1,4.3-3.1,6.5c-0.1,0.2-0.2,0.5-0.2,0.7
			c-0.2-0.1-0.4-0.2-0.5-0.4c-0.7-1.8-1.5-3.5-2.2-5.2c-0.1-0.3-0.2-0.4-0.6-0.4c-4.3,0-8.6,0-13,0c-0.1,0-0.1,0-0.3,0
			c-0.7,1.9-1.5,3.7-2.2,5.5c-0.1,0.4-0.3,0.6-0.8,0.6c-2.7,0-5.5,0-8.2,0c-0.3,0-0.6,0-1-0.1c0-0.2,0.1-0.4,0.2-0.5
			c0.9-1.5,1.8-2.9,2.7-4.4c0.1-0.2,0.1-0.5,0.2-0.7c0.2,0,0.5,0,0.7,0c1,0.2,1.4-0.3,1.8-1.2c2.8-6.7,5.7-13.3,8.5-20
			c0.2-0.4,0.4-0.6,0.9-0.6c2.9,0,5.8,0,8.7,0c0.3,0,0.6,0,0.7,0.4c2.7,6.4,5.5,12.9,8.3,19.3C193.3,112.5,193.3,112.5,193.3,112.5z
			 M175.2,108.3c3,0,6,0,9.1,0c-1.5-3.7-3-7.2-4.5-11C178.2,101.1,176.7,104.7,175.2,108.3z"/>
		<path class="st19" d="M134.6,87.2c0.5-1.3,1.1-2.7,1.7-4.1c1.9-4.8,3.5-9.7,4.6-14.8c0.5-2.6,1-5.3,1.4-7.9
			c0.3-2.8,0.6-5.7,0.7-8.6c0.1-2.6,0.2-5.3,0.1-7.9c-0.1-2.9-0.3-5.9-0.7-8.8c-0.4-3.2-1-6.3-1.8-9.5s-1.7-6.3-2.7-9.4
			c-0.9-2.7-2.1-5.4-3.2-8.1c-0.2-0.6-0.4-1.2-0.6-1.8c1.9,0,3.8,0,5.6,0c0.3,0.7,0.5,1.5,0.8,2.2c2.2,5.2,4,10.6,5.2,16.2
			c0.6,2.8,1.1,5.7,1.6,8.6c0.3,2.4,0.6,4.8,0.7,7.3c0.2,3.6,0.2,7.1,0.2,10.6c0,2-0.3,4.1-0.5,6.1c-0.4,5.5-1.5,10.8-2.9,16.1
			c-1.2,4.4-2.6,8.6-4.4,12.8c-0.1,0.2-0.1,0.5-0.2,0.8C138.3,87.2,136.5,87.2,134.6,87.2z"/>
		<path class="st15" d="M66.4,134.7c-1.4,0-2.9,0-4.3,0c-2.7,0-5.5,0-8.2,0c-0.2,0-0.4,0-0.7,0c0,0.5,0,0.9,0,1.4
			c-1.5,0.1-2.9,0.2-4.4,0.2c-1,0-2.1,0-3-0.1c-2.1-0.1-4.2-0.2-6.4-0.4c-2.2-0.2-4.5-0.5-6.7-0.9c-4.1-0.7-8-1.7-11.9-2.9
			c-4.6-1.5-9-3.3-13.3-5.5c-0.3-0.1-0.6-0.2-0.9-0.3c-0.1-0.4,0-0.5,0.5-0.5c3.6,0,7.1,0,10.7,0c0.1,0,0.3,0,0.5,0.1
			c2.9,0.9,5.8,2,8.7,2.7c3.5,1,7.1,1.7,10.8,2c2.2,0.2,4.4,0.5,6.7,0.6c2.7,0.1,5.4,0,8.1-0.1c1.6,0,3.3-0.2,4.9-0.4
			c2.3-0.3,4.7-0.6,7-1c4.1-0.8,8.1-1.9,12-3.3c0.4-0.1,0.7-0.4,1.1-0.6c4.1,0,8.2,0,12.3,0c-0.2,0.2-0.4,0.4-0.7,0.6
			c-1.2,0.6-2.4,1.2-3.6,1.8c-2.4,1-4.9,2.1-7.4,3c-3.6,1.3-7.2,2.4-10.8,3.2C66.7,134.3,66.6,134.6,66.4,134.7z"/>
		<path class="st20" d="M6.4,126.3c0.3,0.1,0.6,0.1,0.9,0.3c4.3,2.2,8.7,4.1,13.3,5.5c3.9,1.3,7.9,2.3,11.9,2.9
			c2.2,0.3,4.4,0.7,6.7,0.9c2.1,0.2,4.2,0.3,6.4,0.4c1,0,2.1,0.1,3,0.1c1.5,0,2.9-0.1,4.4-0.2c0,2.2,0,4.5,0,6.7
			c-3.2,0-6.5,0.1-9.7,0.1c-2.4,0-4.8-0.3-7.2-0.6c-3.1-0.4-6.2-0.9-9.3-1.6c-3.5-0.8-6.9-1.8-10.2-2.9c-3.1-1-6.1-2.4-9.1-3.7
			c-0.4-0.1-0.8-0.3-1.2-0.4C6.4,131.2,6.4,128.8,6.4,126.3z"/>
		<path class="st17" d="M77.2,125.8c-0.3,0.2-0.7,0.5-1.1,0.6c-3.9,1.5-7.9,2.5-12,3.3c-2.3,0.4-4.6,0.7-7,1
			c-1.6,0.2-3.3,0.3-4.9,0.4c-2.7,0.1-5.4,0.2-8.1,0.1c-2.2,0-4.4-0.3-6.7-0.6c-3.7-0.4-7.2-1-10.8-2c-2.9-0.8-5.8-1.8-8.7-2.7
			c-0.1,0-0.3-0.1-0.5-0.1c0.8-1.9,1.6-3.8,2.3-5.6c0.1-0.3,0.3-0.5,0.7-0.5c1.6,0,3.1,0,4.7,0c0.4,0,0.6,0.1,0.7,0.5
			c0.7,1.8,1.4,3.5,2.1,5.2c0.1,0.3,0.3,0.4,0.6,0.4c7.1,0,14.3,0,21.4,0c0.1,0,0.2,0,0.3,0c0-1.5,0-3,0-4.4c0,0,0.1,0,0.1,0
			c0.5,1.3,1.1,2.6,1.7,4c0.1,0.4,0.3,0.6,0.8,0.6c3.5,0,6.9,0,10.4,0c0.4,0,0.7-0.1,0.8-0.5c0.5-1.3,1.1-2.6,1.7-4
			c0,1.5,0,2.9,0,4.5C69.8,125.8,73.5,125.8,77.2,125.8z"/>
		<path class="st21" d="M185,134.7c-0.2,0-0.5,0-0.7,0c-6.9,0-13.9,0-20.8,0c-0.2,0-0.5,0-0.8,0c0,0.7,0,1.4,0,2
			c-1.3-0.5-2.6-0.9-3.9-1.4c0.3-0.4,0.5-0.9,0.8-1.4c1.8-2.5,3.6-5,5.4-7.6c0.1-0.2,0.2-0.4,0.2-0.7c2.8,0,5.7,0,8.5,0
			c0.5,0,0.8-0.1,1-0.6c0.7-1.7,1.4-3.3,2.1-5c0.1-0.4,0.3-0.5,0.8-0.5c1.5,0,3,0,4.5,0c0.4,0,0.6,0.1,0.8,0.5
			c0.6,1.7,1.4,3.3,2.1,5c0.1,0.4,0.4,0.6,0.8,0.6c1.4,0,2.7,0,4.1,0c0,0.2,0,0.5-0.1,0.6c-1.4,2.3-2.8,4.6-4.1,6.9
			C185.4,133.8,185.2,134.3,185,134.7z"/>
		<path class="st6" d="M163.7,114.5c-0.1,0.2-0.1,0.5-0.2,0.7c-0.9,1.5-1.8,3-2.7,4.4c-0.1,0.1-0.1,0.4-0.2,0.5
			c-6.1-0.4-9.7-3.5-10.7-9.4c-0.6-3.2-0.5-6.5,0.3-9.7c1.3-4.7,4.6-7.7,9.5-8.1c3.2-0.3,6.4-0.2,9.6-0.2c0,0,0,0,0.1,0
			c0,1.9,0,3.9,0,5.9c-0.2,0-0.4,0-0.6,0c-2.1,0-4.1,0-6.2,0c-0.8,0-1.6,0.1-2.3,0.3c-1.8,0.5-2.8,1.8-3.4,3.5
			c-0.9,2.8-0.9,5.7,0,8.5c0.8,2.3,2.2,3.3,4.9,3.5C162.5,114.4,163.1,114.4,163.7,114.5z"/>
		<path class="st12" d="M45.8,114.9c0,1.8,0,3.5,0,5.4c-0.2,0-0.4,0-0.7,0c-4.1,0-8.1,0-12.1,0c-0.5,0-0.7-0.1-0.9-0.6
			c-0.7-1.7-1.4-3.4-2.1-5.1c-0.1-0.3-0.3-0.5-0.7-0.5c-4.4,0-8.9,0-13.3,0c-1.1-0.5-2.2-1.1-3.3-1.7c-0.8-0.4-1.6-0.9-2.3-1.4
			c0-0.1,0-0.3,0.1-0.4c1.4-3.2,2.8-6.4,4.2-9.7c0-0.1,0.1-0.1,0.1-0.2c0.3,0.2,0.7,0.4,1.1,0.7c1.5,0.8,2.9,1.6,4.4,2.3
			c-0.6,1.5-1.2,3-1.9,4.6c2.2,0,4.2,0,6.3,0c0.1,0.1,0.3,0.4,0.4,0.4c2.9,0.9,5.9,1.7,8.8,2.5c0.7,0.2,1.4,0.2,2.1,0.4
			c0.9,2,1.8,4.1,2.6,6.1c0.1,0.2,0.2,0.4,0.3,0.6c0,0,0.1,0,0.1,0c0-1.4,0-2.7,0-4.1C41.5,114.6,43.7,114.7,45.8,114.9z"/>
		<path class="st2" d="M241.3,164.6c-0.1,0-0.2,0-0.3,0.1c-1.5,1.8-3.5,2.6-5.7,2.9c-1.2,0.2-2.3,0.2-3.6,0.2c-3.8,0-7.6,0-11.4,0
			c-0.2,0-0.4,0-0.7,0c0-2,0-3.9,0-6c0.2,0,0.5,0,0.7,0c3.9,0,7.8,0,11.7,0c0.6,0,1.3,0,1.9-0.1c1.1-0.2,1.8-1.2,1.8-2.4
			s-0.7-2.1-1.9-2.2c-1.7-0.2-3.4-0.2-5-0.3c-0.9,0-1.8-0.2-2.7-0.2c0.5-0.9,1-1.8,1.5-2.7c0.5-1,1.1-2,1.6-2.9c2,0,4,0,5.9,0.2
			c2.3,0.1,4.5,0.7,6.1,2.6c0,0,0.1,0.1,0.1,0.2c1.9,3.3,1.8,6.6,0.1,10C241.4,164.2,241.4,164.4,241.3,164.6L241.3,164.6z"/>
		<path class="st8" d="M185,134.7c0.2-0.4,0.3-0.9,0.6-1.3c1.4-2.3,2.7-4.6,4.1-6.9c0.1-0.2,0.1-0.4,0.1-0.6c1.6,0,3.1,0,4.7,0
			c4.3,0,8.6,0,13,0c0.2,0,0.5,0,0.8,0c0-1.9,0-3.8,0-5.6c0,0,0.1,0,0.1,0c0.2,0.3,0.4,0.6,0.6,1c0.8,1.4,1.7,2.8,2.5,4.2
			c0.2,0.4,0.5,0.5,0.9,0.5c0.5,0,1.1,0,1.7,0c-0.3,0.8-0.6,1.7-1,2.4c-0.9,1.9-2,3.8-2.9,5.7c-0.1,0.2-0.1,0.5-0.2,0.8
			c-2.7,0-5.4,0-8.1,0c-1.8,0-3.6,0.3-5.3,1.1c-0.6,0.3-1.2,0.6-1.8,1c0-0.7,0-1.3,0-2.1C191.6,134.7,188.2,134.7,185,134.7z"/>
		<path class="st22" d="M134.9,134.7c-0.8,0-1.6,0-2.5,0c0,0.4,0,0.8,0,1.1c0,0.7-0.2,0.8-0.9,0.5c-1-0.4-1.9-0.9-2.9-1.1
			c-1.9-0.3-3.9-0.5-5.8-0.5c-4.6-0.1-9.2,0-13.8,0c0.1-0.2,0.1-0.4,0.3-0.5c1.6-1.2,3.2-2.3,4.7-3.6c1.7-1.3,3.3-2.7,5-4.2
			c0.2-0.1,0.3-0.5,0.4-0.7c0.6,0,1.2,0,1.9,0c0-0.5,0-0.9,0-1.3c0.2-0.1,0.4-0.2,0.6-0.4c0.4-0.3,0.9-0.6,1.3-1c0,0.8,0,1.7,0,2.6
			c0.3,0,0.5,0,0.8,0c6,0,11.9,0,17.9,0c0.2,0,0.5,0,0.7,0c-0.1,0.2-0.1,0.4-0.2,0.5c-1,1.1-1.9,2.3-2.9,3.4
			c-1.4,1.6-2.9,3.1-4.3,4.6C135,134.5,134.9,134.6,134.9,134.7z"/>
		<path class="st23" d="M134.9,134.7c0.1-0.1,0.1-0.2,0.2-0.3c1.5-1.6,2.9-3.1,4.3-4.6c1-1.1,2-2.2,2.9-3.4c0.1-0.1,0.2-0.4,0.2-0.5
			c2.8,0,5.6,0,8.3,0c0.2,0,0.5,0,0.8,0c0-0.8,0-1.5,0-2.3c0.3,0.1,0.5,0.2,0.7,0.3c2,0.9,4,1.6,6.2,1.8c1.8,0.1,3.6,0.2,5.4,0.3
			c0.4,0,0.8,0,1.3,0c-0.1,0.2-0.1,0.5-0.2,0.7c-1.8,2.5-3.6,5-5.4,7.6c-0.3,0.4-0.5,0.9-0.8,1.4c-1.8-0.2-3.6-0.6-5.4-0.6
			c-5.9-0.1-11.8,0-17.7,0C135.4,134.8,135.1,134.7,134.9,134.7z"/>
		<path class="st10" d="M29.5,6.4c-0.1,0.1-0.3,0.3-0.5,0.4c-3.1,1.5-6.1,3.3-8.8,5.4c-2,1.6-3.9,3.3-5.6,5.2
			c-2.2,2.4-4.2,5.1-5.8,8c-0.7,1.3-1.3,2.6-2,4c-0.1,0.2-0.3,0.3-0.4,0.5c0-2.9,0-5.8,0-8.7c0-4.7,0-9.3,0-14c0-0.2,0-0.5,0-0.8
			c0.2,0,0.3,0,0.5,0C14.5,6.4,21.9,6.4,29.5,6.4C29.3,6.4,29.4,6.4,29.5,6.4z"/>
		<path class="st22" d="M146.3,120.3c-2.2,0-4.4,0-6.6,0c0-9.2,0-18.4,0-27.6c2.2,0,4.4,0,6.6,0
			C146.3,101.9,146.3,111.1,146.3,120.3z"/>
		<path class="st10" d="M49.6,106.9c-0.9-2.1-1.9-4.2-2.8-6.3c-0.2-0.6-0.5-1.1-0.9-1.7c0,2.5,0,5.1,0,7.6c-1,0-2-0.1-2.9-0.1
			c-1.2-0.1-2.4-0.2-3.6-0.3c0-0.2,0-0.4,0-0.7c0-4,0-8,0-11.9c0-0.6,0.2-0.8,0.8-0.8c3.2,0,6.3,0,9.5,0c0.4,0,0.6,0.1,0.8,0.5
			c2,4.3,4,8.7,6.1,13.1c0,0,0,0.1,0,0.2c-0.2,0-0.4,0-0.7,0C53.7,106.6,51.6,106.7,49.6,106.9z"/>
		<path class="st24" d="M49.6,106.9c2.1-0.1,4.1-0.3,6.1-0.5c0.2,0,0.4,0,0.7,0c0.8,1.6,1.5,3.2,2.3,5c0.8-1.8,1.5-3.5,2.3-5.2
			c2.1-0.6,4.3-1.2,6.5-1.8c0.3-0.1,0.6-0.1,0.9-0.2c-1.1,2.4-2.1,4.9-3.2,7.3c-1.2,2.8-2.4,5.5-3.7,8.3c-0.1,0.4-0.3,0.6-0.8,0.6
			c-1.6,0-3.2,0-4.7,0c-0.2,0-0.6-0.1-0.6-0.3C53.4,115.6,51.5,111.3,49.6,106.9z"/>
		<path class="st10" d="M6.3,67.6C6.6,68.1,7,68.6,7.3,69c1.5,2.9,3.4,5.6,5.5,8.1c3,3.5,6.4,6.5,10.4,9.1c0.4,0.3,0.8,0.6,1.2,0.9
			c-3.1,0-6.2,0-9.4,0c-0.4,0-0.7,0.1-0.9,0.5c-0.4,1-0.9,2.1-1.4,3.1c-0.5-0.5-1.1-1-1.7-1.6c-1.2-1.2-2.4-2.3-3.6-3.5
			c-0.3-0.3-0.7-0.6-1.1-1c0-3,0-6,0-8.9C6.3,73.1,6.3,70.4,6.3,67.6z"/>
		<path class="st25" d="M68.4,104.2c-0.3,0-0.6,0.1-0.9,0.2c-2.1,0.6-4.3,1.2-6.5,1.8c0.8-2,1.7-4,2.5-5.9c1-2.4,2-4.7,3-7.1
			c0.1-0.3,0.2-0.4,0.6-0.4c3.4,0,6.7,0,10.1,0c0.1,0,0.2,0,0.4,0c0,2.7,0,5.3,0,7.9c-0.2,0-0.3,0.1-0.5,0.2c-2.1,1-4.2,2.1-6.2,3.1
			c0-1.7,0-3.3,0-5c0,0,0,0-0.1,0C70,100.6,69.2,102.4,68.4,104.2z"/>
		<path class="st14" d="M119.3,125.8c-0.1,0.2-0.2,0.5-0.4,0.7c-1.7,1.4-3.3,2.8-5,4.2c-1.5,1.2-3.1,2.4-4.7,3.6
			c-0.1,0.1-0.2,0.3-0.3,0.5c-2.6,0-5.2,0.1-7.7,0c-1.5,0-2.5,0.3-3.4,1.5c-1.2,1.5-2.6,2.9-4.1,4.4c-1-1.2-2.1-2.4-3.1-3.6
			c0.2-0.1,0.3-0.3,0.6-0.4c1.7-0.9,3.5-1.7,5.1-2.7c3.8-2.1,7.3-4.4,10.8-7c0.4-0.3,0.8-0.8,1.2-1.2
			C112,125.8,115.7,125.8,119.3,125.8z"/>
		<path class="st25" d="M20.4,103.8c-1.5-0.8-2.9-1.6-4.4-2.3c-0.4-0.2-0.7-0.4-1.1-0.7c0.7-1.6,1.4-3.3,2.1-4.9
			c0.4-0.9,0.8-1.9,1.2-2.8c0.1-0.2,0.4-0.4,0.6-0.4c3,0,6,0,8.9,0c0.2,0,0.5,0.1,0.6,0.3c1.7,3.8,3.3,7.6,4.9,11.4
			c-0.5-0.1-1.1-0.2-1.6-0.4c-1.9-0.6-3.8-1.3-5.7-2c-0.2-0.1-0.5,0-0.8,0c-0.6-1.5-1.3-3-2-4.6c-0.1,0.4-0.3,0.6-0.4,0.9
			C21.9,100.1,21.1,102,20.4,103.8z"/>
		<path class="st13" d="M95.2,109c-2,0-4,0-6.1,0c0,1.8,0,3.4,0,5.1c-0.2,0-0.4,0-0.5,0.1c-1.2,0.7-2.3,1.4-3.5,2
			c-0.8,0.4-1.7,0.7-2.5,1.1c0-3.6,0-7.2,0-10.7c0.1,0,0.2,0,0.3-0.1c1.6-1,3.2-2.1,4.8-3.1c0.4-0.3,0.9-0.5,1.4-0.8
			c0,0.2,0,0.4,0.1,0.8c4,0,7.9,0,11.9,0c-0.1,0.2-0.2,0.5-0.3,0.6c-1.6,1.4-3.3,2.8-4.9,4.2C95.6,108.5,95.4,108.8,95.2,109z"/>
		<path class="st20" d="M66.4,134.7c0.2-0.1,0.3-0.4,0.6-0.4c3.7-0.8,7.3-1.9,10.8-3.2c2.5-0.9,4.9-2,7.4-3c1.2-0.5,2.4-1.1,3.6-1.8
			c0.3-0.1,0.5-0.4,0.7-0.6c3.5,0,6.9,0,10.4,0c-0.1,0.2-0.3,0.4-0.4,0.5c-1.8,1.1-3.7,2.3-5.5,3.4c-1.6,0.9-3.2,1.8-4.8,2.5
			c-1.4,0.7-2.9,1.3-4.3,2c-0.2,0.1-0.3,0.3-0.5,0.5c-0.1,0-0.3,0-0.4,0c-5.7,0-11.3,0-17,0C66.7,134.8,66.5,134.7,66.4,134.7z"/>
		<path class="st24" d="M89.2,102.6c-0.4,0.2-0.9,0.5-1.4,0.8c-1.6,1-3.2,2.1-4.8,3.1c-0.1,0-0.2,0-0.3,0.1c0-4.4,0-8.8,0-13.2
			c0-0.2,0-0.4,0-0.7c0.2,0,0.3,0,0.5,0c4.9,0,9.8,0,14.6,0c0.1,0,0.2,0,0.4,0c0,0.1,0,0.3-0.1,0.3c-1.3,1.4-2.6,2.7-4,4
			c-0.4,0.4-0.8,0.9-1.2,1.3c-1.2,0-2.3,0-3.7,0C89.2,99.9,89.2,101.3,89.2,102.6z"/>
		<path class="st15" d="M117.9,92.7c2.7,0,5.4,0,8.1,0c0,0.2-0.1,0.3-0.2,0.5c-0.9,1.5-1.9,3-2.8,4.5c-0.1,0.2-0.2,0.4-0.2,0.7
			c-2.3,0-4.5,0-6.8,0c0,2.1,0,4.1,0,6.2c0.6,0,1.3,0,1.9,0c0,0.1,0,0.3-0.1,0.4c-2.3,2.5-4.5,5-6.8,7.5c-0.4,0.4-1,0.8-1.5,1.2
			c0-3.3,0-6.5,0-9.8c0.1-0.1,0.3-0.1,0.4-0.3c1-1.1,2-2.1,2.9-3.3c1.5-1.9,2.9-3.8,4.2-5.7C117.2,94,117.5,93.3,117.9,92.7z"/>
		<path class="st18" d="M109.2,113.6c0.5-0.4,1.1-0.7,1.5-1.2c2.3-2.5,4.6-5,6.8-7.5c0.1-0.1,0.1-0.2,0.1-0.4c2.3,0,4.6,0,7,0
			c1.1,0,2.1-0.2,2.9-0.9c-0.1,0.2-0.1,0.5-0.2,0.7c-1.2,1.6-2.4,3.2-3.7,4.8c-0.2,0.3-0.4,0.7-0.6,1.1c-2.4,0-4.8,0-7.3,0
			c0,3.4,0,6.7,0,10c-2.2,0-4.4,0-6.6,0C109.2,118.1,109.2,115.9,109.2,113.6z"/>
		<path class="st16" d="M123.1,110.3c0.2-0.4,0.3-0.8,0.6-1.1c1.2-1.6,2.4-3.2,3.7-4.8c0.1-0.2,0.2-0.4,0.2-0.7
			c0.2-0.2,0.4-0.5,0.5-0.8c0.2-0.1,0.4-0.2,0.5-0.4c1-1.6,2.1-3.2,3.1-4.8c0.6-0.9,1-1.9,1.6-2.9c1.5,1.2,2.2,2.9,2.3,4.8
			c0.1,3.5-1.2,6.2-4.4,7.9c0,0,0,0-0.1,0.1c0.5,0.3,1.1,0.7,1.6,1c-1,1.4-2,2.7-3,4.1c-0.3,0.4-0.8,0.8-1.1,1.2
			c0-0.1,0-0.2-0.1-0.3c-0.4-2.3-1.5-2.8-3.4-3.1C124.5,110.3,123.8,110.3,123.1,110.3z"/>
		<path class="st19" d="M84.2,134.7c0.1-0.1,0.3-0.4,0.5-0.5c1.5-0.7,2.9-1.3,4.3-2c1.6-0.8,3.3-1.7,4.8-2.5
			c1.9-1.1,3.7-2.2,5.5-3.4c0.2-0.1,0.3-0.3,0.4-0.5c2.8,0,5.7,0,8.5,0c-0.4,0.4-0.7,0.9-1.2,1.2c-3.5,2.6-7,4.9-10.8,7
			c-1.7,0.9-3.4,1.8-5.1,2.7c-0.2,0.1-0.4,0.2-0.6,0.4c-0.5-0.5-1-1.1-1.5-1.7c-0.3-0.4-0.7-0.6-1.3-0.6
			C86.7,134.8,85.4,134.7,84.2,134.7z"/>
		<path class="st0" d="M241.2,153.9c-1.6-1.9-3.8-2.5-6.1-2.6c-2-0.1-4-0.1-5.9-0.2c-0.6-0.1-1.2-0.1-1.8-0.2
			c-1.2-0.3-1.9-1.1-1.8-2.2c0-1.2,0.7-2,1.9-2.2c0.7-0.1,1.5-0.1,2.2-0.2c0.3,0,0.6,0,0.9,0c3.6,0,7.1,0,10.6,0c0,0,0,0.1,0,0.1
			C241.2,148.8,241.2,151.3,241.2,153.9z"/>
		<path class="st11" d="M6.4,84.8c0.4,0.3,0.8,0.6,1.1,1c1.2,1.2,2.4,2.3,3.6,3.5c0.5,0.5,1.1,1.1,1.7,1.6c-1.3,3.1-2.7,6.2-4,9.3
			c-0.7,1.7-1.5,3.5-2.3,5.3c0-0.2,0-0.3,0-0.4c0-6.6,0-13.3,0-19.9C6.3,85,6.3,84.9,6.4,84.8z"/>
		<path class="st17" d="M82.6,117.4c0.8-0.4,1.7-0.7,2.5-1.1c1.2-0.6,2.3-1.3,3.5-2c0.1-0.1,0.3-0.1,0.5-0.1c0,0.5,0.3,0.5,0.7,0.5
			c2.9,0,5.9,0,8.8,0c0.2,0,0.4,0,0.7,0c-0.1,0.1-0.1,0.3-0.3,0.4c-2.1,1.5-4.3,3-6.5,4.4c-0.3,0.2-0.5,0.5-0.7,0.7
			c-3.1,0-6.1,0-9.2,0C82.6,119.3,82.6,118.4,82.6,117.4z"/>
		<path class="st22" d="M128.7,113.8c0.4-0.4,0.8-0.7,1.1-1.2c1-1.4,2.1-2.7,3-4.1c1.5,0.9,2.3,2.2,2.4,4c0.1,2.6,0.1,5.2,0.2,7.9
			c-2.3,0-4.4,0-6.7,0C128.8,118.1,128.7,116,128.7,113.8z"/>
		<path class="st13" d="M77.6,109.9c0,3.4,0,6.9,0,10.4c-2.2,0-4.4,0-6.7,0c0-2.6,0-5.1,0-7.7c1.5-0.5,3-1.1,4.4-1.7
			C76.1,110.5,76.9,110.2,77.6,109.9z"/>
		<path class="st24" d="M77.6,109.9c-0.8,0.3-1.5,0.6-2.3,0.9c-1.5,0.6-3,1.1-4.4,1.7c0-2.9,0-5.8,0-8.6c2.1-1,4.2-2.1,6.2-3.1
			c0.1-0.1,0.3-0.1,0.5-0.2C77.6,103.7,77.6,106.8,77.6,109.9z"/>
		<path class="st2" d="M241.2,146.1c-3.6,0-7.1,0-10.6,0c-0.3,0-0.6,0-0.9,0c0-0.2,0-0.4,0.1-0.5c0.5-1,1-2,1.6-3
			c0.4-0.7,0.7-1.5,1.1-2.3c2.9,0,5.9,0,8.7,0c0,0.5,0,1,0.1,1.5c0,1.2,0,2.4,0,3.7C241.3,145.7,241.3,145.9,241.2,146.1z"/>
		<path class="st11" d="M25,102.1c0.2,0,0.5,0,0.8,0c1.9,0.6,3.8,1.3,5.7,2c0.5,0.2,1.1,0.2,1.6,0.4c1,2.4,2.1,4.9,3.1,7.4
			c-0.7-0.1-1.4-0.2-2.1-0.4c-2.9-0.8-5.9-1.7-8.8-2.5c-0.2,0-0.3-0.3-0.4-0.4c0.9,0,1.7,0,2.7,0c-0.1-0.4-0.2-0.6-0.3-0.9
			C26.4,105.7,25.7,103.9,25,102.1z"/>
		<path class="st24" d="M39.3,106c1.2,0.1,2.4,0.2,3.6,0.3c1,0.1,2,0.1,2.9,0.1c0,2.8,0,5.6,0,8.3c-2.2-0.1-4.3-0.3-6.5-0.5
			c0-0.6,0-1.2,0-1.8C39.3,110.4,39.3,108.2,39.3,106z"/>
		<path class="st17" d="M117.9,92.7c-0.3,0.6-0.6,1.3-1,1.9c-1.4,1.9-2.8,3.9-4.2,5.7c-0.9,1.2-1.9,2.2-2.9,3.3
			c-0.1,0.1-0.3,0.2-0.4,0.3c0-3.7,0-7.3,0-11c0,0,0-0.1,0-0.2C112.2,92.7,115,92.7,117.9,92.7z"/>
		<path class="st17" d="M10.4,111.1c0.8,0.5,1.6,1,2.3,1.4c1.1,0.6,2.2,1.1,3.3,1.7c-0.5,1.3-1.1,2.6-1.6,3.9
			c-0.2,0.6-0.4,1.2-0.7,1.9c-0.1,0.2-0.3,0.4-0.4,0.4c-2.2,0-4.5,0-6.9,0c0.5-1.2,1-2.2,1.4-3.3c0.8-1.9,1.6-3.7,2.4-5.5
			C10.3,111.3,10.4,111.2,10.4,111.1z"/>
		<path class="st18" d="M133.3,94.7c-0.5,1-1,2-1.6,2.9c-1,1.6-2.1,3.2-3.1,4.8c-0.1,0.2-0.3,0.3-0.5,0.4c0.8-2.6-0.2-4.2-2.9-4.3
			c-0.8,0-1.7,0-2.5-0.1c0.1-0.2,0.1-0.5,0.2-0.7c0.9-1.5,1.9-3,2.8-4.5c0.1-0.1,0.1-0.3,0.2-0.5c1.8,0,3.7,0,5.4,0.8
			C132.1,93.8,132.7,94.3,133.3,94.7z"/>
		<path class="st12" d="M92.9,98.4c0.4-0.4,0.8-0.9,1.2-1.3c1.3-1.4,2.6-2.7,4-4c0.1-0.1,0-0.2,0.1-0.3c2.1,0,4.3,0,6.4,0
			c0,1.9,0,3.8,0,5.7C100.6,98.4,96.8,98.4,92.9,98.4z"/>
		<path class="st15" d="M91.8,120.3c0.2-0.2,0.4-0.5,0.7-0.7c2.1-1.5,4.3-3,6.5-4.4c0.1-0.1,0.2-0.3,0.3-0.4c1.7,0,3.5,0,5.2,0
			c0,1.9,0,3.7,0,5.6C100.3,120.3,96.1,120.3,91.8,120.3z"/>
		<path class="st17" d="M95.2,109c0.2-0.2,0.4-0.5,0.6-0.7c1.6-1.4,3.3-2.8,4.9-4.2c0.1-0.1,0.2-0.4,0.3-0.6c1,0,2,0,3,0
			c0,0,0.1,0,0.1,0.1c0,1.8,0,3.7,0,5.5C101.2,109,98.2,109,95.2,109z"/>
		<path class="st14" d="M123.2,123.1c-0.4,0.3-0.9,0.7-1.3,1c-0.2,0.1-0.4,0.3-0.6,0.4c0-2.9,0-5.9,0-8.8c0.4,0,0.9,0,1.3,0
			c0.5,0,0.6,0.4,0.6,0.8c0,1.6,0,3.2,0,4.8C123.2,121.9,123.2,122.6,123.2,123.1z"/>
		<path class="st26" d="M241.2,153.9c0-2.5,0-5,0-7.6c0,0.2,0.1,0.4,0.1,0.6c0,2.3,0,4.7,0,7.1C241.3,154,241.3,153.9,241.2,153.9z"
			/>
		<path class="st26" d="M241.3,141.8c0-0.5,0-1-0.1-1.5c0-1.8,0-3.6,0-5.4c0,0.1,0.1,0.2,0.1,0.3c0,2.1,0,4.2,0,6.2
			C241.4,141.6,241.3,141.7,241.3,141.8z"/>
		<path class="st27" d="M241.3,164.6L241.3,164.6c0,2.3,0,4.6,0,6.9l0,0C241.3,169.2,241.3,166.9,241.3,164.6z"/>
		<path class="st24" d="M104.2,103.5C104.2,103.5,104.1,103.5,104.2,103.5C104.2,103.5,104.2,103.5,104.2,103.5z"/>
		<path class="st22" d="M89.2,144.2c1.5,1.7,3,3.3,4.6,5c1.1-1.2,2.1-2.3,3.2-3.5c1.6-1.8,3.3-3.5,4.9-5.3c0.1-0.1,0.4-0.3,0.7-0.3
			c7.2,0,14.4,0,21.6,0c0.9,0,1.7,0.2,2.6,0.2c-0.1,0.2-0.3,0.5-0.5,0.6c-1.8,1.4-3.6,2.8-5.3,4.2c-0.1,0.1-0.2,0.3-0.3,0.5
			c-2,0-4,0-6,0c0,1.5,0,2.8,0,4.1c-0.2,0-0.4,0.1-0.6,0.2c-1.2,0.7-2.4,1.5-3.6,2.2c-0.7,0.4-1.5,0.8-2.3,1.2c0-3.4,0-6.8,0-10.3
			c0,0-0.1,0-0.2,0c-3.3,3.6-6.6,7.1-10,10.7c1,1.2,2,2.3,3,3.4c-1.4,0.6-2.7,1.3-4.1,1.9c-0.6,0.3-1.2,0.6-1.7,0.9
			c-0.5-0.5-0.9-1-1.6-1.7c-0.1,0.1-0.1,0.4-0.2,0.5c-2.5,2.8-5.1,5.6-7.7,8.3c-0.2,0.2-0.5,0.4-0.8,0.4c-8.4,0-16.8,0-25.2,0
			c-0.1,0-0.2,0-0.4,0c0-0.1,0-0.3,0-0.4c0-5.1,0-10.1,0-15.2c0-0.1,0-0.2,0-0.4c1.7-0.2,3.3-0.3,5-0.5c0.5,0,1.1-0.2,1.6-0.4
			c4.8,0,9.6,0,14.5,0c0,1.9,0,3.8,0,5.7c-4.8,0-9.6,0-14.5,0c0,1.9,0,3.6,0,5.5c0.1,0,0.3,0,0.4,0c5.1,0,10.2,0,15.3,0
			c0.2,0,0.6-0.2,0.8-0.4c1.3-1.4,2.6-2.8,3.9-4.2c1.1-1.2,2.2-2.3,3.3-3.5c-0.1-0.1-0.2-0.3-0.3-0.4c-2-2.2-4-4.4-6-6.7
			c0.1-0.2,0.2-0.5,0.4-0.5c0.9-0.4,1.9-0.7,2.9-1.1C87.4,144.9,88.2,144.6,89.2,144.2z"/>
		<path class="st4" d="M157.1,167.8c0-1.4,0-2.7,0-4c0-0.9,0-1.9-0.2-2.7c-0.3-2.1-1.4-3.1-3.5-3.2c-3.1-0.1-6.2,0-9.3,0
			c0,3.2,0,6.6,0,10c-2.2,0-4.4,0-6.6,0c0-9.2,0-18.4,0-27.5c0.1,0,0.3,0,0.5,0c5.5,0,10.9,0,16.5,0c1.7,0,3.4,0.2,5,0.7
			c2.8,1,4.4,3.2,4.5,6.2c0.1,3.4-1.3,6.1-4.3,7.7c0,0-0.1,0.1-0.1,0.1c0.5,0.3,1,0.5,1.5,0.9c1.6,1,2.5,2.4,2.5,4.2
			c0.1,2.5,0,5.1,0,7.7C161.5,167.8,159.3,167.8,157.1,167.8z M144.1,152.1c3.2,0,6.3,0,9.4,0c1.1,0,2.1-0.4,2.7-1.4
			c1.4-2.1,0.1-4.6-2.4-4.7c-3.2-0.1-6.3,0-9.6-0.1c0,0-0.1,0-0.2,0C144.1,148,144.1,150,144.1,152.1z"/>
		<path class="st28" d="M189.7,162.1c0,2,0,3.8,0,5.7c-7.3,0-14.6,0-22,0c0-9.1,0-18.3,0-27.5c7.3,0,14.6,0,21.9,0
			c0,1.9,0,3.7,0,5.7c-5.1,0-10.3,0-15.4,0c0,1.7,0,3.3,0,5c5,0,10,0,15,0c0,1.9,0,3.7,0,5.6c-5,0-10,0-15,0c0,1.9,0,3.7,0,5.5
			C179.4,162.1,184.5,162.1,189.7,162.1z"/>
		<path class="st23" d="M120.6,145.9c0.1-0.2,0.1-0.4,0.3-0.5c1.8-1.4,3.6-2.8,5.3-4.2c0.2-0.1,0.3-0.4,0.5-0.6
			c5,0.7,7.4,3.7,7.6,8.1c0,1.3-0.1,2.7-0.4,4c-0.8,3-3,4.7-5.9,5.4c-1.8,0.4-3.6,0.5-5.4,0.6c-2.4,0.1-4.8,0-7.2,0
			c-0.2,0-0.4,0-0.8,0c0,1.6,0,3.1,0,4.6s0,3,0,4.6c-0.2,0-0.4,0-0.6,0c-3.9,0-7.8,0-11.7,0c-0.3,0-0.7-0.1-0.9-0.3
			c-2-2.2-4-4.4-6-6.7c-0.1-0.1-0.3-0.3-0.4-0.5c0.6-0.3,1.1-0.6,1.7-0.9c1.4-0.6,2.7-1.3,4.1-1.9c2.3,2.5,4.6,5.1,7,7.7
			c0.1-0.3,0.1-0.5,0.1-0.8c0-3.6,0-7.2,0-10.7c0.8-0.4,1.6-0.8,2.3-1.2c1.2-0.7,2.4-1.5,3.6-2.2c0.2-0.1,0.4-0.1,0.6-0.2
			c0,1,0,2,0,3c0.3,0,0.5,0,0.7,0c2.5,0,5.1,0,7.6,0c0.5,0,1,0,1.4-0.1c2-0.3,3.1-1.8,2.9-4c-0.1-1.7-1.4-2.8-3.3-2.8
			C122.8,146,121.7,145.9,120.6,145.9z"/>
		<path class="st9" d="M207.2,151.1c1.8,0,3.6,0.1,5.3,0.7c2.2,0.8,3.5,2.3,4.1,4.5c0.4,1.8,0.4,3.5,0,5.3c-0.8,3.4-3.1,5.2-6.4,5.9
			c-1.2,0.2-2.4,0.3-3.6,0.3c-4.2,0-8.3,0-12.5,0c-0.1,0-0.3,0-0.4,0c0-2,0-3.9,0-5.9c0.2,0,0.5,0,0.7,0c4,0,7.9,0,11.8,0
			c0.7,0,1.4,0,2.1-0.2c1.1-0.2,1.7-1.3,1.7-2.4c0-1.1-0.7-2-1.9-2.1c-1.3-0.1-2.6-0.1-3.9-0.2c-0.1,0-0.3,0-0.5,0
			c0-0.2,0.1-0.4,0.2-0.6c1-1.5,2.1-3.1,3.1-4.6C207.1,151.5,207.2,151.3,207.2,151.1z"/>
		<path class="st1" d="M207.2,151.1c0,0.2-0.1,0.4-0.2,0.6c-1,1.5-2.1,3.1-3.1,4.6c-0.1,0.2-0.1,0.4-0.2,0.6c-2,0-4-0.2-5.9-0.8
			c-2.9-1-4.5-3.1-4.8-6.1c-0.1-1.5-0.1-3,0.4-4.4c1.1-2.8,3.2-4.3,6.1-4.9c0.9-0.2,1.8-0.3,2.7-0.3c4.3,0,8.6,0,12.9,0
			c0.1,0,0.3,0,0.5,0c0,2,0,3.9,0,5.9c-0.2,0-0.5,0-0.7,0c-4,0-8,0-12,0c-0.4,0-0.8,0-1.2,0.1c-1.1,0.3-1.8,1.1-1.8,2.2
			c0,1.1,0.6,2,1.7,2.2c0.7,0.1,1.4,0.2,2.1,0.2C204.8,151,206,151.1,207.2,151.1z"/>
		<path class="st9" d="M232.5,140.3c-0.3,0.8-0.7,1.6-1.1,2.3c-0.5,1-1,2-1.6,3c-0.1,0.1-0.1,0.3-0.1,0.5c-0.7,0-1.5,0-2.2,0.2
			c-1.2,0.2-1.9,1.1-1.9,2.2c0,1.2,0.6,2,1.8,2.2c0.6,0.1,1.2,0.2,1.8,0.2c-0.5,1-1.1,2-1.6,2.9c-0.5,0.9-1,1.8-1.5,2.7
			c-0.9-0.2-1.8-0.3-2.6-0.6c-2.9-1-4.5-3.1-4.7-6.2c-0.1-1.3,0-2.6,0.3-3.9c0.8-3.1,3.1-4.8,6.2-5.4c0.9-0.2,1.9-0.2,2.8-0.3
			C229.6,140.2,231,140.3,232.5,140.3z"/>
		<path class="st16" d="M89.2,144.2c-0.9,0.3-1.8,0.7-2.7,1c-1,0.3-2,0.7-2.9,1.1c-0.2,0.1-0.3,0.3-0.4,0.5
			c-0.2-0.2-0.4-0.5-0.7-0.7c-0.1-0.1-0.4-0.2-0.6-0.2c-0.5,0-1,0-1.5,0c-4.7,0-9.4,0-14.1,0c-0.2,0-0.4,0-0.7,0c0,1.7,0,3.4,0,5
			c-0.5,0.1-1.1,0.3-1.6,0.4c-1.7,0.2-3.3,0.4-5,0.5c0-2,0-3.9,0-5.9c2.4-0.3,4.8-0.6,7.2-1c5.1-0.9,10.1-2.3,15-4.1
			c0.4-0.1,0.7-0.4,1.1-0.6c1,0,2,0,2.9,0c0.1,0,0.4,0,0.5,0.2C86.9,141.7,88,143,89.2,144.2z"/>
		<path class="st18" d="M82.4,140.3c-0.3,0.2-0.7,0.5-1.1,0.6c-4.9,1.7-9.9,3.2-15,4.1c-2.4,0.4-4.8,0.7-7.2,1c0-1.9,0-3.8,0-5.8
			c0.2,0,0.3,0,0.5,0c7.5,0,14.9,0,22.4,0C82.1,140.2,82.2,140.3,82.4,140.3z"/>
		<path class="st27" d="M46.6,84.5c-9.6-0.2-18.8-4.1-26.1-12.1c-6.9-7.5-10.1-16.6-9.6-26.8c0.9-18.8,16.2-35.4,37.6-35.2
			c10,0.1,18.7,3.9,25.7,11.1c7,7.2,10.4,15.9,10.6,25.9c0.1,5.9-1.4,11.5-4.1,16.8c-3,5.9-7.3,10.6-12.9,14.2
			C61.8,82.5,55,84.5,46.6,84.5z M47.8,25.4c-12.3-0.2-21.8,9.9-22.2,21c-0.5,13.6,10.1,23,21.6,23.3c13.1,0.3,22.3-9.9,22.9-20.9
			C70.7,35.3,59.6,25,47.8,25.4z"/>
		<path class="st0" d="M175.2,108.3c1.5-3.6,3-7.2,4.5-11c1.6,3.7,3,7.3,4.5,11C181.2,108.3,178.3,108.3,175.2,108.3z"/>
		<path class="st0" d="M25,102.1c0.7,1.8,1.5,3.7,2.2,5.5c0.1,0.2,0.2,0.5,0.3,0.9c-0.9,0-1.8,0-2.7,0c-2.1,0-4.2,0-6.3,0
			c0.6-1.6,1.2-3.1,1.9-4.6c0.7-1.8,1.5-3.6,2.2-5.4c0.1-0.2,0.2-0.5,0.4-0.9C23.7,99.1,24.3,100.5,25,102.1z"/>
		<path class="st0" d="M122.7,98.4c0.8,0,1.7,0,2.5,0.1c2.7,0.2,3.7,1.8,2.9,4.3c-0.2,0.2-0.4,0.5-0.5,0.8c-0.9,0.7-1.9,0.9-2.9,0.9
			c-2.3,0-4.6,0-7,0c-0.6,0-1.2,0-1.9,0c0-2.1,0-4.1,0-6.2C118.2,98.4,120.5,98.4,122.7,98.4z"/>
		<path class="st0" d="M65.6,151c0-1.7,0-3.3,0-5c0.2,0,0.4,0,0.7,0c4.7,0,9.4,0,14.1,0c0.5,0,1,0,1.5,0c0.2,0,0.4,0.1,0.6,0.2
			c0.2,0.2,0.5,0.5,0.7,0.7c2,2.2,4,4.4,6,6.7c0.1,0.1,0.2,0.2,0.3,0.4c-1.1,1.2-2.2,2.3-3.3,3.5c-1.3,1.4-2.6,2.8-3.9,4.2
			c-0.2,0.2-0.5,0.4-0.8,0.4c-5.1,0-10.2,0-15.3,0c-0.1,0-0.3,0-0.4,0c0-1.8,0-3.6,0-5.5c4.8,0,9.6,0,14.5,0c0-1.9,0-3.8,0-5.7
			C75.2,151,70.4,151,65.6,151z"/>
		<path class="st0" d="M108.1,153.7c0,3.6,0,7.2,0,10.7c0,0.2,0,0.5-0.1,0.8c-2.3-2.5-4.6-5.1-7-7.7c-1-1.1-2-2.2-3-3.4
			c3.3-3.6,6.6-7.1,10-10.7c0,0,0.1,0,0.2,0C108.1,146.8,108.1,150.2,108.1,153.7z"/>
		<path class="st0" d="M120.6,145.9c1.1,0,2.2,0.1,3.3,0.1c1.9,0,3.2,1.2,3.3,2.8c0.1,2.2-0.9,3.7-2.9,4c-0.5,0.1-0.9,0.1-1.4,0.1
			c-2.5,0-5.1,0-7.6,0c-0.2,0-0.4,0-0.7,0c0-1,0-2,0-3c0-1.3,0-2.6,0-4.1C116.7,145.9,118.6,145.9,120.6,145.9z"/>
		<path class="st0" d="M144.1,152.1c0-2.1,0-4.1,0-6.1c0,0,0.1,0,0.2,0c3.2,0,6.4,0,9.6,0.1c2.5,0.1,3.7,2.6,2.4,4.7
			c-0.6,1-1.6,1.3-2.7,1.4C150.4,152.1,147.3,152.1,144.1,152.1z"/>
		<path class="st26" d="M47.8,25.4C59.6,25,70.7,35.3,70,48.8c-0.6,11-9.7,21.2-22.9,20.9C35.6,69.5,25,60,25.6,46.4
			C26,35.3,35.5,25.1,47.8,25.4z"/>
	</g>
</g>
</svg>
