<?xml version="1.0" encoding="utf-8"?>
<!-- Generator: Adobe Illustrator 21.0.0, SVG Export Plug-In . SVG Version: 6.00 Build 0)  -->
<svg version="1.1" id="Camada_1" xmlns="http://www.w3.org/2000/svg" xmlns:xlink="http://www.w3.org/1999/xlink" x="0px" y="0px"
	 viewBox="0 0 450 296" style="enable-background:new 0 0 450 296;" xml:space="preserve">
<style type="text/css">
	.st0{fill:#F0E324;}
	.st1{fill:#1B2D81;}
	.st2{fill:#C11D35;}
	.st3{fill:#24347D;}
	.st4{fill:#26377C;}
	.st5{fill:#26367C;}
	.st6{fill:#23347E;}
	.st7{fill:#EFE224;}
	.st8{fill:#EBDF26;}
	.st9{fill:#E7DC28;}
</style>
<g>
	<g>
		<path class="st0" d="M451,186c0,37,0,74,0,111c-150,0-300,0-450,0c0-40.7,0-81.3,0-122c4.7-0.9,9.4-1.6,14.1-2.7
			c92.8-22.2,186.6-31.8,281.9-21.4C349.7,156.7,400.9,168.9,451,186z M173.8,241.7c0.1-0.6,0.2-0.8,0.1-0.9
			c-10-14.1-20-28.3-30.1-42.3c-2.2-3.1-12-2.6-14.2,0.6c-4.5,6.6-9,13.2-13.4,19.9c-5,7.4-9.9,14.8-15.1,22.5
			c7,1.5,12.7,1.2,15.4-6.3c0.5-1.2,1.6-2.2,2.1-3.4c1.3-2.9,3.4-3.6,6.4-3.6c7,0.2,14,0.4,21,0c5.4-0.3,9.4,0.8,11.6,6.1
			c2.8,7,8.2,8.9,15.2,7.6C173,241.9,173.3,241.8,173.8,241.7z M342.6,219.1c-0.3,0.6-0.7,1.3-1,1.9c-2.1,0.3-4.2,0.8-6.3,1
			c-7.3,0.8-14.6,1.2-21.8,2.4c-7.5,1.2-11.6,4.9-11.5,9.2c0.1,4.3,4.4,7.5,11.9,8.7c9.8,1.6,19.2,0.2,28.1-3.6
			c3,3.9,5.2,4.3,11.2,2.8c-0.4-3.5-1.1-6.9-1.2-10.3c-0.2-4,0-8-0.1-12c-0.1-4.1-1.9-7.1-5.9-8.4c-12-3.6-24-3.6-35.7,0.9
			c-2.6,1-4.5,3.9-6.8,5.9c0.3,0.5,0.7,1,1,1.6c3.1-0.2,7.4,0.9,9-0.8c6.8-7.3,14.9-5.3,22.8-4.1
			C338.6,214.7,340.5,217.5,342.6,219.1z M190.5,209.3c-0.2,0.8-0.5,1.3-0.5,1.8c0,5.8-0.1,11.7,0,17.5c0.1,8.6,2.5,11.6,10.9,13.4
			c9,1.9,17.8,1.2,26-3.4c2,5.9,6.1,2.9,9.6,3.2c0-11,0-21.6,0-32.3c-3.3,0-6.3,0-9.7,0c0,3,0,5.6,0,8.3c0,2.8,0.1,5.7,0,8.5
			c-0.2,6.7-2.3,9.3-8.8,10.8c-2.7,0.6-5.6,0.9-8.4,0.7c-7.5-0.6-9.5-2.9-9.6-10.4c-0.1-5.9,0-11.9,0-18
			C196.4,209.3,193.6,209.3,190.5,209.3z M269.9,241.8c0-5.5,0-10.5,0-15.5c0.1-9.3,4.4-13.1,13.6-11.5c4.1,0.7,6.2-0.4,7.2-5.1
			c-3.8-0.4-7.4-1.5-10.9-1.1c-3.6,0.4-7.1,2.3-10.7,3.6c-0.1-0.7-0.4-1.7-0.6-2.7c-2.9,0-5.7,0-8.4,0c0,10.9,0,21.5,0,32.3
			C263.4,241.8,266.3,241.8,269.9,241.8z"/>
		<path class="st1" d="M1,132C1,88.4,1,44.7,1,1c150,0,300,0,450,0c0,46.3,0,92.7,0,139c-46.4-16.6-94.2-26.9-143.2-32.4
			c-2.9-12.2-8.5-23.1-17-32.3c-16.5-18-37.6-25.4-61.5-26.6c-40-2.1-72.4,19.5-85.3,57.1C95.6,110.5,47.9,119.1,1,132z"/>
		<path class="st2" d="M1,132c46.9-12.9,94.6-21.5,143-26.3c1.7,0,3.3,0,5-0.1c21.8-1,43.5-3.2,65.2-2.8c31.2,0.6,62.4,3,93.6,4.7
			c48.9,5.6,96.7,15.8,143.2,32.4c0,15.3,0,30.7,0,46c-50.1-17.1-101.3-29.3-154-35c-95.3-10.4-189.1-0.9-281.9,21.4
			c-4.6,1.1-9.4,1.8-14.1,2.7C1,160.7,1,146.3,1,132z"/>
		<path class="st3" d="M173.8,241.7c-0.4,0.1-0.8,0.2-1.1,0.3c-7,1.3-12.4-0.5-15.2-7.6c-2.1-5.3-6.2-6.5-11.6-6.1
			c-7,0.4-14,0.2-21,0c-3-0.1-5.1,0.7-6.4,3.6c-0.5,1.2-1.7,2.2-2.1,3.4c-2.7,7.4-8.4,7.7-15.4,6.3c5.1-7.7,10.1-15.1,15.1-22.5
			c4.5-6.6,8.9-13.3,13.4-19.9c2.2-3.2,12-3.7,14.2-0.6c10.1,14,20.1,28.2,30.1,42.3C173.9,240.9,173.9,241.1,173.8,241.7z
			 M136.9,202.9c-4.2,6.8-8.2,13.2-12.4,19.9c8.6,0,16.6,0,25.3,0C145.2,215.9,141.1,209.5,136.9,202.9z"/>
		<path class="st4" d="M342.6,219.1c-2.1-1.6-4-4.4-6.3-4.7c-7.9-1.2-16-3.2-22.8,4.1c-1.5,1.6-5.9,0.6-9,0.8c-0.3-0.5-0.7-1-1-1.6
			c2.2-2,4.2-4.9,6.8-5.9c11.7-4.5,23.7-4.6,35.7-0.9c4,1.2,5.8,4.3,5.9,8.4c0.1,4-0.1,8,0.1,12c0.2,3.4,0.8,6.8,1.2,10.3
			c-6.1,1.6-8.2,1.1-11.2-2.8c-8.9,3.9-18.4,5.2-28.1,3.6c-7.5-1.2-11.8-4.4-11.9-8.7c-0.1-4.3,4-7.9,11.5-9.2
			c7.2-1.2,14.5-1.6,21.8-2.4c2.1-0.2,4.2-0.7,6.3-1C341.9,220.4,342.3,219.8,342.6,219.1z M342.7,226.1c-8.4,0.9-15.4,1.5-22.3,2.3
			c-1.9,0.2-4,0.8-5.6,1.8c-3,1.7-2.8,4.3,0.1,6.2c5.4,3.5,20.5,2,24.6-2.8C340.9,231.9,341.3,229.3,342.7,226.1z"/>
		<path class="st5" d="M190.5,209.3c3.1,0,5.9,0,9.5,0c0,6.1,0,12,0,18c0.1,7.5,2.1,9.9,9.6,10.4c2.8,0.2,5.7-0.1,8.4-0.7
			c6.5-1.4,8.6-4.1,8.8-10.8c0.1-2.8,0-5.7,0-8.5c0-2.6,0-5.3,0-8.3c3.4,0,6.4,0,9.7,0c0,10.8,0,21.3,0,32.3
			c-3.5-0.4-7.6,2.6-9.6-3.2c-8.2,4.6-17,5.4-26,3.4c-8.4-1.8-10.9-4.8-10.9-13.4c-0.1-5.8,0-11.7,0-17.5
			C190,210.6,190.3,210.1,190.5,209.3z"/>
		<path class="st6" d="M269.9,241.8c-3.6,0-6.5,0-9.7,0c0-10.8,0-21.4,0-32.3c2.7,0,5.5,0,8.4,0c0.2,1,0.4,2,0.6,2.7
			c3.6-1.3,7.1-3.1,10.7-3.6c3.5-0.4,7.1,0.6,10.9,1.1c-1,4.7-3,5.8-7.2,5.1c-9.3-1.6-13.6,2.2-13.6,11.5
			C269.9,231.3,269.9,236.3,269.9,241.8z"/>
		<path class="st7" d="M307.8,107.6c-31.2-1.6-62.4-4.1-93.6-4.7c-21.7-0.4-43.5,1.8-65.2,2.8c-1.7,0.1-3.3,0-5,0.1
			c12.9-37.7,45.3-59.3,85.3-57.1c23.8,1.3,45,8.7,61.5,26.6C299.4,84.5,304.9,95.4,307.8,107.6z"/>
		<path class="st8" d="M136.9,202.9c4.3,6.6,8.4,13,12.9,19.9c-8.7,0-16.6,0-25.3,0C128.7,216.1,132.6,209.7,136.9,202.9z"/>
		<path class="st9" d="M342.7,226.1c-1.3,3.2-1.7,5.8-3.2,7.5c-4.1,4.8-19.2,6.3-24.6,2.8c-2.9-1.9-3.1-4.5-0.1-6.2
			c1.7-1,3.7-1.6,5.6-1.8C327.3,227.6,334.2,227,342.7,226.1z"/>
	</g>
</g>
</svg>
