<?xml version="1.0" encoding="utf-8"?>
<!-- Generator: Adobe Illustrator 21.0.0, SVG Export Plug-In . SVG Version: 6.00 Build 0)  -->
<svg version="1.1" id="Camada_1" xmlns="http://www.w3.org/2000/svg" xmlns:xlink="http://www.w3.org/1999/xlink" x="0px" y="0px"
	 viewBox="0 0 250 85.3" style="enable-background:new 0 0 250 85.3;" xml:space="preserve">
<style type="text/css">
	.st0{fill:#017F4D;}
	.st1{fill:#017E4F;}
	.st2{fill:#027F4F;}
	.st3{fill:#017E4E;}
	.st4{fill:#FBDB00;}
	.st5{fill:#014F97;}
</style>
<g>
	<path class="st0" d="M108.6,0.1c3.1,0,6.2,0,9.7,0c-1.3,2.5-2.6,4.9-3.8,7.2C102.8,28.7,91.3,50,79.8,71.3c-1.8,3.4-3.6,6.7-5.5,10
		c-2,3.4-6.3,4.9-9.7,3.6c-2-0.8-3.2-2.2-3.5-4.2c-1-6.4-1.8-12.7-2.7-19.1c-0.9-6.6-1.9-13.2-2.9-19.9c-0.8-5.5-1.6-11-2.3-16.5
		c-0.9-6.5-1.9-13.1-2.8-19.6C50,3.9,49.7,2.2,49.4,0c4.9,0.1,9.6-0.1,14.3,0.1c0.2,1.5,0.3,2.9,0.5,4.4c0.6,4.7,1.3,9.5,1.9,14.2
		c0.6,4.6,1.2,9.1,1.8,13.7c0.8,6,1.6,12,2.4,18.1c0.7,5.6,1.5,11.2,2.2,16.8c1-0.9,1.5-2,2.1-3C81.1,52.2,87.5,40.1,93.9,28
		C98.8,18.7,103.7,9.4,108.6,0.1z"/>
	<path class="st1" d="M173,21.9c-2.5,1.7-5,3.4-7.6,5.1c-0.5-0.9-1-1.7-1.5-2.5c-2.8-4.5-8.1-6.3-12.9-4.7c-2.9,1-4.6,3.1-5.2,6
		c-0.6,2.9,0.5,5.4,3,6.9c2.6,1.6,5.3,3,7.9,4.5c2.2,1.2,4.4,2.4,6.5,3.9c4.4,3.2,5.8,7.7,4.8,12.9c-2.2,11.3-10.9,19.1-22.4,20.5
		c-3.8,0.5-7.5,0.3-11.1-0.5c-6.4-1.4-10.5-5.4-12.8-11.7c2.9-1.6,5.9-3.2,8.9-4.9c0.8,1.3,1.4,2.5,2.2,3.6
		c3.4,4.6,10.9,5.6,15.4,2.2c3.3-2.5,4.3-7.7-0.2-10.5c-1.9-1.2-3.9-2.3-5.9-3.4c-1.7-0.9-3.4-1.7-5-2.7c-6.7-4.2-9.1-9.5-7.1-17.1
		c2.7-10.4,9.5-17.1,20-19.4c5.7-1.2,11.4-0.7,16.5,2.9C169.7,15.2,171.4,18.3,173,21.9z"/>
	<path class="st2" d="M226.1,54.6c-2.9,0-5.6,0.1-8.3,0c-1.7-0.1-2.6,0.5-3.4,2c-2.6,5.2-5.3,10.3-8,15.5c-0.3,0.5-0.6,1-0.9,1.5
		c-3.1,0-6.1,0-9.4,0c0.3-0.7,0.4-1.3,0.7-1.8c10.2-18.9,20.4-37.7,30.6-56.6c2-3.7,4.8-5.6,9.1-5.2c2.5,0.2,4.4,1.8,4.9,4.3
		c0.9,5.7,1.7,11.3,2.6,17c1.2,7.6,2.3,15.3,3.4,22.9c0.9,6.3,1.9,12.6,2.8,18.8c0,0.1-0.1,0.3-0.2,0.5c-4.7,0-9.3,0-14.2,0
		c-2-15.1-4-30.2-5.9-45.2c-0.2,0-0.3-0.1-0.5-0.1c-3.3,6.3-6.6,12.7-10.1,19.3c3.1,0,5.9,0,8.9,0C227.4,50,226.8,52.1,226.1,54.6z"
		/>
	<path class="st2" d="M23.4,47.7c3.2,0,5.8,0,8.9,0c-0.6,2.3-1.2,4.5-1.8,6.8c-3.5,0-6.9,0-10.6,0c-2,3.9-4.1,7.7-6.1,11.5
		c-1.1,2.2-2.2,4.3-3.4,6.4c-0.3,0.6-1.1,1.2-1.7,1.2c-2.8,0.1-5.5,0.1-8.7,0.1c1.5-2.7,2.7-5.2,4-7.6c9.1-16.9,18.3-33.7,27.4-50.6
		c1.9-3.5,4.4-5.8,8.6-5.6c3,0.1,5.2,1.8,5.6,4.8c1.1,7.5,2.2,15,3.3,22.4c1.1,7.7,2.3,15.3,3.5,22.9c0.6,3.8,1.1,7.6,1.7,11.3
		c0.1,0.7,0,1.4,0,2.2c-4.7,0-9.3,0-14.2,0c-2-15-3.9-30.1-5.9-45.1c-0.2-0.1-0.3-0.1-0.5-0.2C30.2,34.6,26.9,40.9,23.4,47.7z"/>
	<path class="st3" d="M216.9,22c-4.8,0-9.5,0-14.3,0c-1.7,8.8-3.3,17.3-5,25.9c-1.7,8.5-3.4,17-5.1,25.6c-4.9,0-9.7,0-14.8,0
		c3.3-17.2,6.7-34.2,10-51.5c-4.6,0-9,0-13.6,0c0.7-3.8,1.4-7.3,2.1-10.9c14.2,0,28.3,0,42.6,0C218.3,14.8,217.6,18.3,216.9,22z"/>
	<path class="st4" d="M108.6,0.1c-4.9,9.3-9.7,18.6-14.6,27.8c-6.4,12.1-12.8,24.2-19.2,36.3c-0.6,1-1.1,2.1-2.1,3
		c-0.7-5.6-1.5-11.2-2.2-16.8c-0.8-6-1.6-12-2.4-18.1c-0.6-4.6-1.2-9.1-1.8-13.7c-0.6-4.7-1.3-9.5-1.9-14.2
		c-0.2-1.5-0.4-2.9-0.5-4.4c1.6,0,3.1,0,4.7,0c-0.1,1.4-0.2,2.8-0.2,4.2c0.3,7.4,6.2,14.4,15.8,13.7c10.8-0.8,17.9-9.8,18.5-17.9
		C104.6,0.1,106.6,0.1,108.6,0.1z"/>
	<path class="st2" d="M114.8,11.1c4.7,0,9.3,0,14.2,0c-4.1,20.8-8.1,41.6-12.2,62.5c-4.6,0-9.2,0-13.8,0
		C102.7,71.4,111.7,23.5,114.8,11.1z"/>
	<path class="st5" d="M102.6,0.1C102,8.2,94.9,17.3,84.1,18c-9.6,0.7-15.6-6.3-15.8-13.7c0-1.4,0.1-2.8,0.2-4.2
		C70,0.1,71.6,0,73.1,0C82,0,90.9,0,99.7,0C100.7,0,101.6,0.1,102.6,0.1z"/>
</g>
</svg>
