<?xml version="1.0" encoding="utf-8"?>
<!-- Generator: Adobe Illustrator 21.0.0, SVG Export Plug-In . SVG Version: 6.00 Build 0)  -->
<svg version="1.1" id="Camada_1" xmlns="http://www.w3.org/2000/svg" xmlns:xlink="http://www.w3.org/1999/xlink" x="0px" y="0px"
	 viewBox="0 0 250.8 250.8" style="enable-background:new 0 0 250.8 250.8;" xml:space="preserve">
<style type="text/css">
	.st0{fill:#FDF001;}
	.st1{fill:#0261A8;}
	.st2{fill:#0262A8;}
	.st3{fill:#0462A8;}
	.st4{fill:#0362A8;}
</style>
<g>
	<g>
		<path class="st0" d="M0.8,250.8c0-83.3,0-166.7,0-250c83.3,0,166.7,0,250,0c0,83.3,0,166.7,0,250
			C167.5,250.8,84.2,250.8,0.8,250.8z M126.2,23.5c-34,22.7-68,45.5-102.2,68.4c14.5,9.6,28.6,18.9,42.6,28.1
			c17-11.4,33.7-22.6,50.8-34c-7.5-5-14.5-9.7-21.9-14.6c9.6-6.6,18.8-12.8,28-19.1c20,13.6,39.8,26.9,59.9,40.6
			c-32.6,22.1-64.7,43.9-97.2,65.9c7,4.7,13.8,9.2,20.6,13.9c40.2-27,80.4-53.9,120.8-81C193.5,68.7,159.9,46.2,126.2,23.5z
			 M68.5,158.9c32.7-22.2,64.8-43.9,97.3-65.9c-7.2-4.8-13.9-9.3-20.7-13.8c-40.4,27.2-80.4,54.2-120.8,81.4
			c34.1,22.8,67.6,45.2,101.3,67.7c34.1-22.7,68.1-45.3,102.5-68.2c-14.6-9.6-28.6-18.9-42.7-28.2c-16.8,11.2-33.6,22.5-50.8,34
			c7.5,5,14.6,9.7,21.9,14.6c-9.7,6.6-18.9,12.8-28.1,19.1C108.4,185.9,88.7,172.5,68.5,158.9z M23.7,229
			c14.5-9.5,28.3-18.5,42.3-27.8c-7.3-4.9-14.2-9.7-21.1-14.3c-6.6,4.5-12.8,8.6-19,12.9c-0.9,0.6-2.1,1.8-2.1,2.7
			C23.6,211,23.7,219.6,23.7,229z M228.5,24.1c-14.2,9.4-27.7,18.3-41.6,27.5c7.3,5,14.1,9.7,21.1,14.5c6.4-4.3,12.8-8.5,19-12.8
			c0.8-0.5,1.4-1.8,1.4-2.7C228.6,42.1,228.5,33.5,228.5,24.1z"/>
		<path class="st1" d="M126.2,23.5c33.7,22.7,67.3,45.2,101.5,68.2c-40.4,27.1-80.5,54-120.8,81c-6.9-4.6-13.6-9.1-20.6-13.9
			c32.5-22,64.6-43.8,97.2-65.9c-20.1-13.6-39.9-27-59.9-40.6c-9.2,6.3-18.4,12.5-28,19.1c7.4,4.9,14.4,9.6,21.9,14.6
			c-17.1,11.4-33.8,22.6-50.8,34c-14-9.3-28.1-18.6-42.6-28.1C58.2,69,92.2,46.3,126.2,23.5z"/>
		<path class="st2" d="M68.5,158.9c20.2,13.7,40,27,59.9,40.5c9.2-6.3,18.3-12.5,28.1-19.1c-7.4-4.9-14.4-9.6-21.9-14.6
			c17.2-11.5,34-22.7,50.8-34c14.1,9.3,28.1,18.5,42.7,28.2c-34.4,22.9-68.4,45.6-102.5,68.2c-33.7-22.5-67.2-44.9-101.3-67.7
			c40.4-27.2,80.5-54.2,120.8-81.4c6.7,4.5,13.5,9,20.7,13.8C133.3,114.9,101.2,136.7,68.5,158.9z"/>
		<path class="st3" d="M23.7,229c0-9.4-0.1-17.9,0.1-26.5c0-0.9,1.2-2.1,2.1-2.7c6.1-4.3,12.4-8.4,19-12.9
			c6.9,4.7,13.8,9.4,21.1,14.3C51.9,210.4,38.2,219.4,23.7,229z"/>
		<path class="st4" d="M228.5,24.1c0,9.4,0,18-0.1,26.5c0,0.9-0.6,2.2-1.4,2.7c-6.3,4.3-12.6,8.5-19,12.8c-7-4.8-13.8-9.5-21.1-14.5
			C200.9,42.5,214.3,33.5,228.5,24.1z"/>
	</g>
</g>
</svg>
