<?xml version="1.0" encoding="utf-8"?>
<!-- Generator: Adobe Illustrator 21.0.0, SVG Export Plug-In . SVG Version: 6.00 Build 0)  -->
<svg version="1.1" id="Camada_1" xmlns="http://www.w3.org/2000/svg" xmlns:xlink="http://www.w3.org/1999/xlink" x="0px" y="0px"
	 viewBox="0 0 250 96.3" style="enable-background:new 0 0 250 96.3;" xml:space="preserve">
<style type="text/css">
	.st0{fill:#0E4583;}
	.st1{fill:#094588;}
	.st2{fill:#F8FBFA;}
	.st3{fill:#094586;}
	.st4{fill:#0C4584;}
	.st5{fill:#0F4480;}
	.st6{fill:#0C447E;}
	.st7{fill:#0E4786;}
	.st8{fill:#0C4481;}
	.st9{fill:#1E4B7C;}
	.st10{fill:#06468E;}
	.st11{fill:#BFD9EB;}
	.st12{fill:#F0F6EF;}
	.st13{fill:#E7EFF2;}
	.st14{fill:#EFF5F5;}
	.st15{fill:#9FBDE2;}
	.st16{fill:#054385;}
	.st17{fill:#ABC35B;}
	.st18{fill:#124786;}
	.st19{fill:#134070;}
	.st20{fill:#3C6390;}
	.st21{fill:#ECF3F4;}
	.st22{fill:#264A71;}
	.st23{fill:#0E3362;}
	.st24{fill:#EDF4F5;}
	.st25{fill:#F2F7F9;}
	.st26{fill:#174D8B;}
	.st27{fill:#FEFEFD;}
</style>
<g>
	<path class="st0" d="M182.8,96.2c-2.1,0-4.2,0-6.2,0c-0.2-0.2-0.5-0.5-0.7-0.7c-0.2-0.4-0.5-0.9-0.7-1.3c-0.2-0.5-0.5-0.9-0.7-1.4
		c0.2-0.4,0.5-0.8,0.4-1.2c0-0.5-0.3-1-0.4-1.5c0.5,0,0.9,0,1.4,0c1.1,0.5,1.4,0,1.3-1.2c-0.4-0.1-0.8-0.1-1.3-0.2
		c-1-0.1-1.5,0.3-1.4,1.4c-1-0.1-1.5,0.3-1.4,1.4c-0.3,0.3-0.5,0.5-0.8,0.8c-1.4-2.1-0.7-4.2-0.1-6.4c3-4.6,7.7-5.4,12.6-5.5
		c0.8,1.1,1.5,1.1,2.1-0.1c0.4-0.2,0.8-0.5,1.2-0.5c2.4,0,3.4-1.4,3.5-3.6c0.3,0,0.5,0,0.8,0l0,0c0,0.5,0,0.9,0,1.4
		c0.7,1.2,1.4,2.5,2.2,3.8c-0.8,0.7-1.5,1.2-2.2,1.7c-0.2-0.2-0.3-0.3-0.5-0.5c-0.1,0.2-0.2,0.3-0.2,0.5l0,0c-0.5,0.2-1,0.4-2,0.9
		c1.5,0.4,2.2,1.1,2.7-0.2c1,0.1,0.9,2.4,2.6,1c0.1-0.9,0.2-2,0.3-3c0.5-0.1,0.8-0.1,1.2-0.1c0.2,0.2,0.3,0.4,0.5,0.7
		c-0.7,4.4-2.4,8.6-2,13.1c-2.2,0-4.5,0-6.7,0c-0.2-0.8-0.4-1.4-0.5-2C186.1,94.5,184.5,95.4,182.8,96.2z M189.8,83.7
		c-2.4,0.3-4.5,0.5-6.6,0.8c-0.3,0-0.7,0-1,0.1c-0.6,0.2-1.3,0.5-1.9,0.9c-2.1,1.5-2.1,4.7,0.1,5.7c2.1,1.1,6.1,0.2,7.5-1.8
		C189,87.8,189.7,86,189.8,83.7z"/>
	<path class="st1" d="M108.7,96.2c-2.1,0-4.2,0-6.2,0c-0.2-0.2-0.5-0.5-0.7-0.7c-0.2-0.2-0.4-0.5-0.7-0.7c-0.4-1.4-2-0.1-2.5-1
		c-1.1-1.7-3.6-2.5-3.1-5.1c-0.6-0.1-0.9-0.1-1.2-0.1c0-2.8,0-5.6-0.1-8.4l0,0c0.4,0,0.8-0.1,1.4-0.1c0-1.3,0-2.4,0-3.5
		c1-1.5,1.9-3,2.9-4.5c1.1-0.5,2.1-1,3.2-1.6c0.8,0,1.6,0,2.3,0.1c2.3,0.2,4.4-0.2,6.3-1.4l0.3-0.1c0,0,0.3,0.1,0.3,0.1
		c0,0.3,0,0.9,0.1,1c1.6,0.6,1.2,2,1.2,3.2c-2.3,0-4.6,0-6.9,0c-0.5-1-0.9-1-1.4,0l0,0c-0.2,0.1-0.3,0.2-0.5,0.2
		c0.2,0.2,0.3,0.3,0.5,0.5c0,0.2,0,0.5,0,0.7c0,0.2,0,0.4,0,0.6c-0.9,1.4-1.8,2.8-2.8,4.2c0,0.2,0,0.5,0,0.7c0,0.5,0,0.9,0,1.4
		c0,0.2,0,0.5,0,0.7c-0.4,0.2-0.9,0.3-1.3,0.5c0.2,0.3,0.4,0.6,0.6,0.9c0,0.2,0,0.4,0,0.6l0,0c-1.3,0.9-0.4,2.2-0.6,3.3
		c0,0.2,0.5,0.5,0.8,0.8c0.9,0.7,1.8,1.4,2.6,2.1c2,2,4.1,0.4,6.1,0.5c0-0.6,0.1-0.9,0.1-1.2c0.1,0,0.2,0,0.3-0.1
		c1.1,0.1,2.2,0.1,3.3,0.2c0.4-0.5,0.8-1,1-1.3c0.8,0.1,1.6,0.2,2.3,0.4c0,0.7,0.1,1.3,0.1,1.8c0,0.2-0.1,0.4-0.2,0.5
		c-0.5,0.1-1.3-0.2-1.1,0.8l0,0c-0.2,0.2-0.5,0.4-0.7,0.7l0,0c-0.7,0-1.5-0.1-2.2-0.1c0-0.4-0.1-0.8-0.1-1.9
		c-0.5,1.2-0.8,1.8-1.1,2.5c0.6,0,0.9,0.1,1.2,0.1c-1.1,1.5-2.7,0.3-4,0.7c-0.5,0.1-1,0.4-1.6,0.6c0,0.2,0.1,0.4,0.1,0.5
		c0.7,0.1,1.5,0.2,2.2,0.4C108.8,95.8,108.8,96,108.7,96.2z"/>
	<path class="st2" d="M224.4,96.2c-6,0-12,0-18,0c0-0.3,0-0.5,0-0.8c0.1-0.9,0.1-1.8,0.2-2.6c0.7-2.8,1.3-5.7,2-8.4
		c0.8-3,1.2-6.3,4.7-7.7c0.3,0.3,0.5,0.6,0.8,0.8c0.2-0.4,0.5-0.8,0.7-1.3c0.7,0,1.4-0.1,2.1-0.1c1.1,0.3,2.5-0.5,3.4,0.7
		c-0.2,0.3-0.3,0.5-0.5,0.8c-1.5,0.3-0.6,1.4-0.7,2.2c-0.1,0.4-0.1,0.8-0.2,1.2c-1,2-1.4,4.1-1.3,6.3c0,0.3,0.4,0.5,0.6,0.7
		c0.2,0.4,0.3,0.9,0.5,1.3c0.7,3,2.3,5.1,5.2,6.2C224,95.7,224.2,96,224.4,96.2z M216.7,82.8c-0.1-0.1-0.1-0.2-0.2-0.2
		c-0.1,0.1-0.2,0.1-0.2,0.2c0,0.1,0.1,0.2,0.2,0.2C216.5,83,216.6,82.8,216.7,82.8z"/>
	<path class="st3" d="M245.2,59.4c1.4,0,2.8,0,4.1,0c0.2,0.1,0.5,0.1,0.7,0.2c0,0.5,0,0.9,0,1.4c-0.2,0.2-0.4,0.5-0.7,0.7
		c-0.4,0.1-0.8,0.1-1.4,0.2c0,2.4,0,4.6,0,6.9c-0.2,1.1-0.5,2.3-0.7,3.4c-0.1-0.4-0.2-0.9-0.4-1.3c-0.1,0-0.2,0-0.3,0.1
		c0,1.6,0,3.1,0,4.7c-0.7,3-1.4,6-2,9.1c-0.1-0.5-0.2-0.9-0.4-1.4c-0.2,1.1-1,2.3,0.2,3.3c-0.4,1.7-0.8,3.3-1.2,5
		c-0.2-0.2-0.3-0.4-0.5-0.6c-0.1,0.1-0.3,0.1-0.4,0.2c0.2,0.8,0.5,1.6,0.7,2.4c-0.2,0.7-0.3,1.4-0.5,2.1c-1.2,0-2.3-0.1-3.5-0.1
		c-0.7-0.7-1.4-1.3-2.1-2c0.9-0.4,1.7-0.7,2.8-1.1c0-0.8,0.1-1.7,0-2.6c0-0.4-0.5-0.7-1.1-1.7c-0.2,1.8-0.3,2.8-0.4,3.8
		c-0.9-0.3-1.6-0.5-2.5-0.8c-0.1-0.6-0.1-1.3-0.2-2c0.8-1.5,1.7-2.9,2.3-4.5c1.3-3.3,1.4-6.6-1-9.6c-0.2-0.9-0.4-1.8-0.6-2.6
		c1.8-1.4,1.8,1,3,0.9c0.1-0.2,0.3-0.5,0.5-0.8l0.3,0l0.3,0c0.1,0.4,0.2,0.9,0.8,0.2c0.3-0.3,0.8-0.4,1.5-0.8
		c-0.8-0.8,0.8-2.1-0.8-2.8c0-0.5-0.1-1-0.1-1.5l0,0c1,0.1,0.8-0.7,0.8-1.3c0.5,0,0.9,0,1.4,0c0.3,0.9,0.6,1.8,0.9,2.7
		c0.2,0,0.3,0,0.5-0.1c0-0.9,0-1.7,0-2.6l0,0c0.4,0,0.8-0.1,1.2-0.1c0-1.5,0-2.7,0-3.9c-0.5-0.1-0.9-0.1-1.2-0.1
		c-0.1-1,0.4-2.3-1.4-2.1c-0.2,0-0.5,0-0.7,0C243.4,58.9,244.6,59.9,245.2,59.4z M242.9,78.3c0.5-1,0.8-1.3,0.8-1.5
		c-0.1-0.2-0.4-0.4-0.7-0.5c-0.2,0.2-0.5,0.5-0.5,0.7C242.5,77.3,242.7,77.6,242.9,78.3z"/>
	<path class="st4" d="M146.3,81c0.1-1.6,0.3-3.2,1.6-4.3c0.4,0,0.9,0.1,1.5,0.1c0.3-1.2,0.6-2.4,0.9-3.5l0,0c1,0,2,0,2.8,0
		c0.8-0.5,1.4-1.2,2-1.2c1.1,0-0.2-1.9,1.2-1.3c0.2,2.3-0.1,2.9-2.2,4.4c0.4,0.5,0.8,1.1,1.1,1.6c-0.6,1.2-1.1,2.4-1.7,3.6
		c-1-0.2-1,0.5-1,1.2c0,2.6,0,5.2,0,7.7c0.3,0.8,1.9,0.7,1.4,2c0.7,0.8,0.6,1.8,0.7,2.9c0.1-1.5,2.4-1.2,2.1-2.9c1.7,0,3.4,0,4.4,0
		c1.1-1,1.8-1.6,2.5-2.3c0-0.3-0.1-0.9-0.1-1.5c0-0.2,0-0.3,0.1-0.5c1.4,0,2.8,0,4.2,0c0,0.6,0,1.1,0,1.7c-0.1,1,0.6,1.1,1.3,1.1
		c-1.6,3.2-4.5,4.8-7.6,6.2c-2.8,0-5.5,0-8.3,0c-2.9-1.4-5.5-3.1-6.6-6.3c-0.1-0.4-0.1-0.9-0.2-1.3C147,86.6,147.1,83.5,146.3,81z
		 M152.9,91.1c-0.1-0.1-0.1-0.2-0.2-0.2c-0.1,0.1-0.2,0.1-0.2,0.2c0,0.1,0.1,0.2,0.2,0.2C152.8,91.2,152.9,91.1,152.9,91.1z"/>
	<path class="st5" d="M35.4,87.3c1.4-2.9,3.2-5.4,6.8-5.6c-0.2,0.8-0.4,1.6-0.6,2.2c0.9,0.6,1.5,1.1,2.2,1.6
		c-0.1,0.2-0.3,0.4-0.4,0.6c-0.8,1.3-1.6,2.6-0.6,4c1.1,1.5,2.6,1.7,4.4,1.6c2.9-0.2,4.4-1.9,5.6-4.3c0.4-0.2,0.9-0.5,1.3-0.7
		c0.1,1.1,0,2.1-1,2.3c0.1,1,0.2,1.8,0.3,2.5c-0.7,0.1-1.4,0.2-2,0.4c0.6,1,1,1.7,1.4,2.4c-0.2,0-0.4,0-0.6,0
		c-0.2-0.2-0.6-0.6-0.7-0.6c-1.4,0.8-2.8,1.8-4.2,2.6c-2.3,0-4.6,0-6.9,0c-1.7-1.5-4.1-2.3-4.8-4.9C35.4,90,35.4,88.6,35.4,87.3z"/>
	<path class="st6" d="M126.7,96.2c-0.3-0.2-0.6-0.5-1-0.7c-0.8-0.5-1.7-0.9-2.5-1.4c0.2-1.3-0.5-1.6-1.6-1.4
		c-0.5-1.2-1.1-2.4-1.6-3.5c0.2-0.2,0.3-0.5,0.5-0.7c1,0.1,1.5-0.3,1.4-1.3c0,0-0.1-0.2-0.1-0.2c1.6,0.1,3.1,0.2,4.6,0.2
		c0.9,3.4,1.6,4,4.6,4.1c1.2,0,2.5-0.1,3.8-0.2c-0.5,1.2-1.1,2.3-1.6,3.4c0.1,0.6,0.2,1.1,0.4,1.6C131.4,96.2,129.1,96.2,126.7,96.2
		z M124.9,91.3c-1.4-1.5-1.4-1.5-3.6-0.2C122.8,91.2,123.7,91.3,124.9,91.3z"/>
	<path class="st7" d="M133.7,96.2c-0.1-0.5-0.2-1.1-0.4-1.6c0.5-1.1,1-2.2,1.6-3.4l0.1,0.1c0.2-0.2,0.5-0.5,0.7-0.7l0,0
		c0.2-0.2,0.5-0.5,0.7-0.7l0,0c1,0,0.8-0.7,0.8-1.3c0.5,0,0.9,0,1.4,0c-0.1,1.6,0.8,1.6,2.1,1.1c-0.5-0.6-0.9-1.2-1.4-1.8
		c0-0.2,0-0.5,0-0.7c0.2-0.5,0.5-0.9,0.7-1.4c1,0.1,1.5-0.3,1.4-1.4c0.3-0.1,0.6-0.1,0.8-0.2l0,0.1c0.3,0.2,0.6,0.5,0.8,0.7
		c1.3,3.7,0.5,6.7-3.6,9.2c-0.9,0-1.8-0.1-2.7-0.1c-1,0-0.9,0.7-1,1.4c-0.2,0.2-0.5,0.5-0.7,0.7C134.6,96.2,134.1,96.2,133.7,96.2z"
		/>
	<path class="st8" d="M235.4,89.1c0.1,0.7,0.1,1.3,0.2,2c0.8,0.3,1.6,0.5,2.5,0.8c0.1-1,0.2-2.1,0.4-3.8c0.6,0.9,1,1.3,1.1,1.7
		c0.1,0.9,0,1.8,0,2.6c-1,0.4-1.9,0.8-2.8,1.1c-0.2,0-0.4,0-0.6,0c-0.7-0.7-0.7-0.7-1.5,0.7c-1.2,0.7-2.3,1.4-3.5,2.1
		c-0.7,0-1.4,0-2.1,0c0.1-2.5-2-1.9-3.5-2.3c0.8-0.9,1.5-1.7,2.1-2.5c0.9,0.1,1.9,0.3,2.8,0.4c0.7,0,1.3-0.2,2-0.4
		c0,0.3,0,0.9,0.1,0.9c0.3,0.2,0.7,0,1.1,0c-0.1-0.3-0.1-0.7-0.3-0.8c-0.2-0.2-0.6-0.1-1-0.1c0-0.2,0-0.4,0-0.6
		C233.6,90.3,234.5,89.7,235.4,89.1z"/>
	<path class="st9" d="M224.4,96.2c-0.2-0.2-0.4-0.6-0.6-0.7c-2.9-1.1-4.5-3.3-5.2-6.2c0.1-0.2,0.1-0.5,0.2-0.7c0.5,0,0.9,0,1.4,0
		c0.1,0.9,0.1,1.8,0.2,3.2c1.3-1.5,2.5-2.1,3.9-1.8l0,0c-0.4,1.2-0.9,2.4-1.3,3.8c1.1,0.6,3,0.3,2.7,2.4
		C225.3,96.2,224.8,96.2,224.4,96.2z"/>
	<path class="st10" d="M225.8,96.2c0.3-2.1-1.7-1.9-2.7-2.4c0.5-1.4,0.9-2.6,1.3-3.8c0.5,0,0.9,0,1.4,0c0.3,1,0.9,0.7,1.5,0.5
		l-0.1,0.1l0.2-0.1c0.2,0.3,0.3,0.6,0.5,0.9c-0.7,0.8-1.4,1.6-2.1,2.5c1.5,0.5,3.7-0.1,3.5,2.3C228.1,96.2,226.9,96.2,225.8,96.2z"
		/>
	<path class="st11" d="M22.2,96.2c-7.2,0-14.3,0-21.5,0c-0.6,0-0.8-0.1-0.7-0.7c0.5,0,0.9,0,1.4-0.1c0.9,0,1.8,0,2.8,0
		c2.3,0,4.6,0,6.9,0c1.4,0,2.8,0,4.2,0c1.8,0,3.7,0,5.5,0c0.5,0.1,0.9,0.1,1.4,0.2C22.2,95.8,22.2,96,22.2,96.2z"/>
	<path class="st5" d="M1.4,95.5c-0.5,0-0.9,0-1.4,0.1c0-0.2,0-0.5,0-0.7c1.1-0.4,0.6-1.3,0.7-2.1C1,91.4,1.2,90,1.5,88.7
		c0,0,0,0,0,0c0.2-0.5,0.4-1,0.6-1.5c0.2-0.7,0.4-1.5,0.7-2.2c0,2.4,0,4.8,0,7.4C1,92.7,1.5,94.2,1.4,95.5z"/>
	<path class="st11" d="M231.3,96.2c1.2-0.7,2.3-1.4,3.5-2.1c0.3,0.3,0.5,0.6,0.8,0.9c1,1,2.2,0.4,3.3,0.5c1.2,0,2.3,0.1,3.5,0.1
		c0,0.2,0,0.4,0,0.7C238.7,96.2,235,96.2,231.3,96.2z"/>
	<path class="st11" d="M198.8,96.2c0.2-0.7,0.3-1.4,0.5-2.1c0.1,0.4,0.2,0.8,0.3,1.3c2.4,0,4.6,0,6.8,0c0,0.3,0,0.5,0,0.8
		C203.8,96.2,201.3,96.2,198.8,96.2z"/>
	<path class="st12" d="M127.4,0c0,0.5,0,0.9,0,1.4c-1.6,0-3.2,0-4.9-0.1c0.2-0.4,0.5-0.9,0.7-1.3C124.7,0,126.1,0,127.4,0z"/>
	<path class="st11" d="M87.2,95.5c0,0.3,0,0.5,0,0.8c-2.5,0-5.1,0-7.6,0c0.1-0.5,0.3-0.9,0.4-1.4c0.3,0.8,1,0.8,1.7,0.7
		c0.5,0,0.9,0,1.4,0c0.5,0,0.9,0,1.4,0c0.5,0,0.9,0,1.4,0C86.3,95.5,86.8,95.5,87.2,95.5z"/>
	<path class="st13" d="M22.2,96.2c0-0.2,0-0.4,0-0.6c0,0-0.1-0.2-0.1-0.2c1.4-0.4,2.8-0.8,4.2-1.2c0,0,0,0,0,0
		c0.2-0.1,0.5-0.1,0.7-0.2l0.3,0.1l0.3,0c0.1,0.8,0.1,1.5-1.1,1.5c-0.5,0-1.1,0.4-1.6,0.7C24,96.2,23.1,96.2,22.2,96.2z"/>
	<path class="st11" d="M63,96.2c0-0.2,0-0.4,0-0.7c0.5,0,0.9-0.1,1.4-0.1c1.8,0,3.7,0,5.5,0c0,0.3,0,0.5,0,0.8
		C67.7,96.2,65.4,96.2,63,96.2z"/>
	<path class="st14" d="M1.5,88.7C1.2,90,1,91.4,0.7,92.8c-0.2,0-0.5,0-0.7,0c0-1.2,0-2.3,0-3.5C0.5,89.1,1,88.9,1.5,88.7z"/>
	<path class="st15" d="M250,63.7l-0.3,0c0,0-0.3,0-0.3,0c0-0.7,0-1.4,0-2.1c0.2-0.2,0.4-0.5,0.7-0.7C250,61.9,250,62.8,250,63.7z"/>
	<path class="st2" d="M0,66.5c0.4,0.2,0.9,0.5,1.3,0.7c-0.4,0.2-0.9,0.5-1.3,0.7C0,67.4,0,66.9,0,66.5z"/>
	<path class="st15" d="M110.9,95.6c0,0.2,0,0.4,0,0.6c-0.7,0-1.4,0-2.1,0c0-0.2,0.1-0.4,0.1-0.6C109.5,95.6,110.2,95.6,110.9,95.6z"
		/>
	<path class="st15" d="M135.1,96.2c0.2-0.2,0.5-0.5,0.7-0.7c0.5,0,0.9,0,1.4,0c0,0.2,0,0.5,0,0.7C136.4,96.2,135.8,96.2,135.1,96.2z
		"/>
	<path class="st11" d="M0,92.8c0.2,0,0.5,0,0.7,0c-0.1,0.7,0.4,1.7-0.7,2.1C0,94.2,0,93.5,0,92.8z"/>
	<path class="st9" d="M101.1,96.2c0-0.2-0.1-0.4-0.1-0.6c0.3,0,0.5-0.1,0.8-0.1c0.2,0.2,0.5,0.5,0.7,0.7
		C102.1,96.2,101.6,96.2,101.1,96.2z"/>
	<path class="st13" d="M250,59.5c-0.2-0.1-0.5-0.1-0.7-0.2c0.2-0.2,0.5-0.4,0.7-0.5C250,59.1,250,59.3,250,59.5z"/>
	<path class="st16" d="M135.8,23.6c0.5-0.2,0.9-0.3,1.4-0.5c0.9-0.3,1.8-0.5,2.7-0.8c0.5-0.1,0.9-0.1,1.4-0.2c0.5,0,0.9,0,1.4,0
		c0,0,0,0.1,0,0.1c1.4,0.5,2.7,1,4.1,1.4c1.7,1.5,2.9,3.4,3.6,5.6c1.5,4.6,3.1,9.2,4.7,13.8c-0.9,1.2,0.7,2.5-0.3,3.9
		c-0.6,0.1-1.5,0.2-2.3,0.4c-0.1,0.5-0.1,0.8-0.1,1.2c-2.3,0.9-4.6,1.9-6.9,2.8c-0.2,0-0.5,0.1-0.7,0.1c-0.3,0.2-0.5,0.3-0.8,0.5
		l0,0c-1.1,0.3-2.3,0.6-3.4,0.9c-0.3,0.2-0.5,0.3-0.8,0.5l0,0c-0.7,0.2-1.4,0.5-2.1,0.7c0,0,0,0,0,0c-1.4,0.5-2.7,1-4.1,1.4
		c-0.4,0-0.9,0-1.3,0c-4.3-0.2-8.7,1.1-13.1-0.4c-0.1-0.7-0.2-1.4-0.3-2.3c-1.5,0-2.8,0-4.2,0c-1-1.8-2.6-2-4.3-2
		c-2.5-1.5-3.5-4.2-5.2-6.4l0,0c-0.4-1.2-0.9-2.3-1.3-3.5c-0.1-0.5-0.3-1-0.4-1.5c0.1-0.1,0.1-0.2,0.2-0.2c-0.2-0.1-0.3-0.2-0.5-0.3
		l0-0.1c-0.2-0.5-0.4-1-0.6-1.4c-0.1-0.5-0.2-0.9-0.3-1.4c0.2-0.2,0.4-0.6,0.7-0.7c6-2.1,12.1-4.2,18.1-6.3
		C126,27.3,130.9,25.4,135.8,23.6z"/>
	<path class="st17" d="M122.6,1.3c1.6,0,3.2,0,4.9,0.1c2.5,1.4,3.8,3.6,4.2,6.5c0.1,1.1,0.9,2.1,1.3,3.2c0.7,2.5,1.3,4.9,2,7.6
		c-1.2,0.6-2.3,1.4-3.6,1.8c-3.4,1.1-6.9,2-10.3,3.2c-5.6,2-11.2,4-16.7,6.2c-1.4,0.5-2.6,0.7-4.2,0.4c-0.6-2-1.2-4-1.9-6
		c-0.3-0.8-0.9-1.5-1.3-2.2c-0.7-2.4-1.4-4.7-2.1-7.1c-0.3-1.1-0.6-2.3-0.9-3.7c5-1.8,9.7-3.4,14.3-5c3.6-1.3,7.1-2.7,10.7-4.1
		C120.1,1.8,121.4,1.6,122.6,1.3z"/>
	<path class="st3" d="M1.4,95.5c0.1-1.3-0.5-2.8,1.3-3.2c0-2.6,0-5,0-7.4c0-0.2,0-0.4,0.1-0.5c1,0.1,1.5-0.3,1.4-1.4
		c0-1.1,0-2.3,0-3.4c1.9-2.3,1.2-5,1.4-7.6C6,72,6.5,71.9,7.1,71.8c0-1.8-0.5-3.6,0.1-4.9c0.9-1.9,1.1-3.8,1.3-6c1.9,0,3.6,0,5.2,0
		c0.1-0.6,0.1-0.9,0.2-1.3c1.9-0.1,3.7-0.2,5.6-0.3c4.2,0.3,8.4-0.1,12.4,1.6l0,0c3.8,4.2,4.1,8.6,0.9,12.7c-0.2-0.6-0.3-1-1.1-0.4
		c-1.1,0.8-2,2.1-3.8,1.7c0.3,0.7,0.5,1.1,0.7,1.5c2.5,1.6,4.7,3.5,4.9,6.8c0,0.7,0,1.4,0,2.1c-0.2,0.7-0.5,1.5-0.7,2.2
		c-0.1-0.5-0.2-0.9-0.3-1.4c-0.1,0-0.3,0-0.4,0c0,0.9,0,1.7,0,2.6c-1.9-0.1-1.4,1.2-1.3,2.2c0,0,0,0,0,0c-0.2,0.2-0.5,0.5-0.7,0.7
		c0,0,0,0,0,0c-2,0-2.8,0.5-3.6,2.6l0,0c-1.3,0-2.7,0-4,0c-0.1,0.6-0.2,0.9-0.3,1.2l0.1,0.2c-0.5-0.1-0.9-0.1-1.4-0.2
		c0-0.3-0.1-0.7-0.1-1.1c-1.8,0-3.5,0-5.2,0c-0.1,0.5-0.1,0.8-0.1,1.2c-1.4,0-2.8,0-4.2,0c0-0.3-0.1-0.7-0.1-1.2c-2.2,0-4.4,0-6.6,0
		c-0.1,0.5-0.1,0.8-0.1,1.2C3.3,95.5,2.3,95.5,1.4,95.5z M26.3,66.6c0.1-0.8,0.1-1.5-1.1-1.5c-0.5,0-1.1,0-1.6,0
		c-3.4,0-6.8,0-10.7,0c0.8,0.5,1,0.6,1.3,0.8c-0.1,0.2-0.2,0.4-0.2,0.6c-0.4,0.1-0.8,0.1-1.3,0.2c0,2,0,3.8,0,5.6c0,0.5,0,1.1,0,1.9
		c2.5,0,4.9-0.1,7.3,0c2.5,0.2,4.7-0.4,6.5-2.1c0.4-0.1,0.8-0.1,1.2-0.2c0-1.8,0-3.4,0-5.3C27.1,66.6,26.7,66.6,26.3,66.6L26.3,66.6
		z M9.7,90c0.2,0.4,0.5,0.9,0.7,1.3c0.2-0.4,0.5-0.9,0.7-1.3c3.2,0,6.3,0,9.5,0c0.6,0,1.4,0.2,1.5-0.8c1.1-1.1,2.1-2.3,3.2-3.4
		c1.4-1.2,1.4-2.9,0-4c-0.6-0.6-1.2-1.2-1.9-1.8c-0.1-0.3-0.2-0.8-0.3-0.8c-1.7-0.2-3.5-0.7-5.1,0.3c-2.2,0-4.4,0-6.6,0
		c-0.3,1-0.5,1.6-0.7,2.2c-0.4,0.3-1,0.6-1,1c-0.1,0.9,0,1.8,0,2.7c0,1.4-0.1,2.8-0.1,4.2C9.7,89.7,9.7,89.9,9.7,90z M25.1,61.6
		c1.4,0.8,2.8,1.4,4-0.6C27.6,61,26.3,60.7,25.1,61.6z"/>
	<path class="st7" d="M199.5,93.5c0.2-0.7,0.4-1.4,0.6-2.2c0.1,0.4,0.2,0.8,0.4,1.2c0.2,0,0.4-0.1,0.5-0.1c-0.2-0.8-0.5-1.6-0.7-2.3
		c0.3-1.4,0.6-2.8,0.9-4.3c1.2-0.5,1.3-1.2,0.5-2.7c0.7-3.3,1.4-6.5,2.1-9.8c0.3-0.1,0.6-0.1,1-0.2c0.2-0.9,0.3-1.7,0.5-2.8
		c1.8,0,3.4,0,5,0c0-0.2,0-0.3,0-0.5c-1.9,0-3.8,0-5.7,0c-0.1-0.2-0.1-0.4-0.2-0.6l0,0c2,0,4.1,0,6.1-0.1c0.2,0,0.3,0.1,0.5,0.1
		c-0.1,1.3-0.2,2.6-0.4,3.9c1.2-1,2.2-1.8,3.2-2.7c0.9-0.1,2.3,0.7,2.2-1.2c0.9-0.1,1.8-0.2,2.7-0.3c0,0.3,0,0.9,0.1,0.9
		c1.7,0.7,1.2,2.3,1.4,3.6c0,0.2,0,0.3-0.1,0.5c-0.7,0.2-1.4,0.5-2.1,0.7c-0.9,0-1.8,0-2.8,0c-1,0-2.3-0.4-2.1,1.4
		c-0.1,0.2-0.1,0.3-0.1,0.5c-3.5,1.4-3.9,4.7-4.7,7.7c-0.7,2.8-1.3,5.6-2,8.4c-1.2-0.4-1.5,0.7-2.1,1.3
		C202.8,94,201.1,94.6,199.5,93.5z M205.6,84.3c0.2-0.7,0.5-1.4,0.7-2.2c-0.5-0.1-1-0.3-1.5-0.4c-1.5,2.9-1.6,4.8-0.3,7
		C205.5,87.3,204.7,85.8,205.6,84.3z M209.3,78.1c-0.4-0.2-0.7-0.5-0.9-0.4c-0.2,0.1-0.4,0.4-0.5,0.7c0.2,0.2,0.5,0.5,0.7,0.5
		C208.8,78.8,209,78.4,209.3,78.1z"/>
	<path class="st4" d="M61.1,72c0.1,0.5,0.3,1,0.4,1.4c-0.8,2.1-0.8,3.8,0,6.2c-0.7,3-1.4,6-2,9c-0.3,0-0.6,0.1-1,0.1
		c-0.3,1.4-0.7,2.7-1,4c-1,0-2,0-2.9,0c-0.4-0.5-0.9-0.9-1.3-1.4c-0.1-0.7-0.2-1.5-0.3-2.5c0.9-0.3,1.1-1.2,1-2.3c0-0.2,0-0.5,0-0.7
		c0.4-0.1,0.8-0.1,1.3-0.2c0-0.1,0-0.2,0-0.3c-0.4-0.1-0.8-0.1-1.3-0.2c-0.1-0.5-0.2-0.9-0.4-1.4c-0.3-0.1-0.7-0.1-1-0.2
		c0-0.2,0-0.4,0-0.6c0.4-0.6,0.9-1.3,1.4-2c-0.2-0.5-0.5-1-0.7-1.4c0.4-0.3,0.8-0.5,1.1-0.8c1.5-1.8,1.1-3.7-1-4.7
		c-1.8-0.9-3.7-0.8-5.6-0.1c-0.7-1.6-1.4,0.2-2.1,0.1c-0.1-0.7-0.2-1.4-0.3-2.1c-1,0-1.7,0-2.5,0c0-0.3-0.1-0.7-0.1-1
		c1-0.6,2-1.2,2.9-1.8c0.4-0.1,0.9-0.1,1.3-0.2c2.2,0,4.5-0.1,6.7,0.1c1.9,0.2,3.8,0.6,5.7,0.9c0,0,0,0,0,0c0.2,0.2,0.5,0.4,0.7,0.7
		l0,0c0.2,0.3,0.5,0.6,0.7,0.8C60.9,71.7,60.9,71.9,61.1,72z"/>
	<path class="st18" d="M123.3,81c-0.3-0.9-0.6-1.8-0.8-2.7c-0.1-4.2,1.8-6.9,5.7-8.4c0.3-0.1,0.5-0.4,0.8-0.6
		c0.4-0.1,0.8-0.1,1.3-0.2c2.5,0.1,4.9-0.5,7.4,0c3.5,0.7,6.1,2,7.1,5.7c-0.4,0.5-0.8,0.9-1.2,1.3c-1.7,0-3.4,0-5.1,0
		c-2.7-3.2-4.1-3.4-8.5-1.3c-0.3,0.3-0.9,0.5-1,0.9c0,0.4,0.5,0.7,0.7,1.1c0.2,0.3,0.4,0.5,0.6,0.8c0,0.7,0,1.4,0,2
		c-1.2-0.2-2.3-0.5-3.5-0.7c0.3-0.9,1.3-1.6,0.2-2.7c-2.1-0.3-2,1.4-2.3,2.7c0,1-0.1,1.9-0.1,2.9C124.2,81.5,123.7,81.3,123.3,81z"
		/>
	<path class="st18" d="M166,69.3c2.1,1.5,4.6,2.5,5.5,5.1c0.1,0.3,0.1,0.7,0.1,1c-0.3,0.6-0.7,1.3-1.1,2.1c-0.8,0-1.7,0-2.6,0
		c-0.9,0-1.8,0.1-2.8,0.1c-0.2-2-1.6-2.8-3.3-3.5c0.4-0.1,0.9-0.3,1.3-0.4c-1.3-0.4-2.5-0.4-3.8-0.3c-0.3,0-0.6,0.5-0.8,0.8
		c-1.2,0.9-2.3,1.8-3.5,2.6c-0.4-0.5-0.8-1.1-1.1-1.6c2.1-1.5,2.4-2.1,2.2-4.4c-1.4-0.6-0.2,1.3-1.2,1.3c-0.6,0-1.2,0.7-2,1.2
		c-0.7,0-1.8,0-2.8,0c0.1-0.4,0.2-0.8,0.4-1.2C155.3,68.7,160.4,67.8,166,69.3z"/>
	<path class="st10" d="M197.2,72.1c0.3,0.4,0.6,0.9,0.9,1.3c0.1,0.5,0.1,1,0.2,1.4c-0.1,0.9-0.2,1.8-0.3,2.7
		c-0.4,0.1-0.8,0.1-1.3,0.2c0,1.5,0,2.7,0,4c-0.3,0-0.7,0.1-1.2,0.1c-0.1,1-0.2,2.1-0.3,3c-1.7,1.3-1.7-0.9-2.6-1
		c-0.2-0.2-0.5-0.5-0.7-0.7l0,0l0.3,0c0,0,0.3,0,0.3,0c0.7-0.5,1.4-1.1,2.2-1.7c-0.8-1.3-1.5-2.6-2.2-3.8c0.9-0.2,2,0.5,2.8-0.7
		c-0.8-1.2-1.9-0.5-2.8-0.7l0,0c0-0.5,0-0.9,0-1.4c0-0.2,0-0.5,0-0.7l0,0c0.7,0.2,1.4,0.5,2.1,0.7C195.5,73.9,196.3,73,197.2,72.1z"
		/>
	<path class="st18" d="M110.4,50.7c1.7,0,3.3,0.2,4.3,2c1.3,0,2.7,0,4.2,0c0.1,0.9,0.2,1.6,0.3,2.3c4.4,1.5,8.8,0.2,13.1,0.4
		c-4.1,2.1-8.4,1.6-12.6,0.8c-1.1-0.2-2.2-0.6-3.3-0.9c-1.8-1.2-3.7-2.3-5.5-3.5C110.8,51.5,110.6,51.1,110.4,50.7z"/>
	<path class="st10" d="M67.8,71.8c0-0.4,0.1-0.8,0.1-1.2c1.4,0,2.7,0,4.1,0c0,1.9,0.4,3.9-1.2,5.5c-0.9,0-1.9,0-2.9,0
		C67.9,74.7,67.9,73.3,67.8,71.8z"/>
	<path class="st19" d="M5.7,68.6c0.7-2.9,1.5-5.8,2.3-8.9c1.2-0.1,2.5-0.2,3.8-0.3c0.7,0.1,1.4,0.2,2.1,0.3c0,0.3-0.1,0.7-0.2,1.3
		c-1.7,0-3.3,0-5.2,0c-0.2,2.2-0.3,4.1-1.3,6c-0.6,1.3-0.1,3.1-0.1,4.9C6.5,71.9,6,72,5.6,72c0-0.3-0.1-0.5-0.1-0.8
		C5.6,70.4,5.6,69.5,5.7,68.6z"/>
	<path class="st20" d="M72,70.6c-1.4,0-2.7,0-4.1,0c0,0-0.3,0-0.3,0c0.1-0.2,0.1-0.5,0.2-0.7c0.1-0.6,0.2-1.1,0.3-1.7
		c0.5,0,1-0.1,1.5-0.1c0.4,0.4,0.8,1.1,1.3,1.1c1.3,0.2,2.6,0.1,3.9,0.1c0,0.6-0.1,1.3,0,1.9c0.1,0.3,0.4,0.5,0.7,0.8
		c0,0.5,0,0.9,0,1.4c-0.7,0-1.4,0-2,0c0-0.5,0-1.1,0-1.6C73.5,70.7,72.9,70.6,72,70.6z"/>
	<path class="st21" d="M210.5,69.3c-2,0-4.1,0-6.1,0.1c0-0.9,0-1.8,0-2.8c1.8,1.7,2.3,1.7,4.1-0.3C208.8,67.6,210.6,67.6,210.5,69.3
		z"/>
	<path class="st10" d="M177.3,72.6c0-0.2,0-0.4,0-0.6c0.3-0.2,0.6-0.4,1-0.6c0.5,0.4,1,0.7,1.7,1.2c0.1-0.5,0.1-0.9,0.2-1.3
		c0.5,0,0.9,0,1.4,0c0.1,0.2,0.2,0.3,0.2,0.5c0.2-0.2,0.3-0.3,0.5-0.5c1.2,0.4,0.5,1.4,0.7,2.1c-0.5,0-0.9,0-1.4,0
		c-1.4,0-2.8,0-4.1,0C177.3,73.1,177.3,72.9,177.3,72.6z"/>
	<path class="st2" d="M74.8,69.4c-1.3,0-2.6,0.1-3.9-0.1c-0.5-0.1-0.9-0.7-1.3-1.1c0.9-0.1,1.2-0.8,1.1-1.6c0.5,0,0.9,0,1.4,0
		c0.2,0.4,0.3,0.9,0.5,1.3c0.3-0.2,0.6-0.4,0.9-0.6c0.2,0,0.5,0,0.7,0l0,0c0.2,0.2,0.5,0.5,0.7,0.7C74.8,68.4,74.8,68.9,74.8,69.4z"
		/>
	<path class="st21" d="M213.8,70.6c-1,0.9-2.1,1.7-3.2,2.7c0.1-1.4,0.3-2.6,0.4-3.9c1.4-0.1,2.9-0.1,4.3-0.2c0,0,0.1,0.1,0.1,0.1
		C214.9,69.7,214.4,70.1,213.8,70.6z"/>
	<path class="st22" d="M5.5,71.2c0,0.3,0.1,0.5,0.1,0.8c-0.2,2.6,0.4,5.4-1.4,7.6c-0.2,0-0.3,0-0.5,0c0.2-1.2,0.3-2.3,0.5-3.5
		c0.1-0.4,0.2-0.9,0.2-1.3c0.2-1.1,0.5-2.3,0.7-3.4C5.3,71.4,5.4,71.3,5.5,71.2z"/>
	<path class="st22" d="M153.1,48.3c-0.2,0-0.5,0.1-0.7,0.1c0-0.3,0.1-0.7,0.1-1.2c0.8-0.1,1.7-0.3,2.3-0.4c1-1.4-0.6-2.7,0.3-3.9
		c0.5,1.1,1,2.2,1.4,3.3c0.3,1-0.5,1.3-1.3,1.6c-0.4,0-0.8,0-1.2,0C153.7,48,153.4,48.2,153.1,48.3z"/>
	<path class="st14" d="M2.8,84.5c-0.1,0.2-0.1,0.3-0.1,0.5c-0.2,0.7-0.4,1.5-0.7,2.2c-0.2,0.5-0.4,1-0.6,1.5c0-2.2,0-4.4,0-6.8
		c0.6-0.1,1-0.1,1.4-0.2c0,0.5,0.1,0.9,0.1,1.4C2.9,83.6,2.9,84,2.8,84.5z"/>
	<path class="st12" d="M103.9,40.9c0.4,1.2,0.9,2.3,1.3,3.5c-0.8,0-1.6,0-2.2,0C101.7,42.6,103.1,41.8,103.9,40.9z"/>
	<path class="st2" d="M121.9,69.2c0,0.5,0,0.9,0,1.4c-0.3,0-0.7-0.1-1.2-0.1c-0.1-0.9-0.1-1.9-0.2-3c0.8-0.4,1.6-0.8,2.5-1.2
		c0,0.6,0.2,1,0.1,1.1C122.5,68,121.7,68.2,121.9,69.2z"/>
	<path class="st23" d="M196.7,81.7c0-1.2,0-2.5,0-4c0.5-0.1,0.9-0.1,1.3-0.2c0,0.7,0,1.4,0,2.1c-0.1,0.2-0.1,0.4-0.1,0.6
		c-0.2,0.7-0.5,1.4-0.7,2.1C197,82.1,196.8,81.9,196.7,81.7z"/>
	<path class="st23" d="M67.8,71.8c0,1.4,0,2.9,0,4.3c0.1,0.9-0.2,1.5-1.3,1.4c0.2-1.8,0.5-3.7,0.7-5.5C67.5,72,67.7,72,67.8,71.8z"
		/>
	<path class="st14" d="M4.1,76.2c-0.2,1.2-0.3,2.3-0.5,3.5c-0.1,0.4-0.1,0.9-0.2,1.3c-0.2,0.1-0.4,0.2-0.6,0.2c0-1.5,0-3.1,0-4.8
		C3.3,76.3,3.7,76.2,4.1,76.2z"/>
	<path class="st11" d="M133.7,55.4c1.4-0.5,2.7-1,4.1-1.4c0,0.4-0.1,0.8-0.1,1.4C136.2,55.4,134.9,55.4,133.7,55.4z"/>
	<path class="st11" d="M146.8,23.6c-1.4-0.5-2.7-1-4.1-1.4c1.3,0,2.6,0,4,0C146.7,22.8,146.8,23.2,146.8,23.6z"/>
	<path class="st20" d="M180.1,71.3c-0.1,0.4-0.1,0.8-0.2,1.3c-0.6-0.5-1.2-0.8-1.7-1.2c0.9-0.5,1.7-0.9,2.6-1.4c0,0.2,0,0.4,0,0.6
		C180.5,70.9,180.3,71.1,180.1,71.3z"/>
	<path class="st12" d="M70.7,66.5c0.1,0.8-0.2,1.5-1.1,1.6c-0.5,0-1,0.1-1.5,0.1c-0.4-1.2-0.1-1.9,1.3-1.8
		C69.8,66.5,70.2,66.5,70.7,66.5z"/>
	<path class="st2" d="M184.2,67.2c0.1,1.1-0.4,1.5-1.4,1.4c-0.6,0-1.3-0.1-1.9-0.1c0-0.2,0-0.3-0.1-0.5
		C182,67.7,183.1,67.4,184.2,67.2z"/>
	<path class="st14" d="M5.1,71.4c-0.2,1.1-0.5,2.3-0.7,3.4c-0.3-0.2-0.6-0.3-0.8-0.4c0.3-0.9,0.4-1.8,0.7-2.6
		C4.4,71.6,4.8,71.5,5.1,71.4z"/>
	<path class="st21" d="M198,79.6c0-0.7,0-1.4,0-2.1c0.1-0.9,0.2-1.8,0.3-2.7C198.9,76.5,199.4,78.1,198,79.6z"/>
	<path class="st12" d="M102.6,37.4c0.2,0.5,0.4,1,0.6,1.4c-0.6-0.1-1.3-0.2-1.9-0.2c0-0.2-0.1-0.4-0.1-0.5
		C101.6,37.8,102.1,37.6,102.6,37.4z"/>
	<path class="st18" d="M182.8,69.1c0.5,0,0.9,0.1,1.4,0.1c0.1,1-0.4,1.5-1.4,1.4c-0.5-0.2-1-0.5-1.5-0.7
		C181.9,69.6,182.3,69.4,182.8,69.1z"/>
	<path class="st2" d="M148.2,55.1c-0.6,0-1.3,0.1-2.1,0.2C146.5,53.6,147.3,54,148.2,55.1z"/>
	<path class="st12" d="M139.9,22.2c-0.9,0.3-1.8,0.5-2.7,0.8C138.3,21.5,138.9,21.3,139.9,22.2z"/>
	<path class="st24" d="M73.4,67.2c-0.3,0.2-0.6,0.4-0.9,0.6c-0.2-0.4-0.3-0.9-0.5-1.3C72.5,66.7,73,66.9,73.4,67.2z"/>
	<path class="st2" d="M97.7,67c-1,0.5-1.2,0.8-1.5,0.8c-0.2-0.1-0.4-0.4-0.5-0.7c0.2-0.2,0.5-0.5,0.7-0.5C96.7,66.5,97,66.7,97.7,67
		z"/>
	<path class="st21" d="M204.4,69.3c0,0.2,0.1,0.4,0.2,0.6c-0.1,0.6-0.2,1.3-0.3,1.9c-0.2,0.1-0.4,0.2-0.6,0.2l-0.1-0.1
		C204,71.1,202.8,69.8,204.4,69.3z"/>
	<path class="st12" d="M240.3,56.3c0.9-0.5,1.2-0.8,1.5-0.8c0.2,0.1,0.4,0.4,0.5,0.7c-0.2,0.2-0.5,0.5-0.7,0.5
		C241.3,56.7,241,56.5,240.3,56.3z"/>
	<path class="st12" d="M142.7,22.1c-0.5,0-0.9,0-1.4,0c0.2-0.4,0.5-0.8,0.7-1.2C142.2,21.3,142.5,21.7,142.7,22.1z"/>
	<path class="st20" d="M2.9,81.2c0.2-0.1,0.4-0.2,0.6-0.2c0,0.7,0.1,1.4,0.1,2.1c-0.2,0-0.4,0-0.6,0c0-0.5-0.1-0.9-0.1-1.4
		C2.9,81.5,2.9,81.4,2.9,81.2z"/>
	<path class="st23" d="M181.4,69.9c0.5,0.2,1,0.5,1.5,0.7c-0.2,0-0.5,0-0.7,0c-0.2,0-0.5,0-0.7,0c-0.2,0-0.5,0-0.7,0
		c0-0.2,0-0.4,0-0.6C181,69.9,181.2,69.8,181.4,69.9z"/>
	<path class="st14" d="M60.9,71.6c-0.2-0.3-0.5-0.6-0.7-0.8C60.4,71,60.6,71.3,60.9,71.6z"/>
	<path class="st21" d="M67.8,69.9c-0.1,0.2-0.1,0.5-0.2,0.7C67.1,70.3,67.2,70.1,67.8,69.9z"/>
	<path class="st14" d="M60.2,70.7c-0.2-0.2-0.5-0.4-0.7-0.7C59.7,70.3,59.9,70.5,60.2,70.7z"/>
	<path class="st24" d="M74.1,67.2c0.1-0.2,0.2-0.3,0.2-0.5c0.1,0.1,0.2,0.2,0.3,0.3C74.5,67,74.3,67.1,74.1,67.2L74.1,67.2z"/>
	<path class="st13" d="M144,51.9c0.3-0.2,0.5-0.3,0.8-0.5C144.5,51.6,144.2,51.7,144,51.9z"/>
	<path class="st12" d="M103.2,38.9c0.2,0.1,0.3,0.2,0.5,0.3c-0.1,0.1-0.1,0.2-0.2,0.2C103.3,39.3,103.2,39.1,103.2,38.9z"/>
	<path class="st18" d="M53.4,79.7c0.2,0.5,0.5,1,0.7,1.4c-0.5,0.7-0.9,1.3-1.4,2c-1.5-0.1-3,0-4.1,1.2c-1.6,0.4-3.2,0.8-4.8,1.1
		c-0.7-0.5-1.3-0.9-2.2-1.6c0.2-0.6,0.4-1.4,0.6-2.2c0,0,0,0,0,0c1.9,0,3.8,0,5.7,0.1c1.3,0,2.6-0.1,3.3-1.5
		C52,80,52.7,79.8,53.4,79.7z"/>
	<path class="st9" d="M42.8,71c0,0.3,0.1,0.7,0.1,1c-0.4,0.9-0.7,1.7-1.1,2.8c1.3,0,2.6,0,3.9,0c0.3,0,0.6,0,0.8,0.1
		c-0.4,0.8-0.8,1.6-1.3,2.5c-2.1,0-4.2,0-6.4,0C39.3,74.6,40,72.1,42.8,71z"/>
	<path class="st23" d="M51.2,80.2c-0.7,1.4-2,1.5-3.3,1.5c-1.9,0-3.8,0-5.7-0.1c0.7-0.2,1.4-0.5,2.1-0.7c0.5-0.1,1-0.2,1.5-0.4
		C47.6,80.5,49.4,80.4,51.2,80.2z"/>
	<path class="st22" d="M28.5,76.3c-0.2-0.4-0.4-0.8-0.7-1.5c1.8,0.5,2.7-0.9,3.8-1.7c0.7-0.5,0.9-0.2,1.1,0.4
		C31.8,75.3,30.3,76.1,28.5,76.3z"/>
	<path class="st5" d="M26.4,94.2c0.8-2.1,1.6-2.7,3.6-2.6c-0.2,1.2-1,1.8-2.2,2c-0.2,0.2-0.5,0.3-0.7,0.5
		C26.8,94.1,26.6,94.1,26.4,94.2z"/>
	<path class="st5" d="M30.6,90.8c-0.1-1-0.6-2.3,1.3-2.2l0.3,0l0.3,0c0.1,0.2,0.1,0.4,0.1,0.6c-0.4,0.5-0.8,1-1.2,1.6
		C31.1,90.8,30.9,90.9,30.6,90.8z"/>
	<path class="st11" d="M35.4,87.3c0,1.4,0,2.8,0,4.1C34.4,90,34.4,88.7,35.4,87.3z"/>
	<path class="st23" d="M32.4,88.6c0,0-0.3,0-0.3,0l-0.3,0c0-0.9,0-1.7,0-2.6c0.1,0,0.3,0,0.4,0c0.1,0.5,0.2,0.9,0.3,1.4
		C32.6,87.8,32.5,88.2,32.4,88.6z"/>
	<path class="st23" d="M46.6,74.8c-0.3,0-0.6,0-0.8-0.1c0-0.2,0-0.5,0-0.7c0.7,0.1,1.3-1.7,2.1-0.1C47.4,74.3,47,74.6,46.6,74.8z"/>
	<path class="st11" d="M31.3,90.7c0.4-0.5,0.8-1,1.2-1.6C32.7,90.2,32.4,90.8,31.3,90.7z"/>
	<path class="st11" d="M33.4,85.2c0-0.7,0-1.4,0-2.1C34.2,83.8,34.3,84.5,33.4,85.2z"/>
	<path class="st20" d="M45.8,80.6c-0.5,0.1-1,0.2-1.5,0.4C44.8,80.9,45.3,80.7,45.8,80.6z"/>
	<path class="st5" d="M29.9,91.5c0.2-0.2,0.5-0.5,0.7-0.7C30.4,91,30.2,91.3,29.9,91.5z"/>
	<path class="st3" d="M27.1,94c0.2-0.2,0.5-0.3,0.7-0.5c0,0.2,0,0.4-0.1,0.6l-0.3,0L27.1,94z"/>
	<path class="st10" d="M174.5,90c0.2,0.5,0.4,1,0.4,1.5c0,0.4-0.3,0.8-0.4,1.2c-1,0.1-1.5-0.4-1.4-1.4C173,90.4,173.5,89.9,174.5,90
		L174.5,90z"/>
	<path class="st19" d="M173.1,91.4c-0.1,1,0.3,1.5,1.4,1.4c0.2,0.5,0.4,0.9,0.7,1.4c0.2,0.4,0.5,0.9,0.7,1.3
		c-0.7-0.4-1.4-0.8-2.1-1.3c-0.2-0.2-0.4-0.5-0.7-0.7c-0.3-0.4-0.5-0.8-0.8-1.3C172.6,92,172.9,91.7,173.1,91.4z"/>
	<path class="st18" d="M192.5,74.8c0,0.5,0,0.9,0,1.4c-0.3,0-0.5,0-0.8,0c-0.5-0.6-0.9-1.3-1.4-1.9c0.8-1.2,1.2-1.2,2.2-0.2l0,0
		c-0.2,0.1-0.3,0.2-0.5,0.2C192.2,74.5,192.4,74.6,192.5,74.8z"/>
	<path class="st18" d="M192.5,76.2c0.9,0.2,2-0.5,2.8,0.7c-0.8,1.2-1.9,0.5-2.8,0.7C192.5,77.1,192.5,76.6,192.5,76.2z"/>
	<path class="st6" d="M191.8,83.1c0.2,0.2,0.5,0.5,0.7,0.7c-0.5,1.2-1.3,0.6-2.7,0.2C190.9,83.5,191.4,83.3,191.8,83.1z"/>
	<path class="st10" d="M175.9,88.6c0.4,0.1,0.8,0.1,1.3,0.2c0.1,1.2-0.2,1.6-1.3,1.2C175.9,89.5,175.9,89.1,175.9,88.6z"/>
	<path class="st19" d="M175.9,88.6c0,0.5,0,0.9,0,1.4c-0.5,0-0.9,0-1.4,0l0,0C174.4,89,174.9,88.5,175.9,88.6z"/>
	<path class="st23" d="M184.9,80.4c0.7,0,1.4-0.1,2.1-0.1C186.4,81.5,185.7,81.4,184.9,80.4z"/>
	<path class="st6" d="M192.5,83.1l-0.3,0l-0.3,0c0.1-0.2,0.2-0.3,0.2-0.5C192.2,82.8,192.4,82.9,192.5,83.1z"/>
	<path class="st25" d="M119.2,84.8c-0.2,0.9,0.6,2.1-0.9,2.5c-2.4,0-4.7,0-7,0c-0.6,1-1,1.8-1.5,2.5c-0.1,0.1-0.2,0.1-0.3,0.1
		c-2,1.1-4.1,0.9-6.2,0.7c-0.9-0.7-1.8-1.4-2.6-2.1c-0.1-1.4-0.1-2.8-0.2-4.1c0,0,0,0,0,0c0.2-0.1,0.5-0.1,0.7-0.2c0.5,0,1,0,1.4,0
		c4.3,0.1,8.7,0.1,13,0.2C116.7,84.5,117.9,84.7,119.2,84.8z"/>
	<path class="st13" d="M101.1,79.6c0.9-1.4,1.8-2.8,2.8-4.2c0.3-0.2,0.5-0.4,0.8-0.6c2.2-0.8,4.5-1,6.7,0.1c1.2,1.4,1.8,3,1.6,4.8
		C109,79.7,105.1,79.6,101.1,79.6z"/>
	<path class="st6" d="M112.9,79.7c0.2-1.8-0.4-3.4-1.6-4.8c0.9-0.1,0.9-0.8,0.9-1.5c0-1.2,0.4-2.6-1.2-3.2c-0.1-0.1-0.1-0.6-0.1-1
		c2.3,0,4.2,1,5.7,2.7c-0.9,0.1-1.8,0.1-2.8,0.2c0,0.8,0,1.5,0,2.2c0.9,0.8,1.8,1.7,2.7,2.6c-0.6,0.5-1,0.8-1.5,1.3
		c0.5,0.6,1,1.1,1.9,2.1c-1.7,0-2.9,0-4,0C112.9,80.1,112.9,79.9,112.9,79.7z"/>
	<path class="st18" d="M109.8,89.9c0.5-0.8,0.9-1.5,1.5-2.5c2.3,0,4.6,0,7,0c-0.1,1.5-0.6,2.7-1.8,3.6c0-0.6-0.1-1.1-0.1-1.8
		c-0.7-0.1-1.4-0.2-2.3-0.4c-0.3,0.3-0.6,0.8-1,1.3C112,90,110.9,89.9,109.8,89.9z"/>
	<path class="st9" d="M99.4,94.9c-3.4-0.7-4.9-3.2-5.6-6.3c0.1,0,0.3,0,0.4,0c0.3,0,0.7,0.1,1.2,0.1c-0.5,2.6,2,3.4,3.1,5.1
		c0.6,0.9,2.1-0.4,2.5,1C100.5,94.9,100,94.9,99.4,94.9z"/>
	<path class="st19" d="M110.9,95.6c-0.7,0-1.3,0-2,0c-0.7-0.1-1.5-0.2-2.2-0.4c0-0.2-0.1-0.4-0.1-0.5c0.5-0.2,1-0.4,1.6-0.6
		c1.3-0.4,2.9,0.8,4-0.7c0-0.2,0-0.5,0-0.7c0.7,0,1.5,0.1,2.2,0.1C114,94.9,112,94.6,110.9,95.6z"/>
	<path class="st6" d="M102.5,84.3c-0.5,0-1,0-1.4,0c-0.2-0.2-0.5-0.3-0.7-0.5c-0.2-0.3-0.4-0.6-0.6-0.9c0.4-0.2,0.9-0.3,1.3-0.5
		c0.2-0.2,0.3-0.3,0.5-0.5c-0.2-0.1-0.3-0.2-0.5-0.2c0-0.5,0-0.9,0-1.4c0.9,0,1.8,0,2.8,0c-0.5,0.7-1,1.4-1.5,2.1
		c0.8,0.5,1.5,0.9,2.2,1.3C103.9,83.9,103.2,84.1,102.5,84.3z"/>
	<path class="st9" d="M103,69.8c2.3-1,4.7-1.8,7.2-0.6c-1.9,1.2-4,1.7-6.3,1.4C103.6,70.4,103.3,70.1,103,69.8z"/>
	<path class="st19" d="M112.2,73.4c0,0.7,0.1,1.3-0.9,1.5c-2.2-1-4.5-0.8-6.7-0.1c-0.3,0-0.5,0-0.8,0c0-0.2,0-0.5,0-0.7
		c0-0.2,0-0.5,0-0.7l0,0c0.5,0,0.9,0,1.4,0C107.6,73.4,109.9,73.4,112.2,73.4z"/>
	<path class="st26" d="M103.9,80.4c-0.9,0-1.8,0-2.8,0c0-0.2,0-0.5,0-0.7c3.9,0,7.9,0,11.8,0.1c0,0.2,0,0.4,0,0.6
		c-0.2,0-0.5,0-0.7,0c-2.5,0-5.1,0-7.6,0C104.4,80.3,104.1,80.4,103.9,80.4z"/>
	<path class="st22" d="M94.2,88.6c-0.1,0-0.3,0-0.4,0c-0.4-2.8-0.9-5.6,0.4-8.4C94.2,83,94.2,85.8,94.2,88.6z"/>
	<path class="st18" d="M103.2,90.7c2.1,0.1,4.3,0.4,6.2-0.7c0,0.3-0.1,0.7-0.1,1.2C107.3,91,105.2,92.7,103.2,90.7z"/>
	<path class="st19" d="M94.1,80.3c-0.1-1.4,0.5-2.6,1.4-3.6c0,1.1,0,2.2,0,3.5C95,80.2,94.6,80.2,94.1,80.3z"/>
	<path class="st26" d="M100.4,84.5c0.1,1.4,0.1,2.8,0.2,4.1c-0.3-0.3-0.8-0.6-0.8-0.8C100,86.7,99.1,85.4,100.4,84.5z"/>
	<path class="st10" d="M112.2,92.8c0,0.2,0,0.5,0,0.7c-0.3,0-0.6,0-1.2-0.1c0.3-0.7,0.5-1.3,1.1-2.5C112.2,92,112.2,92.4,112.2,92.8
		z"/>
	<path class="st23" d="M99.4,94.9c0.6,0,1.2-0.1,1.7-0.1c0.2,0.2,0.4,0.5,0.7,0.7c-0.3,0-0.5,0.1-0.8,0.1
		C100.5,95.4,99.9,95.2,99.4,94.9z"/>
	<path class="st23" d="M103,69.8c0.3,0.3,0.6,0.5,0.8,0.8c-0.8,0-1.6,0-2.3-0.1C102.1,70.3,102.5,70.1,103,69.8z"/>
	<path class="st19" d="M116.2,91.4c-0.4,0.3-0.8,0.6-1.1,0.8C114.9,91.2,115.7,91.5,116.2,91.4z"/>
	<path class="st26" d="M105.3,73.4c-0.5,0-0.9,0-1.4,0C104.4,72.4,104.8,72.4,105.3,73.4z"/>
	<path class="st26" d="M100.4,83.8c0.2,0.2,0.5,0.3,0.7,0.5c-0.2,0.1-0.5,0.1-0.7,0.2C100.4,84.2,100.4,84,100.4,83.8z"/>
	<path class="st10" d="M101.1,81.7c0.2,0.1,0.3,0.2,0.5,0.2c-0.2,0.2-0.3,0.3-0.5,0.5C101.1,82.2,101.1,81.9,101.1,81.7z"/>
	<path class="st26" d="M103.9,74.8c0.3,0,0.5,0,0.8,0c-0.3,0.2-0.5,0.4-0.8,0.6C103.9,75.2,103.9,75,103.9,74.8z"/>
	<path class="st19" d="M115.1,92.2c-0.2,0.2-0.5,0.4-0.7,0.7C114.6,92.7,114.9,92.4,115.1,92.2z"/>
	<path class="st26" d="M103.9,73.4c0,0.2,0,0.5,0,0.7c-0.2-0.2-0.3-0.3-0.5-0.5C103.6,73.6,103.7,73.5,103.9,73.4z"/>
	<path class="st8" d="M236.2,69.2c1.2,1.1,2.3,2.2,3.5,3.4c-0.2,0.3-0.3,0.5-0.5,0.8c-1.2,0.1-1.2-2.3-3-0.9
		c0.2,0.8,0.4,1.7,0.6,2.6c-2.5-1.4-5-1-7.4,0.3c-1.8,2-3,4.4-3.6,7.1c-0.9,1.9-0.9,3.1,0,4.9c0,0.4,0.1,0.8,0.1,1.1
		c0,0.5-0.1,1.1-0.1,1.6c-0.5,0-0.9,0-1.4,0l0,0c0-1.8,0-3.6,0-5.4c-0.1,0-0.3,0-0.4,0c-0.4,1.3-0.9,2.6-1.3,4c-0.9,0-1.6,0-2.4,0
		c-0.5,0-0.9,0-1.4,0c-0.1-0.2-0.1-0.4,0-0.6c0-1.2,0-2.5,0-3.7c0-1.1,0-2.2,0-3.3c0.1-0.4,0.1-0.8,0.2-1.2c0.2-0.7,0.5-1.4,0.7-2.2
		c0.2-0.3,0.3-0.5,0.5-0.8c0.3-0.6,0.6-1.3,0.9-1.9c0.6-0.6,1.1-1.2,1.7-1.8c3.4-3.7,7.6-4.8,12.4-4
		C235.5,69.2,235.8,69.2,236.2,69.2z M224.6,80.4c1.3-1.2,1.3-1.2,0.3-2.9c-0.2,0.3-0.5,0.5-0.5,0.8C224.4,79,224.5,79.6,224.6,80.4
		z M233.7,72.2c2.2-0.6,1.7-1.3,1.4-2.7C234.6,70.6,234.3,71.1,233.7,72.2z"/>
	<path class="st19" d="M199.5,93.5c1.5,1.1,3.3,0.5,4.9,0.7c0.6-0.7,0.9-1.8,2.1-1.3c-0.1,0.9-0.1,1.8-0.2,2.6c-2.2,0-4.5,0-6.8,0
		c-0.1-0.5-0.2-0.9-0.3-1.3C199.4,93.9,199.4,93.7,199.5,93.5z"/>
	<path class="st11" d="M218.7,81c0,1.1,0,2.2,0,3.3c-1.1,1-0.3,2.3-0.5,3.5l-0.2,0.2c-0.2-0.2-0.6-0.5-0.6-0.7
		C217.4,85.1,217.7,83,218.7,81z"/>
	<path class="st15" d="M221.1,74.9c-0.3,0.6-0.6,1.3-0.9,1.9c-0.9-1.3-2.3-0.4-3.4-0.7c0-0.2,0-0.4,0-0.6c0.5-0.1,0.9-0.1,1.4-0.2
		c0.8,0.1,1.7,0.5,2.2-0.6C220.6,74.8,220.8,74.9,221.1,74.9z"/>
	<path class="st12" d="M213.2,76.7c0-0.2,0-0.3,0.1-0.5c0.4-0.1,0.9-0.1,1.3-0.2c0,0,0.1,0.2,0.1,0.2c-0.2,0.4-0.5,0.8-0.7,1.3
		C213.7,77.2,213.5,76.9,213.2,76.7z"/>
	<path class="st11" d="M219.7,77.6c-0.2,0.7-0.5,1.4-0.7,2.2C219.1,79,218.2,77.9,219.7,77.6z"/>
	<path class="st11" d="M216.8,75.5c0,0.2,0,0.4,0,0.6c-0.7,0-1.4,0.1-2.1,0.1c0,0-0.1-0.2-0.1-0.2c0.3-0.2,0.5-0.4,0.8-0.6
		C215.8,75.4,216.3,75.5,216.8,75.5z"/>
	<path class="st11" d="M218.8,88.1c-0.1,0.2-0.1,0.4,0,0.6c-0.1,0.2-0.1,0.5-0.2,0.7c-0.2-0.4-0.3-0.9-0.5-1.3l0.2-0.2
		C218.4,87.9,218.6,88,218.8,88.1z"/>
	<path class="st12" d="M216.7,82.8c-0.1,0.1-0.2,0.2-0.2,0.2c-0.1,0-0.2-0.2-0.2-0.2c0-0.1,0.1-0.1,0.2-0.2
		C216.5,82.6,216.6,82.7,216.7,82.8z"/>
	<path class="st1" d="M242.4,63c0.2-0.7,0.4-1.5,0.6-2.2c0.1,0.5,0.2,0.9,0.3,1.4c0.2,0,0.3,0,0.5,0c0-0.6,0-1.2,0-1.9
		c1.8-0.2,1.3,1.1,1.4,2.1c0,1.4,0,2.8,0,4.2l0,0c-0.5,0-0.9,0-1.4,0c-0.5,0-0.9,0-1.4,0l0,0C242.4,65.3,242.4,64.1,242.4,63z"/>
	<path class="st5" d="M249.3,61.6c0,0.7,0,1.4,0,2.1c-0.5,1.7-0.9,3.3-1.4,5c0-2.2,0-4.5,0-6.9C248.5,61.7,248.9,61.7,249.3,61.6z"
		/>
	<path class="st5" d="M245.2,66.5c0-1.4,0-2.8,0-4.2c0.3,0,0.7,0.1,1.2,0.1c0,1.2,0,2.4,0,3.9C246,66.4,245.6,66.4,245.2,66.5z"/>
	<path class="st8" d="M240.3,72.6c0.2-0.7,0.4-1.3,0.6-2c1,0,0.8-0.8,0.8-1.4c1.6,0.7,0,2.1,0.8,2.8c-0.6,0.3-1.2,0.4-1.5,0.8
		C240.5,73.5,240.4,73,240.3,72.6z"/>
	<path class="st19" d="M238.9,95.5c-1.1-0.1-2.3,0.6-3.3-0.5c0.2-0.5,0.5-1,0.7-1.5c0.2,0,0.4,0,0.6,0
		C237.5,94.1,238.2,94.8,238.9,95.5z"/>
	<path class="st22" d="M247.3,72.1c-0.2,1.1-0.5,2.3-0.7,3.4c0-1.6,0-3.1,0-4.7c0.1,0,0.2,0,0.3-0.1C247,71.3,247.2,71.7,247.3,72.1
		z"/>
	<path class="st8" d="M243.8,66.5c0.5,0,0.9,0,1.4,0c0,0.9,0,1.7,0,2.6c-0.2,0-0.3,0-0.5,0.1C244.4,68.3,244.1,67.4,243.8,66.5z"/>
	<path class="st23" d="M244.6,84.7c-0.1,0.6-0.1,1.3-0.2,1.9c-1.1-1-0.4-2.1-0.2-3.3C244.3,83.7,244.4,84.2,244.6,84.7z"/>
	<path class="st23" d="M241.7,69.2c0,0.6,0.2,1.4-0.8,1.4c0.2-0.9,0.5-1.9,0.7-2.8C241.6,68.3,241.7,68.8,241.7,69.2z"/>
	<path class="st8" d="M242.9,78.3c-0.2-0.7-0.4-1-0.4-1.3c0-0.3,0.3-0.5,0.5-0.7c0.2,0.2,0.6,0.3,0.7,0.5
		C243.7,77,243.4,77.3,242.9,78.3z"/>
	<path class="st23" d="M243.1,91.5c-0.1,0.6-0.1,1.3-0.2,1.9c-0.2-0.8-0.5-1.6-0.7-2.4c0.1-0.1,0.3-0.1,0.4-0.2
		C242.8,91.1,243,91.3,243.1,91.5z"/>
	<path class="st23" d="M243.8,60.2c0,0.6,0,1.2,0,1.9c-0.2,0-0.3,0-0.5,0c-0.1-0.5-0.2-0.9-0.3-1.4c0-0.2,0-0.4,0.1-0.6
		C243.3,60.2,243.5,60.2,243.8,60.2z"/>
	<path class="st8" d="M241.6,67.8c0-0.4,0.1-0.9,0.1-1.3c0.2,0,0.5,0,0.7,0l0,0C242.3,67,242.6,67.8,241.6,67.8z"/>
	<path class="st8" d="M126.8,78.9c1.2,0.2,2.3,0.5,3.5,0.7c0.4,0.9,0.8,0.9,1.4,0.1c0.2-0.3,0.6-0.6,0.8-0.9
		c1.1,0.4,2.3,0.8,3.4,1.2c-0.2,1.1-0.1,1.8,1.3,1.7c0.2,0.5,0.5,0.9,0.7,1.4c0.5,1.4,0.4,3,1.4,4.1c0,0.2,0,0.5,0,0.7
		c-0.2,0.2-0.5,0.5-0.7,0.7c-0.5,0-0.9,0-1.4,0c0-0.8,0-1.7,0-2.8c-0.9,0-1.5,0-2.1,0c-2.1-0.7-4.1-1.4-6.2-2
		c-0.3-1.3-1.4-0.6-2.1-0.7c-0.3-0.1-0.5-0.3-0.8-0.4c0.4-0.5,0.8-1,1.3-1.5c-1.5-0.2-1.1-1.3-1.2-2.2
		C126.3,78.9,126.5,78.9,126.8,78.9z"/>
	<path class="st19" d="M137.1,81.7c-1.3,0.1-1.5-0.6-1.3-1.7c2.1,0.2,3.9,1,5.5,2.5c0,0.2,0,0.4,0,0.5l0,0
		C139.9,82.6,138.5,82.2,137.1,81.7z"/>
	<path class="st23" d="M146.3,81c0.8,2.4,0.7,5.5-0.1,7.6C146.3,86.1,146.3,83.6,146.3,81z"/>
	<path class="st23" d="M138.4,76.1c1.7,0,3.3,0,5.1,0c0.3-0.4,0.8-0.9,1.2-1.3c0,0.6,0.1,1.3,0.2,2.2c-2,0-3.8,0-5.5,0
		C139,76.9,138.7,76.4,138.4,76.1z"/>
	<path class="st18" d="M150.2,73.3c-0.3,1.1-0.6,2.3-0.9,3.5c-0.6,0-1-0.1-1.5-0.1C148.2,75.3,148.9,74.1,150.2,73.3z"/>
	<path class="st22" d="M137.1,95.6c-0.5,0-0.9,0-1.4,0c0-0.7,0-1.4,1-1.4c0.9,0,1.8,0,2.7,0.1C138.6,94.7,137.9,95.1,137.1,95.6z"/>
	<path class="st26" d="M132.4,78.9c-0.3,0.3-0.6,0.6-0.8,0.9c-0.5,0.8-1,0.8-1.4-0.1c0-0.7,0-1.4,0-2
		C130.9,78,131.7,78.4,132.4,78.9z"/>
	<path class="st23" d="M129.6,76.8c-0.3-0.4-0.7-0.8-0.7-1.1c0-0.3,0.6-0.6,1-0.9C129.8,75.5,129.7,76.2,129.6,76.8z"/>
	<path class="st19" d="M142.1,84.3c-0.3,0.1-0.6,0.1-0.8,0.2c0-0.5,0-0.9,0-1.4c0,0,0,0,0,0c0.2,0,0.3,0,0.5,0
		C141.9,83.5,142,83.9,142.1,84.3z"/>
	<path class="st19" d="M142.9,85.1c-0.3-0.2-0.6-0.5-0.8-0.7C142.4,84.6,142.7,84.8,142.9,85.1z"/>
	<path class="st10" d="M141.8,83.1c-0.2,0-0.3,0-0.5,0c0-0.2,0-0.4,0-0.5C141.5,82.7,141.6,82.9,141.8,83.1z"/>
	<path class="st16" d="M66.6,77.5c1.1,0.1,1.4-0.4,1.3-1.4c1,0,2,0,2.9,0c1.6-1.7,1.2-3.7,1.2-5.5c0.8,0,1.5,0.1,1.4,1.2
		c0,0.5,0,1.1,0,1.6c0.1,1.3-0.5,2.9,1.3,3.5c-0.2,0.2-0.4,0.5-0.6,0.7c-0.7-0.1-1.3-0.3-2.2-0.4c0.3,0.7,0.5,1.2,0.8,1.8
		c-0.2,0.3-0.7,0.6-0.7,0.9c-0.1,1.3,0,2.7,0,4c0.1,0.2,0.1,0.4-0.1,0.6c-0.5,0-0.9,0-1.4,0c-0.3-0.9,0.6-2.3-1.2-2.9
		c0,1.5,0,2.8,0,4.1c0.5,0,0.9,0.1,1.2,0.1c-0.2,1.4-0.5,2.8-0.6,4.2c0,0.4,0.4,0.9,0.6,1.3c-0.2,0.5-0.3,1.1-0.5,1.6
		c-0.3-0.3-0.5-0.6-0.8-0.9c0-0.6,0-1.1-0.2-1.7c0-0.2-0.5-0.2-1-0.5c0,1,0,1.9,0,2.7c0.5,0,0.8,0.1,1.2,0.1
		c-0.2,0.5-0.5,0.9-0.7,1.4c-1.4,0.2-3.3-0.8-4.1,1.3c-0.5,0-0.9,0.1-1.4,0.1l0,0c0-0.5,0.1-0.9,0.1-1.4c0.7-0.7,1.3-1.4,1.9-1.9
		c0.1-1.9-0.2-3.9,0.4-5.5c1-2.6,1.2-5.2,1-7.9C66.5,78.4,66.6,78,66.6,77.5z"/>
	<path class="st5" d="M75.5,73.4c0-0.5,0-0.9,0-1.4c3.6-3.4,8.4-4.3,12.6-2.2c0.3,0.1,0.4,0.5,0.6,0.7c-0.8,0.1-1.6,0.1-2.4,0.2
		c-0.4,0.5-0.8,0.9-1.2,1.4c-0.6-0.3-1-0.6-1.4-0.8c-0.9,0.7-1.7,1.3-2.7,2c1.2,0.7,2.2,1.3,3.4,1.9c0,2.9,0,5.9,0,8.8
		c-0.7,0.6-1.2,1.3-1.3,2.1c-0.1,1.5,0,2.9-1.4,3.9c0-0.3-0.1-0.7-0.1-1c0.6-3.1,1.1-6.3,1.7-9.4c1-0.8,0.6-1.8,0.3-2.7
		c-0.6-1.6-1.8-2.2-3.4-2.2c-1,0-2,0.1-3,0.2c-0.3,0-0.6-0.1-0.9-0.1C76,74.3,75.7,73.8,75.5,73.4z"/>
	<path class="st10" d="M75.5,73.4c0.2,0.5,0.5,0.9,0.7,1.4l0,0c-0.4,0.1-0.8,0.1-1.3,0.2c0,0.1,0,0.2,0,0.4c0.4,0,0.8,0.1,1.2,0.1
		l0.1,0.1c-0.5,0.5-0.9,0.9-1.4,1.4c-1.8-0.6-1.3-2.2-1.3-3.5C74.1,73.4,74.8,73.4,75.5,73.4z"/>
	<path class="st22" d="M70.6,91.4C70.4,91,70,90.5,70,90.1c0.1-1.4,0.4-2.8,0.6-4.2c0-0.5,0-0.9,0-1.4c0.5,0,0.9,0,1.4,0
		C71.6,86.8,71.1,89.1,70.6,91.4z"/>
	<path class="st9" d="M81.6,89c0,0.3,0.1,0.7,0.1,1c0,1.8,0,3.6,0,5.5c-0.7,0.2-1.3,0.1-1.7-0.7C80.6,92.9,81.1,91,81.6,89z"/>
	<path class="st19" d="M64.4,95.5c0.9-2.1,2.7-1,4.1-1.3c0.4,0.2,0.9,0.5,1.3,0.7c0.1,0.2,0.1,0.4,0.1,0.6
		C68.1,95.5,66.3,95.5,64.4,95.5z"/>
	<path class="st22" d="M72.1,83.9c0-1.3-0.1-2.7,0-4c0-0.3,0.4-0.6,0.7-0.9c0.3,0,0.5,0,0.8,0C73,80.6,72.6,82.2,72.1,83.9z"/>
	<path class="st5" d="M73.5,79c-0.3,0-0.5,0-0.8,0c-0.2-0.5-0.5-1.1-0.8-1.8c0.9,0.2,1.6,0.3,2.2,0.4C74,78,73.7,78.5,73.5,79z"/>
	<path class="st23" d="M69.9,94.9c-0.4-0.2-0.9-0.5-1.3-0.7c0.2-0.5,0.5-0.9,0.7-1.4c0-0.2,0-0.5,0-0.7c0.3,0.3,0.5,0.6,0.8,0.9
		C70,93.6,70,94.2,69.9,94.9z"/>
	<path class="st20" d="M83.6,76.9c0.3,0.9,0.7,1.9-0.3,2.7C83.4,78.7,83.5,77.8,83.6,76.9z"/>
	<path class="st10" d="M76.2,74.8c0.3,0,0.6,0.1,0.9,0.1c-0.3,0.2-0.6,0.4-0.9,0.6c0,0-0.1-0.1-0.1-0.1C76.2,75.2,76.2,75,76.2,74.8
		L76.2,74.8z"/>
	<path class="st19" d="M153.4,80.4c-0.1,1.9-0.3,3.9-0.4,5.8c-0.2,2.5,1.9,4.9,4.7,4.6c0.8-0.1,1.6-0.1,2.7-0.2c0.9-0.9,2-1.9,3-3
		c0,0.6,0.1,1.1,0.1,1.5c-0.8,0.7-1.4,1.3-2.5,2.3c-1,0-2.7,0-4.4,0c-0.9,0-1.8,0-2.8,0c0.5-1.3-1-1.2-1.4-2c0-2.6,0-5.2,0-7.7
		C152.4,80.9,152.4,80.3,153.4,80.4z"/>
	<path class="st20" d="M163.4,87.2c0.1-0.3,0.1-0.7,0.3-1.3c2.4,0,4.8,0,7.2,0c0,1.5-0.6,2.6-1.7,3.6c-0.4-0.8,0.5-2.6-1.6-2.3
		C166.2,87.2,164.8,87.2,163.4,87.2z"/>
	<path class="st10" d="M153.8,91.4c0.9,0,1.8,0,2.8,0c0.3,1.6-1.9,1.4-2.1,2.9C154.3,93.2,154.5,92.2,153.8,91.4z"/>
	<path class="st10" d="M167.6,87.2c2-0.2,1.1,1.5,1.6,2.3c-0.1,0.2-0.1,0.3-0.2,0.4c-0.7,0-1.4-0.1-1.3-1.1
		C167.6,88.4,167.6,87.8,167.6,87.2z"/>
	<path class="st19" d="M152.9,91.1c-0.1,0.1-0.2,0.1-0.2,0.2c-0.1-0.1-0.2-0.2-0.2-0.2c0-0.1,0.1-0.2,0.2-0.2
		C152.8,90.9,152.9,91,152.9,91.1z"/>
	<path class="st1" d="M81.7,95.5c0-1.8,0-3.6,0-5.5c1.4-1,1.3-2.4,1.4-3.9c0.1-0.8,0.6-1.5,1.3-2.1c0-2.9,0-5.9,0-8.8
		c-1.1-0.6-2.2-1.3-3.4-1.9c1-0.7,1.8-1.3,2.7-2c0.4,0.3,0.8,0.5,1.4,0.8c0.4-0.4,0.8-0.9,1.2-1.4c0.8-0.1,1.6-0.1,2.4-0.2l0,0
		c0,0.6-0.4,1.4,0.8,1.3L89.4,72l0.2-0.1c0,0.2,0,0.4,0,0.6c0.2-0.2,0.3-0.3,0.5-0.5c0.2,0.5,0.4,1,0.6,1.4
		c-0.2,0.4-0.6,0.9-0.6,1.3c-0.1,1.9,0,3.8,0,5.7c-1,4.6-1.9,9.1-2.9,13.7c-1-0.1-1.5,0.3-1.4,1.3c-0.5,0-0.9,0-1.4,0
		c-0.2-0.4-0.5-0.8-0.7-1.3c-0.2,0.4-0.5,0.8-0.7,1.2C82.7,95.5,82.2,95.5,81.7,95.5z M87.4,84c-1.9,1.7-1.9,2.5-0.7,4.7
		C87.7,87.4,87.1,86.1,87.4,84z M89.3,75.3c-0.7-0.2-1-0.4-1.3-0.4c-0.3,0-0.5,0.3-0.7,0.5c0.2,0.2,0.3,0.6,0.5,0.7
		C88.1,76.1,88.4,75.8,89.3,75.3z"/>
	<path class="st22" d="M90.1,80.5c0-1.9-0.1-3.8,0-5.7c0-0.4,0.4-0.9,0.6-1.3C91.9,75.9,91.1,78.2,90.1,80.5z"/>
	<path class="st9" d="M85.9,95.5c-0.1-1,0.4-1.4,1.4-1.3c0,0.4,0,0.9,0,1.3C86.8,95.5,86.3,95.5,85.9,95.5z"/>
	<path class="st19" d="M89.5,71.9c-1.2,0.1-0.7-0.7-0.8-1.3C89,71,89.2,71.4,89.5,71.9z"/>
	<path class="st19" d="M90.1,72c-0.2,0.2-0.3,0.3-0.5,0.5c0-0.2,0-0.4,0-0.6C89.7,71.9,89.9,71.9,90.1,72z"/>
	<path class="st10" d="M53.4,91.4c0.4,0.4,0.8,0.9,1.3,1.4c0.9,0,1.9,0,2.9,0c0.2,0.3,0.4,0.7,0.9,1.4c-1.8,0-3.1,0-4.4,0
		c-0.5,0-0.9,0-1.4,0c-0.4-0.7-0.8-1.4-1.4-2.4C52,91.6,52.7,91.5,53.4,91.4z"/>
	<path class="st22" d="M52.7,87.2c0.3-1.1,0.6-2.3,1-3.4c0.1,0.5,0.2,0.9,0.4,1.4c0,0.2,0,0.5,0,0.7c0,0.2,0,0.5,0,0.7
		C53.6,86.8,53.2,87,52.7,87.2z"/>
	<path class="st23" d="M52.7,94.2c0.5,0,0.9,0,1.4,0c0,0.4,0,0.9,0,1.3c-0.9,0-2.3,0.7-2-1.3C52.2,94.2,52.4,94.2,52.7,94.2z"/>
	<path class="st19" d="M66.5,78.8c0.2,2.7,0,5.3-1,7.9c-0.6,1.6-0.3,3.6-0.4,5.5c-0.6,0.6-1.2,1.3-1.9,1.9c0-0.2-0.1-0.5-0.1-0.7
		c1-4.5,1.9-9,2.9-13.5C66,79.6,66.3,79.2,66.5,78.8z"/>
	<path class="st5" d="M54,95.5c0-0.4,0-0.9,0-1.3c1.3,0,2.6,0,4.4,0c-0.5-0.7-0.7-1.1-0.9-1.4c0.3-1.3,0.6-2.7,1-4
		c0.3,0,0.6-0.1,1-0.1c-0.2,2.3-0.4,4.6-0.6,6.9C57.2,95.5,55.6,95.5,54,95.5z"/>
	<path class="st23" d="M61.5,79.6c-0.7-2.3-0.7-4,0-6.2C61.5,75.5,61.5,77.5,61.5,79.6z"/>
	<path class="st11" d="M63,93.5c0,0.2,0.1,0.5,0.1,0.7c0,0.5-0.1,0.9-0.1,1.4C61.9,94.9,62,94.2,63,93.5z"/>
	<path class="st23" d="M204.2,71.9c0.1-0.6,0.2-1.3,0.3-1.9c1.9,0,3.8,0,5.7,0c0,0.2,0,0.3,0,0.5c-1.6,0-3.2,0-5,0
		c-0.2,1-0.4,1.9-0.5,2.8c-0.3,0.1-0.7,0.1-1,0.2c0-0.2,0.1-0.5,0.1-0.7C204,72.4,204.1,72.1,204.2,71.9z"/>
	<path class="st23" d="M200.3,90.1c0.2,0.8,0.5,1.6,0.7,2.3c-0.2,0-0.4,0.1-0.5,0.1c-0.1-0.4-0.2-0.8-0.4-1.2
		C200.2,90.9,200.2,90.5,200.3,90.1z"/>
	<path class="st23" d="M201.7,83.1c0.9,1.4,0.7,2.1-0.5,2.7C201.4,84.9,201.5,84,201.7,83.1z"/>
	<path class="st7" d="M204.2,71.9c-0.1,0.3-0.2,0.5-0.3,0.8c-0.1-0.2-0.2-0.4-0.2-0.6C203.9,72,204.1,72,204.2,71.9z"/>
	<path class="st26" d="M102.5,84.3c0.7-0.2,1.4-0.3,2-0.5c0.2,0,0.5,0,0.7,0c3.9,0,7.8,0,11.8,0l0.3,0l0.3,0c0.6,0,1.2,0,1.9,0
		c-0.1,0.3-0.3,0.7-0.4,1c-1.2-0.1-2.4-0.3-3.6-0.4C111.2,84.4,106.9,84.3,102.5,84.3z"/>
	<path class="st19" d="M119,75.5c0.3,0.5,0.5,0.9,0.8,1.4c0,1.8-0.1,3.7-0.1,5.5c-0.2,0-0.4,0-0.6,0c0-2,0.2-4-0.7-5.9
		C118.4,76.3,118.8,75.8,119,75.5z"/>
	<path class="st23" d="M121.9,87.3c0.1,1-0.4,1.4-1.4,1.3c0-0.4,0-0.9,0-1.3C121,87.3,121.5,87.3,121.9,87.3z"/>
	<path class="st22" d="M119.1,82.4c0.2,0,0.4,0,0.6,0c0,0.5-0.1,0.9-0.1,1.4c-0.6,0-1.2,0-1.9,0C118.2,83.3,118.7,82.9,119.1,82.4z"
		/>
	<path class="st23" d="M121.7,92.9c1.1-0.2,1.8,0.1,1.6,1.4C122.7,93.8,122.2,93.3,121.7,92.9z"/>
	<path class="st22" d="M120.5,87.3c0,0.4,0,0.9,0,1.3c-0.2,0.2-0.3,0.5-0.5,0.7C120,88.6,119.2,87.7,120.5,87.3z"/>
	<path class="st10" d="M124.9,91.3c-1.2-0.1-2.1-0.1-3.6-0.2C123.5,89.9,123.5,89.9,124.9,91.3z"/>
	<path class="st10" d="M141.3,83.1c0,0.5,0,0.9,0,1.4c0.1,1-0.3,1.5-1.4,1.4c-0.3-1.2-0.1-2.8-2.1-2.8c-0.2-0.5-0.5-0.9-0.7-1.4
		C138.5,82.2,139.9,82.6,141.3,83.1z"/>
	<path class="st6" d="M137.8,83.1c1.9,0,1.7,1.6,2.1,2.8c-0.2,0.5-0.5,0.9-0.7,1.4C138.2,86,138.3,84.5,137.8,83.1z"/>
	<path class="st6" d="M135.8,86.5c-0.3-0.2-0.5-0.4-0.8-0.7c0.6,0,1.2,0,2.1,0c0,1.1,0,1.9,0,2.8c-0.1,0.6,0.2,1.3-0.8,1.3
		c0-0.9,0.1-1.7,0.1-2.6C136.2,87.1,136,86.8,135.8,86.5z"/>
	<path class="st6" d="M138.5,88.6c0.2-0.2,0.5-0.5,0.7-0.7c0.4,0.6,0.9,1.2,1.4,1.8C139.3,90.2,138.4,90.2,138.5,88.6z"/>
	<path class="st6" d="M135.7,90.7c0.2-0.2,0.5-0.5,0.7-0.7C136.1,90.2,135.9,90.4,135.7,90.7z"/>
	<path class="st6" d="M135,91.3c0.2-0.2,0.5-0.5,0.7-0.7C135.4,90.8,135.2,91.1,135,91.3z"/>
	<path class="st0" d="M173.1,93.5c0.2,0.2,0.4,0.5,0.7,0.7C173.6,94,173.4,93.7,173.1,93.5z"/>
	<path class="st19" d="M227.3,90.6c1.8,0.1,3.6,0.2,5.4,0.3c0,0.2,0,0.4,0,0.6l0,0c-0.7,0.1-1.3,0.4-2,0.4c-0.9,0-1.9-0.2-2.8-0.4
		C227.7,91.1,227.5,90.8,227.3,90.6z"/>
	<path class="st10" d="M232.7,91.4c0.3,0,0.7,0,1,0.1c0.2,0.1,0.2,0.5,0.3,0.8c-0.4,0-0.8,0.1-1.1,0
		C232.7,92.3,232.7,91.7,232.7,91.4L232.7,91.4z"/>
	<path class="st10" d="M220.2,88.6c0.8,0,1.6,0,2.4,0c0.5-1.4,0.9-2.7,1.3-4c0.1,0,0.3,0,0.4,0c0,1.8,0,3.6,0,5.4
		c-1.5-0.3-2.7,0.4-3.9,1.8C220.3,90.4,220.3,89.5,220.2,88.6z"/>
	<path class="st19" d="M225.9,88.4c0.5,0.7,1,1.4,1.5,2.1c-0.6,0.2-1.3,0.5-1.5-0.5C225.8,89.5,225.8,88.9,225.9,88.4z"/>
	<path class="st5" d="M4.2,95.5c0-0.3,0.1-0.7,0.1-1.2c2.2,0,4.4,0,6.6,0c0.1,0.5,0.1,0.8,0.1,1.2C8.8,95.5,6.5,95.5,4.2,95.5z"/>
	<path class="st5" d="M15.3,95.5c0-0.3,0.1-0.7,0.1-1.2c1.7,0,3.5,0,5.2,0c0.1,0.5,0.1,0.8,0.1,1.1C19,95.5,17.1,95.5,15.3,95.5z"/>
	<path class="st9" d="M83.1,95.5c0.2-0.4,0.5-0.8,0.7-1.2c0.2,0.4,0.5,0.8,0.7,1.3C84.1,95.5,83.6,95.5,83.1,95.5z"/>
	<path class="st5" d="M22.1,95.4c0.1-0.3,0.1-0.7,0.3-1.2c1.3,0,2.6,0,4,0C25,94.6,23.6,95,22.1,95.4z"/>
	<path class="st11" d="M140.6,52.8c-0.3,0.2-0.5,0.3-0.8,0.5C140.1,53.1,140.3,52.9,140.6,52.8z"/>
	<path class="st25" d="M9.7,89.5c0-1.4,0.1-2.8,0.1-4.2c0.3-1.2,0.7-2.4,1-3.7c0.2-0.6,0.4-1.2,0.7-2.2c2.2,0,4.4,0,6.6,0
		c1.8,0.2,3.6,0.4,5.4,0.5c0.6,0.6,1.2,1.2,1.9,1.8c0,1.3,0,2.7,0,4c-1.1,1.1-2.1,2.3-3.2,3.4C18,89.3,13.9,89.4,9.7,89.5z"/>
	<path class="st25" d="M13.9,66.5c0.1-0.2,0.2-0.4,0.2-0.6c3.1-0.1,6.3-0.1,9.4-0.2c0.9,0.3,1.8,0.6,2.7,0.9l0,0
		c0.9,1.8,0.9,3.6,0.1,5.5c-1.9,1.7-4,2.3-6.5,2.1c-2.4-0.1-4.7,0-7.3,0c0-0.8,0-1.4,0-1.9C13,70.3,13.5,68.4,13.9,66.5z"/>
	<path class="st22" d="M9.7,89.5c4.1-0.1,8.3-0.2,12.4-0.3c-0.1,1-0.9,0.8-1.5,0.8c-3.2,0-6.3,0-9.5,0c-0.5,0-0.9,0-1.4,0
		C9.7,89.9,9.7,89.7,9.7,89.5z"/>
	<path class="st22" d="M23.6,65.7c-3.1,0.1-6.3,0.1-9.4,0.2c-0.3-0.2-0.5-0.3-1.3-0.8c3.9,0,7.3,0,10.7,0
		C23.6,65.3,23.6,65.5,23.6,65.7z"/>
	<path class="st19" d="M26.4,72c0.7-1.8,0.8-3.7-0.1-5.5c0.4,0,0.8,0,1.4,0c0,1.8,0,3.4,0,5.3C27.2,71.9,26.8,72,26.4,72z"/>
	<path class="st10" d="M25.1,61.6c1.2-1,2.5-0.6,4-0.6C27.9,63,26.5,62.4,25.1,61.6z"/>
	<path class="st22" d="M13.9,66.5c-0.4,1.9-0.9,3.8-1.3,5.7c0-1.8,0-3.6,0-5.6C13.1,66.6,13.5,66.5,13.9,66.5z"/>
	<path class="st23" d="M23.5,80c-1.8-0.2-3.6-0.4-5.4-0.5c1.7-1,3.4-0.5,5.1-0.3C23.3,79.2,23.4,79.7,23.5,80z"/>
	<path class="st19" d="M23.6,65.7c0-0.2,0-0.4,0-0.6c0.5,0,1.1,0,1.6,0c1.1-0.1,1.2,0.6,1.1,1.5C25.4,66.3,24.5,66,23.6,65.7z"/>
	<path class="st23" d="M25.4,85.8c0-1.3,0-2.7,0-4C26.8,82.9,26.8,84.6,25.4,85.8z"/>
	<path class="st22" d="M10.8,81.7c-0.3,1.2-0.7,2.4-1,3.7c0-0.9-0.2-1.8,0-2.7C9.8,82.3,10.4,82,10.8,81.7z"/>
	<path class="st23" d="M3.5,83.1c0-0.7-0.1-1.4-0.1-2.1c0.1-0.4,0.1-0.9,0.2-1.3c0.2,0,0.3,0,0.5,0c0,1.1,0,2.3,0,3.4
		C4,83.1,3.8,83.1,3.5,83.1z"/>
	<path class="st5" d="M3.5,83.1c0.2,0,0.4,0,0.6,0c0.1,1.1-0.3,1.5-1.4,1.4C2.9,84,2.9,83.6,3,83.1C3.2,83.1,3.3,83.1,3.5,83.1z"/>
	<path class="st19" d="M9.7,90c0.5,0,0.9,0,1.4,0c-0.2,0.4-0.5,0.9-0.7,1.3C10.2,90.9,10,90.5,9.7,90z"/>
	<path class="st16" d="M192.5,74.1c-0.9-1-1.4-1-2.2,0.2c-0.2-0.1-0.4-0.2-0.6-0.3c-0.5-0.2-0.9-0.3-1.4-0.5l0,0
		c-0.1-0.5-0.2-0.9-0.4-1.9c-0.8,0.9-1.2,1.4-1.7,1.9l-0.3,0.1l-0.3,0c-1,0-1.9,0-2.9-0.1c-0.2-0.7,0.5-1.7-0.7-2.1l0,0
		c0-0.2,0-0.5,0-0.7c0.2,0,0.5,0,0.7,0c1,0.1,1.5-0.3,1.4-1.4c0.2,0,0.5,0,0.7-0.1c0.9,1.9,2.1-0.2,3.1,0.3c1.6,1.2,3.4,1.9,5.7,1.1
		c0.3,1.4,0.6,2.8,0.9,4.2C193.9,74.5,193.2,74.3,192.5,74.1z"/>
	<path class="st9" d="M182.8,73.4c1,0,1.9,0,2.9,0.1c-1.4,1.2-4,1.1-3.7,4.1c-1.4,0-2.5,0-3.7,0c-1,0-2,0-3.4,0
		c0.3-0.9,0.5-1.5,0.7-2.1c0.2-0.1,0.5-0.2,0.7-0.3c-0.2-0.1-0.4-0.2-0.5-0.3c0.5-0.7,0.9-1.4,1.4-2.2c0,0.3,0,0.5,0.1,0.8
		c0,1.1,0,2.2,0,3.7c1.7-0.5,2.9-0.8,4.1-1.2c0-1,0-1.8,0-2.6C181.9,73.4,182.4,73.4,182.8,73.4z"/>
	<path class="st22" d="M165.2,77.7c0.9,0,1.8-0.1,2.8-0.1c0.9,0,1.8,0,2.6,0c0.4-0.8,0.8-1.4,1.1-2.1c0.3,0.9,0.6,1.9,1,3.3
		c-2.3,0-4.1,0.1-5.9-0.1C166.3,78.7,165.7,78,165.2,77.7z"/>
	<path class="st23" d="M158.6,74.2c0.3-0.3,0.5-0.7,0.8-0.8c1.2-0.1,2.5,0,3.8,0.3c-0.4,0.1-0.9,0.3-1.3,0.4
		C160.8,74.2,159.7,74.2,158.6,74.2z"/>
	<path class="st18" d="M186.3,73.4c0.4-0.5,0.9-1,1.7-1.9c0.2,1,0.3,1.5,0.4,1.9C187.7,73.4,187,73.4,186.3,73.4z"/>
	<path class="st18" d="M188.3,73.4c0.5,0.2,0.9,0.3,1.4,0.5C189.3,73.8,188.8,73.6,188.3,73.4z"/>
	<path class="st16" d="M175.9,74.8c0.2,0.1,0.4,0.2,0.5,0.3c-0.2,0.1-0.5,0.2-0.7,0.3C175.7,75.2,175.8,75,175.9,74.8z"/>
	<path class="st6" d="M205.6,84.3c-0.8,1.5-0.1,3-1.1,4.4c-1.3-2.2-1.2-4.2,0.3-7c0.5,0.1,1,0.3,1.5,0.4
		C206,82.8,205.8,83.5,205.6,84.3z"/>
	<path class="st20" d="M218.8,69.1c0.8-0.2,1.6-0.3,2.7-0.6c-0.1,2.1-0.4,3.6-1.2,5.1c-0.2-1.3,0.3-2.9-1.4-3.6
		C218.8,69.9,218.8,69.4,218.8,69.1z"/>
	<path class="st23" d="M220.3,74.7c-0.5,1.1-1.4,0.7-2.2,0.6c0-0.2,0-0.4,0-0.5c0.7-0.2,1.4-0.5,2.1-0.7
		C220.3,74.3,220.3,74.5,220.3,74.7z"/>
	<path class="st9" d="M215.4,75.4c-0.3,0.2-0.5,0.4-0.8,0.6c-0.4,0.1-0.9,0.1-1.3,0.2c-0.2-1.8,1.1-1.3,2.1-1.4
		C215.4,75,215.4,75.2,215.4,75.4z"/>
	<path class="st22" d="M213.8,70.6c0.5-0.4,1-0.9,1.6-1.3c0.2,0,0.4,0,0.7,0.1C216.1,71.2,214.8,70.5,213.8,70.6z"/>
	<path class="st22" d="M215.4,75.4c0-0.2,0-0.4,0-0.6c0.9,0,1.8,0,2.8,0c0,0.2,0,0.4,0,0.5c-0.5,0.1-0.9,0.1-1.4,0.2
		C216.3,75.5,215.8,75.4,215.4,75.4z"/>
	<path class="st10" d="M209.3,78.1c-0.3,0.3-0.5,0.7-0.7,0.7c-0.2,0-0.5-0.3-0.7-0.5c0.2-0.2,0.3-0.6,0.5-0.7
		C208.6,77.6,208.9,77.9,209.3,78.1z"/>
	<path class="st10" d="M45.7,74.1c0,0.2,0,0.5,0,0.7c-1.3,0-2.6,0-3.9,0c0.4-1,0.8-1.9,1.1-2.8c0.8,0,1.5,0,2.5,0
		C45.6,72.7,45.6,73.4,45.7,74.1z"/>
	<path class="st22" d="M52.7,83.6c-1.4,0.2-2.7,0.4-4.1,0.6c1.1-1.2,2.6-1.2,4.1-1.2C52.7,83.3,52.7,83.5,52.7,83.6z"/>
	<path class="st5" d="M54,85.9c0-0.2,0-0.5,0-0.7c0.4,0.1,0.8,0.1,1.3,0.2c0,0.1,0,0.2,0,0.3C54.9,85.7,54.5,85.8,54,85.9z"/>
	<path class="st6" d="M126.8,78.9c-0.2,0-0.5,0-0.7,0c-0.5,0-0.9,0-1.4,0c0.3-1.3,0.2-3,2.3-2.7C128.1,77.3,127,78.1,126.8,78.9z"/>
	<path class="st26" d="M124.7,78.9c0.5,0,0.9,0,1.4,0c0,0.9-0.3,2,1.2,2.2c-0.5,0.5-0.9,1-1.3,1.5c-0.2-0.1-0.3-0.2-0.5-0.3
		c-0.3-0.2-0.5-0.4-0.8-0.7l0,0C124.6,80.8,124.6,79.9,124.7,78.9z"/>
	<path class="st10" d="M119.1,82.4c-0.5,0.5-0.9,0.9-1.4,1.4c0,0-0.3,0-0.3,0l-0.3,0c-0.2-0.2-0.4-0.7-0.6-0.7c-3.5,0-7,0-10.5,0
		c-0.2,0-0.4,0.4-0.6,0.7c-0.2,0-0.5,0-0.7,0c-0.7-0.4-1.3-0.8-2.2-1.3c0.5-0.7,1-1.4,1.5-2.1c0.2,0,0.5,0,0.7,0
		c0.3,0.2,0.6,0.6,1,0.6c1.9,0.1,3.8,0.1,5.7,0c0.3,0,0.6-0.4,1-0.7c0.2,0,0.5,0,0.7,0c1.1,0,2.2,0,4,0c-1-1.1-1.4-1.6-1.9-2.1
		c0.5-0.4,0.9-0.8,1.5-1.3c-0.9-0.9-1.9-1.8-2.7-2.6c0-0.7,0-1.4,0-2.2c1-0.1,1.9-0.1,2.8-0.2c0.8,1.2,1.7,2.4,2.5,3.5
		c-0.2,0.3-0.6,0.8-0.5,1C119.4,78.4,119.1,80.4,119.1,82.4z"/>
	<path class="st27" d="M222.2,67.9c1.1,0.1,1.9,0.1,2.9,0.2C224,69.4,224,69.4,222.2,67.9z"/>
	<path class="st18" d="M194.6,74.8c-0.3-1.4-0.6-2.8-0.9-4.2c-2.3,0.9-4.1,0.1-5.7-1.1c-1-0.6-2.2,1.6-3.1-0.3
		c0.9-0.2,1.8-0.4,2.8-0.6c0.2,0,0.5,0,0.7,0c1,0.2,2,0.5,3,0.5c2.4,0.1,4.3,1.1,5.8,2.9C196.3,73,195.5,73.9,194.6,74.8z"/>
	<path class="st2" d="M188.4,68.6c-0.2,0-0.5,0-0.7,0c0.1-0.2,0.2-0.4,0.2-0.5C188.1,68.2,188.2,68.4,188.4,68.6z"/>
	<path class="st16" d="M192.5,74.8c-0.2-0.2-0.3-0.3-0.5-0.5c0.2-0.1,0.3-0.2,0.5-0.2C192.5,74.3,192.5,74.6,192.5,74.8z"/>
	<path class="st20" d="M242.4,66.4c-0.2,0-0.5,0-0.7,0c0.2-1.2-0.3-2.5,0.7-3.5C242.4,64.1,242.4,65.3,242.4,66.4z"/>
	<path class="st16" d="M153.1,48.3c0.3-0.2,0.6-0.3,0.8-0.5C153.7,48,153.4,48.2,153.1,48.3z"/>
	<path class="st16" d="M181.5,73.4c0,0.8,0,1.6,0,2.6c-1.3,0.4-2.5,0.7-4.1,1.2c0-1.5,0-2.6,0-3.7C178.7,73.4,180.1,73.4,181.5,73.4
		z"/>
	<path class="st16" d="M180.8,70.6c0.2,0,0.5,0,0.7,0c0,0.2,0,0.5,0,0.7l0,0c-0.5,0-0.9,0-1.4,0C180.3,71.1,180.5,70.9,180.8,70.6z"
		/>
	<path class="st16" d="M182.1,71.3c-0.2,0.2-0.3,0.3-0.5,0.5c-0.1-0.2-0.2-0.3-0.2-0.5c0,0,0,0,0,0c0,0,0.3,0,0.3,0L182.1,71.3
		C182.1,71.3,182.1,71.3,182.1,71.3z"/>
	<path class="st10" d="M182.1,71.3l-0.3,0c0,0-0.3,0-0.3,0c0-0.2,0-0.5,0-0.7c0.2,0,0.5,0,0.7,0C182.1,70.9,182.1,71.1,182.1,71.3z"
		/>
	<path class="st12" d="M180.1,87.3c0.8,0,1.3-0.1,1.8,0c0.3,0,0.5,0.3,1.2,0.6c-1,0.6-1.8,1.2-2.8,1.9
		C179.5,89.4,180.2,88.4,180.1,87.3z"/>
	<path class="st6" d="M112.2,80.3c-0.3,0.2-0.6,0.6-1,0.7c-1.9,0.1-3.8,0.1-5.7,0c-0.3,0-0.6-0.4-1-0.6
		C107.1,80.3,109.7,80.3,112.2,80.3z"/>
	<path class="st10" d="M224.6,80.4c-0.1-0.8-0.2-1.4-0.2-2.1c0-0.3,0.3-0.5,0.5-0.8C225.9,79.2,225.9,79.2,224.6,80.4z"/>
	<path class="st20" d="M225.7,82.4c0,1.6,0,3.2,0,4.9C224.8,85.5,224.8,84.3,225.7,82.4z"/>
	<path class="st10" d="M233.7,72.2c0.6-1.1,0.9-1.7,1.4-2.7C235.5,70.9,235.9,71.7,233.7,72.2z"/>
	<path class="st9" d="M218.8,88.1c-0.2-0.1-0.3-0.2-0.5-0.2c0.2-1.2-0.6-2.5,0.5-3.5C218.8,85.6,218.8,86.8,218.8,88.1z"/>
	<path class="st20" d="M128.8,83.8c-0.7-0.2-1.4-0.5-2.1-0.7C127.4,83.3,128.5,82.6,128.8,83.8z"/>
	<path class="st10" d="M70.7,84.5c0,0.5,0,0.9,0,1.4c-0.3,0-0.7-0.1-1.2-0.1c0-1.3,0-2.6,0-4.1C71.3,82.2,70.4,83.6,70.7,84.5z"/>
	<path class="st10" d="M69.3,92.1c0,0.2,0,0.5,0,0.7c-0.3,0-0.7-0.1-1.2-0.1c0-0.8,0-1.7,0-2.7c0.5,0.2,1,0.3,1,0.5
		C69.3,91,69.2,91.5,69.3,92.1z"/>
	<path class="st5" d="M76.2,74.8c0,0.2,0,0.4,0,0.6c-0.4,0-0.8-0.1-1.2-0.1c0-0.1,0-0.2,0-0.4C75.4,74.9,75.8,74.8,76.2,74.8z"/>
	<path class="st6" d="M87.4,84c-0.4,2,0.3,3.4-0.7,4.7C85.5,86.5,85.6,85.8,87.4,84z"/>
	<path class="st6" d="M89.3,75.3c-1,0.5-1.2,0.8-1.5,0.8c-0.2-0.1-0.4-0.4-0.5-0.7c0.2-0.2,0.5-0.5,0.7-0.5
		C88.4,74.8,88.7,75,89.3,75.3z"/>
	<path class="st8" d="M135.8,86.5c0.2,0.3,0.4,0.5,0.6,0.8C136.2,87.1,136,86.8,135.8,86.5z"/>
	<path class="st18" d="M124.6,81.8c0.3,0.2,0.5,0.4,0.8,0.7C125.1,82.2,124.9,82,124.6,81.8z"/>
	<path class="st19" d="M105.3,83.8c0.2-0.2,0.4-0.7,0.6-0.7c3.5,0,7,0,10.5,0c0.2,0,0.4,0.4,0.6,0.7
		C113.1,83.8,109.2,83.8,105.3,83.8z"/>
</g>
</svg>
