<?xml version="1.0" encoding="utf-8"?>
<!-- Generator: Adobe Illustrator 21.0.0, SVG Export Plug-In . SVG Version: 6.00 Build 0)  -->
<svg version="1.1" id="Camada_1" xmlns="http://www.w3.org/2000/svg" xmlns:xlink="http://www.w3.org/1999/xlink" x="0px" y="0px"
	 viewBox="0 0 250 95.7" style="enable-background:new 0 0 250 95.7;" xml:space="preserve">
<style type="text/css">
	.st0{fill:#014487;}
	.st1{fill:#5A87B0;}
	.st2{fill:#9AB4CE;}
	.st3{fill:#E2E9EF;}
	.st4{fill:#799CBF;}
	.st5{fill:#7A9DC1;}
	.st6{fill:#7D9FC2;}
	.st7{fill:#5985B0;}
	.st8{fill:#5B86B2;}
	.st9{fill:#7A9DBF;}
	.st10{fill:#5582AF;}
	.st11{fill:#779ABD;}
	.st12{fill:#779BBF;}
	.st13{fill:#AAC357;}
</style>
<g>
	<path class="st0" d="M33.2,82.4c0.1,2.3-0.3,4.5-1.4,6.5c-1.8,3-4.5,4.8-7.9,5.6C22.5,94.8,21,95,19.5,95C13.2,95,6.9,95,0.6,95
		c-0.2,0-0.4,0-0.6,0c0,0,0-0.1,0-0.1c0-0.2,0.1-0.4,0.1-0.6c0.6-2.9,1.3-5.9,1.9-8.8c1.8-8.8,3.7-17.6,5.5-26.3
		c0-0.1,0.1-0.2,0.1-0.4c0.1,0,0.2,0,0.2,0c5.6,0,11.2,0,16.7,0c0.4,0,0.8,0,1.2,0.1c0,0,0.1,0,0.1,0c1.3,0.2,2.6,0.4,3.8,0.8
		c2.6,0.8,4.2,2.6,4.7,5.2c0.5,2.7,0.2,5.2-1.3,7.5c-1.2,1.8-2.8,2.8-4.9,3.3c-0.1,0-0.2,0-0.3,0c0,0,0,0.1,0,0.1
		c0.1,0,0.2,0.1,0.3,0.1c3,1.1,4.6,3.3,5,6.4C33.2,82.3,33.2,82.3,33.2,82.4C33.2,82.3,33.2,82.3,33.2,82.4z M11.1,78.9
		c-0.7,3.3-1.4,6.6-2.1,9.9c0.2,0,0.3,0.1,0.4,0.1c3.4,0,6.7,0,10.1,0c1.5,0,2.9-0.4,4-1.4c1.7-1.6,2.1-3.5,1.6-5.7
		c-0.4-1.8-1.9-2.3-3.5-2.6c-0.1,0-0.3,0-0.4,0c-2.7,0-5.4-0.1-8.1-0.1C12.4,78.9,11.8,78.9,11.1,78.9z M12.3,73.4
		c0.8,0,1.6,0,2.4,0c2.3,0,4.7,0,7,0c3.5,0,5.7-2.8,4.9-6c-0.2-0.9-0.8-1.7-1.7-2C24.2,65.1,23.6,65,23,65c-2.9,0-5.7,0-8.6-0.1
		c-0.4,0-0.5,0.2-0.5,0.5C13.4,68,12.8,70.7,12.3,73.4z"/>
	<path class="st0" d="M226.1,95.6c-4.2-0.6-7.1-3.3-7.8-7.4c-0.9-5.7,0.2-11.1,4-15.6c3.1-3.8,7.3-5.1,12.1-4.3c2.5,0.4,4,1.6,5.4,4
		c1-4.5,1.9-9,2.9-13.5c2.4,0,4.8,0,7.2,0c0,0.1,0,0.2,0,0.4c0,0.1-0.1,0.2-0.1,0.3c-2.2,10.2-4.3,20.5-6.5,30.7
		c-0.3,1.6-0.7,3.2-1,4.8c-2.4,0-4.7,0-7,0c0.2-1.1,0.4-2.1,0.7-3.1c-1.5,2.2-3.5,3.3-6,3.8c-0.4,0-0.7,0.1-1.1,0.1
		c-0.5,0-1.1,0-1.6,0C226.9,95.7,226.5,95.6,226.1,95.6z M225.3,84.1c0,0.4,0,0.9,0.1,1.3c0.3,3.2,2.7,5.1,5.8,4.8
		c1.7-0.2,3.1-1,4.1-2.3c2.3-2.9,3.3-6.2,2.9-9.9c-0.3-3.3-2.7-4.9-6-4.5c-2.3,0.3-3.8,1.7-5,3.6C226,79.3,225.4,81.6,225.3,84.1z"
		/>
	<path class="st0" d="M105,68.2c2.6-0.4,5.2-0.3,7.6,0.6c4.1,1.4,6.4,4.3,7,8.6c0.1,1,0.2,2,0.1,3.1c0,1-0.2,2.1-0.3,3.2
		c-6.5,0-12.9,0-19.3,0c-0.7,3.9,1.1,6.2,4.6,6.6c2.6,0.3,4.6-0.8,5.9-3c0.3-0.5,0.6-0.6,1.2-0.6c1.9,0,3.9,0,5.8,0
		c0.2,0,0.4,0,0.7,0c-1.5,4-3.8,7-8,8.3c-0.9,0.3-1.9,0.4-2.9,0.6c-0.2,0-0.4,0-0.6,0c-0.3,0-0.7,0.1-1,0.1c-0.7,0-1.4,0-2.1,0
		c-0.3,0-0.6-0.1-0.9-0.1c-0.2,0-0.4,0-0.6,0c-1.2-0.4-2.4-0.6-3.5-1.1c-3.3-1.6-5.1-4.4-5.5-7.9c-0.6-5,0.5-9.6,3.7-13.5
		c2.1-2.6,4.8-4.1,8-4.8C104.9,68.2,105,68.2,105,68.2z M112.9,79c-0.2-1-0.3-2-0.6-2.9c-0.4-1.3-1.3-2.2-2.7-2.4
		c-1.1-0.2-2.2-0.2-3.3-0.1c-2.5,0.4-5.2,3-5.5,5.4C104.8,79,108.8,79,112.9,79z"/>
	<path class="st0" d="M41.4,95.6c-0.8-0.3-1.7-0.4-2.5-0.8c-4.8-2.2-4.5-7.5-2.6-10.3c1.3-2.1,3.4-3.2,5.7-3.9
		c0.3-0.1,0.7-0.2,1-0.3c0.1,0,0.1,0,0.2-0.1c2.8-0.3,5.6-0.7,8.5-1.1c0.5-0.1,0.9-0.2,1.4-0.3c1.7-0.5,2.3-1.6,2-3.3
		c0-0.1-0.1-0.2-0.1-0.3c-0.2-0.9-0.8-1.4-1.6-1.8c-1.9-0.8-3.9-0.8-5.7,0.1c-1.3,0.6-1.9,1.5-2.4,3.2c-2.2,0-4.5,0-6.8,0
		c0.3-2.4,1.3-4.5,3.2-6c1.8-1.5,4-2.1,6.3-2.4c3-0.4,5.9-0.3,8.8,0.5c0.6,0.2,1.3,0.4,1.8,0.7c2.1,1.1,3.2,2.8,3.2,5.2
		c0,0.4,0,0.9,0,1.3c0,0.1,0,0.2,0,0.2c-1,4.9-2.1,9.8-3,14.7c-0.2,1.3,0,2.6,0,4c-2.3,0-4.7,0-7.2,0c0-0.7,0-1.5,0-2.2
		c0,0,0-0.1,0-0.1c0,0-0.1,0.1-0.1,0.1c-1.6,1.6-3.6,2.4-5.7,2.9c-0.3,0-0.7,0.1-1,0.1c-0.7,0-1.3,0-2,0c-0.3,0-0.5-0.1-0.8-0.1
		C41.7,95.6,41.5,95.6,41.4,95.6z M53.5,82.7c-1.4,0.3-2.7,0.6-4,0.8c-0.7,0.1-1.5,0.1-2.2,0.2c-1.2,0.1-2.4,0.3-3.4,1
		c-1.3,0.9-1.7,2.2-1.5,3.6c0.2,1.3,1.1,1.9,2.2,2.3c2.3,0.6,5.5,0.2,7.2-2.7C52.7,86.3,53,84.4,53.5,82.7z"/>
	<path class="st0" d="M174.9,76c0.9-4.3,3.8-6.6,8-7.5c3.6-0.8,7.2-0.7,10.7,0.4c2.4,0.8,4.2,2.2,4.6,4.9c0.1,1.1,0.1,2.3-0.1,3.4
		c-0.8,4.1-1.7,8.3-2.6,12.4c-0.4,1.8-0.6,3.6-0.2,5.4c-2.4,0-4.8,0-7.2,0c0-0.8,0-1.5,0-2.3c0,0,0-0.1,0-0.1
		c-0.1,0-0.1,0.1-0.2,0.1c-1.6,1.6-3.6,2.5-5.8,2.9c-0.2,0-0.3,0-0.5,0c-0.3,0-0.5,0.1-0.8,0.1c-0.5,0-1.1,0-1.6,0
		c-0.3,0-0.5-0.1-0.8-0.1c-0.2,0-0.3,0-0.5,0c-0.9-0.3-1.9-0.5-2.8-0.9c-3.9-2-4.3-6.2-2.9-9.4c1-2.3,2.9-3.7,5.2-4.4
		c1.5-0.5,3.2-0.8,4.8-1.1c0,0,0.1,0,0.1,0c2.1-0.3,4.3-0.5,6.4-0.8c0.2,0,0.4-0.1,0.7-0.2c1.5-0.4,2.1-1.2,2.2-2.7
		c0-1.4-0.7-2.4-2.1-2.8c-0.1,0-0.1-0.1-0.2-0.1c-2.2-0.7-4.4-0.6-6.2,1c-0.6,0.5-0.9,1.4-1.3,2.1c-0.1,0.2-0.3,0.4-0.4,0.4
		c-2.1,0-4.2,0-6.4,0c0-0.2,0-0.4,0.1-0.6C174.8,76.1,174.8,76,174.9,76z M189.9,82.6c-0.9,0.3-1.8,0.6-2.6,0.7
		c-1.2,0.2-2.4,0.2-3.7,0.4c-1.3,0.1-2.5,0.3-3.6,1.1c-1.2,0.9-1.6,2.2-1.4,3.6c0.2,1.2,1.1,1.9,2.2,2.2c2.2,0.6,5.5,0.2,7.2-2.6
		C189,86.3,189.4,84.5,189.9,82.6z"/>
	<path class="st0" d="M137.8,75.1c-0.3-1.2-1.2-1.8-2.3-2.1c-1.4-0.3-2.8-0.2-4.2,0.2c-0.3,0.1-0.7,0.3-1,0.5
		c-1.1,0.9-1.1,2.4,0.1,3.2c0.7,0.4,1.4,0.7,2.2,1c2.1,0.8,4.2,1.4,6.3,2.2c2,0.8,3.5,2.2,4.2,4.3c0.1,0.5,0.2,0.9,0.3,1.4
		c0,0.1,0,0.2,0,0.3c0,0.4,0,0.8,0,1.1c0,0.1,0,0.2,0,0.2c-0.6,4.6-3.8,6.6-7.9,7.6c-0.6,0.2-1.3,0.3-1.9,0.4c-0.2,0-0.5,0-0.7,0
		c-0.3,0-0.7,0.1-1,0.1c-0.7,0-1.3,0-2,0c-0.3,0-0.6-0.1-0.9-0.1c-0.2,0-0.4,0-0.6,0c-1.4-0.4-2.8-0.6-4.1-1.2
		c-3.4-1.4-5-4.4-4.6-7.9c2.2,0,4.4,0,6.7,0c0,0.2,0,0.3,0,0.4c-0.1,1.6,0.7,2.7,2.2,3.3c1.9,0.8,3.8,0.9,5.8,0.1
		c1.2-0.5,1.8-1.5,1.8-2.7c0-1.1-0.5-2-1.6-2.4c-1.2-0.5-2.5-0.9-3.8-1.3c-1.5-0.5-2.9-0.9-4.4-1.5c-2-0.8-3.5-2-3.9-4.2
		c-0.8-3.8,0.7-6.9,4.2-8.6c2.7-1.4,5.7-1.7,8.7-1.6c0.3,0,0.7,0,1,0c0.1,0,0.2,0,0.3,0c1.2,0.3,2.4,0.5,3.5,0.9
		c2.7,1,4.2,3,4.5,5.8c0,0.1,0.1,0.3,0.1,0.4c0,0.1,0,0.2,0,0.4c0,0.2,0,0.5,0,0.7c0,0,0,0-0.1,0.1c-2.2,0-4.4,0-6.6,0
		c-0.1-0.3-0.1-0.7-0.2-1C137.8,75.3,137.8,75.2,137.8,75.1z"/>
	<path class="st0" d="M154.6,95.6c-0.8-0.2-1.6-0.3-2.4-0.6c-3.6-1.2-5.8-3.7-6.5-7.4c-0.8-4.5-0.2-8.9,2.2-12.9
		c3.1-5,7.7-7,13.5-6.7c1.8,0.1,3.5,0.4,5.1,1.1c3.5,1.5,5.5,4.8,5.5,8.6c-2.4,0-4.8,0-7.2,0c0-0.1,0-0.2,0-0.3
		c-0.2-2.6-1.4-3.8-4.1-4c-2.8-0.2-4.9,1-6.2,3.4c-1.5,2.7-2.1,5.7-1.8,8.8c0.2,2,1,3.6,3,4.3c2.2,0.7,4.3,0.3,5.9-1.4
		c0.7-0.8,1.1-1.8,1.7-2.7c0.1-0.2,0.3-0.4,0.4-0.4c2.3,0,4.6,0,6.9,0c-0.6,2-1.5,3.7-2.7,5.3c-2,2.6-4.7,4.2-8,4.8
		c-0.1,0-0.3,0.1-0.4,0.1c-0.2,0-0.4,0-0.6,0c-0.3,0-0.6,0.1-0.9,0.1c-0.7,0-1.3,0-2,0c-0.3,0-0.6-0.1-0.9-0.1
		C155,95.6,154.8,95.6,154.6,95.6z"/>
	<path class="st1" d="M226.1,95.6c0.4,0,0.7,0.1,1.1,0.1c-0.4,0-0.8,0-1.1,0C226.1,95.7,226.2,95.7,226.1,95.6
		C226.2,95.6,226.1,95.6,226.1,95.6z"/>
	<path class="st2" d="M230,95.6c0,0,0,0.1,0,0.1c-0.4,0-0.8,0-1.1,0C229.2,95.7,229.6,95.6,230,95.6z"/>
	<path class="st3" d="M44.6,95.7c0.3,0,0.7-0.1,1-0.1c0,0,0,0.1,0,0.1C45.3,95.7,45,95.7,44.6,95.7z"/>
	<path class="st4" d="M105.9,95.7c0.3,0,0.7-0.1,1-0.1c0,0,0,0.1,0,0.1C106.5,95.7,106.2,95.7,105.9,95.7z"/>
	<path class="st5" d="M131.9,95.7c0.3,0,0.7-0.1,1-0.1c0,0,0,0.1,0,0.1C132.5,95.7,132.2,95.7,131.9,95.7z"/>
	<path class="st6" d="M102.9,95.6c0.3,0,0.6,0.1,0.9,0.1c-0.3,0-0.6,0-0.9,0C102.9,95.7,102.9,95.7,102.9,95.6z"/>
	<path class="st7" d="M129,95.6c0.3,0,0.6,0.1,0.9,0.1c-0.3,0-0.6,0-0.9,0C129,95.7,129,95.7,129,95.6z"/>
	<path class="st8" d="M155.2,95.6c0.3,0,0.6,0.1,0.9,0.1c-0.3,0-0.6,0-0.9,0C155.3,95.7,155.2,95.7,155.2,95.6z"/>
	<path class="st9" d="M158.1,95.7c0.3,0,0.6-0.1,0.9-0.1c0,0,0,0.1,0,0.1C158.7,95.7,158.4,95.7,158.1,95.7z"/>
	<path class="st3" d="M132.9,95.7C132.9,95.7,132.9,95.7,132.9,95.7c0.3-0.1,0.5-0.1,0.7-0.1c0,0,0,0.1,0,0.1
		C133.4,95.7,133.1,95.7,132.9,95.7z"/>
	<path class="st10" d="M180.6,95.7c0.3,0,0.5-0.1,0.8-0.1c0,0,0,0.1,0,0.1C181.1,95.7,180.9,95.7,180.6,95.7z"/>
	<path class="st11" d="M178.2,95.6c0.3,0,0.5,0.1,0.8,0.1c-0.2,0-0.5,0-0.8,0C178.3,95.7,178.2,95.7,178.2,95.6z"/>
	<path class="st12" d="M41.9,95.6c0.3,0,0.5,0.1,0.8,0.1c-0.2,0-0.5,0-0.8,0C41.9,95.7,41.9,95.7,41.9,95.6z"/>
	<path class="st3" d="M129,95.6c0,0,0,0.1,0,0.1c-0.2,0-0.4,0-0.6,0c0,0,0-0.1,0-0.1C128.6,95.6,128.8,95.6,129,95.6z"/>
	<path class="st3" d="M106.9,95.7c0,0,0-0.1,0-0.1c0.2,0,0.4,0,0.6,0c0,0,0,0.1,0,0.1C107.3,95.7,107.1,95.7,106.9,95.7z"/>
	<path class="st3" d="M159,95.7c0,0,0-0.1,0-0.1c0.2,0,0.4,0,0.6,0c0,0,0,0.1,0,0.1C159.4,95.7,159.2,95.7,159,95.7z"/>
	<path class="st3" d="M155.2,95.6c0,0,0,0.1,0,0.1c-0.2,0-0.4,0-0.6,0c0,0,0-0.1,0-0.1C154.8,95.6,155,95.6,155.2,95.6z"/>
	<path class="st3" d="M102.9,95.6c0,0,0,0.1,0,0.1c-0.2,0-0.4,0-0.6,0c0,0,0-0.1,0-0.1C102.5,95.6,102.7,95.6,102.9,95.6z"/>
	<path class="st3" d="M0.1,94.2c0,0.2-0.1,0.4-0.1,0.6c0-0.2,0-0.4,0-0.6C0,94.2,0.1,94.2,0.1,94.2z"/>
	<path class="st3" d="M41.9,95.6c0,0,0,0.1,0,0.1c-0.2,0-0.3,0-0.5,0c0,0,0-0.1,0-0.1C41.5,95.6,41.7,95.6,41.9,95.6z"/>
	<path class="st3" d="M178.2,95.6c0,0,0,0.1,0,0.1c-0.2,0-0.3,0-0.5,0c0,0,0-0.1,0-0.1C177.9,95.6,178.1,95.6,178.2,95.6z"/>
	<path class="st3" d="M181.4,95.7c0,0,0-0.1,0-0.1c0.2,0,0.3,0,0.5,0c0,0,0,0.1,0,0.1C181.7,95.7,181.5,95.7,181.4,95.7z"/>
	<path class="st0" d="M156.4,46.3c-1.7,0.6-3.5,1.2-5.3,1.9c-6.4,2.2-12.7,4.5-19.1,6.7c-11.4,3.9-23.7-2.1-27.7-13.5
		c-0.8-2.2-1.5-4.4-2.3-6.7c1.3-0.5,2.6-0.9,3.9-1.4c11-3.9,21.9-7.7,32.9-11.6c4.4-1.6,9.2,0.6,10.8,5c2.3,6.4,4.6,12.9,6.8,19.4
		C156.5,46.2,156.4,46.2,156.4,46.3z"/>
	<path class="st13" d="M135.3,18c-11.6,4.1-23.2,8.2-34.8,12.3c-2.3-6.6-4.6-13.1-6.9-19.7c0.8-0.3,1.6-0.6,2.3-0.8
		c8.1-2.9,16.2-5.7,24.2-8.5c1.2-0.4,2.3-0.9,3.5-1.1c2.9-0.5,5.8,1.2,6.8,4c1.5,4.2,2.9,8.3,4.4,12.5C134.9,17,135.1,17.5,135.3,18
		z"/>
	<path class="st0" d="M74.3,72.1c1.7-1.9,3.7-3.3,6.3-3.8c1.1-0.2,2.2-0.2,3.3-0.3c0.1,0,0.1,0,0.2,0c0.6,0.1,1.2,0.1,1.8,0.3
		c3.3,0.8,5.1,3.1,5,6.5c0,1.7-0.4,3.4-0.8,5.1c-1,5-2.1,10-3.2,15.1c-2.4,0-4.8,0-7.2,0c0.2-1,0.4-1.9,0.6-2.9
		c1-4.7,1.9-9.3,2.9-14c0-0.2,0.1-0.5,0.1-0.7c0.2-2.1-1-3.5-3.1-3.6c-2.8-0.1-4.8,1.3-6.2,3.6c-0.9,1.6-1.3,3.3-1.7,5.1
		c-0.8,4-1.7,8.1-2.5,12.1c0,0.1-0.1,0.3-0.1,0.4c-2.4,0-4.8,0-7.2,0c1.8-8.8,3.7-17.5,5.5-26.2c2.3,0,4.6,0,6.9,0
		c-0.2,1.1-0.5,2.2-0.7,3.4c0,0.1,0,0.1,0,0.2C74.1,72.2,74.2,72.2,74.3,72.1z"/>
	<path class="st0" d="M221.4,68.2c-0.5,2.3-0.9,4.6-1.4,7c-0.7-0.1-1.4-0.3-2.1-0.4c-3.4-0.5-6.4,1-8,4.1c-1,2-1.5,4.2-1.9,6.4
		c-0.7,3.2-1.3,6.4-2,9.7c-2.4,0-4.8,0-7.2,0c1.8-8.8,3.7-17.5,5.5-26.2c2.3,0,4.6,0,6.9,0c-0.3,1.4-0.6,2.8-0.9,4.2
		c0,0.1-0.1,0.3-0.1,0.4c0,0,0.1,0,0.1,0c0.1-0.2,0.1-0.3,0.2-0.5c2.3-3.8,5.7-5.2,10-4.9c0.2,0,0.5,0,0.7,0
		C221.2,68.1,221.3,68.1,221.4,68.2z"/>
	<path class="st3" d="M210.4,73c-0.1,0.2-0.1,0.3-0.2,0.5c0,0-0.1,0-0.1,0c0-0.1,0.1-0.3,0.1-0.4C210.2,73,210.3,73,210.4,73z"/>
	<path class="st3" d="M28.3,75.8c-0.1,0-0.2-0.1-0.3-0.1c0,0,0-0.1,0-0.1c0.1,0,0.2,0,0.3,0C28.3,75.7,28.3,75.8,28.3,75.8z"/>
	<path class="st3" d="M144.8,75.6c0-0.1,0-0.2,0-0.4C144.7,75.3,144.8,75.5,144.8,75.6z"/>
	<path class="st3" d="M187.7,92.7c0.1,0,0.1-0.1,0.2-0.1c0,0,0,0.1,0,0.1C187.8,92.7,187.8,92.7,187.7,92.7z"/>
	<path class="st3" d="M51.4,92.7c0,0,0.1-0.1,0.1-0.1c0,0,0,0.1,0,0.1C51.5,92.7,51.4,92.7,51.4,92.7z"/>
	<path class="st3" d="M143.4,87.6c0-0.1,0-0.2,0-0.2C143.4,87.4,143.4,87.5,143.4,87.6z"/>
	<path class="st3" d="M136.6,68.1c-0.1,0-0.2,0-0.3,0C136.5,68.1,136.5,68.1,136.6,68.1z"/>
	<path class="st3" d="M143.4,86.2c0-0.1,0-0.2,0-0.3C143.4,86.1,143.4,86.1,143.4,86.2z"/>
	<path class="st3" d="M61.7,76.2c0-0.1,0-0.2,0-0.2C61.8,76.1,61.7,76.1,61.7,76.2z"/>
	<path class="st3" d="M74.3,72.1c-0.1,0.1-0.1,0.1-0.2,0.2c0-0.1,0-0.1,0-0.2C74.1,72.1,74.2,72.1,74.3,72.1z"/>
	<path class="st3" d="M221.4,68.2c-0.1,0-0.2,0-0.2-0.1C221.2,68.1,221.3,68.1,221.4,68.2z"/>
	<path class="st3" d="M54.9,75.2c0,0.1,0.1,0.2,0.1,0.3C55,75.4,54.9,75.3,54.9,75.2z"/>
	<path class="st3" d="M84,68c-0.1,0-0.1,0-0.2,0C83.9,68,84,68,84,68z"/>
	<path class="st3" d="M26,58.8c0,0-0.1,0-0.1,0C25.9,58.8,26,58.8,26,58.8z"/>
	<path class="st3" d="M105,68.2c0,0-0.1,0-0.1,0C104.9,68.2,105,68.2,105,68.2z"/>
	<path class="st3" d="M33.2,82.4C33.2,82.3,33.2,82.3,33.2,82.4c0-0.1,0-0.1,0-0.1C33.3,82.3,33.3,82.3,33.2,82.4z"/>
	<path class="st3" d="M43.1,80.2c-0.1,0-0.1,0-0.2,0.1C42.9,80.2,43,80.2,43.1,80.2z"/>
	<path class="st3" d="M182.1,79.7c0,0-0.1,0-0.1,0C182.1,79.7,182.1,79.7,182.1,79.7z"/>
	<path class="st3" d="M174.9,76c0,0,0,0.1,0,0.1C174.8,76.1,174.8,76,174.9,76C174.8,76,174.8,76,174.9,76z"/>
	<path class="st3" d="M137.8,75.1c0,0.1,0,0.1,0.1,0.2C137.8,75.3,137.8,75.2,137.8,75.1z"/>
	<path class="st3" d="M189.1,73.2c0.1,0,0.1,0.1,0.2,0.1C189.3,73.3,189.2,73.3,189.1,73.2z"/>
</g>
</svg>
