<?xml version="1.0" encoding="utf-8"?>
<!-- Generator: Adobe Illustrator 21.0.0, SVG Export Plug-In . SVG Version: 6.00 Build 0)  -->
<svg version="1.1" id="Camada_1" xmlns="http://www.w3.org/2000/svg" xmlns:xlink="http://www.w3.org/1999/xlink" x="0px" y="0px"
	 viewBox="0 0 250.1 59.1" style="enable-background:new 0 0 250.1 59.1;" xml:space="preserve">
<style type="text/css">
	.st0{fill:#025CA0;}
	.st1{fill:#025DA0;}
	.st2{fill:#F9FCFB;}
	.st3{fill:#467FA9;}
	.st4{fill:#2F6D9A;}
	.st5{fill:#ADD1E7;}
	.st6{fill:#BFDFEE;}
	.st7{fill:#CBE6F2;}
	.st8{fill:#3B7098;}
	.st9{fill:#539AC1;}
	.st10{fill:#2E99CF;}
	.st11{fill:#B2D6E9;}
	.st12{fill:#3C76A1;}
	.st13{fill:#F6FAFB;}
	.st14{fill:#065EA0;}
	.st15{fill:#015BA0;}
	.st16{fill:#276A9D;}
	.st17{fill:#11588B;}
	.st18{fill:#045C9F;}
	.st19{fill:#FDFEFE;}
	.st20{fill:#0192DD;}
	.st21{fill:#035CA0;}
	.st22{fill:#088DD3;}
	.st23{fill:#0191DC;}
	.st24{fill:#015CA0;}
	.st25{fill:#0192DC;}
	.st26{fill:#FCFDFC;}
</style>
<path class="st0" d="M99,51.9c-0.3,0-0.6,0-1,0c-0.4-0.2-0.9-0.5-1.3-0.6c-0.8-0.1-1.6-0.2-2.2-0.7c-0.4-0.3-0.7-0.6-1.2-0.8
	c-0.5-0.2-0.7-0.5-1-0.8c-0.4-0.3-0.6-0.7-1-1.1c-0.1-0.1-0.1-0.2-0.2-0.3c-0.1-0.3-0.2-0.6-0.3-0.9c-0.3-0.7-0.7-1.3-0.9-2
	c-0.2-1.1-0.1-2.3,0.4-3.4c0.1-0.2,0.3-0.3,0.4-0.5c0.1-1.1,1.1-1.5,1.6-2.3c0.3-0.4,1-0.8,1.5-1.1c0.8-0.4,1.6-1.2,2.6-1.2
	c0.1,0,0.1-0.1,0.2-0.1c0.9-0.5,1.9-0.8,2.9-0.7c0.1,0,0.2,0,0.3,0c0.6-0.1,1.2-0.3,1.8-0.4c1.7,0,3.4,0,5.1,0
	c0.6,0,0.7-0.1,0.7-0.7c0-0.3,0.1-0.7,0-1c-0.1-0.3-0.3-0.5-0.4-0.7l0,0c0-0.4,0-0.9-0.5-0.9l0,0c0,0-0.1-0.1-0.1-0.1l0,0
	c-0.1-0.9-0.9-1.1-1.5-1.3c-0.6-0.3-1.4-0.2-2.2-0.2c-0.7,0-1.5,0.2-2.2,0.2c-1.3-0.1-2.2,0.7-3.3,1c-0.4,0.1-0.8,0.5-1.2,0.8
	c-0.1,0.1-0.3,0.1-0.4,0c-0.6-0.5-1.2-1-1.8-1.6c-0.1,0-0.1-0.1-0.1-0.2c-0.4-0.4-0.7-0.8-1.1-1.1c-0.1-0.1-0.3-0.3-0.4-0.5
	c0-0.1,0.2-0.3,0.4-0.4c0.5-0.3,1-0.6,1.6-0.8c0.6-0.3,1.3-0.6,1.9-0.9c0.8-0.3,1.7-0.5,2.6-0.8c0.8-0.2,1.6-0.7,2.5-0.5
	c0.2,0,0.4,0,0.6,0c0.8-0.1,1.5-0.3,2.3-0.4c1-0.1,1.9,0,2.9,0.4c0.7,0.3,1.5,0.2,2.2,0.7c0.4,0.3,0.9,0.5,1.3,0.8
	c0.1,0.1,0.2,0.4,0.3,0.4c0.6,0.2,0.9,0.6,1.2,1.1c0.5,0.7,1,1.4,1.4,2.1c0.3,0.5,0.6,1.1,0.8,1.7c0,0,0,0.1,0,0.1
	c0,0.2,0,0.3,0,0.5c0,5.8,0,11.5,0,17.3c0,0.4-0.1,0.6-0.5,0.6c-1.6,0-3.1,0-4.7,0c-0.3,0-0.5-0.1-0.8-0.1c-0.3,0-0.5,0-0.7,0.1
	c-0.3-0.9,0.3-1.9-0.5-2.4c-0.6,0.4-1.2,0.8-1.8,1.2c-0.6,0.4-1.1,0.8-1.7,1.3c0,0,0,0,0,0c-0.5,0.1-0.9,0.1-1.4,0.2
	c-0.6,0.1-1.2,0.2-1.7,0.4C99.9,51.5,99.4,51.7,99,51.9z M104.3,39.7C104.3,39.7,104.3,39.7,104.3,39.7c-0.6,0-1.3,0-1.9,0
	c-1.4,0.1-2.8,0.5-3.9,1.4c-0.8,0.6-1.2,1.4-1.1,2.5c0.1,1.2,0.9,1.8,2,2.1c1.9,0.7,3.7,0.5,5.5-0.4c1.5-0.8,2.3-2,2.2-3.7
	c0-0.4,0-0.8,0-1.3c0.1-0.5-0.2-0.6-0.6-0.6C105.8,39.7,105,39.7,104.3,39.7z"/>
<path class="st1" d="M243.3,51.2c-0.2,0-0.3,0-0.5,0c-2.2,0-4.4,0-6.6,0c-0.4,0-0.6-0.1-0.6-0.6c0-13.2,0-26.5,0-39.7
	c0-0.1,0-0.2,0-0.4c2.5,0,5,0,7.6,0C243.3,24,243.3,37.6,243.3,51.2z"/>
<path class="st2" d="M178.7,51.2c0.1,0.7-0.1,0.8-0.7,0.6c-0.4-0.1-0.9-0.2-1.4-0.3c0,0.1,0,0.2-0.1,0.5c-0.3-0.1-0.7-0.2-1-0.2
	c-1.7,0-3.3,0.1-5,0.1c-0.3,0-0.6-0.1-0.9-0.2c0,0.1-0.1,0.2-0.1,0.3c-0.1,0-0.2-0.1-0.2-0.1c0-0.2-0.1-0.4,0-0.6
	c0.1-0.2,0.3-0.4,0.4-0.7c0,0-0.1-0.1-0.1-0.1c-0.1,0.1-0.1,0.1-0.2,0.2c-0.3,0.1-0.5,0.1-0.8,0.1c-0.1,0-0.2-0.4-0.2-0.6
	c0-7.6,0-15.2,0-22.7c0-0.6,0.1-1.1,0.2-1.7c0-0.1,0.3-0.2,0.4-0.2c0.3,0.2,0.5,0.1,0.7-0.2c0.2-0.3,0.4-0.5,0.7-0.8
	c0,0-0.1-0.2-0.3-0.3c0.2-0.1,0.3-0.3,0.4-0.3c0.1,0,0.2,0.3,0.3,0.4c0.2,0.1,0.4,0.3,0.6,0.3c1.2,0,2.4-0.1,3.5-0.1
	c0.4,0,0.8,0.1,1.2,0.2c0.1-0.1,0.2-0.4,0.5-0.6c0.4-0.2,0.8-0.1,1.1,0.1c0.2,0.2,0.5,0.2,0.8,0.3c0.1,0.1,0.3,0.2,0.3,0.4
	c0,0.3-0.1,0.5-0.1,0.8c0,0.2-0.1,0.4,0,0.4c0.4,0.4,0.3,0.9,0.3,1.4c0,7.5,0,15,0,22.4c0,0.2,0,0.4-0.1,0.6c-0.1,0-0.1,0-0.2,0
	c0-0.2-0.1-0.4-0.1-0.5c0-3.4,0-6.7,0-10.1c0-4.2,0-8.5,0-12.7c0-0.2,0.1-0.6-0.4-0.7c0,0.2,0,0.4,0,0.5c0,7.8,0,15.7,0,23.5
	C178.1,51,178.2,51.3,178.7,51.2z M177.9,38.2c0-4.1,0-8.2,0-12.3c0-0.4-0.1-0.6-0.6-0.6c-2.2,0-4.3,0-6.5,0c-0.5,0-0.6,0.2-0.6,0.6
	c0,1.3,0,2.6,0,3.9c0,6.9,0,13.8,0,20.7c0,0.5,0.2,0.7,0.7,0.7c2.1,0,4.2,0,6.2,0c0.7,0,0.7,0,0.7-0.7
	C177.9,46.4,177.9,42.3,177.9,38.2z"/>
<path class="st3" d="M223.6,48.3c-0.2,0.1-0.4,0.2-0.5,0.3c-1.9,1.4-3.9,2.4-6.3,2.6c-2.9,0.3-5.6-0.1-7.7-2.4
	c-1.1-1.2-1.8-2.5-2-4.1c-0.2-1.2-0.3-2.4-0.3-3.6c0-5,0-10.1,0-15.1c0-0.8,0-0.8,0.8-0.8c2.1,0,4.2,0,6.3,0c0.8,0,0.8,0,0.8,0.8
	c0,4.3,0,8.6,0,12.9c0,1.2,0,2.4,0.5,3.6c0.6,1.6,1.7,2,3.2,1.9c2-0.1,3.5-1.3,4.8-2.8c0.4-0.5,0.5-1.1,0.5-1.8c0-4.6,0-9.3,0-13.9
	c0-0.7,0-0.7,0.8-0.7c2.2,0,4.3,0,6.5,0c0.4,0,0.7,0.1,0.6,0.6c0,0.5,0,1,0,1.5c0,7.7,0,15.4,0,23.2c0,0.8,0,0.8-0.8,0.8
	c-2.2,0-4.3,0-6.5,0c-0.5,0-0.7-0.1-0.7-0.7c0-0.6,0-1.1,0-1.7C223.7,48.8,223.6,48.6,223.6,48.3z M231.3,38.4c0-3.9,0-7.9,0-11.8
	c0-0.8-0.3-1.1-1.1-1.1c-1.8,0-3.5,0-5.3,0c-0.8,0-0.8,0.1-0.8,0.8c0,4.5,0,9.1,0,13.6c0,0.6,0,1.3-0.4,1.6
	c-0.7,0.8-1.3,1.8-2.5,2.2c-0.3,0.1-0.5,0.5-0.7,0.6c-0.6,0.2-1.2,0.4-1.8,0.4c-0.8,0-1.6-0.1-2.2-0.3c-0.6-0.2-1.1-0.7-1.4-1.4
	c-0.3-0.7-0.5-1.4-0.5-2.1c0-4.5,0-9.1,0-13.6c0-0.4-0.1-0.8-0.1-1.2c0-0.4-0.1-0.6-0.5-0.6c-2,0-4.1,0-6.1,0
	c-0.5,0-0.7,0.2-0.7,0.7c0.1,5.7-0.2,11.5,0.2,17.2c0.1,1.2,0.3,2.3,0.9,3.4c0.4,0.7,0.8,1.5,1.4,2.1c0.8,0.7,1.7,1.2,2.6,1.7
	c0.8,0.3,1.7,0.5,2.5,0.5c1.3,0,2.5-0.2,3.8-0.3c0.2,0,0.3-0.1,0.5-0.2c1.5-0.6,2.9-1.5,4.2-2.4c0.1-0.1,0.4-0.2,0.5-0.1
	c0.2,0.1,0.3,0.4,0.3,0.6c0,0.5,0,1.1,0,1.6c0,0.6,0.1,0.8,0.8,0.8c1.9,0,3.7,0,5.6,0c0.8,0,0.8-0.1,0.8-0.9
	C231.3,46.2,231.3,42.3,231.3,38.4z"/>
<path class="st2" d="M159.5,32.1c-0.1,0.2-0.2,0.4-0.4,0.6c-0.2,0.2-0.5,0.4-0.4,0.8c0.1,0.4-0.1,0.6-0.6,0.5
	c-0.3-0.1-0.7,0-0.8,0.2c-0.2,0.3-0.8,0.6-0.3,1.2c0.1,0.2,0.4,0.5,0,0.8c-0.1,0.1-0.1,0.3-0.1,0.4c0,4.6,0,9.1,0,13.7
	c0,0.2,0.1,0.4,0.2,0.5c0.1,0.2,0.2,0.3-0.2,0.5c-0.4,0.1-0.8,0.5-1.2,0.6c-0.4,0.1-0.8,0.1-1.2,0.1c-0.8,0-1.5-0.1-2.3-0.2
	c-0.5,0-1,0-1.4,0c-1.3,0.1-2.5,0.1-3.8,0.2c-0.1,0-0.3,0-0.4,0c-0.1-0.1-0.3-0.2-0.3-0.3c0-0.1,0.2-0.3,0.3-0.3c0.3,0,0.5,0,0.9,0
	c0.1-0.8,0.1-1.5,0.1-2.3c0-7.3,0-14.6,0-21.8c0-0.2,0-0.4,0-0.6c-0.1,0-0.1,0-0.2,0c0,0.2-0.1,0.4-0.1,0.7c0,0.2,0,0.3,0,0.5
	c0,7.3,0,14.7,0,22c0,0.2,0,0.4-0.1,0.6c-0.1,0-0.1,0-0.2,0c0-0.2-0.1-0.3-0.1-0.5c0-0.3,0.1-0.7,0.1-1c0-5.3,0-10.5,0-15.8
	c0-1.7-0.1-3.5-0.1-5.2c0-0.5,0.3-0.9-0.1-1.4c0,0,0.1-0.3,0.3-0.4c0.1-0.1,0.3,0,0.5,0c0-0.3,0-0.7,0-0.9c-0.4-0.1-0.7-0.2-1-0.3
	c0-0.1,0-0.2,0-0.3c0.4-0.1,0.8-0.2,1.2-0.3c0.1,0,0.1,0,0.2,0c0.9-0.5,1.8,0.4,2.7,0.1c0.5-0.1,1,0,1.5,0c0.7,0,1.4,0,2.1,0
	c0.2,0,0.3,0,0.5,0c0-0.1,0-0.1-0.1-0.1c-0.1-0.1-0.3-0.2-0.4-0.2c0-0.1,0.1-0.2,0.1-0.2c0.2,0,0.4,0.1,0.6,0.2
	c0.1,0,0.1,0.2,0.1,0.2c0.6,0.1,0.5,0.5,0.4,0.9c-2.3,0-4.5,0-6.8,0c-0.6,0-0.9,0.4-0.9,1c0,0.3,0.1,0.5,0.1,0.8
	c0,7.9,0,15.9,0,23.8c0,0.4,0.1,0.6,0.6,0.6c2.2,0,4.5,0,6.7,0c0.5,0,0.6-0.2,0.6-0.7c0-4.6,0-9.2,0-13.7c0-1.3,0.4-2.3,1.1-3.3
	c0.1-0.1,0.1-0.3,0.1-0.4c0,0,0,0,0,0c0.2-0.1,0.3-0.2,0.5-0.3C158.4,32.6,159,32.4,159.5,32.1z"/>
<path class="st4" d="M84.5,26.5c-0.3,0.5-0.6,1.2-1.1,1.6c-0.9,0.7-1.8,1.4-2.8,2c-0.2,0.1-0.3,0.2-0.6,0.4c0.4,0.2,0.7,0.3,1,0.4
	c3.8,1.3,5.5,4.1,5.8,7.9c0.2,2.2-0.1,4.3-1,6.3c-1,2-2.5,3.3-4.5,4.2c-2.5,1.1-5.1,1.4-7.7,1.4c-4.8,0-9.7,0-14.6,0
	c-0.5,0-0.6-0.1-0.6-0.6c0-12.2,0-24.4,0-36.6c0-0.4,0.1-0.6,0.6-0.6c4.1,0,8.3,0,12.4,0c2.8,0,5.5,0.4,8.2,1.2c3.3,1,5.6,4,5.8,7.4
	c0.1,1.4,0,2.8-0.5,4.2C84.8,26,84.7,26.2,84.5,26.5c0-0.2,0-0.4,0-0.5c0.1-0.3,0.1-0.6,0.2-0.8c0,0,0,0,0,0
	c0.1-0.1,0.1-0.3,0.2-0.4c0,0,0,0,0,0c0.1-0.3,0.2-0.5,0.2-0.8c0-0.8,0-1.7,0-2.5c0-0.3-0.1-0.6-0.2-0.9c0,0,0,0,0,0
	c-0.1-0.1-0.1-0.2-0.2-0.3c0,0,0-0.1,0-0.1c-0.1-0.3-0.1-0.6-0.2-0.8c0-0.1,0-0.2,0-0.3c0,0-0.1-0.1-0.1-0.1c0-0.1-0.1-0.1-0.1-0.2
	c-0.1-0.1-0.1-0.1-0.2-0.2l0,0c-0.1-0.1-0.1-0.3-0.2-0.4c0,0,0,0,0,0c-0.1-0.1-0.1-0.3-0.2-0.4c0,0,0,0,0,0
	c-0.1-0.1-0.1-0.1-0.2-0.2l0,0c-0.1-0.1-0.1-0.3-0.2-0.4c-0.4-0.4-0.9-0.7-1.3-1.1l0,0c-0.1-0.1-0.1-0.1-0.2-0.2c0,0-0.1,0-0.1,0
	c-0.1-0.1-0.2-0.1-0.3-0.2c-0.1,0-0.1,0-0.2,0c-0.1-0.1-0.3-0.1-0.4-0.2c0,0,0,0,0,0c-0.2-0.1-0.4-0.3-0.6-0.4l0,0
	c-0.2-0.1-0.4-0.1-0.6-0.2c-0.1,0-0.1,0-0.2,0c-0.2-0.1-0.4-0.1-0.6-0.2c-0.1,0-0.1,0-0.2,0c-0.1-0.1-0.3-0.1-0.4-0.2l0,0
	c-0.1-0.1-0.3-0.1-0.4-0.2c-0.1,0-0.2,0-0.3,0c-0.2-0.1-0.3-0.2-0.5-0.2c-0.8-0.1-1.7-0.2-2.5-0.3c-0.1,0-0.2-0.1-0.3-0.1
	c-5,0-9.9,0-14.9,0c-0.1,0.2-0.2,0.4-0.2,0.6c0,11.8,0,23.6,0,35.4c0,0.1,0,0.2,0,0.3c0,0.2,0,0.4,0,0.6c0,0.1,0.1,0.3,0.2,0.4
	c0.3,0,0.5,0,0.8,0c1.2,0,2.4,0,3.6,0c0.2,0,0.5,0,0.7,0c0.3,0,0.7,0,1,0c0.3,0,0.6,0,0.9,0c0.2,0,0.3,0,0.5,0c0.5,0,1,0,1.4,0
	c0.1,0,0.2,0,0.4,0c0.4,0,0.7,0,1.1,0c0.3,0,0.5,0,0.8,0c0.7,0,1.3,0,2,0c0.1,0,0.2,0,0.4,0c0.1,0,0.2,0,0.3,0c0.3,0,0.6,0,0.9,0
	c0.2,0,0.5-0.1,0.7-0.1c1-0.1,2-0.1,3-0.2c0.1,0,0.1-0.1,0.2-0.2c0.1,0,0.1,0,0.2,0c0.3,0,0.6,0.1,0.8,0c0.3-0.1,0.6-0.3,0.8-0.4
	c0,0,0,0,0,0c0.3-0.1,0.6-0.1,0.8-0.2l0,0c0.1-0.1,0.3-0.1,0.4-0.2l0,0c0.2,0,0.4,0,0.6,0c-0.1-0.1-0.1-0.2-0.2-0.2
	c0.1,0,0.1,0,0.2,0c0.1-0.1,0.3-0.1,0.4-0.2l0,0c0.1-0.1,0.1-0.1,0.2-0.2c0.1,0,0.1,0,0.2,0c0.1-0.1,0.3-0.1,0.4-0.2l0,0
	c0.1-0.1,0.1-0.1,0.2-0.2l0,0c0.1-0.1,0.3-0.1,0.4-0.2l0,0c0.4-0.1,0.4-0.3,0.4-0.6l0,0c0.1-0.1,0.1-0.1,0.2-0.2l0,0
	c0.3,0,0.6-0.1,0.6-0.4c0,0,0,0,0,0c0.1-0.1,0.1-0.1,0.2-0.2c0-0.1,0-0.1,0-0.2c0.1-0.1,0.1-0.1,0.2-0.2l0,0
	c0.1-0.1,0.1-0.3,0.2-0.4l0,0c0.1-0.1,0.1-0.1,0.2-0.2l0,0c0.1-0.1,0.1-0.1,0.2-0.2c0,0,0-0.1,0-0.1c0-0.1,0.1-0.1,0.1-0.2
	c0,0,0-0.1,0-0.1c0-0.1,0.1-0.2,0.1-0.3c0-0.2,0-0.5,0.1-0.7c0.5-0.8,0.6-1.7,0.6-2.7c0-0.4,0.1-0.9,0.2-1.3c0-0.1,0-0.3-0.1-0.4
	c0-0.1-0.1-0.3-0.1-0.4c0.2-1.2-0.3-2.2-0.7-3.3c-0.1-0.3-0.1-0.6-0.2-0.8c-0.3-0.5-0.7-1-1-1.5c-0.3-0.5-0.9-0.7-1.3-1.1
	c-0.5-0.5-1.3-0.6-2-0.9c-0.4-0.2-0.9-0.2-1.2-0.7c-0.1-0.3-0.2-0.4-0.1-0.6c0.1-0.2,0.3-0.3,0.5-0.4c0.5-0.3,1.1-0.4,1.5-0.8
	c0.8-0.7,1.5-1.5,2.2-2.3C84.3,26.6,84.4,26.5,84.5,26.5z"/>
<path class="st3" d="M135.6,32.3C135.6,32.2,135.6,32.2,135.6,32.3c-0.1-0.1-0.1-0.2-0.1-0.2c0,0,0,0,0,0c-0.4-0.8-1.1-1.2-2-1.4
	c-1.6-0.2-2.9,0.3-4,1.4c-0.6,0.6-1.1,1.3-1.7,2c0-0.2,0-0.4,0.1-0.5c0.6-0.8,1.2-1.5,1.8-2.2c0.2-0.2,0.4-0.2,0.7-0.3
	c0.2-0.1,0.3-0.1,0.5-0.2c0.9-0.5,1.9-0.7,2.9-0.4c1.5,0.4,2.3,1.6,2.7,3c0.2,0.8,0.2,1.6,0.2,2.4c0,0.8,0,1.6,0,2.5
	c0,3.9,0,7.8,0,11.7c0,0.8,0.1,0.9,0.9,0.9c1.8,0,3.6,0,5.4,0c0.8,0,0.8,0,0.8-0.8c0-4.5,0.1-9,0-13.5c0-1.7,0.2-3.4-0.5-5.1
	c-0.4-0.9-0.4-1.8-0.9-2.7c-0.9-1.7-2.2-3-4-3.4c-2.3-0.6-4.8-0.6-7,0.6c-0.5,0.3-1.1,0.5-1.5,0.8c-0.5,0.4-1,0.9-1.5,1.4
	c-0.2,0.2-0.4,0.3-0.7,0.4c-0.1,0-0.3,0-0.3-0.1c-0.1-0.2-0.2-0.5-0.2-0.7c0-0.5,0-1.1,0-1.6c0-0.5-0.2-0.7-0.7-0.7
	c-1.1,0-2.2,0-3.2,0c-0.8,0-1.7,0-2.5,0c-0.5,0-0.6,0.2-0.5,0.7c0,0.1,0,0.2,0,0.3c0,0.2-0.1,0.5-0.1,0.7c0,7.7,0,15.4,0,23.1
	c0,0.1,0,0.3,0,0.4c0,0.1,0.2,0.3,0.2,0.3c0.5,0.1,1,0.1,1.5,0.1c1.1,0,2.2,0,3.3,0c0.7,0,1.4-0.1,2.2-0.1c0-1.6,0-3.2,0-4.7
	c0-3.7,0-7.4,0-11.1c0-0.4,0-0.8,0.4-1c-0.1,0.5-0.2,0.9-0.2,1.4c0,5,0,10,0,15c0,0.5-0.1,0.7-0.7,0.7c-2.1,0-4.2,0-6.3,0
	c-0.5,0-0.6-0.1-0.6-0.6c0-8.2,0-16.5,0-24.7c0-0.2,0.1-0.4,0.1-0.6c0,0,0,0,0,0c2.3,0,4.6,0,6.9,0c0.5,0,0.7,0.1,0.6,0.6
	c0,0.8,0,1.6,0,2.4c0,0,0.1,0.1,0.1,0.1c0.2-0.3,0.5-0.5,0.7-0.8c0,0,0,0,0,0c0,0,0.1-0.1,0.1-0.1l0,0c0,0,0,0,0,0
	c0,0,0.1-0.1,0.1-0.1c0,0,0,0,0,0c0.1,0,0.1-0.1,0.2-0.1v0c0.3-0.2,0.5-0.4,0.8-0.6c0,0,0,0,0.1,0c0.1-0.1,0.2-0.1,0.3-0.2
	c0,0,0,0,0,0c0,0,0.1-0.1,0.1-0.1l0,0c0.5-0.2,0.9-0.5,1.4-0.7l0,0c0,0,0,0,0,0c0.8-0.2,1.6-0.4,2.3-0.6c0.1,0,0.3,0,0.4,0
	c1,0,1.9,0,2.9,0c0.1,0,0.2,0,0.3,0c0.9,0.3,1.8,0.7,2.7,1l0,0l0,0c0,0,0.1,0.1,0.1,0.1l0,0c0.2,0.1,0.4,0.3,0.5,0.4c0,0,0,0,0,0
	c0.1,0,0.1,0.1,0.2,0.1c0,0,0,0,0,0c0,0,0.1,0.1,0.1,0.1c0,0,0,0,0,0c0.1,0.1,0.2,0.2,0.3,0.3c0,0,0,0,0,0c0,0,0.1,0.1,0.1,0.1
	c0,0,0,0,0,0c0,0,0.1,0.1,0.1,0.1l0,0c0,0,0.1,0.1,0.1,0.1l0,0c0,0,0.1,0.1,0.1,0.1c0,0,0,0,0,0c0.1,0.1,0.2,0.3,0.3,0.4
	c0,0,0,0,0,0c0,0,0.1,0.1,0.1,0.1c0,0,0,0,0,0c0,0,0.1,0.1,0.1,0.1c0,0,0,0,0,0.1c0.1,0.1,0.1,0.2,0.2,0.3c0,0,0,0,0,0
	c0.1,0.1,0.1,0.3,0.2,0.4l0,0c0,0,0.1,0.1,0.1,0.1c0,0,0,0,0,0c0,0.1,0.1,0.2,0.1,0.3l0,0c0,0.1,0,0.1,0,0.2
	c0.7,1.7,0.9,3.5,0.9,5.4c0,5.4,0,10.9,0,16.3c0,0,0,0,0,0c0,0-0.1,0.1-0.1,0.1c0,0,0,0,0,0c-2.3,0-4.5,0-6.8,0
	c-0.8,0-0.8,0-0.8-0.8c0-4.7,0-9.3,0-14c0-0.6,0-1.3-0.1-1.9C136.1,33.8,135.8,33,135.6,32.3z"/>
<path class="st5" d="M159.5,32.1c-0.6,0.3-1.1,0.6-1.7,0.9c-0.2,0.1-0.3,0.2-0.5,0.3c0.1-0.1,0.2-0.2,0.3-0.3c1.1-1,2.5-1.5,4-1.6
	c1.2-0.1,2.3,0.1,3.5,0.1c0.3,0,0.7,0.2,0.7-0.4c0-2,0-4,0-6c0-0.3-0.1-0.5-0.5-0.5c-1.4-0.2-2.8-0.1-4.1,0.5
	c-1.8,0.8-3.3,2-4.7,3.4c-0.2,0.2-0.3,0.3-0.6,0.5c0-0.3,0-0.5,0-0.6c0-0.7,0-1.4,0-2.2c0-0.5-0.2-0.7-0.7-0.7c-2.1,0-4.2,0-6.3,0
	c-0.4,0-0.5,0.2-0.5,0.6c0,8.2,0,16.4,0,24.6c0,0.4,0.2,0.6,0.6,0.6c2.1,0,4.2,0,6.2,0c0.5,0,0.7-0.2,0.7-0.7c0-4.8,0-9.6,0-14.3
	c0-1.2,0.6-2.1,1.4-2.9c0,0.1,0,0.3-0.1,0.4c-0.8,1-1.2,2-1.1,3.3c0.1,4.6,0,9.2,0,13.7c0,0.5-0.1,0.7-0.6,0.7c-2.2,0-4.5,0-6.7,0
	c-0.5,0-0.6-0.2-0.6-0.6c0-7.9,0-15.9,0-23.8c0-0.3,0-0.5-0.1-0.8c-0.1-0.6,0.2-1,0.9-1c2.3,0,4.5,0,6.8,0c0,0,0,0,0,0
	c0,0,0.1,0.1,0.1,0.1c0.1,0,0.1,0.1,0.2,0.1c0,0.9,0.1,1.9,0.1,2.8c0,0,0,0,0,0.1c0,0,0,0,0.1,0c0.1-0.1,0.2-0.1,0.3-0.2
	c1-0.8,2-1.7,3.1-2.5c1-0.7,2.1-1.1,3.3-1.4c0.4,0,0.8,0,1.2,0c0.1,0,0.2,0,0.3,0c0.3,0,0.6,0,0.8,0c0.2,0.2,0.7,0,0.7,0.4
	c0,0.3,0.1,0.5,0.1,0.8c0,1.9-0.1,3.9-0.1,5.8c0,0.4-0.2,0.5-0.5,0.4c-0.2,0-0.4,0-0.6,0c-0.1,0-0.3,0-0.4,0
	c-0.1-0.1-0.2-0.2-0.4-0.2c-0.7,0-1.4,0-2.2,0c-0.1,0-0.2,0.1-0.3,0.2c-0.1,0-0.1,0-0.2,0C160.8,31.6,160.1,31.6,159.5,32.1
	L159.5,32.1L159.5,32.1z"/>
<path class="st6" d="M114.2,32.4C114.2,32.3,114.2,32.3,114.2,32.4c0-0.2,0-0.3,0-0.4c-0.9-3.4-4-6.7-8.4-7c-3.5-0.2-6.8,0.3-10,1.7
	c-1.3,0.6-2.6,1.2-3.9,1.8c-0.3,0.2-0.4,0.3-0.1,0.7c1.1,1.1,2.2,2.2,3.3,3.4c0.3,0.3,0.5,0.4,0.8,0.1c0,0,0,0,0.1,0.1
	c-0.3,0.4-0.6,0.4-0.9,0.1c-0.7-0.6-1.3-1.3-1.9-1.9c-0.4-0.3-0.8-0.6-1.1-0.9c-0.3-0.4-0.6-0.8-0.9-1.3c0.5-0.3,1-0.6,1.5-0.9
	c0.8-0.4,1.5-0.9,2.3-1.2c1.1-0.4,2.2-0.7,3.3-1.1c1.4-0.5,2.9-0.6,4.4-0.8c0.5-0.1,1.1,0.1,1.6,0.1c0.9,0,1.7,0,2.6,0.1
	c1.2,0.2,2.4,0.6,3.4,1.4c1.2,0.8,2.2,1.9,3,3.1c0.4,0.6,0.6,1.3,0.8,1.9c0.3,1.1,0.5,2.1,0.5,3.2c0,0.9,0.2,1.7,0.2,2.6
	c0,0.9-0.3,1.8-0.1,2.6c0.3,1.6,0.1,3.2,0.1,4.8c0,2-0.1,4.1-0.2,6.1c0,0.3-0.2,0.4-0.4,0.5c-0.4,0.1-0.8,0-1.1,0
	c-0.6,0-1.2,0.2-1.9,0.2c-0.7,0-1.3,0-2,0c-0.6,0-1.3-0.1-1.9-0.2c-0.1,0-0.3-0.2-0.3-0.4c0-0.3,0-0.7,0-1.1c0-0.1-0.1-0.4-0.1-0.4
	c-0.2,0-0.4,0-0.5,0.1c-0.4,0.2-0.8,0.5-1.1,0.7c-0.1,0.1-0.3,0.1-0.4,0.2c0,0,0,0-0.1-0.1c0.8-0.5,1.6-1.1,2.5-1.7c0,0.8,0,1.4,0,2
	c0,0.3,0.1,0.4,0.4,0.4c2.1,0,4.2,0,6.3,0c0.3,0,0.5-0.1,0.5-0.5c0-5.7,0-11.4,0-17.1C114.4,33.1,114.3,32.7,114.2,32.4z"/>
<path class="st7" d="M120,25.3c0,0.2-0.1,0.4-0.1,0.6c0,8.2,0,16.5,0,24.7c0,0.5,0.1,0.6,0.6,0.6c2.1,0,4.2,0,6.3,0
	c0.5,0,0.7-0.2,0.7-0.7c0-5,0-10,0-15c0-0.5,0.1-0.9,0.2-1.4c0,0,0,0,0-0.1c0.6-0.7,1.1-1.4,1.7-2c1.1-1.1,2.4-1.7,4-1.4
	c0.9,0.1,1.6,0.5,2,1.4c-0.1-0.1-0.3-0.1-0.4-0.2c-0.9-0.8-1.9-1.3-3.1-0.8c-0.4,0.2-0.8,0.5-1.3,0.5c0,0-0.1,0.2-0.1,0.2
	c-0.1,0.1-0.2,0.3-0.3,0.3c-1,0.1-1.2,1.1-1.8,1.7c-0.3,0.3-0.5,0.7-0.6,1.2c-0.1,0.5,0,0.9,0,1.4c0,4.8,0,9.5,0,14.3
	c0,0.2-0.1,0.4-0.1,0.7c-0.2,0-0.3,0.1-0.5,0.1c-2.5,0-4.9,0-7.4,0c0,0,0-0.1,0-0.1c0-0.3,0-0.6,0-0.8c0-8,0-16,0-24
	c0-0.3,0-0.6,0-1c0,0,0-0.1,0-0.1C119.8,25.3,119.9,25.3,120,25.3z"/>
<path class="st6" d="M97.2,51.9C96,52,95,51.6,94,51c-0.7-0.4-1.3-0.7-1.8-1.2c-0.6-0.6-1.1-1.4-1.6-2.1c-1-1.6-1.3-3.4-1.1-5.2
	c0.1-0.7,0.5-1.4,0.9-2c0.4-0.6,0.9-1.2,1.3-1.7c0.2-0.2,0.4-0.5,0.7-0.7c1.2-1,2.6-1.5,4-2.1c0.7-0.3,1.5-0.5,2.3-0.6
	c2.2-0.5,4.5-0.5,6.7-0.5c0.3,0,0.7,0.1,1,0.1c0.1,0,0.3-0.1,0.3-0.2c0.1-1,0.1-1.9-0.7-2.7c-0.6-0.6-1.4-0.9-2.2-1.1
	c-0.4-0.1-0.8-0.2-1.3-0.2c-1.1,0-2.2,0.2-3.3,0.5c-1.1,0.3-2.1,0.8-3,1.5c-0.1,0-0.1,0-0.2,0c0,0,0,0-0.1-0.1
	c0.2-0.1,0.3-0.3,0.5-0.4c1.1-0.8,2.3-1.3,3.6-1.6c2.2-0.4,4.4-0.5,6.3,1.1c0,0,0,0,0,0c0,0,0.1,0.1,0.1,0.1c0,0,0,0,0,0
	c0.2,0.3,0.4,0.6,0.5,0.9c0,0,0,0,0,0c0,0.4,0.1,0.9,0.1,1.3c0,0.9,0,0.9-0.9,0.9c-3.6-0.2-7.1,0-10.4,1.3C94,37,92.4,38,91.2,39.5
	c-1.8,2.3-2,4.8-0.7,7.4c1.1,2.3,2.8,3.9,5.3,4.6C96.3,51.7,96.7,51.8,97.2,51.9z"/>
<path class="st4" d="M97.2,51.9c-0.5-0.1-0.9-0.3-1.4-0.4c-2.5-0.7-4.2-2.3-5.3-4.6c-1.3-2.6-1.1-5.1,0.7-7.4
	c1.2-1.5,2.8-2.5,4.6-3.2c3.4-1.3,6.9-1.6,10.4-1.3c0.9,0.1,1,0.1,0.9-0.9c0-0.4-0.1-0.9-0.1-1.3c0.1,0.2,0.3,0.5,0.4,0.7
	c0.1,0.3,0,0.7,0,1c0,0.6-0.1,0.7-0.7,0.7c-1.7,0-3.4,0-5.1,0c-0.6,0-1.2,0.2-1.8,0.4c-0.1,0-0.2,0-0.3,0c-1,0-2,0.3-2.9,0.7
	c-0.1,0-0.1,0.1-0.2,0.1c-1.1,0-1.8,0.7-2.6,1.2c-0.5,0.3-1.1,0.6-1.5,1.1c-0.6,0.7-1.5,1.2-1.6,2.3c0,0.2-0.3,0.3-0.4,0.5
	c-0.5,1.1-0.6,2.2-0.4,3.4c0.2,0.7,0.6,1.3,0.9,2c0.1,0.3,0.2,0.6,0.3,0.9c0,0.1,0.1,0.2,0.2,0.3c0.3,0.4,0.6,0.8,1,1.1
	c0.3,0.3,0.6,0.7,1,0.8c0.4,0.1,0.8,0.5,1.2,0.8c0.7,0.5,1.4,0.6,2.2,0.7c0.5,0.1,0.9,0.4,1.3,0.6C97.7,51.9,97.5,51.9,97.2,51.9z"
	/>
<path class="st4" d="M170,16.9c0-1.8,1.1-3.5,2.6-4.1c2.2-0.8,4.7,0.3,5.3,2.7c0.5,1.8,0.2,3.4-1.2,4.8c-1.6,1.6-4.9,1.5-6.3-1.1
	c-0.3-0.7-0.5-1.5-0.7-2.2C169.9,16.9,170,16.9,170,16.9z M173.9,12.7c-0.6,0.2-1.2,0.3-1.7,0.6c-0.2,0.1-0.2,0.4-0.4,0.6
	c-0.1,0.2-0.3,0.3-0.5,0.4c-0.5,0.3-0.8,0.8-0.8,1.4c0,0.2-0.1,0.4-0.1,0.7c0,0.5-0.1,1.1,0,1.6c0.1,0.6,0.3,1.2,0.9,1.6
	c0.4,0.3,0.7,0.7,1.1,0.9c0.4,0.2,0.5,1,1.2,0.5c0.7,0.4,1.4,0,2.1-0.3c1.4-0.7,2.3-2.4,2.1-4c-0.1-0.6-0.1-1.2-0.4-1.8
	c-0.3-0.6-0.9-0.9-1.2-1.5c0-0.1-0.2-0.1-0.3-0.1c-0.2-0.1-0.4-0.1-0.6-0.2C174.8,13,174.4,12.8,173.9,12.7z"/>
<path class="st2" d="M164.8,31.6c0.2,0,0.4,0,0.6,0c0.3,0,0.5,0,0.5-0.4c0-1.9,0.1-3.9,0.1-5.8c0-0.3-0.1-0.5-0.1-0.8
	c0-0.5-0.5-0.3-0.7-0.4c0.1-0.1,0.2-0.3,0.2-0.3c0.4,0,0.8,0,1.2,0c0,0.5,0.1,1-0.3,1.5c-0.2,0.2-0.3,0.6,0.2,0.8
	c0.2,0.1,0.3,0.5,0.5,0.8c0.4-0.6,0-1.2,0-1.8c0-0.3,0-0.6,0-0.9c0-0.1,0.2-0.2,0.3-0.3c0.1,0.1,0.2,0.2,0.2,0.3c0,0.2,0,0.4,0,0.7
	c0.1,0,0.1,0,0.2,0c0-0.3,0.1-0.6,0.1-1c0.2,0.7,0.4,1.3,0.5,1.9c0,0.2-0.1,0.4-0.2,0.5c-0.1-0.1-0.3-0.3-0.4-0.4
	c-0.1-0.2-0.1-0.4-0.1-0.7c0,0-0.1,0-0.1,0c-0.1,1.2-0.1,2.5-0.2,3.7c-0.1,0-0.2,0-0.2,0c0-0.6,0-1.2,0-1.8c-0.1,0-0.2,0-0.2,0
	c0,0.4,0,0.9,0,1.3c0,0.4-0.1,0.8-0.2,1.2c0,0.2-0.2,0.3-0.4,0.5c0.7,0.4,0.2,1.1,0.4,1.8C166,31.9,165.3,32.2,164.8,31.6z
	 M166.5,26.8C166.4,26.7,166.4,26.7,166.5,26.8c-0.1,0-0.1,0-0.1,0.1C166.4,26.8,166.4,26.8,166.5,26.8
	C166.4,26.8,166.4,26.8,166.5,26.8z"/>
<path class="st2" d="M143.8,31.2c0.1,0.2,0.2,0.5,0.3,0.8c0.5,0.2,0.5,0.2,0.3,1.1c0.6,0.2,0.5,0.2,0.2,0.7
	c-0.2,0.6-0.3,1.2-0.3,1.8c0,0.3,0.1,0.5,0.1,0.8c0,4,0,8,0,12.1c0,0.6-0.1,1.3-0.1,1.9c0,0.2,0.1,0.5,0.2,0.8
	c-0.2,0-0.4-0.1-0.5-0.1C143.9,44.5,144.3,37.9,143.8,31.2z"/>
<path class="st2" d="M156.2,28.1c0-0.9-0.1-1.9-0.1-2.8c0.4,0,0.8-0.2,0.9,0.4c0,0,0.2,0.1,0.3,0.1c0.1-0.1,0.1-0.3,0.2-0.4
	c0.1-0.1,0.2-0.2,0.2-0.2c-0.2-0.5,0.2-0.5,0.5-0.5c0.7,0,1.3-0.1,1.9-0.5c0.1-0.1,0.4-0.1,0.5-0.1c0.4,0.5,0.6,0.1,0.9-0.1
	c0.1,0.1,0.2,0.2,0.4,0.3c0.3-0.5,0.7-0.3,1.1-0.1c-1.2,0.3-2.3,0.6-3.3,1.4c-1,0.8-2,1.6-3.1,2.5C156.5,28.1,156.3,28.1,156.2,28.1
	L156.2,28.1z"/>
<path class="st8" d="M40.9,49.2C40.9,49.2,40.9,49.2,40.9,49.2c-0.1,0.1-0.1,0.2-0.1,0.2c0,0,0,0,0,0c0,0-0.1,0.1-0.1,0.1
	c0,0,0,0,0,0c-0.1,0.1-0.1,0.2-0.2,0.3c0,0,0,0,0,0c0,0.1-0.1,0.1-0.1,0.2l0,0c0,0,0,0,0,0c0,0-0.1,0.1-0.1,0.1c0,0,0,0,0,0
	c0,0-0.1,0.1-0.1,0.1l0,0c0,0,0,0,0,0c-0.2,0-0.3,0-0.5,0c-0.1,0-0.2,0-0.3,0c-0.1,0-0.1,0-0.2,0c-3.6,0-7.2,0-10.9,0
	c-0.4,0-0.7,0-1.1,0c0-0.1,0-0.2,0-0.3c0,0,0,0,0,0c0.3-0.4,0.6-0.8,0.8-1.3c0,0,0,0,0,0c0.1-0.1,0.2-0.1,0.2-0.2
	c-0.1,0.2-0.2,0.5-0.2,0.7c-0.1,0.2-0.1,0.4-0.1,0.6c0,0.1,0.3,0.1,0.4,0.1c3.7,0,7.4,0,11.1,0c0.4,0,0.7-0.1,0.8-0.5
	c0.2-0.3,0.4-0.5,0.6-0.8c0.2-0.3,0.5-0.6,0.7-0.9c0.3-0.5,0.6-0.9,0.8-1.4l0,0c0,0,0.1-0.1,0.1-0.1c0.2-0.3,0.4-0.6,0.6-1
	c0.1-0.1,0.3-0.3,0.4-0.4c0.2-0.2,0.4-0.5,0.6-0.7c0,0,0,0,0,0c-0.5,0.8-1,1.6-1.5,2.4c-0.4,0.7-0.9,1.4-1.3,2.1
	c0,0-0.1,0.1-0.1,0.1l0,0c0,0,0,0,0,0c0,0-0.1,0.1-0.1,0.1c0,0,0,0,0,0C41.1,49,41,49.1,40.9,49.2z"/>
<path class="st9" d="M31,13.2c1.5,2.5,3,4.9,4.5,7.4c0.5,0.9,1,1.7,1.6,2.6c0.2,0.3,0.1,0.4,0,0.7c-1,1.5-2,3.1-3,4.6
	c0,0.1,0,0.1-0.1,0.3c0.4,0,0.9,0,1.3,0c1.3,0,2.6,0,3.9,0c0.4,0,0.7,0.2,0.7,0.6c-0.3-0.3-0.7-0.4-1.1-0.4c-1.4,0-2.9,0-4.3,0
	c-0.3,0-0.5-0.1-0.8-0.2c1-1.6,2.1-3.2,3.1-4.7c0.1-0.1,0-0.3-0.1-0.5c-0.1-0.3-0.1-0.5-0.3-0.8c-0.4-0.8-0.9-1.6-1.4-2.4
	c-0.3-0.5-0.7-0.9-1-1.4c-0.4-0.7-0.8-1.5-1.3-2.2c-0.1-0.1-0.1-0.1-0.2-0.2c0,0,0-0.1,0-0.1c-0.1-0.2-0.3-0.4-0.4-0.6l0,0
	c0-0.5-0.2-0.8-0.6-1.1l0,0c-0.1-0.1-0.1-0.3-0.2-0.4l0,0c-0.1-0.3-0.3-0.6-0.4-0.8c0-0.1,0-0.2,0-0.3C30.9,13.2,30.9,13.2,31,13.2z
	"/>
<path class="st10" d="M33.6,28.7c0.3,0.1,0.5,0.2,0.8,0.2c1.4,0,2.9,0,4.3,0c0.5,0,0.8,0.2,1.1,0.4c0.3,0.4,0.6,0.8,0.9,1.2
	c1.1,1.7,2.2,3.4,3.4,5c0.9,1.4,1.9,2.9,2.8,4.3c0,0-0.1,0-0.1,0c-0.1,0-0.2,0-0.3,0.1c-0.1,0-0.1,0-0.2,0c0-0.1,0-0.3-0.1-0.4
	c-0.3-0.5-0.7-0.9-0.9-1.4c-0.2-0.6-0.6-1.1-1-1.6c-0.3-0.4-0.7-0.8-1-1.2c-0.5-0.7-0.9-1.4-1.3-2.1c-0.3-0.5-0.7-1.1-1.1-1.6
	c-0.3-0.4-0.5-0.8-0.8-1.1c-0.2-0.3-0.5-0.4-0.4-0.8c0-0.1-0.1-0.3-0.2-0.3c-0.4-0.1-0.9-0.2-1.3-0.2c-1.1,0-2.2,0-3.3,0
	c-0.1,0-0.3,0.1-0.4,0.1c-0.3,0-0.6-0.1-0.9-0.1C33.6,29,33.6,28.8,33.6,28.7L33.6,28.7z"/>
<path class="st2" d="M134.3,24.8c-0.1,0-0.3,0-0.4,0c-0.1,0-0.1-0.1-0.2-0.1c-0.6,0.1-1.2,0.3-1.7,0.4c-0.2,0-0.3,0.2-0.4,0.3l0,0
	c0,0,0,0,0,0c-0.6,0-1.1,0.2-1.4,0.7c0,0,0,0,0,0c0,0-0.1,0.1-0.1,0.1c0,0,0,0,0,0c-0.1,0.1-0.2,0.1-0.3,0.2c0,0,0,0-0.1,0
	c-0.5,0-0.6,0.3-0.8,0.6c0,0,0,0,0,0c-0.1,0-0.1,0.1-0.2,0.1c0,0,0,0,0,0c0,0-0.1,0.1-0.1,0.1c0,0,0,0,0,0s0,0,0,0
	c0,0-0.1,0.1-0.1,0.1c0,0,0,0,0,0c-0.2,0.1-0.4,0.1-0.7,0.2c0-0.8,0-1.7,0-2.5c0.6,0.3,0.2,0.7,0.2,1.2c0.1,0.1,0.2,0.2,0.3,0.2
	c0.2,0,0.4,0.1,0.5,0c0.1-0.1,0.1-0.3,0.1-0.5c0-0.2-0.1-0.5,0-0.7c0.1-0.4,0.5-0.5,0.9-0.3c0.2,0.1,0.5,0.1,0.6,0
	c0.3-0.2,0.5-0.2,0.6,0.1c0.2-0.1,0.4-0.2,0.5-0.2c-0.1-0.2-0.3-0.5-0.2-0.6c0.1-0.3,0.4-0.4,0.8-0.2c0.3,0.1,0.6,0.2,0.8,0.3
	c0-0.1,0-0.1,0.1-0.2c-0.1-0.1-0.3-0.1-0.4-0.2c0,0,0-0.1-0.1-0.1c0.2-0.1,0.3-0.2,0.5-0.2c0.4,0,0.8,0,1.1,0.1
	c0.5,0.1,0.4,0.4,0.3,0.7C134.4,24.7,134.3,24.8,134.3,24.8z"/>
<path class="st11" d="M6.9,29.3c-0.1-0.1-0.2-0.2-0.2-0.3c0-0.1,0.2-0.2,0.3-0.2c0.4-0.1,0.8-0.1,1.2-0.1c1.9,0,3.8,0,5.7,0
	c0.3,0,0.6,0.4,0.8,0.7c0.8,1.1,1.5,2.2,2.2,3.2c0.1,0.2,0.2,0.4,0.4,0.6c0.9-1.3,1.7-2.6,2.5-3.8c1-1.5,2-3,3-4.5
	c0.1-0.2,0.3-0.4,0.5-0.5c0,0,0,0,0.1,0.1c-0.1,0.1-0.1,0.3-0.2,0.4c-1.9,2.8-3.7,5.6-5.6,8.4c-0.3,0.4-0.5,0.2-0.7-0.1
	c-0.8-1.3-1.7-2.6-2.5-3.8c-0.2-0.3-0.5-0.5-0.9-0.5c-2,0-4.1,0-6.1,0c-0.2,0-0.3,0.1-0.5,0.2C6.9,29.2,6.9,29.2,6.9,29.3z"/>
<path class="st2" d="M120,25.3c-0.1,0-0.2,0-0.3,0c0-0.4,0-0.9,0-1.4c0.4,0.1,0.7,0.2,1,0.4c0.1,0.1,0.1,0.3,0.1,0.5
	c0.3,0,0.6,0,1,0c0-0.6,0.3-0.6,0.8-0.5c0.7,0.1,1.4,0.1,1.9,0.1c0.2,0.2,0.4,0.3,0.6,0.4c0-0.2,0.1-0.5,0.1-0.8
	c0.3,0,0.7,0,1.1,0.1c0.2-0.4,0.5-0.4,1-0.1c-0.1,0.1-0.2,0.2-0.3,0.4c0.2,0,0.4,0,0.6,0c0.1,0.3,0.1,0.5-0.3,0.5
	c-0.1,0-0.1,0.1-0.2,0.2c-2.2,0-4.4,0-6.6,0C120.4,25.1,120.2,25.2,120,25.3L120,25.3z"/>
<path class="st6" d="M28.2,31.9c-0.4-0.5-0.8-1.1-1.2-1.6c-0.2-0.3-0.4-0.6-0.6-1c-0.3,0.4-0.6,0.9-0.9,1.3
	c-0.1,0.2-0.3,0.4-0.4,0.6c-0.2,0.3-0.4,0.7-0.6,1c-0.2,0.4-0.5,0.7-0.8,1c-0.4,0.5-0.3,1,0.2,1.7c0.5,0.7,0.9,1.4,1.4,2.2
	c0.5,0.7,0.8,1.5,1.4,2.2c0.4,0.5,0.3,1,0,1.4c-0.6,1-1.3,1.9-1.9,2.9c0,0-0.1,0-0.2,0.1c0,0,0,0-0.1-0.1c0.7-1.1,1.4-2.1,2-3.2
	c0.1-0.1,0.1-0.3,0.1-0.5c-0.2-0.4-0.5-0.7-0.7-1.1c-0.4-0.6-0.7-1.1-1.1-1.7c-0.6-0.9-1.1-1.8-1.6-2.7c-0.1-0.2-0.1-0.4-0.2-0.6
	c1-1.4,1.9-2.8,2.9-4.2c0,0,0-0.1,0.1-0.1c0,0,0,0,0,0c0,0,0.1-0.1,0.1-0.1c0,0,0,0,0,0c0.2-0.2,0.4-0.2,0.5,0.1
	c0.1,0.2,0.3,0.4,0.5,0.6c0,0,0,0,0,0.1c0.2,0.3,0.4,0.6,0.6,0.9c0.1,0.2,0.3,0.4,0.4,0.5C28.3,31.6,28.3,31.7,28.2,31.9
	C28.3,31.8,28.3,31.9,28.2,31.9z"/>
<path class="st7" d="M135.6,32.3c0.2,0.8,0.5,1.5,0.6,2.3c0.1,0.6,0.1,1.3,0.1,1.9c0,4.7,0,9.3,0,14c0,0.8,0,0.8,0.8,0.8
	c2.3,0,4.5,0,6.8,0c0,0,0,0.1,0,0.1c-2.3,0-4.7,0-7,0c-0.3,0-0.5-0.1-0.8-0.2c0,0,0,0,0,0c0-0.1,0-0.3,0-0.4c0-4.6,0.1-9.2,0.1-13.7
	c0-0.9,0-1.9-0.1-2.8c0-0.4-0.2-0.8-0.3-1.2C135.7,32.8,135.6,32.5,135.6,32.3z"/>
<path class="st11" d="M192.1,51.1c-0.2,0.1-0.3,0.2-0.5,0.2c-1.3-0.2-2.5-0.3-3.8-0.6c-1.9-0.5-3.8-1.1-5.3-2.4
	c-0.1-0.1-0.2-0.1-0.3-0.2c-0.3-0.2-0.4-0.5-0.1-0.8c0.7-0.8,1.4-1.6,2.1-2.5c0.5-0.6,0.9-1.2,1.4-1.8c0.3-0.4,0.7-0.5,1.1-0.1
	c0.4,0.4,0.9,0.6,1.4,0.9c0,0,0,0-0.1,0.1c-0.4-0.2-0.8-0.4-1.2-0.7c-0.8-0.5-0.8-0.5-1.4,0.3c0,0,0,0.1,0,0.1l0,0
	c-0.5,0.6-1,1.2-1.5,1.8c0,0,0,0,0,0c-0.5,0.6-0.9,1.2-1.4,1.7c-0.2,0.2-0.3,0.5,0,0.7c0.3,0.2,0.6,0.4,0.9,0.5
	c0.7,0.4,1.5,0.8,2.2,1.2c0.4,0.2,0.8,0.4,1.2,0.5C188.6,50.8,190.3,51,192.1,51.1z"/>
<path class="st2" d="M136,51.1c0.3,0.1,0.5,0.2,0.8,0.2c2.3,0,4.7,0,7,0c0,0.5-0.3,0.5-0.7,0.5c-0.9,0-1.9,0-2.8,0
	c-0.6,0-1.3,0.1-1.9,0.1c-0.4,0-0.7-0.1-1.1-0.2c-0.2,0-0.3,0.1-0.5,0.1c-0.3,0-0.7,0-1,0c0,0-0.1-0.2,0-0.3
	C135.8,51.4,135.9,51.3,136,51.1z"/>
<path class="st2" d="M137.5,24.9c-0.1,0-0.2,0-0.3,0c-0.2-0.1-0.3-0.2-0.5-0.2c-0.5,0-1,0-1.5,0c0.3-0.3,0.5-0.7,1.1-0.5
	c0.4,0.1,0.9-0.1,1.3-0.1c0.1,0,0.3,0,0.5,0c0.1,0,0.2,0.1,0.3,0.1c0.2,0,0.5-0.3,0.5-0.2c0.3,0.2,0.5,0.5,0.7,0.8
	c0.1,0.1,0.1,0.2,0.2,0.1c0.4,0.1,0.8,0.1,1.2,0.2c0.7,0.2,0.3,0.9,0.4,1.3c0,0-0.1,0-0.1,0.1c0,0,0,0,0,0c-0.1,0-0.1-0.1-0.2-0.1
	c0,0,0,0,0,0c-0.2-0.1-0.4-0.3-0.5-0.4c0,0,0,0,0,0c0,0-0.1-0.1-0.1-0.1l0,0c0,0,0,0,0,0c-0.2-0.2-0.4-0.4-0.6-0.5
	C138.9,25.1,138.3,24.7,137.5,24.9z"/>
<path class="st8" d="M13.4,40.1C13.5,40.1,13.5,40.1,13.4,40.1c0.1-0.1,0.1-0.1,0.2-0.1c0,0,0,0,0,0.1c-0.1,0.2-0.1,0.5-0.2,0.7
	c-0.5,0.8-1,1.5-1.5,2.3c-0.6,0.8-1.1,1.7-1.7,2.5c-0.2,0.3-0.4,0.7-0.6,1c-0.3,0.5-0.9,0.8-1.1,1.5c-0.1,0.3-0.5,0.6-0.7,0.9
	c-0.1,0-0.1,0-0.2-0.1c0-0.1,0.1-0.2,0.1-0.3C8,48.4,8.1,48.2,8.3,48c0,0,0,0,0,0c0,0,0.1-0.1,0.1-0.1c0,0,0,0,0,0
	c0.1-0.1,0.1-0.2,0.2-0.3c0,0,0,0,0-0.1c0,0,0.1-0.1,0.1-0.1c0,0,0,0,0,0s0,0,0,0C8.8,47.2,8.9,47,9,46.9c0,0,0,0,0-0.1
	c0.4-0.6,0.8-1.2,1.2-1.8c0,0,0,0,0-0.1c0.1-0.2,0.2-0.3,0.3-0.5c0,0,0,0,0,0c0,0,0.1-0.1,0.1-0.1c0,0,0,0,0,0s0,0,0,0
	c0,0,0.1-0.1,0.1-0.1c0,0,0,0,0,0c0,0,0.1-0.1,0.1-0.1c0,0,0,0,0,0c0.1-0.1,0.1-0.2,0.2-0.3c0,0,0,0,0-0.1c0.1-0.1,0.1-0.2,0.2-0.3
	c0,0,0,0,0,0c0.1-0.1,0.1-0.2,0.2-0.3c0,0,0-0.1,0.1-0.1c0.4-0.6,0.8-1.2,1.2-1.8c0,0,0,0,0,0c0,0,0-0.1,0.1-0.1c0,0,0,0,0,0
	c0.1-0.1,0.1-0.2,0.2-0.3c0,0,0,0,0-0.1c0,0,0.1-0.1,0.1-0.1c0,0,0-0.1,0.1-0.1C13.3,40.3,13.4,40.2,13.4,40.1z"/>
<path class="st11" d="M184.7,27.3c0.6-1,1.7-1.3,2.6-1.8c1.5-0.7,3.2-1,4.8-1.2c0.8-0.1,1.5-0.2,2.3-0.1c1.2,0.2,2.4,0.4,3.6,0.7
	c1.1,0.3,2.1,0.7,3,1.4c0.1,0.1,0.2,0.1,0.2,0.2c0,0,0,0-0.1,0.1c-0.3-0.2-0.7-0.3-1-0.5l0,0c-1-0.7-2.2-1-3.4-1.2
	c-0.1,0-0.1,0-0.2,0c-0.1,0-0.2-0.1-0.3-0.1c-1.5-0.1-3-0.2-4.5-0.2c-1.3,0.1-2.6,0.3-3.9,0.9c0,0,0,0,0,0c0,0-0.1,0.1-0.1,0.1
	c0,0,0,0,0,0c-0.1,0-0.2,0.1-0.3,0.1c-0.1,0-0.1,0-0.2,0.1c-0.6,0.4-1.2,0.7-1.8,1.1c-0.1,0.1-0.1,0.1-0.2,0.2
	C185.1,27.2,184.9,27.3,184.7,27.3C184.7,27.4,184.7,27.3,184.7,27.3z"/>
<path class="st2" d="M144.9,34.8c0,5.3,0,10.5,0,15.8C144.6,49.9,144.7,35,144.9,34.8z"/>
<path class="st2" d="M119.7,51.3c2.5,0,4.9,0,7.4,0c0.2,0,0.3-0.1,0.5-0.1c0,0.2,0,0.4,0.1,0.7c-0.3,0-0.6,0.1-0.9,0.1
	c-1.4-0.4-2.9-0.1-4.3-0.2c-0.3,0-0.6-0.1-0.8-0.1c-0.3,0-0.5-0.1-0.8-0.1c-0.3,0-0.6,0.2-0.9,0.2c-0.1,0-0.3-0.1-0.4-0.1
	C119.6,51.6,119.7,51.4,119.7,51.3z"/>
<path class="st12" d="M192.1,51.1c-1.8-0.2-3.6-0.4-5.3-1c-0.4-0.1-0.8-0.3-1.2-0.5c0.1,0,0.3,0,0.4,0c0.9,0.5,1.8,0.4,2.7,0.8
	c1.1,0.4,2.3,0.4,3.5,0.5c1.4,0.1,2.7,0,4-0.4c0.3-0.1,0.6-0.4,1-0.4c0.7,0,1.2-0.3,1.8-0.6c0.3-0.2,0.7-0.3,1.1-0.4
	c-0.2,0.2-0.4,0.4-0.7,0.6c0,0,0,0,0,0c-1.2,0.4-2.4,0.9-3.7,1.2c-0.5,0.2-1.1,0.2-1.7,0.3c-0.3,0-0.6,0-0.8,0c-0.3,0-0.6,0-0.9,0
	C192.2,51.1,192.2,51.1,192.1,51.1z"/>
<path class="st6" d="M7.9,48.6c0,0.1-0.1,0.2-0.1,0.3c0,0,0,0,0,0c-0.1,0.1-0.1,0.2-0.2,0.2c0,0,0,0,0,0c0,0-0.1,0.1-0.1,0.1l0,0
	c-0.2,0.2-0.3,0.5-0.6,0.9c0.4,0,0.5,0,0.7,0c3.2,0,6.4,0,9.7,0c1,0,1.9,0,2.9,0c0,0,0,0,0,0c-0.2,0.1-0.4,0.2-0.6,0.2
	c-3.2,0-6.4,0-9.6,0c-0.9,0-1.8,0-2.7,0c-0.5,0-0.6-0.2-0.3-0.7C7.3,49.3,7.6,49,7.9,48.6z"/>
<path class="st2" d="M142.4,28C142.3,28,142.3,28,142.4,28c-0.1-0.1-0.1-0.2-0.1-0.2c0,0,0,0,0,0c0,0-0.1-0.1-0.1-0.1c0,0,0,0,0,0
	c-0.1-0.1-0.2-0.3-0.3-0.4c0,0,0,0,0,0c0,0-0.1-0.1-0.1-0.1c0,0,0,0,0,0c0,0-0.1-0.1-0.1-0.1c0,0,0,0,0,0c0,0-0.1-0.1-0.1-0.1
	c0,0,0,0,0,0c0,0-0.1-0.1-0.1-0.1c0,0,0,0,0,0c0-0.1,0-0.2,0-0.3c0.6,0,1.1,0,1.7,0c0.2,0,0.4,0,0.8,0c-0.1,0.3-0.2,0.8-0.3,0.8
	c-0.3,0-0.7-0.1-1-0.2c-0.1,0.3-0.1,0.3,0.9,0.9c-0.1,0.1-0.2,0.1-0.5,0.2c0.2,0.4,0.5,0.7,0.7,1.1c0.1,0.1,0.1,0.2,0.1,0.3
	c0,0.4,0,0.8,0,1.2c-0.1-0.1-0.2-0.2-0.2-0.3c-0.2-0.5-0.4-0.9-0.6-1.4c0,0,0,0,0,0c0-0.1-0.1-0.2-0.1-0.3c0,0,0,0,0,0
	c0,0-0.1-0.1-0.1-0.1c0,0,0,0,0,0c-0.1-0.1-0.1-0.3-0.2-0.4c0,0,0,0,0,0C142.5,28.3,142.4,28.2,142.4,28z"/>
<path class="st11" d="M188.2,43.9c0.3,0.1,0.6,0.2,0.9,0.3c1.5,0.6,3,1.2,4.6,0.9c1.5-0.2,2.2-1,1.8-2.4c-0.3-0.8-0.9-1.3-1.8-1.4
	c-0.5-0.1-1-0.4-1.6-0.6c0,0,0,0,0-0.1c0.1,0,0.2,0,0.3,0c0,0,0.1,0,0.1,0c0.3,0.1,0.6,0.3,0.9,0.3c1.2,0.2,2,0.9,2.4,2
	c0,0.2,0,0.4,0,0.6c-0.1,0.3-0.2,0.5-0.3,0.8l0,0c0,0-0.1,0.1-0.1,0.1c0,0,0,0,0,0c-0.1,0.1-0.2,0.2-0.3,0.3l0,0
	c-0.7,0.3-1.4,0.6-2.2,0.5c-0.8-0.1-1.7-0.2-2.5-0.5c-0.8-0.2-1.5-0.6-2.3-0.8c0,0,0,0,0,0C188.2,44.1,188.2,44,188.2,43.9
	C188.2,44,188.2,43.9,188.2,43.9z"/>
<path class="st9" d="M17.5,13.1c0-0.1,0-0.1,0-0.2c0-0.2,0-0.4,0-0.5c0.1,0,0.1,0,0.2,0c0.2,0,0.5,0,0.7,0c4,0,8.1,0,12.1,0
	c0,0,0,0,0,0c0,0,0.1,0.1,0.1,0.1c0,0,0,0,0,0c0,0.1,0,0.2,0,0.4c-0.3-0.1-0.6-0.3-0.9-0.3c-3.7,0-7.3,0-11,0c-0.3,0-0.7,0-1.1,0
	c0.1,0.2,0.1,0.4,0.2,0.5C17.7,13.1,17.6,13.1,17.5,13.1z"/>
<path class="st7" d="M143,29.2c0.2,0.5,0.4,0.9,0.6,1.4c0.1,0.1,0.1,0.2,0.2,0.3c0,0.1,0,0.2,0,0.3c0.5,6.6,0.1,13.3,0.2,19.9
	c0,0-0.1,0-0.1,0c0-5.4,0-10.9,0-16.3c0-1.8-0.2-3.7-0.9-5.4C143,29.4,143,29.3,143,29.2z"/>
<path class="st11" d="M185.5,37.7c-0.8-0.5-1.6-1-2.1-1.9c-0.3-0.5-0.7-0.9-0.8-1.4c-0.2-0.8-0.2-1.6-0.2-2.4c0-1.4,0.6-2.7,1.4-3.8
	c0.2-0.3,0.6-0.6,0.9-0.8c0,0,0,0,0.1,0.1c0,0.1,0,0.1,0,0.2l0,0c0,0-0.1,0.1-0.1,0.1l0,0c0,0-0.1,0.1-0.1,0.1c0,0,0,0,0,0
	c0,0-0.1,0.1-0.1,0.1c0,0,0,0-0.1,0.1c-0.1,0.1-0.1,0.2-0.2,0.2c0,0-0.1,0.1-0.1,0.1c-0.1,0.1-0.1,0.2-0.2,0.3l0,0
	c0,0-0.1,0.1-0.1,0.1l0,0c0,0,0,0.1-0.1,0.1c0,0.1-0.1,0.1-0.1,0.2c-0.1,0.1-0.1,0.2-0.2,0.3c0,0,0,0,0,0c-0.7,1-0.9,2.2-0.9,3.4
	c0,0.7,0,1.5,0.5,2.1c0,0,0,0,0,0c0.1,0.2,0.2,0.3,0.3,0.5c0,0,0,0,0,0.1c0,0,0.1,0.1,0.1,0.1c0,0,0,0,0,0c0.6,0.6,1.2,1.2,1.8,1.8
	c0,0,0,0,0,0C185.3,37.3,185.5,37.5,185.5,37.7C185.6,37.6,185.6,37.7,185.5,37.7z"/>
<path class="st7" d="M120,25.3c0.2-0.1,0.4-0.2,0.6-0.2c2.2,0,4.4,0,6.6,0c0.1,0,0.1,0,0.2,0c0.1,0.1,0.2,0.1,0.3,0.2c0,0,0,0,0,0
	c0,0.8,0,1.6,0,2.5c0.3-0.1,0.5-0.2,0.7-0.2c-0.2,0.3-0.5,0.5-0.7,0.8c0,0-0.1-0.1-0.1-0.1c0-0.8,0-1.6,0-2.4c0-0.5-0.2-0.6-0.6-0.6
	C124.6,25.3,122.3,25.3,120,25.3z"/>
<path class="st6" d="M33.4,40.1c0-0.2,0-0.3-0.1-0.5c-0.3-0.4-0.6-0.9-0.9-1.3c-0.6-0.9-1.2-1.7-1.8-2.6c-0.7-1-1.4-2-2.1-3
	c-0.1-0.1-0.1-0.4-0.1-0.5c0,0,0,0,0.1-0.1c0.1,0.1,0.1,0.1,0.2,0.2c1.7,2.5,3.3,4.9,5,7.4c0,0.1,0,0.2,0,0.3
	C33.6,40,33.5,40.1,33.4,40.1C33.5,40.1,33.4,40.1,33.4,40.1z"/>
<path class="st11" d="M201,37.3c0.4,0.4,0.9,0.8,1.2,1.2c1.1,1.5,1.5,3.2,1.3,5c-0.1,1-0.3,2.1-1,2.9c0,0,0,0-0.1,0
	c0.1-0.4,0.2-0.8,0.4-1.1l0,0c0-0.1,0.1-0.1,0.1-0.2l0,0c0.1-0.9,0.4-1.7,0.4-2.6c0-0.7-0.2-1.5-0.4-2.2c0,0,0,0,0,0
	c0-0.1,0-0.2-0.1-0.2C202.4,38.9,201.6,38.1,201,37.3C200.9,37.3,201,37.3,201,37.3z"/>
<path class="st11" d="M191,33.3c0.6,0.3,1.1,0.7,1.7,1c1.1,0.5,2.3,0.7,3.5,1c1.2,0.2,2.4,0.3,3.4,1c0.1,0.1,0.2,0.2,0.3,0.2
	c0,0,0,0,0,0.1c-1-0.3-2-0.6-3-0.9c-1.1-0.3-2.2-0.5-3.3-0.8C192.5,34.5,191.6,34.2,191,33.3C190.9,33.4,190.9,33.3,191,33.3z"/>
<path class="st11" d="M23.3,24.4C23.3,24.4,23.3,24.4,23.3,24.4c0.6-0.8,0.1-1.5-0.2-2.1c-0.5-0.9-1.1-1.8-1.6-2.7
	c-0.2-0.4-0.4-0.7-0.6-1.1c0,0,0,0,0.1-0.1c0.1,0,0.1,0,0.2,0.1l0,0c0,0,0.1,0.1,0.1,0.1l0,0c0,0,0.1,0.1,0.1,0.1
	c0,0.1,0,0.1,0.1,0.2c0,0,0.1,0.1,0.1,0.1l0,0c0,0,0.1,0.1,0.1,0.1l0,0c0,0,0.1,0.1,0.1,0.1l0,0c0,0,0.1,0.1,0.1,0.1
	c0,0.1,0,0.1,0.1,0.2c0.1,0.1,0.1,0.2,0.2,0.3c0.2,0.3,0.4,0.6,0.7,0.8c0.1,0.2,0.2,0.5,0.3,0.7c0.2,0.4,0.5,0.8,0.7,1.2
	c0,0.4,0.5,0.6,0.3,1.1C23.7,24,23.5,24.3,23.3,24.4C23.3,24.5,23.3,24.5,23.3,24.4z"/>
<path class="st4" d="M99,51.9c0.5-0.2,0.9-0.4,1.4-0.6c0.6-0.2,1.1-0.3,1.7-0.4c0.5-0.1,0.9-0.1,1.4-0.2c0,0,0,0.1,0,0.1l0,0
	c0,0,0,0,0,0c-0.9,0.3-1.7,0.5-2.6,0.8c-0.4,0.1-0.8,0.2-1.2,0.3C99.4,52,99.2,52,99,51.9z"/>
<path class="st11" d="M30.5,12.4c-4,0-8.1,0-12.1,0c-0.2,0-0.5,0-0.7,0c0.2,0,0.4-0.1,0.5-0.1c3.1,0,6.2,0,9.2,0
	c0.8,0,1.5-0.1,2.3-0.1C30,12.2,30.2,12.3,30.5,12.4z"/>
<path class="st6" d="M11.1,36c-0.4-0.5-0.7-1-1.1-1.5c-0.4-0.7-0.9-1.3-1.3-2c-0.1-0.1-0.1-0.4-0.2-0.5c0,0,0,0,0.1-0.1
	c0.1,0,0.1,0.1,0.2,0.1c0,0,0,0.1,0.1,0.1c0.1,0.2,0.3,0.4,0.4,0.6c0,0,0,0,0,0c0,0.1,0.1,0.1,0.1,0.2c0,0,0,0.1,0,0.1
	c0.1,0.2,0.2,0.3,0.3,0.5c0,0,0.1,0.1,0.1,0.1c0,0,0.1,0.1,0.1,0.1c0,0,0.1,0.1,0.1,0.1c0.1,0.1,0.2,0.3,0.2,0.4
	c0.1,0.1,0.2,0.2,0.2,0.3l0,0C10.7,35,10.9,35.5,11.1,36C11.2,36,11.1,36,11.1,36z"/>
<path class="st2" d="M161.6,31.6c0.1-0.1,0.2-0.2,0.3-0.2c0.7,0,1.4,0,2.2,0c0.1,0,0.2,0.1,0.4,0.2c-0.4,0.1-0.9,0.3-1.3,0.4
	c-0.2,0-0.5-0.1-0.8-0.3C161.9,32.1,161.8,32.1,161.6,31.6z"/>
<path class="st6" d="M13.6,40c-0.1,0-0.1,0-0.2,0.1c-0.2-0.3-0.3-0.6-0.5-0.9c-0.4-0.7-0.9-1.4-1.3-2.1c-0.2-0.3-0.7-0.5-0.6-1.1
	c0,0,0,0,0.1-0.1c0.7,1.1,1.4,2.2,2.1,3.3C13.4,39.4,13.5,39.7,13.6,40z"/>
<path class="st11" d="M192.2,40.8c-0.5-0.2-1.1-0.3-1.6-0.5c-1.2-0.5-2.3-1-3.4-1.6c-0.1-0.1-0.2-0.2-0.4-0.3c0.7,0.3,1.3,0.6,2,0.9
	c0,0,0,0,0,0c0.1,0.1,0.3,0.1,0.4,0.2l0,0c0.3,0.1,0.6,0.3,1,0.4c0,0,0,0,0.1,0C190.9,40.2,191.6,40.5,192.2,40.8
	C192.2,40.7,192.2,40.8,192.2,40.8z"/>
<path class="st11" d="M194,51.1c0.6-0.1,1.2-0.1,1.7-0.3c1.2-0.4,2.5-0.8,3.7-1.2c-0.3,0.2-0.5,0.5-0.8,0.6c-1.3,0.5-2.6,0.8-4,1
	C194.4,51.2,194.2,51.2,194,51.1z"/>
<path class="st11" d="M196.5,31.3c-0.3-0.1-0.6-0.2-0.8-0.4c-1.4-0.8-2.7-0.8-4.1-0.2c-0.1,0-0.2,0.1-0.3,0.1c0,0,0,0-0.1-0.1
	c0.6-0.5,1.2-0.6,1.9-0.7c1.1-0.1,2,0.2,3,0.6c0,0,0,0,0.1,0c0,0,0.1,0.1,0.1,0.1c0,0,0.1,0.1,0.1,0.1c0,0,0.1,0.1,0.1,0.1l0,0
	C196.6,31.2,196.6,31.2,196.5,31.3C196.6,31.3,196.6,31.3,196.5,31.3z"/>
<path class="st6" d="M30.1,45.3c0.2-0.5,0.4-0.9,0.7-1.3c0.5-0.8,1.1-1.5,1.6-2.2c0,0,0,0,0.1,0.1c0,0.1,0,0.2-0.1,0.2
	C31.7,43.1,30.9,44.2,30.1,45.3C30.2,45.3,30.2,45.3,30.1,45.3z"/>
<path class="st6" d="M99.7,52c0.4-0.1,0.8-0.2,1.2-0.3c0.9-0.3,1.7-0.5,2.6-0.8c-0.3,0.2-0.6,0.5-1,0.6
	C101.6,51.7,100.7,52.1,99.7,52z"/>
<path class="st11" d="M20.9,18.6c-0.6-1.1-1.3-2.1-1.9-3.2c0,0,0,0,0.1-0.1c0.3,0.5,0.6,0.9,1,1.4c0,0,0,0,0,0.1
	c0.1,0.1,0.1,0.2,0.2,0.3l0,0c0,0.1,0.1,0.2,0.1,0.3l0,0c0,0,0.1,0.1,0.1,0.1l0,0c0,0,0.1,0.1,0.1,0.1c0,0.1,0.1,0.2,0.1,0.3
	c0.1,0.1,0.1,0.2,0.2,0.2l0,0C20.9,18.3,20.9,18.5,20.9,18.6C20.9,18.6,20.9,18.6,20.9,18.6z"/>
<path class="st8" d="M46.6,40.5c-0.8,1.2-1.5,2.3-2.3,3.5c0,0,0,0,0,0c0-0.1,0-0.3,0.1-0.3C45.1,42.6,45.8,41.6,46.6,40.5L46.6,40.5
	z"/>
<path class="st11" d="M199.3,30.7c-0.5,0.5-1,1.1-1.5,1.6c-0.1,0.1-0.4,0-0.5-0.1c-0.3-0.2-0.5-0.5-0.7-0.7c0,0,0,0,0.1-0.1
	c0.1,0,0.2,0.1,0.2,0.1c0,0,0.1,0.1,0.1,0.1c0.2,0.2,0.4,0.4,0.6,0.7C198.2,31.6,198.7,31.1,199.3,30.7
	C199.3,30.7,199.3,30.7,199.3,30.7z"/>
<path class="st12" d="M188.8,39.3c-0.7-0.3-1.3-0.6-2-0.9c0,0,0,0-0.1,0c-0.2-0.2-0.4-0.3-0.6-0.5c0.2,0.1,0.5,0.1,0.7,0.2
	c0.7,0.3,1.3,0.6,2,1C188.8,39.1,188.8,39.2,188.8,39.3z"/>
<path class="st6" d="M21.9,47.7c-0.4,0.8-0.7,1.6-1.4,2.2c0,0,0,0-0.1-0.1c0-0.1,0.1-0.2,0.1-0.3l0,0c0.1-0.2,0.3-0.4,0.4-0.6
	c0,0,0,0,0,0c0,0,0.1-0.1,0.1-0.1c0,0,0,0,0,0c0.1-0.1,0.1-0.2,0.2-0.3c0,0,0,0,0-0.1c0.1-0.2,0.3-0.4,0.4-0.6l0,0
	C21.8,47.7,21.8,47.6,21.9,47.7C21.9,47.6,21.9,47.6,21.9,47.7z"/>
<path class="st11" d="M191.3,30.9c-0.4,0.4-0.8,0.9-0.6,1.5c0.1,0.3,0.2,0.5,0.2,0.8c0,0,0,0,0,0C190,32.3,190.2,31.4,191.3,30.9
	C191.2,30.9,191.2,30.9,191.3,30.9z"/>
<path class="st6" d="M8.6,32c-0.5-0.8-1-1.6-1.5-2.3c0-0.1,0-0.1,0-0.2c0.1,0.2,0.3,0.4,0.4,0.6c0.3,0.4,0.6,0.8,0.9,1.1
	c0,0,0,0,0,0.1C8.5,31.4,8.5,31.7,8.6,32C8.6,31.9,8.6,32,8.6,32z"/>
<path class="st4" d="M23.2,45.6C23.2,45.6,23.2,45.7,23.2,45.6c-0.1,0.1-0.1,0.2-0.1,0.2c0,0,0,0,0,0c-0.1,0.1-0.3,0.3-0.4,0.4
	c0-0.1,0-0.2,0-0.3c0,0,0,0,0,0c0,0,0.1-0.1,0.1-0.1c0.1-0.1,0.1-0.3,0.2-0.4c0.3-0.4,0.3-1,0.9-1.1c-0.1,0.2-0.1,0.3-0.2,0.5
	c0,0,0,0,0,0c0,0-0.1,0.1-0.1,0.1c0,0,0,0,0,0c-0.1,0.1-0.1,0.2-0.2,0.3l0,0c0,0,0,0,0,0C23.4,45.3,23.3,45.5,23.2,45.6z"/>
<path class="st6" d="M22.7,46.3c0.1-0.1,0.3-0.3,0.4-0.4c-0.3,0.7-0.5,1.4-1.1,1.8c0,0,0,0,0,0c0.1-0.2,0.2-0.3,0.2-0.5
	c0,0,0,0,0-0.1c0,0,0.1-0.1,0.1-0.1l0,0c0,0,0.1-0.1,0.1-0.1l0,0c0,0,0.1-0.1,0.1-0.1c0,0,0-0.1,0-0.1c0-0.1,0.1-0.1,0.1-0.2
	C22.6,46.3,22.6,46.3,22.7,46.3C22.7,46.3,22.7,46.3,22.7,46.3z"/>
<path class="st11" d="M199.4,49.6c0.2-0.2,0.4-0.4,0.7-0.6c0,0,0,0,0,0c0.4-0.3,0.8-0.6,1.2-0.9c0,0,0,0,0.1,0.1
	C200.8,48.8,200.2,49.4,199.4,49.6z"/>
<path class="st6" d="M28.9,47.2c0.1-0.2,0.1-0.4,0.3-0.7c0.2-0.3,0.4-0.6,0.6-0.9c0.1-0.1,0.3-0.2,0.4-0.3c0,0,0,0,0.1,0
	C29.8,46,29.4,46.6,28.9,47.2C28.9,47.2,28.9,47.2,28.9,47.2z"/>
<path class="st6" d="M10.3,45c-0.4,0.6-0.8,1.2-1.2,1.8C9.3,46.1,9.6,45.4,10.3,45z"/>
<path class="st7" d="M135.2,24.7c0.5,0,1,0,1.5,0c0.2,0,0.3,0.1,0.5,0.2c-1,0-1.9,0-2.9,0c0-0.1,0.1-0.1,0.1-0.2
	C134.7,24.7,134.9,24.7,135.2,24.7z"/>
<path class="st2" d="M159.6,32.1c0.5-0.5,1.2-0.5,1.8-0.4c0,0.1-0.1,0.2-0.1,0.2C160.7,31.9,160.2,32,159.6,32.1z"/>
<path class="st6" d="M12.7,41.2c-0.4,0.6-0.8,1.2-1.2,1.8C11.9,42.4,12.3,41.8,12.7,41.2z"/>
<path class="st11" d="M201.8,27c0.2,0.2,0.5,0.5,0.5,0.5c-0.2,0.3-0.5,0.5-0.7,0.8c0,0,0,0-0.1-0.1c0-0.1,0-0.1,0.1-0.2
	c0,0,0.1-0.1,0.1-0.1l0,0C202.2,27.5,202.2,27.5,201.8,27C201.7,27,201.8,27,201.8,27z"/>
<path class="st11" d="M17.5,13.1c0.1,0,0.2,0,0.3,0.1c0,0,0,0,0,0c0.1,0.1,0.1,0.2,0.2,0.3l0,0c0.1,0.3,0.3,0.6,0.4,0.9
	c0,0,0,0-0.1,0.1C17.9,14,17.6,13.6,17.5,13.1z"/>
<path class="st6" d="M28.2,48.4c-0.1,0.1-0.2,0.1-0.2,0.2c0.3-0.5,0.6-1,0.9-1.4c0,0,0,0,0.1,0c-0.2,0.4-0.4,0.7-0.6,1.1
	C28.3,48.4,28.3,48.4,28.2,48.4z"/>
<path class="st6" d="M28,48.6c-0.3,0.4-0.6,0.8-0.8,1.3c0.2-0.4,0.4-0.8,0.6-1.3C27.8,48.6,27.9,48.6,28,48.6z"/>
<path class="st11" d="M200.4,29.5c-0.3,0.4-0.7,0.8-1,1.1c0,0-0.1,0-0.1-0.1C199.7,30.2,200,29.8,200.4,29.5
	C200.4,29.4,200.4,29.4,200.4,29.5z"/>
<path class="st6" d="M103.5,50.9c0,0,0-0.1,0-0.1c0,0,0,0,0,0c0.4-0.2,0.8-0.3,1.2-0.5c0,0,0,0,0.1,0.1
	C104.4,50.6,104.1,51,103.5,50.9z"/>
<path class="st2" d="M157.6,24.1c-0.2,0.1-0.4,0.2-0.4,0.2c-0.1,0-0.2-0.2-0.3-0.3c0.1-0.1,0.2-0.2,0.3-0.2
	C157.2,23.8,157.3,24,157.6,24.1z"/>
<path class="st2" d="M146.5,49.2c0,0.4,0,0.8,0,1.1c0,0-0.1,0-0.1,0c0-0.4,0-0.7,0-1.1C146.4,49.2,146.4,49.2,146.5,49.2z"/>
<path class="st11" d="M199.9,36.5c0.5,0,0.8,0.4,1.1,0.8c0,0,0,0-0.1,0.1C200.6,37.1,200.2,36.8,199.9,36.5
	C199.8,36.5,199.8,36.5,199.9,36.5z"/>
<path class="st11" d="M186.2,37.9c0.2,0.2,0.4,0.3,0.6,0.5c-0.4-0.2-0.8-0.5-1.2-0.7c0,0,0,0,0.1-0.1c0.1,0.1,0.3,0.1,0.4,0.2
	c0,0,0,0,0.1,0C186.1,37.8,186.1,37.9,186.2,37.9L186.2,37.9z"/>
<path class="st6" d="M32.5,41.7c0.2-0.3,0.4-0.7,0.7-1c0,0,0.1,0.1,0.1,0.1c-0.1,0.2-0.3,0.5-0.4,0.7c-0.1,0.1-0.1,0.2-0.2,0.3
	C32.6,41.7,32.6,41.7,32.5,41.7C32.5,41.7,32.5,41.7,32.5,41.7z"/>
<path class="st11" d="M18.9,15.5c-0.2-0.4-0.4-0.7-0.6-1.1c0,0,0,0,0.1-0.1c0.1,0,0.1,0,0.2,0.1c0,0,0,0.1,0,0.1
	c0.1,0.1,0.1,0.2,0.2,0.3l0,0C18.8,15,18.9,15.2,18.9,15.5C19,15.4,19,15.4,18.9,15.5z"/>
<path class="st2" d="M141,24.5c-0.1-0.2-0.3-0.3-0.3-0.4c0-0.1,0.1-0.2,0.2-0.2c0.1,0,0.3,0.1,0.3,0.2
	C141.2,24.1,141.1,24.3,141,24.5z"/>
<path class="st2" d="M167.3,31c0,0.2,0.1,0.4,0.1,0.6c-0.1,0-0.1,0-0.2,0.1c0-0.2-0.1-0.4-0.1-0.6C167.1,31.1,167.2,31.1,167.3,31z"
	/>
<path class="st2" d="M146.6,25.8c0.1-0.1,0.1-0.3,0.2-0.4c0,0,0.2,0.1,0.2,0.1c0,0.2-0.1,0.3-0.1,0.4
	C146.7,25.9,146.7,25.9,146.6,25.8z"/>
<path class="st11" d="M201.1,28.7c-0.2,0.2-0.4,0.4-0.6,0.7c0,0,0,0,0,0C200.6,29.1,200.9,28.9,201.1,28.7
	C201.1,28.7,201.1,28.7,201.1,28.7z"/>
<path class="st2" d="M119.7,25.4c0,0.3,0,0.6,0,1C119.4,26.1,119.4,25.7,119.7,25.4z"/>
<path class="st8" d="M46.8,39.8c0,0,0.1,0,0.1,0c0.3,0.4-0.2,0.5-0.3,0.8c0,0,0,0,0,0C46.6,40.3,46.7,40.1,46.8,39.8z"/>
<path class="st11" d="M17.5,12.4c0,0.2,0,0.4,0,0.5c-0.1-0.2-0.3-0.3-0.4-0.5C17.2,12.4,17.3,12.4,17.5,12.4z"/>
<path class="st6" d="M23.7,44.8c0.1-0.2,0.1-0.3,0.2-0.5c0,0,0,0,0,0c0,0,0.1-0.1,0.1-0.1c0,0,0,0,0,0c0.1-0.1,0.2-0.1,0.2-0.2
	c0,0,0,0,0.1,0C24.1,44.3,23.9,44.5,23.7,44.8z"/>
<path class="st11" d="M202.5,46.4c-0.1,0.3-0.3,0.6-0.4,0.8c0,0,0,0-0.1-0.1C202.1,46.9,202.3,46.6,202.5,46.4
	C202.5,46.4,202.5,46.4,202.5,46.4z"/>
<path class="st2" d="M119.7,50.4c0,0.3,0,0.6,0,0.8C119.4,50.9,119.3,50.7,119.7,50.4z"/>
<path class="st11" d="M201.9,47.4c-0.2,0.2-0.3,0.4-0.5,0.6c0,0,0,0-0.1-0.1C201.5,47.8,201.7,47.6,201.9,47.4
	C201.8,47.4,201.9,47.4,201.9,47.4z"/>
<path class="st6" d="M8.3,48c-0.1,0.2-0.3,0.4-0.4,0.6C8,48.4,8.1,48.2,8.3,48z"/>
<path class="st2" d="M121.9,24c-0.1,0.1-0.2,0.2-0.2,0.2c-0.1,0-0.2-0.1-0.2-0.1c0,0,0.1-0.1,0.1-0.1C121.6,23.9,121.7,24,121.9,24z
	"/>
<path class="st6" d="M39.6,50.3c0.2,0,0.3,0,0.5,0C39.9,50.6,39.8,50.6,39.6,50.3z"/>
<path class="st6" d="M10.6,44.4c-0.1,0.2-0.2,0.3-0.3,0.5C10.4,44.7,10.5,44.6,10.6,44.4z"/>
<path class="st2" d="M175.9,23.6c-0.1,0.1-0.1,0.1-0.2,0.1c-0.1,0-0.1-0.1-0.2-0.1c0,0,0.1-0.1,0.1-0.1
	C175.8,23.5,175.9,23.6,175.9,23.6z"/>
<path class="st2" d="M136,50.7c0,0.1,0,0.3,0,0.4c-0.1-0.1-0.1-0.1-0.2-0.2C135.9,50.9,135.9,50.8,136,50.7z"/>
<path class="st6" d="M23.2,45.6c0.1-0.2,0.2-0.3,0.3-0.5C23.4,45.3,23.3,45.5,23.2,45.6z"/>
<path class="st7" d="M141.5,26.6c0,0.1,0,0.2,0,0.3c-0.1-0.1-0.2-0.2-0.3-0.3C141.3,26.6,141.4,26.6,141.5,26.6z"/>
<path class="st11" d="M192.3,51.1c0.3,0,0.6,0,0.9,0C192.9,51.1,192.6,51.1,192.3,51.1z"/>
<path class="st6" d="M9,46.9c-0.1,0.1-0.2,0.3-0.3,0.4C8.8,47.2,8.9,47,9,46.9z"/>
<path class="st11" d="M30.6,12.9c0-0.1,0-0.2,0-0.4c0.1,0.1,0.2,0.2,0.3,0.4c0,0,0,0-0.1,0C30.7,12.9,30.7,12.9,30.6,12.9L30.6,12.9
	z"/>
<path class="st2" d="M146.5,35.2c0,0.1-0.1,0.1-0.1,0.1c0,0-0.1-0.1-0.1-0.1c0,0,0-0.1,0.1-0.1C146.4,35.1,146.4,35.1,146.5,35.2z"
	/>
<path class="st6" d="M27.1,49.9c0,0.1,0,0.2,0,0.3c-0.1,0-0.1,0-0.2-0.1C27,50.1,27.1,50,27.1,49.9z"/>
<path class="st6" d="M33.1,40.6c0.1-0.1,0.1-0.2,0.2-0.3c0,0,0,0,0,0c0,0.1,0,0.2,0,0.3C33.3,40.7,33.3,40.7,33.1,40.6
	C33.2,40.7,33.2,40.7,33.1,40.6z"/>
<path class="st6" d="M13,40.8c-0.1,0.1-0.1,0.2-0.2,0.3C12.9,41,13,40.9,13,40.8z"/>
<path class="st6" d="M8.6,47.5c-0.1,0.1-0.1,0.2-0.2,0.3C8.4,47.7,8.5,47.6,8.6,47.5z"/>
<path class="st2" d="M127.7,25.3c-0.1-0.1-0.2-0.1-0.3-0.2C127.5,25.2,127.6,25.2,127.7,25.3z"/>
<path class="st6" d="M28.5,32.2c-0.1-0.1-0.1-0.2-0.2-0.3c0,0,0,0,0.1-0.1C28.4,31.9,28.5,32,28.5,32.2
	C28.5,32.1,28.5,32.2,28.5,32.2z"/>
<path class="st2" d="M157.5,25.5c-0.1-0.1-0.1-0.1-0.2-0.2c0,0,0.1,0,0.1,0C157.5,25.3,157.5,25.4,157.5,25.5z"/>
<path class="st6" d="M11.1,43.7C11,43.8,11,43.9,10.9,44C11,43.9,11,43.8,11.1,43.7z"/>
<path class="st11" d="M201.4,26.7c0.1,0.1,0.2,0.1,0.2,0.2c0,0,0,0,0,0C201.5,26.8,201.5,26.8,201.4,26.7
	C201.4,26.7,201.4,26.7,201.4,26.7z"/>
<path class="st6" d="M40.5,49.8c0.1-0.1,0.1-0.2,0.2-0.3C40.7,49.6,40.6,49.7,40.5,49.8z"/>
<path class="st11" d="M202.1,47.2c-0.1,0.1-0.1,0.2-0.2,0.2c0,0,0,0-0.1-0.1C201.9,47.3,201.9,47.2,202.1,47.2
	C202,47.2,202,47.2,202.1,47.2z"/>
<path class="st11" d="M31,13.2c-0.1,0-0.1-0.1-0.2-0.1c0,0,0,0,0,0c0-0.1,0-0.1,0-0.2c0,0,0,0,0.1,0C30.9,13,30.9,13.1,31,13.2z"/>
<path class="st6" d="M20.5,49.9c-0.1,0.1-0.1,0.2-0.2,0.2c0,0,0,0,0,0C20.4,50,20.4,49.9,20.5,49.9C20.5,49.8,20.5,49.8,20.5,49.9z"
	/>
<path class="st6" d="M40.9,49.2c0.1-0.1,0.1-0.2,0.2-0.3C41.1,49,41,49.1,40.9,49.2z"/>
<path class="st6" d="M13.4,40.1c-0.1,0.1-0.1,0.2-0.2,0.3C13.3,40.3,13.4,40.2,13.4,40.1z"/>
<path class="st6" d="M6.9,29.3c0-0.1,0-0.2,0-0.2c0,0.1,0.1,0.1,0.1,0.2c0,0.1,0,0.1,0,0.2C7,29.5,6.9,29.4,6.9,29.3z"/>
<path class="st2" d="M164.4,24.1c-0.1,0-0.2,0-0.3,0C164.2,24.1,164.3,24.1,164.4,24.1z"/>
<path class="st6" d="M23.5,45.2c0.1-0.1,0.1-0.2,0.2-0.3C23.6,45,23.5,45.1,23.5,45.2z"/>
<path class="st11" d="M7,29.5c0-0.1,0-0.1,0-0.2c0,0,0.1,0.1,0.1,0.1c0,0.1,0,0.1,0,0.2C7.1,29.6,7,29.6,7,29.5z"/>
<path class="st6" d="M24.5,43.6c0,0.1-0.1,0.2-0.1,0.3c0,0-0.1,0-0.1-0.1C24.3,43.8,24.4,43.7,24.5,43.6L24.5,43.6z"/>
<path class="st6" d="M11.3,43.4c-0.1,0.1-0.1,0.2-0.2,0.3C11.2,43.6,11.2,43.5,11.3,43.4z"/>
<path class="st6" d="M11.5,43.1c-0.1,0.1-0.1,0.2-0.2,0.3C11.4,43.3,11.4,43.2,11.5,43.1z"/>
<path class="st6" d="M40.4,50c0-0.1,0.1-0.1,0.1-0.2C40.5,49.9,40.4,50,40.4,50z"/>
<path class="st6" d="M39.1,50.3c0.1,0,0.1,0,0.2,0C39.2,50.3,39.1,50.3,39.1,50.3z"/>
<path class="st6" d="M33.3,40.3c0-0.1,0.1-0.1,0.1-0.2c0,0,0,0,0.1,0.1c0,0.1,0,0.1,0,0.2C33.4,40.3,33.4,40.3,33.3,40.3
	C33.4,40.3,33.3,40.3,33.3,40.3z"/>
<path class="st11" d="M201.4,48.1c0,0-0.1,0.1-0.1,0.1c0,0,0,0-0.1-0.1C201.3,48.1,201.3,48,201.4,48.1
	C201.4,48,201.4,48,201.4,48.1z"/>
<path class="st2" d="M155.9,25.2c0,0-0.1-0.1-0.1-0.1C155.8,25.1,155.9,25.2,155.9,25.2z"/>
<path class="st6" d="M8.4,47.8c0,0-0.1,0.1-0.1,0.1C8.3,47.9,8.3,47.9,8.4,47.8z"/>
<path class="st6" d="M20.3,50.1c0,0-0.1,0.1-0.1,0.1c0,0,0,0,0,0C20.2,50.1,20.3,50.1,20.3,50.1C20.3,50.1,20.3,50.1,20.3,50.1z"/>
<path class="st6" d="M40.3,50.2c0,0,0.1-0.1,0.1-0.1C40.4,50.1,40.3,50.1,40.3,50.2z"/>
<path class="st6" d="M40.7,49.5c0,0,0.1-0.1,0.1-0.1C40.8,49.5,40.8,49.5,40.7,49.5z"/>
<path class="st6" d="M40.8,49.4c0,0,0.1-0.1,0.1-0.1C40.9,49.3,40.9,49.4,40.8,49.4z"/>
<path class="st7" d="M143.8,51.2c0,0,0.1-0.1,0.1-0.1C143.9,51.1,143.9,51.2,143.8,51.2z"/>
<path class="st11" d="M30.6,12.5C30.5,12.5,30.5,12.4,30.6,12.5C30.5,12.4,30.5,12.5,30.6,12.5z"/>
<path class="st6" d="M8.7,47.3c0,0-0.1,0.1-0.1,0.1C8.6,47.4,8.7,47.4,8.7,47.3z"/>
<path class="st6" d="M40.2,50.2c0,0,0.1-0.1,0.1-0.1C40.3,50.2,40.2,50.2,40.2,50.2z"/>
<path class="st6" d="M41.2,48.8c0,0,0.1-0.1,0.1-0.1C41.3,48.7,41.3,48.7,41.2,48.8z"/>
<path class="st6" d="M41.2,48.9c0,0,0.1-0.1,0.1-0.1C41.2,48.8,41.2,48.8,41.2,48.9z"/>
<path class="st11" d="M196.7,31.4c0,0-0.1-0.1-0.1-0.1c0,0,0,0,0.1-0.1C196.7,31.3,196.7,31.3,196.7,31.4
	C196.7,31.4,196.7,31.4,196.7,31.4z"/>
<path class="st7" d="M135.5,32.1c0,0,0,0.1,0.1,0.1C135.5,32.1,135.5,32.1,135.5,32.1z"/>
<path class="st11" d="M190.9,33.2c0,0,0.1,0.1,0.1,0.1c0,0,0,0,0,0C190.9,33.3,190.8,33.3,190.9,33.2
	C190.8,33.2,190.8,33.2,190.9,33.2z"/>
<path class="st11" d="M201.2,28.6c0,0-0.1,0.1-0.1,0.1c0,0,0,0-0.1-0.1C201.1,28.6,201.1,28.6,201.2,28.6
	C201.2,28.6,201.2,28.6,201.2,28.6z"/>
<path class="st11" d="M201.3,28.5c0,0-0.1,0.1-0.1,0.1c0,0,0,0-0.1-0.1C201.2,28.5,201.2,28.5,201.3,28.5
	C201.3,28.4,201.3,28.5,201.3,28.5z"/>
<path class="st11" d="M200.5,29.3c0,0-0.1,0.1-0.1,0.1c0,0,0,0,0,0C200.4,29.4,200.4,29.3,200.5,29.3
	C200.5,29.3,200.5,29.3,200.5,29.3z"/>
<path class="st11" d="M201.4,28.4c0,0-0.1,0.1-0.1,0.1c0,0,0,0-0.1-0.1C201.3,28.4,201.3,28.4,201.4,28.4
	C201.4,28.3,201.4,28.4,201.4,28.4z"/>
<path class="st11" d="M201.5,28.3c0,0-0.1,0.1-0.1,0.1c0,0,0,0-0.1-0.1C201.4,28.3,201.4,28.2,201.5,28.3
	C201.5,28.2,201.5,28.2,201.5,28.3z"/>
<path class="st11" d="M199.4,30.6c0,0-0.1,0.1-0.1,0.1c0,0,0-0.1-0.1-0.1C199.3,30.6,199.3,30.6,199.4,30.6
	C199.4,30.5,199.4,30.6,199.4,30.6z"/>
<path class="st8" d="M44.3,44c0,0-0.1,0.1-0.1,0.1c0,0,0,0,0,0C44.3,44.1,44.3,44,44.3,44C44.3,44,44.3,44,44.3,44z"/>
<path class="st6" d="M10.8,44.1c0,0-0.1,0.1-0.1,0.1C10.7,44.2,10.8,44.2,10.8,44.1z"/>
<path class="st6" d="M10.7,44.3c0,0-0.1,0.1-0.1,0.1C10.7,44.3,10.7,44.3,10.7,44.3z"/>
<path class="st6" d="M23.6,44.9c0,0,0.1-0.1,0.1-0.1C23.7,44.8,23.6,44.8,23.6,44.9z"/>
<path class="st6" d="M23.1,45.8c0,0,0.1-0.1,0.1-0.1C23.1,45.7,23.1,45.8,23.1,45.8z"/>
<path class="st11" d="M201.7,26.9c0,0,0.1,0.1,0.1,0.1c0,0,0,0,0,0C201.7,27,201.7,26.9,201.7,26.9
	C201.6,26.9,201.6,26.9,201.7,26.9z"/>
<path class="st6" d="M13.2,40.6c0,0-0.1,0.1-0.1,0.1C13.1,40.7,13.1,40.6,13.2,40.6z"/>
<path class="st11" d="M201.3,26.6c0,0,0.1,0.1,0.1,0.1c0,0,0,0-0.1,0.1C201.3,26.7,201.3,26.7,201.3,26.6
	C201.3,26.6,201.3,26.6,201.3,26.6z"/>
<path class="st6" d="M12.8,41.1c0,0-0.1,0.1-0.1,0.1C12.8,41.2,12.8,41.1,12.8,41.1z"/>
<path class="st7" d="M141.1,26.5c0,0,0.1,0,0.1-0.1C141.2,26.5,141.2,26.6,141.1,26.5C141.1,26.6,141.1,26.5,141.1,26.5z"/>
<path class="st6" d="M24.6,43.5c0,0-0.1,0.1-0.1,0.1c0,0,0,0,0,0C24.5,43.6,24.5,43.5,24.6,43.5C24.5,43.5,24.6,43.5,24.6,43.5z"/>
<path class="st6" d="M24.3,43.9c0,0-0.1,0.1-0.1,0.1c0,0,0,0-0.1,0C24.2,44,24.2,43.9,24.3,43.9C24.3,43.9,24.3,43.9,24.3,43.9z"/>
<path class="st6" d="M10.9,44c0,0-0.1,0.1-0.1,0.1C10.8,44.1,10.9,44.1,10.9,44z"/>
<path class="st13" d="M104.3,39.7c0.7,0,1.5,0,2.2,0c0.5,0,0.7,0.1,0.6,0.6c0,0.4,0,0.8,0,1.3c0.1,1.7-0.7,3-2.2,3.7
	c-1.8,0.9-3.6,1.1-5.5,0.4c-1-0.4-1.8-1-2-2.1c-0.1-1,0.3-1.8,1.1-2.5c1.1-0.9,2.5-1.4,3.9-1.4C103,39.7,103.7,39.7,104.3,39.7
	C104.3,39.7,104.3,39.7,104.3,39.7z"/>
<path class="st4" d="M106.4,31.7c-1.9-1.6-4.1-1.6-6.3-1.1c-1.3,0.3-2.5,0.8-3.6,1.6c-0.2,0.1-0.3,0.3-0.5,0.4
	c-0.3,0.2-0.5,0.2-0.8-0.1c-1.1-1.1-2.2-2.3-3.3-3.4c-0.3-0.3-0.3-0.5,0.1-0.7c1.3-0.6,2.6-1.2,3.9-1.8c3.2-1.4,6.5-1.9,10-1.7
	c4.4,0.2,7.5,3.6,8.4,7c0,0.1,0,0.2,0,0.3c-0.3-0.6-0.5-1.1-0.8-1.7c-0.4-0.7-0.9-1.4-1.4-2.1c-0.3-0.5-0.6-0.9-1.2-1.1
	c-0.1,0-0.2-0.3-0.3-0.4c-0.4-0.3-0.9-0.5-1.3-0.8c-0.7-0.5-1.5-0.4-2.2-0.7c-1-0.4-1.9-0.4-2.9-0.4c-0.8,0.1-1.5,0.3-2.3,0.4
	c-0.2,0-0.4,0-0.6,0c-0.9-0.1-1.7,0.3-2.5,0.5c-0.9,0.2-1.8,0.5-2.6,0.8c-0.7,0.2-1.3,0.6-1.9,0.9c-0.5,0.3-1.1,0.5-1.6,0.8
	c-0.2,0.1-0.4,0.3-0.4,0.4c0,0.2,0.2,0.3,0.4,0.5c0.4,0.4,0.7,0.8,1.1,1.1c0,0,0.1,0.1,0.1,0.2c0.6,0.5,1.2,1.1,1.8,1.6
	c0.1,0.1,0.3,0,0.4,0c0.4-0.2,0.8-0.6,1.2-0.8c1.1-0.4,2.1-1.1,3.3-1c0.7,0.1,1.4-0.2,2.2-0.2c0.7,0,1.5,0,2.2,0.2
	C105.5,30.7,106.3,30.9,106.4,31.7z"/>
<path class="st4" d="M104.7,50.2c-0.4,0.2-0.8,0.3-1.2,0.5c0.6-0.4,1.1-0.9,1.7-1.3c0.6-0.4,1.1-0.8,1.8-1.2
	c0.9,0.6,0.2,1.6,0.5,2.4c0.2,0,0.5-0.1,0.7-0.1c0.3,0,0.5,0.1,0.8,0.1c1.6,0,3.1,0,4.7,0c0.5,0,0.6-0.2,0.5-0.6
	c0-5.8,0-11.5,0-17.3c0-0.2,0-0.3,0-0.5c0.1,0.3,0.2,0.7,0.2,1c0,5.7,0,11.4,0,17.1c0,0.4-0.1,0.5-0.5,0.5c-2.1,0-4.2,0-6.3,0
	c-0.3,0-0.4-0.1-0.4-0.4c0-0.6,0-1.2,0-2C106.3,49.1,105.5,49.7,104.7,50.2z"/>
<path class="st4" d="M107,32.8c-0.2-0.3-0.4-0.6-0.5-0.9C107.1,32,107,32.4,107,32.8z"/>
<path class="st4" d="M106.5,31.9C106.4,31.8,106.4,31.8,106.5,31.9C106.4,31.8,106.4,31.8,106.5,31.9z"/>
<path class="st14" d="M177.9,38.2c0,4.1,0,8.2,0,12.3c0,0.7,0,0.7-0.7,0.7c-2.1,0-4.2,0-6.2,0c-0.5,0-0.7-0.1-0.7-0.7
	c0-6.9,0-13.8,0-20.7c0-1.3,0-2.6,0-3.9c0-0.5,0.1-0.6,0.6-0.6c2.2,0,4.3,0,6.5,0c0.5,0,0.6,0.2,0.6,0.6
	C177.9,30,177.9,34.1,177.9,38.2z"/>
<path class="st15" d="M231.3,38.4c0,3.9,0,7.8,0,11.7c0,0.8-0.1,0.9-0.8,0.9c-1.9,0-3.7,0-5.6,0c-0.6,0-0.8-0.1-0.8-0.8
	c0-0.5,0-1.1,0-1.6c0-0.2-0.1-0.4-0.3-0.6c-0.1-0.1-0.4,0-0.5,0.1c-1.4,0.9-2.8,1.7-4.2,2.4c-0.2,0.1-0.3,0.2-0.5,0.2
	c-1.3,0.1-2.5,0.3-3.8,0.3c-0.8,0-1.7-0.2-2.5-0.5c-0.9-0.4-1.8-1-2.6-1.7c-0.6-0.5-1-1.3-1.4-2.1c-0.6-1-0.8-2.2-0.9-3.4
	c-0.4-5.7-0.1-11.5-0.2-17.2c0-0.5,0.2-0.7,0.7-0.7c2,0,4.1,0,6.1,0c0.5,0,0.6,0.2,0.5,0.6c0,0.4,0.1,0.8,0.1,1.2
	c0,4.5,0,9.1,0,13.6c0,0.7,0.2,1.4,0.5,2.1c0.3,0.7,0.8,1.2,1.4,1.4c0.7,0.3,1.5,0.3,2.2,0.3c0.6,0,1.2-0.2,1.8-0.4
	c0.3-0.1,0.5-0.5,0.7-0.6c1.1-0.4,1.7-1.4,2.5-2.2c0.3-0.3,0.4-1.1,0.4-1.6c0-4.5,0-9.1,0-13.6c0-0.8,0.1-0.8,0.8-0.8
	c1.8,0,3.5,0,5.3,0c0.8,0,1.1,0.3,1.1,1.1C231.3,30.5,231.3,34.4,231.3,38.4z"/>
<path class="st0" d="M59,13.2c5,0,9.9,0,14.9,0c0.1,0.1,0.1,0.1,0.2,0.2c0.5,0.1,1,0.3,1.6,0.4c0.5,0.1,1.1,0,1.6,0
	c0.1,0,0.2,0,0.3,0c0.1,0.1,0.3,0.1,0.4,0.2c0,0,0,0,0,0c0.1,0.1,0.3,0.1,0.4,0.2c0.1,0,0.1,0,0.2,0c0.2,0.1,0.4,0.1,0.6,0.2
	c0.1,0,0.1,0,0.2,0c0.2,0.1,0.4,0.1,0.6,0.2c0,0,0,0,0,0c0.2,0.1,0.4,0.3,0.6,0.4c0,0,0,0,0,0c0.1,0.1,0.3,0.1,0.4,0.2
	c0.1,0,0.1,0,0.2,0c0.1,0.1,0.2,0.1,0.3,0.2c0,0,0.1,0,0.1,0c0.1,0.1,0.1,0.1,0.2,0.2c0,0,0,0,0,0c0,0.1,0,0.2,0.1,0.3
	c0.5,0.4,0.9,0.8,1.4,1.2c0,0,0,0,0,0c0.1,0.1,0.1,0.1,0.2,0.2c0,0,0,0,0,0c0.1,0.1,0.1,0.3,0.2,0.4c0,0,0,0,0,0
	c0.1,0.1,0.1,0.3,0.2,0.4c0,0,0,0,0,0c0.1,0.1,0.1,0.1,0.2,0.2c0,0.1,0.1,0.1,0.1,0.2c0,0,0.1,0.1,0.1,0.1c0,0.1,0,0.2,0,0.3
	c0.1,0.3,0.1,0.6,0.2,0.8c0,0,0,0.1,0,0.1c0.1,0.1,0.1,0.2,0.2,0.3c0,0,0,0,0,0c0,1.4,0,2.8,0,4.2c0,0,0,0,0,0
	c-0.1,0.1-0.1,0.3-0.2,0.4c0,0,0,0,0,0c-0.1,0.3-0.1,0.6-0.2,0.8c0,0.2,0,0.3,0,0.5c0,0,0,0,0,0s0,0,0,0c-0.1,0.1-0.3,0.1-0.4,0.2
	c-0.7,0.8-1.4,1.6-2.2,2.3c-0.4,0.4-1,0.5-1.5,0.8c-0.2,0.1-0.4,0.2-0.5,0.4c-0.1,0.2-0.1,0.4,0.1,0.6c0.3,0.5,0.8,0.5,1.2,0.7
	c0.7,0.3,1.5,0.4,2,0.9c0.4,0.4,1,0.6,1.3,1.1c0.3,0.5,0.7,1,1,1.5c0.1,0.2,0.1,0.5,0.2,0.8c0.4,1.1,0.9,2.1,0.7,3.3
	c0,0.1,0.1,0.3,0.1,0.4c0,0.1,0.1,0.3,0.1,0.4c0,0.4-0.2,0.9-0.2,1.3c0,0.9-0.1,1.8-0.6,2.7c-0.1,0.2,0,0.4-0.1,0.7
	c0,0.1-0.1,0.2-0.1,0.3c0,0,0,0.1,0,0.1c0,0.1-0.1,0.1-0.1,0.2c0,0,0,0.1,0,0.1c-0.1,0.1-0.1,0.1-0.2,0.2c0,0,0,0,0,0
	c-0.1,0.1-0.1,0.1-0.2,0.2c0,0,0,0,0,0c-0.1,0.1-0.1,0.3-0.2,0.4c0,0,0,0,0,0c-0.1,0.1-0.1,0.1-0.2,0.2c0,0.1,0,0.1,0,0.2
	c-0.1,0.1-0.1,0.1-0.2,0.2c0,0,0,0,0,0c-0.3,0-0.5,0.1-0.6,0.4c0,0,0,0,0,0c-0.1,0.1-0.1,0.1-0.2,0.2c0,0,0,0,0,0
	c-0.3,0.1-0.4,0.3-0.4,0.6c0,0,0,0,0,0c-0.1,0.1-0.3,0.1-0.4,0.2c0,0,0,0,0,0c-0.1,0.1-0.1,0.1-0.2,0.2c0,0,0,0,0,0
	c-0.1,0.1-0.3,0.1-0.4,0.2c-0.1,0-0.1,0-0.2,0c-0.1,0.1-0.1,0.1-0.2,0.2c0,0,0,0,0,0c-0.1,0.1-0.3,0.1-0.4,0.2c-0.1,0-0.1,0-0.2,0
	c-0.1,0.1-0.3,0.1-0.4,0.2c0,0,0,0,0,0c-0.1,0.1-0.3,0.1-0.4,0.2c0,0,0,0,0,0c-0.3,0.1-0.6,0.1-0.8,0.2c0,0,0,0,0,0
	c-0.4,0.1-0.9,0.1-1.3,0.2c-0.1,0-0.2,0.1-0.4,0.2c-0.1,0-0.1,0-0.2,0c-1,0.1-2,0.1-3,0.2c-0.1,0-0.1,0.1-0.2,0.2
	c-0.2,0-0.5,0.1-0.7,0.1c-0.1-0.1-0.3-0.3-0.4-0.3c-0.1,0-0.3,0.2-0.4,0.3c-0.1,0-0.2,0-0.3,0c-0.1-0.1-0.1-0.2-0.2-0.3
	c-0.1,0.1-0.1,0.2-0.2,0.3c-0.7,0-1.3,0-2,0c-0.1-0.1-0.3-0.3-0.4-0.3c-0.1,0-0.3,0.2-0.4,0.3c-0.4,0-0.7,0-1.1,0
	c-0.1-0.1-0.1-0.2-0.2-0.3c-0.1,0.1-0.1,0.2-0.2,0.3c-0.5,0-1,0-1.4,0c-0.1-0.1-0.2-0.2-0.2-0.3c-0.1,0.1-0.2,0.2-0.2,0.3
	c-0.3,0-0.6,0-0.9,0c0-0.3-0.3-0.3-0.5-0.3c-0.2,0-0.5-0.1-0.5,0.3c-0.2,0-0.5,0-0.7,0c-0.1-0.1-0.3-0.3-0.4-0.3c-0.9,0-1.8,0-2.7,0
	c-0.2,0-0.3,0.2-0.5,0.3c-0.3,0-0.5,0-0.8,0c0-0.2,0-0.4,0-0.6c0-0.2-0.1-0.3-0.2-0.5c0-0.1,0-0.2,0-0.3c0.1-0.2,0.2-0.4,0.2-0.6
	C59,36.8,59,25,59,13.2z M66.2,24C66.2,24,66.2,24,66.2,24c0,1.2,0,2.4,0,3.6c0,0.4,0.1,0.6,0.5,0.6c1.4,0,2.9,0,4.3,0
	c0.8,0,1.7-0.1,2.5-0.2c1-0.2,1.9-0.6,2.5-1.6c1.3-2,0.5-5-1.7-6c-0.7-0.3-1.4-0.5-2.1-0.5c-1.8-0.1-3.7,0-5.6-0.1
	c-0.4,0-0.5,0.2-0.5,0.5C66.2,21.5,66.2,22.8,66.2,24z M66.1,39.6C66.1,39.6,66.1,39.6,66.1,39.6c0,1.3,0,2.7,0,4
	c0,0.4,0.1,0.6,0.6,0.6c0.7,0,1.4,0,2.1,0c1.9,0,3.9,0,5.8-0.2c2.5-0.2,4.3-1.2,4.5-3.9c0.1-1.7-0.3-3.2-1.9-4.2
	c-1.1-0.7-2.3-0.9-3.6-1c-2.3-0.1-4.6-0.1-6.9-0.1c-0.5,0-0.6,0.2-0.6,0.6C66.1,36.9,66.1,38.2,66.1,39.6z"/>
<path class="st16" d="M59,13.2c0,11.8,0,23.6,0,35.4c0,0.2-0.1,0.4-0.2,0.6c0-11.8,0-23.6,0-35.4C58.8,13.6,58.9,13.4,59,13.2z"/>
<path class="st16" d="M59.8,50.6c0.2-0.1,0.3-0.3,0.5-0.3c0.9,0,1.8,0,2.7,0c0.1,0,0.3,0.2,0.4,0.3C62.2,50.6,61,50.6,59.8,50.6z"/>
<path class="st16" d="M85,24.7c0-1.4,0-2.8,0-4.2c0.1,0.3,0.2,0.6,0.2,0.9c0,0.8,0,1.7,0,2.5C85.2,24.1,85.1,24.4,85,24.7z"/>
<path class="st16" d="M74.4,50.5c0.1-0.1,0.1-0.2,0.2-0.2c1-0.1,2-0.1,3-0.2c-0.1,0.1-0.1,0.2-0.2,0.2
	C76.4,50.3,75.4,50.4,74.4,50.5z"/>
<path class="st17" d="M77.3,13.9c-0.5,0-1.1,0.1-1.6,0c-0.5-0.1-1-0.3-1.6-0.4c0,0,0.1-0.1,0.1-0.1c0.8,0.1,1.7,0.2,2.5,0.3
	C76.9,13.7,77.1,13.8,77.3,13.9z"/>
<path class="st16" d="M83.5,17.2c-0.5-0.4-1-0.8-1.4-1.2c-0.1-0.1,0-0.2-0.1-0.3c0.4,0.4,0.9,0.7,1.3,1.1
	C83.4,16.9,83.5,17.1,83.5,17.2z"/>
<path class="st16" d="M77.8,50.1c0.1-0.1,0.2-0.2,0.4-0.2c0.4-0.1,0.9-0.1,1.3-0.2c-0.3,0.1-0.5,0.3-0.8,0.4
	C78.4,50.1,78.1,50.1,77.8,50.1z"/>
<path class="st16" d="M64.1,50.6c0-0.3,0.3-0.3,0.5-0.3c0.2,0,0.5-0.1,0.5,0.3C64.8,50.6,64.5,50.6,64.1,50.6z"/>
<path class="st16" d="M72.8,50.6c0.1-0.1,0.3-0.3,0.4-0.3c0.1,0,0.3,0.2,0.4,0.3C73.4,50.6,73.1,50.6,72.8,50.6z"/>
<path class="st16" d="M69.4,50.6c0.1-0.1,0.3-0.3,0.4-0.3c0.1,0,0.3,0.2,0.4,0.3C69.9,50.6,69.7,50.6,69.4,50.6z"/>
<path class="st16" d="M58.7,49.5c0.1,0.2,0.2,0.3,0.2,0.5c0,0.2,0,0.4,0,0.6c-0.1-0.1-0.2-0.3-0.2-0.4C58.7,50,58.7,49.7,58.7,49.5z
	"/>
<path class="st16" d="M83.9,47.1c0.1-0.3,0.3-0.5,0.6-0.4C84.5,47,84.3,47.1,83.9,47.1z"/>
<path class="st16" d="M83.3,47.9c0-0.3,0.1-0.5,0.4-0.6C83.7,47.6,83.7,47.9,83.3,47.9z"/>
<path class="st16" d="M79.5,49.6c0.3-0.1,0.6-0.1,0.8-0.2C80.1,49.5,79.8,49.6,79.5,49.6z"/>
<path class="st16" d="M84.6,25.9c0.1-0.3,0.1-0.6,0.2-0.8C84.7,25.4,84.6,25.7,84.6,25.9z"/>
<path class="st16" d="M84.8,20c-0.1-0.3-0.1-0.6-0.2-0.8C84.6,19.4,84.7,19.7,84.8,20z"/>
<path class="st16" d="M80.8,15.1c-0.2-0.1-0.4-0.3-0.6-0.4C80.3,14.8,80.5,15,80.8,15.1z"/>
<path class="st16" d="M80.1,14.7c-0.2-0.1-0.4-0.1-0.6-0.2C79.7,14.6,79.9,14.6,80.1,14.7z"/>
<path class="st16" d="M79.3,14.5c-0.2-0.1-0.4-0.1-0.6-0.2C78.9,14.4,79.1,14.4,79.3,14.5z"/>
<path class="st16" d="M66,50.6c0.1-0.1,0.2-0.2,0.2-0.3c0.1,0.1,0.2,0.2,0.2,0.3C66.3,50.6,66.2,50.6,66,50.6z"/>
<path class="st16" d="M80.8,49.2c0.1-0.1,0.3-0.1,0.4-0.2c0,0,0.1,0.1,0.2,0.2C81.1,49.2,80.9,49.2,80.8,49.2z"/>
<path class="st16" d="M67.9,50.6c0.1-0.1,0.1-0.2,0.2-0.3c0.1,0.1,0.1,0.2,0.2,0.3C68.2,50.6,68,50.6,67.9,50.6z"/>
<path class="st16" d="M72.2,50.6c0.1-0.1,0.1-0.2,0.2-0.3c0.1,0.1,0.1,0.2,0.2,0.3C72.4,50.6,72.3,50.6,72.2,50.6z"/>
<path class="st16" d="M80.3,49.4c0.1-0.1,0.3-0.1,0.4-0.2C80.6,49.3,80.5,49.4,80.3,49.4z"/>
<path class="st16" d="M81.2,15.3c-0.1-0.1-0.3-0.1-0.4-0.2C80.9,15.2,81,15.3,81.2,15.3z"/>
<path class="st16" d="M84.8,25.1c0.1-0.1,0.1-0.3,0.2-0.4C84.9,24.8,84.9,24.9,84.8,25.1z"/>
<path class="st16" d="M81.4,49c0.1-0.1,0.3-0.1,0.4-0.2C81.7,48.9,81.5,48.9,81.4,49z"/>
<path class="st16" d="M84.1,18.3c-0.1-0.1-0.1-0.3-0.2-0.4C84,18,84.1,18.2,84.1,18.3z"/>
<path class="st16" d="M83.9,17.9c-0.1-0.1-0.1-0.3-0.2-0.4C83.8,17.6,83.9,17.7,83.9,17.9z"/>
<path class="st16" d="M82.2,48.6c0.1-0.1,0.3-0.1,0.4-0.2C82.5,48.4,82.4,48.5,82.2,48.6z"/>
<path class="st16" d="M78.4,14.3c-0.1-0.1-0.3-0.1-0.4-0.2C78.2,14.1,78.3,14.2,78.4,14.3z"/>
<path class="st16" d="M78,14.1c-0.1-0.1-0.3-0.1-0.4-0.2C77.7,13.9,77.9,14,78,14.1z"/>
<path class="st16" d="M82.9,48.2c0.1-0.1,0.3-0.1,0.4-0.2C83.2,48,83,48.1,82.9,48.2z"/>
<path class="st16" d="M85,46c0.1-0.1,0.1-0.3,0.2-0.4C85.1,45.8,85.1,45.9,85,46z"/>
<path class="st16" d="M85,20.4c-0.1-0.1-0.1-0.2-0.2-0.3C84.9,20.2,84.9,20.3,85,20.4z"/>
<path class="st16" d="M81.7,15.5c-0.1-0.1-0.2-0.1-0.3-0.2C81.5,15.4,81.6,15.5,81.7,15.5z"/>
<path class="st16" d="M85.7,44.8c0-0.1,0.1-0.2,0.1-0.3C85.8,44.6,85.8,44.7,85.7,44.8z"/>
<path class="st16" d="M81.8,48.8c0.1-0.1,0.1-0.1,0.2-0.2C82,48.7,81.9,48.7,81.8,48.8z"/>
<path class="st16" d="M82.7,48.4c0.1-0.1,0.1-0.1,0.2-0.2C82.8,48.2,82.7,48.3,82.7,48.4z"/>
<path class="st16" d="M74.2,13.3c0,0-0.1,0.1-0.1,0.1c-0.1-0.1-0.1-0.1-0.2-0.2C74,13.3,74.1,13.3,74.2,13.3z"/>
<path class="st16" d="M84.6,46.7c0.1-0.1,0.1-0.1,0.2-0.2C84.7,46.5,84.6,46.6,84.6,46.7z"/>
<path class="st16" d="M82,15.8c-0.1-0.1-0.1-0.1-0.2-0.2C81.9,15.6,82,15.7,82,15.8z"/>
<path class="st16" d="M83.7,47.3c0.1-0.1,0.1-0.1,0.2-0.2C83.9,47.2,83.8,47.2,83.7,47.3z"/>
<path class="st16" d="M84.8,46.3c0.1-0.1,0.1-0.1,0.2-0.2C84.9,46.1,84.9,46.2,84.8,46.3z"/>
<path class="st16" d="M83.7,17.5c-0.1-0.1-0.1-0.1-0.2-0.2C83.6,17.3,83.7,17.4,83.7,17.5z"/>
<path class="st16" d="M85.2,45.6c0.1-0.1,0.1-0.1,0.2-0.2C85.3,45.5,85.3,45.5,85.2,45.6z"/>
<path class="st16" d="M84.4,18.5c-0.1-0.1-0.1-0.1-0.2-0.2C84.2,18.4,84.3,18.4,84.4,18.5z"/>
<path class="st16" d="M85.4,45.4c0.1-0.1,0.1-0.1,0.2-0.2C85.6,45.3,85.5,45.3,85.4,45.4z"/>
<path class="st16" d="M85.6,45.1c0-0.1,0.1-0.1,0.1-0.2C85.7,44.9,85.7,45,85.6,45.1z"/>
<path class="st16" d="M84.6,18.8c0,0-0.1-0.1-0.1-0.1C84.5,18.8,84.5,18.8,84.6,18.8z"/>
<path class="st15" d="M127.8,34.1C127.8,34.2,127.8,34.2,127.8,34.1c-0.5,0.3-0.5,0.7-0.5,1c0,3.7,0,7.4,0,11.1c0,1.5,0,3.1,0,4.7
	c-0.7,0-1.5,0.1-2.2,0.1c-1.1,0-2.2,0-3.3,0c-0.5,0-1,0-1.5-0.1c-0.1,0-0.2-0.2-0.2-0.3c0-0.1,0-0.2,0-0.4c0-7.7,0-15.4,0-23.1
	c0-0.2,0.1-0.5,0.1-0.7c0-0.1,0-0.2,0-0.3c-0.2-0.4,0-0.7,0.5-0.7c0.8,0,1.7,0,2.5,0c1.1,0,2.2,0,3.2,0c0.5,0,0.7,0.2,0.7,0.7
	c0,0.5,0,1.1,0,1.6c0,0.2,0.1,0.5,0.2,0.7c0,0.1,0.2,0.1,0.3,0.1c0.2-0.1,0.5-0.3,0.7-0.4c0.5-0.5,1-1,1.5-1.4
	c0.5-0.3,1-0.5,1.5-0.8c2.2-1.2,4.7-1.2,7-0.6c1.8,0.5,3.1,1.7,4,3.4c0.4,0.9,0.5,1.9,0.9,2.7c0.7,1.7,0.4,3.4,0.5,5.1
	c0.1,4.5,0,9,0,13.5c0,0.8,0,0.8-0.8,0.8c-1.8,0-3.6,0-5.4,0c-0.8,0-0.9-0.1-0.9-0.9c0-3.9,0-7.8,0-11.7c0-0.8,0-1.6,0-2.5
	c0-0.8,0-1.6-0.2-2.4c-0.4-1.4-1.2-2.6-2.7-3c-1-0.2-2-0.1-2.9,0.4c-0.1,0.1-0.3,0.1-0.5,0.2c-0.2,0.1-0.5,0.2-0.7,0.3
	c-0.6,0.7-1.2,1.5-1.8,2.2C127.8,33.7,127.8,33.9,127.8,34.1z"/>
<path class="st7" d="M137.5,24.9c0.8-0.2,1.4,0.2,2.1,0.5c0.2,0.1,0.4,0.3,0.6,0.5C139.3,25.5,138.4,25.2,137.5,24.9z"/>
<path class="st7" d="M131.6,25.5c0.1-0.1,0.3-0.3,0.4-0.3c0.6-0.2,1.2-0.3,1.7-0.4c0,0,0.1,0.1,0.2,0.1
	C133.1,25.1,132.3,25.3,131.6,25.5z"/>
<path class="st7" d="M130.1,26.3c0.3-0.5,0.8-0.8,1.4-0.7C131,25.8,130.6,26,130.1,26.3z"/>
<path class="st7" d="M128.8,27.2c0.2-0.3,0.3-0.7,0.8-0.6C129.3,26.8,129.1,27,128.8,27.2z"/>
<path class="st7" d="M140.3,26c0.2,0.1,0.4,0.3,0.5,0.4C140.7,26.2,140.5,26.1,140.3,26z"/>
<path class="st7" d="M141.9,27.4c0.1,0.1,0.2,0.3,0.3,0.4C142.1,27.6,142,27.5,141.9,27.4z"/>
<path class="st7" d="M142.6,28.4c0.1,0.1,0.1,0.3,0.2,0.4C142.7,28.7,142.6,28.5,142.6,28.4z"/>
<path class="st7" d="M129.7,26.6c0.1-0.1,0.2-0.1,0.3-0.2C129.9,26.4,129.8,26.5,129.7,26.6z"/>
<path class="st7" d="M142.4,28c0.1,0.1,0.1,0.2,0.2,0.3C142.5,28.3,142.4,28.2,142.4,28z"/>
<path class="st7" d="M142.9,28.9c0,0.1,0.1,0.2,0.1,0.3C142.9,29.1,142.9,29,142.9,28.9z"/>
<path class="st7" d="M128.6,27.4c0.1,0,0.1-0.1,0.2-0.1C128.8,27.3,128.7,27.3,128.6,27.4z"/>
<path class="st7" d="M140.9,26.4c0.1,0,0.1,0.1,0.2,0.1C141,26.5,140.9,26.4,140.9,26.4z"/>
<path class="st7" d="M142.2,27.8c0,0,0.1,0.1,0.1,0.1C142.3,27.9,142.3,27.9,142.2,27.8z"/>
<path class="st7" d="M142.1,27.7c0,0,0.1,0.1,0.1,0.1C142.2,27.8,142.2,27.8,142.1,27.7z"/>
<path class="st7" d="M142.8,28.8c0,0,0.1,0.1,0.1,0.1C142.8,28.9,142.8,28.8,142.8,28.8z"/>
<path class="st7" d="M130,26.4c0,0,0.1-0.1,0.1-0.1C130.1,26.3,130,26.3,130,26.4z"/>
<path class="st7" d="M140.2,25.9c0,0,0.1,0.1,0.1,0.1C140.3,25.9,140.2,25.9,140.2,25.9z"/>
<path class="st7" d="M128.4,27.5c0,0,0.1-0.1,0.1-0.1C128.5,27.5,128.5,27.5,128.4,27.5z"/>
<path class="st7" d="M128.5,27.4c0,0,0.1-0.1,0.1-0.1C128.6,27.4,128.6,27.4,128.5,27.4z"/>
<path class="st7" d="M141.8,27.3C141.8,27.3,141.9,27.3,141.8,27.3C141.9,27.3,141.8,27.3,141.8,27.3z"/>
<path class="st7" d="M141.7,27.1C141.7,27.2,141.7,27.2,141.7,27.1C141.7,27.2,141.7,27.2,141.7,27.1z"/>
<path class="st7" d="M141.6,27C141.6,27.1,141.6,27.1,141.6,27C141.6,27.1,141.6,27.1,141.6,27z"/>
<path class="st7" d="M141.5,26.9c0,0,0.1,0.1,0.1,0.1C141.5,27,141.5,27,141.5,26.9z"/>
<path class="st18" d="M157.4,33.2c-0.8,0.8-1.4,1.7-1.4,2.9c0,4.8,0,9.6,0,14.3c0,0.5-0.2,0.7-0.7,0.7c-2.1,0-4.2,0-6.2,0
	c-0.4,0-0.6-0.2-0.6-0.6c0-8.2,0-16.4,0-24.6c0-0.4,0.1-0.6,0.5-0.6c2.1,0,4.2,0,6.3,0c0.5,0,0.7,0.1,0.7,0.7c0,0.7,0,1.4,0,2.2
	c0,0.2,0,0.3,0,0.6c0.3-0.2,0.4-0.4,0.6-0.5c1.4-1.4,2.8-2.6,4.7-3.4c1.3-0.6,2.7-0.8,4.1-0.5c0.3,0.1,0.5,0.2,0.5,0.5c0,2,0,4,0,6
	c0,0.6-0.4,0.4-0.7,0.4c-1.2,0-2.3-0.1-3.5-0.1c-1.5,0.1-2.9,0.6-4,1.6C157.5,33,157.4,33.1,157.4,33.2
	C157.4,33.2,157.4,33.2,157.4,33.2z"/>
<path class="st2" d="M156.2,28.2C156.2,28.2,156.2,28.2,156.2,28.2C156.2,28.2,156.2,28.2,156.2,28.2
	C156.2,28.1,156.2,28.2,156.2,28.2z"/>
<path class="st14" d="M173.9,12.7c0.5,0.1,0.9,0.3,1.4,0.4c0.2,0.1,0.4,0.1,0.6,0.2c0.1,0,0.3,0.1,0.3,0.1c0.3,0.6,0.9,0.9,1.2,1.5
	c0.3,0.6,0.3,1.2,0.4,1.8c0.2,1.6-0.7,3.3-2.1,4c-0.7,0.3-1.3,0.6-2.1,0.3c-0.6,0.5-0.8-0.3-1.2-0.5c-0.4-0.2-0.7-0.6-1.1-0.9
	c-0.6-0.4-0.8-1-0.9-1.6c-0.1-0.5,0-1,0-1.6c0-0.2,0.1-0.4,0.1-0.7c0-0.6,0.3-1.1,0.8-1.4c0.2-0.1,0.4-0.2,0.5-0.4
	c0.2-0.2,0.2-0.6,0.4-0.6C172.7,13,173.3,12.9,173.9,12.7z"/>
<path class="st19" d="M166.5,26.8C166.4,26.8,166.4,26.8,166.5,26.8c-0.1,0.1-0.1,0.1-0.1,0.1C166.3,26.8,166.3,26.7,166.5,26.8
	C166.4,26.7,166.4,26.7,166.5,26.8z"/>
<path class="st15" d="M28.2,48.4c0,0,0-0.1,0.1-0.1c0.3-0.1,0.5-0.2,0.7-0.6c0.2-0.4,0.5-0.8,0.8-1.2c0.4-0.5,0.8-1,1.1-1.6
	c0.7-1.1,1.5-2.3,2.1-3.4c0.3-0.5,0.8-0.9,0.7-1.6c0,0,0-0.1,0-0.1c0.9,0,1.8,0,2.7,0c2.5,0,5.1,0,7.6,0c0.5,0,1,0,1.5,0
	c0.1,0,0.2,0,0.2,0c0.1,0,0.1,0,0.2,0c0.1,0,0.2,0,0.2,0c0.1,0,0.1,0,0.2,0c-0.4,0.7-0.9,1.3-1.2,2c-0.7,1.2-1.7,2.1-2,3.5
	c-0.2,0.3-0.4,0.6-0.6,1c0,0-0.1,0.1-0.1,0.1c0,0,0,0,0,0c-0.4,0.4-1,0.7-0.8,1.4c-0.3,0.3-0.5,0.6-0.7,0.9
	c-0.2,0.3-0.4,0.5-0.6,0.8c-0.2,0.3-0.4,0.5-0.8,0.5c-3.7,0-7.4,0-11.1,0c-0.2,0-0.4-0.1-0.4-0.1c0-0.2,0.1-0.4,0.1-0.6
	C28.1,48.9,28.2,48.7,28.2,48.4z"/>
<path class="st16" d="M43.2,45.3c0.3-1.4,1.4-2.3,2-3.5c0.4-0.7,0.8-1.3,1.2-2c0.1,0,0.2,0,0.3-0.1c-0.1,0.2-0.1,0.5-0.2,0.7
	c-0.7,1-1.4,2.1-2.1,3.1c-0.1,0.1-0.1,0.2-0.1,0.3c0,0-0.1,0.1-0.1,0.1c-0.2,0.3-0.4,0.5-0.6,0.7C43.5,45,43.3,45.2,43.2,45.3z"/>
<path class="st17" d="M41.6,47.7c-0.1-0.7,0.5-1,0.8-1.4C42.2,46.8,41.9,47.3,41.6,47.7z"/>
<path class="st17" d="M42.4,46.4c0,0,0.1-0.1,0.1-0.1C42.5,46.3,42.5,46.3,42.4,46.4z"/>
<path class="st20" d="M18.6,14.5C18.5,14.5,18.5,14.4,18.6,14.5c0-0.5-0.2-0.8-0.6-1c0,0,0,0,0,0c0-0.1,0-0.2,0-0.3
	c0.6-0.3,1.2-0.3,1.8-0.3c3.2,0,6.4,0,9.6,0c0.4,0,0.8,0,1,0.3c0,0,0.2,0,0.3,0c0,0,0.1,0,0.1,0c0,0,0,0,0,0c0,0.1,0,0.2,0,0.3
	c0,0.4,0,0.7,0.4,0.8c0,0,0,0,0,0c0.1,0.1,0.1,0.3,0.2,0.4c0,0,0,0,0,0c0.2,0.4,0.4,0.7,0.6,1.1c0,0,0,0,0,0
	c0.1,0.2,0.3,0.4,0.4,0.6c0,0,0,0.1,0,0.1c0.1,0.1,0.1,0.1,0.2,0.2c0.4,0.7,0.8,1.5,1.3,2.2c0,0.3,0,0.5,0,0.7
	c0.3,0.2,0.5,0.3,0.6,0.5c0.1,0.2,0.1,0.6,0,0.7c-0.4,0.5-0.5,1-0.3,1.5c0.3,0.6,0.2,0.9-0.5,0.9c-2.6,0-5.1,0-7.7,0
	c-0.5,0-0.9-0.2-1.4-0.2c0,0,0-0.1,0-0.1c-0.2,0.1-0.5,0.1-0.7,0.2l0,0c-0.1-0.1-0.1-0.1-0.2-0.2c0,0,0-0.1,0-0.1c0-0.8,0-0.9-0.6-1
	l0,0c-0.1-0.1-0.1-0.1-0.2-0.2c0,0-0.1,0-0.1,0c-0.1-0.2-0.2-0.5-0.3-0.7c0.1-0.6-0.5-1-0.7-1.6c-0.2-0.3-0.5-0.6-0.8-0.9
	c0,0,0-0.1,0-0.1c0.1-0.6-0.4-0.9-0.8-1.2c-0.1-0.1-0.2-0.1-0.2-0.2c0,0,0,0,0-0.1c-0.3-0.6-0.6-1.3-1-1.9c0,0-0.2,0-0.2-0.1
	c0,0,0,0,0,0C18.7,14.7,18.6,14.6,18.6,14.5z"/>
<path class="st21" d="M23.4,24.5c0.2-0.2,0.3-0.5,0.5-0.7c0.3-0.1,0.5-0.2,0.8-0.2c0.1,0,0.2,0,0.3,0c3.7,0,7.5,0,11.2,0
	c0.2,0,0.3-0.1,0.5-0.1c0,0.2,0.1,0.4,0.1,0.5c-1,1.6-2.1,3.2-3.1,4.7c0,0,0,0,0,0c-2.1,0-4.2,0-6.4,0c-0.2,0-0.3,0.1-0.5,0.1
	c-0.3,0-0.6,0-0.5,0.4c0,0,0,0,0,0c0,0-0.1,0.1-0.1,0.1c0,0,0,0,0,0c0,0,0,0.1-0.1,0.1c-1,1.4-1.9,2.8-2.9,4.2c-0.9,0-1.9,0-2.8,0
	c-0.5,0-0.9,0.1-1.4,0.1c-0.3,0-0.6,0-0.9,0c-0.3,0-0.5-0.1-0.5-0.4c1.9-2.8,3.7-5.6,5.6-8.4C23.3,24.8,23.3,24.6,23.4,24.5z"/>
<path class="st22" d="M36.6,23.5c-0.2,0-0.3,0.1-0.5,0.1c-3.7,0-7.5,0-11.2,0c-0.1,0-0.2,0-0.3,0c-0.2-0.2-0.4-0.4-0.6-0.6
	c0.2-0.1,0.5-0.1,0.7-0.2c0,0,0,0.1,0,0.1c0.5,0.1,0.9,0.2,1.4,0.2c2.6,0,5.1,0,7.7,0c0.7,0,0.8-0.2,0.5-0.9c-0.3-0.5-0.1-1,0.3-1.5
	c0.1-0.2,0.1-0.5,0-0.7c-0.1-0.2-0.3-0.3-0.6-0.5c0-0.1,0-0.4,0-0.7c0.3,0.5,0.7,0.9,1,1.4c0.5,0.8,0.9,1.6,1.4,2.4
	C36.5,22.9,36.6,23.2,36.6,23.5z"/>
<path class="st22" d="M32.1,15.8c-0.2-0.4-0.4-0.7-0.6-1.1C31.9,14.9,32.1,15.3,32.1,15.8z"/>
<path class="st22" d="M31.2,14.3c-0.5-0.1-0.4-0.5-0.4-0.8C30.9,13.7,31.1,14,31.2,14.3z"/>
<path class="st22" d="M32.5,16.4c-0.1-0.2-0.3-0.4-0.4-0.6C32.2,16,32.3,16.2,32.5,16.4z"/>
<path class="st22" d="M31.4,14.7c-0.1-0.1-0.1-0.3-0.2-0.4C31.3,14.4,31.4,14.6,31.4,14.7z"/>
<path class="st22" d="M32.7,16.7c-0.1-0.1-0.1-0.1-0.2-0.2C32.6,16.6,32.6,16.6,32.7,16.7z"/>
<path class="st23" d="M46.3,39.9c-0.1,0-0.2,0-0.2,0c-0.1,0-0.1,0-0.2,0c-0.1,0-0.2,0-0.2,0c-0.3-0.3-1.2-0.3-1.5,0
	c-2.5,0-5.1,0-7.6,0c-0.1-0.1-0.3-0.2-0.4-0.2c-0.8,0-1.5,0-2.3,0l0,0c-0.1-0.3-0.2-0.6-0.3-0.8c-0.2-0.4-0.5-0.8-0.8-1.2
	c-0.4-0.6-0.7-1.4-1.2-1.9c-0.5-0.5-0.8-1.1-1.2-1.8c-0.5-0.9-1.3-1.7-2-2.5c-0.1-0.2-0.3-0.4-0.4-0.5c0-0.5-0.2-0.8-0.6-0.9
	c0,0,0,0,0-0.1c-0.1-0.2-0.1-0.4-0.2-0.6c0.3-0.1,0.5-0.2,0.8-0.2c0.2,0,0.5,0.2,0.7,0.1c1.7-0.1,3.4-0.1,5.1-0.2
	c0.3,0,0.6,0.1,0.9,0.1c0.1,0,0.3-0.1,0.4-0.1c1.1,0,2.2,0,3.3,0c0.4,0,0.9,0.1,1.3,0.2c0.1,0,0.2,0.2,0.2,0.3
	c-0.1,0.4,0.2,0.6,0.4,0.8c0.3,0.4,0.6,0.7,0.8,1.1c0.4,0.5,0.7,1,1.1,1.6c0.4,0.7,0.8,1.4,1.3,2.1c0.3,0.4,0.6,0.8,1,1.2
	c0.4,0.5,0.8,0.9,1,1.6c0.2,0.5,0.6,0.9,0.9,1.4C46.2,39.6,46.2,39.7,46.3,39.9z"/>
<path class="st22" d="M33.6,29.1c-1.7,0.1-3.4,0.1-5.1,0.2c-0.2,0-0.5-0.1-0.7-0.1c-0.3,0-0.5,0.1-0.8,0.2c-0.1-0.2-0.2-0.3-0.3-0.5
	c0.2,0,0.3-0.1,0.5-0.1c2.1,0,4.2,0,6.4,0C33.6,28.8,33.6,29,33.6,29.1z"/>
<path class="st9" d="M34.8,29.1c-0.1,0-0.3,0.1-0.4,0.1C34.5,29.2,34.7,29.1,34.8,29.1z"/>
<path class="st10" d="M17.6,33.3c0,0.4,0.1,0.5,0.5,0.4c0.3,0,0.6,0,0.9,0c0.5,0,0.9-0.1,1.4-0.1c0.9,0,1.9,0,2.8,0
	c0.1,0.2,0.1,0.4,0.2,0.6c0.5,0.9,1.1,1.8,1.6,2.7c0,0,0,0,0,0.1c-0.7-0.9-1.4-1.9-2.1-2.8c-0.1-0.1-0.3-0.3-0.5-0.3
	c-0.7,0-1.4,0-2.1,0c-0.2,0-0.5,0.2-0.7,0.3c-0.2,0-0.4,0.1-0.5,0c-0.2-0.5-0.5-0.4-0.9-0.3c-0.4,0-0.8,0-1.1,0.1
	c-0.5-0.8-0.9-1.4-1.3-2.1c-0.5-0.7-1-1.3-1.6-2c0,0,0-0.1-0.1-0.1c-0.1-0.5-0.5-0.6-0.9-0.6c-1.7,0-3.5,0-5.2,0
	c-0.2,0-0.4,0.1-0.4,0.1c0,0.2,0.1,0.4,0.1,0.6c0.2,0.4,0.4,0.9,0.6,1.3c-0.3-0.4-0.6-0.7-0.9-1.1c-0.1-0.2-0.3-0.4-0.4-0.6
	c0,0-0.1-0.1-0.1-0.1c0-0.1-0.1-0.1-0.1-0.2c0.2-0.1,0.3-0.2,0.5-0.2c2,0,4.1,0,6.1,0c0.4,0,0.7,0.2,0.9,0.5
	c0.8,1.3,1.7,2.6,2.5,3.8C17.1,33.5,17.3,33.7,17.6,33.3z"/>
<path class="st10" d="M13.6,40c-0.1-0.3-0.2-0.6-0.3-0.8c-0.7-1.1-1.4-2.2-2.1-3.3c-0.2-0.4-0.5-0.9-0.7-1.3c0.1,0,0.3,0,0.4,0.1
	c0.3,0.4,0.5,0.8,0.7,1.2c0.3,0.5,0.6,0.9,0.9,1.4c0.3,0.4,0.6,0.7,0.8,1.1c0.4,0.8,0.9,1.3,2,1.3c3.3-0.1,6.5,0,9.8,0
	c1.1,0,0.9,0.2,0.9-1c0,0,0,0,0.1,0c0.2,0.4,0.5,0.7,0.7,1.1c-0.1,0.1-0.2,0.1-0.3,0.2c-0.7,0-1.5-0.1-2.2-0.1c-0.6,0-1.1,0-1.7,0
	c-2.5,0-4.9,0-7.4,0c-0.4,0-0.8,0-1.2,0c0,0-0.1,0.1-0.1,0.1C13.7,40,13.7,40,13.6,40C13.7,40,13.7,40,13.6,40z"/>
<path class="st10" d="M28.3,31.4c0.7,0.8,1.4,1.6,2,2.5c0.4,0.6,0.7,1.3,1.2,1.8c0.6,0.6,0.8,1.3,1.2,1.9c0.3,0.4,0.5,0.8,0.8,1.2
	c0.1,0.3,0.2,0.6,0.3,0.8c0,0-0.1,0-0.1,0c-1.7-2.5-3.3-4.9-5-7.4c0-0.1-0.1-0.1-0.2-0.2c-0.1-0.1-0.2-0.2-0.2-0.3
	C28.3,31.7,28.3,31.6,28.3,31.4z"/>
<path class="st4" d="M26.4,40c0.1-0.1,0.2-0.1,0.3-0.2c0,0.2,0,0.4-0.1,0.5c-0.7,1.1-1.4,2.1-2,3.2c0,0-0.1,0.1-0.1,0.1
	c-0.1,0.1-0.1,0.2-0.2,0.3c0,0,0,0.1-0.1,0.1c-0.1,0.1-0.2,0.1-0.2,0.2c0.1-0.3,0.2-0.6,0.4-0.9c0.1-0.2,0.3-0.4,0.3-0.6
	c0-0.5,0.1-0.8,0.6-1c0.1,0,0.2-0.2,0.2-0.3C25.8,41,26.1,40.5,26.4,40z"/>
<path class="st10" d="M24.9,37c0.4,0.6,0.7,1.1,1.1,1.7c0,0,0,0-0.1,0c-0.4-0.4-0.9-0.8-1.2-1.2C24.8,37.4,24.8,37.2,24.9,37
	C24.9,37,24.9,37,24.9,37z"/>
<path class="st10" d="M26.7,28.8c0.1,0.2,0.2,0.3,0.3,0.5c0.1,0.2,0.1,0.4,0.2,0.6c-0.2-0.2-0.4-0.4-0.5-0.6
	c-0.2-0.2-0.3-0.3-0.5-0.1C26.1,28.8,26.4,28.8,26.7,28.8z"/>
<path class="st10" d="M27.2,29.9c0.5,0.1,0.6,0.5,0.6,0.9C27.6,30.6,27.4,30.3,27.2,29.9z"/>
<path class="st10" d="M26,29.3C26.1,29.3,26.1,29.2,26,29.3C26.1,29.2,26.1,29.3,26,29.3z"/>
<path class="st10" d="M26,29.4C26,29.4,26,29.4,26,29.4C26,29.4,26,29.4,26,29.4z"/>
<path class="st15" d="M186,37.8C186,37.8,186,37.8,186,37.8c-0.2-0.4-0.5-0.6-0.8-0.6c0,0,0,0,0,0c-0.1-0.2-0.3-0.5-0.5-0.7
	c-0.3-0.4-0.7-0.7-1.1-1.1c0-0.4,0.1-0.7,0.1-1.1c0-0.1-0.2-0.3-0.3-0.3c-0.2-0.1-0.4-0.1-0.7-0.2c0-0.6,0-1.3,0-1.9
	c0.1-0.1,0.2-0.2,0.2-0.4c0.1-0.2,0-0.4,0.1-0.5c0.3-0.4,0.4-0.9,0.3-1.4c0,0,0-0.1,0-0.1c0.5-0.3,0.8-0.7,0.8-1.3
	c0,0,0.1-0.1,0.1-0.1c0.1,0,0.1,0.1,0.2,0.1c0.5-0.4,1.1-0.6,1.2-1.3c0.2-0.1,0.4-0.2,0.5-0.3c0.2,0,0.6,0.1,0.5-0.3c0,0,0,0,0,0
	c0,0,0.1-0.1,0.1-0.1c0,0,0,0,0,0c0.6,0,1.2,0,1.6-0.6c0.2-0.1,0.4-0.1,0.6-0.2c0.3,0,0.6,0.1,0.9,0c0.4-0.1,0.8-0.3,1.2-0.4
	c0.1,0,0.2,0,0.3,0c0,0,0.1-0.1,0.1-0.1c0.1,0,0.1,0,0.2,0c0.2,0,0.3,0.1,0.5,0.1c1.1,0,2.1,0,3.2,0c0.1,0,0.2,0,0.3,0
	c0.1,0.3,0.3,0.4,0.7,0.4c0.4,0,0.8,0,1.1,0c0.5,0.2,1,0.4,1.5,0.6c0.3,0.1,0.7,0.2,1,0.3c0,0,0,0,0,0c0.1,0.1,0.1,0.3,0.2,0.3
	c0.5,0.3,1,0.6,1.5,1c-0.1,0.2-0.2,0.3-0.3,0.4c-0.4,0-0.7,0.2-0.9,0.6c-0.2,0.4-0.6,0.7-0.9,1.1c-0.2,0.2-0.4,0.3-0.6,0.5
	c-0.3,0.3-0.6,0.7-0.9,1.1c-0.3,0.4-0.6,0.8-1.2,0.4c0,0-0.1,0-0.1,0.1c0,0-0.1-0.1-0.1-0.1c-0.1-0.1-0.3-0.2-0.4-0.3c0,0,0,0,0,0
	c0,0-0.1-0.1-0.1-0.1c0,0-0.1-0.1-0.1-0.1c0,0-0.1-0.1-0.1-0.1c0,0,0,0-0.1,0c-0.1-0.1-0.1-0.3-0.2-0.3c-0.5-0.2-1.1-0.4-1.6-0.5
	c-1.4-0.2-2.7,0.1-3.8,1.1c-0.6,0.6-0.7,1.8,0,2.3c0.5,0.4,1,1,1.6,1.1c0.8,0.2,1.3,0.8,2.2,0.8c0.4,0,0.8,0.2,1.1,0.3
	c0.6,0.2,1.2,0.5,1.8,0.5c0.9,0,1.7,0.3,2.4,0.7c0.5,0.3,1,0.5,1.4,1c0.5,0.6,0.9,1.3,1.4,1.9c0.2,0.2,0.4,0.4,0.6,0.6c0,0,0,0,0,0
	c0.1,0.7,0.2,1.3,0.2,2c0,0.2,0,0.3-0.1,0.5c0,0.2-0.1,0.3-0.1,0.5c0,0.6,0,1.2,0,1.7c0,0,0,0,0,0c0,0.1-0.1,0.1-0.1,0.2
	c0,0,0,0,0,0c-0.2,0.2-0.4,0.4-0.5,0.6c-0.4,1-0.9,1.8-1.7,2.5c-0.2,0.2-0.4,0.5-0.5,0.7c0,0,0,0,0,0c-0.4,0.1-0.7,0.3-1.1,0.4
	c-0.6,0.3-1.1,0.6-1.8,0.6c-0.3,0-0.6,0.3-1,0.4c-1.3,0.4-2.7,0.5-4,0.4c-1.2-0.1-2.4-0.1-3.5-0.5c-0.9-0.3-1.9-0.3-2.7-0.8
	c-0.1-0.1-0.3,0-0.4,0c-0.7-0.4-1.5-0.8-2.2-1.2c-0.3-0.2-0.6-0.3-0.9-0.5c-0.3-0.2-0.2-0.4,0-0.7c0.1,0,0.3,0,0.4-0.1
	c0.3-0.3,0.6-0.7,0.9-1c0.1-0.2,0.1-0.4,0.2-0.6c0,0,0,0,0,0c0.6-0.1,1.5-1.2,1.5-1.8c0,0,0,0,0,0c0.5-0.5,1-0.4,1.6,0
	c0.3,0.2,0.7,0.2,1.1,0.4c0,0,0,0,0,0c0.1,0.1,0.2,0.3,0.4,0.4c1.1,0.4,2.2,1,3.4,1c0.2,0,0.5,0.1,0.7,0.1c0.7,0,1.3-0.1,2-0.2
	c0.2,0,0.3-0.3,0.4-0.4c0,0,0,0,0,0c0.1,0,0.2,0,0.2,0c0.6,0,0.7-0.5,0.9-0.9c0.3-0.5,0-1.4-0.4-1.6c-0.1-0.2-0.3-0.4-0.4-0.6
	c-0.3-0.5-1-0.6-1.5-0.9c0-0.1-0.1-0.2-0.1-0.2c-0.5-0.1-0.9-0.2-1.4-0.2c-0.6-0.2-1.3-0.4-1.9-0.6c-0.3-0.8-1-0.9-1.8-0.8
	c-0.7-0.3-1.3-0.6-2-1c-0.2-0.1-0.5-0.1-0.7-0.2c0,0,0,0,0,0C186.1,37.9,186.1,37.8,186,37.8z"/>
<path class="st12" d="M188.2,44.1c-0.4-0.1-0.8-0.2-1.1-0.4c-0.6-0.4-1-0.5-1.6,0c0,0,0-0.1,0-0.1c0.6-0.8,0.6-0.8,1.4-0.3
	c0.4,0.2,0.8,0.4,1.2,0.7C188.2,44,188.2,44.1,188.2,44.1z"/>
<path class="st16" d="M185.5,43.7c-0.1,0.7-1,1.7-1.5,1.8C184.5,44.9,185,44.3,185.5,43.7z"/>
<path class="st16" d="M184,45.6c0,0.2,0,0.4-0.2,0.6c-0.3,0.4-0.6,0.7-0.9,1c-0.1,0.1-0.2,0.1-0.4,0.1C183,46.7,183.5,46.2,184,45.6
	z"/>
<path class="st24" d="M26.4,40c-0.3,0.5-0.6,1-0.9,1.5c-0.1,0.1-0.1,0.2-0.2,0.3c-0.5,0.1-0.6,0.5-0.6,1c0,0.2-0.2,0.4-0.3,0.6
	c-0.1,0.3-0.3,0.6-0.4,0.9c0,0,0,0,0,0c0,0-0.1,0.1-0.1,0.1c0,0,0,0,0,0c-0.6,0.2-0.6,0.7-0.9,1.1c-0.1,0.1-0.1,0.3-0.2,0.4
	c0,0-0.1,0.1-0.1,0.1c0,0,0,0,0,0c-0.5,0.1-0.8,0.6-0.8,1.2c0,0.1-0.1,0.1-0.1,0.2c-0.4,0.4-0.7,0.8-1.1,1.3c-0.2,0.3-0.3,0.6-0.4,1
	c0,0,0,0.1,0,0.1c-0.3,0.1-0.6,0.2-0.9,0.2c-3.6,0-7.2,0-10.8,0c-0.1,0-0.3,0-0.4,0c-0.2-0.1-0.5-0.1-0.2-0.5c0.1-0.1,0-0.2,0.1-0.4
	c0.3-0.3,0.6-0.6,0.7-0.9c0.2-0.6,0.8-1,1.1-1.5c0.2-0.3,0.4-0.7,0.6-1c0.6-0.9,1.1-1.7,1.7-2.5c0.5-0.8,1-1.5,1.5-2.3
	c0.1-0.2,0.1-0.5,0.2-0.7c0,0,0,0,0.1,0c0,0,0.1-0.1,0.1-0.1c0.4,0,0.8,0,1.2,0c2.5,0,4.9,0,7.4,0c0.6,0,1.1,0,1.7,0
	C24.9,39.9,25.6,40,26.4,40z"/>
<path class="st17" d="M7.9,49c0,0.1,0,0.3-0.1,0.4c-0.2,0.3,0.1,0.4,0.2,0.5c0.1,0,0.3,0,0.4,0c3.6,0,7.2,0,10.8,0
	c0.3,0,0.6-0.1,0.9-0.2c0,0.4-0.3,0.3-0.5,0.3c-4,0-8.1,0-12.2,0c0-0.2,0-0.4,0-0.6c0,0,0,0,0,0c0,0,0.1-0.1,0.1-0.1c0,0,0,0,0,0
	C7.7,49.1,7.7,49,7.8,49c0,0,0,0,0,0C7.8,49,7.9,49,7.9,49z"/>
<path class="st12" d="M195.9,24.9c-0.1,0-0.2,0-0.3,0c-0.6-0.1-1.3-0.2-1.9-0.2c-0.6,0-1.2,0.1-1.8,0.1c-0.1,0-0.1,0-0.2,0
	c0,0-0.1,0.1-0.1,0.1c-0.1,0-0.2,0-0.3,0c-0.7,0.1-1.4,0.3-2.1,0.4c-0.2,0.1-0.4,0.1-0.6,0.2c-0.2,0-0.4,0-0.5,0
	c1.2-0.6,2.5-0.9,3.9-0.9c1.5-0.1,3,0.1,4.5,0.2c0.1,0,0.2,0.1,0.3,0.1C196.4,24.9,196.2,24.9,195.9,24.9z"/>
<path class="st12" d="M200.3,26.1c-0.3-0.1-0.7-0.2-1-0.3c-0.5-0.2-1-0.4-1.5-0.6c-0.3-0.1-0.6-0.3-0.9-0.4
	C198.1,25.1,199.2,25.5,200.3,26.1z"/>
<path class="st17" d="M185.7,26.9c-0.1,0.7-0.7,1-1.2,1.3c0,0-0.1-0.1-0.2-0.1c0-0.1,0-0.1,0-0.2c0,0,0-0.1,0.1-0.1
	c0,0,0.1-0.1,0.1-0.1c0,0,0,0,0,0c0,0,0.1-0.1,0.1-0.1c0,0,0,0,0,0c0,0,0.1-0.1,0.1-0.1c0,0,0,0,0,0c0.2-0.2,0.4-0.3,0.6-0.5
	c0.1-0.1,0.1-0.1,0.2-0.2C185.6,26.9,185.7,26.9,185.7,26.9z"/>
<path class="st12" d="M201.6,27.8c0.1-0.1,0.2-0.2,0.3-0.4c-0.5-0.3-1-0.6-1.5-1c-0.1-0.1-0.1-0.2-0.2-0.3c0.3,0.2,0.7,0.3,1,0.5
	c0,0,0.1,0.1,0.1,0.1c0.1,0.1,0.2,0.1,0.3,0.2c0,0,0.1,0.1,0.1,0.1c0.4,0.5,0.4,0.5-0.1,1C201.6,27.9,201.6,27.9,201.6,27.8z"/>
<path class="st17" d="M188,25.5c0.2,0,0.4,0,0.5,0c-0.4,0.6-1,0.7-1.6,0.6c0.1-0.1,0.3-0.2,0.4-0.4c0.1,0,0.1,0,0.2-0.1
	c0.1,0,0.2-0.1,0.3-0.1c0,0,0,0,0,0C187.9,25.6,187.9,25.5,188,25.5C188,25.5,188,25.5,188,25.5z"/>
<path class="st17" d="M196.9,24.9c0.3,0.1,0.6,0.3,0.9,0.4c-0.4,0-0.8,0-1.1,0c-0.3,0-0.6-0.1-0.7-0.4c0.2,0,0.5,0,0.7,0
	C196.7,24.9,196.8,24.9,196.9,24.9z"/>
<path class="st12" d="M187.4,25.8c-0.1,0.1-0.3,0.2-0.4,0.4c0,0,0,0,0,0c0,0-0.1,0.1-0.1,0.1c0,0,0,0,0,0c-0.2,0.1-0.4,0.2-0.5,0.3
	c-0.2,0.1-0.4,0.2-0.5,0.3c-0.1,0-0.2,0-0.2,0C186.1,26.5,186.7,26.1,187.4,25.8z"/>
<path class="st12" d="M185.3,27c-0.2,0.2-0.4,0.3-0.6,0.5c0-0.1,0-0.1,0-0.2C184.9,27.3,185.1,27.2,185.3,27z"/>
<path class="st12" d="M187.8,25.6c-0.1,0-0.2,0.1-0.3,0.1C187.6,25.7,187.7,25.6,187.8,25.6z"/>
<path class="st12" d="M188,25.5c0,0-0.1,0.1-0.1,0.1C187.9,25.6,187.9,25.5,188,25.5z"/>
<path class="st8" d="M7.5,49.3c0,0.2,0,0.4,0,0.6c4.1,0,8.1,0,12.2,0c0.2,0,0.5,0,0.5-0.3c0,0,0-0.1,0-0.1c0.1,0,0.2-0.1,0.3-0.1
	c0,0.1-0.1,0.2-0.1,0.3c-0.1,0.1-0.1,0.2-0.2,0.3c0,0-0.1,0.1-0.1,0.1c-1,0-1.9,0-2.9,0c-3.2,0-6.4,0-9.7,0c-0.2,0-0.3,0-0.7,0
	C7.2,49.8,7.4,49.6,7.5,49.3z"/>
<path class="st8" d="M7.8,49c-0.1,0.1-0.1,0.2-0.2,0.2C7.7,49.1,7.7,49,7.8,49z"/>
<path class="st8" d="M7.6,49.2c0,0-0.1,0.1-0.1,0.1C7.5,49.3,7.6,49.2,7.6,49.2z"/>
<path class="st12" d="M195.1,44.9c-0.1,0.1-0.3,0.4-0.4,0.4c-0.6,0.1-1.3,0.2-2,0.2c-0.2,0-0.5-0.1-0.7-0.1c-1.2,0-2.3-0.6-3.4-1
	c-0.2-0.1-0.3-0.3-0.4-0.4c0.8,0.3,1.5,0.6,2.3,0.8c0.8,0.2,1.6,0.3,2.5,0.5C193.7,45.5,194.4,45.3,195.1,44.9z"/>
<path class="st12" d="M194,41c0.5,0.3,1.1,0.3,1.5,0.9c0.1,0.2,0.3,0.4,0.4,0.6c0,0.2,0,0.4,0,0.6c-0.4-1.2-1.2-1.8-2.4-2
	c-0.3-0.1-0.6-0.2-0.9-0.3C193.1,40.8,193.5,40.9,194,41z"/>
<path class="st17" d="M195.9,43.1c0-0.2,0-0.4,0-0.6c0.4,0.2,0.6,1.1,0.4,1.6c-0.2,0.4-0.3,0.9-0.9,0.9c0-0.1,0.1-0.2,0.1-0.3
	c0,0,0,0,0,0c0,0,0.1-0.1,0.1-0.1c0,0,0,0,0,0c0.3-0.2,0.4-0.5,0.3-0.8C195.9,43.5,195.9,43.3,195.9,43.1z"/>
<path class="st12" d="M190.6,39.9c0.6,0.2,1.3,0.4,1.9,0.6c0,0.1,0,0.1,0,0.2c-0.1,0-0.2,0-0.3,0c-0.7-0.3-1.3-0.5-2-0.8
	C190.4,39.9,190.5,39.9,190.6,39.9z"/>
<path class="st17" d="M192.5,40.7c0-0.1,0-0.1,0-0.2c0.5,0.1,0.9,0.1,1.4,0.2c0.1,0,0.1,0.1,0.1,0.2
	C193.5,40.9,193.1,40.8,192.5,40.7C192.6,40.8,192.6,40.7,192.5,40.7z"/>
<path class="st12" d="M195.9,43.7c0.1,0.4,0,0.6-0.3,0.8C195.7,44.3,195.8,44,195.9,43.7z"/>
<path class="st12" d="M195.5,44.6c0,0.1-0.1,0.2-0.1,0.3c-0.1,0-0.2,0-0.2,0C195.2,44.8,195.4,44.7,195.5,44.6z"/>
<path class="st12" d="M195.6,44.5c0,0-0.1,0.1-0.1,0.1C195.5,44.6,195.5,44.6,195.6,44.5z"/>
<path class="st22" d="M30.7,13.2c-0.1,0-0.2,0-0.3,0c-0.3-0.4-0.6-0.3-1-0.3c-3.2,0-6.4,0-9.6,0c-0.6,0-1.2,0.1-1.8,0.3
	c-0.1,0-0.1,0-0.2,0c0,0,0,0,0,0c-0.1-0.2-0.1-0.3-0.2-0.5c0.4,0,0.7,0,1.1,0c3.7,0,7.3,0,11,0c0.3,0,0.6,0.2,0.9,0.3c0,0,0,0,0,0
	C30.6,13,30.7,13.1,30.7,13.2z"/>
<path class="st12" d="M182.8,31.9c0,0.6,0,1.3,0,1.9c0.1,0.3,0.1,0.6,0.2,1c-0.5-0.6-0.5-1.4-0.5-2.1c0.1-1.2,0.2-2.4,0.9-3.4
	c0,0.1,0,0.2,0,0.3c0,0,0,0.1,0,0.1C183.2,30.4,183,31.1,182.8,31.9z"/>
<path class="st17" d="M183,34.7c-0.1-0.3-0.1-0.6-0.2-1c0.2,0.1,0.5,0.1,0.7,0.2c0.1,0.1,0.3,0.2,0.3,0.3c0,0.4-0.1,0.7-0.1,1.1
	c-0.1,0-0.2,0-0.2,0c0,0,0,0,0,0c0,0-0.1-0.1-0.1-0.1c0,0,0,0,0-0.1C183.3,34.9,183.3,34.7,183,34.7L183,34.7z"/>
<path class="st12" d="M183.4,35.4c0.1,0,0.2,0,0.2,0c0.4,0.4,0.7,0.7,1.1,1.1c0.2,0.2,0.3,0.5,0.5,0.7C184.6,36.6,184,36,183.4,35.4
	z"/>
<path class="st17" d="M183.4,29.5c0-0.1,0-0.2,0-0.3c0,0,0,0,0,0c0.1-0.1,0.1-0.2,0.2-0.3c0-0.1,0.1-0.1,0.1-0.2c0,0,0-0.1,0.1-0.1
	c0,0,0,0,0,0c0,0,0.1-0.1,0.1-0.1c0,0,0,0,0,0c0.1-0.1,0.1-0.2,0.2-0.3c0,0,0.1-0.1,0.1-0.1c0,0,0.1,0.1,0.1,0.1
	C184.2,28.8,183.9,29.3,183.4,29.5z"/>
<path class="st12" d="M185.2,37.2c0.4,0.1,0.7,0.2,0.8,0.6c-0.1-0.1-0.3-0.1-0.4-0.2C185.5,37.5,185.3,37.3,185.2,37.2z"/>
<path class="st12" d="M183,34.7c0.3,0,0.4,0.2,0.3,0.5C183.2,35,183.1,34.9,183,34.7z"/>
<path class="st12" d="M184.1,28.3c-0.1,0.1-0.1,0.2-0.2,0.3C183.9,28.5,184,28.4,184.1,28.3z"/>
<path class="st12" d="M184.3,28.2c0,0-0.1-0.1-0.1-0.1c0.1-0.1,0.1-0.2,0.2-0.2c0,0.1,0,0.1,0,0.2C184.3,28.2,184.3,28.2,184.3,28.2
	z"/>
<path class="st12" d="M183.6,29c-0.1,0.1-0.1,0.2-0.2,0.3C183.5,29.1,183.5,29,183.6,29z"/>
<path class="st12" d="M184.5,27.8C184.5,27.8,184.4,27.8,184.5,27.8C184.4,27.8,184.5,27.8,184.5,27.8z"/>
<path class="st12" d="M183.8,28.7C183.7,28.7,183.7,28.8,183.8,28.7C183.7,28.8,183.7,28.7,183.8,28.7z"/>
<path class="st12" d="M183.8,28.6c0,0-0.1,0.1-0.1,0.1C183.8,28.7,183.8,28.6,183.8,28.6z"/>
<path class="st12" d="M184.6,27.7C184.6,27.7,184.5,27.7,184.6,27.7C184.5,27.7,184.6,27.7,184.6,27.7z"/>
<path class="st12" d="M184.7,27.5C184.7,27.6,184.6,27.6,184.7,27.5C184.6,27.6,184.7,27.6,184.7,27.5z"/>
<path class="st12" d="M183.3,35.3c0,0,0.1,0.1,0.1,0.1C183.4,35.3,183.3,35.3,183.3,35.3z"/>
<path class="st8" d="M33.7,40c0.1,0.7-0.4,1.1-0.7,1.6c-0.7,1.2-1.4,2.3-2.1,3.4c-0.4,0.5-0.8,1-1.1,1.6c-0.3,0.4-0.6,0.8-0.8,1.2
	c-0.1,0.3-0.3,0.5-0.7,0.6c0.2-0.4,0.4-0.7,0.6-1.1c0.4-0.6,0.8-1.3,1.3-1.9c0.8-1.1,1.5-2.2,2.3-3.3c0-0.1,0.1-0.2,0.1-0.2
	c0,0,0.1,0,0.1-0.1c0.1-0.1,0.1-0.2,0.2-0.3c0.1-0.2,0.3-0.5,0.4-0.7c0,0,0.1-0.1,0.1-0.1c0-0.1,0.1-0.2,0.1-0.3c0-0.1,0-0.1,0-0.2
	c0-0.1,0.1-0.1,0.1-0.2C33.7,40,33.7,40,33.7,40z"/>
<path class="st9" d="M33.7,40c0,0-0.1,0-0.1,0c0-0.1,0-0.2,0-0.3c0,0,0.1,0,0.1,0c0,0,0,0,0,0C33.8,39.8,33.8,39.8,33.7,40
	C33.8,39.9,33.8,40,33.7,40z"/>
<path class="st12" d="M202.9,40.2c-0.2-0.2-0.4-0.4-0.6-0.6c-0.5-0.6-0.8-1.4-1.4-1.9c-0.4-0.4-0.9-0.7-1.4-1
	c-0.7-0.4-1.5-0.7-2.4-0.7c-0.6,0-1.2-0.3-1.8-0.5c-0.4-0.1-0.8-0.3-1.1-0.3c-0.9,0.1-1.4-0.6-2.2-0.8c-0.6-0.1-1.1-0.7-1.6-1.1
	c-0.6-0.6-0.6-1.7,0-2.3c1.1-1,2.4-1.3,3.8-1.1c0.6,0.1,1.1,0.3,1.6,0.5c0.1,0,0.2,0.2,0.2,0.3c-1-0.4-1.9-0.8-3-0.6
	c-0.7,0.1-1.4,0.2-1.9,0.7c-1,0.6-1.1,1.5-0.4,2.4c0,0,0.1,0.1,0.1,0.1c0.7,0.8,1.6,1.2,2.6,1.5c1.1,0.3,2.2,0.5,3.3,0.8
	c1,0.3,2,0.6,3,0.9c0.4,0.3,0.7,0.5,1.1,0.8c0.7,0.8,1.5,1.6,1.9,2.6C202.9,40.1,202.9,40.1,202.9,40.2z"/>
<path class="st12" d="M200.1,49c0.2-0.3,0.3-0.6,0.5-0.7c0.9-0.6,1.4-1.5,1.7-2.5c0.1-0.2,0.3-0.4,0.5-0.6c-0.1,0.4-0.2,0.8-0.4,1.1
	c-0.2,0.3-0.3,0.5-0.5,0.8c-0.1,0.1-0.1,0.2-0.2,0.3c-0.2,0.2-0.3,0.4-0.5,0.6c0,0-0.1,0.1-0.1,0.1C200.9,48.4,200.5,48.7,200.1,49z
	"/>
<path class="st12" d="M202.9,45c0-0.6,0-1.2,0-1.7c0-0.2,0.1-0.3,0.1-0.5c0-0.2,0.1-0.3,0.1-0.5c-0.1-0.7-0.1-1.3-0.2-2
	c0.1,0.7,0.4,1.5,0.4,2.2C203.3,43.3,203,44.1,202.9,45z"/>
<path class="st12" d="M202.8,45.2c0-0.1,0.1-0.1,0.1-0.2C202.9,45.1,202.8,45.1,202.8,45.2z"/>
<path class="st22" d="M21.1,18.3c0.3,0.3,0.6,0.6,0.8,0.9c0.2,0.5,0.8,0.9,0.7,1.6c-0.2-0.3-0.4-0.6-0.7-0.8
	c-0.1-0.1-0.1-0.2-0.2-0.3c0-0.1,0-0.1-0.1-0.2c0,0-0.1-0.1-0.1-0.1c0,0,0,0,0,0c0,0-0.1-0.1-0.1-0.1c0,0,0,0,0,0
	c0,0-0.1-0.1-0.1-0.1c0,0,0,0,0,0c0,0-0.1-0.1-0.1-0.1c0-0.1,0-0.1-0.1-0.2c0,0-0.1-0.1-0.1-0.1c0,0,0,0,0,0c0,0-0.1-0.1-0.1-0.1
	c0,0,0,0,0,0C21.1,18.5,21.1,18.4,21.1,18.3z"/>
<path class="st10" d="M24,23c0.2,0.2,0.4,0.4,0.6,0.6c-0.3,0.1-0.5,0.2-0.8,0.2c0.3-0.5-0.2-0.7-0.3-1.1c0,0,0,0,0-0.1
	c0.1,0,0.1,0,0.2,0c0,0,0,0.1,0,0.1C23.9,22.8,24,22.9,24,23L24,23z"/>
<path class="st10" d="M22.8,21.5c0,0,0.1,0,0.1,0c0.1,0.1,0.1,0.1,0.2,0.2c0,0,0,0,0,0c0.1,0.3,0.3,0.6,0.4,0.9c0,0,0,0,0,0.1
	C23.3,22.3,23.1,21.9,22.8,21.5z"/>
<path class="st9" d="M21.1,18.3c0,0.1,0,0.2,0,0.3c-0.1,0-0.1,0-0.2-0.1c0-0.1,0-0.2-0.1-0.3C20.9,18.2,21,18.2,21.1,18.3
	C21.1,18.3,21.1,18.3,21.1,18.3z"/>
<path class="st9" d="M21.7,19.7c0.1,0.1,0.1,0.2,0.2,0.3C21.8,19.8,21.8,19.8,21.7,19.7z"/>
<path class="st9" d="M21.5,19.3c0,0,0.1,0.1,0.1,0.1C21.5,19.3,21.5,19.3,21.5,19.3z"/>
<path class="st9" d="M21.6,19.4c0,0,0.1,0.1,0.1,0.1C21.6,19.5,21.6,19.4,21.6,19.4z"/>
<path class="st9" d="M21.4,19.2c0,0,0.1,0.1,0.1,0.1C21.4,19.2,21.4,19.2,21.4,19.2z"/>
<path class="st9" d="M21.3,19c0,0,0.1,0.1,0.1,0.1C21.4,19.1,21.3,19.1,21.3,19z"/>
<path class="st9" d="M21.2,18.7c0,0,0.1,0.1,0.1,0.1C21.2,18.8,21.2,18.8,21.2,18.7z"/>
<path class="st9" d="M21.1,18.6c0,0,0.1,0.1,0.1,0.1C21.1,18.7,21.1,18.7,21.1,18.6z"/>
<path class="st25" d="M24.9,37c-0.1,0.2-0.1,0.3-0.2,0.5c0.4,0.4,0.8,0.8,1.2,1.2c0,1.1,0.1,0.9-0.9,1c-3.3,0-6.5-0.1-9.8,0
	c-1.1,0-1.6-0.5-2-1.3c-0.2-0.4-0.5-0.8-0.8-1.1c-0.3-0.5-0.6-0.9-0.9-1.4c-0.2-0.4-0.5-0.8-0.7-1.2c-0.1-0.1-0.2-0.1-0.4-0.1
	c0,0,0,0,0,0c0-0.1,0-0.2,0-0.3c-0.1-0.1-0.1-0.3-0.2-0.4c0,0,0,0,0,0c0-0.5-0.2-0.8-0.6-0.8c-0.1,0-0.1,0-0.2,0c0,0,0-0.1,0-0.1
	c0-0.1-0.1-0.1-0.1-0.2c0,0,0,0,0,0c-0.1-0.2,0.1-0.7-0.4-0.6c0,0,0,0-0.1-0.1c0.1-0.2,0-0.5-0.4-0.8c0,0,0,0,0-0.1
	c-0.2-0.4-0.4-0.9-0.6-1.3c-0.1-0.2-0.1-0.4-0.1-0.6c0-0.1,0.3-0.1,0.4-0.1c1.7,0,3.5,0,5.2,0c0.4,0,0.8,0.1,0.9,0.6
	c0,0.1,0,0.1,0.1,0.1c0.5,0.7,1.1,1.3,1.6,2c0.4,0.6,0.8,1.3,1.3,2.1c0.3,0,0.7,0,1.1-0.1c0.4,0,0.7-0.2,0.9,0.3c0,0,0.3,0,0.5,0
	c0.3-0.1,0.5-0.2,0.7-0.3c0.7,0,1.4,0,2.1,0c0.2,0,0.4,0.1,0.5,0.3C23.5,35.2,24.2,36.1,24.9,37z"/>
<path class="st10" d="M8.4,31.2C8.8,31.5,9,31.8,8.8,32c-0.1,0-0.1-0.1-0.2-0.1C8.5,31.7,8.5,31.4,8.4,31.2z"/>
<path class="st10" d="M8.9,32.1c0.5,0,0.3,0.4,0.4,0.6C9.2,32.5,9,32.3,8.9,32.1z"/>
<path class="st10" d="M9.5,33c0.1,0,0.1,0,0.2,0c0,0.2,0.1,0.3,0.1,0.5l0,0C9.7,33.4,9.6,33.2,9.5,33z"/>
<path class="st10" d="M10.3,34.3c-0.1-0.1-0.2-0.3-0.2-0.4c0,0,0,0,0,0c0.1,0,0.1,0,0.2,0c0,0,0,0,0,0C10.3,34,10.3,34.1,10.3,34.3
	L10.3,34.3z"/>
<path class="st10" d="M10.5,34.3c0,0.1,0,0.2,0,0.3c-0.1-0.1-0.2-0.2-0.2-0.3c0,0,0,0,0,0C10.4,34.3,10.4,34.3,10.5,34.3z"/>
<path class="st10" d="M9.3,32.7c0,0.1,0.1,0.1,0.1,0.2C9.4,32.9,9.3,32.8,9.3,32.7z"/>
<path class="st10" d="M9.8,33.7c0,0-0.1-0.1-0.1-0.1c0,0,0,0,0,0C9.8,33.6,9.8,33.6,9.8,33.7C9.9,33.6,9.8,33.7,9.8,33.7z"/>
<path class="st10" d="M9.9,33.8c0,0-0.1-0.1-0.1-0.1c0,0,0,0,0,0C9.9,33.7,9.9,33.7,9.9,33.8C10,33.7,9.9,33.8,9.9,33.8z"/>
<path class="st10" d="M10,33.9c0,0-0.1-0.1-0.1-0.1c0,0,0,0,0,0C10,33.8,10,33.8,10,33.9C10.1,33.9,10,33.9,10,33.9z"/>
<path class="st17" d="M190.6,39.9c-0.1,0-0.2,0-0.4,0c0,0-0.1,0-0.1,0c-0.2-0.4-0.6-0.5-1-0.4c0,0,0,0,0,0c-0.1-0.1-0.3-0.1-0.4-0.2
	c0,0,0,0,0,0c0-0.1,0-0.2,0-0.2C189.6,39,190.3,39.1,190.6,39.9z"/>
<path class="st12" d="M189.2,39.5c0.4,0,0.7,0.1,1,0.4C189.9,39.8,189.6,39.6,189.2,39.5z"/>
<path class="st12" d="M188.8,39.3c0.1,0.1,0.3,0.1,0.4,0.2C189.1,39.4,188.9,39.4,188.8,39.3z"/>
<path class="st12" d="M196.6,31.1c0.1,0.1,0.3,0.2,0.4,0.3c-0.1,0-0.2-0.1-0.2-0.1c0,0-0.1-0.1-0.1-0.1
	C196.6,31.2,196.6,31.2,196.6,31.1z"/>
<path class="st12" d="M196.2,30.8c0,0,0.1,0.1,0.1,0.1C196.3,30.9,196.2,30.9,196.2,30.8z"/>
<path class="st12" d="M196.4,31c0,0,0.1,0.1,0.1,0.1C196.5,31.1,196.5,31,196.4,31z"/>
<path class="st9" d="M18.8,14.8c0.1,0,0.2,0,0.2,0.1c0.3,0.6,0.6,1.3,1,1.9c-0.3-0.5-0.6-0.9-1-1.4C18.9,15.2,18.8,15,18.8,14.8z"/>
<path class="st22" d="M21.1,18.2c-0.1,0-0.1,0-0.2,0c0,0,0,0,0,0c-0.1-0.1-0.1-0.2-0.2-0.2c0-0.1-0.1-0.2-0.1-0.3
	c0,0-0.1-0.1-0.1-0.1c0,0,0,0,0,0c0,0-0.1-0.1-0.1-0.1c0,0,0,0,0,0c0-0.1-0.1-0.2-0.1-0.3c0,0,0,0,0,0c0,0,0-0.1,0-0.1
	C20.6,17.3,21.1,17.6,21.1,18.2z"/>
<path class="st9" d="M20.2,17c0,0,0,0.1,0,0.1c-0.1-0.1-0.1-0.2-0.2-0.3C20.1,16.9,20.1,17,20.2,17z"/>
<path class="st9" d="M20.2,17.2c0,0.1,0.1,0.2,0.1,0.3C20.3,17.4,20.2,17.3,20.2,17.2z"/>
<path class="st9" d="M20.7,18c0.1,0.1,0.1,0.2,0.2,0.2C20.8,18.1,20.7,18.1,20.7,18z"/>
<path class="st9" d="M20.4,17.6c0,0,0.1,0.1,0.1,0.1C20.5,17.7,20.5,17.6,20.4,17.6z"/>
<path class="st9" d="M20.3,17.5c0,0,0.1,0.1,0.1,0.1C20.4,17.5,20.4,17.5,20.3,17.5z"/>
<path class="st16" d="M201.6,27.8c0,0,0,0.1,0,0.1c0,0,0,0,0,0c0,0-0.1,0.1-0.1,0.1c0,0.1,0,0.1-0.1,0.2c0,0-0.1,0.1-0.1,0.1
	c0,0-0.1,0.1-0.1,0.1c0,0-0.1,0.1-0.1,0.1c0,0-0.1,0.1-0.1,0.1c-0.2,0.2-0.4,0.4-0.6,0.7c0,0-0.1,0.1-0.1,0.1
	c-0.3,0.4-0.7,0.7-1,1.1c0,0-0.1,0.1-0.1,0.1c-0.5,0.5-1,1-1.6,1.6c-0.2-0.2-0.4-0.5-0.6-0.7c0,0,0.1-0.1,0.1-0.1
	c0.6,0.4,0.9,0,1.2-0.4c0.3-0.4,0.6-0.7,0.9-1.1c0.2-0.2,0.4-0.3,0.6-0.5c0.3-0.3,0.7-0.7,0.9-1.1C200.9,28,201.2,27.9,201.6,27.8z"
	/>
<path class="st17" d="M20.6,49.5c-0.1,0-0.2,0.1-0.3,0.1c0.1-0.3,0.2-0.7,0.4-1c0.3-0.5,0.7-0.9,1.1-1.3c0,0.1,0,0.2,0.1,0.4
	c0,0,0,0,0,0c-0.4,0.1-0.5,0.3-0.4,0.6c0,0,0,0,0,0.1c-0.1,0.1-0.1,0.2-0.2,0.3c0,0,0,0,0,0c0,0-0.1,0.1-0.1,0.1c0,0,0,0,0,0
	C20.8,49,20.7,49.2,20.6,49.5L20.6,49.5z"/>
<path class="st8" d="M21.8,47.7c0-0.1,0-0.2-0.1-0.4c0-0.1,0.1-0.1,0.1-0.2c0.1,0,0.2,0,0.3,0c-0.1,0.2-0.2,0.3-0.2,0.5
	C21.8,47.6,21.8,47.7,21.8,47.7z"/>
<path class="st8" d="M21.3,48.3c0-0.3,0.1-0.6,0.4-0.6C21.6,47.9,21.5,48.1,21.3,48.3z"/>
<path class="st8" d="M20.6,49.5c0.1-0.2,0.3-0.4,0.4-0.6C20.8,49,20.7,49.2,20.6,49.5z"/>
<path class="st8" d="M21.1,48.7c0.1-0.1,0.1-0.2,0.2-0.3C21.2,48.5,21.1,48.6,21.1,48.7z"/>
<path class="st8" d="M21,48.8c0,0,0.1-0.1,0.1-0.1C21,48.7,21,48.8,21,48.8z"/>
<path class="st17" d="M22.1,47.1c-0.1,0-0.2,0-0.3,0c0-0.5,0.4-1,0.8-1.2c0,0.1,0,0.2,0,0.3c0,0,0,0,0,0c0,0-0.1,0.1-0.1,0.1
	c0,0.1-0.1,0.1-0.1,0.2c0,0,0,0,0,0c0,0.1-0.1,0.2-0.1,0.2c0,0,0,0,0,0c0,0-0.1,0.1-0.1,0.1c0,0,0,0,0,0
	C22.2,46.9,22.2,47,22.1,47.1C22.2,47.1,22.1,47.1,22.1,47.1z"/>
<path class="st17" d="M22.7,45.9c0,0,0.1-0.1,0.1-0.1C22.7,45.9,22.7,45.9,22.7,45.9z"/>
<path class="st8" d="M22.3,46.8c0-0.1,0.1-0.2,0.1-0.2c0,0,0,0.1,0,0.1C22.4,46.7,22.4,46.7,22.3,46.8z"/>
<path class="st4" d="M22.6,46.4c0,0,0.1-0.1,0.1-0.1C22.6,46.3,22.6,46.3,22.6,46.4z"/>
<path class="st4" d="M22.4,46.7c0,0,0-0.1,0-0.1c0,0,0,0,0,0C22.5,46.6,22.5,46.6,22.4,46.7z"/>
<path class="st8" d="M22.2,46.9c0,0,0.1-0.1,0.1-0.1C22.3,46.8,22.3,46.9,22.2,46.9z"/>
<path class="st8" d="M22.1,47c0,0,0.1-0.1,0.1-0.1C22.2,46.9,22.2,47,22.1,47z"/>
<path class="st15" d="M201.5,28C201.6,28,201.6,28,201.5,28C201.6,28,201.6,28,201.5,28z"/>
<path class="st9" d="M18,13.5c0.4,0.2,0.6,0.5,0.5,0.9c-0.1,0-0.1,0-0.2-0.1C18.2,14.1,18.1,13.8,18,13.5z"/>
<path class="st9" d="M17.8,13.1c0.1,0,0.1,0,0.2,0c0,0.1,0,0.2,0,0.3C17.9,13.4,17.8,13.2,17.8,13.1z"/>
<path class="st12" d="M186,37.8c0,0,0.1,0.1,0.1,0.1C186.1,37.9,186.1,37.8,186,37.8z"/>
<path class="st9" d="M32.8,41.4c-0.1,0.1-0.1,0.2-0.2,0.3C32.7,41.6,32.8,41.5,32.8,41.4z"/>
<path class="st9" d="M18.6,14.5c0.1,0.1,0.1,0.2,0.2,0.3C18.7,14.7,18.6,14.6,18.6,14.5z"/>
<path class="st4" d="M23.9,44.3c0,0,0.1-0.1,0.1-0.1C23.9,44.2,23.9,44.2,23.9,44.3z"/>
<path class="st9" d="M30.7,13.2c0-0.1-0.1-0.2-0.1-0.3c0.1,0,0.1,0,0.2,0C30.8,13,30.8,13.1,30.7,13.2
	C30.8,13.1,30.7,13.1,30.7,13.2z"/>
<path class="st9" d="M33.4,40.3c0,0.1-0.1,0.2-0.1,0.3C33.3,40.5,33.4,40.4,33.4,40.3C33.4,40.3,33.4,40.3,33.4,40.3z"/>
<path class="st13" d="M66.2,24c0-1.2,0-2.4,0-3.7c0-0.4,0.1-0.5,0.5-0.5c1.9,0,3.7,0,5.6,0.1c0.7,0,1.5,0.2,2.1,0.5c2.2,1,3,4,1.7,6
	c-0.6,0.9-1.5,1.4-2.5,1.6c-0.8,0.1-1.6,0.2-2.5,0.2c-1.4,0-2.9,0-4.3,0c-0.4,0-0.5-0.2-0.5-0.6C66.2,26.4,66.2,25.2,66.2,24
	C66.2,24,66.2,24,66.2,24z"/>
<path class="st6" d="M66.1,39.6c0-1.4,0-2.8,0-4.1c0-0.5,0.2-0.6,0.6-0.6c2.3,0,4.6,0,6.9,0.1c1.3,0,2.5,0.3,3.6,1
	c1.6,1,2,2.5,1.9,4.2c-0.2,2.8-2,3.7-4.5,3.9c-1.9,0.2-3.9,0.1-5.8,0.2c-0.7,0-1.4,0-2.1,0c-0.5,0-0.6-0.2-0.6-0.6
	C66.1,42.3,66.1,40.9,66.1,39.6C66.1,39.6,66.1,39.6,66.1,39.6z M66.4,39.5c0,1.3,0,2.6,0,3.9c0,0.4,0.1,0.5,0.5,0.5
	c2.2,0,4.4,0,6.7,0c0.4,0,0.8-0.1,1.2-0.2c0.4-0.1,0.7-0.2,1.1-0.2c0.8,0,1.4-0.6,2.1-1c0.1-0.1,0.2-0.3,0.3-0.5
	c0.1-0.3,0.3-0.6,0.4-1c0.1-0.6,0.2-1.3,0.3-1.9c0-0.2-0.1-0.5-0.2-0.7c-0.2-0.5-0.3-1.1-0.6-1.5c-0.6-0.8-1.5-1.2-2.5-1.5
	c-1.2-0.4-2.4-0.4-3.5-0.4c-1.3-0.1-2.5,0-3.8,0c-0.4,0-0.8,0.1-1.2,0c-0.4,0-0.6,0-0.6,0.5C66.4,36.9,66.4,38.2,66.4,39.5z"/>
<path class="st10" d="M33.8,39.9c0-0.1,0-0.1,0-0.2c0.8,0,1.5,0,2.3,0c0.1,0,0.3,0.1,0.4,0.2C35.6,39.9,34.7,39.9,33.8,39.9z"/>
<path class="st10" d="M44.1,39.9c0.3-0.3,1.2-0.3,1.5,0C45.1,39.9,44.6,39.9,44.1,39.9z"/>
<path class="st10" d="M45.8,39.9c0.1,0,0.1,0,0.2,0C46,39.9,45.9,39.9,45.8,39.9z"/>
<path class="st22" d="M23.6,22.6c-0.1-0.3-0.3-0.6-0.4-0.9c0.6,0.1,0.6,0.1,0.6,1C23.7,22.7,23.7,22.6,23.6,22.6z"/>
<path class="st22" d="M23.2,21.7c-0.1-0.1-0.1-0.1-0.2-0.2C23,21.6,23.1,21.6,23.2,21.7z"/>
<path class="st22" d="M24,23c-0.1-0.1-0.1-0.1-0.2-0.2C23.9,22.8,24,22.9,24,23z"/>
<path class="st8" d="M13.9,39.9c0,0-0.1,0.1-0.1,0.1C13.8,40,13.8,39.9,13.9,39.9z"/>
<path class="st17" d="M191.9,24.8c0.6,0,1.2-0.1,1.8-0.1c0.6,0,1.3,0.1,1.9,0.2c-1.1,0-2.1,0-3.2,0
	C192.2,24.9,192.1,24.8,191.9,24.8z"/>
<path class="st17" d="M182.8,31.9c0.2-0.7,0.4-1.5,0.6-2.2c0.1,0.5,0,1-0.3,1.4c-0.1,0.1-0.1,0.3-0.1,0.5
	C182.9,31.6,182.9,31.7,182.8,31.9z"/>
<path class="st17" d="M189.1,25.3c0.7-0.1,1.4-0.3,2.1-0.4c-0.4,0.1-0.8,0.3-1.2,0.4C189.8,25.3,189.4,25.3,189.1,25.3z"/>
<path class="st17" d="M186.3,26.6c0.2-0.1,0.4-0.2,0.5-0.3C186.8,26.7,186.5,26.5,186.3,26.6z"/>
<path class="st17" d="M191.6,24.9c0,0,0.1-0.1,0.1-0.1C191.6,24.8,191.6,24.8,191.6,24.9z"/>
<path class="st17" d="M186.8,26.2c0,0,0.1-0.1,0.1-0.1C186.9,26.2,186.8,26.2,186.8,26.2z"/>
<path class="st22" d="M10.1,33.9c0,0-0.1-0.1-0.1-0.1c0,0-0.1-0.1-0.1-0.1c0,0-0.1-0.1-0.1-0.1c0-0.2-0.1-0.3-0.1-0.5
	c0.4,0.1,0.6,0.3,0.6,0.8C10.2,33.9,10.1,33.9,10.1,33.9z"/>
<path class="st22" d="M10.5,34.3c-0.1,0-0.1,0-0.2,0c0-0.1,0-0.3,0-0.4C10.3,34,10.4,34.2,10.5,34.3z"/>
<path class="st26" d="M66.4,39.5c0-1.3,0-2.6,0-3.9c0-0.5,0.2-0.5,0.6-0.5c0.4,0,0.8,0,1.2,0c1.3,0,2.5-0.1,3.8,0
	c1.2,0.1,2.3,0,3.5,0.4c1,0.3,1.9,0.7,2.5,1.5c0.3,0.4,0.4,1,0.6,1.5c0.1,0.2,0.2,0.5,0.2,0.7c0,0.6-0.1,1.3-0.3,1.9
	c-0.1,0.3-0.2,0.6-0.4,1c-0.1,0.2-0.2,0.4-0.3,0.5c-0.7,0.4-1.2,1-2.1,1c-0.4,0-0.7,0.1-1.1,0.2c-0.4,0.1-0.8,0.2-1.2,0.2
	c-2.2,0-4.4,0-6.7,0c-0.4,0-0.5-0.1-0.5-0.5C66.4,42.1,66.4,40.8,66.4,39.5z"/>
</svg>
