<?xml version="1.0" encoding="utf-8"?>
<!-- Generator: Adobe Illustrator 21.0.0, SVG Export Plug-In . SVG Version: 6.00 Build 0)  -->
<svg version="1.1" id="Camada_1" xmlns="http://www.w3.org/2000/svg" xmlns:xlink="http://www.w3.org/1999/xlink" x="0px" y="0px"
	 viewBox="0 0 250 238.5" style="enable-background:new 0 0 250 238.5;" xml:space="preserve">
<style type="text/css">
	.st0{fill:#3E8BC4;}
	.st1{fill:#0166B2;}
	.st2{fill:#0669B3;}
	.st3{fill:#0267B2;}
	.st4{fill:#0468B3;}
	.st5{fill:#0569B3;}
	.st6{fill:#EC252D;}
	.st7{fill:#086AB4;}
	.st8{fill:#EC262E;}
	.st9{fill:#076AB3;}
	.st10{fill:#0568B3;}
	.st11{fill:#EC242C;}
	.st12{fill:#A7CE40;}
	.st13{fill:#FECC12;}
	.st14{fill:#F4F8FB;}
	.st15{fill:#F6F9FC;}
</style>
<g>
	<path class="st0" d="M125,238.5c-37.6,0-75.1,0-112.7,0c-8.9,0-12.3-3.4-12.3-12.2C0,155,0,83.6,0,12.2C0,3.4,3.5,0,12.3,0
		c75.1,0,150.2,0,225.3,0c8.9,0,12.3,3.4,12.3,12.2c0,71.4,0,142.8,0,214.2c0,8.8-3.5,12.2-12.3,12.2
		C200.1,238.5,162.6,238.5,125,238.5z M124.9,2.1c-37.3,0-74.6,0-111.8,0C4.2,2.1,1.9,4.3,1.9,13c0,70.8,0,141.7,0,212.5
		c0,8.6,2.3,10.9,10.8,10.9c74.8,0,149.7,0,224.5,0c8.6,0,10.9-2.3,10.9-10.8c0-71,0-142,0-212.9c0-8.3-2.4-10.7-10.6-10.7
		C200,2,162.4,2.1,124.9,2.1z"/>
	<path class="st1" d="M55.7,124.8c6.2,1.7,8,7.1,7.9,13.5c-0.1,5-0.1,10.1-0.7,15c-0.7,5.2-3.4,8.1-8.6,8.3
		c-11.1,0.5-22.2,0.1-33.5,0.1c0-23.1,0-46.5,0-70.8c10.1,0.4,20.3,0.5,30.4,1.5c5.2,0.5,9,4.3,10,9.5c0.9,4.8,1.4,9.9,0.6,14.5
		C61.2,119.5,57.9,121.9,55.7,124.8z M39.3,150.1c4.2,0.2,5.8-1.7,5.8-5.2c0-3.2,0.1-6.3,0-9.5c-0.2-4.2-1.3-5-5.8-4.4
		C39.3,137.3,39.3,143.6,39.3,150.1z M39.4,104c0,5.3,0,10.2,0,15.1c5.3,0.1,5.8-0.8,5.7-8.8C45,104.8,44.1,103.8,39.4,104z"/>
	<path class="st2" d="M183,162.3c-6.4,0-12.3,0-18.4,0c0-23.5,0-46.9,0-71.3c10.4,0.5,20.8,0.6,31.2,1.6c4.4,0.4,7.9,4,8.6,8.4
		c0.9,5.7,0.9,11.6,0.7,17.3c-0.2,3.9-3.2,6.1-7.4,7.2c7.2,2.4,8.1,8.1,8.1,14.2c0,7.4,0,14.8,0,22.5c-5.8,0-11.2,0-17.3,0
		c0-5,0-10,0-15c0-4-0.2-7.9-0.3-11.9c-0.1-3.2-1.4-5-5.2-4.6C183,141.1,183,151.5,183,162.3z M183.2,119.1c4.9-0.4,5.9-2.4,5.4-9.7
		c-0.3-4.7-1.1-5.4-5.4-5.1C183.2,109.1,183.2,113.9,183.2,119.1z"/>
	<path class="st3" d="M141.6,91.5c5.3,0,10,0,15.1,0c0,23.5,0,47,0,70.9c-4.8,0-9.6,0.2-14.3-0.1c-0.9-0.1-2.1-1.7-2.5-2.8
		c-2.8-8.8-5.3-17.6-8.5-26.4c0,9.6,0,19.2,0,29c-5.3,0-10.4,0-15.7,0c0-23.4,0-46.8,0-70.5c5.1,0,10.1,0,15.6,0
		c3.1,9.6,6.4,19.4,9.6,29.2c0.2,0,0.4-0.1,0.6-0.1C141.6,111.1,141.6,101.5,141.6,91.5z"/>
	<path class="st4" d="M75.2,91.5c9.1,0,17.8,0,27,0c1.9,12.5,3.7,25,5.6,37.6c-0.2,0.2-0.5,0.5-0.7,0.7c-1.6-3-3.2-6.1-7.8-4.7
		c4.7-6.3-0.3-10.5-3-14c-1.5-2-6.6-1.2-10.2-1.7c0,5.9,8.1,9.7,2.1,15.6c-3.6,0-7.4,0-11.6,0c0.5,1,0.8,1.9,1.3,2.6
		c4.2,5.3,4.5,10.6-0.2,15.8c-0.6,0.6-0.8,1.6-1.6,2.9c3.5,0,6.5,0.1,9.5-0.1c0.8-0.1,1.9-0.8,2.3-1.6c1.5-2.4,2.9-4.8,4-7.3
		c0.5-1,0.6-2.8,0-3.6c-2.4-3.3-1.2-5.8,1.5-8.9c1.9,3.8,5.1,7.2,5.1,10.7c0,3.4-3.2,6.7-5.3,10.7c3.6,0,7.5,1,10.2-0.3
		c2.5-1.3,3.7-5.1,5.8-8.2c1.2,8.2,2.4,16,3.6,24.2c-6.4,0-12.5,0-19.1,0c-0.3-3.9-0.6-8-0.9-12.2c-2.3,0-4.2,0-6.3,0
		c-0.4,4.1-0.8,8-1.2,12.2c-6.3,0-12.6,0-19.3,0C69,138.6,72.1,115.3,75.2,91.5z"/>
	<path class="st5" d="M100.4,183.6c0.7-5.7,1.5-11.4,2.3-17.2c5,0,9.8,0,14.8,0c0,15.5,0,30.9,0,46.6c-3.2,0-6.4,0-9.9,0
		c0-8.5,0-16.9,0-25.4c-0.2,0-0.4,0-0.5,0c-1.1,8.5-2.2,17-3.3,25.5c-2.5,0-4.7,0-7.2,0c-1.2-8.1-2.3-16.1-3.4-24.2
		c-0.2,0-0.4,0-0.6,0.1c0,7.9,0,15.8,0,24c-3.4,0-6.7,0-10,0c0-15.5,0-30.8,0-46.5c4.9,0,9.7,0,14.9,0c0.8,5.6,1.6,11.3,2.5,17
		C99.9,183.6,100.1,183.6,100.4,183.6z"/>
	<path class="st6" d="M235.7,216.3c-4.8,5-10.3,6.2-15.8,6.4c-15.9,0.6-31.8,0.8-47.7,0.9c-12.9,0.1-25.7-0.3-38.6-0.3
		c-36.2,0-72.4,0-108.6,0c-0.1-0.4-0.1-0.8-0.2-1.2c4.3-1.1,8.5-2.3,12.9-3.2c19-3.5,38.2-2.8,57.4-2.6c38.2,0.4,76.4,0.1,114.6,0.1
		C218.1,216.3,226.4,216.3,235.7,216.3z"/>
	<path class="st7" d="M212.9,162.2c0-23.6,0-46.9,0-70.5c6,0,12,0,18.3,0c0,23.4,0,46.8,0,70.5C225.1,162.2,219.2,162.2,212.9,162.2
		z"/>
	<path class="st8" d="M168.7,76.1c20.6,1.9,40.4,3.7,60.3,5.5c0,0.5,0,1-0.1,1.4c-3.9,0-7.8-0.1-11.7,0c-14.8,0.3-29.6,0.6-44.5,1.2
		c-3.2,0.1-4.6-0.5-5.6-3.7c-4.5-13.8-10.3-27-20.8-37.5c-12.6-12.4-36.3-19.7-55.4-1.5c-6,5.7-10.9,12.6-16.3,18.9
		c-0.8,1-1.5,2-3,2.7c0.3-0.9,0.4-1.8,0.8-2.7c3.4-8.6,7.8-16.4,14-23.4c15.5-17.5,52.8-19.7,69.2,6.2c5.8,9.2,9.5,19.2,12.3,29.6
		C168.2,74.3,168.5,75.5,168.7,76.1z"/>
	<path class="st9" d="M150,212.9c0-15.5,0-30.8,0-46.9c6.4,0.3,12.7,0.4,18.9,1.2c1.9,0.3,4.8,2.5,5.2,4.2c0.9,4.6,0.9,9.4,0.7,14
		c-0.1,1.3-2.1,2.5-3.3,3.8c3.6,1.7,4.2,5.2,4.2,9.1c-0.1,4.9,0,9.8,0,14.8c-3.7,0-7,0-10.3,0c-0.5-6.7-1-13.5-1.5-20.2
		c0-0.2-1.2-0.3-2.1-0.6c0,7,0,13.7,0,20.7C157.7,212.9,154,212.9,150,212.9z M161.7,174.6c0,3.6,0,6.7,0,9.8
		c0.4,0.2,0.7,0.4,1.1,0.5c0.7-1.2,2-2.4,1.9-3.5C164.6,179.1,166.3,175.7,161.7,174.6z"/>
	<path class="st3" d="M51.8,189.6c0-4.2-0.1-8.5,0-12.7c0.3-7,4.9-11.2,12.1-11.5c8-0.3,13.5,3.4,13.9,10.4c0.5,9.2,0.5,18.5,0,27.8
		c-0.4,7-5.8,10.8-13.8,10.5c-7.2-0.2-11.9-4.5-12.2-11.4C51.6,198.3,51.8,194,51.8,189.6z M65.7,173.4c-0.5,0-1.1-0.1-1.6-0.1
		c-0.4,1.5-1,3.1-1,4.6c-0.1,7.9-0.1,15.8,0,23.8c0,0.8,0,1.6,0.3,2.3c0.3,0.8,0.9,1.4,1.4,2.1c0.6-0.7,1.3-1.4,1.8-2.2
		c0.3-0.5,0.2-1.3,0.2-1.9c0-8.2,0-16.4,0-24.6C66.6,176,66,174.7,65.7,173.4z"/>
	<path class="st4" d="M206.3,213c-4.1,0-7.8,0-11.8,0c-0.2-2-0.1-4-0.5-5.9c-0.2-0.8-1.3-1.5-2.1-2.2c-0.7,0.7-1.9,1.4-2.1,2.2
		c-0.4,1.8-0.3,3.7-0.4,5.8c-4,0-7.9,0-12.1,0c1.9-15.6,3.9-31,5.8-46.5c5.7,0,11.1,0,16.7,0C201.9,181.9,204.1,197.4,206.3,213z
		 M193.6,196.1c-0.7-4.9-1.3-9.6-1.9-14.2c-0.9,3.9-1.2,7.9-1.8,11.8C189.5,196.6,190.9,196.7,193.6,196.1z"/>
	<path class="st5" d="M36.7,194.4c1.2-0.1,2.2-0.2,3.3-0.2c2.5,0,5,0,8.2,0c-0.4,4.3-0.3,8.3-1.2,12.1c-1.3,5.5-7,8.3-14.4,7.8
		c-6.4-0.4-10.7-3.5-11-9.3c-0.6-9.6-0.8-19.3-0.4-29c0.3-7.1,6-10.8,14.3-10.4c7.5,0.3,11.8,4.2,12.3,11.3c0.2,3.3,0,6.6,0,10
		c-3.7,0-7.2,0-11.4,0c0-3.3,0.2-6.6-0.1-9.8c-0.1-1.2-1.2-2.3-1.8-3.5c-0.6,1.1-1.8,2.3-1.8,3.4c-0.2,8.6-0.1,17.2,0,25.9
		c0,1.1,1,2.2,1.5,3.2c0.7-1,1.8-2,2-3.1C36.6,200.1,36.5,197.4,36.7,194.4z"/>
	<path class="st10" d="M232.4,180.4c-3.7,0-7.1,0-10.9,0c0-1.6,0.2-3-0.1-4.4c-0.1-0.9-0.9-1.7-1.4-2.5c-0.7,0.8-1.7,1.6-1.9,2.5
		c-0.6,2.8,0.4,5.1,2.9,6.8c2.8,1.8,5.5,3.6,8,5.8c4.4,3.9,5.9,15.4,2.9,20.4c-2.3,4-9.2,6.1-15.4,4.8c-5.5-1.2-8.3-4.3-8.9-9.7
		c-0.2-2.5-0.3-4.9-0.4-7.6c3.7,0,7,0,10.9,0c0,2.3-0.2,4.7,0.1,7c0.1,0.9,1.2,1.7,1.9,2.5c0.7-0.9,1.8-1.6,1.9-2.6
		c0.5-3.3,0.1-6.3-3.1-8.3c-2.2-1.4-4.3-3.1-6.4-4.6c-3.7-2.6-5.2-6.1-5.5-10.5c-0.6-11.3,5.4-16.6,16.5-14.3
		C230.6,167,232.7,170.5,232.4,180.4z"/>
	<path class="st11" d="M14.8,74.5c5.8,0,11.6,0,17.4,0c27.8,0,55.7-0.1,83.5,0.2c11.4,0.2,22.4,2.8,32.9,7.8c-3.2,0-6.5,0-9.7,0
		c-20.8-0.1-41.6-0.1-62.4-0.2c-12.7-0.1-25.4-0.1-38.2-0.5C30,81.5,22,79.5,14.8,74.5z"/>
	<path class="st9" d="M122.2,165.9c6.1,0.3,11.9,0.3,17.6,1.1c4.5,0.6,6.5,3.1,6.7,7.5c0.2,3.8,0.3,7.7,0.1,11.5
		c-0.3,5.9-2.1,7.6-8,8.2c-1.6,0.2-3.1,0.4-5,0.6c0,6,0,11.9,0,18.1c-3.9,0-7.6,0-11.5,0C122.2,197.6,122.2,182.2,122.2,165.9z
		 M133.8,186.6c4.7-2,3-5.6,3.1-8.4c0.1-1.3-1.2-2.6-1.9-3.9c-0.4,0.2-0.8,0.4-1.2,0.6C133.8,178.5,133.8,182.2,133.8,186.6z"/>
	<path class="st12" d="M122.3,19c8.3-4.7,17.4-4.8,26.6-3.6c13.2,1.7,22.8,8.9,28.5,20.9c3.1,6.5,5.5,13.4,8.2,20
		c-0.5,0.2-0.9,0.5-1.4,0.7c-0.5-0.9-1.1-1.7-1.6-2.6c-5.4-9.8-12-18.7-21.3-25.3c-7.8-5.4-16.4-7.6-25.9-7.3
		c-4.4,0.2-8.8-1-13.2-1.6C122.2,19.9,122.2,19.4,122.3,19z"/>
	<path class="st13" d="M89.1,71.9c1.8-5.6,3.1-11.4,5.5-16.8c2.6-6,6.2-11.6,9.3-17.5c1.3-2.5,3-3.7,6-3.4c2.7,0.3,5.5,0.1,9.4,0.1
		c-11.5,11.9-21.8,23.7-28.6,38C90.1,72.2,89.6,72,89.1,71.9z"/>
	<path class="st14" d="M161.7,174.6c4.6,1.2,2.9,4.5,3,6.8c0,1.1-1.3,2.3-1.9,3.5c-0.4-0.2-0.7-0.4-1.1-0.5
		C161.7,181.3,161.7,178.2,161.7,174.6z"/>
	<path class="st15" d="M133.8,186.6c0-4.4,0-8.1,0-11.7c0.4-0.2,0.8-0.4,1.2-0.6c0.7,1.3,2,2.6,1.9,3.9
		C136.8,181,138.6,184.6,133.8,186.6z"/>
</g>
</svg>
