<?xml version="1.0" encoding="utf-8"?>
<!-- Generator: Adobe Illustrator 21.0.0, SVG Export Plug-In . SVG Version: 6.00 Build 0)  -->
<svg version="1.1" id="Camada_1" xmlns="http://www.w3.org/2000/svg" xmlns:xlink="http://www.w3.org/1999/xlink" x="0px" y="0px"
	 viewBox="0 0 250 166" style="enable-background:new 0 0 250 166;" xml:space="preserve">
<style type="text/css">
	.st0{fill:#096DBD;}
	.st1{fill:#6DBAFB;}
	.st2{fill:#076DBF;}
	.st3{fill:#6FBBFB;}
	.st4{fill:#046BBE;}
	.st5{fill:#096CBD;}
	.st6{fill:#076BBC;}
	.st7{fill:#066CBF;}
	.st8{fill:#0A6DBE;}
	.st9{fill:#056CBE;}
	.st10{fill:#70BBFB;}
	.st11{fill:#046ABC;}
	.st12{fill:#086BBB;}
	.st13{fill:#0E6EBD;}
	.st14{fill:#2C679B;}
	.st15{fill:#5982B1;}
	.st16{fill:#7CBCF7;}
	.st17{fill:#5FA3EB;}
	.st18{fill:#1564AE;}
	.st19{fill:#316594;}
	.st20{fill:#016BBE;}
</style>
<g>
	<path class="st0" d="M26.2,115.9c5.9,0.9,9.3,3.6,10.5,8.4c1.5,5.9-0.3,9.4-7.2,14.6c4.6,1.5,8.2,3.9,9.4,8.8
		c2.1,8.2-2.8,15.6-12.2,16.5c-8.6,0.8-17.4,0.2-26.4,0.2c-0.1-0.4-0.3-1.2-0.3-2.1c0-14.9,0-29.7,0-44.6c0-0.6,0.2-1.3,0.3-1.9
		C8.9,115.9,17.5,115.9,26.2,115.9z M11.2,155.6c4.2,0,8.2,0.2,12.2-0.1c2.8-0.2,4.8-2.1,5-5.1c0.2-3.1-1.7-5-4.6-5.4
		c-4.1-0.5-8.2-0.6-12.5-0.9C11.2,148.3,11.2,151.9,11.2,155.6z M11.2,134.8c3.6,0,6.7,0.2,9.8,0c3-0.2,4.9-2,5-5.1
		c0.1-2.9-1.8-4.7-4.6-5c-3.3-0.3-6.7-0.1-10.2-0.1C11.2,128.1,11.2,131.3,11.2,134.8z"/>
	<path class="st1" d="M118.7,29c-0.8-2-1.5-4.2-2.6-6c-4.7-7.5-9.6-15-14.8-23.1c11.4,0,22.2-0.1,32.9,0.1c1.2,0,2.8,1.3,3.6,2.5
		c5,7.4,9.9,14.9,14.6,22.5c0.8,1.2,0.6,3.1,0.9,4.7c-0.1,0.1-0.2,0.1-0.4,0c-1-0.3-2.1-0.8-3.1-0.8C139.5,29,129.1,29,118.7,29z"/>
	<path class="st2" d="M179.1,72.9c-5.3,8.4-10.5,16.8-16,25c-0.9,1.3-3.3,2.1-5,2.1c-10.3,0.2-20.6,0.1-31,0.1
		c5.8-9.4,11.7-18.7,17.5-28c10.2,0,20.4,0,30.6,0C176.4,72.1,177.7,72.6,179.1,72.9z"/>
	<path class="st3" d="M145.9,42.3c3.9,0.1,7.8-0.1,11.7,0.3c1.9,0.2,4.5,0.9,5.4,2.3c5.3,7.8,10.3,15.9,15.3,23.9
		c-1.2,0.6-2.5,1.7-3.7,1.7c-10,0.1-20.1,0.1-30.1,0.1c0,0,0,0,0,0c-0.1-0.2-0.3-0.5-0.4-0.7c-4.8-7.6-9.6-15.3-14.6-22.8
		c-0.8-1.1-2.5-1.6-3.7-2.4c1.8-0.7,3.6-2,5.4-2.1C136,42.1,141,42.3,145.9,42.3z"/>
	<path class="st4" d="M125.5,72.1c-0.8,1.7-1.5,3.5-2.5,5.1c-4.1,6.5-8.2,12.9-12.5,19.2c-0.8,1.1-1.9,2.1-2.8,3.1
		c-9.9,0-19.7,0-29.6-0.1c-1.4,0-2.7-0.4-4.1-0.7c4.9-7.6,9.9-15.1,14.8-22.7c0.8-1.2,1.2-2.5,1.9-3.8
		C102.3,72.2,113.9,72.2,125.5,72.1z"/>
	<path class="st5" d="M75.9,164.2c-9.3,1.5-9.3,1.5-10.3-2.5c-4.5,4.2-9.8,5.3-15.5,3.4c-4.5-1.5-7.2-5.1-7.2-9.6
		c0-4.6,2-8.4,6.4-9.7c5.3-1.6,10.9-2.2,17.3-3.4c-1.5-1.5-2.6-3.7-4.4-4.5c-4.3-1.9-8,0.2-11.2,2.9c-1.9-1.8-3.7-3.5-5.6-5.3
		c5.9-5.6,17-7.3,23.8-3.8c4.6,2.4,5.9,6.7,6.4,11.4c0.2,1.8,0.3,3.6,0.3,5.5C76,153.8,75.9,159,75.9,164.2z M65.7,149.7
		c-3.4,0.6-6.8,0.9-10.1,1.9c-1.2,0.4-2.4,2.5-2.4,3.9c0,1,1.7,2.5,3,3C61.8,160.4,66.6,156.3,65.7,149.7z"/>
	<path class="st6" d="M92.4,165c-3.7,0-6.9,0-10.4,0c0-11.4,0-22.6,0-34.1c3.2,0,6.3,0,9.7,0c0.1,1.1,0.2,2.3,0.3,3.1
		c2.7-1.4,5.1-3.3,7.9-3.8c8-1.6,13.9,2.5,14.5,10.7c0.6,7.9,0.1,15.9,0.1,24c-3.2,0-6.4,0-10.2,0c0-4.7,0-9.5,0-14.3
		c0-2.2-0.1-4.4-0.4-6.6c-0.4-3.2-2.3-4.8-5.6-4.7c-3.3,0.1-5.3,1.9-5.6,4.9c-0.4,5.1-0.3,10.2-0.4,15.2
		C92.4,161.3,92.4,163.1,92.4,165z"/>
	<path class="st7" d="M223.6,164.4c-0.1-1-0.2-1.9-0.2-1.9c-3.8,1.2-7.4,3.1-11.1,3.2c-6.6,0.3-10.8-3.4-11.2-10
		c-0.5-7.9-0.1-15.8-0.1-24c3.2,0,6.5,0,10.2,0c0,6.1,0,12.2,0,18.3c0,2.7,0.7,5.4,3.7,6.3c3,0.9,5.7,0,7.3-2.9
		c0.5-2.1,1.3-4.1,1.4-6.2c0.2-5.1,0.1-10.3,0.1-15.4c3.5,0,6.3,0,9.1,0c0,11,0,21.6,0,32.6C229.5,164.4,226.5,164.4,223.6,164.4z"
		/>
	<path class="st8" d="M194.1,134.6c-2.2,1.8-4.4,3.6-6.5,5.3c-1.8-0.5-4.1-1.5-6.4-1.8c-1-0.1-2.1,1.4-3.2,2.2
		c0.8,1,1.5,2.4,2.6,2.8c2.9,1.1,6.1,1.5,9,2.6c6.9,2.6,8.3,11.8,2.6,16.6c-6.1,5.2-19.4,4.7-25.6-1.2c1.9-2.2,3.9-4.4,5.2-5.8
		c3.8,0.9,6.9,1.9,10.1,2.3c0.9,0.1,2.1-1.5,3.1-2.3c-0.9-0.8-1.6-2.1-2.6-2.5c-2.7-1-5.5-1.6-8.2-2.4c-3.7-1-6.2-3.4-6.7-7.3
		c-0.6-4.1,0.6-7.7,4.1-10.3C177.4,128.4,188.1,129.1,194.1,134.6z"/>
	<path class="st9" d="M145.9,42.3c-4.9,0-9.8-0.2-14.7,0.1c-1.8,0.1-3.6,1.4-5.4,2.1c-2.7,4.2-5.4,8.4-8.2,12.6
		c-5.9-0.2-11.7-0.4-17.6-0.5c3.9-5.4,7.8-10.7,11.6-16.1c2.5-3.5,4.7-7.1,7.1-10.7c11.4,0,22.9,0,34.3,0c0.1,0.1,0.3,0.1,0.4,0
		C150.9,34,148.4,38.2,145.9,42.3z"/>
	<path class="st10" d="M100,56.6c5.9,0.2,11.7,0.4,17.6,0.5c2.5,4.1,5,8.3,7.5,12.4c-1.3,0.3-2.6,0.9-4,0.9c-10.1,0.1-20.3,0-30.4,0
		c-3.5-5.6-6.9-11.3-10.4-16.9c-2.2-3.5-4.5-6.9-7.2-11.1c4.7,0,8.9-0.1,13.2,0.1c0.9,0,2,1.1,2.7,2c2.3,3.1,4.3,6.5,6.8,9.5
		C96.6,55.3,98.5,55.8,100,56.6z"/>
	<path class="st11" d="M240,111.9c3.6,0,6.7,0,10,0c0,17.7,0,35.2,0,53c-3.2,0-6.5,0-10,0C240,147.2,240,129.7,240,111.9z"/>
	<path class="st12" d="M121.3,130.9c3.4,0,6.6,0,10,0c0.1,1.4,0.2,2.7,0.5,5.1c3.4-5.4,7.7-6.9,13.2-5.7c0,3,0,5.9,0,8.9
		c-0.2,0.1-0.4,0.3-0.6,0.3c-10.6-0.7-12.6,1.2-12.8,11.9c-0.1,4.4,0,8.8,0,13.5c-3.5,0-6.7,0-10.3,0
		C121.3,153.8,121.3,142.5,121.3,130.9z"/>
	<path class="st13" d="M155.9,113.8c3.4,0,6.2,2.8,6.2,6.2c0,3.3-3,6.2-6.3,6.1c-3.2-0.1-5.9-2.7-6-6
		C149.8,116.7,152.6,113.9,155.9,113.8z"/>
	<path class="st14" d="M161.1,165.1c-3.5,0-6.6,0-10.1,0c0-11.3,0-22.6,0-34.1c3.2,0,6.5,0,10.1,0
		C161.1,142.3,161.1,153.5,161.1,165.1z M160.7,131.6c-2.1,0-3.8,0.2-5.4,0c-3.2-0.4-3.9,1-3.9,4c0.2,7.9,0,15.9,0.1,23.8
		c0,1.6,0.1,3.2,0.2,4.8c3.3,0,6.1,0,9,0C160.7,153.3,160.7,142.8,160.7,131.6z"/>
	<path class="st15" d="M223.6,164.4c3,0,5.9,0,9.1,0c0-11,0-21.6,0-32.6c-2.9,0-5.6,0-9.1,0c0,5.1,0.1,10.2-0.1,15.4
		c-0.1,2.1-0.9,4.2-1.4,6.2c0.3-7.4,0.7-14.8,1-22.5c3.3,0,6.7,0,10.4,0c0,11.3,0,22.5,0,34.6C230.1,165.2,226.9,164.8,223.6,164.4z
		"/>
	<path class="st16" d="M144.5,70.6c10,0,20.1,0.1,30.1-0.1c1.2,0,2.5-1.1,3.7-1.7c0.3,1.4,0.5,2.8,0.8,4.2c-1.3-0.3-2.7-0.8-4-0.8
		c-10.2-0.1-20.4,0-30.6,0C144.5,71.6,144.5,71.1,144.5,70.6z"/>
	<path class="st16" d="M90.7,70.5c10.1,0,20.3,0,30.4,0c1.3,0,2.6-0.6,4-0.9c0.1,0.9,0.3,1.7,0.4,2.6c-11.6,0-23.2,0.1-34.9,0.1
		C90.6,71.7,90.7,71.1,90.7,70.5z"/>
	<path class="st17" d="M74,98.8c1.4,0.2,2.7,0.7,4.1,0.7c9.9,0.1,19.7,0.1,29.6,0.1c-0.3,0.2-0.6,0.6-1,0.6c-11.4,0-22.7,0-34.9,0
		C73,99.4,73.5,99.1,74,98.8z"/>
	<path class="st18" d="M153,29.9c-11.4,0-22.9,0-34.3,0c0-0.3,0-0.5,0-0.8c10.4,0,20.8-0.1,31.2,0C150.9,29,151.9,29.6,153,29.9z"/>
	<path class="st19" d="M26.2,115.9c-8.6,0-17.2,0-25.9-0.1c0.1-0.2,0.3-0.6,0.4-0.6C9.2,115.5,17.7,115.7,26.2,115.9z"/>
	<path class="st16" d="M144.1,69.8c0.1,0.2,0.3,0.5,0.4,0.7C144.4,70.3,144.2,70.1,144.1,69.8z"/>
	<path class="st20" d="M160.7,131.6c0,11.2,0,21.7,0,32.5c-2.9,0-5.7,0-9,0c-0.1-1.5-0.2-3.1-0.2-4.8c0-7.9,0.1-15.9-0.1-23.8
		c-0.1-3,0.7-4.4,3.9-4C157,131.8,158.7,131.6,160.7,131.6z"/>
</g>
</svg>
