<?xml version="1.0" encoding="utf-8"?>
<!-- Generator: Adobe Illustrator 21.0.0, SVG Export Plug-In . SVG Version: 6.00 Build 0)  -->
<svg version="1.1" id="Camada_1" xmlns="http://www.w3.org/2000/svg" xmlns:xlink="http://www.w3.org/1999/xlink" x="0px" y="0px"
	 viewBox="0 0 250.2 52.4" style="enable-background:new 0 0 250.2 52.4;" xml:space="preserve">
<style type="text/css">
	.st0{fill:#F7931B;}
	.st1{fill:#4E4E4E;}
	.st2{fill:#FCDBB2;}
	.st3{fill:#DCDCDC;}
	.st4{fill:#D9D9D9;}
	.st5{fill:#FDE5C8;}
	.st6{fill:#FABD73;}
	.st7{fill:#8C8F8F;}
	.st8{fill:#FFFEFD;}
	.st9{fill:#F7941C;}
</style>
<path class="st0" d="M25.9,0.1c0.6,0,1.2,0,1.8,0c0.1,0,0.3,0.1,0.4,0.1c1.8,0.1,3.5,0.4,5.2,0.9c4.3,1.2,8,3.3,11.2,6.3
	c2.6,2.5,4.6,5.4,6,8.7c1.1,2.7,1.8,5.5,2,8.5c0.1,1.6,0.1,3.3-0.2,4.9c-0.3,2.4-0.9,4.7-1.9,6.9c-2,4.7-5.1,8.5-9.3,11.3
	c-2.9,2-6.2,3.4-9.7,4c-1.2,0.2-2.5,0.3-3.8,0.5c-0.8,0-1.7,0-2.5,0c-1.1-0.1-2.2-0.2-3.2-0.4c-3.4-0.6-6.5-1.8-9.5-3.6
	c-2.7-1.7-5.1-3.9-7-6.5c-1.8-2.5-3.2-5.2-4.1-8.1c-0.6-2-0.9-4-1.1-6.1c0-0.9,0-1.8,0-2.6c0.1-2,0.4-3.9,1-5.8c1-3.5,2.7-6.7,5-9.5
	c3.2-3.9,7.3-6.6,12-8.1c2-0.7,4-1.1,6.2-1.2C25,0.2,25.4,0.1,25.9,0.1z M22.7,41.5c1,0.2,1.9,0.5,2.9,0.7c0.4-1.6,0.8-3.1,1.2-4.7
	c0.1,0,0.2,0,0.3,0c1.6,0.3,3.1,0.5,4.7,0.3c1.8-0.2,3.3-1,4.3-2.6c0.6-0.9,0.9-2,1.1-3.1c0.4-2.2-0.5-3.8-2.3-5
	c-0.2-0.1-0.4-0.3-0.6-0.4l0.1-0.1c0.1,0,0.1-0.1,0.2-0.1c1.6-0.5,2.6-1.5,3.1-3.1c0.7-2.4,0.1-4.4-2-5.8c-0.6-0.4-1.2-0.7-1.8-1
	c-0.5-0.3-1.1-0.5-1.7-0.7c0.4-1.6,0.8-3.1,1.1-4.7c-1-0.2-1.9-0.5-2.8-0.7c-0.4,1.6-0.8,3-1.2,4.6c-0.8-0.2-1.5-0.4-2.3-0.5
	c0.4-1.6,0.8-3.1,1.1-4.6c-1-0.2-1.9-0.5-2.9-0.7c-0.4,1.6-0.8,3.1-1.2,4.7c-1.9-0.5-3.8-1-5.8-1.4c-0.3,1-0.5,2-0.8,3
	c0.2,0.1,0.3,0.1,0.4,0.1c0.6,0.2,1.2,0.3,1.9,0.5c0.9,0.3,1.3,1,1,1.9c-0.6,2.5-1.2,4.9-1.8,7.4c-0.4,1.6-0.8,3.2-1.2,4.8
	c-0.2,0.8-0.6,1.1-1.5,0.9c-0.1,0-0.2-0.1-0.3-0.1c-0.6-0.1-1.1-0.3-1.7-0.4c-0.5,1.1-0.9,2.2-1.4,3.3c2,0.5,3.8,1,5.8,1.5
	c-0.4,1.6-0.8,3.2-1.2,4.8c1,0.2,1.9,0.5,2.8,0.7c0.5-1.6,0.8-3.2,1.2-4.7c0.8,0.2,1.5,0.4,2.2,0.6C23.5,38.4,23.1,39.9,22.7,41.5z"
	/>
<path class="st1" d="M75.3,0.1c-0.3,1.3-0.6,2.5-0.9,3.8c-1,4.3-2.1,8.6-3.1,12.9c0,0.1,0,0.1-0.1,0.3c0.2-0.1,0.3-0.1,0.5-0.2
	c2-0.9,4.2-1.2,6.4-1c4.8,0.5,8.1,3,9.8,7.4c0.7,1.8,1,3.6,1.1,5.5c0.1,2.2,0,4.5-0.6,6.7c-1.8,6.9-5.9,11.9-12.4,14.9
	c-2.1,1-4.4,1.5-6.8,1.7c-0.2,0-0.5,0.1-0.7,0.1c-1.1,0-2.2,0-3.2,0c-1.5-0.2-3.1-0.3-4.6-0.5c-2-0.3-3.9-0.8-5.8-1.5
	c-0.4-0.2-0.7-0.3-1.1-0.5c3.8-16,7.6-32,11.4-48c2.8-0.4,5.6-0.9,8.4-1.3C74.1,0.3,74.7,0.2,75.3,0.1C75.1,0.1,75.2,0.1,75.3,0.1z
	 M64.8,43.9c0.1,0,0.2,0.1,0.3,0.1c1,0.3,2.1,0.2,3.2,0.2c1.2,0,2.3-0.2,3.3-0.7c2.7-1.1,4.5-3.2,5.9-5.7c1.4-2.7,2-5.5,1.7-8.5
	c-0.1-1-0.3-1.9-0.7-2.9c-0.5-1.2-1.4-1.9-2.6-2.2c-1.2-0.3-2.3-0.2-3.5,0.1c-1,0.2-2,0.6-2.8,1.2c-0.3,0.2-0.4,0.4-0.5,0.7
	c-1.4,5.7-2.8,11.5-4.1,17.2C64.9,43.6,64.9,43.7,64.8,43.9z"/>
<path class="st1" d="M250,28.6c0,1.4-0.3,2.8-0.7,4.2c-1.4,6-2.9,12-4.3,18.1c0,0.2-0.1,0.3-0.1,0.5c-3.3,0-6.5,0-9.8,0
	c0-0.2,0-0.3,0.1-0.5c1.4-5.9,2.8-11.7,4.2-17.6c0.3-1.3,0.5-2.6,0.7-3.9c0.1-0.8,0.1-1.5,0-2.3c-0.3-1.6-1.3-2.6-2.9-2.9
	c-1.3-0.2-3.8,0-5.2,0.4c-2.1,8.9-4.3,17.8-6.4,26.8c-3.3,0-6.5,0-9.8,0c0.1-0.5,0.2-1.1,0.4-1.6c2.5-10.3,5-20.7,7.5-31
	c0.1-0.4,0.2-0.5,0.6-0.7c1.9-0.6,3.8-1.2,5.8-1.5c3.3-0.6,6.7-0.9,10.1-0.6c2,0.2,3.9,0.7,5.6,1.7c2.1,1.3,3.4,3.3,4,5.7
	c0.2,0.6,0.2,1.3,0.3,1.9c0,0.1,0.1,0.1,0.1,0.2c0,0.6,0,1.3,0,1.9C250,27.8,250,28.2,250,28.6z"/>
<path class="st2" d="M0.2,24.9c0.1,0,0.1,0,0.2,0c0,0.9,0,1.8,0,2.6c-0.1,0-0.1,0-0.2,0C0.2,26.6,0.2,25.8,0.2,24.9z"/>
<path class="st3" d="M65.2,52.4L65.2,52.4c1.1-0.1,2.2-0.1,3.2-0.1v0.1C67.3,52.4,66.2,52.4,65.2,52.4z"/>
<path class="st4" d="M151.3,52.3L151.3,52.3c-0.9,0.1-1.8,0.1-2.7,0.1v-0.1C149.5,52.3,150.4,52.3,151.3,52.3z"/>
<path class="st5" d="M25.2,52.4L25.2,52.4c0.8-0.1,1.7-0.1,2.5-0.1v0.1C26.8,52.4,26,52.4,25.2,52.4z"/>
<path class="st4" d="M177,52.4L177,52.4c0.8-0.1,1.5-0.1,2.3-0.1v0.1C178.6,52.4,177.8,52.4,177,52.4z"/>
<path class="st6" d="M24.5,0.2C24.6,0.2,24.6,0.1,24.5,0.2c0.5-0.1,0.9-0.1,1.4-0.1C25.4,0.1,25,0.2,24.5,0.2z"/>
<path class="st7" d="M250,28.6c0-0.4,0.1-0.8,0.1-1.3C250.1,27.8,250.1,28.2,250,28.6L250,28.6z"/>
<path class="st1" d="M179.3,52.3c-0.8,0-1.5,0-2.3,0c-1-0.2-2.1-0.2-3.1-0.5c-4.5-1.1-7.4-4-8.8-8.4c-0.7-2.3-0.9-4.7-0.7-7.1
	c0.2-2.4,0.7-4.8,1.5-7.1c1.8-5,4.9-8.9,9.5-11.5c1.8-1,3.7-1.6,5.7-1.9c2.4-0.3,4.8-0.3,7.1,0.3c4.2,1.1,6.9,3.6,8.4,7.7
	c0.8,2.3,1.1,4.6,1,7c-0.2,5.2-1.7,9.9-4.8,14.1c-2.3,3.1-5.3,5.3-8.9,6.5c-1.3,0.4-2.6,0.7-4,0.8C179.8,52.2,179.6,52.3,179.3,52.3
	z M187.9,31.4c0-0.7-0.1-1.5-0.1-2.2c-0.1-1.1-0.4-2.2-0.9-3.2c-0.5-0.9-1.2-1.5-2.2-1.8c-2.1-0.5-4-0.2-5.7,1.1
	c-1.5,1.1-2.5,2.6-3.3,4.3c-1.4,3-1.9,6.2-1.5,9.4c0.1,1,0.4,1.9,0.8,2.8c0.5,0.9,1.2,1.5,2.2,1.8c2,0.5,3.9,0.2,5.6-1.1
	c1.5-1.1,2.6-2.6,3.3-4.3C187.4,36.2,187.7,33.8,187.9,31.4z"/>
<path class="st1" d="M135.2,16.6c-0.7,2.7-1.3,5.4-2,8c-3.6,0-7.2,0-10.9,0c-0.2,0.7-0.3,1.4-0.5,2.1c-0.9,3.6-1.7,7.2-2.6,10.9
	c-0.3,1.1-0.4,2.3-0.2,3.4c0.2,1.4,1.1,2.3,2.5,2.6c1.2,0.3,2.4,0.3,3.6,0.2c1.5-0.1,2.9-0.5,4.3-0.9c0.1,0,0.2,0,0.2-0.1
	c0.1,0.3,0.8,6.3,0.8,7.5c-0.3,0.1-0.6,0.2-1,0.4c-1.9,0.6-3.8,1.1-5.8,1.3c-2.6,0.2-5.1,0.2-7.7-0.4c-2.1-0.5-3.9-1.5-5.2-3.3
	c-0.8-1.2-1.3-2.5-1.5-3.9c-0.3-1.7-0.1-3.4,0.1-5.1c0.3-2.7,1-5.4,1.7-8c1.8-7.6,3.6-15.1,5.4-22.7c0.2-0.7,0.2-0.7,0.8-0.8
	c2.9-0.4,5.7-0.9,8.6-1.3c0.3,0,0.6-0.1,1-0.1c-0.8,3.4-1.7,6.8-2.5,10.2C127.9,16.6,131.5,16.6,135.2,16.6z"/>
<path class="st1" d="M151.3,52.3c-0.9,0-1.8,0-2.7,0c-1-0.1-2.1-0.2-3.1-0.4c-3.7-0.8-6.7-2.7-8.7-6c-0.9-1.5-1.4-3.1-1.7-4.7
	c-0.9-5.5,0-10.7,2.7-15.5c2.9-5,7.2-8.1,12.8-9.4c2.4-0.6,4.8-0.6,7.2-0.4c2.4,0.2,4.7,0.8,7,1.8c0.1,0,0.2,0.1,0.3,0.2
	c-1.1,2.5-2.2,5.1-3.4,7.7c-0.3-0.1-0.5-0.2-0.7-0.3c-1.3-0.5-2.5-0.9-3.9-1c-1.7-0.1-3.4-0.1-5,0.4c-2.9,1-4.9,3-6.1,5.8
	c-0.7,1.6-1,3.3-1.1,5.1c-0.1,1.4-0.1,2.7,0.3,4c0.2,0.6,0.4,1.1,0.6,1.7c0.7,1.5,1.9,2.4,3.5,2.7c1.5,0.3,3.1,0.3,4.7,0.1
	c1.4-0.2,2.9-0.6,4.2-1.1c0.1,0,0.2-0.1,0.3-0.1c0.2,2.6,0.5,5.2,0.7,7.8c-0.4,0.1-0.7,0.3-1.1,0.4c-1.8,0.6-3.5,1.1-5.4,1.3
	C152.4,52.2,151.8,52.2,151.3,52.3z"/>
<path class="st1" d="M208.3,51.3c-3.3,0-6.5,0-9.8,0c2.8-11.6,5.5-23.1,8.2-34.7c3.3,0,6.5,0,9.9,0
	C213.8,28.2,211.1,39.8,208.3,51.3z"/>
<path class="st1" d="M99.6,51.3c-3.3,0-6.5,0-9.8,0c2.8-11.6,5.5-23.1,8.2-34.7c3.3,0,6.5,0,9.8,0C105.1,28.2,102.4,39.8,99.6,51.3z
	"/>
<path class="st1" d="M214.5,0.8c1.3,0,2.5,0.4,3.5,1.1c1,0.7,1.5,1.6,1.7,2.8c0.6,3.8-2.2,7.1-5.7,7.6c-1.4,0.2-2.8,0-4.1-0.7
	c-1.5-0.8-2.2-2.1-2.3-3.8C207.5,3.9,210.9,0.7,214.5,0.8z"/>
<path class="st1" d="M105.8,0.8c1.2,0,2.4,0.3,3.4,1c1.2,0.8,1.8,1.9,1.9,3.3c0.3,3.5-2.2,6.4-5.4,7.1c-1.7,0.4-3.3,0.1-4.8-0.8
	c-1.3-0.8-1.8-2-2-3.4c-0.3-3.8,2.6-6.6,5.6-7.1C105,0.8,105.4,0.8,105.8,0.8z"/>
<path class="st8" d="M22.7,41.5c0.4-1.6,0.8-3.1,1.2-4.7c-0.8-0.2-1.5-0.4-2.2-0.6c-0.5,1.5-0.8,3.1-1.2,4.7
	c-0.9-0.2-1.9-0.5-2.8-0.7c0.4-1.6,0.8-3.2,1.2-4.8c-1.9-0.5-3.8-1-5.8-1.5c0.5-1.1,0.9-2.2,1.4-3.3c0.6,0.1,1.1,0.3,1.7,0.4
	c0.1,0,0.2,0.1,0.3,0.1c0.9,0.2,1.3-0.1,1.5-0.9c0.4-1.6,0.8-3.2,1.2-4.8c0.6-2.5,1.2-4.9,1.8-7.4c0.2-1-0.1-1.6-1-1.9
	c-0.6-0.2-1.2-0.3-1.9-0.5c-0.1,0-0.3-0.1-0.4-0.1c0.3-1,0.5-2,0.8-3c1.9,0.5,3.8,1,5.8,1.4c0.4-1.6,0.8-3.1,1.2-4.7
	c1,0.2,1.9,0.5,2.9,0.7c-0.4,1.5-0.8,3-1.1,4.6c0.8,0.2,1.5,0.4,2.3,0.5c0.4-1.5,0.8-3,1.2-4.6c0.9,0.2,1.9,0.5,2.8,0.7
	c-0.3,1.6-0.8,3.1-1.1,4.7c0.6,0.2,1.2,0.4,1.7,0.7c0.6,0.3,1.2,0.6,1.8,1c2.1,1.4,2.7,3.4,2,5.8c-0.5,1.6-1.5,2.7-3.1,3.1
	c-0.1,0-0.1,0-0.2,0.1c0,0,0,0-0.1,0.1c0.2,0.1,0.4,0.3,0.6,0.4c1.8,1.2,2.7,2.8,2.3,5c-0.2,1.1-0.5,2.1-1.1,3.1
	c-1,1.6-2.5,2.4-4.3,2.6c-1.6,0.2-3.1,0-4.7-0.3c-0.1,0-0.2,0-0.3,0c-0.4,1.6-0.8,3.1-1.2,4.7C24.6,42,23.7,41.8,22.7,41.5z
	 M22.6,32.8c0.1,0,0.2,0.1,0.2,0.1c1.4,0.4,2.8,0.7,4.3,0.9c0.9,0.1,1.8,0,2.6-0.2c1.8-0.6,2.3-3,1.1-4.3c-0.4-0.5-1-0.8-1.5-1.1
	c-1.6-0.8-3.3-1.2-5-1.5h-0.1C23.6,28.6,23.1,30.7,22.6,32.8z M26.3,17.9c-0.5,1.9-0.9,3.8-1.4,5.7c0.1,0,0.2,0.1,0.3,0.1
	c0.8,0.2,1.6,0.4,2.4,0.6c0.9,0.2,1.8,0.2,2.7,0c1-0.2,1.6-0.8,1.9-1.8c0.3-1,0-1.9-0.8-2.6c-0.3-0.2-0.6-0.5-0.9-0.7
	C29.2,18.5,27.7,18.2,26.3,17.9z"/>
<path class="st9" d="M22.6,32.8c0.5-2.1,1-4.1,1.5-6.2c0.1,0,0.1-0.1,0.1,0c1.7,0.4,3.4,0.7,5,1.5c0.6,0.3,1.1,0.7,1.5,1.1
	c1.2,1.3,0.7,3.7-1.1,4.3c-0.9,0.3-1.7,0.3-2.6,0.2C25.5,33.6,24.1,33.2,22.6,32.8C22.7,32.8,22.6,32.8,22.6,32.8z"/>
<path class="st9" d="M26.3,17.9c1.5,0.3,3,0.6,4.3,1.3c0.3,0.2,0.7,0.4,0.9,0.7c0.8,0.7,1,1.6,0.8,2.6c-0.3,1-0.9,1.5-1.9,1.8
	c-0.9,0.2-1.8,0.2-2.7,0c-0.8-0.1-1.6-0.4-2.4-0.6c-0.1,0-0.2-0.1-0.3-0.1C25.3,21.7,25.8,19.8,26.3,17.9z"/>
</svg>
