<?xml version="1.0" encoding="utf-8"?>
<!-- Generator: Adobe Illustrator 21.0.0, SVG Export Plug-In . SVG Version: 6.00 Build 0)  -->
<svg version="1.1" id="Camada_1" xmlns="http://www.w3.org/2000/svg" xmlns:xlink="http://www.w3.org/1999/xlink" x="0px" y="0px"
	 viewBox="0 0 250 147.3" style="enable-background:new 0 0 250 147.3;" xml:space="preserve">
<style type="text/css">
	.st0{font-family:'Roboto-Regular';}
	.st1{font-size:27.1257px;}
</style>
<g>
	<path d="M194.9,0.1c2.6,0,5,0,7.6,0c0,37.6,0,75.1,0,112.8c-2.5,0-5,0-7.6,0C194.9,75.3,194.9,37.8,194.9,0.1z"/>
	<path d="M131.8,0.2c2.6,0,5,0,7.5,0c0,37.6,0,75.1,0,112.7c-2.5,0-4.9,0-7.3,0C131.5,111.4,131.3,3.9,131.8,0.2z"/>
	<path d="M15.8,0.1c1.7,0,3.2,0,4.9,0c0,43.7,0,87.4,0,131.2c-0.9,0-1.7,0.1-2.5,0.1c-0.7,0-1.5,0-2.4,0C15.8,87.6,15.8,44,15.8,0.1
		z"/>
	<path d="M113,112.9c-1.7,0-3.2,0-4.9,0c0-37.5,0-75,0-112.7c1.6,0,3.2,0,4.9,0C113,37.7,113,75.2,113,112.9z"/>
	<path d="M89.6,0.2c1.7,0,3.3,0,5,0c0,37.6,0,75.1,0,112.7c-1.7,0-3.3,0-5,0C89.6,75.3,89.6,37.8,89.6,0.2z"/>
	<path d="M150.2,0.1c1.8,0,3.3,0,5,0c0,37.6,0,75,0,112.7c-1.7,0-3.3,0-5,0C150.2,75.3,150.2,37.8,150.2,0.1z"/>
	<path d="M33.9,112.9c-1.7,0-3.2,0-5,0c0-37.6,0-75.1,0-112.7c1.7,0,3.3,0,5,0C33.9,37.8,33.9,75.3,33.9,112.9z"/>
	<path d="M173.6,112.9c-1.7,0-3.2,0-5,0c0-37.6,0-75.1,0-112.7c1.7,0,3.3,0,5,0C173.6,37.8,173.6,75.3,173.6,112.9z"/>
	<path d="M55,112.9c-1.7,0-3.2,0-4.9,0c0-37.6,0-75.1,0-112.8c1.6,0,3.2,0,4.9,0C55,37.7,55,75.2,55,112.9z"/>
	<path d="M216.1,0.2c1.6,0,3.2,0,4.9,0c0,37.6,0,75.1,0,112.7c-1.7,0-3.2,0-4.9,0C216.1,75.3,216.1,37.8,216.1,0.2z"/>
	<path d="M71.2,0.1c1.7,0,3.2,0,4.9,0c0,37.6,0,75,0,112.7c-0.8,0.1-1.6,0.1-2.4,0.1c-0.7,0-1.5,0-2.2,0
		C70.9,111.3,70.6,5.8,71.2,0.1z"/>
	<path d="M205.5,0.2c1.6,0,3.1,0,4.9,0c0,37.6,0,75.1,0,112.7c-1.6,0-3.2,0-4.9,0C205.5,75.3,205.5,37.8,205.5,0.2z"/>
	<path d="M176.6,0.2c1.7,0,3.3,0,5,0c0,37.6,0,75,0,112.6c-1.7,0-3.2,0-5,0C176.6,75.3,176.6,37.8,176.6,0.2z"/>
	<path d="M160.7,0.1c1.7,0,3.2,0,4.9,0c0,37.6,0,75.1,0,112.8c-1.7,0-3.2,0-4.9,0C160.7,75.3,160.7,37.8,160.7,0.1z"/>
	<path d="M242.4,0.2c0.7,0,1.4,0,2.3,0c0,43.7,0,87.3,0,131.1c-0.7,0.1-1.4,0.1-2.3,0.2C242.4,87.6,242.4,44,242.4,0.2z"/>
	<path d="M247.7,0.2c0.7,0,1.5,0,2.3,0c0,43.7,0,87.4,0,131.1c-0.8,0-1.5,0-2.3,0C247.7,87.6,247.7,44,247.7,0.2z"/>
	<path d="M2.3,131.3c-0.9,0-1.5,0-2.3,0C0,87.6,0,44,0,0.2c0.7,0,1.5,0,2.3,0C2.3,43.9,2.3,87.5,2.3,131.3z"/>
	<path d="M126.5,0.1c0.7,0,1.4-0.1,2.3-0.1c0,37.7,0,75.2,0,112.8c-0.4,0.1-0.7,0.2-1.1,0.2c-0.4,0-0.7-0.1-1.2-0.1
		C126.5,75.3,126.5,37.8,126.5,0.1z"/>
	<path d="M123.6,112.9c-0.5,0.1-0.8,0.2-1.1,0.2c-0.4,0-0.7-0.1-1.3-0.1c0-37.6,0-75.1,0-112.7c0.8,0,1.5,0,2.4,0
		C123.6,37.8,123.6,75.2,123.6,112.9z"/>
	<path d="M7.6,131.3c-0.9,0-1.5,0-2.3,0c0-43.7,0-87.3,0-131.1C6,0.1,6.7,0.1,7.6,0C7.6,43.8,7.6,87.5,7.6,131.3z"/>
	<path d="M236.8,0.2c0,43.8,0,87.4,0,131.1c-0.8,0-1.4,0.1-2,0.1c-0.5-1.7-0.8-127.6-0.2-131.2C235.2,0.2,235.9,0.2,236.8,0.2z"/>
	<path d="M224,0.1c0.8,0,1.4,0,2.2,0c0,43.8,0,87.4,0,131.1c-0.4,0.1-0.7,0.2-1,0.2c-0.4,0-0.7-0.1-1.1-0.1
		C223.7,129.7,223.5,3.6,224,0.1z"/>
	<path d="M189.4,112.9c-0.8,0-1.5,0-2.4,0c0-37.5,0-75,0-112.7c0.8,0,1.5,0,2.4,0C189.4,37.8,189.4,75.3,189.4,112.9z"/>
	<path d="M81.4,112.8c-0.5,0.1-0.8,0.2-1.2,0.2c-0.4,0-0.7-0.1-1.2-0.1c0-37.6,0-75,0-112.7c0.8,0,1.5,0,2.4,0
		C81.4,37.8,81.4,75.3,81.4,112.8z"/>
	<path d="M44.5,112.8c-0.5,0.1-0.8,0.2-1,0.2c-0.4,0-0.7,0-1.1-0.1c-0.5-1.7-0.8-107.2-0.3-112.7c0.7,0,1.5,0,2.4,0
		C44.5,37.7,44.5,75.2,44.5,112.8z"/>
	<path d="M147.3,112.9c-0.8,0-1.5,0-2.4,0c0-37.6,0-75.1,0-112.6c0.3-0.1,0.6-0.2,0.9-0.3c0.4,0,0.9,0.1,1.5,0.1
		C147.3,37.7,147.3,75.2,147.3,112.9z"/>
	<path d="M60.6,0.2C61,0.2,61.4,0,61.7,0c0.4,0,0.7,0.1,1.2,0.2c0,37.5,0,75,0,112.7c-0.8,0-1.5,0-2.3,0
		C60.6,75.3,60.6,37.8,60.6,0.2z"/>
	<path d="M97.5,0.2c0.8,0,1.5,0,2.4,0c0,37.6,0,75,0,112.7c-0.8,0-1.5,0-2.4,0C97.5,75.3,97.5,37.8,97.5,0.2z"/>
	<path d="M26.1,131.3c-0.8,0-1.4,0.1-1.9,0.1c-0.7-0.7-0.9-128.1-0.3-131.2c0.7,0,1.4,0,2.2,0C26.1,43.9,26.1,87.5,26.1,131.3z"/>
	<path d="M116,0.1c0.9,0,1.5,0,2.3,0c0,37.6,0,75,0,112.7c-0.8,0-1.4,0-2.3,0C116,75.3,116,37.8,116,0.1z"/>
	<text transform="matrix(1 0 0 1 85.4151 139.9709)" class="st0 st1">Boleto</text>
</g>
</svg>
