<?xml version="1.0" encoding="utf-8"?>
<!-- Generator: Adobe Illustrator 21.0.0, SVG Export Plug-In . SVG Version: 6.00 Build 0)  -->
<svg version="1.1" id="Camada_1" xmlns="http://www.w3.org/2000/svg" xmlns:xlink="http://www.w3.org/1999/xlink" x="0px" y="0px"
	 viewBox="0 0 250 250.1" style="enable-background:new 0 0 250 250.1;" xml:space="preserve">
<style type="text/css">
	.st0{fill:#CC0830;}
	.st1{fill:#D32A4D;}
	.st2{fill:#FDFAFA;}
	.st3{fill:#FEFEFE;}
	.st4{fill:#FEFDFD;}
	.st5{fill:#C80316;}
</style>
<g>
	<g>
		<path class="st0" d="M250,32.2c0,2.2,0,4.4,0,6.6c-0.3,1-0.8,2-0.8,3c-0.1,3.7,0,7.5,0,11.2c0,65.6,0,131.3,0,197
			c-1,0-1.9,0.1-2.9,0.1c-67.1,0-134.3,0-201.4,0c-1,0-1.9-0.1-2.9-0.1c-0.7-0.5-1.3-1.3-2-1.5c-7-1.3-13.8-3-20.2-6.1
			c-0.8-0.4-1.8-0.4-2.7-0.6l0,0c-0.1-2.2-1.5-2.6-3.3-2.5c-1.4-1.4-2.8-2.8-4.1-4.1c0.1-1.3,0.1-2.6-1.8-2.5c-1.3-2.5-2.7-5-4-7.5
			c1.2-1.2,0.4-1.5-0.7-1.7c-0.3-0.8-0.6-1.5-0.8-2.3C0.2,214.6,0,207.7,0,201c-0.1-17.6,0.1-35.2,0.1-52.8C0.1,100.1,0,52,0,3.9
			C0,2.7,0.2,1.5,0.3,0c1.8,0,3.3,0,4.8,0c64.3,0,128.6,0,193,0c6.6,0,13.2,0.3,19.7,2c15.5,3.9,26.8,12.3,30.8,28.7
			C248.6,31.3,249.5,31.7,250,32.2z M145,215.2c0.3-1,0.9-2,0.9-2.9c0-26.9,0-53.7,0-80.6c0-1-0.6-2-0.9-3c-6.6,0-13.2,0-19.6,0
			c0,29.4,0,58.3,0,87.3c1.4,0,2.5,0,3.6,0C134.4,215.8,139.7,215.5,145,215.2z M163.3,154.6c1.1,2.7,2.7,2.6,4.6,1.8
			c10.5-4,19.8-9.8,26.8-18.9c5.9-7.8,8.5-16.4,6.2-26.1c-1.8-7.5-6.1-13.5-11.7-18.7c-5.5-5.1-11.8-9.2-18.6-12.4
			c-23.3-11-48.1-14.3-73.6-12.5c-1.6,0.1-3.2,0.2-5.2,0.4c5.5-6.1,17.3-11.5,28.1-13.2c19.8-3.1,38,0.9,53.4,13.9
			c2.7-1.4,2.3-2.8,1-4.5c-5.3-6.5-11.8-11.6-19.3-15.4c-14.5-7.3-29.9-9-45.7-6.4c-8.5,1.4-16.6,4.1-24,8.7
			C76,56.8,69,64.5,64,74.2c-2.5,0.9-5.1,1.8-7.7,2.9c-5.2,2.3-10.3,4.6-15.5,7c-1.6,0.8-3.3,1.8-1.7,4.5c1.2-0.2,2.6-0.3,3.8-0.6
			c2.8-0.8,5.5-1.8,8.3-2.6c2.8-0.8,5.7-1.4,8.9-2.2c-0.2,1-0.3,1.4-0.4,1.8c-5.9,23.8-1.1,45.3,14.5,64.1c1.8,2.1,3.8,4,5.9,5.8
			c0.5,0.5,2,0.5,2.6,0c0.5-0.4,0.7-1.7,0.5-2.5c-0.3-1.2-1.1-2.2-1.7-3.3c-7.6-14.4-11.3-29.7-9-46.1c1.2-8.4,3.6-16.4,8.6-23.9
			c7.1-0.2,14.3-0.7,21.5-0.6c18.7,0.3,36.9,3.7,53.8,12.1c8.1,4.1,15.6,8.8,21.5,15.9c7.5,9,8.3,19.5,2.4,29.7
			c-3.5,5.9-8.2,10.7-13.7,14.8C165.5,152.5,164.4,153.6,163.3,154.6z M113.6,215c0-21.1,0-42,0-62.7c-4.1,0-7.9,0-11.7,0
			c-0.8,11.4-0.4,60.4,0.6,63.9C106.1,215.9,109.7,215.5,113.6,215z"/>
		<path class="st1" d="M249.8,249.9c-0.3-0.1-0.6-0.1-0.9-0.2c0-65.5,0-131.1,0-196.6c0-3.7-0.1-7.5,0-11.2c0-1,0.5-2,0.8-3
			C249.8,109.3,249.8,179.6,249.8,249.9z"/>
		<path class="st2" d="M163.3,154.5c1.1-1,2.2-2.2,3.5-3.1c5.5-4.1,10.2-8.9,13.7-14.8c5.9-10.1,5.1-20.6-2.4-29.6
			c-5.9-7-13.4-11.8-21.5-15.9c-16.9-8.5-35-11.9-53.7-12.1c-7.2-0.1-14.4,0.4-21.5,0.6c-5,7.5-7.4,15.5-8.6,23.9
			c-2.3,16.3,1.4,31.6,9,46c0.6,1.1,1.4,2.1,1.7,3.3c0.2,0.8,0,2.1-0.5,2.5c-0.6,0.4-2,0.4-2.6,0c-2.1-1.8-4.1-3.7-5.9-5.8
			c-15.6-18.9-20.4-40.3-14.5-64c0.1-0.4,0.2-0.8,0.4-1.8c-3.2,0.8-6.1,1.4-8.9,2.2c-2.8,0.8-5.5,1.8-8.3,2.6
			c-1.3,0.4-2.6,0.4-3.8,0.6c-1.6-2.7,0-3.7,1.7-4.5c5.1-2.4,10.3-4.8,15.5-7c2.5-1.1,5.1-1.9,7.7-2.9c5-9.7,11.9-17.4,21-23.1
			c7.4-4.6,15.5-7.4,24-8.7c15.8-2.5,31.2-0.8,45.6,6.4c7.5,3.8,14,8.8,19.3,15.4c1.4,1.7,1.8,3.1-1,4.5
			c-15.4-13-33.5-17.1-53.3-13.9c-10.7,1.7-22.5,7.1-28,13.2c2-0.1,3.6-0.3,5.2-0.4c25.5-1.8,50.2,1.5,73.5,12.5
			c6.8,3.2,13,7.3,18.6,12.4c5.6,5.2,9.9,11.2,11.7,18.7c2.3,9.7-0.3,18.4-6.2,26.1c-6.9,9.1-16.2,14.9-26.7,18.9
			C166,157.1,164.4,157.2,163.3,154.5z"/>
		<path class="st3" d="M145,215c-5.3,0.3-10.7,0.6-16,0.8c-1.1,0.1-2.2,0-3.6,0c0-29,0-57.8,0-87.1c6.4,0,13,0,19.6,0
			c0,19.8,0.1,39.6,0.1,59.3C145.1,197,145.1,206,145,215z"/>
		<path class="st4" d="M113.7,214.8c-3.9,0.4-7.5,0.8-11.1,1.2c-1-3.5-1.4-52.4-0.6-63.8c3.8,0,7.6,0,11.7,0
			C113.7,173,113.7,193.7,113.7,214.8z"/>
		<path class="st5" d="M145,215c0-9,0.1-18,0.1-27c0-19.8,0-39.6-0.1-59.3c0.3,1,0.9,2,0.9,3c0,26.8,0,53.6,0,80.4
			C145.9,213,145.4,214,145,215z"/>
		<path class="st1" d="M42.2,249.8c-9,0.2-17-2.9-24.6-7.5c-0.2-0.1-0.3-0.5-0.4-0.7c0.9,0.2,1.9,0.2,2.7,0.6
			c6.4,3.1,13.2,4.8,20.2,6.1C40.9,248.4,41.5,249.3,42.2,249.8z"/>
		<path class="st1" d="M17.2,241.6c-1.1-0.8-2.2-1.7-3.3-2.5C15.7,239,17.2,239.4,17.2,241.6z"/>
		<path class="st1" d="M9.8,235c-0.6-0.8-1.2-1.6-1.8-2.5C9.9,232.4,9.8,233.7,9.8,235z"/>
		<path class="st1" d="M4,225c-0.2-0.6-0.5-1.1-0.7-1.7C4.4,223.5,5.2,223.8,4,225z"/>
	</g>
</g>
</svg>
