<?xml version="1.0" encoding="utf-8"?>
<!-- Generator: Adobe Illustrator 21.0.0, SVG Export Plug-In . SVG Version: 6.00 Build 0)  -->
<svg version="1.1" id="Camada_1" xmlns="http://www.w3.org/2000/svg" xmlns:xlink="http://www.w3.org/1999/xlink" x="0px" y="0px"
	 viewBox="0 0 250 280.8" style="enable-background:new 0 0 250 280.8;" xml:space="preserve">
<style type="text/css">
	.st0{fill:#08AE5D;}
	.st1{fill:#FEDA33;}
	.st2{fill:#FDE365;}
	.st3{fill:#FDDF50;}
	.st4{fill:#FDDC3D;}
	.st5{fill:#F3FAF6;}
	.st6{fill:#F9FCFA;}
</style>
<g>
	<path class="st0" d="M89.1,21.1c6,7,10.1,11.8,17.9,21c-8.9,4.8-17.2,9.3-28.7,15.6c43.8,12.7,15.2,45.3,29.8,65.8
		c12.4-9.8,25-20.4,38.3-29.8c5.9-4.2,17.8-9.9,19.6-8c7.5,7.9,17.8,19.1,16.9,28c-4.1,40.4-10.4,80.7-18.8,120.4
		c-2.3,10.9-14.9,19.6-22.5,29.1c-6.1-9.4-9.5-17.4-15.2-23.3C87.3,199.9,47.9,160.2,8.3,120.6C-2,110.4-3.5,101.3,8.1,91.3
		C34.5,68.6,60.8,45.7,89.1,21.1z M89.4,166.1c16.6,14.7,34.2,30.5,52.5,46.7c4.2-28.7,8.5-58.5,13.2-91.2
		C131.7,137.5,112,150.9,89.4,166.1z M32.3,104.2c14.3,15,27.3,28.6,42.7,44.8c0-29.9,0-54.9,0-82.7C59.7,79.9,46.9,91.2,32.3,104.2
		z"/>
	<path class="st1" d="M248.1,163c-1.8,4.4-3.7,8.9-5.5,13.3c-1.3-2-2.6-4.1-3.9-6.2c-0.9,0.9-1.7,1.8-2.6,2.7
		c2.1,1.2,4.2,2.4,6.3,3.5c-0.4,5.5-0.9,11.1-1.3,16.6c-3.6-0.2-9.6-1.8-10.5-0.3c-6.9,11.6-12.9,23.8-19.1,35.8
		c-5.8,2.9-11.7,5.7-17.5,8.6c1.9-7.6,1.9-16.4,6-22.5c34.2-51.7,33.9-108.6-1.7-151.7C161.1,17.8,103.1,4.7,46.1,28
		c-9.6,3.9-20.2,5.6-35.2,9.6C50.1,0.9,115.5-10.8,159.3,10.9c53.4,26.4,89.7,66.3,90.7,130c-4,4-8.1,8-12.1,12
		C241.3,156.3,244.7,159.6,248.1,163z M238.6,132.8c1-0.1,2-0.2,3.1-0.4c-0.4-3-0.9-6.1-1.3-9.1c-0.8,0.1-1.7,0.2-2.5,0.3
		C238.1,126.8,238.4,129.8,238.6,132.8z"/>
	<path class="st2" d="M194,237.1c5.8-2.9,11.7-5.7,17.5-8.6c2.9,1.4,5.7,2.8,8.6,4.2c-19.2,16-38.3,32-57.5,48
		c-2.5-2.5-5-5.1-7.5-7.6c5.8-6.2,11.6-12.3,17.4-18.5c2.7-1.6,5.5-3.2,8.2-4.8c0,0-0.2,0.2-0.2,0.2c1.6-1.4,3.1-2.8,4.7-4.2
		C188.1,243,191,240.1,194,237.1z"/>
	<path class="st3" d="M220.1,232.8c-2.9-1.4-5.7-2.8-8.6-4.2c6.3-12,12.2-24.2,19.1-35.8c0.9-1.5,6.9,0.1,10.5,0.3
		C234.1,206.3,227.1,219.5,220.1,232.8z"/>
	<path class="st3" d="M248.1,163c-3.4-3.4-6.8-6.8-10.2-10.1c4-4,8.1-8,12.1-12C249.4,148.2,248.7,155.6,248.1,163z"/>
	<path class="st4" d="M180.7,249.9c-2.7,1.6-5.5,3.2-8.2,4.8C175.2,253.1,177.9,251.5,180.7,249.9z"/>
	<path class="st4" d="M185.2,245.9c-1.6,1.4-3.1,2.8-4.7,4.2C182,248.7,183.6,247.3,185.2,245.9z"/>
	<path class="st5" d="M89.4,166.1c22.5-15.3,42.3-28.7,65.7-44.5c-4.7,32.7-9,62.5-13.2,91.2C123.6,196.6,106,180.9,89.4,166.1z"/>
	<path class="st6" d="M32.3,104.2c14.7-13,27.5-24.3,42.7-37.9c0,27.8,0,52.8,0,82.7C59.5,132.8,46.6,119.2,32.3,104.2z"/>
	<path class="st3" d="M238.6,132.8c-0.3-3-0.5-6.1-0.8-9.1c0.8-0.1,1.7-0.2,2.5-0.3c0.4,3,0.9,6.1,1.3,9.1
		C240.7,132.6,239.6,132.7,238.6,132.8z"/>
	<path class="st3" d="M242.4,176.4c-2.1-1.2-4.2-2.4-6.3-3.5c0.9-0.9,1.7-1.8,2.6-2.7c1.3,2.1,2.6,4.1,3.9,6.2
		C242.6,176.3,242.4,176.4,242.4,176.4z"/>
</g>
</svg>
