<?xml version="1.0" encoding="utf-8"?>
<!-- Generator: Adobe Illustrator 21.0.0, SVG Export Plug-In . SVG Version: 6.00 Build 0)  -->
<svg version="1.1" id="Camada_1" xmlns="http://www.w3.org/2000/svg" xmlns:xlink="http://www.w3.org/1999/xlink" x="0px" y="0px"
	 viewBox="0 0 250.4 308.4" style="enable-background:new 0 0 250.4 308.4;" xml:space="preserve">
<style type="text/css">
	.st0{fill:#FEFEFE;}
	.st1{fill:#032D5E;}
	.st2{fill:#032C5E;}
	.st3{fill:#436286;}
	.st4{fill:#002A5C;}
	.st5{fill:#052E5F;}
	.st6{fill:#093161;}
	.st7{fill:#F8F9FA;}
	.st8{fill:#FCFCFD;}
	.st9{fill:#FEFEFF;}
	.st10{fill:#FDFDFD;}
	.st11{fill:#506D8F;}
	.st12{fill:#FCFDFD;}
</style>
<g>
	<g>
		<path class="st0" d="M172.9,308.4c-24.7,0-49.4,0-74.1,0c0.6-0.1,1.1-0.3,1.7-0.4c3.3-0.8,5.8-2.7,7-5.9c0.1-0.2,0.1-0.5,0.2-0.8
			c-2,0-3.8,0-5.7,0c-0.2,0.3-0.4,0.7-0.6,1c-1.2,1.7-3.2,2.4-5.1,1.8c-1-0.3-1.7-1-2-2c-0.3-1.2-0.2-2.4,0.2-3.6
			c4.8,0,9.6,0,14.4,0c0.1-0.1,0.2-0.2,0.2-0.3c0.5-2.2,0.9-4.4,0.5-6.7c-0.6-3.4-2.9-5.7-6.3-6.1c-4.6-0.5-8.4,1-11.3,4.6
			c-2.9,3.5-4,7.7-3.7,12.2c0.2,3,2,5,4.9,5.8c0.4,0.1,0.7,0.3,1,0.4c-31.3,0-62.7,0-94,0c0-102.7,0-205.5,0-308.2
			c83.4,0,166.8,0,250.2,0c0,102.7,0,205.5,0,308.2c-24.4,0-48.8,0-73.2,0c0.2-0.1,0.4-0.2,0.5-0.2c1.4-0.3,2.8-0.7,4.1-1.4
			c5.3-2.8,8-9.2,7.4-14.4c-0.3-3.2-2-5.4-5.1-6.4c-1.1-0.4-2.3-0.5-3.5-0.6c-3-0.1-5.9,0.5-8.4,2.4c-4.3,3.2-6.2,7.7-6,13
			c0.1,4,2.7,6.8,6.8,7.4c0,0,0.1,0,0,0.1C172.9,308.3,172.9,308.3,172.9,308.4z M121.7,288.1c0,0-0.1-0.1-0.1-0.1
			c0.5-2.4,1-4.8,1.5-7.1c0.3-1.4,0.6-2.7,0.9-4.1c-2.2,0-4.2,0-6.4,0c-2.2,10.3-4.4,20.5-6.6,30.8c2.2,0,4.2,0,6.2,0
			c0.3-0.9,0.5-1.8,0.8-2.6c0.1,0,0.1,0,0.1,0c0.1,0.1,0.2,0.2,0.2,0.3c0.9,1.6,2.3,2.4,4.1,2.6c3.3,0.4,6.2-0.5,8.5-2.8
			c3.7-3.7,5.1-8.4,4.4-13.6c-0.4-3.1-2.5-5.2-5.4-5.8c-2.7-0.5-5.2,0-7.4,1.7C122.3,287.7,122,287.9,121.7,288.1z M5.9,5.6
			C5.7,7.7,5.8,260.1,6,260.9c79.7,0,159.3,0,239,0c0-85.1,0-170.2,0-255.3C165.3,5.6,85.6,5.6,5.9,5.6z M82,307.5
			c2.2-10.3,4.3-20.6,6.5-30.9c-2.2,0-4.3,0-6.4,0c-0.8,3.9-1.7,7.7-2.5,11.8c-1.2-1.9-2.8-2.7-4.7-2.8c-3.1-0.2-5.9,0.8-8.1,2.9
			c-3.9,3.7-5.4,8.4-4.9,13.7c0.2,2.2,1.3,4,3.4,4.9c2.7,1.3,7.2,1.2,10-1.6c0.2-0.2,0.4-0.4,0.6-0.6c0.1,0,0.1,0,0.2,0.1
			c-0.1,0.8-0.2,1.6-0.3,2.5C77.8,307.5,79.9,307.5,82,307.5z M154.3,290.3c0,0.4,0,0.6-0.1,0.9c-0.4,2.1-0.9,4.1-1.3,6.2
			c-0.4,2-0.9,4.1-1.2,6.1c-0.3,2.4,0.8,3.8,3.1,4.2c2.5,0.5,4.9,0.1,7.4-0.5c0.3-1.4,0.6-2.7,0.9-4.2c-0.5,0.1-0.8,0.1-1.1,0.1
			c-0.8,0-1.6,0-2.4-0.1c-0.7-0.1-1-0.5-1-1.3c0-0.5,0-1,0.1-1.5c0.4-2.1,0.9-4.2,1.3-6.3c0.3-1.2,0.5-2.5,0.8-3.8
			c1.8,0,3.4,0,5.1,0c0.3-1.4,0.6-2.8,0.9-4.2c-1.7,0-3.4,0-5.1,0c0.5-2.2,0.9-4.3,1.4-6.6c-2.4,0.8-4.6,1.6-6.8,2.3
			c-0.3,1.4-0.6,2.8-1,4.3c-1.4,0-2.8,0-4.1,0c-0.3,1.4-0.6,2.8-0.9,4.2C151.6,290.3,152.9,290.3,154.3,290.3z M143.8,307.5
			c1.5-7.2,3-14.3,4.6-21.6c-2.2,0-4.3,0-6.4,0c-1.5,7.2-3,14.4-4.6,21.6C139.6,307.5,141.7,307.5,143.8,307.5z M143.7,276.6
			c-0.4,1.8-0.8,3.6-1.1,5.5c2.3,0,4.5,0,6.8,0c0.4-1.8,0.8-3.6,1.1-5.5C148.2,276.6,146,276.6,143.7,276.6z M99,282.4
			c0.3,0.1,0.4,0.1,0.6,0.1c0.7,0,1.5,0,2.2,0c0.5,0,0.8-0.1,1.1-0.4c2-1.8,4.1-3.6,6.2-5.3c0.1-0.1,0.2-0.3,0.5-0.5
			c-1.9,0-3.5,0-5.2,0c-0.2,0-0.5,0.2-0.7,0.3C102.1,278.5,100.6,280.4,99,282.4z"/>
		<path class="st1" d="M94.1,308.4c-0.3-0.1-0.7-0.3-1-0.4c-2.9-0.8-4.7-2.8-4.9-5.8c-0.3-4.5,0.8-8.7,3.7-12.2
			c2.9-3.6,6.7-5.1,11.3-4.6c3.4,0.4,5.8,2.7,6.3,6.1c0.4,2.3,0,4.5-0.5,6.7c0,0.1-0.1,0.2-0.2,0.3c-4.8,0-9.5,0-14.4,0
			c-0.3,1.2-0.5,2.4-0.2,3.6c0.3,1,0.9,1.7,2,2c2,0.6,4-0.1,5.1-1.8c0.2-0.3,0.4-0.7,0.6-1c1.9,0,3.7,0,5.7,0
			c-0.1,0.3-0.1,0.6-0.2,0.8c-1.3,3.2-3.7,5.1-7,5.9c-0.6,0.1-1.1,0.3-1.7,0.4C97.2,308.4,95.7,308.4,94.1,308.4z M103.4,294.3
			c0-0.8,0.1-1.5,0.1-2.2c-0.1-1.6-1.1-2.5-2.7-2.5c-2.5-0.1-4.9,2.2-5.1,4.8C98.2,294.3,100.7,294.3,103.4,294.3z"/>
		<path class="st2" d="M172.9,308.2c-4-0.6-6.7-3.3-6.8-7.4c-0.1-5.3,1.7-9.7,6-13c2.5-1.9,5.3-2.5,8.4-2.4c1.2,0.1,2.4,0.2,3.5,0.6
			c3.1,1,4.8,3.2,5.1,6.4c0.6,5.2-2.1,11.6-7.4,14.4c-1.3,0.7-2.7,1.1-4.1,1.4c-0.2,0-0.4,0.1-0.5,0.2c-0.1,0-0.3,0-0.4,0
			c-0.1-0.1-0.3-0.2-0.4-0.2C175.1,308.2,174,308.2,172.9,308.2z M178.8,289.7c-0.7,0-1.6,0.2-2.4,0.8c-1,0.7-1.7,1.6-2.2,2.7
			c-0.8,1.7-1.3,3.6-1.5,5.5c-0.1,0.8-0.1,1.6,0,2.3c0.2,1.8,1.3,2.9,3.1,3c2,0.1,3.6-0.6,4.7-2.3c1.1-1.5,1.6-3.3,1.9-5.1
			c0.3-1.2,0.5-2.5,0.3-3.8C182.4,290.7,181.3,289.7,178.8,289.7z"/>
		<path class="st3" d="M172.9,308.2c1.1,0,2.2,0,3.4,0c0.1,0,0.3,0.1,0.4,0.2c-1.3,0-2.5,0-3.8,0
			C172.9,308.3,172.9,308.3,172.9,308.2C172.9,308.2,172.9,308.2,172.9,308.2z"/>
		<path class="st4" d="M5.9,5.6c79.7,0,159.4,0,239.1,0c0,85.1,0,170.2,0,255.3c-79.7,0-159.4,0-239,0C5.8,260.1,5.7,7.7,5.9,5.6z
			 M133.1,209.9c0.5-0.1,0.9-0.1,1.4-0.2c2.1-0.4,4.2-1.1,5.9-2.4c2.2-1.6,3.5-3.7,3.6-6.5c0.2-4.8-1.8-8.2-6.9-9.5
			c-1.5-0.4-3-0.6-4.5-0.6c-6.1-0.1-12.3,0-18.4,0c-0.2,0-0.3,0.1-0.5,0.1c-0.2,1-0.4,1.9-0.7,2.9c0.5,0,0.9,0,1.2,0
			c0.8,0.1,1.6,0.1,2.4,0.2c1,0.2,1.4,0.7,1.3,1.8c-0.1,0.8-0.3,1.5-0.4,2.3c-1.8,7.3-3.5,14.7-5.3,22c-0.4,1.8-0.9,3.6-1.4,5.3
			c-0.4,1.5-1.1,2-2.7,2.1c-0.9,0-1.8,0-2.7,0c-2.2-0.1-3-0.8-3.4-3c0-0.1,0-0.1,0-0.2c-1.9-10.1-3.8-20.3-5.7-30.4
			c-0.2-1.3-0.5-2.5-0.7-3.8c-1,0-2,0-2.9,0c-0.2,0.3-0.4,0.6-0.5,0.9c-5.5,10.1-11,20.3-16.5,30.4c-0.5,1-1.1,2-1.8,2.9
			c-1.2,1.7-2.8,3.1-5,3.3c-0.2,1-0.4,1.9-0.7,2.9c4.6,0,9.2,0,13.7,0c0.2-1,0.4-1.9,0.7-3c-0.5,0-0.8,0-1.2,0
			c-0.7-0.1-1.3-0.1-2-0.3c-1-0.3-1.5-1-1.5-2c0-0.3,0.1-0.7,0.2-1c0.7-2,1.8-3.9,2.8-5.7c3.9,0,7.7,0,11.6,0
			c0.3,1.5,0.6,2.9,0.8,4.4c0.2,0.9,0.3,1.9,0.3,2.8c0.1,1.2-0.4,1.7-1.6,1.9c-0.5,0.1-1.1,0.1-1.6,0.1c-0.4,0-0.9,0-1.4,0
			c-0.2,1-0.4,2-0.7,3c0.5,0,0.8,0,1.1,0c12.6,0,25.3,0,37.9,0c0.7,0,1.4,0,2.1-0.1c2.1-0.1,4.2-0.5,6.2-1.3
			c4.5-1.7,6.7-5.1,6.5-9.9c-0.1-3.3-1.7-5.8-4.7-7.4c-1.4-0.7-2.9-1.1-4.4-1.4C133.1,210.2,133.1,210.1,133.1,209.9z M196.6,102.4
			c-22.5-22-44.8-44-67.4-66.1c0,0.5,0,0.7,0,1c0,10.5,0,21.1,0,31.6c0,0.6,0.2,1,0.6,1.5c4.4,4.4,8.8,8.7,13.2,13.1
			c5.3,5.2,10.5,10.4,15.8,15.6c1.1,1.1,2.2,2.2,3.4,3.4c-0.6,0.6-1.2,1.2-1.8,1.7c-10.2,10.1-20.4,20.1-30.6,30.2
			c-0.4,0.4-0.6,0.8-0.6,1.4c0,10.7,0,21.3,0,32c0,0.2,0.1,0.4,0.1,0.8C151.8,146.4,174.2,124.4,196.6,102.4z M54.2,102.4
			c22.4,22,44.8,44,67.3,66.1c0-0.6,0-1,0-1.4c0-7.3,0-14.6,0-21.9c0-3.2,0-6.3,0-9.5c0-0.6-0.2-1-0.6-1.4c-1.3-1.2-2.5-2.5-3.8-3.7
			c-9.3-9.2-18.7-18.4-28-27.6c-0.2-0.2-0.4-0.4-0.5-0.6c0.1-0.2,0.2-0.3,0.3-0.4c3.9-3.8,7.7-7.6,11.6-11.5
			c6.8-6.7,13.6-13.5,20.5-20.2c0.4-0.4,0.5-0.8,0.5-1.3c0-10.6,0-21.2,0-31.7c0-0.2-0.1-0.5-0.1-0.9
			C98.9,58.5,76.6,80.4,54.2,102.4z M166.1,189.8c-0.2,0.3-0.4,0.6-0.5,0.9c-2.8,5.1-5.6,10.3-8.4,15.4c-2.7,5.1-5.5,10.2-8.3,15.2
			c-0.8,1.6-1.8,3-3.1,4.3c-0.8,0.8-1.8,1.4-2.9,1.6c-0.2,0-0.5,0.1-0.7,0.2c-0.2,1-0.4,1.9-0.6,2.8c4.7,0,9.2,0,13.7,0
			c0.2-1,0.4-1.9,0.7-2.9c-0.5,0-0.8,0-1.2-0.1c-0.6-0.1-1.3-0.1-1.9-0.3c-1.1-0.3-1.6-1-1.5-2.1c0-0.3,0-0.7,0.1-1
			c0.8-2,1.9-3.9,2.8-5.7c3.9,0,7.7,0,11.5,0c0.1,0.1,0.1,0.2,0.1,0.2c0.2,1.4,0.5,2.8,0.7,4.2c0.2,1,0.3,1.9,0.4,2.9
			c0,1-0.4,1.4-1.3,1.7c-0.4,0.1-0.8,0.1-1.3,0.1c-0.7,0-1.3,0-2,0c-0.2,1-0.4,2-0.7,2.9c16.7,0,33.3,0,49.9,0
			c1.1-4.6,2.2-9.2,3.3-13.8c-0.8-0.2-1.6-0.4-2.3-0.6c-0.2,0.3-0.3,0.5-0.4,0.8c-0.6,1.1-1.2,2.2-1.9,3.3c-1.4,2.2-3.1,4.1-5.3,5.5
			c-3,2-6.3,2.3-9.7,1.7c-1.1-0.2-1.4-0.7-1.4-1.8c0-0.5,0-0.9,0.1-1.4c1-4.3,2-8.6,3-13c1.2-4.9,2.3-9.7,3.6-14.6
			c0.5-2,1.1-2.5,3.1-2.7c0.4,0,0.8,0,1.2-0.1c0.4,0,0.8,0,1.3-0.1c0.2-1,0.4-1.9,0.7-2.9c-6.4,0-12.7,0-19.1,0
			c-0.2,0.9-0.4,1.9-0.7,2.9c0.5,0,0.8,0,1.1,0c0.8,0,1.6,0,2.3,0.2c1.3,0.2,1.6,0.6,1.5,1.9c-0.1,0.9-0.3,1.9-0.5,2.8
			c-1.8,7.3-3.5,14.6-5.3,22c-0.4,1.6-0.8,3.3-1.3,4.9c-0.3,1.2-1.1,1.8-2.3,1.8c-1.3,0-2.6,0.1-3.9,0c-1.9-0.2-2.6-0.8-3-2.7
			c-0.3-1.6-0.6-3.2-0.9-4.8c-1.6-8.5-3.2-17-4.8-25.5c-0.3-1.4-0.6-2.9-0.8-4.4C168.1,189.8,167.2,189.8,166.1,189.8z M65.1,218.8
			c-0.8,1.4-1.5,2.6-2.3,3.8c-1.2,1.8-2.8,3.3-4.9,4.3c-4.8,2.3-10,0.1-11.7-4.9c-0.5-1.6-0.8-3.3-0.8-5c0-6.1,1.5-11.8,4.1-17.2
			c0.6-1.3,1.5-2.6,2.3-3.8c1.1-1.4,2.5-2.5,4.2-3.1c3.5-1.2,6.8,0.1,8.5,3.3c0.3,0.6,0.6,1.3,0.8,1.9c0.6,1.8,1,3.7,1.1,5.6
			c0.1,0.9,0.1,1.8,0.2,2.7c0.9,0.1,1.6,0.2,2.4,0.3c0.9-5.3,1.8-10.4,2.8-15.6c-0.3,0-0.6,0-0.8-0.1c-1-0.2-1.7,0.2-2.2,1
			c-0.6,0.8-1.3,1.5-1.9,2.2c-0.1,0-0.2,0-0.2-0.1c0,0-0.1-0.1-0.1-0.2c-2-2.9-4.8-4.1-8.2-4.3c-4-0.2-7.7,0.9-11,3.1
			c-8.9,5.6-12.7,17-10.7,26.1c1,4.7,3.6,8.4,8.1,10.5c2.8,1.3,5.7,1.7,8.8,1.6c3.5-0.2,6.6-1.4,9.2-3.8c2.3-2.1,3.8-4.8,4.9-7.7
			c0.1-0.3,0.1-0.5,0.2-0.8C66.9,218.8,66,218.8,65.1,218.8z"/>
		<path class="st2" d="M82,307.5c-2.1,0-4.1,0-6.3,0c0.1-0.9,0.2-1.7,0.3-2.5c-0.1,0-0.1,0-0.2-0.1c-0.2,0.2-0.4,0.4-0.6,0.6
			c-2.9,2.8-7.3,2.9-10,1.6c-2.1-1-3.2-2.7-3.4-4.9c-0.4-5.3,1-10,4.9-13.7c2.2-2.2,5-3.1,8.1-2.9c1.9,0.1,3.5,0.9,4.7,2.8
			c0.9-4.1,1.7-7.9,2.5-11.8c2.1,0,4.2,0,6.4,0C86.3,287,84.1,297.2,82,307.5z M68.2,299.6c0,0.4,0,0.9,0.1,1.4
			c0.3,2.1,1.8,3.2,3.9,2.8c1.4-0.3,2.6-0.9,3.4-2c2-2.7,3-5.7,2.6-9c-0.3-2.1-2-3.3-4.1-3c-1.8,0.3-3,1.4-4,2.9
			C69,294.8,68.4,297.1,68.2,299.6z"/>
		<path class="st1" d="M121.7,288.1c0.3-0.2,0.6-0.4,0.9-0.6c2.2-1.7,4.7-2.2,7.4-1.7c2.9,0.5,5,2.6,5.4,5.8
			c0.7,5.2-0.6,9.8-4.4,13.6c-2.3,2.3-5.3,3.2-8.5,2.8c-1.8-0.2-3.2-1-4.1-2.6c-0.1-0.1-0.1-0.2-0.2-0.3c0,0-0.1,0-0.1,0
			c-0.3,0.9-0.5,1.7-0.8,2.6c-2,0-4,0-6.2,0c2.2-10.3,4.4-20.5,6.6-30.8c2.1,0,4.2,0,6.4,0c-0.3,1.4-0.6,2.8-0.9,4.1
			c-0.5,2.4-1,4.8-1.5,7.1c0,0.1,0,0.2,0,0.3C121.6,288.2,121.6,288.1,121.7,288.1z M119.1,299.3c0,0.4,0.1,0.9,0.1,1.3
			c0.5,2.7,2.7,3.8,5.2,2.9c1.2-0.5,2.1-1.3,2.7-2.4c1-1.6,1.4-3.4,1.7-5.3c0.2-1.1,0.2-2.2,0-3.4c-0.3-1.4-1.2-2.3-2.5-2.5
			c-1.8-0.3-3.4,0.2-4.6,1.6c-0.5,0.6-1,1.3-1.3,2C119.6,295.3,119.2,297.2,119.1,299.3z"/>
		<path class="st5" d="M154.3,290.3c-1.4,0-2.6,0-4,0c0.3-1.4,0.6-2.8,0.9-4.2c1.4,0,2.7,0,4.1,0c0.3-1.5,0.6-2.8,1-4.3
			c2.2-0.8,4.4-1.5,6.8-2.3c-0.5,2.3-0.9,4.3-1.4,6.6c1.7,0,3.4,0,5.1,0c-0.3,1.5-0.6,2.8-0.9,4.2c-1.7,0-3.4,0-5.1,0
			c-0.3,1.3-0.5,2.5-0.8,3.8c-0.4,2.1-0.9,4.2-1.3,6.3c-0.1,0.5-0.1,1-0.1,1.5c0,0.7,0.3,1.1,1,1.3c0.8,0.1,1.6,0.1,2.4,0.1
			c0.3,0,0.6-0.1,1.1-0.1c-0.3,1.5-0.6,2.8-0.9,4.2c-2.5,0.6-4.9,1-7.4,0.5c-2.3-0.5-3.4-1.9-3.1-4.2c0.3-2.1,0.8-4.1,1.2-6.1
			c0.4-2.1,0.9-4.1,1.3-6.2C154.3,290.9,154.3,290.7,154.3,290.3z"/>
		<path class="st2" d="M143.8,307.5c-2.1,0-4.2,0-6.4,0c1.5-7.2,3-14.4,4.6-21.6c2.1,0,4.2,0,6.4,0
			C146.8,293.2,145.3,300.3,143.8,307.5z"/>
		<path class="st1" d="M143.7,276.6c2.3,0,4.5,0,6.8,0c-0.4,1.9-0.8,3.7-1.1,5.5c-2.3,0-4.5,0-6.8,0
			C143,280.3,143.4,278.5,143.7,276.6z"/>
		<path class="st6" d="M99,282.4c1.6-2,3.1-3.9,4.6-5.8c0.2-0.2,0.5-0.3,0.7-0.3c1.7,0,3.4,0,5.2,0c-0.2,0.3-0.3,0.4-0.5,0.5
			c-2,1.8-4.1,3.6-6.2,5.3c-0.3,0.3-0.7,0.5-1.1,0.4c-0.7,0-1.5,0-2.2,0C99.4,282.5,99.3,282.5,99,282.4z"/>
		<path class="st7" d="M103.4,294.3c-2.7,0-5.2,0-7.7,0c0.2-2.6,2.6-4.9,5.1-4.8c1.6,0.1,2.6,1,2.7,2.5
			C103.5,292.8,103.4,293.5,103.4,294.3z"/>
		<path class="st8" d="M178.8,289.7c2.5,0,3.6,1,3.9,3.1c0.2,1.3-0.1,2.5-0.3,3.8c-0.4,1.8-0.9,3.6-1.9,5.1
			c-1.1,1.7-2.7,2.4-4.7,2.3c-1.8-0.1-2.9-1.1-3.1-3c-0.1-0.8-0.1-1.5,0-2.3c0.2-1.9,0.7-3.7,1.5-5.5c0.5-1.1,1.2-2,2.2-2.7
			C177.2,289.9,178.1,289.7,178.8,289.7z"/>
		<path class="st9" d="M196.6,102.4c-22.4,22-44.8,44-67.2,66c0-0.3-0.1-0.6-0.1-0.8c0-10.7,0-21.3,0-32c0-0.6,0.2-1,0.6-1.4
			c10.2-10.1,20.4-20.1,30.6-30.2c0.6-0.6,1.2-1.1,1.8-1.7c-1.2-1.2-2.3-2.3-3.4-3.4c-5.3-5.2-10.5-10.4-15.8-15.6
			c-4.4-4.4-8.8-8.7-13.2-13.1c-0.4-0.4-0.6-0.9-0.6-1.5c0-10.5,0-21.1,0-31.6c0-0.2,0-0.5,0-1C151.8,58.4,174.2,80.4,196.6,102.4z"
			/>
		<path class="st9" d="M54.2,102.4c22.4-22,44.7-43.9,67.2-66c0,0.4,0.1,0.6,0.1,0.9c0,10.6,0,21.2,0,31.7c0,0.5-0.2,0.9-0.5,1.3
			c-6.8,6.7-13.7,13.5-20.5,20.2c-3.9,3.8-7.7,7.6-11.6,11.5c-0.1,0.1-0.2,0.2-0.3,0.4c0.2,0.2,0.3,0.4,0.5,0.6
			c9.3,9.2,18.7,18.4,28,27.6c1.3,1.2,2.5,2.5,3.8,3.7c0.4,0.4,0.6,0.8,0.6,1.4c0,3.2,0,6.3,0,9.5c0,7.3,0,14.6,0,21.9
			c0,0.4,0,0.7,0,1.4C98.9,146.4,76.6,124.4,54.2,102.4z"/>
		<path class="st10" d="M133.1,210.3c1.5,0.3,3,0.7,4.4,1.4c3,1.5,4.5,4,4.7,7.4c0.2,4.8-2,8.2-6.5,9.9c-2,0.8-4.1,1.1-6.2,1.3
			c-0.7,0-1.4,0.1-2.1,0.1c-12.6,0-25.3,0-37.9,0c-0.3,0-0.6,0-1.1,0c0.2-1,0.5-2,0.7-3c0.5,0,1,0,1.4,0c0.5,0,1.1,0,1.6-0.1
			c1.1-0.2,1.6-0.7,1.6-1.9c0-0.9-0.2-1.9-0.3-2.8c-0.2-1.5-0.5-2.9-0.8-4.4c-3.9,0-7.7,0-11.6,0c-0.9,1.9-2.1,3.7-2.8,5.7
			c-0.1,0.3-0.2,0.7-0.2,1c0,1.1,0.4,1.7,1.5,2c0.6,0.2,1.3,0.2,2,0.3c0.3,0,0.7,0,1.2,0c-0.2,1-0.5,2-0.7,3c-4.6,0-9.1,0-13.7,0
			c0.2-1,0.4-1.9,0.7-2.9c2.3-0.2,3.8-1.6,5-3.3c0.7-0.9,1.3-1.9,1.8-2.9c5.5-10.1,11-20.3,16.5-30.4c0.2-0.3,0.3-0.6,0.5-0.9
			c1,0,1.9,0,2.9,0c0.2,1.3,0.5,2.5,0.7,3.8c1.9,10.1,3.8,20.3,5.7,30.4c0,0.1,0,0.1,0,0.2c0.5,2.2,1.2,2.9,3.4,3c0.9,0,1.8,0,2.7,0
			c1.6-0.1,2.2-0.5,2.7-2.1c0.5-1.8,0.9-3.5,1.4-5.3c1.8-7.3,3.5-14.7,5.3-22c0.2-0.8,0.3-1.5,0.4-2.3c0.1-1.1-0.2-1.6-1.3-1.8
			c-0.8-0.1-1.6-0.2-2.4-0.2c-0.4,0-0.8,0-1.2,0c0.2-1,0.4-1.9,0.7-2.9c0.2,0,0.3-0.1,0.5-0.1c6.1,0,12.3,0,18.4,0
			c1.5,0,3,0.3,4.5,0.6c5.1,1.3,7.1,4.7,6.9,9.5c-0.1,2.8-1.4,4.9-3.6,6.5c-1.8,1.3-3.8,2-5.9,2.4c-0.4,0.1-0.9,0.2-1.4,0.2
			c-0.2,0-0.5,0-0.7,0c0,0.1,0,0.1,0,0.2C132.6,210.2,132.8,210.3,133.1,210.3z M122.8,211.6c-0.1,0.3-0.2,0.6-0.3,0.8
			c-0.6,2.4-1.2,4.9-1.8,7.3c-0.4,1.7-0.8,3.4-1.2,5.1c-0.3,1.5,0.1,2,1.6,2.3c1.7,0.3,3.4,0.3,5.2,0c2.9-0.6,5-2.2,6-5.1
			c0.7-2,0.9-4.1,0.6-6.3c-0.3-1.8-1.3-3-3-3.7c-0.7-0.2-1.4-0.4-2-0.5C126.2,211.6,124.6,211.6,122.8,211.6z M123.5,208.7
			c1.7,0.2,3.2,0.3,4.8,0c2.8-0.4,4.8-1.9,5.9-4.4c0.9-2,1.2-4.2,1-6.4c-0.2-2-1.3-3.3-3.2-3.9c-0.4-0.1-0.9-0.2-1.3-0.3
			c-2.7-0.3-3.6,0.3-4.3,3c-0.6,2.3-1.1,4.7-1.7,7C124.3,205.3,123.9,206.9,123.5,208.7z M91.8,214.8c-0.8-4.3-1.5-8.5-2.3-12.8
			c-0.1,0-0.1,0-0.2,0c-2.2,4.2-4.5,8.5-6.7,12.8C85.8,214.8,88.7,214.8,91.8,214.8z"/>
		<path class="st10" d="M166.1,189.8c1,0,1.9,0,2.9,0c0.3,1.5,0.6,2.9,0.8,4.4c1.6,8.5,3.2,17,4.8,25.5c0.3,1.6,0.6,3.2,0.9,4.8
			c0.4,1.9,1,2.5,3,2.7c1.3,0.1,2.6,0.1,3.9,0c1.2,0,2-0.7,2.3-1.8c0.4-1.6,0.9-3.3,1.3-4.9c1.8-7.3,3.6-14.6,5.3-22
			c0.2-0.9,0.4-1.9,0.5-2.8c0.2-1.3-0.2-1.7-1.5-1.9c-0.8-0.1-1.5-0.1-2.3-0.2c-0.3,0-0.7,0-1.1,0c0.2-1.1,0.5-2,0.7-2.9
			c6.4,0,12.7,0,19.1,0c-0.2,1-0.4,1.9-0.7,2.9c-0.4,0-0.8,0-1.3,0.1c-0.4,0-0.8,0-1.2,0.1c-2,0.2-2.6,0.7-3.1,2.7
			c-1.2,4.9-2.4,9.7-3.6,14.6c-1,4.3-2,8.6-3,13c-0.1,0.4-0.1,0.9-0.1,1.4c0,1.1,0.4,1.6,1.4,1.8c3.4,0.6,6.7,0.3,9.7-1.7
			c2.2-1.5,3.9-3.3,5.3-5.5c0.7-1.1,1.3-2.2,1.9-3.3c0.1-0.2,0.3-0.5,0.4-0.8c0.8,0.2,1.5,0.4,2.3,0.6c-1.1,4.6-2.2,9.2-3.3,13.8
			c-16.6,0-33.2,0-49.9,0c0.2-1,0.4-1.9,0.7-2.9c0.7,0,1.4,0,2,0c0.4,0,0.9,0,1.3-0.1c0.9-0.2,1.3-0.7,1.3-1.7c0-1-0.2-2-0.4-2.9
			c-0.2-1.4-0.5-2.8-0.7-4.2c0-0.1-0.1-0.1-0.1-0.2c-3.8,0-7.6,0-11.5,0c-1,1.8-2.1,3.7-2.8,5.7c-0.1,0.3-0.1,0.7-0.1,1
			c0,1.1,0.4,1.8,1.5,2.1c0.6,0.2,1.2,0.2,1.9,0.3c0.3,0,0.7,0,1.2,0.1c-0.2,1-0.4,1.9-0.7,2.9c-4.6,0-9.1,0-13.7,0
			c0.2-1,0.4-1.9,0.6-2.8c0.2,0,0.5-0.1,0.7-0.2c1.1-0.2,2.1-0.8,2.9-1.6c1.3-1.2,2.3-2.7,3.1-4.3c2.8-5.1,5.5-10.2,8.3-15.2
			c2.8-5.1,5.6-10.3,8.4-15.4C165.8,190.5,165.9,190.2,166.1,189.8z M165.4,214.8c-0.8-4.3-1.5-8.5-2.3-13c-0.2,0.3-0.3,0.5-0.4,0.6
			c-2.1,4.1-4.2,8.1-6.3,12.2c0,0,0,0.1,0,0.1c0,0,0,0.1,0,0.1C159.4,214.8,162.3,214.8,165.4,214.8z"/>
		<path class="st8" d="M65.1,218.8c0.9,0,1.8,0,2.9,0c-0.1,0.3-0.1,0.6-0.2,0.8c-1.1,2.9-2.6,5.6-4.9,7.7c-2.6,2.4-5.7,3.6-9.2,3.8
			c-3,0.2-6-0.3-8.8-1.6c-4.5-2.1-7.1-5.8-8.1-10.5c-2-9.1,1.9-20.5,10.7-26.1c3.4-2.1,7-3.3,11-3.1c3.4,0.1,6.2,1.4,8.2,4.3
			c0,0.1,0.1,0.1,0.1,0.2c0,0,0.1,0,0.2,0.1c0.6-0.7,1.3-1.4,1.9-2.2c0.6-0.8,1.3-1.2,2.2-1c0.2,0,0.5,0,0.8,0.1
			c-0.9,5.2-1.8,10.4-2.8,15.6c-0.8-0.1-1.6-0.2-2.4-0.3c-0.1-0.9-0.1-1.8-0.2-2.7c-0.1-1.9-0.4-3.8-1.1-5.6
			c-0.2-0.7-0.5-1.3-0.8-1.9c-1.8-3.3-5-4.5-8.5-3.3c-1.7,0.6-3.1,1.6-4.2,3.1c-0.9,1.2-1.7,2.4-2.3,3.8c-2.6,5.4-4.1,11.2-4.1,17.2
			c0,1.7,0.2,3.4,0.8,5c1.7,5.1,6.9,7.2,11.7,4.9c2-1,3.6-2.5,4.9-4.3C63.6,221.4,64.3,220.2,65.1,218.8z"/>
		<path class="st11" d="M133.1,210.3c-0.2,0-0.5-0.1-0.7-0.1c0-0.1,0-0.1,0-0.2c0.2,0,0.5,0,0.7,0
			C133.1,210.1,133.1,210.2,133.1,210.3z"/>
		<path class="st12" d="M68.2,299.6c0.1-2.5,0.7-4.8,2-6.9c0.9-1.5,2.1-2.6,4-2.9c2.1-0.3,3.8,0.8,4.1,3c0.4,3.3-0.6,6.3-2.6,9
			c-0.8,1.1-2,1.7-3.4,2c-2.1,0.4-3.6-0.6-3.9-2.8C68.3,300.6,68.3,300.1,68.2,299.6z"/>
		<path class="st12" d="M119.1,299.3c0.1-2.1,0.5-4,1.3-5.7c0.3-0.7,0.8-1.4,1.3-2c1.2-1.4,2.8-1.8,4.6-1.6c1.3,0.2,2.2,1.1,2.5,2.5
			c0.3,1.1,0.2,2.2,0,3.4c-0.3,1.9-0.7,3.7-1.7,5.3c-0.7,1.1-1.5,2-2.7,2.4c-2.6,0.9-4.7-0.2-5.2-2.9
			C119.2,300.2,119.1,299.7,119.1,299.3z"/>
		<path class="st0" d="M121.7,288.1c0,0.1-0.1,0.1-0.1,0.2c0-0.1,0-0.2,0-0.3C121.6,288,121.7,288,121.7,288.1z"/>
		<path class="st2" d="M122.8,211.6c1.7,0,3.4,0,5,0c0.7,0,1.4,0.2,2,0.5c1.7,0.6,2.7,1.9,3,3.7c0.3,2.1,0.1,4.2-0.6,6.3
			c-1,2.8-3,4.5-6,5.1c-1.7,0.3-3.4,0.3-5.2,0c-1.5-0.2-1.9-0.8-1.6-2.3c0.4-1.7,0.8-3.4,1.2-5.1c0.6-2.4,1.2-4.9,1.8-7.3
			C122.6,212.2,122.7,211.9,122.8,211.6z"/>
		<path class="st2" d="M123.5,208.7c0.4-1.7,0.8-3.4,1.2-5c0.6-2.3,1.1-4.7,1.7-7c0.6-2.7,1.6-3.3,4.3-3c0.5,0.1,0.9,0.2,1.3,0.3
			c1.9,0.6,3,1.9,3.2,3.9c0.2,2.2-0.1,4.4-1,6.4c-1.1,2.6-3.1,4-5.9,4.4C126.7,208.9,125.2,208.8,123.5,208.7z"/>
		<path class="st5" d="M91.8,214.8c-3.1,0-6,0-9.2,0c2.3-4.3,4.5-8.6,6.7-12.8c0.1,0,0.1,0,0.2,0C90.3,206.2,91,210.5,91.8,214.8z"
			/>
		<path class="st5" d="M165.4,214.8c-3,0-6,0-9,0c0,0,0,0,0-0.1c0,0,0-0.1,0-0.1c2.1-4.1,4.2-8.1,6.3-12.2c0.1-0.1,0.2-0.3,0.4-0.6
			C163.9,206.2,164.6,210.5,165.4,214.8z"/>
	</g>
</g>
</svg>
