<?xml version="1.0" encoding="utf-8"?>
<!-- Generator: Adobe Illustrator 21.0.0, SVG Export Plug-In . SVG Version: 6.00 Build 0)  -->
<svg version="1.1" id="Camada_1" xmlns="http://www.w3.org/2000/svg" xmlns:xlink="http://www.w3.org/1999/xlink" x="0px" y="0px"
	 viewBox="0 0 250.9 267" style="enable-background:new 0 0 250.9 267;" xml:space="preserve">
<style type="text/css">
	.st0{fill:#EEF1F4;}
	.st1{fill:#012B5C;}
	.st2{fill:#001F53;}
	.st3{fill:#FBFCFC;}
	.st4{fill:#F4F5F7;}
	.st5{fill:#F3F5F7;}
	.st6{fill:#F0F2F5;}
	.st7{fill:#001D52;}
	.st8{fill:#001E53;}
	.st9{fill:#0C3161;}
	.st10{fill:#0A3060;}
	.st11{fill:#103362;}
	.st12{fill:#103363;}
</style>
<g>
	<g>
		<path class="st0" d="M0.9,0.9c83.3,0,166.7,0,250,0c0,88.7,0,177.4,0,266c-83.3,0-166.7,0-250,0C0.9,178.3,0.9,89.6,0.9,0.9z
			 M34.9,261.3c0.9,0.1,1.9,0.2,2.8,0.2c68.2,0,136.4,0.1,204.6,0.1c1,0,2.1-0.3,2.9-0.4c0-85.1,0-169.9,0-254.8
			c-0.9-0.1-1.5-0.1-2.2-0.1c-77.6,0-155.3,0-232.9,0C9,6.4,7.8,7.1,6.6,7.6c-0.1,1.2-0.2,2.5-0.2,3.7c0,81.8,0,163.6,0,245.3
			c0,1.2,0.1,2.5,0.2,3.7c0.3,0.3,0.6,0.6,0.9,1C16.7,261.3,25.8,261.3,34.9,261.3z"/>
		<path class="st1" d="M6.6,260.4c-0.1-1.2-0.2-2.5-0.2-3.7c0-81.8,0-163.6,0-245.3c0-1.2,0.1-2.5,0.2-3.7c77.3,0,154.7,0,232-0.1
			c4.5,0,5.8,1.1,5.8,5.7c-0.1,80.5-0.2,160.9,0,241.4c0,5-1.6,5.9-6.1,5.9c-65.9-0.1-131.7-0.1-197.6-0.1c-1.9,0-3.9,0.6-5.8,0.9
			c-9.1,0-18.2,0-27.3,0C7.2,261,6.9,260.7,6.6,260.4z M122.2,37.6c-1,0.7-2.1,1.3-3,2.1C98.5,60.1,77.7,80.5,57,100.9
			c-0.7,0.7-1.3,1.6-2,2.4c22,21.6,43.7,43,65.5,64.3c0.4,0.4,1,0.7,1.6,1c0.5-0.8,1.5-1.5,1.5-2.3c0.1-9.3,0.1-18.6,0-28
			c0-0.9-0.9-1.7-1.4-2.6c-10.9-11-21.7-21.9-31.6-32c10.6-11.1,21-22.1,31.5-33.1c0.5-1.1,1.6-2.2,1.6-3.4c0.1-8.9,0.1-17.7,0-26.6
			C123.5,39.7,122.7,38.7,122.2,37.6z M129.9,70.7c10.5,11.1,21.1,22.2,31.4,33c-10,10.2-20.8,21.1-31.5,32.1
			c-0.5,0.9-1.4,1.7-1.4,2.6c-0.1,9.3-0.1,18.6,0,27.9c0,0.8,1,1.5,1.5,2.3c0.5-0.3,1.1-0.6,1.6-1c21.8-21.4,43.6-42.9,65.5-64.4
			c-0.7-0.8-1.2-1.6-1.9-2.2c-20.9-20.6-41.8-41.1-62.8-61.6c-0.7-0.7-1.8-1.2-2.7-1.8c-0.4,0.9-1.3,1.8-1.3,2.7
			c-0.1,9.2-0.1,18.3,0,27.5C128.4,68.8,129.4,69.8,129.9,70.7z M135.4,210.5c0,0,0.4-0.2,0.9-0.4c6.7-2.5,9.1-5.7,8.1-11.3
			c-0.8-4.6-4.5-7.2-11.1-7.4c-5.3-0.1-10.7-0.1-16,0c-1.2,0-2.4,0.8-3.6,1.3c0,0.5-0.1,1-0.1,1.5c5.4-0.5,5.3,2.2,4.3,5.8
			c-2.1,8-3.9,16.2-6,24.2c-0.9,3.6-4,5.2-7.1,3.3c-1.4-0.9-2.3-3.2-2.7-5c-2.1-10.6-4.1-21.2-6.3-33.4c-2,2-3.4,2.9-4.2,4.2
			c-4.7,8.4-8.9,16.9-13.8,25.2c-2.2,3.6-5.5,6.5-8.2,9.9c-0.5,0.6-0.5,1.6-0.9,3c5-1.2,10,1.5,14-1.6c-1.7-1.9-4.3-3.7-4-4.7
			c0.6-2.3,2.3-5.3,4.2-5.9c3.1-1,6.7-0.3,9.3-0.3c3.6,5.8,1.2,9.2-3.7,11.7c14.6,0.4,28.4,0.5,42.2,0.3c2.5,0,5.3-1.1,7.5-2.3
			c4.3-2.4,6-8.2,3.4-12.3C140.2,213.9,137.5,212.4,135.4,210.5z M192.6,195.1c-0.2,1.5-0.3,2.9-0.7,4.2c-1.9,7.9-3.9,15.8-5.7,23.8
			c-0.7,3-1.5,5.2-5.4,5.1c-3.8-0.1-4.6-2.3-5.2-5.3c-1.8-9.7-3.6-19.4-5.5-29.1c-0.2-1.1-1.3-2.1-1.9-3.2c-1,0.8-2.3,1.5-2.9,2.5
			c-4.9,8.9-9.5,18-14.6,26.8c-1.8,3.1-4.8,5.5-7.2,8.3c-0.6,0.7-0.7,1.7-1.3,3.2c5.3-1.1,10.2,1.2,14.2-1.5c-1.9-2.2-4.3-4-4-5
			c0.8-2.9,1.3-6.7,6.1-6.1c2.6,0.3,5.3,0.1,7.4,0.1c3.7,5.6,1.2,9-2.9,12.1c16.3,0,32.6,0,49.4,0c1.1-4.6,2.2-9.1,3.2-13.7
			c-0.5-0.2-0.9-0.5-1.4-0.7c-1,1.2-2,2.3-2.9,3.5c-2.9,4.3-6.4,7.7-12,8c-4.4,0.2-5.3-0.8-4.3-5.1c1.8-7.6,3.6-15.3,5.4-22.9
			c0.7-2.9,1-6.1,5.3-5.8c0.5,0,1-1.4,2.1-3c-7.3,0.8-13.9-1.2-20,1.2c0,0.5,0,1,0.1,1.5C189.3,194.3,190.7,194.6,192.6,195.1z
			 M67.5,194.6c-4-4.4-9-4.9-14.5-3.2c-12,3.7-19.5,19.3-14.8,31c2.6,6.5,9.4,10.3,16.8,9.4c6.8-0.8,12-5.7,12.3-12.5
			c-1.6,1.1-2.8,2.5-4,4.1c-2.5,3.3-5.7,6.1-9.9,4.7c-2.6-0.8-5.8-3.4-6.4-5.8c-2.3-9.7,0.1-18.8,6.5-26.4
			c4.1-4.9,10.4-3.2,12.5,2.9c0.7,1.9,0.7,4,1.2,6c0.2,1,0.7,1.9,1.1,2.9c0.5,0,1-0.1,1.5-0.1c0.9-5.2,1.9-10.3,2.8-15.5
			c-0.3-0.2-0.7-0.4-1-0.6C70.2,192.5,68.9,193.5,67.5,194.6z"/>
		<path class="st2" d="M34.9,261.3c1.9-0.3,3.9-0.9,5.8-0.9c65.9,0,131.7-0.1,197.6,0.1c4.6,0,6.2-0.9,6.1-5.9
			c-0.2-80.5-0.2-160.9,0-241.4c0-4.6-1.3-5.7-5.8-5.7C161.3,7.6,84,7.5,6.6,7.6C7.8,7.1,9,6.4,10.1,6.4c77.6-0.1,155.3,0,232.9,0
			c0.6,0,1.2,0.1,2.2,0.1c0,84.8,0,169.6,0,254.8c-0.8,0.1-1.8,0.4-2.9,0.4c-68.2,0-136.4,0-204.6-0.1
			C36.8,261.5,35.8,261.4,34.9,261.3z"/>
		<path class="st2" d="M6.6,260.4c0.3,0.3,0.6,0.6,0.9,1C7.2,261,6.9,260.7,6.6,260.4z"/>
		<path class="st3" d="M129.8,135.9c10.8-10.9,21.5-21.9,31.5-32.1c-10.3-10.8-20.8-21.9-31.4-33c-0.1-11-0.2-22.1-0.3-33.1
			c0.9,0.6,1.9,1.1,2.7,1.8c20.9,20.5,41.9,41.1,62.8,61.6c0.7,0.6,1.2,1.4,1.9,2.2c-21.9,21.5-43.7,43-65.5,64.4
			c-0.4,0.4-1,0.7-1.6,1C129.8,157.7,129.8,146.8,129.8,135.9z"/>
		<path class="st3" d="M121.9,70.7c-10.5,11-20.9,22-31.5,33.1c9.9,10,20.8,21,31.6,32c0,10.9-0.1,21.8-0.1,32.8
			c-0.5-0.3-1.1-0.6-1.6-1c-21.8-21.4-43.5-42.7-65.5-64.3c0.7-0.8,1.3-1.7,2-2.4c20.7-20.4,41.5-40.8,62.3-61.1
			c0.9-0.8,2-1.4,3-2.1C122.1,48.7,122,59.7,121.9,70.7z"/>
		<path class="st4" d="M135.4,210.5c2.1,1.8,4.8,3.4,6.3,5.7c2.6,4.1,0.9,9.9-3.4,12.3c-2.3,1.2-5,2.3-7.5,2.3
			c-13.8,0.2-27.6,0.1-42.2-0.3c5-2.6,7.3-5.9,3.7-11.7c-2.6,0-6.2-0.7-9.3,0.3c-1.9,0.6-3.6,3.6-4.2,5.9c-0.3,1,2.3,2.8,4,4.7
			c-4,3.1-9,0.4-14,1.6c0.4-1.4,0.4-2.4,0.9-3c2.7-3.3,6-6.2,8.2-9.9c4.9-8.2,9.1-16.8,13.8-25.2c0.7-1.3,2.2-2.3,4.2-4.2
			c2.3,12.2,4.2,22.8,6.3,33.4c0.4,1.8,1.3,4.1,2.7,5c3,1.9,6.2,0.3,7.1-3.3c2-8.1,3.9-16.2,6-24.2c0.9-3.6,1.1-6.3-4.3-5.8
			c0-0.5,0.1-1,0.1-1.5c1.2-0.5,2.4-1.3,3.6-1.3c5.3-0.1,10.7-0.1,16,0c6.5,0.2,10.3,2.8,11.1,7.4c0.9,5.6-1.4,8.8-8.1,11.3
			C135.8,210.3,135.4,210.5,135.4,210.5z M125.1,212.3c-0.4,0.6-1.8,1.9-2.5,3.4c-0.8,1.8-1.2,3.9-1.5,5.9c-0.3,1.9-0.2,3.8-0.3,5.8
			c2.4,0.1,5,0.6,7.3,0c4-1,6.2-5.5,5.6-10.2C133,213.3,130.3,212.2,125.1,212.3z M124.2,209.1c6.7,1.9,12.1-1.9,11.4-9.8
			c-0.2-1.7-2.7-3.9-4.6-4.7c-2.6-1.1-3.8,1.1-4.3,3.5C125.8,201.7,125,205.3,124.2,209.1z M90.3,203.7c-0.3,0-0.6-0.1-1-0.1
			c-1.9,3.8-3.8,7.6-6,11.7c3.4,0,6,0,8.9,0C91.6,211.2,91,207.5,90.3,203.7z"/>
		<path class="st5" d="M192.6,195.1c-1.8-0.4-3.3-0.8-4.7-1.1c0-0.5,0-1-0.1-1.5c6.1-2.4,12.7-0.4,20-1.2c-1.1,1.5-1.6,3-2.1,3
			c-4.3-0.2-4.6,2.9-5.3,5.8c-1.8,7.6-3.7,15.2-5.4,22.9c-1,4.3-0.1,5.4,4.3,5.1c5.6-0.3,9.1-3.7,12-8c0.8-1.3,1.9-2.4,2.9-3.5
			c0.5,0.2,0.9,0.5,1.4,0.7c-1.1,4.6-2.2,9.2-3.2,13.7c-16.8,0-33.1,0-49.4,0c4.1-3.1,6.6-6.5,2.9-12.1c-2.2,0-4.8,0.3-7.4-0.1
			c-4.8-0.6-5.3,3.3-6.1,6.1c-0.3,1,2.2,2.8,4,5c-4,2.6-9,0.3-14.2,1.5c0.6-1.5,0.8-2.5,1.3-3.2c2.4-2.8,5.4-5.2,7.2-8.3
			c5.1-8.8,9.7-17.9,14.6-26.8c0.6-1.1,1.9-1.7,2.9-2.5c0.7,1.1,1.7,2,1.9,3.2c1.9,9.7,3.7,19.4,5.5,29.1c0.5,3,1.4,5.2,5.2,5.3
			c3.8,0.1,4.7-2.1,5.4-5.1c1.8-8,3.8-15.9,5.7-23.8C192.2,198,192.3,196.6,192.6,195.1z M163.6,202.3c-2.6,5.1-4.5,8.8-6.6,12.8
			c3.3,0,6,0,8.8,0C165.1,211,164.5,207.4,163.6,202.3z"/>
		<path class="st6" d="M67.5,194.6c1.5-1.1,2.7-2.1,4-3.1c0.3,0.2,0.7,0.4,1,0.6c-0.9,5.2-1.9,10.3-2.8,15.5c-0.5,0-1,0.1-1.5,0.1
			c-0.4-1-0.9-1.9-1.1-2.9c-0.5-2-0.5-4.1-1.2-6c-2.2-6.1-8.5-7.8-12.5-2.9c-6.3,7.6-8.7,16.7-6.5,26.4c0.6,2.4,3.8,5,6.4,5.8
			c4.2,1.4,7.4-1.4,9.9-4.7c1.1-1.5,2.4-2.9,4-4.1c-0.4,6.8-5.5,11.6-12.3,12.5c-7.4,0.9-14.2-2.9-16.8-9.4
			c-4.7-11.7,2.8-27.3,14.8-31C58.5,189.7,63.5,190.2,67.5,194.6z"/>
		<path class="st7" d="M129.6,37.6c0.1,11,0.2,22.1,0.3,33.1c-0.5-1-1.5-1.9-1.6-2.9c-0.1-9.2-0.1-18.3,0-27.5
			C128.4,39.4,129.2,38.5,129.6,37.6z"/>
		<path class="st8" d="M122,168.6c0-10.9,0.1-21.8,0.1-32.8c0.5,0.9,1.4,1.7,1.4,2.6c0.1,9.3,0.1,18.6,0,28
			C123.5,167.1,122.5,167.9,122,168.6z"/>
		<path class="st8" d="M129.8,135.9c0,10.9,0,21.9,0.1,32.8c-0.5-0.8-1.5-1.5-1.5-2.3c-0.1-9.3-0.1-18.6,0-27.9
			C128.4,137.6,129.3,136.7,129.8,135.9z"/>
		<path class="st8" d="M121.9,70.7c0.1-11,0.2-22.1,0.3-33.1c0.5,1.1,1.3,2.1,1.3,3.2c0.1,8.9,0.1,17.7,0,26.6
			C123.5,68.5,122.5,69.6,121.9,70.7z"/>
		<path class="st9" d="M125.1,212.3c5.2-0.1,7.9,1,8.5,5c0.7,4.7-1.5,9.2-5.6,10.2c-2.3,0.6-4.8,0-7.3,0c0.1-1.9,0-3.9,0.3-5.8
			c0.3-2,0.7-4.1,1.5-5.9C123.3,214.1,124.6,212.8,125.1,212.3z"/>
		<path class="st10" d="M124.2,209.1c0.9-3.8,1.7-7.4,2.5-11c0.5-2.3,1.7-4.6,4.3-3.5c1.9,0.8,4.4,3,4.6,4.7
			C136.2,207.2,130.9,210.9,124.2,209.1z"/>
		<path class="st11" d="M90.3,203.7c0.6,3.8,1.3,7.6,2,11.6c-2.9,0-5.5,0-8.9,0c2.1-4.1,4-7.9,6-11.7
			C89.7,203.6,90,203.7,90.3,203.7z"/>
		<path class="st12" d="M163.6,202.3c0.9,5.1,1.5,8.7,2.2,12.8c-2.8,0-5.5,0-8.8,0C159.1,211.1,161,207.3,163.6,202.3z"/>
	</g>
</g>
</svg>
