<?xml version="1.0" encoding="utf-8"?>
<!-- Generator: Adobe Illustrator 21.0.0, SVG Export Plug-In . SVG Version: 6.00 Build 0)  -->
<svg version="1.1" id="Camada_1" xmlns="http://www.w3.org/2000/svg" xmlns:xlink="http://www.w3.org/1999/xlink" x="0px" y="0px"
	 viewBox="0 0 252.8 358.2" style="enable-background:new 0 0 252.8 358.2;" xml:space="preserve">
<style type="text/css">
	.st0{fill:#0297D9;}
	.st1{fill:#F48424;}
	.st2{fill:#F48321;}
	.st3{fill:#F48423;}
	.st4{fill:#0298D9;}
	.st5{fill:#282525;}
	.st6{fill:#272424;}
	.st7{fill:#2A2727;}
	.st8{fill:#F79C53;}
</style>
<path class="st0" d="M169,92.9c-11.2,5-21.9,9.7-33.2,14.7c-8.2-16-18.9-29.5-33.7-38.6C92,62.9,80.8,57.9,69.4,54.9
	C46.7,49,32.3,60.8,29,85.9c-8-11.6-10.6-32.7-5.6-45.4C28.3,27.9,39.9,20,53.8,19.4c26.2-1.2,48.2,9.7,68.7,24.2
	C141,56.7,156.4,72.8,169,92.9z"/>
<path class="st1" d="M32.4,121.7c34.6,0.7,69-1,102.7-10c24.5-6.5,47.7-16.1,69.3-29.2c4.3-2.6,7.4-3.1,11.6,0.5
	c6.6,5.7,13.8,10.7,21.5,16.6c-16.7,10.9-34,18.1-52.1,23.5c-42.4,12.6-85.4,12.1-128.6,6c-8.7-1.2-17.2-3-25.9-4.6
	C31.4,123.5,31.9,122.6,32.4,121.7z"/>
<path class="st2" d="M221.4,263.1c5.9,0,10.7,0,16.7,0c0,8,0,15.8,0,23.6c0,10.4,0,20.8-0.1,31.2c0,11.9-4.7,18.2-14.9,20.2
	c-10.5,2-20.8-3.3-24.3-13.5c-3.9-11.4-6.8-23.1-10.5-34.5c-1.3-4.1-3.6-7.9-5.5-11.9c-1,0.2-2.1,0.5-3.1,0.7c0,19.1,0,38.1,0,57.7
	c-6.5,0-11.5,0-17.3,0c0-20.6-0.3-41,0.2-61.5c0.2-6.8,5.6-10.7,11.8-12.1c8.3-1.8,17.1-2,22.4,5.9c4.3,6.5,7.2,14,9.8,21.4
	c2.8,8,4.3,16.4,6.8,24.5c0.8,2.5,3.2,4.5,4.9,6.7c1-2.5,2.8-5,2.9-7.6C221.5,297.4,221.4,280.7,221.4,263.1z"/>
<path class="st3" d="M14.5,337.3c0-5.4,0-9.8,0-15.3c12.3,0,24.5,0.3,36.7-0.2c2.9-0.1,7.5-2.2,8.3-4.4c2.1-5.7-1.4-8.5-7.3-8.5
	c-12.3,0.1-24.6,0-37.4,0c0-5.6,0-10.6,0-16.5c12.1,0,24.1-0.1,36.1,0c4.8,0,9.2-0.6,9.3-6.5c0-5.9-4.3-6.7-9.1-6.7
	c-12,0.1-24,0-36.2,0c0-5.6,0-10.4,0-15.7c15.2,0,30-0.9,44.6,0.2s22.2,17.2,16.7,32.1c-1.1,2.9-1.1,6.7-0.2,9.6
	c4.8,15-2.2,33.5-22,32C41.1,336.5,28.2,337.3,14.5,337.3z"/>
<path class="st1" d="M158.4,336.4c-17.5,2.1-17.5,2.1-22.4-12.3c-5-14.6-10.1-29.2-17.2-43.9c-1.3,3.4-2.7,6.7-3.9,10.2
	c-4.2,12.1-8.9,24.2-12.2,36.5c-2.3,8.4-6.4,11.9-14.9,10.3c-1.8-0.3-3.7-0.3-6.3-0.5c0.5-2.5,0.8-4.6,1.5-6.5
	c6.1-18.1,12.1-36.3,18.4-54.3c3.3-9.5,8.5-12.9,18.5-12.9c9.7,0,15,3.3,18.1,12.3C144.8,295.4,151.4,315.6,158.4,336.4z"/>
<path class="st4" d="M62.8,134.1c20.9,4.6,43.5,1.1,62.3,15.7c12.2,9.4,27.3,9.4,41.7,7.2c5.5-0.9,10.3-5.8,15-8.6
	c1.1,16.6-13.2,30.6-33.7,30.4c-24.8-0.3-46.7-9.9-66.6-23.9c-7.4-5.2-13.7-11.9-20.6-17.9C61.6,136,62.2,135.1,62.8,134.1z"/>
<path class="st5" d="M133.1,212c0-4.8,0-8.2,0-12.4c11.2,0,22.2-0.3,33.1,0.1c10.7,0.3,16.4,6.7,16.4,17.4
	c0.1,10.7-5.3,16.7-16,17.9c-0.7,0.1-1.4,0.3-2.8,0.7c7.3,6.9,25.4,3.9,18.6,22.1c-11.7-4.4-23.6-9-36.2-13.8c0,4.8,0,8.8,0,13.5
	c-4.4,0-8.4,0-13.1,0c0-7.3-0.7-15.2,0.2-22.9c0.9-7.8,6.5-11.7,14.3-12.1c5.2-0.3,10.5,0.4,15.6-0.4c2.2-0.3,3.9-3.2,5.9-5
	c-2-1.7-4-4.7-6.1-4.8C153.1,211.7,143.3,212,133.1,212z"/>
<path class="st6" d="M188.5,258c0-2.8,0-4.6,0-6.5c0-16.9,0-33.8,0-51.2c11.7,0,23.2-1.1,34.3,0.3c11.4,1.4,18.5,17.3,16.7,33.6
	c-1.6,14.5-9.9,23.6-22.2,23.8C208,258.2,198.8,258,188.5,258z M202.1,245.4c7.3-1.5,15.8,3.5,20.4-5.3c4-7.6,4.4-16,0-23.5
	c-4.8-8.2-13.1-3.7-20.4-4.7C202.1,223.2,202.1,233.7,202.1,245.4z"/>
<path class="st7" d="M67.9,257.5c5.9-17.1,11.5-33.6,17.1-50.1c2.3-6.7,8-8,13.9-8s11.6,1.5,13.8,8.1c5.6,16.5,11.1,33.1,16.7,49.7
	c-13.8,1.9-13.8,1.9-18.1-10.6c-3.9-11.2-7.8-22.4-13.4-33.7c-3.8,11.3-7.7,22.6-11.5,33.9C82.3,258.6,82.3,258.6,67.9,257.5z"/>
<path class="st5" d="M65.1,245.2c0,4.6,0,8.1,0,12.4c-11.3,0-22.6,0-34,0c-0.3,0-0.5-0.2-0.8-0.2c-11.2-3.3-17.7-17-16-33.5
	c1.5-13.9,9.6-23.2,21.2-24.2c2.2-0.2,4.4-0.2,6.6-0.2c7.4,0,14.7,0,22.7,0c0,4.1,0,7.7,0,12.5c-7.4,0-15.3,0.3-23.1-0.1
	c-7.9-0.4-11.8,3.8-12.6,10.9c-0.5,4.8-0.3,9.9,0.8,14.5c1.2,5.2,4.8,8.2,10.7,8C48.5,245,56.4,245.2,65.1,245.2z"/>
<path class="st8" d="M32.4,121.7c-0.5,0.9-1,1.8-1.5,2.7c-3.3-0.5-6.7-1.1-10-1.6c0-0.4,0-0.7,0-1.1
	C24.7,121.7,28.6,121.7,32.4,121.7z"/>
</svg>
