<?xml version="1.0" encoding="utf-8"?>
<!-- Generator: Adobe Illustrator 21.0.0, SVG Export Plug-In . SVG Version: 6.00 Build 0)  -->
<svg version="1.1" id="Camada_1" xmlns="http://www.w3.org/2000/svg" xmlns:xlink="http://www.w3.org/1999/xlink" x="0px" y="0px"
	 viewBox="0 0 250 142.8" style="enable-background:new 0 0 250 142.8;" xml:space="preserve">
<g>
	<path d="M0,6c0.2-0.1,0.5-0.2,0.6-0.4C2.3,3.4,4.6,3,7.2,3c63,0.1,126,0.1,189,0.1c0.6,0,1.2,0,2,0c-0.4,0.5-0.6,0.9-0.9,1.2
		c-2.7,2.9-5.4,5.8-8.2,8.6c-0.3,0.3-0.9,0.5-1.3,0.6c-0.4,0.1-0.8,0-1.1,0c-54.7,0-109.5,0-164.2,0c-0.6,0-1.2,0-1.7,0
		c0,39.6,0,79,0,118.5c61.9,0,123.6,0,185.4,0c0-0.4,0.1-0.8,0.1-1.2c0.2-14.5,0.3-28.9,0.5-43.4c0-0.9,0.3-1.5,0.9-2.1
		c3-2.8,6-5.7,9.2-8.7c0,0.5,0.1,0.8,0.1,1.1c0,20.2,0,40.3,0,60.5c0,0.6-0.4,1.3-0.7,1.7c-0.9,1-1.9,2-2.8,2.9
		c-44.2,0-88.5,0-132.7,0c-0.5,0-1.1-0.1-1.6-0.1c-20.1,0-40.1,0-60.2-0.1c-4.8,0-9.7-0.2-14.5-0.5c-2.6-0.1-3.9-1.8-4-4.4
		c-0.1-3.6-0.1-7.1-0.1-10.7c0-1.9-0.1-3.9-0.2-5.8C0,82.7,0,44.4,0,6z"/>
	<path d="M122.3,100.5c-0.7,0.3-1.4,0.6-2.1,1c-4.8,3.1-9.2,6.8-13.2,10.9c-0.9,1-1.9,2-2.9,2.9c-1.4,1.2-2.4,1.2-3.4,0.3
		c-1.3-1.1-1.7-2.8-0.8-4.1c0.4-0.6,0.8-1.2,1.3-1.7c6.3-7.1,13.7-12.7,22.3-16.7c2.7-1.3,5.2,0.2,5.4,3.3c0.1,1.4,0,2.8,0,4.4
		c1.1-0.5,1.8-0.9,2.6-1.2c1.1-0.4,2.1-0.9,3.2-1.1c3.4-0.8,5.8,0.3,7.5,3.3c0.6,1.1,1.2,1.2,2.3,0.9c3.7-1,7.5-1.8,11.4-1.7
		c0.4,0,1-0.3,1.1-0.6c2-6.3,6.1-11.4,10-16.5c7.8-10.4,15.7-20.8,23.5-31.1c0.8-1.1,1.3-2.2,1-3.5c-0.4-2.3,0.2-4.5,1.6-6.4
		c2.1-2.7,4.2-5.5,6.5-8c7.8-8.2,15.7-16.4,23.6-24.5c1.6-1.6,3.5-2.8,5.3-4.3c-0.8-1-2-1-3-0.6c-1.2,0.4-2.5,1-3.3,1.9
		c-6.1,6.4-12.1,12.8-18.1,19.2c-3.1,3.2-6.2,6.4-9.3,9.6c-1.4,1.4-3.4,0.8-3.7-1c-0.1-0.5,0.2-1.3,0.5-1.7c1.4-1.8,2.7-3.6,4.3-5.2
		c7.1-7.8,14.3-15.5,21.4-23.3c0.8-0.8,1.6-1.6,2.5-2.4c2.8-2.6,6-3,9.5-1.8c1.2,0.4,2.2,1.1,3.4,1.5c1.8,0.6,3.7,1.3,5.6,1.5
		c8.6,0.8,14.2,10.1,10.7,18.3c-0.9,2-2.1,4-3.5,5.7c-8.6,10.6-17.6,20.8-27.3,30.5c-1.7,1.7-3.7,3.3-5.5,4.9
		c-1.1,0.9-2.4,1.5-3.9,1.4c-1.7-0.1-2.9,0.6-4.2,1.8c-6.3,5.9-12.8,11.7-19.3,17.5c-5.5,4.9-11.2,9.7-16.9,14.4
		c-1.7,1.4-3.7,2.6-5.6,3.8c-1.1,0.7-2.2,1.3-2.3,2.9c-0.1,0.6-0.9,1.2-1.5,1.5c-0.8,0.4-1.7,0.5-2.6,0.5c-4.5,0-8.8,1.1-13.2,2.2
		c-0.5,0.1-1,0.3-1.5,0.4c-1.9,0.3-3.2-0.4-3.9-2.2c-0.1-0.2-0.2-0.4-0.2-0.6c-0.9-3-1.5-3.3-4-1.4c-3.1,2.3-6,5-9,7.5
		c-1.1,0.9-2.2,1.8-3.3,2.6c-1,0.8-1.9,0.8-2.9,0c-1.2-1-1.8-2.2-1.3-3.3c0.5-1.2,1-2.3,1.6-3.5c1-2,2.1-3.9,3.1-5.9
		c0.3-0.7,0.5-1.4,0.8-2.1C122.5,100.7,122.4,100.6,122.3,100.5z"/>
	<path d="M64.9,47.5c0,1.8,0,3.5,0,5.3c0,3.7,0.1,7.3,0.1,11c0,0.7,0.3,1,1,1.2c1.6,0.5,3.2,1,4.7,1.6c8.2,2.9,12.5,10.1,11.3,18.7
		c-1.1,8.3-5.7,13.4-13.7,15.5c-1.1,0.3-2.3,0.6-3.4,0.9c-0.1,2.3-0.1,4.5-0.4,6.7c-0.2,1.9-1,2.9-2.2,3c-1.4,0.1-2.6-1-2.9-2.9
		c-0.3-1.6-0.3-3.2-0.3-4.8c-0.1-2.4,0.4-1.9-1.9-2.5c-3.6-0.9-7-2.4-9.7-5.1c-3.5-3.4-5.4-7.5-5.6-12.5c0-1.6,1.7-3.7,3.5-4.3
		c2-0.6,4.1-0.1,5.1,1.6c0.7,1.3,1.3,2.7,1.8,4.1c0.9,2.7,2.2,5.1,4.5,6.8c0.4,0.3,1,0.5,1.5,0.7c0.2-0.5,0.5-1.1,0.6-1.6
		c0.1-1.6,0.2-3.1,0.2-4.7c0-3.8,0-7.6,0-11.4c0-0.9-0.3-1.3-1.1-1.6c-2.2-0.8-4.5-1.6-6.6-2.7c-5-2.9-7.9-7.1-7.9-13
		c-0.1-4.5,0.3-8.7,3.4-12.3c2.5-3,5.7-4.6,9.4-5.4c2.7-0.6,2.7-0.6,2.8-3.4c0.1-1,0.1-2.1,0.4-3c0.3-1.2,1.7-2.1,2.7-2
		c1.2,0.1,2.2,1.1,2.4,2.4c0.2,1.3,0.3,2.5,0.2,3.8c-0.1,1.2,0.4,1.6,1.5,1.9c1.9,0.5,3.8,1.1,5.5,1.9c4.4,2.1,7.2,5.5,8.4,10.3
		c0.2,0.8,0.2,1.7,0.2,2.5c-0.1,2.2-1.6,3.8-3.6,4.2c-2.5,0.4-4-0.4-5.1-2.6c-0.6-1.3-1.1-2.7-1.8-3.9c-1-1.9-2.7-3.2-4.5-4.3
		C65.2,47.5,65.1,47.5,64.9,47.5z M65.2,93.2c5.2-1.6,7.9-4.9,7.8-9c-0.1-4.2-3.4-7.7-8-8.5C64.8,81.5,64.7,87.2,65.2,93.2z
		 M58.9,62.7c0-5.1,0-10.2,0-15.3c-4.4,1.3-6,3.4-6,7.6C52.9,59.1,54.8,61.5,58.9,62.7z"/>
	<path d="M138.1,40.7c10.2,0,20.4,0,30.6,0c1.2,0,2.4,0.1,3.6,0.3c3.2,0.3,5.1,3,4.6,6.2c-0.5,2.5-2.2,4.2-4.7,4.3
		c-9.9,0.3-19.9,0.6-29.8,0.7c-11.5,0-23-0.3-34.6-0.4c-0.9,0-1.9-0.1-2.8-0.2c-2.6-0.3-4.4-2.3-4.5-5c-0.1-2.5,1.8-5.3,4.1-5.6
		c2.6-0.3,5.2-0.4,7.8-0.5c8.6-0.1,17.3,0,25.9,0C138.1,40.5,138.1,40.6,138.1,40.7z"/>
	<path d="M124.3,66.1c6.1,0,12.2,0.2,18.2-0.1c3.3-0.2,6.2,4.1,5.4,6.9c-0.7,2.4-2.3,4.1-4.8,4.2c-3.6,0.2-7.3,0.3-11,0.3
		c-7.9,0-15.8,0-23.7-0.1c-1.1,0-2.1-0.1-3.2-0.2c-2.2-0.2-3.7-1.4-4.5-3.4c-0.8-2.1-0.5-4,1-5.7c1.1-1.3,2.4-2.1,4.4-2
		C112.2,66.2,118.2,66.1,124.3,66.1z"/>
</g>
</svg>
