<?xml version="1.0" encoding="utf-8"?>
<!-- Generator: Adobe Illustrator 21.0.0, SVG Export Plug-In . SVG Version: 6.00 Build 0)  -->
<svg version="1.1" id="Camada_1" xmlns="http://www.w3.org/2000/svg" xmlns:xlink="http://www.w3.org/1999/xlink" x="0px" y="0px"
	 viewBox="0 0 250 68.4" style="enable-background:new 0 0 250 68.4;" xml:space="preserve">
<style type="text/css">
	.st0{fill:#086C2B;}
	.st1{fill:#0D6D30;}
	.st2{fill:#F6FBF8;}
	.st3{fill:#D4ECDC;}
	.st4{fill:#0F6D31;}
	.st5{fill:#010101;}
	.st6{fill:#060606;}
	.st7{fill:#080808;}
	.st8{fill:#242424;}
	.st9{fill:#252525;}
	.st10{fill:#222222;}
	.st11{fill:#212121;}
	.st12{fill:#292929;}
	.st13{fill:#272727;}
	.st14{fill:#0E0E0E;}
	.st15{fill:#8E8E8E;}
	.st16{fill:#595959;}
	.st17{fill:#B5B5B5;}
	.st18{fill:#323232;}
	.st19{fill:#F3F3F3;}
	.st20{fill:#F1F1F1;}
	.st21{fill:#1E1E1E;}
	.st22{fill:#F9F9F9;}
	.st23{fill:#E4E4E4;}
</style>
<g>
	<path class="st0" d="M0,39.2c0-3.3,0-6.7,0-10c0.5,0.1,1,0.2,1.5,0.3c0.4-1.7-0.4-3.4,0.9-4.8c0.2-0.2,0-0.7,0-1c0-0.6,0-1.2,0-1.9
		c1.7-0.1,1.5-1.6,1.9-2.7c2.2,0.4,4.4-1,6.4,0.8c0,0,0.1,0,0.2,0l0,0c0,0.4-0.2,0.9,0.5,0.7l-0.1,0.1l0.1,0
		c0.1,0.8,0.1,1.7,0.2,2.5c0.6,0.1,1,0.2,1.4,0.3c0.4,1.5,1.3,2.2,2.8,2.3l0,0c-0.5,1.6,1.1,2.2,1.3,3c0.9,0.4,1.5,0.6,2,0.9
		c1,0.5,2.7,0.3,2.7-0.4c0.1-1.3,1.1-1.8,1.8-2.6c0.6-0.1,1.5,0.1,1.8-0.2c0.8-1,1.7-0.6,2.6-0.3c0.2-0.4,0.4-0.8,0.5-1.1
		c1.1-0.2,2.3,0.3,3.1-0.8c0.1-0.2,0.8,0.1,1.4,0.2c-0.6,0.8-1,1.3-1.4,1.8c1.5,0.4,2.4-0.2,4.5-2.9c1.4,0,3.1-0.5,4.2,0.1
		c1.3,0.8,2.9,0.2,3.9,1.5c2.3,0,3.6,1.5,5,3c1.8,1.9,2.1,4.6,1.1,7.1c-0.6,1.3-0.9,2.6-1.3,4c-0.4,0.1-0.9,0.2-1.3,0.4
		c0,0.7-0.1,1.3-0.1,1.7c-1,1.1-1.7,2.1-2.6,2.9c-0.7,0.6-0.7,1.2-0.6,2l0,0c-1.6,0-1.7,0.1-1.7,1.7l0,0c-0.5,0.1-1,0.1-1.5,0.2
		c-0.2-0.5-0.4-1-0.6-1.5c-0.1,0-0.3,0.1-0.4,0.1c0,0.5,0,1,0,1.3c-1.4,1.1-1.8,2.7-2.5,4l0,0c-0.9-0.2-1.9-0.5-3-0.7
		c0.2,0.8,0.3,1.6,0.5,2.3c-0.6,0.2-1.1,0.3-1.7,0.5c-1.3,0.4-2.4,1.8-4.1,0.9c0-0.9,0-1.8,0-2.9c0.5-0.2,1.1-0.4,1.6-0.6
		c0.1,0.7-0.2,1.1-0.7,1.6c-0.4,0.3-0.6,1,0.2,1.3c1-0.7,2-1.4,3.1-2.2c-1-0.3-1.8-0.5-2.6-0.7c-0.3-1.2-1.6-2.4-0.6-3.6
		c0.9-1.1,0.1-2.8,1.6-3.6c-1.2-1.6-2.3-3.1-3.6-4.7c0.1-0.2,0.2-0.7,0.3-1.1c0.1-0.4,0.3-0.8,0.6-1.7c-1,0.4-1.7,0.6-2.3,0.8
		c-1.6-2-3.2-4.2-5-6.4c-0.6-0.1-1,0.3-1.1,1.2c0,0.6,0,1.2,0,1.9c0.1,0.1,0.1,0.2,0,0.3c-0.3,0.2-0.8,0.4-0.8,0.7
		c-0.1,0.9,0,1.8,0,2.7l0,0c-0.3,0.1-0.8,0.3-0.8,0.4c0.3,1.6-1.4,2.8-0.9,4.5c-1,1.1-0.8,2.6-0.8,3.9c0,0.2-0.2,0.5-0.3,0.7
		c-0.2,0.5-0.4,1-0.5,1.4c-0.1,0.5,0,1.2-0.3,1.3c-0.7,0.5-0.5,1.2-0.6,1.9c0,0.7,0,1.5,0,2.2c-0.5,0.2-0.8,0.4-1.3,0.6
		c1.1,2,0.1,3.7-0.7,5.5c-1.3-1-2.6-2-3.9-3c-0.3-0.2-0.7-0.6-0.7-0.9c0-1-0.8-1.4-1.3-1.9C6.6,53,5.7,51.6,5,50
		c0.2-0.2,0.5-0.3,0.7-0.5c-0.1-0.1-0.2-0.2-0.3-0.3C5.3,49.5,5.2,49.8,5,50c-0.2-0.1-0.6-0.1-0.7-0.3c-0.3-0.5-0.6-1-0.7-1.6
		c-0.2-1.2-1.5-2.2-1-3.6c1.5,0.3,2.1-1.2,3.3-1.5c0-0.5-0.1-0.9-0.1-1.4c-0.8,0.3-1.5,0.6-2.1,0.8c-0.2-0.7-0.4-1.4-0.5-2
		c-0.2,0-0.4,0-0.5,0.1c0,1.2,0,2.4,0,3.6c-1.2,0-0.8-0.9-0.8-1.5c0-0.7-0.2-1.1-0.9-0.9l0,0c-0.1-0.6,0.5-1.3-0.5-1.7l0,0.1
		C0.2,39.8,0.1,39.5,0,39.2z M46.7,27.7c-0.8-0.5-1.3-1-1.6-0.9c-0.6,0.3-1,0.8-1.3,1.3c-0.1,0.1,0.8,1.1,0.9,1
		C45.3,28.8,45.8,28.3,46.7,27.7z M48.9,31.6c0.6-1.4-0.5-1.8-1.2-2.5C47.4,31.2,47.4,31.2,48.9,31.6z M12.6,57.4
		c0.9-0.6,1.4-1.3,0.9-2.2c-0.1-0.2-0.6-0.1-0.9-0.1C12.6,55.9,12.6,56.7,12.6,57.4z M24.1,29.1c0.3,1.8,0.3,1.8,1.8,1.3
		C25.2,29.9,24.7,29.5,24.1,29.1z M10.1,53.4c0.5-0.4,1.1-0.8,0.4-1.4c-0.2-0.2-0.8-0.1-1,0.1C8.9,52.7,9.4,53,10.1,53.4z M5,27.6
		c-0.7,0.4-1.2,0.6-1.2,0.8c-0.1,0.6,0.2,1,1,1.1C4.9,29.1,4.9,28.6,5,27.6z M5.2,24.9c0.2,0,0.4,0,0.6,0c0-0.5-0.1-1-0.1-1.4
		c-0.2,0-0.3,0-0.5,0C5.2,23.9,5.2,24.4,5.2,24.9z M15.7,29.8c0-0.2,0-0.4,0-0.6c-0.5,0-1,0.1-1.4,0.1c0,0.2,0,0.3,0,0.5
		C14.8,29.8,15.2,29.8,15.7,29.8z M28.9,26.7c0,0.2,0,0.4,0,0.6c0.5,0,1,0,1.4,0c0-0.2,0-0.3,0-0.5C29.8,26.8,29.3,26.8,28.9,26.7z
		 M40.4,42.9c-0.2,0.6-0.3,0.8-0.4,0.9c0.2,0.1,0.3,0.1,0.5,0.1c0,0,0.2-0.2,0.2-0.3C40.7,43.5,40.6,43.4,40.4,42.9z"/>
	<path class="st1" d="M10.9,19.9c-0.1,0-0.2,0.1-0.2,0c-1.9-1.7-4.2-0.4-6.4-0.8c-0.4,1.1-0.1,2.6-1.9,2.7c0,0.7,0,1.3,0,1.9
		c0,0.3,0.1,0.8,0,1c-1.3,1.4-0.6,3.1-0.9,4.8C1,29.4,0.5,29.3,0,29.2c0-0.6,0-1.1,0-1.7c0.3-1,0.6-2.1,1-3c1-2.6,2.1-5.1,3.2-7.7
		c2.1-2.5,4-5,6.2-7.3c1.2-1.3,2.8-2.4,4.2-3.5l0,0c1-0.6,1.9-1.1,2.9-1.7l0,0c1.2-0.5,2.4-1,3.6-1.4c4.9-1.8,9.9-2.8,15.2-2
		c2,0.3,4.1,0.6,6.1,0.9c0,0,0,0,0,0c1.4,0.5,2.8,1.1,4.2,1.6c0,0,0,0,0,0c0.7,0.3,1.3,0.6,2,0.9l0,0c0.6,0.4,1.2,0.8,1.8,1.3
		c1.3,0.9,2.5,1.8,3.7,2.8c-0.2,0.3-0.3,0.6-0.5,0.9c-0.3,0-0.5,0-0.8,0l0,0c-1.6-1.4-3.7-1.4-5.6-1.5c-5-0.3-10.1-0.5-15,0.6
		c-1.2,0.3-2.3,0.6-3.5,0.9l0,0c-1.2-0.1-2.3,0-3.3,0.8c-1.9,0.6-3.9,1-5.7,1.8c-3,1.2-5.9,2.7-8.9,4.1l0,0
		c-0.7,0.4-1.4,0.7-2.3,1.2c0.6,0.5,0.9,0.8,1.3,1.1c0,0,0.2-0.1,0.2-0.1s-0.2,0.1-0.2,0.1c0.3,0.4,0.6,0.8,0.9,1.1c0,0,0,0,0,0
		C10.8,19.4,10.9,19.7,10.9,19.9z"/>
	<path class="st2" d="M3.1,49c-0.6-0.4-1.2-0.8-1.7-1.1c0.1-1.8,0-1.9-1.4-2.5c0-1,0-1.9,0-2.9c0.2,0.1,0.5,0.3,0.7,0.4
		C1.5,44.9,2.3,47,3.1,49z"/>
	<path class="st3" d="M0.7,42.9c-0.2-0.1-0.5-0.3-0.7-0.4c0-0.8,0-1.7,0-2.5l0.1,0.1l0.2,0c0,0,0-0.1,0-0.1c0.2,0.6,0.3,1.1,0.5,1.7
		c0,0,0,0,0,0C0.7,42.1,0.7,42.5,0.7,42.9z"/>
	<path class="st4" d="M0.3,40.1l-0.2,0L0,40c0-0.3,0-0.6,0-0.8C0.1,39.5,0.2,39.8,0.3,40.1z"/>
	<path class="st5" d="M104.1,44.6c0.6-1,1.1-2,1.7-3c0.2-0.5,0.3-1,0.5-1.5c0,0-0.1,0-0.1,0l0,0c1,0.2,1-0.6,1.2-1.2l0,0
		c0.3-0.4,0.6-0.8,0.8-1.3l0,0c0.1-0.4,0.3-0.8,0.4-1.2l0-0.1c0.6,0,0.9-0.3,0.8-0.8c0-0.1,0-0.3,0-0.4c0.2-0.2,0.3-0.3,0.5-0.5
		c0.1-0.3,0.2-0.7,0.3-1c0.3-0.3,0.6-0.7,0.9-1c0.3-0.6,0.6-1.1,0.8-1.7c0.7-1,1.3-2,2-3c1.1,0,0.8-0.7,0.8-1.4
		c0.6-0.9,1.1-1.9,1.7-2.8c1.1,0,0.8-0.7,0.8-1.3c1.4-2.3,2.8-4.7,4.2-7c1.1,0.1,1-1.2,1.8-1.7c2.9,0,6,0,9.1,0
		c0.6,4.1,1.2,8.2,1.7,12.3c0.3,2.1,0.5,4.2,0.8,6.4c0,0.5,0.1,1.1,0.1,1.9c1.2-1.6,1.2-2.6,0.4-3.6c0.9-6.6,3.9-12,9.7-15.4
		c2.3-1.4,4.8-2.4,7.6-2.4c0.1,0.1,0.3,0.2,0.4,0.4c0.1-0.2,0.3-0.4,0.4-0.6c1.5,0,3,0,4.6,0c0.1,0.7,0.4,0.9,0.8,0.2
		c1.5,0.3,3.1,0.6,4.6,0.9c0.1,0.6,0.2,1.1,0.8,0.4c0.9,0.1,1.7,0.4,2.4,1.5c-0.5,2.3-1.1,4.7-1.8,7.5c-0.6-0.3-1.2-0.4-1.5-0.7
		c-1.6-1.7-3.6-2.8-5.7-3.6c-0.3-0.9-0.7-0.8-1.3-0.2c-0.8,0-1.7,0-2.5,0c-0.5-0.6-0.9-0.7-1.3,0.2c-1,0.4-2,0.8-3,1.2
		c-1.1-0.3-1.6,0.1-1.5,1.3c-0.1,0.1-0.2,0.2-0.3,0.3c-0.8-0.1-1,0.3-0.9,1c-2.1,3.2-3.1,6.7-3,10.5c0.2,4.4,2.5,6.7,7,6.6
		c2.9,0,5.5-1.1,8-2.5c0.2-0.1,0.5-0.2,0.7-0.4c0.7,0,1.4,0,2.2,0c-0.1,0.6-0.2,1.1-0.2,1.7c-0.2,0.6-0.3,1.1-0.5,1.7
		c0,0.3-0.1,0.6-0.1,0.9c-0.1,0.2-0.2,0.4-0.2,0.6c0.1,0,0.3,0.1,0.3,0.1c0.1-0.2,0.3-0.5,0.4-0.8c0.1-0.2,0.1-0.4,0.2-0.7
		c0.3-0.5,0.6-1,0.9-1.6c0.8-1.2,1.5-2.4,2.3-3.6c0.8,0,0.9-0.5,0.7-1.1c1.7-2.9,3.3-5.8,5.1-8.7c2.4-4,4.8-7.9,7.2-11.8
		c3.1,0,6.2,0,9.1,0c0.3,0.5,0.6,0.9,0.8,1.3c0.1,0.6,0.2,1.1,0.3,1.7c-0.6,0.4-0.4,0.6,0.1,0.8c0.2,1.9,0.5,3.9,0.7,5.8
		c-0.6,0.3-0.5,0.6,0.1,0.8c0.4,2.6,0.8,5.3,1.2,7.9c-0.6,0.3-0.5,0.6,0.1,0.8c0.3,1.6,0.5,3.2,0.8,4.8c0.1,0.8,0.2,1.6,0.4,2.4
		c0.1,0.4,0.2,0.7,0.4,1.1c0.2-0.1,0.3-0.1,0.5-0.2c-0.1-0.4-0.2-0.7-0.3-1.1c0.2-0.8,0.4-1.7,0.5-2.5c0.6-0.1,0.9-0.3,0.3-0.8
		c-0.1-0.6,0.2-1,0.8-0.8c0.4,0.1,0.8,0.5,1.2,0.8c4,3,8.6,3.9,13.5,3.3c1.2-0.2,2.4-0.5,3.3-1.5c1.1-1.1,1.2-3.6-0.7-4.3
		c-1.6-0.6-3.2-1.2-4.8-1.9c-0.2-0.6-0.4-0.8-0.8-0.2c-2.5-0.6-5-1.2-7.1-3c0.1-0.9-0.4-1.2-1.2-1.1c-2.7-2.9-1.9-7-0.4-9.3
		c1.4-2.1,3.2-3.7,5.7-4.4c0.7,0.8,0.7,0.2,0.8-0.4c0.7-0.2,1.4-0.3,2.1-0.5c0.5,0.8,0.7,0.4,0.8-0.2c0.7-0.1,1.4-0.1,2.1-0.2
		c0.6,0.7,1,0.6,1.3-0.2c1.4,0,2.8,0,4.2,0c0.3,0.9,0.7,0.9,1.3,0.2c0.8,0.1,1.7,0.1,2.5,0.2c0.1,0.2,0.3,0.4,0.4,0.6
		c0.1-0.1,0.3-0.2,0.4-0.4c0.4,0.1,0.8,0.1,1.2,0.2c0.1,0.6,0.3,0.9,0.8,0.2c1,0.3,2,0.6,3.2,0.9c-0.3,1-0.5,1.7-0.6,2.4
		c-0.6,0.2-0.7,0.5-0.1,0.8c-0.3,1.4-0.5,2.8-0.8,4.6c-1.4-0.8-2.5-1.5-3.6-2.1c-1.1-0.6-2.3-1-3.4-1.5c-0.3-0.9-0.7-0.8-1.2-0.2
		c-0.6-0.1-1.1-0.1-1.7-0.2c-0.9-0.8-1.5-0.8-2.5,0c-0.7,0.1-1.4,0.2-2.1,0.3c-0.5-0.6-0.7-0.4-0.8,0.2c-0.6,0.4-1.3,0.7-1.9,1.1
		c-1.2-0.1-0.9,0.7-0.9,1.4c-0.1,1.8,0.9,2.8,2.5,3.4c2.2,0.7,4.5,1.4,6.7,2.1c1,0.3,2.1,0.8,3.1,1.2c3.4,1.4,5.5,4,4.9,8.4
		c-0.1,0.1-0.2,0.3-0.3,0.4c-0.1,0.2-0.2,0.4-0.3,0.6c-0.4,1.1-0.8,2.1-1.2,3.2c-0.1,0.3-0.3,0.6-0.4,0.9l0,0
		c-0.1,0.1-0.3,0.3-0.4,0.4c0,0,0,0,0,0c-0.3,0.2-0.6,0.4-0.9,0.6c-2.6,1.9-5.7,2.9-8.9,3.2c-5.1,0.5-10.2,0.3-15.2-1.5
		c-0.2-0.1-0.4-0.1-0.6-0.1c-0.1,0-0.3,0-0.4,0.1c-0.1,0.2-0.1,0.5-0.2,0.7c-0.1,0.1-0.3,0.2-0.4,0.4c-2.5,0-4.9,0-7.7,0
		c-0.2-2.1-0.4-4.1-0.6-6.2c0-0.6-0.3-0.8-0.9-0.8c-3.5,0-6.9,0-10.4,0c-0.3,0-0.5,0.4-0.8,0.7c-1.2,2.1-2.4,4.2-3.6,6.3
		c-2.7,0-5.4,0-8,0c-0.1-0.1-0.2-0.2-0.3-0.3c0-0.3,0-0.5,0-0.9c-2,0.6-3.8,1.2-5.6,1.6c-3.6,0.8-7.1,0.6-10.6-0.5
		c-2.5-0.8-4.4-2.3-5.9-4.4c-0.2-0.4-0.4-0.9-0.6-1.3c-0.1,0-0.2,0.1-0.3,0.1c0,0.4,0.1,0.8,0.1,1.3c0.1,1.4,0.3,2.8,0.4,4.1
		c-0.2,0.1-0.3,0.2-0.5,0.4c-2.4,0-4.7,0-7.1,0c-0.2-0.1-0.3-0.2-0.5-0.4c-0.3-1.9-0.5-3.9-0.8-5.8c0-0.6-0.3-0.8-0.9-0.8
		c-3.5,0-6.9,0-10.4,0c-0.3,0-0.6,0.4-0.9,0.6c-1.2,2.1-2.3,4.2-3.6,6.4c-2.6,0-5.1,0-7.7,0C104.4,45.1,104.3,44.8,104.1,44.6z
		 M135.8,38.3c0.1,0.3,0.1,0.5,0.2,0.8c0.1,0,0.1,0,0.2,0c0-0.3,0-0.5,0-0.8C136.1,38.3,135.9,38.3,135.8,38.3z M174.9,33
		c2.5,0,4.9,0,7.7,0c-0.4-3.8-0.9-7.3-1.3-10.9c-0.7,0.6-1.1,1.2-1.5,1.9c-1.7,2.8-3.3,5.7-5,8.5c-0.2,0.2-0.4,0.4-0.6,0.5
		C174.4,33,174.7,33,174.9,33z M125.7,21.7c-2.3,3.9-4.3,7.5-6.4,11.2c2.8,0,5.2,0,7.8,0c-0.4-3.5-0.7-6.7-1.1-10
		C126,22.6,125.9,22.4,125.7,21.7z"/>
	<path class="st4" d="M0.7,42.9c0-0.4,0-0.8,0-1.2c0.8-0.2,0.9,0.3,0.9,0.9c0,0.6-0.3,1.5,0.8,1.5c0,0.1,0,0.3,0,0.4
		c-0.4,1.4,0.8,2.3,1,3.6c0.1,0.6,0.4,1.1,0.7,1.6C4.4,49.9,4.8,49.9,5,50c0,0,0,0,0,0c0.7,1.6,1.6,3,2.9,4.2c0.6,0.5,1.3,1,1.3,1.9
		c0,0.3,0.4,0.7,0.7,0.9c1.3,1,2.6,2,3.9,3c0.8-1.8,1.8-3.5,0.7-5.5c0.4-0.2,0.8-0.4,1.3-0.6c0-0.7,0-1.4,0-2.2
		c0-0.7-0.2-1.3,0.6-1.9c0.3-0.2,0.1-0.9,0.3-1.3c0.1-0.5,0.3-1,0.5-1.4c0.1-0.2,0.3-0.5,0.3-0.7c0.1-1.4-0.2-2.8,0.8-3.9
		c-0.4-1.6,1.2-2.8,0.9-4.5c0-0.1,0.5-0.3,0.8-0.4c0,0.5,0,1.1-0.1,1.6c-1,4.4-2,8.9-3,13.3c-0.4,1.8-0.7,3.6-1.1,5.5
		c-0.3,1.1-0.7,2.3-1,3.6c2.4,0.1,4.5,0.1,6.4-0.7c0.4,0,0.8-0.1,1.2-0.1c0.7-0.2,1.4-0.4,2.2-0.7c0.4-0.1,0.8-0.2,1.3-0.3
		c0.4-0.2,0.9-0.3,1.3-0.5c0.4-0.1,0.8-0.2,1.1-0.4c0.4-0.2,0.8-0.3,1.3-0.5c0.1,0,0.2,0,0.3-0.1c0.5-0.2,1-0.4,1.5-0.7
		c0.2-0.1,0.4-0.1,0.6-0.2c0.2-0.1,0.3-0.2,0.5-0.3c0,0,0,0,0,0c0.3-0.1,0.6-0.3,0.9-0.4c0.1,0,0.2,0,0.3-0.1
		c0.2-0.1,0.3-0.2,0.5-0.3l0,0c0.4-0.2,0.8-0.4,1.1-0.5c0,0,0,0,0,0c0.2-0.1,0.3-0.2,0.5-0.3c0.2-0.1,0.4-0.2,0.6-0.4
		c0.2-0.1,0.4-0.1,0.6-0.2c0.3-0.2,0.7-0.4,1-0.6c0.1,0,0.2,0,0.2-0.1c0.4-0.3,0.8-0.5,1.3-0.8l0,0c0.2-0.1,0.3-0.2,0.5-0.3L40,52.9
		l0.1,0.1c0.7-0.4,1.4-0.9,2.1-1.3c0.1,0,0.3-0.1,0.3-0.2c0.3-0.2,0.6-0.4,0.9-0.7l0,0c1.4-1.1,2.8-2.2,4.2-3.3l0,0
		c0.3-0.3,0.6-0.5,0.9-0.8l0,0c2.5-2.4,5.1-4.7,7.4-7.2c1.5-1.6,2.6-3.5,3.9-5.3l0,0c0.1-0.2,0.2-0.3,0.3-0.5l0,0
		c0.7-1.2,1.4-2.5,2.1-3.7c0.1-0.4,0.3-0.8,0.4-1.2l0,0c0.8-0.5,0.8-1.3,0.7-2.1c0-0.1,0-0.3,0-0.4c0,0,0.1,0,0.1,0
		c0.2-0.7,0.5-1.4,0.7-2c0.1-0.3,0.3-0.6,0.5-1l0,0c0.1,0.2,0.1,0.3,0.2,0.5c0.3,1,0.6,1.9,1,2.9c-0.1,0.1-0.1,0.3,0,0.4
		c0,0.5,0,1.1,0.1,1.6c0.8,4.7,0.6,9.4-0.8,13.9c-0.8,2.5-1.8,4.9-2.7,7.3l-0.1,0.2c-1.5,2.1-3.1,4.2-4.6,6.4l0,0
		c-2.3,2-4.7,3.9-7,5.9c0,0,0,0,0,0c-0.3,0.1-0.5,0.2-0.8,0.3c-3.8,2.1-7.7,3.7-12,4.2c-1.6,0.2-3.1,0.4-4.7,0.6c-0.4,0-0.8,0-1.2,0
		c-2.2-0.3-4.4-0.6-6.6-0.8c0,0,0,0,0,0c-2.9-1.1-5.8-2.2-8.8-3.4l0,0c-0.7-0.5-1.4-0.9-2.2-1.4c-0.1-0.1-0.2-0.2-0.3-0.3
		c-1.1-0.9-2.2-1.7-3.3-2.6l0,0c-2.9-2.9-5.4-6-7.6-9.5c0,0,0,0,0,0c-0.1-0.2-0.2-0.4-0.3-0.5c0,0,0-0.1,0-0.1
		C2.3,47,1.5,44.9,0.7,42.9z"/>
	<path class="st6" d="M109.5,35c0,0.1,0,0.3,0,0.4c-0.3,0.3-0.6,0.6-0.8,0.8l0,0.1c-0.1,0.4-0.3,0.8-0.4,1.2l0,0
		c-0.9,0-1,0.5-0.8,1.3l0,0c-0.9-0.1-1.3,0.4-1.2,1.2l0,0c-0.2,0-0.3,0.1-0.5,0.1c-3.8,3.6-8.4,5.1-13.4,5.3
		c-4.8,0.1-9.6,0.1-14.4,0.1c-0.2,0-0.4-0.1-0.8-0.2c2.5-10.6,4.9-21.3,7.4-32c0.3-0.1,0.7-0.2,1-0.2c4.5,0.1,9,0,13.5,0.2
		c3.3,0.1,6.4,1,9,3.2c3,2.6,3.9,6,3.8,9.7c0,1.5-0.4,3-0.6,4.5c-0.2,0.5-0.4,1.1-0.6,1.6c-0.1,0.3-0.2,0.7-0.3,1
		c-0.1,0.3-0.2,0.7-0.3,1C109.9,34.7,109.7,34.9,109.5,35z M86.8,39.5c2,0,3.7,0.2,5.3,0c1.5-0.2,3-0.5,4.4-1.1
		c5.2-2.3,7.1-8.4,6.7-12.8c-0.4-3.6-2.2-5.5-5.7-6.1c-1.9-0.3-3.8-0.3-5.8-0.4C90,25.9,88.5,32.6,86.8,39.5z"/>
	<path class="st7" d="M219.1,40.7c0.4-1.1,0.8-2.1,1.2-3.2c0.1,0,0.2,0,0.2,0.1c0.6,0.4,0.7,0.3,1.1-0.9c4.7-7.8,9.4-15.6,14.2-23.5
		c3.2,0,6.4,0,9.7,0c1.5,10.7,3,21.3,4.4,32.1c-2.8,0-5.4,0-8.3,0c-0.3-2-0.6-4.1-0.9-6.3c-3.9,0-7.8,0-11.9,0
		c-1.2,2-2.4,4.2-3.7,6.4c-2.8,0-5.6,0-8.5,0c0.3-0.6,0.5-1.1,0.8-1.6c0.3-0.6,0.5-1.1,0.8-1.7c0,0,0,0,0,0c0.1-0.1,0.3-0.3,0.4-0.4
		l0,0C218.8,41.4,219,41,219.1,40.7z M239.1,22.9c0-0.3,0-0.7-0.1-1.5c-0.4,0.8-0.6,1.2-0.7,1.5c-1.9,3.3-3.8,6.5-5.8,10
		c2.9,0,5.3,0,7.9,0c-0.2-1.8-0.4-3.4-0.6-5C239.4,26.2,239.3,24.6,239.1,22.9z"/>
	<path class="st1" d="M44.3,45.9c-0.2-0.8-0.2-1.4,0.6-2c0.9-0.8,1.7-1.8,2.6-2.9c0-0.4,0-1,0.1-1.7c0.5-0.1,0.9-0.2,1.3-0.4
		c0.4-1.3,0.8-2.7,1.3-4c1.1-2.4,0.7-5.2-1.1-7.1c-1.4-1.5-2.8-3-5-3c-1-1.3-2.6-0.7-3.9-1.5c-1.1-0.6-2.8-0.1-4.2-0.1
		c-2.1,2.7-2.9,3.3-4.5,2.9c0.4-0.6,0.9-1.1,1.4-1.8c-0.6-0.1-1.3-0.3-1.4-0.2c-0.8,1.1-2,0.6-3.1,0.8c-0.2,0.3-0.3,0.7-0.5,1.1
		c-0.9-0.3-1.7-0.7-2.6,0.3c-0.3,0.3-1.2,0.2-1.8,0.2C23,27.5,22,28,21.9,29.3c0,0.8-1.7,1-2.7,0.4c-0.6-0.3-1.2-0.5-2-0.9
		c-0.2-0.8-1.8-1.4-1.3-3c0.3,0.1,0.5,0.3,0.8,0.4l0,0c0.1,0.1,0.2,0.3,0.4,0.4c0,0,0,0,0,0c0.4,0.6,0.9,1.2,1.4,1.8
		c1.7-0.8,3.2-1.6,4.8-2.2c3-1.1,6-2,9-2.9c0.4,0,0.8-0.1,1.1-0.1c1.8-0.1,3.7-0.3,5.5-0.3c4.8-0.1,8.9,1.2,11.9,5.2l0,0.2
		c0.3,1,0.6,2,0.9,3l0,0c0.1,3.7-1.2,7-3.3,10c-0.5,0.7-0.9,1.4-1.3,2.1l0,0c-0.1,0.2-0.3,0.3-0.4,0.5l0,0c-0.4,0.4-0.8,0.9-1.2,1.3
		l0,0c-0.1,0.1-0.3,0.3-0.4,0.4c0,0,0,0.1,0,0.1C44.8,45.6,44.5,45.8,44.3,45.9z"/>
	<path class="st8" d="M115,57.4c0.4-1.5,0.7-3,1.1-4.6c0.1-0.6,0.2-1.2,0.5-1.8c0.1-0.2,0.6-0.3,1.4-0.6c-0.8,3.5-1.5,6.5-2.2,9.6
		c-0.6,0-1,0-1.6,0.1c-0.8-2.5-1.6-4.9-2.3-7.3c-0.1,0-0.3,0-0.4-0.1c-0.4,1.6-0.8,3.1-1.2,4.7c-0.2,0.7-0.3,1.5-0.6,2.2
		c-0.1,0.3-0.7,0.3-1.4,0.7c0.8-3.5,1.5-6.5,2.2-9.6c0.7,0,1.3-0.1,2-0.1c0.7,2.3,1.5,4.5,2.2,6.8C114.8,57.4,114.9,57.4,115,57.4z"
		/>
	<path class="st9" d="M154.6,56.7c0.4-1.7,0.8-3.5,1.2-5.2c0.2-0.7,0.5-0.9,1.4-0.6c-0.7,3-1.4,6.1-2.1,9.2c-0.6,0-1,0-1.6,0.1
		c-0.7-2.3-1.5-4.6-2.2-6.9c-0.1-0.3-0.2-0.7-0.3-1c-0.1,0-0.1,0-0.2,0c0,0.4-0.1,0.7-0.1,1.1c-0.5,1.9-1,3.9-1.5,5.8
		c-0.2,0.6-0.2,1.3-1.4,0.9c0.5-3,1.3-6.1,2.1-9.2c0.6,0,1.2-0.1,2-0.1c0.6,2,1.2,4,1.8,6c0.2,0.3,0.3,0.6,0.5,0.9
		C154.4,57.3,154.5,57,154.6,56.7z"/>
	<path class="st9" d="M195.7,51.6c-1.6,0-3.2,0-4.9,0c-0.3,0.9-0.5,1.6-0.8,2.6c1.7,0,3.3,0,4.9,0c-0.2,1.8-1.4,1.3-2.2,1.4
		c-0.9,0.1-1.8,0-2.9,0c-0.2,1.1-0.5,2-0.8,3.3c1.7,0.1,3.2,0.2,4.7,0.3c-0.4,1.2-1.9,1.4-6.4,0.9c0.7-3,1.3-6,2-9
		c1.9-0.5,5.2-0.5,6.4,0.1C195.8,51.3,195.8,51.4,195.7,51.6z"/>
	<path class="st10" d="M223.9,50.7c1.3,0,2.5-0.1,3.7,0c1.9,0.1,2.8,1.7,1.9,3.4c-0.5,0.8-1.2,1.4-2.1,2.3c0.7,1,1.4,2.2,2.2,3.5
		c-0.7,0.5-1.3,0.4-1.8-0.3c-0.5-0.7-1-1.5-1.5-2.3c-0.5-0.8-1.1-1.2-2.1-0.8c-0.5,1.2-1,2.4-1.6,3.6c0,0.1-0.5,0-0.9-0.1
		C222.5,56.9,223.2,53.9,223.9,50.7z M225.2,51.7c-0.4,1.2-1,2.3-0.5,3.8c0.9-0.2,1.7-0.3,2.5-0.5c0.9-0.4,1.4-1.4,1.2-2.2
		c-0.3-0.9-1-1-1.8-1.1C226.1,51.6,225.7,51.7,225.2,51.7z"/>
	<path class="st10" d="M248.9,60.1c-2.1,0.1-1.1-1.8-2.1-2.5c-1.1,0-2.3,0-3.3,0c-1.3,0.7-1,2.9-3.2,2.5c1.9-3.2,3.7-6.3,5.6-9.4
		c0.6,0,1.2,0.1,1.8,0.1C248,53.9,248.4,56.9,248.9,60.1z M247.1,56.2c-0.2-1.4-0.4-2.5-0.5-3.7c-0.1,0-0.3,0-0.4-0.1
		c-0.7,1.2-1.4,2.4-2.2,3.8C245,56.2,245.9,56.2,247.1,56.2z"/>
	<path class="st11" d="M136.2,60c-0.6,0-0.9,0-1.4,0c-0.1-0.8-0.2-1.6-0.3-2.4c-1.3,0-2.6,0-3.9,0c-1,0.6-0.8,2.7-3,2.4
		c1.9-3.2,3.7-6.2,5.5-9.3c0.6,0,1.1,0,1.8,0C135.3,53.8,135.8,56.9,136.2,60z M134,52.7c0-0.2-0.1-0.4-0.1-0.5
		c-0.2,0.1-0.4,0.2-0.5,0.4c-0.6,1.2-1.3,2.3-2,3.7c1.1,0,1.9,0,2.9,0C134.1,55,134.1,53.8,134,52.7z"/>
	<path class="st12" d="M176,58c-0.2,0.6-0.2,0.9-0.3,1.1c-0.8,1.1-3.2,1.6-5,1.1c-1.5-0.4-2.4-1.5-2.4-3.2c-0.1-2.4,0.6-4.4,2.7-5.7
		c2-1.2,4-1.1,6.2,0c-0.2,0.5-0.3,0.8-0.5,1.3c-0.5-0.2-0.8-0.4-1.2-0.6c-1.8-0.8-3.3-0.5-4.5,0.8c-1.1,1.3-1.6,3.7-1,5.1
		c0.5,1.1,1.9,1.6,3.4,1.2C174.3,58.8,175,58.4,176,58z"/>
	<path class="st13" d="M95.1,58.8c0.4,0.2,0.7,0.4,1,0.6c-0.2,0.9-2.1,1-4.1,0.2c0.6-0.3,1-0.5,1.6-0.8c0.5-2.2,1-4.4,1.6-6.8
		c-0.2-0.2-0.4-0.3-0.6-0.5c-0.1-0.1-0.3-0.3-0.5-0.5c1.4-0.8,2.6-0.3,3.9-0.3c0,0.1,0.1,0.3,0.1,0.4c-0.4,0.2-0.9,0.4-1.4,0.7
		C96.2,54.2,95.7,56.5,95.1,58.8z"/>
	<path class="st9" d="M210.1,51.9c-0.6,2.4-1.1,4.7-1.6,6.9c0.4,0.3,0.7,0.5,1,0.7c-0.4,0.9-2.1,0.9-4,0.1c0.6-0.3,1-0.5,1.5-0.8
		c0.5-2.2,1-4.5,1.6-6.7c-0.4-0.4-0.7-0.7-1.1-1.2c1.5-0.4,2.7-0.4,4.3,0.1C211,51.4,210.6,51.6,210.1,51.9z"/>
	<path class="st2" d="M42.4,1.7c-2-0.3-4.1-0.6-6.1-0.9C31.1,0,26.1,1,21.1,2.8c-1.2,0.4-2.4,1-3.6,1.4c0.4-0.5,0.6-1.3,1.1-1.6
		c1-0.5,2.2-0.6,3.3-1c1.5-0.4,2.9-1,4.3-1.4C26.7,0.1,27.3,0,27.8,0c3.2,0,6.5,0,9.7,0c0.6,0,1.3,0.3,1.9,0.5
		c0.7,0.1,1.5,0.3,2.2,0.3C42.3,0.9,42.5,1.2,42.4,1.7z"/>
	<path class="st2" d="M62.5,50c0.9-2.4,1.9-4.9,2.7-7.3c1.4-4.6,1.5-9.2,0.8-13.9c-0.1-0.5-0.1-1.1-0.1-1.6c0.3,0.2,0.7,0.5,0.8,0.7
		c0.2,2.3,0.4,4.7,0.4,7c0,2.1,0.2,4.3-0.5,6.1c-0.6,1.5-0.3,3.2-1.4,4.5c-0.7,0.8-0.7,2.2-0.9,3.3C64,49.8,63.4,50.1,62.5,50z"/>
	<path class="st14" d="M75,59.2c0.6-2.7,1.2-5.5,1.9-8.4c1.9,0,3.8,0,5.6,0c0,0.2,0,0.5,0,0.7c-1.4,0-2.8,0-4.4,0
		c-0.2,0.9-0.4,1.8-0.6,2.8c1.4,0.1,2.6,0.1,3.9,0.2c-0.5,0.7-0.5,0.7-4.2,1.1c-0.3,1.1-0.6,2.3-0.8,3.5c-0.1,0.5-0.3,0.9-0.9,0.9
		C75.2,59.8,75.1,59.5,75,59.2z"/>
	<path class="st2" d="M33.3,67.5c1.6-0.2,3.1-0.4,4.7-0.6c4.3-0.5,8.3-2,12-4.2c0.2-0.1,0.5-0.2,0.8-0.3c-0.5,0.9-0.9,1.7-1.4,2.6
		c-0.1-0.1-0.1-0.2-0.2-0.3c-1.7,0.6-3.3,1.2-5,1.8c-0.1,0-0.2,0.2-0.4,0.2c-1.4-0.1-2.7,0.4-4,0.8c-1.1,0.3-2.3,0-3.5,0.8
		C35.4,68.7,34.2,68.3,33.3,67.5z"/>
	<path class="st2" d="M59.6,34.2c-1.3,1.8-2.4,3.7-3.9,5.3c-2.3,2.5-4.9,4.8-7.4,7.2c0.2-0.5,0.3-1,0.7-1.4c0.8-0.9,1.7-1.7,2.6-2.5
		c0.8-0.7,1.4-1.5,2-2.5c0.5-0.9,1.4-1.4,2-2.2c0.6-0.7,1-1.4,1.5-2.2C57.8,35.1,58.2,34,59.6,34.2z"/>
	<path class="st2" d="M10.8,15.8c3-1.4,5.9-2.8,8.9-4.1c1.8-0.8,3.8-1.2,5.7-1.8c0.4,0,0.8,0,1.2,0c0,0.6-0.3,0.9-0.9,0.8
		c-0.9-0.1-1.6,0.2-2.3,0.7c-0.9,0.7-2,0.7-3,1c-1.7,0.5-3.6,0.6-5.2,1.8C14.1,15.4,12.5,16.1,10.8,15.8z"/>
	<path class="st2" d="M32.2,23.4c-3,1-6,1.9-9,2.9c-1.6,0.6-3.1,1.4-4.8,2.2c-0.5-0.7-0.9-1.3-1.4-1.8c0.5,0.2,1.1,0.4,1.8,0.6
		c0.8-0.4,1.9-0.9,3-1.4c1-0.4,2.1-0.5,2.9-1.1c0.7-0.6,1.3-0.6,2-0.6c0.3,0,0.7,0.1,0.8-0.1c0.9-1.2,2.1-0.6,3.2-0.7
		C31.2,23.3,31.7,23.4,32.2,23.4z"/>
	<path class="st2" d="M14.6,5.9c-1.4,1.2-3,2.2-4.2,3.5c-2.2,2.3-4.2,4.9-6.2,7.3c-0.3-1.4,0.5-2.5,1.3-3.4c0.7-0.9,1.5-1.8,2.3-2.6
		c1.5-1.5,2.8-3.2,4.7-4.4C13.2,5.9,13.9,5.8,14.6,5.9z"/>
	<path class="st15" d="M28.8,9.2c1.2-0.3,2.3-0.6,3.5-0.9c5-1.1,10-1,15-0.6c1.9,0.1,4,0.2,5.6,1.5c-0.3,0-0.5,0-0.8,0.1
		c-0.2,0-0.5-0.1-0.7-0.1c-2.4-0.9-5-1.4-7.6-1.2c-1.1,0-2.2,0-3.3,0c-1.3,0.1-2.6,0.2-3.9,0.3l-0.1,0l-0.1,0c-1,0.1-2,0.3-2.9,0.4
		c-0.5,0.1-1.1,0.1-1.6,0.2C30.7,9,29.7,9.1,28.8,9.2z"/>
	<path class="st2" d="M50.7,28.2c-2.9-4-7.1-5.3-11.9-5.2c-1.8,0-3.7,0.2-5.5,0.3c0.2-0.3,0.5-0.7,0.7-0.7c3.3-0.1,6.7-0.1,10,0
		c0.7,0,1.5,0.5,2.2,0.8c1.6,0.8,3.1,1.8,4.2,3.3C50.7,27.1,50.6,27.7,50.7,28.2z"/>
	<path class="st2" d="M47,43.3c0.4-0.7,0.9-1.4,1.3-2.1c2.1-3,3.3-6.3,3.3-10c0.3,0.1,0.8,0.3,0.8,0.4c-0.1,1.3,0.4,2.5-0.5,3.8
		c-0.6,0.7-0.7,1.8-1,2.7c-0.3,1.1-0.9,2-1.6,2.8c-0.3,0.5-0.7,1-0.9,1.6C48.2,43.4,47.7,43.4,47,43.3z"/>
	<path class="st2" d="M3.3,49.6c2.1,3.5,4.7,6.7,7.6,9.5c-0.5,0-0.9,0-1.4,0c-0.1-0.2-0.2-0.3-0.3-0.3c-2.2-2-3.8-4.5-5.3-6.9
		C3.3,51,3.5,50.3,3.3,49.6z"/>
	<path class="st7" d="M171.2,39c0.3-0.2,0.5-0.7,0.8-0.7c3.5,0,6.9,0,10.4,0c0.6,0,0.9,0.2,0.9,0.8c-1.2-0.1-2.5-0.2-3.7-0.2
		C176.8,38.9,174,39,171.2,39z"/>
	<path class="st6" d="M115.8,39c0.3-0.2,0.6-0.6,0.9-0.6c3.5,0,6.9,0,10.4,0c0.6,0,0.9,0.2,0.9,0.8c-0.5-0.1-1.1-0.2-1.6-0.2
		C122.8,38.9,119.3,39,115.8,39z"/>
	<path class="st2" d="M65.8,26.7c-0.3-1-0.6-1.9-1-2.9c-0.1-0.2-0.1-0.3-0.2-0.5l0,0c-0.1-0.6,0.2-1.2-0.7-1.6
		c-0.2,0.8-0.4,1.4-0.5,2.2c-0.1,0.8-0.1,1.6-0.1,2.4c0,0-0.1,0-0.1,0c-0.2-0.1-0.7-0.2-0.7-0.3c0-1.2,0.1-2.3,0.3-3.5
		c0.1-0.6,0.5-1.2,0.8-1.9c1.8,0.4,1.8,2.1,2.2,3.4C66,24.8,65.8,25.8,65.8,26.7z"/>
	<path class="st6" d="M132.4,13.8c-3.1,0-6.2,0-9.1,0c-0.8,0.5-0.6,1.8-1.8,1.7c0.3-0.7,0.7-1.3,1.1-2.2c0.8,0,1.5-0.1,2.3-0.1
		c2.1,0,4.2,0,6.2,0C131.6,13.2,132.3,12.9,132.4,13.8z"/>
	<path class="st7" d="M187.9,15c-0.2-0.4-0.5-0.7-0.8-1.3c-2.9,0-6,0-9.1,0c0.2-0.2,0.5-0.6,0.7-0.6c3,0,5.9,0,9.1,0
		C187.9,13.9,187.9,14.4,187.9,15z"/>
	<path class="st2" d="M50.7,62.4c2.3-2,4.7-3.9,7-5.9c0,0.5,0.1,0.9,0.1,1.3c-0.9,0.8-1.8,1.5-2.7,2.2c-0.9,0.8-2.2,1.2-2.9,2.2
		C52.1,62.6,51.3,62.4,50.7,62.4z"/>
	<path class="st2" d="M54.2,8.3c-1.2-0.9-2.5-1.9-3.7-2.8c-0.6-0.4-1.2-0.8-1.8-1.3c0.6,0,1.2-0.1,1.8-0.1C51.8,6,53.6,6.6,56,6.4
		c-0.5,0.9-0.8,1.5-1.1,2.2C54.7,8.5,54.4,8.4,54.2,8.3z"/>
	<path class="st1" d="M37.6,51.7c0.7-1.4,1.1-2.9,2.5-4c0-0.3,0-0.8,0-1.3c0.1,0,0.3-0.1,0.4-0.1c0.2,0.5,0.4,1,0.6,1.5
		c0.5-0.1,1-0.1,1.5-0.2c-0.4,0.5-0.9,1.1-1.3,1.6l0,0c-0.1,0.1-0.3,0.3-0.4,0.4c0,0,0,0,0,0c-0.2,0.1-0.3,0.3-0.5,0.4c0,0,0,0,0,0
		c-0.2,0.1-0.3,0.3-0.5,0.4c0,0,0.1,0.1,0.1,0.1s-0.1-0.1-0.1-0.1c-0.2,0.1-0.3,0.3-0.5,0.4c-0.1,0-0.2,0-0.2,0.2
		C38.6,51.2,38.1,51.5,37.6,51.7z"/>
	<path class="st2" d="M10.9,19.9c-0.1-0.2-0.1-0.4-0.2-0.7c0.3,0.1,0.7,0.1,0.9,0.3c0.8,1,1.9,1.5,3.1,1.8c0.4,1.2,0.8,2.4,1.1,3.6
		l-0.1,0.1c-0.5-0.5-1-0.9-1.4-1.4c-0.9-1-1.9-2-2.8-3c0,0-0.1,0-0.1,0s0.1-0.1,0.1-0.1C11.3,20.4,11.1,20.1,10.9,19.9
		C10.9,19.9,10.9,19.9,10.9,19.9z"/>
	<path class="st2" d="M57.8,56.5c1.5-2.1,3.1-4.2,4.6-6.4c0.7,1.4-1,2.4-0.8,3.8c-0.5,0.1-0.9,0.2-1.4,0.4
		C59.7,56.1,59.2,56.5,57.8,56.5z"/>
	<path class="st2" d="M16.7,63.3c2.9,1.1,5.8,2.2,8.8,3.4c-2.2,0.4-4.1-0.3-5.9-1.4c-0.8-0.5-2.1,0-2.6-1.2
		C16.8,63.8,16.8,63.5,16.7,63.3z"/>
	<path class="st2" d="M37.1,54.9c-0.2,0.1-0.4,0.1-0.6,0.2c-0.2-0.3-0.4-0.6-0.7-0.9c0-0.3,0-0.5,0-0.8c0.1-0.1,0.1-0.1,0.2-0.1
		c0.2-0.1,0.4-0.3,0.6-0.4l0,0c0.2-0.1,0.3-0.2,0.5-0.4l0,0c0.8,0.3,1.2-0.4,1.7-0.8c0.3,0.4,0.5,0.8,0.8,1.2c0,0.1,0,0.3,0,0.4l0,0
		c-0.6,0-1.3-0.2-1.3,0.8c-0.1,0.1-0.1,0.1-0.2,0.1C37.5,54.1,37.1,54.2,37.1,54.9z"/>
	<path class="st2" d="M25.4,66.6c2.2,0.3,4.4,0.6,6.6,0.8c-0.5,0.9-1.4,0.4-2,0.4c-1.3,0-2.5-0.3-3.8-0.4
		C25.6,67.5,25.4,67.2,25.4,66.6z"/>
	<path class="st2" d="M62.1,30c-0.7,1.2-1.4,2.5-2.1,3.7c-0.4-1.3,0.5-2.2,1-3.1c0.6-1.1,0.9-2,0.7-3.3c0.5-0.1,0.9-0.1,1.2-0.2
		c-0.1,0.6-0.2,1.1-0.3,1.7c0,0,0,0,0,0C62.4,29.2,62.2,29.6,62.1,30z"/>
	<path class="st2" d="M43.7,8c2.6-0.2,5.2,0.2,7.6,1.2C48.7,9.6,46.2,8.7,43.7,8z"/>
	<path class="st2" d="M47.5,47.5c-1.4,1.1-2.8,2.2-4.2,3.3C43.8,48.6,45.5,47.8,47.5,47.5z"/>
	<path class="st3" d="M41.2,49.2c0.4-0.5,0.9-1.1,1.3-1.6l0,0c0.6-0.6,1.1-1.1,1.7-1.7l0,0c0.3-0.1,0.5-0.3,0.8-0.4
		c0,0.4,0,0.8,0,1.2c-0.9,0.7-1.7,1.5-2.6,2.2C42.1,49.1,41.6,49.1,41.2,49.2z"/>
	<path class="st2" d="M55.7,9.2c1.4-0.4,2.1,0.7,3.1,1.5c-0.3,0.6-0.5,1.4-1.3,0.5c-0.5-0.5-1.1-1.1-1.6-1.6
		C55.8,9.5,55.7,9.4,55.7,9.2z"/>
	<path class="st2" d="M28.8,9.2c1-0.1,1.9-0.2,2.9-0.3c0,0.9-0.6,1.2-1.4,1.2c-1.1,0-2.2,0-3.3,0C27.6,9.7,28.2,9.4,28.8,9.2
		C28.7,9.2,28.8,9.2,28.8,9.2z"/>
	<path class="st2" d="M10.9,59.1c1.1,0.9,2.2,1.7,3.3,2.6C12.3,61.6,11.5,60.9,10.9,59.1z"/>
	<path class="st2" d="M14.5,61.9c0.7,0.5,1.4,0.9,2.2,1.4c-0.9,0-1.9,0-2.7,0C13.6,62.4,13.9,62.1,14.5,61.9z"/>
	<path class="st2" d="M46.6,3.4c-1.4-0.5-2.8-1.1-4.2-1.6c1.5-0.4,2.7,0.3,4,0.9C46.6,2.7,46.6,3.1,46.6,3.4z"/>
	<path class="st6" d="M135.6,30.8c0.8,1,0.7,2-0.4,3.6c-0.1-0.8-0.1-1.4-0.1-1.9C135.2,31.9,135.4,31.3,135.6,30.8z"/>
	<path class="st7" d="M162,37.1c-0.7,0-1.4,0-2.2,0c0.7-0.5,1.5-1.1,2.2-1.6c0.1,0.1,0.3,0.2,0.4,0.3
		C162.3,36.2,162.1,36.6,162,37.1z"/>
	<path class="st2" d="M56.7,11.2c-0.2,0.1-0.4,0.4-0.6,0.4c-0.7-0.2-1.4-0.5-2.1-0.8c-0.2-0.1-0.1-0.6-0.1-0.9
		c0.5,0.1,0.9,0.2,1.4,0.3C55.8,10.5,56.2,10.8,56.7,11.2z"/>
	<path class="st16" d="M55.3,10.2c-0.5-0.1-0.9-0.2-1.4-0.3l-0.1,0c0-0.1,0-0.2-0.1-0.3c0-0.1,0-0.2,0-0.3c0.2-0.3,0.3-0.6,0.5-0.9
		c0.2,0.1,0.5,0.1,0.7,0.2c0.3,0.2,0.5,0.5,0.8,0.7c0,0.1,0.1,0.2,0.2,0.4C55.7,9.8,55.5,10,55.3,10.2z"/>
	<path class="st2" d="M33.3,8.7c1-0.1,2-0.3,2.9-0.4C36.2,8.5,36.1,9,36,9C35.1,9.1,34.1,9.6,33.3,8.7z"/>
	<path class="st2" d="M9.8,18.1c-0.3-0.3-0.7-0.6-1.3-1.1c0.9-0.5,1.6-0.8,2.3-1.2C10.5,16.6,10.2,17.3,9.8,18.1z"/>
	<path class="st7" d="M209.5,18.5c1-0.8,1.6-0.8,2.5,0C211.2,18.5,210.4,18.5,209.5,18.5z"/>
	<path class="st2" d="M17.5,4.2c-1,0.6-1.9,1.1-2.9,1.7C15.2,4.6,16.1,4,17.5,4.2z"/>
	<path class="st2" d="M51.6,31.3c-0.3-1-0.6-2-0.9-3c0.5,0,0.9,0.1,0.9,0.8C51.6,29.8,51.6,30.6,51.6,31.3z"/>
	<path class="st15" d="M28.7,9.2C28.2,9.4,27.6,9.7,27,10l-0.2,0c0,0-0.2,0-0.2,0c-0.4,0-0.8,0-1.2,0C26.4,9.2,27.5,9.1,28.7,9.2z"
		/>
	<path class="st15" d="M55.3,10.2c0.2-0.2,0.4-0.4,0.5-0.6c0.5,0.5,1.1,1.1,1.6,1.6c-0.3,0-0.5,0-0.8,0
		C56.2,10.8,55.8,10.5,55.3,10.2z"/>
	<path class="st3" d="M38.7,51.7c-0.5,0.4-0.9,1.1-1.7,0.8c0.2-0.3,0.3-0.5,0.5-0.8l0,0c0.5-0.3,1.1-0.6,1.6-0.8
		C39,51.2,38.9,51.4,38.7,51.7z"/>
	<path class="st17" d="M161.3,40.4c0.2-0.6,0.3-1.1,0.5-1.7c0.3,0.1,0.6,0.2,0.9,0.2c-0.3,0.5-0.6,1-0.9,1.6
		C161.6,40.5,161.4,40.5,161.3,40.4z"/>
	<path class="st15" d="M110.7,32.5c0.2-0.5,0.4-1.1,0.6-1.6c0.3,0,0.5,0,0.8,0c-0.3,0.6-0.6,1.1-0.8,1.7
		C111.1,32.5,110.9,32.5,110.7,32.5z"/>
	<path class="st2" d="M36.5,8.3c1.3-0.1,2.6-0.2,3.9-0.3C39.2,8.7,37.8,8.2,36.5,8.3z"/>
	<path class="st3" d="M42.1,51.7c-0.7,0.4-1.4,0.9-2.1,1.3C40.6,52.3,41,51.5,42.1,51.7z"/>
	<path class="st6" d="M148.4,21.4c-0.1-1.1,0.4-1.5,1.5-1.3C149.4,20.6,148.9,21,148.4,21.4z"/>
	<path class="st2" d="M48.7,4.3c-0.7-0.3-1.3-0.6-2-0.9C47.4,3.4,48.4,3,48.7,4.3z"/>
	<path class="st15" d="M62.6,28.8c0.1-0.6,0.2-1.1,0.3-1.7c0.1-0.2,0.3-0.3,0.4-0.5C63.4,27.5,63.4,28.3,62.6,28.8z"/>
	<path class="st7" d="M192.1,40c0.1,0.4,0.2,0.7,0.3,1.1c-0.2,0.1-0.3,0.1-0.5,0.2c-0.1-0.4-0.2-0.7-0.4-1.1
		C191.8,40.1,191.9,40.1,192.1,40z"/>
	<path class="st7" d="M197.1,27.9c0.9-0.1,1.3,0.3,1.2,1.1C197.9,28.7,197.5,28.3,197.1,27.9z"/>
	<path class="st15" d="M218.3,42.1c-0.3,0.6-0.5,1.1-0.8,1.7c0-0.4-0.1-0.8-0.1-1.1C217.7,42.4,218,42.3,218.3,42.1z"/>
	<path class="st6" d="M152.9,18.9c0.3-0.9,0.7-0.8,1.3-0.2C153.7,18.8,153.3,18.9,152.9,18.9z"/>
	<path class="st6" d="M156.6,18.8c0.5-0.6,0.9-0.7,1.3,0.2C157.5,18.9,157,18.8,156.6,18.8z"/>
	<path class="st3" d="M45.5,45c0.4-0.4,0.8-0.9,1.2-1.3C46.8,44.7,46.5,45.1,45.5,45z"/>
	<path class="st2" d="M53.7,9.6c0.1,0.1,0.1,0.2,0.1,0.3c-0.7,0-1.6,0.7-1.8-0.7c0.3,0,0.5,0,0.8-0.1l0,0
		C53.2,9.3,53.5,9.4,53.7,9.6z"/>
	<path class="st7" d="M213.7,18.7c0.5-0.6,1-0.6,1.2,0.2C214.5,18.9,214.1,18.8,213.7,18.7z"/>
	<path class="st7" d="M209.5,12.7c-0.3,0.9-0.7,0.9-1.3,0.2C208.7,12.8,209.1,12.8,209.5,12.7z"/>
	<path class="st7" d="M214.9,12.9c-0.6,0.6-1,0.7-1.3-0.2C214.1,12.8,214.5,12.9,214.9,12.9z"/>
	<path class="st15" d="M221.7,36.8c-0.4,1.2-0.5,1.2-1.1,0.9c0-0.2,0.1-0.4,0.1-0.6c0.1-0.1,0.2-0.3,0.3-0.4
		C221.2,36.6,221.4,36.7,221.7,36.8z"/>
	<path class="st6" d="M114.9,26.5c0,0.6,0.3,1.4-0.8,1.4C114.4,27.5,114.6,27,114.9,26.5z"/>
	<path class="st17" d="M136.3,40.9c0-0.4-0.1-0.8-0.1-1.3c0.1,0,0.2-0.1,0.3-0.1c0.2,0.4,0.4,0.9,0.6,1.3
		C136.8,40.8,136.5,40.8,136.3,40.9z"/>
	<path class="st2" d="M45,46.7c0-0.4,0-0.8,0-1.2c0,0,0-0.1,0-0.1c0.1,0,0.2,0,0.3,0C45.7,46,46.2,46.7,45,46.7z"/>
	<path class="st2" d="M16.7,26.2c-0.3-0.1-0.5-0.3-0.8-0.4l0,0c0-0.2-0.1-0.5-0.1-0.7l0.1-0.1C16.7,25,16.7,25.6,16.7,26.2z"/>
	<path class="st6" d="M117.4,22.4c0,0.6,0.3,1.4-0.8,1.3C116.9,23.3,117.2,22.8,117.4,22.4z"/>
	<path class="st2" d="M10.8,19.2c-0.3-0.4-0.6-0.8-0.9-1.1C11.1,17.7,10.8,18.6,10.8,19.2z"/>
	<path class="st7" d="M203.8,21.5c0-0.7-0.3-1.5,0.9-1.4C204.4,20.5,204.1,21,203.8,21.5z"/>
	<path class="st15" d="M154.6,56.7c-0.1,0.3-0.2,0.5-0.4,0.8c-0.2-0.3-0.3-0.6-0.5-0.9C154.1,56.6,154.3,56.7,154.6,56.7z"/>
	<path class="st7" d="M222.8,17.9c-0.6-0.4-0.5-0.6,0.1-0.8C222.9,17.4,222.9,17.6,222.8,17.9z"/>
	<path class="st7" d="M165.7,34.3c0.2,0.6,0.1,1.1-0.7,1.1C165.2,35,165.4,34.7,165.7,34.3z"/>
	<path class="st16" d="M75,59.2c0.1,0.3,0.2,0.6,0.4,0.9C74.6,60,74.6,59.7,75,59.2z"/>
	<path class="st6" d="M153.7,12.7c-0.1,0.2-0.3,0.4-0.4,0.6c-0.1-0.1-0.3-0.2-0.4-0.4C153.2,12.8,153.4,12.8,153.7,12.7z"/>
	<path class="st6" d="M159.1,12.9c-0.5,0.7-0.7,0.4-0.8-0.2C158.6,12.8,158.8,12.9,159.1,12.9z"/>
	<path class="st7" d="M206.2,13.1c-0.1,0.6-0.3,1-0.8,0.2C205.6,13.2,205.9,13.2,206.2,13.1z"/>
	<path class="st7" d="M188.4,17.5c-0.6-0.2-0.7-0.5-0.1-0.8C188.3,17,188.3,17.2,188.4,17.5z"/>
	<path class="st7" d="M206.6,18.9c0.1-0.6,0.4-0.8,0.8-0.2C207.2,18.8,206.9,18.9,206.6,18.9z"/>
	<path class="st7" d="M218.3,13.3c-0.1,0.1-0.3,0.2-0.4,0.4c-0.1-0.2-0.3-0.4-0.4-0.6C217.7,13.2,218,13.3,218.3,13.3z"/>
	<path class="st7" d="M205.4,32.1c0.4-0.6,0.7-0.4,0.8,0.2C205.9,32.2,205.6,32.1,205.4,32.1z"/>
	<path class="st7" d="M220.4,13.8c-0.5,0.6-0.7,0.4-0.8-0.2C219.8,13.6,220.1,13.7,220.4,13.8z"/>
	<path class="st6" d="M164.5,14.2c-0.7,0.8-0.7,0.2-0.8-0.4C164,14,164.3,14.1,164.5,14.2z"/>
	<path class="st7" d="M203.3,13.8c-0.1,0.5-0.2,1.1-0.8,0.4C202.7,14.1,203,14,203.3,13.8z"/>
	<path class="st7" d="M190.4,32.9c-0.6-0.2-0.7-0.5-0.1-0.8C190.4,32.4,190.4,32.6,190.4,32.9z"/>
	<path class="st7" d="M189.2,24.2c-0.6-0.2-0.7-0.5-0.1-0.8C189.1,23.6,189.2,23.9,189.2,24.2z"/>
	<path class="st6" d="M147.1,22.7c-0.1-0.7,0.1-1.1,0.9-1C147.7,22.1,147.4,22.4,147.1,22.7z"/>
	<path class="st7" d="M192.9,36.7c0.6,0.5,0.4,0.7-0.3,0.8C192.7,37.2,192.8,37,192.9,36.7z"/>
	<path class="st6" d="M104.1,44.6c0.1,0.3,0.3,0.5,0.4,0.8c-0.3-0.1-0.6-0.1-0.8-0.2C103.9,45,104,44.8,104.1,44.6z"/>
	<path class="st2" d="M48.4,46.7c-0.3,0.3-0.6,0.5-0.9,0.8C47.4,46.9,47.7,46.6,48.4,46.7z"/>
	<path class="st3" d="M43.3,50.8c-0.3,0.2-0.6,0.4-0.9,0.7C42.8,51.3,43,51.1,43.3,50.8z"/>
	<path class="st17" d="M150.8,53.3c0-0.4,0.1-0.7,0.1-1.1c0.1,0,0.1,0,0.2,0c0.1,0.3,0.2,0.7,0.3,1C151.1,53.2,151,53.3,150.8,53.3z
		"/>
	<path class="st18" d="M82.5,51.5c0-0.2,0-0.5,0-0.7c0.2,0.1,0.3,0.2,0.5,0.3C82.8,51.2,82.6,51.4,82.5,51.5z"/>
	<path class="st2" d="M3,49.1c0.1,0.2,0.2,0.4,0.3,0.5C3.2,49.4,3.1,49.2,3,49.1z"/>
	<path class="st7" d="M191.6,45.4c0.1-0.1,0.3-0.2,0.4-0.4C191.9,45.1,191.8,45.2,191.6,45.4z"/>
	<path class="st7" d="M159.2,45c0.1,0.1,0.2,0.2,0.3,0.3C159.4,45.2,159.3,45.1,159.2,45z"/>
	<path class="st6" d="M136.2,45.4c0.2-0.1,0.3-0.2,0.5-0.4C136.5,45.1,136.4,45.2,136.2,45.4z"/>
	<path class="st6" d="M128.7,45c0.2,0.1,0.3,0.2,0.5,0.4C129,45.2,128.8,45.1,128.7,45z"/>
	<path class="st15" d="M105.7,40.1c0.2,0,0.3-0.1,0.5-0.1l0.1,0C106.1,40.1,105.9,40.1,105.7,40.1z"/>
	<path class="st3" d="M45.4,45.5c-0.1,0-0.2,0-0.3,0c0.1-0.1,0.3-0.3,0.4-0.4C45.4,45.2,45.4,45.3,45.4,45.5z"/>
	<path class="st2" d="M46.6,43.7c0.1-0.2,0.3-0.3,0.4-0.5C46.9,43.4,46.8,43.6,46.6,43.7z"/>
	<path class="st2" d="M59.9,33.7c-0.1,0.2-0.2,0.3-0.3,0.5C59.7,34.1,59.8,33.9,59.9,33.7z"/>
	<path class="st3" d="M39.6,53.3c0-0.1,0-0.3,0-0.4c0.2,0,0.3,0.1,0.5,0.1C39.9,53.1,39.8,53.2,39.6,53.3z"/>
	<path class="st2" d="M17.1,26.7c-0.1-0.1-0.2-0.3-0.4-0.4C16.8,26.4,17,26.5,17.1,26.7z"/>
	<path class="st3" d="M39.4,50.7c0.2-0.1,0.3-0.3,0.5-0.4C39.7,50.5,39.6,50.6,39.4,50.7z"/>
	<path class="st3" d="M39.9,50.3c0.2-0.1,0.3-0.3,0.5-0.4C40.2,50.1,40.1,50.2,39.9,50.3z"/>
	<path class="st3" d="M40.4,50c0.2-0.1,0.3-0.3,0.5-0.4C40.7,49.7,40.5,49.8,40.4,50z"/>
	<path class="st3" d="M40.8,49.6c0.1-0.1,0.3-0.3,0.4-0.4C41.1,49.3,41,49.4,40.8,49.6z"/>
	<path class="st2" d="M35.8,54.1c0.2,0.3,0.4,0.6,0.7,0.9c-0.2,0.1-0.4,0.2-0.6,0.4c-0.2,0.1-0.3,0.2-0.5,0.3l0,0
		c-0.4,0.2-0.8,0.4-1.1,0.5l0,0c-0.2,0.1-0.3,0.2-0.5,0.3c-0.1,0.1-0.2,0.1-0.3,0.1c-0.3,0.1-0.6,0.3-0.9,0.4c0,0,0,0,0,0
		c-0.2,0.1-0.3,0.2-0.5,0.3c-0.2,0.1-0.4,0.1-0.6,0.2c-0.6,0-1.4-0.4-1.5,0.7c-0.1,0.1-0.2,0.1-0.3,0.1c-0.5,0-1.1-0.3-1.3,0.5
		c-0.4,0.1-0.8,0.2-1.1,0.4c-0.5,0-1.2-0.4-1.3,0.5c-0.4,0.1-0.8,0.2-1.3,0.3c-0.7,0.2-1.8-0.6-2.2,0.7c-0.4,0-0.8,0.1-1.2,0.1
		c-1.8,0-3.5,0-5.4,0c0-1.1,0-2,0-2.9c0.4-1.8,0.7-3.6,1.1-5.5c1-4.4,2-8.9,3-13.3c0.1-0.5,0.1-1.1,0.1-1.6l0,0
		c0.3-1.1,0.5-2.2,0.8-3.4c0.1-0.1,0.1-0.2,0-0.3c0.2-0.4,0.4-0.8,0.7-1.5c2.9,3.5,5.7,6.8,8.4,10.2c0.4,0.4,0.4,1.3,0.3,1.9
		c-0.3,1.7-0.8,3.3-1.2,5c-1.3,0.9-0.5,2.2-0.7,3.3l0,0c-0.3,0.4-0.7,0.8-0.8,1.3c-0.1,0.8,0,1.6-0.1,2.4c0,0.2,0,0.5,0,0.7
		c0.7,0.2,1.4,0.5,1.7-0.5c0.2,0,0.3-0.1,0.5-0.1c0.4-0.2,0.8-0.3,1.1-0.5l0,0c0.2-0.1,0.3-0.2,0.5-0.3l0.1,0
		c0.4-0.2,0.7-0.4,1.1-0.5c0,0,0,0,0,0c0.2-0.1,0.3-0.2,0.5-0.3l0.1,0c0.4-0.1,1.1,0.2,1.1-0.6l0.1,0.1l-0.1-0.1
		c0.2-0.1,0.3-0.2,0.5-0.3l0,0C35,54.1,35.4,54.1,35.8,54.1z"/>
	<path class="st1" d="M29.7,56.7c-0.2,0-0.3,0.1-0.5,0.1c-0.6,0.2-1.1,0.3-1.7,0.5c0-0.2,0-0.5,0-0.7c0.3-1.2,0.5-2.5,0.8-3.7l0,0
		c0.2-1.1,0.5-2.2,0.7-3.3c0.4-1.7,0.9-3.3,1.2-5c0.1-0.6,0-1.4-0.3-1.9c-2.7-3.4-5.6-6.8-8.4-10.2c-0.3,0.6-0.5,1-0.7,1.5
		c0-0.6-0.1-1.2,0-1.9c0-0.8,0.5-1.3,1.1-1.2c1.8,2.3,3.4,4.4,5,6.4c0.7-0.2,1.3-0.5,2.3-0.8c-0.3,0.9-0.5,1.3-0.6,1.7
		c-0.1,0.4-0.3,0.9-0.3,1.1c1.2,1.7,2.3,3.1,3.6,4.7c-1.5,0.9-0.7,2.5-1.6,3.6c-1,1.2,0.3,2.4,0.6,3.6h0c-0.6,0.2-1.1,0.4-1.6,0.6
		c0,1.1,0,2,0,2.9c1.7,0.9,2.8-0.6,4.1-0.9c0.6-0.2,1.1-0.3,1.7-0.5l0.1,0.1c-0.2,0.2-0.4,0.5-0.5,0.7l0,0c-0.2,0.1-0.3,0.2-0.5,0.3
		l0.1,0.1l-0.1-0.1c-0.4,0.2-0.7,0.4-1.1,0.6l-0.1,0c-0.2,0.1-0.3,0.2-0.5,0.3l0,0c-0.4,0.2-0.7,0.4-1.1,0.5l-0.1,0
		c-0.2,0.1-0.3,0.2-0.5,0.3l0,0C30.4,56.4,30,56.5,29.7,56.7z"/>
	<path class="st1" d="M2.5,44.6c0-0.1,0-0.3,0-0.4c0-1.2,0-2.4,0-3.6c0.2,0,0.4,0,0.5-0.1c0.2,0.6,0.3,1.2,0.5,2
		c0.7-0.3,1.3-0.5,2.1-0.8c0.1,0.5,0.1,0.9,0.1,1.4C4.6,43.4,4,44.9,2.5,44.6z"/>
	<path class="st1" d="M15.8,25.1c0,0.2,0.1,0.5,0.1,0.7c-1.4-0.1-2.4-0.8-2.8-2.3c-0.4-0.1-0.9-0.2-1.4-0.3
		c-0.1-0.8-0.1-1.7-0.2-2.5c0.9,1,1.9,2,2.8,3C14.8,24.1,15.3,24.6,15.8,25.1z"/>
	<path class="st1" d="M30.8,51.2c0.8,0.2,1.6,0.4,2.6,0.7c-1.2,0.8-2.1,1.5-3.1,2.2c-0.8-0.3-0.6-1-0.2-1.3
		C30.7,52.4,30.9,51.9,30.8,51.2L30.8,51.2z"/>
	<path class="st1" d="M46.7,27.7c-0.9,0.7-1.4,1.2-2,1.4c-0.1,0.1-1-0.9-0.9-1c0.3-0.5,0.8-1.1,1.3-1.3C45.4,26.6,46,27.2,46.7,27.7
		z"/>
	<path class="st1" d="M37.6,51.7c-0.2,0.3-0.3,0.5-0.5,0.8c0,0,0,0,0,0c-0.2,0.1-0.3,0.2-0.5,0.4l0,0c-0.2,0.1-0.4,0.3-0.6,0.4
		c-0.1,0-0.2,0.1-0.2,0.1c-0.2,0-0.5,0.1-0.7,0.1L35,53.3c-0.1-0.8-0.3-1.5-0.5-2.3C35.7,51.3,36.6,51.5,37.6,51.7z"/>
	<path class="st1" d="M48.9,31.6c-1.5-0.5-1.5-0.5-1.2-2.5C48.5,29.9,49.5,30.2,48.9,31.6z"/>
	<path class="st4" d="M12.6,57.4c0-0.7,0-1.4,0-2.3c0.3,0,0.8,0,0.9,0.1C14.1,56.1,13.6,56.7,12.6,57.4z"/>
	<path class="st1" d="M24.1,29.1c0.6,0.4,1.1,0.8,1.8,1.3C24.4,30.9,24.4,30.9,24.1,29.1z"/>
	<path class="st4" d="M10.1,53.4c-0.7-0.4-1.2-0.7-0.6-1.3c0.2-0.2,0.8-0.2,1-0.1C11.1,52.6,10.6,52.9,10.1,53.4z"/>
	<path class="st1" d="M5,27.6c-0.1,1-0.1,1.4-0.2,1.9c-0.8-0.1-1.2-0.5-1-1.1C3.9,28.2,4.4,28.1,5,27.6z"/>
	<path class="st1" d="M20.8,34.2c-0.3,1.1-0.5,2.2-0.8,3.4c0-0.9-0.1-1.8,0-2.7C20.1,34.6,20.6,34.4,20.8,34.2z"/>
	<path class="st1" d="M44.2,45.9c-0.6,0.6-1.1,1.1-1.7,1.7C42.6,46,42.6,45.9,44.2,45.9z"/>
	<path class="st1" d="M5.2,24.9c0-0.5,0-1,0-1.4c0.2,0,0.3,0,0.5,0c0,0.5,0.1,1,0.1,1.4C5.6,24.9,5.4,24.9,5.2,24.9z"/>
	<path class="st1" d="M15.7,29.8c-0.5,0-1,0-1.4,0c0-0.2,0-0.3,0-0.5c0.5,0,1-0.1,1.4-0.1C15.7,29.4,15.7,29.6,15.7,29.8z"/>
	<path class="st1" d="M28.9,26.7c0.5,0,1,0.1,1.4,0.1c0,0.2,0,0.3,0,0.5c-0.5,0-1,0-1.4,0C28.9,27.1,28.9,26.9,28.9,26.7z"/>
	<path class="st1" d="M5,50c0.2-0.2,0.3-0.5,0.5-0.7c0.1,0.1,0.2,0.2,0.3,0.3C5.5,49.7,5.2,49.8,5,50C5,50,5,50,5,50z"/>
	<path class="st1" d="M40.4,42.9c0.2,0.4,0.2,0.6,0.3,0.8c0,0.1-0.1,0.3-0.2,0.3c-0.2,0-0.3-0.1-0.5-0.1
		C40.1,43.7,40.2,43.6,40.4,42.9z"/>
	<path class="st4" d="M0.8,41.7c-0.2-0.6-0.3-1.1-0.5-1.7C1.3,40.4,0.7,41.1,0.8,41.7z"/>
	<path class="st1" d="M10.9,19.9c0.2,0.2,0.4,0.5,0.5,0.7C10.7,20.8,10.9,20.3,10.9,19.9z"/>
	<path class="st15" d="M53.7,9.6c-0.3-0.1-0.6-0.2-0.8-0.4c0.3,0,0.5,0,0.8,0C53.7,9.3,53.7,9.4,53.7,9.6z"/>
	<path class="st19" d="M174.8,32.5c1.7-2.8,3.3-5.7,5-8.5c0.4-0.6,0.8-1.3,1.5-1.9c0.4,3.6,0.8,7.2,1.3,10.9c-2.7,0-5.2,0-7.7,0
		C174.9,32.8,174.8,32.7,174.8,32.5z"/>
	<path class="st20" d="M125.7,21.7c0.2,0.7,0.3,0.9,0.3,1.2c0.4,3.3,0.7,6.6,1.1,10c-2.6,0-5,0-7.8,0
		C121.4,29.2,123.5,25.6,125.7,21.7z"/>
	<path class="st15" d="M106.2,40c0-0.9,0.3-1.3,1.2-1.2C107.3,39.4,107.2,40.2,106.2,40z"/>
	<path class="st16" d="M107.5,38.7c-0.2-0.7-0.1-1.3,0.8-1.3C108,37.9,107.8,38.3,107.5,38.7z"/>
	<path class="st7" d="M174.8,32.5c0,0.2,0.1,0.4,0.1,0.5c-0.2,0-0.5,0-0.7,0C174.4,32.9,174.6,32.7,174.8,32.5z"/>
	<path class="st16" d="M110.7,32.5c0.2,0,0.4,0,0.6,0c-0.3,0.3-0.6,0.7-0.9,1C110.5,33.2,110.6,32.9,110.7,32.5z"/>
	<path class="st7" d="M161.6,41.2c-0.1,0.3-0.2,0.5-0.4,0.8c0,0-0.2-0.1-0.3-0.1c0.1-0.2,0.2-0.4,0.2-0.6
		C161.3,41.3,161.5,41.2,161.6,41.2z"/>
	<path class="st21" d="M108.7,36.3c0.3-0.3,0.6-0.6,0.8-0.8C109.6,36,109.3,36.3,108.7,36.3z"/>
	<path class="st16" d="M108.3,37.5c0.1-0.4,0.3-0.8,0.4-1.2C108.6,36.7,108.4,37.1,108.3,37.5z"/>
	<path class="st15" d="M161.6,41.2c-0.2,0-0.3,0-0.5,0c0-0.3,0.1-0.6,0.1-0.9c0.2,0,0.4,0.1,0.5,0.1C161.7,40.8,161.7,41,161.6,41.2
		z"/>
	<path class="st16" d="M219.1,40.7c-0.1,0.3-0.3,0.6-0.4,0.9C218.8,41.4,219,41,219.1,40.7z"/>
	<path class="st16" d="M136.2,38.3c0,0.3,0,0.5,0,0.8c-0.1,0-0.1,0-0.2,0c-0.1-0.3-0.1-0.5-0.2-0.8
		C135.9,38.3,136.1,38.3,136.2,38.3z"/>
	<path class="st16" d="M218.7,41.7c-0.1,0.1-0.3,0.3-0.4,0.4C218.4,41.9,218.6,41.8,218.7,41.7z"/>
	<path class="st18" d="M109.5,35c0.2-0.2,0.3-0.3,0.5-0.5C109.9,34.7,109.7,34.9,109.5,35z"/>
	<path class="st16" d="M220.7,37c0,0.2-0.1,0.4-0.1,0.6c-0.1-0.1-0.2-0.1-0.2-0.1C220.4,37.4,220.6,37.2,220.7,37z"/>
	<path class="st6" d="M136.2,38.3c-0.1,0-0.3,0-0.4,0C135.9,38.3,136.1,38.3,136.2,38.3z"/>
	<path class="st3" d="M15.8,57.9c0,0.9,0,1.8,0,2.9c1.9,0,3.6,0,5.4,0c-2,0.8-4,0.8-6.4,0.7C15.2,60.2,15.5,59.1,15.8,57.9z"/>
	<path class="st15" d="M63.4,26.3c0-0.8,0-1.6,0.1-2.4c0.1-0.7,0.3-1.4,0.5-2.2c0.9,0.4,0.6,1,0.7,1.6c-0.2,0.3-0.4,0.6-0.5,1
		C63.8,24.9,63.6,25.6,63.4,26.3z"/>
	<path class="st3" d="M22.5,60.7c0.4-1.3,1.4-0.5,2.2-0.7C23.9,60.2,23.2,60.5,22.5,60.7z"/>
	<path class="st3" d="M30,58.3c0.1-1.1,0.8-0.7,1.5-0.7C31,57.8,30.5,58,30,58.3z"/>
	<path class="st3" d="M38.3,54.1c0-1,0.7-0.8,1.3-0.8C39.2,53.6,38.7,53.9,38.3,54.1z"/>
	<path class="st3" d="M37.1,54.9c0-0.7,0.5-0.8,1-0.6C37.7,54.5,37.4,54.7,37.1,54.9z"/>
	<path class="st15" d="M62.1,30c0.1-0.4,0.3-0.8,0.4-1.2C62.4,29.2,62.2,29.6,62.1,30z"/>
	<path class="st3" d="M34.2,56.3c0.4-0.2,0.8-0.4,1.1-0.5C35,56,34.6,56.2,34.2,56.3z"/>
	<path class="st3" d="M28.4,58.9c0.2-0.8,0.8-0.5,1.3-0.5C29.2,58.5,28.8,58.7,28.4,58.9z"/>
	<path class="st3" d="M25.9,59.8c0.1-0.9,0.8-0.5,1.3-0.5C26.8,59.4,26.3,59.6,25.9,59.8z"/>
	<path class="st3" d="M32.5,57.2c0.3-0.1,0.6-0.3,0.9-0.4C33.1,56.9,32.8,57,32.5,57.2z"/>
	<path class="st3" d="M33.7,56.6c0.2-0.1,0.3-0.2,0.5-0.3C34.1,56.4,33.9,56.5,33.7,56.6z"/>
	<path class="st3" d="M32.1,57.4c0.2-0.1,0.3-0.2,0.5-0.3C32.4,57.2,32.2,57.3,32.1,57.4z"/>
	<path class="st3" d="M35.4,55.8c0.2-0.1,0.3-0.2,0.5-0.3C35.7,55.6,35.6,55.7,35.4,55.8z"/>
	<path class="st15" d="M64.6,23.3c0.1,0.2,0.1,0.3,0.2,0.5C64.8,23.6,64.7,23.5,64.6,23.3z"/>
	<path class="st22" d="M86.8,39.5c1.6-7,3.2-13.6,4.8-20.6c2,0.1,3.9,0.1,5.8,0.4c3.5,0.6,5.4,2.6,5.7,6.1
		c0.4,4.4-1.5,10.5-6.7,12.8c-1.4,0.6-2.9,1-4.4,1.1C90.5,39.7,88.8,39.5,86.8,39.5z"/>
	<path class="st19" d="M239.1,22.9c0.2,1.6,0.4,3.3,0.6,4.9c0.2,1.6,0.4,3.3,0.6,5c-2.6,0-5,0-7.9,0c2-3.5,3.9-6.7,5.8-10
		C238.5,22.9,238.8,22.9,239.1,22.9z"/>
	<path class="st17" d="M239.1,22.9c-0.3,0-0.6,0-0.8,0c0.2-0.3,0.3-0.7,0.7-1.5C239,22.2,239,22.6,239.1,22.9z"/>
	<path class="st23" d="M225.2,51.7c0.5,0,0.9-0.1,1.3-0.1c0.8,0,1.5,0.2,1.8,1.1c0.2,0.8-0.3,1.8-1.2,2.2c-0.7,0.3-1.6,0.4-2.5,0.5
		C224.2,54,224.8,52.9,225.2,51.7z"/>
	<path class="st23" d="M247.1,56.2c-1.2,0-2,0-3.2,0c0.8-1.4,1.5-2.6,2.2-3.8c0.1,0,0.3,0,0.4,0.1C246.7,53.7,246.9,54.8,247.1,56.2
		z"/>
	<path class="st23" d="M134,52.7c0.1,1.1,0.2,2.3,0.2,3.5c-1,0-1.8,0-2.9,0c0.7-1.3,1.4-2.5,2-3.7C133.5,52.6,133.8,52.6,134,52.7z"
		/>
	<path class="st16" d="M134,52.7c-0.2-0.1-0.4-0.1-0.7-0.2c0.2-0.1,0.4-0.2,0.5-0.4C133.9,52.3,133.9,52.5,134,52.7z"/>
	<path class="st3" d="M35.1,53.5c0.2,0,0.5-0.1,0.7-0.1c0,0.3,0,0.5,0,0.8c-0.4,0-0.8,0-1.3,0C34.7,53.9,34.9,53.7,35.1,53.5z"/>
	<path class="st3" d="M36,53.2c0.2-0.1,0.4-0.3,0.6-0.4C36.4,53,36.2,53.1,36,53.2z"/>
	<path class="st3" d="M36.6,52.9c0.2-0.1,0.3-0.2,0.5-0.4C36.9,52.6,36.7,52.7,36.6,52.9z"/>
	<path class="st3" d="M28.3,52.9c-0.3,1.2-0.5,2.5-0.8,3.7c0-0.8-0.1-1.6,0.1-2.4C27.6,53.7,28,53.3,28.3,52.9z"/>
	<path class="st3" d="M29,49.6c-0.2,1.1-0.5,2.2-0.7,3.3C28.5,51.8,27.8,50.4,29,49.6z"/>
	<path class="st3" d="M27.5,57.3c0.6-0.2,1.1-0.3,1.7-0.5C28.9,57.9,28.2,57.6,27.5,57.3z"/>
	<path class="st3" d="M29.7,56.7c0.4-0.2,0.8-0.3,1.1-0.5C30.4,56.4,30,56.5,29.7,56.7z"/>
	<path class="st3" d="M31.4,55.9c0.4-0.2,0.7-0.4,1.1-0.5C32.1,55.5,31.7,55.7,31.4,55.9z"/>
	<path class="st3" d="M33,55c0.4-0.2,0.7-0.4,1.1-0.6C34,55.3,33.4,54.9,33,55z"/>
	<path class="st3" d="M30.8,56.2c0.2-0.1,0.3-0.2,0.5-0.3C31.1,56,30.9,56.1,30.8,56.2z"/>
	<path class="st3" d="M32.4,55.4c0.2-0.1,0.3-0.2,0.5-0.3C32.8,55.2,32.6,55.3,32.4,55.4z"/>
	<path class="st3" d="M34.1,54.5c0.2-0.1,0.3-0.2,0.5-0.3C34.4,54.2,34.2,54.4,34.1,54.5z"/>
</g>
</svg>
