<?xml version="1.0" encoding="utf-8"?>
<!-- Generator: Adobe Illustrator 21.0.0, SVG Export Plug-In . SVG Version: 6.00 Build 0)  -->
<svg version="1.1" id="Camada_1" xmlns="http://www.w3.org/2000/svg" xmlns:xlink="http://www.w3.org/1999/xlink" x="0px" y="0px"
	 viewBox="0 0 250.2 190.9" style="enable-background:new 0 0 250.2 190.9;" xml:space="preserve">
<style type="text/css">
	.st0{fill:#273D82;}
	.st1{fill:#040404;}
	.st2{fill:#050505;}
	.st3{fill:#060606;}
	.st4{fill:#131313;}
	.st5{fill:#D5D5D6;}
	.st6{fill:#F2F2F2;}
	.st7{fill:#273C82;}
</style>
<path class="st0" d="M115.9,7.3c9.2,0,18.3-0.2,27.5,0c17.9,0.5,31.3,8.7,40.1,24.4c4.3,7.6,6,16,5.2,24.6
	c-1.6,17.6-10.4,30.5-26.3,38.4c-6.2,3.1-12.8,4.4-19.8,4.4c-18,0-36.1,0-54.1,0c-21.1,0-39.7-14.6-44.5-35.2
	c-3.4-15.7,0.2-29.7,11-41.7c7.5-8.4,17-13.1,28.2-14.6c2.2-0.3,4.4-0.3,6.6-0.3C98.5,7.3,107.2,7.3,115.9,7.3L115.9,7.3z
	 M133.3,53.3c0-24.9-19.8-44.7-44.9-44.7c-23.9,0-44.3,19.3-44.3,44.6c0,25.1,20.2,44.6,44.6,44.6C113.4,97.9,133.3,77.9,133.3,53.3
	z"/>
<path class="st1" d="M25,113.2c0.1-0.4,0.2-0.7,0.2-0.9c4.6,0,9.1-0.2,13.6,0.1c6.6,0.4,11.1,6,10.7,12.9
	c-0.5,7.5-4.6,12.4-11.2,15.4c-2.5,1.2-5.2,1.6-8,1.6c-4.3,0-8.6,0-12.9,0c0-0.3,0-0.7,0-1c0.1,0,0.2-0.1,0.3-0.1
	c2.9,0.2,3.9-1.3,4.5-3.3c1.1-3.6,2.1-7.3,3.2-11c0.9-3.1,1.7-6.1,2.6-9.2c0.2-0.6,0.3-1.2,0.3-1.8c0-1.9-0.7-2.6-2.6-2.7
	C25.5,113.3,25.3,113.2,25,113.2z M45.2,124c-0.1-0.6-0.1-1.5-0.2-2.4c-0.4-2.3-1.1-4.5-3-6c-2-1.6-4.3-2-6.8-1.9
	c-0.8,0-1.3,0.4-1.5,1.2c-1.9,6.6-3.8,13.2-5.6,19.8c-0.4,1.3-0.8,2.7-1,4.1c-0.2,1.4,0.4,2,1.7,2.1c3.5,0.3,6.8-0.4,9.6-2.6
	C43,134.9,45.1,130.1,45.2,124z"/>
<path class="st2" d="M169.1,111.5c-0.9,3-1.7,6.1-2.6,9.1c-0.1,0.2-0.5,0.3-0.8,0.5c-0.1-1.2-0.1-2.2-0.2-3.2
	c-0.5-3.2-2.5-5-5.7-5.2c-3.4-0.2-6.3,1.1-8.8,3.2c-4.8,4.1-7.5,9.3-7.4,15.7c0.1,4.9,3.2,8.8,7.6,9.4c4.4,0.7,8-0.8,10.8-4.2
	c0.5-0.6,1-0.8,1.7-0.6c-0.8,1.5-1.8,2.7-3.1,3.6c-4.1,3.1-8.7,3.9-13.7,2.4c-6.1-1.9-8.7-7.4-8.2-12.8c0.8-9.4,9.9-17.1,17.5-18.1
	c2.7-0.3,5.2-0.1,7.7,0.8c0.4,0.2,0.9,0.3,1.3,0.5c1.3,0.4,1.8,0.2,2.7-0.8c0.3-0.3,0.7-0.5,1.1-0.7
	C169,111.3,169,111.4,169.1,111.5z"/>
<path class="st2" d="M201,111.5c0.3-0.2,0.5-0.6,0.8-0.7c2.1-0.4,4.3-0.8,6.4-1.2c0.1,0,0.2,0,0.3,0.1c-1.4,5-2.8,10-4.2,15
	c0.1,0,0.1,0.1,0.2,0.1c0.2-0.1,0.3-0.3,0.4-0.4c1.4-1.5,2.9-2.6,4.9-3.2c3.4-1,6.4,1,6.8,4.5c0.4,3-0.4,5.8-1.8,8.5
	c-1.8,3.5-4.2,6.4-7.9,8s-7,0.7-10-1.7c-0.2-0.1-0.2-0.6-0.2-0.9c1.6-5.5,3.1-11,4.7-16.6c0.9-3,1.7-6,2.6-9c0.5-2,0-2.6-2-2.4
	c-0.3,0-0.5,0-0.8,0C201.1,111.7,201.1,111.6,201,111.5z M212.9,128.3c0-0.6,0.1-1.1,0-1.7c-0.5-3.6-2.9-4.7-5.9-2.6
	c-0.1,0.1-0.2,0.1-0.3,0.2c-1.7,1.3-2.9,3-3.6,5c-1.2,3.4-2.1,6.9-3.2,10.3c-0.2,0.6,0,0.9,0.5,1.2c2.6,1.6,5.6,1.2,8-1.1
	C211.6,136.6,212.8,132.6,212.9,128.3z"/>
<path class="st2" d="M196.1,173.4c-1,2.1-2.5,3.6-4.5,4.8c-0.4,0.3-1,0.4-1.5,0.4c-1.1,0.1-1.9-0.5-1.9-1.6c0-0.9,0-1.8,0.3-2.6
	c1-3.7,2.1-7.4,3.1-11.1c0.2-0.9,0.4-1.8,0.4-2.7c0.1-1.3-0.7-1.8-1.8-1.1c-1.3,0.9-2.6,1.9-3.6,3c-3.8,4.1-6.4,8.8-7.6,14.3
	c-0.1,0.3-0.2,0.6-0.3,1c-1,0-2.1,0-3.2,0c0.6-2.2,1.2-4.3,1.8-6.4c1-3.5,2-6.9,2.9-10.4c0.4-1.7-0.2-2.4-2-2.2c-0.3,0-0.6,0-0.9,0
	c0-0.3,0-0.5,0-0.9c2.5-0.4,4.9-0.9,7.6-1.3c-0.8,3-1.5,5.8-2.3,8.7c0.1,0,0.1,0.1,0.2,0.1c0.5-0.7,1-1.4,1.6-2
	c1.8-1.8,3.5-3.7,5.4-5.4c0.9-0.8,2-1.4,3.4-1.3c1.4,0,2.4,0.7,2.4,2.1c0,1.4-0.1,2.9-0.5,4.3c-0.9,3.5-1.9,7-2.9,10.6
	c-0.1,0.2-0.1,0.4-0.1,0.6c0.1,0.5,0.2,1,0.3,1.5c0.5-0.2,1-0.2,1.4-0.5c0.5-0.4,0.9-1,1.4-1.5c0.3-0.3,0.7-0.5,1-0.7
	C196,173.2,196,173.3,196.1,173.4z"/>
<path class="st2" d="M93.6,158.8c0-0.3,0-0.6,0-0.9c2.5-0.4,5-0.9,7.6-1.3c-0.8,3-1.6,5.8-2.3,8.7c0.1,0,0.1,0.1,0.2,0.1
	c0.2-0.2,0.4-0.5,0.6-0.7c1.9-2.5,4-4.9,6.5-6.8c1-0.7,2.1-1.3,3.4-1.2c1.2,0.1,2.1,0.7,2.2,1.9c0.1,1.3,0,2.6-0.3,3.8
	c-1,3.8-2.1,7.6-3.1,11.3c-0.1,0.4-0.2,0.8-0.2,1.2c0,0.9,0.5,1.3,1.2,0.8s1.3-1.3,1.9-1.9c0.3-0.3,0.7-0.4,1.1-0.5
	c-1.2,2.5-2.8,4.6-5.6,5.3c-1.4,0.4-2.4-0.4-2.2-1.9c0.2-1.6,0.5-3.2,0.9-4.7c0.9-3.4,1.9-6.8,2.8-10.2c0.1-0.3,0.2-0.6,0.1-0.9
	c-0.1-0.5-0.2-1.3-0.5-1.5c-0.4-0.2-1.1,0-1.6,0.2c-2,1.2-3.4,3.1-4.9,4.9c-3,3.6-4.9,7.8-6,12.4c-0.2,0.8-0.5,1.1-1.3,1
	c-0.6-0.1-1.3,0-1.9,0c-0.1,0-0.1,0-0.3-0.1c0.6-2.1,1.2-4.3,1.8-6.4c0.9-3.2,1.8-6.5,2.8-9.7c0-0.2,0.1-0.3,0.1-0.5
	c0.4-1.9-0.2-2.5-2.1-2.4C94.2,158.8,93.9,158.8,93.6,158.8z"/>
<path class="st2" d="M47.5,173.4c-1.3,2.3-2.9,4.4-5.7,5.1c-1.4,0.4-2.3-0.3-2.3-1.8c0-1,0.2-2,0.5-3c1-3.6,2-7.1,3-10.6
	c0.2-0.8,0.4-1.7,0.4-2.6c0-1.1-0.7-1.6-1.6-1c-1.3,0.8-2.5,1.8-3.5,2.9c-3.9,4.1-6.7,8.9-7.8,14.5c-0.2,0.8-0.5,1.2-1.4,1.1
	c-0.7-0.1-1.4,0-2.2,0c1-3.6,2.1-7.2,3.1-10.8c0.5-1.8,1-3.7,1.5-5.5c0.1-0.3,0.1-0.6,0.2-0.9c0.2-1.3-0.4-2-1.8-2
	c-0.4,0-0.9,0.1-1.4,0.1c0-0.3,0.1-0.6,0.1-1c2.5-0.4,5-0.9,7.5-1.3c-0.8,2.9-1.5,5.8-2.3,8.7c0.1,0,0.1,0.1,0.2,0.1
	c0.2-0.2,0.4-0.5,0.6-0.7c1.8-2,3.6-4,5.5-5.9c0.8-0.8,1.9-1.4,2.9-1.8c2.3-0.9,4.2,0.5,3.8,3s-1.1,5-1.7,7.4
	c-0.6,2.4-1.3,4.7-1.9,7c-0.1,0.2-0.1,0.5-0.1,0.7c0,0.7,0.6,1.1,1.1,0.7c0.7-0.5,1.3-1.3,2-1.9c0.3-0.3,0.7-0.5,1-0.7
	C47.3,173.2,47.4,173.3,47.5,173.4z"/>
<path class="st2" d="M60.5,142.3c1.5-5.3,3-10.5,4.5-15.8c0.2-0.6,0.3-1.3,0.3-1.9c0-0.9-0.4-1.3-1.3-1.4c-0.6,0-1.2,0-1.8,0
	c0-0.3,0-0.5,0-0.9c2.5-0.4,4.9-0.9,7.6-1.3c-0.8,3-1.5,5.8-2.3,8.7c0.1,0,0.1,0.1,0.2,0.1c0.2-0.2,0.4-0.4,0.5-0.6
	c1.8-2.4,3.8-4.7,6.2-6.6c1.1-0.8,2.2-1.5,3.6-1.5s2.4,0.8,2.4,2.2c0,1.6-0.3,3.2-0.6,4.7c-0.9,3.5-2,7-2.9,10.6
	c-0.1,0.5,0.1,1.1,0.2,1.6c0.5-0.2,1.1-0.3,1.5-0.6c0.5-0.4,0.8-1,1.3-1.4c0.3-0.3,0.7-0.5,1.1-0.5c-1.1,2.5-2.7,4.4-5.3,5.2
	c-1.7,0.5-2.7-0.3-2.5-2c0.2-1.8,0.7-3.6,1.2-5.4c0.7-2.7,1.5-5.3,2.3-7.9c0.2-0.7,0.4-1.5,0.4-2.2c0-0.5-0.2-1.2-0.5-1.5
	c-0.3-0.2-1-0.1-1.4,0.1c-1.9,1-3.2,2.6-4.5,4.2c-3.3,3.9-5.5,8.2-6.5,13.2c-0.1,0.7-0.4,1-1.2,0.9
	C62.1,142.2,61.3,142.3,60.5,142.3z"/>
<path class="st2" d="M196.3,121.3c-0.6,2.1-1.1,4-1.7,6c-1,3.4-2,6.7-2.9,10.1c-0.2,0.7-0.3,1.4-0.3,2.2s0.6,1.1,1.2,0.7
	c0.7-0.5,1.3-1.2,1.9-1.9c0.4-0.5,0.7-0.8,1.5-0.5c-1.3,2.2-2.8,4.1-5.2,5c-1.8,0.7-3.1-0.2-2.9-2.1c0.3-2.3,0.9-4.5,1.4-6.7
	c0.1-0.4,0.2-0.7,0.1-1.1c-0.2,0.2-0.3,0.4-0.5,0.7c-1.9,2.9-4,5.7-6.7,8c-0.6,0.5-1.4,1-2.1,1.2c-2,0.8-3.6-0.3-3.7-2.4
	c0-1.3,0.2-2.7,0.6-4c0.9-3.5,2-7,2.9-10.5c0.1-0.5,0.2-1,0.2-1.5c0-0.8-0.6-1.2-1.3-0.7c-0.6,0.5-1.1,1.1-1.6,1.7
	c-0.4,0.6-0.9,0.9-1.7,0.6c1.3-2.5,3-4.4,5.7-5c1.6-0.4,2.6,0.4,2.4,2c-0.2,1.8-0.7,3.6-1.2,5.4c-0.8,3.1-1.6,6.1-2.4,9.2
	c0,0.1-0.1,0.2-0.1,0.3c-0.1,0.7-0.3,1.5,0.5,2s1.6,0.1,2.1-0.4c1.5-1.5,3-3.1,4.3-4.7c2.7-3.3,4.1-7.2,5.3-11.2
	c0.8-2.5,0.8-2.5,3.4-2.5C195.9,121.3,196,121.3,196.3,121.3z"/>
<path class="st2" d="M134.1,173.4c-1.4,2.3-2.8,4.4-5.5,5.1c-1.9,0.5-3-0.3-2.9-2.3c0.1-1.1,0.3-2.1,0.5-3.4c-0.4,0.5-0.7,0.8-1,1.1
	c-1.6,1.4-3,2.9-4.7,4c-3.3,2.1-6.7,0.3-7.1-3.6c-0.3-2.8,0.7-5.4,1.9-7.8c1.7-3.4,3.9-6.4,7.1-8.6c1.3-0.9,2.7-1.4,4.3-1.3
	c1.3,0.1,2.2,0.6,2.9,1.7c0.1,0.2,0.3,0.3,0.5,0.4c0.1-0.2,0.3-0.4,0.4-0.6c0.1-0.4,0.2-0.7,0.3-1.1c1-0.1,2-0.1,3.1-0.2
	c-0.5,2.1-1.1,4-1.6,6c-1,3.7-2,7.5-3,11.2c-0.1,0.2-0.2,0.5-0.1,0.7c0,0.4,0.1,1.2,0.3,1.2c0.5,0.1,1.2,0.1,1.5-0.2
	c0.6-0.4,1-1,1.4-1.7C132.8,173.4,133.3,173.1,134.1,173.4z M116.6,172.2c0.1,0,0.2,0,0.2,0.1c0,0.4,0,0.8,0.1,1.2
	c0.4,2,1.5,2.8,3.4,2.1c1-0.3,2.1-0.9,2.9-1.6c3.4-3.2,5.3-7.3,5.8-12c0.1-1.2,0-2.3-0.7-3.4c-0.5-0.8-1.3-1.1-2.2-0.9
	c-1.4,0.2-2.5,1-3.4,2c-2,2.1-3.5,4.5-4.5,7.2C117.6,168.7,117.2,170.5,116.6,172.2z"/>
<path class="st2" d="M214.3,156.9c0.2,0,0.4,0,0.5-0.1c0.8-0.1,1.7-0.1,2.6-0.2c-0.8,3.1-1.6,6.1-2.4,9c-0.8,2.9-1.5,5.7-2.3,8.6
	c-0.1,0.5-0.4,1.3,0.3,1.5c0.5,0.1,1.2-0.1,1.7-0.5c0.5-0.3,0.9-0.9,1.1-1.4c0.4-0.7,0.9-0.9,1.7-0.6c-1.4,2.3-2.8,4.4-5.5,5.1
	c-2,0.5-3.1-0.5-2.8-2.5c0.1-1,0.3-2,0.5-3.2c-0.9,1-1.6,1.8-2.5,2.6c-1.1,1-2.3,2-3.6,2.7c-3.1,1.8-6.1,0.2-6.8-3.3
	c-0.4-2.2,0.1-4.2,0.9-6.2c1.6-3.9,3.8-7.4,7.2-10.1c1.5-1.2,3.1-2.1,5.1-1.9c1.3,0.1,2.3,0.6,3,1.7c0.1,0.2,0.3,0.3,0.5,0.4
	c0.1-0.2,0.3-0.3,0.3-0.5C214.1,157.8,214.2,157.4,214.3,156.9z M212.7,161.1c-0.1-0.5-0.3-1.3-0.7-2.1c-0.5-1.1-1.4-1.5-2.6-1.2
	c-1.4,0.3-2.5,1.2-3.4,2.2c-2.6,2.9-4.3,6.3-5.3,10.1c-0.4,1.4-0.5,2.8,0,4.2c0.4,1.1,1.1,1.6,2.3,1.6c1.3-0.1,2.5-0.6,3.4-1.5
	C210.2,170.9,212.1,166.5,212.7,161.1z"/>
<path class="st1" d="M24.2,176.8c-0.1,0.4-0.2,0.7-0.3,1c-3.9,0-7.7,0-11.7,0c0.1-0.3,0.1-0.7,0.2-1c2.6-0.2,3.7-1,4.4-3.6
	c2-7.1,3.9-14.3,5.8-21.4c0.4-1.6-0.7-3-2.3-3.2c-0.3,0-0.6,0-1,0c0.1-0.4,0.1-0.7,0.2-1c4.1,0,8.2,0,12.3,0c-0.1,0.3-0.1,0.7-0.2,1
	c-3.1,0.4-3.9,1.1-4.8,4.1c-1.9,6.7-3.8,13.4-5.6,20.1c-0.1,0.5-0.3,1-0.3,1.5c-0.1,1.6,0.7,2.5,2.3,2.5
	C23.6,176.8,23.8,176.8,24.2,176.8z"/>
<path class="st2" d="M156.7,169.8c0.1-2.7,1.9-6.1,4.7-9c1.9-2,4.2-3.5,7-4.1c4.4-0.8,7.8,1.9,7.9,6.4c0.1,4.4-1.8,8-4.5,11.2
	c-1.3,1.5-2.8,2.8-4.6,3.6C162.3,180.2,156.5,177.4,156.7,169.8z M172.8,162.6c-0.1-0.7-0.1-1.3-0.2-2c-0.4-2-2-3.3-4-2.9
	c-0.9,0.2-1.9,0.7-2.6,1.3c-1.7,1.3-2.7,3.2-3.5,5.1c-1.3,3.1-2.2,6.2-2,9.6c0.2,3,2.4,4.4,5.3,3.4c1.4-0.5,2.4-1.3,3.2-2.5
	C171.5,171,172.4,166.8,172.8,162.6z"/>
<path class="st2" d="M87,133.4c-0.6,1.6-0.6,3.1,0,4.7c0.8,2.3,3.5,3.5,6,2.6c1.1-0.4,2.1-1.1,3-1.9c0.5-0.4,0.8-0.4,1.4-0.1
	c-1.7,2-3.8,3.5-6.3,4.2c-5.2,1.5-9.4-2.6-8.5-7.8c1-5.7,4.1-10.2,9.4-12.9c1.9-1,4.1-1.3,6.2-0.8c2.5,0.7,3.4,2.5,2.5,4.9
	c-0.6,1.6-1.7,2.7-3,3.7c-2.5,2-5.4,2.9-8.5,3.3C88.5,133.2,87.8,133.3,87,133.4z M87.2,132c2.5,0,4.8-0.3,6.7-1.8
	c1.9-1.4,3.3-3.2,3.6-5.7c0.1-1.7-0.9-2.7-2.6-2.3c-1,0.2-2,0.7-2.8,1.3C89.6,125.8,88.2,128.7,87.2,132z"/>
<path class="st3" d="M73.8,174.1c-1.7,2.5-6,5.1-9.7,4.4c-3.3-0.6-5.7-4.1-5.1-7.6c1-5.9,4.1-10.5,9.5-13.3c1.9-1,4-1.3,6.2-0.8
	c2.4,0.5,3.5,2.4,2.7,4.8c-0.5,1.5-1.6,2.7-2.8,3.7c-2.7,2.2-5.9,3.2-9.3,3.5c-2,0.2-2,0.2-2.1,2.2c-0.1,1.8,0.3,3.6,2,4.6
	c1.7,1.1,3.6,1.1,5.3,0.2c0.7-0.4,1.4-0.9,2-1.4C72.8,173.9,73.2,173.8,73.8,174.1z M63.6,167.7c1.3-0.1,2.3-0.2,3.3-0.4
	c3.6-0.7,6.5-3.6,7-6.9c0.3-1.7-0.9-3-2.7-2.6c-0.8,0.2-1.6,0.5-2.2,1C66.2,160.9,64.7,164,63.6,167.7z"/>
<path class="st2" d="M222.8,147c0.1-0.7,0.4-1,1.1-1.1c1.9-0.2,3.8-0.5,5.9-0.8c-0.8,2.9-1.6,5.7-2.4,8.5
	c-1.9,6.8-3.8,13.5-5.8,20.3c-0.1,0.5-0.2,1-0.3,1.5c0,0.3,0.1,0.8,0.2,0.8c0.3,0.1,0.7,0,0.9-0.1c0.6-0.5,1.2-1,1.7-1.6
	c0.4-0.5,0.8-0.7,1.5-0.5c-1.3,2-2.7,3.9-5.3,4.5c-1.7,0.4-2.8-0.4-2.5-2.1c0.3-2,0.8-3.9,1.4-5.8c2-7.1,4.1-14.2,6.1-21.3v-0.1
	c0.5-1.9,0.1-2.4-1.8-2.2C223.3,147,223,147,222.8,147z"/>
<path class="st1" d="M173.8,138.5c-1,1.6-2.2,3.2-3.9,4c-0.4,0.2-0.8,0.3-1.1,0.4c-1.9,0.4-3.1-0.5-2.7-2.4c0.5-2.5,1.2-4.9,1.9-7.3
	c1.8-6.4,3.7-12.9,5.5-19.3c0.6-2.1,0.4-2.4-1.9-2.5c-0.2,0-0.4,0-0.6,0c0-0.7,0.3-1,1.1-1.1c1.9-0.2,3.8-0.5,5.9-0.8
	c-0.6,2.3-1.2,4.4-1.9,6.6c-2.1,7.4-4.2,14.8-6.3,22.3c-0.2,0.5-0.3,1.1-0.3,1.6c0,0.8,0.4,1,1,0.6c0.7-0.5,1.4-1.1,2-1.7
	C172.8,138.5,173.2,138.2,173.8,138.5z"/>
<path class="st3" d="M128.8,121.3c-0.4,2-0.8,4.1-1.2,6.1c0,0.2-0.3,0.3-0.5,0.5c-0.3-1.2-0.4-2.4-0.9-3.4c-0.4-0.8-1.2-1.6-2-2.2
	c-1-0.7-2.3-0.5-3.2,0.2c-1,0.8-1.3,1.9-0.8,3.1c0.4,0.9,0.9,1.9,1.4,2.7c1,1.7,2.2,3.2,3.2,4.9c2.2,3.8,0.2,8.5-4.1,9.5
	c-1.9,0.5-3.8,0.1-5.6-0.7c-0.8-0.4-1.5-0.6-2.2,0.2c-0.1,0.1-0.5,0.1-0.8,0.2c0.4-2.3,0.8-4.4,1.3-6.5c0-0.2,0.3-0.3,0.4-0.4
	c0.1,0.2,0.3,0.4,0.3,0.5c0,1.6,0.3,3.2,1.6,4.4c1.4,1.4,3.9,1.7,5.4,0.6c1.5-1.1,2-3.3,1-5.1s-2.2-3.4-3.3-5.1
	c-0.9-1.3-1.6-2.6-1.8-4.2c-0.4-3.8,3.2-6.4,6.4-5.8c0.8,0.1,1.6,0.5,2.3,0.8c1,0.5,1.3,0.5,2.1-0.3c0.2-0.2,0.5-0.3,0.8-0.4
	C128.7,121.2,128.7,121.3,128.8,121.3z"/>
<path class="st3" d="M83.4,165.4c0.3-0.5,0.6-1.1,0.9-1.6c1.3-1.9,2.5-3.8,3.9-5.6c0.6-0.7,1.5-1.2,2.4-1.5c0.9-0.4,1.7,0.2,1.8,1.2
	c0.2,1.4-0.3,2.7-1.3,3.7c-0.8,0.8-1.6,0.6-2.1-0.5c-0.4-1-0.9-1.1-1.5-0.2c-1.1,1.5-2,3.1-2.9,4.7c-1.9,3.6-3.5,7.4-4.4,11.4
	c-0.2,0.7-0.5,1-1.2,0.9s-1.3,0-2.1,0c0.6-2.5,1.3-4.9,1.8-7.3c0.8-3.1,1.5-6.3,2.2-9.4c0.4-2-0.1-2.4-2.1-2.2c-0.1,0-0.2,0-0.4,0
	c-0.1-0.6,0-0.9,0.6-1c2-0.4,4-0.9,6.2-1.4c-0.7,3-1.4,5.8-2.1,8.7C83.2,165.3,83.3,165.4,83.4,165.4z"/>
<path class="st2" d="M103.4,142.3c-1,0-1.9,0-3,0c0.5-2.1,1-4.2,1.5-6.2c0.8-3.4,1.6-6.9,2.5-10.3c0-0.1,0.1-0.2,0.1-0.3
	c0.2-1.7-0.3-2.2-2-2c-0.2,0-0.4,0-0.7,0.1c0-0.3,0-0.6,0.1-0.9c2.2-0.5,4.4-1,6.8-1.5c-0.7,3-1.4,5.9-2.1,8.7
	c0.1,0,0.1,0.1,0.2,0.1c0.2-0.2,0.3-0.4,0.5-0.7c1.3-2,2.5-4.1,3.9-6.1c0.5-0.7,1.4-1.3,2.2-1.7c1.6-0.8,2.8,0.1,2.5,1.8
	c-0.2,1-0.7,2-1.3,2.8c-0.7,0.9-1.7,0.7-2.1-0.4c-0.4-1-1-1.1-1.6-0.2c-1,1.5-2,3.1-2.8,4.7c-1.9,3.7-3.5,7.5-4.5,11.6
	C103.6,141.8,103.5,142,103.4,142.3z"/>
<path class="st2" d="M143.6,173.8c-1.4,2.3-3.1,4.1-5.7,4.8c-2.2,0.6-3.5-0.5-3.3-2.8c0.1-1.1,0.4-2.2,0.7-3.3
	c1.2-4.4,2.4-8.8,3.6-13.1c0.1-0.2,0.1-0.4,0.2-0.8c-1.1,0-2.1,0-3.4,0c0.4-0.5,0.6-0.9,0.9-1c3-0.8,5-2.9,6.6-5.4
	c0.2-0.3,0.6-0.5,1-0.7c0.1,0.1,0.1,0.1,0.2,0.2c-0.5,1.8-0.9,3.7-1.4,5.6c1,0,1.9,0,3,0c-0.1,0.5-0.2,0.8-0.4,1.2
	c-0.8,0-1.7,0-2.5,0c-0.3,0-0.6,0.3-0.7,0.5c-1.4,4.9-2.9,9.9-4.2,14.9c-0.2,0.6-0.1,1.3-0.1,1.9c0.1,0.7,0.6,1,1.2,0.6
	c0.9-0.6,1.9-1.3,2.6-2.1C142.4,173.9,142.7,173.6,143.6,173.8z"/>
<path class="st2" d="M53.1,158.6c-1.1,0-2.1,0-3.4,0c0.4-0.5,0.6-0.9,0.9-1c2.9-0.8,4.9-2.8,6.5-5.2c0.5-0.7,0.4-0.7,1.3-0.5
	c-0.5,1.8-0.9,3.6-1.4,5.5c1,0,2,0,3,0c-0.1,0.5-0.2,0.8-0.4,1.2c-0.8,0-1.7,0-2.5,0c-0.5,0-0.7,0.1-0.8,0.6
	c-1.4,4.9-2.8,9.9-4.2,14.8c-0.1,0.5-0.2,1.1-0.2,1.6c0.1,1.1,0.7,1.4,1.5,0.8c0.9-0.6,1.7-1.3,2.5-2.1c0.5-0.5,0.8-0.7,1.6-0.5
	c-1.5,2.4-3.3,4.4-6.2,4.9c-1.5,0.3-2.6-0.6-2.7-2.2c0-0.9,0.1-1.8,0.3-2.7c1.3-4.9,2.7-9.8,4-14.7C53,159,53,158.8,53.1,158.6z"/>
<path class="st2" d="M59.6,121c-0.9,3.2-1.8,6.3-2.7,9.4c-0.8,3-1.6,5.9-2.4,8.9c-0.1,0.4,0.1,0.9,0.2,1.3c0.4-0.1,0.9-0.1,1.2-0.4
	c0.6-0.5,1.2-1.2,1.8-1.8c0.4-0.5,0.8-0.7,1.5-0.5c-1.5,2.2-2.9,4.4-5.7,5.2c-1.6,0.4-2.6-0.4-2.5-2.1c0.1-1.3,0.4-2.7,0.7-4
	c1-3.6,2.1-7.2,3.1-10.8c0.7-2.5,0.6-3.5-2.3-3.1c-0.1,0-0.2,0-0.2,0c-0.2-0.8,0.2-1,0.9-1.1C55.2,121.7,57.3,121.3,59.6,121z"/>
<path class="st2" d="M148.2,158.6c0.1-0.4,0.1-0.6,0.1-0.9c2.4-0.3,4.7-0.7,7.3-1c-0.3,1.1-0.6,2.1-0.9,3.1
	c-1.3,4.5-2.6,9.1-3.9,13.6c-0.2,0.7-0.4,1.4-0.4,2.1c-0.1,0.9,0.5,1.2,1.1,0.7c0.8-0.6,1.5-1.4,2.2-2.1c0.4-0.5,0.8-0.7,1.5-0.5
	c-1.2,2-2.6,3.7-4.6,4.8c-0.4,0.2-0.9,0.4-1.3,0.4c-1.6,0.2-2.5-0.5-2.3-2.1c0.2-1.9,0.7-3.7,1.2-5.6c0.9-3.3,1.8-6.6,2.8-9.9
	c0.1-0.2,0.1-0.5,0.1-0.7c0.1-1.4-0.3-1.9-1.7-1.8C149,158.6,148.6,158.6,148.2,158.6z"/>
<path class="st3" d="M59.2,116.3c-1.2,0-2.1-0.9-2.1-2.1c0-1.1,0.9-2.1,2-2.1c1.2,0,2.2,1,2.2,2.1C61.3,115.3,60.3,116.3,59.2,116.3
	z"/>
<path class="st2" d="M157.3,149.7c0,1.2-0.9,2.1-2.1,2.1c-1.2,0-2.1-0.9-2.2-2.1c0-1.1,1-2.2,2.1-2.2
	C156.3,147.6,157.3,148.5,157.3,149.7z"/>
<path class="st4" d="M229.7,151.4c0-2,1.6-3.6,3.6-3.6s3.6,1.6,3.6,3.6s-1.7,3.6-3.7,3.6C231.3,155.1,229.7,153.5,229.7,151.4z
	 M230.3,151.5c0,1.7,1.4,3.1,3.1,3.1c1.6,0,3-1.4,3.1-3c0-1.7-1.4-3.1-3-3.1C231.7,148.4,230.3,149.8,230.3,151.5z"/>
<path class="st5" d="M133.3,53.3c0,24.6-19.9,44.6-44.6,44.6c-24.4,0-44.6-19.5-44.6-44.6C44.1,28,64.6,8.7,88.4,8.7
	C113.5,8.6,133.3,28.4,133.3,53.3z M80.2,79.3c0-17.4,0-34.7,0-52C69.4,30.6,59.7,42,61.6,56.9c0.8,6.5,3.7,12,8.4,16.4
	C72.9,76,76.3,78,80.2,79.3z M97.3,27.2c0,17.4,0,34.7,0,52c9-2.6,18.4-11.9,18.8-25C116.6,40.1,106.8,30,97.3,27.2z"/>
<path class="st6" d="M230.3,151.5c0-1.7,1.4-3.1,3.1-3c1.7,0,3.1,1.4,3,3.1c0,1.6-1.4,3-3.1,3C231.7,154.6,230.3,153.2,230.3,151.5z
	 M234.4,153.3c0.3-0.9-0.1-1.6,0.2-2.4c0.2-0.5-0.2-1-0.8-1s-1.2,0-1.9,0c0,1,0,2,0,2.9c0,0.2,0.3,0.3,0.6,0.6
	c0.1-0.7,0.1-1.1,0.1-1.5c0.7-0.1,1.2-0.2,1.2,0.8C233.9,152.9,234.2,153.1,234.4,153.3z"/>
<path class="st7" d="M80.2,79.3C76.3,78,72.9,76,70,73.2c-4.7-4.5-7.6-10-8.4-16.4C59.8,42,69.4,30.6,80.2,27.2
	C80.2,44.5,80.2,61.8,80.2,79.3z"/>
<path class="st7" d="M97.3,27.2c9.5,2.7,19.3,12.8,18.8,26.9c-0.4,13.1-9.8,22.4-18.8,25C97.3,61.9,97.3,44.6,97.3,27.2z"/>
<path class="st4" d="M234.4,153.3c-0.2-0.2-0.5-0.4-0.5-0.6c0-0.9-0.5-0.9-1.2-0.8c0,0.4-0.1,0.8-0.1,1.5c-0.3-0.3-0.6-0.5-0.6-0.6
	c0-1,0-1.9,0-2.9c0.7,0,1.3,0,1.9,0c0.6,0,1,0.5,0.8,1C234.3,151.6,234.7,152.3,234.4,153.3z M232.6,151.5c0.5-0.2,0.9-0.4,1.3-0.5
	c-0.1-0.2-0.2-0.4-0.3-0.5c-0.3-0.1-0.7,0-1,0C232.6,150.7,232.6,150.9,232.6,151.5z"/>
<path class="st5" d="M232.6,151.5c0-0.5,0-0.7,0-1c0.4,0,0.7,0,1,0c0.1,0,0.2,0.3,0.3,0.5C233.5,151.1,233.1,151.2,232.6,151.5z"/>
</svg>
