<?xml version="1.0" encoding="utf-8"?>
<!-- Generator: Adobe Illustrator 21.0.0, SVG Export Plug-In . SVG Version: 6.00 Build 0)  -->
<svg version="1.1" id="Camada_1" xmlns="http://www.w3.org/2000/svg" xmlns:xlink="http://www.w3.org/1999/xlink" x="0px" y="0px"
	 viewBox="0 0 250 313.3" style="enable-background:new 0 0 250 313.3;" xml:space="preserve">
<style type="text/css">
	.st0{fill:#016938;}
	.st1{fill:#027B38;}
	.st2{fill:#89BC49;}
	.st3{fill:#92C142;}
	.st4{clip-path:url(#SVGID_2_);}
	.st5{fill:#3C9C36;}
	.st6{fill:#F49C0B;}
	.st7{opacity:0.67;fill:#E48316;enable-background:new    ;}
	.st8{fill:#FBCA76;}
	.st9{opacity:0.5;fill:#F9C187;enable-background:new    ;}
	.st10{fill:#D17311;}
	.st11{clip-path:url(#SVGID_4_);fill:#CA6213;}
	.st12{clip-path:url(#SVGID_6_);fill:#C56415;}
	.st13{fill:#D8B997;}
	.st14{fill:#F1D2AE;}
	.st15{fill:#C8A57E;}
</style>
<g>
	<path class="st0" d="M104,23l-97.6,214c-3.1,6.8-0.1,14.9,6.7,18l93.6,42.7c6.8,3.1,14.9,0.1,18-6.7l97.6-214
		c3.1-6.8,0.1-14.9-6.7-18l-93.6-42.7C115.2,13.2,107.1,16.2,104,23z"/>
	<path class="st1" d="M55.1,31.1L42.6,266.1c-0.4,7.5,5.4,13.9,12.8,14.3l102.7,5.5c7.5,0.4,13.9-5.4,14.3-12.8L185,38.1
		c0.4-7.5-5.4-13.9-12.8-14.3L69.4,18.3C62,17.9,55.5,23.7,55.1,31.1z"/>
	<path class="st2" d="M15.5,61.9l81.9,220.5c2.6,7,10.5,10.6,17.4,8l96.5-35.8c7-2.6,10.6-10.5,8-17.4L137.4,16.6
		c-2.6-7-10.5-10.6-17.4-8L23.5,44.5C16.5,47.1,12.9,54.9,15.5,61.9z"/>
	<path class="st3" d="M15.5,61.9l81.9,220.5c2.6,7,10.5,10.6,17.4,8l96.5-35.8c7-2.6,10.6-10.5,8-17.4L137.4,16.6
		c-2.6-7-10.5-10.6-17.4-8L23.5,44.5C16.5,47.1,12.9,54.9,15.5,61.9z"/>
	<g>
		<g>
			<defs>
				<path id="SVGID_1_" d="M15.5,61.9l81.9,220.5c2.6,7,10.5,10.6,17.4,8l96.5-35.8c7-2.6,10.6-10.5,8-17.4L137.4,16.6
					c-2.6-7-10.5-10.6-17.4-8L23.5,44.5C16.5,47.1,12.9,54.9,15.5,61.9z"/>
			</defs>
			<clipPath id="SVGID_2_">
				<use xlink:href="#SVGID_1_"  style="overflow:visible;"/>
			</clipPath>
			<g class="st4">
				<path class="st5" d="M44.5,33.7c0.4,0.8,0.8,1.7,1.1,2.6v0l52.2-19.4c0,0,0,0,0,0c-0.3-0.9-0.6-1.8-0.8-2.7L135.1,0l13.8,37.2
					c-1,0.5-2,0.9-3,1.3l65.5,176.4c1-0.4,2.1-0.7,3.1-0.9l15.8,42.5L193,270.3c-1.5-2.3-2.8-4.8-3.8-7.5v0l-52.2,19.4c0,0,0,0,0,0
					c1,2.7,1.6,5.4,2,8.2l-36.1,13.4L87,261.3c0.7-0.3,1.4-0.7,2.2-0.9L23.7,84c-0.7,0.3-1.5,0.5-2.3,0.7L7.5,47.4L44.5,33.7z
					 M33.9,78.2L100.7,258c11.7-0.4,23.1,4.7,30.4,13.9l55.8-20.7c-0.4-11.9,4.9-23.4,14.3-30.7L134.5,41
					c-11.9,0.6-23.4-4.6-30.9-13.9L47.8,47.8C48.3,59.5,43.1,70.9,33.9,78.2z"/>
			</g>
		</g>
	</g>
	
		<ellipse transform="matrix(0.9374 -0.3483 0.3483 0.9374 -44.7265 50.2434)" class="st5" cx="117.4" cy="149.5" rx="40.1" ry="31.4"/>
	<path class="st5" d="M70.4,72.9l8.5,22.8c3,8.1,11.9,12.2,20,9.2l1.5-0.6c8.1-3,12.2-11.9,9.2-20l-8.5-22.8
		c-3-8.1-11.9-12.2-20-9.2l-1.5,0.6C71.5,55.9,67.4,64.8,70.4,72.9z"/>
	<path class="st5" d="M123.3,215.2l8.5,22.8c3,8.1,11.9,12.2,20,9.2l1.5-0.6c8.1-3,12.2-11.9,9.2-20l-8.5-22.8
		c-3-8.1-11.9-12.2-20-9.2l-1.5,0.6C124.4,198.2,120.3,207.2,123.3,215.2z"/>
</g>
<path class="st6" d="M229.3,313.3H13.6c-7.5,0-13.6-6.1-13.6-13.6V141.2c0-7.5,6.1-13.6,13.6-13.6h215.7c7.5,0,13.6,6.1,13.6,13.6
	v158.6C242.9,307.3,236.8,313.3,229.3,313.3z"/>
<path class="st7" d="M228.6,127.6h-10.7c7.9,0,14.3,6.4,14.3,14.3v103.4l-75.7-6.7l71,71c-2.5,2.3-5.9,3.8-9.6,3.8h10.7
	c7.9,0,14.3-6.4,14.3-14.3V141.9C242.9,134,236.5,127.6,228.6,127.6z"/>
<path class="st8" d="M200.6,299.4h-7.2c-1,0-1.8-0.8-1.8-1.8s0.8-1.8,1.8-1.8h7.2c1,0,1.8,0.8,1.8,1.8
	C202.4,298.6,201.6,299.4,200.6,299.4z M175.5,299.4h-7.2c-1,0-1.8-0.8-1.8-1.8s0.8-1.8,1.8-1.8h7.2c1,0,1.8,0.8,1.8,1.8
	C177.3,298.6,176.5,299.4,175.5,299.4z M150.4,299.4h-7.2c-1,0-1.8-0.8-1.8-1.8s0.8-1.8,1.8-1.8h7.2c1,0,1.8,0.8,1.8,1.8
	C152.2,298.6,151.4,299.4,150.4,299.4z M125.3,299.4h-7.2c-1,0-1.8-0.8-1.8-1.8s0.8-1.8,1.8-1.8h7.2c1,0,1.8,0.8,1.8,1.8
	C127.1,298.6,126.3,299.4,125.3,299.4z M100.2,299.4h-7.2c-1,0-1.8-0.8-1.8-1.8s0.8-1.8,1.8-1.8h7.2c1,0,1.8,0.8,1.8,1.8
	C102,298.6,101.2,299.4,100.2,299.4z M75.1,299.4H68c-1,0-1.8-0.8-1.8-1.8s0.8-1.8,1.8-1.8h7.2c1,0,1.8,0.8,1.8,1.8
	C76.9,298.6,76.1,299.4,75.1,299.4z M50,299.4h-7.2c-1,0-1.8-0.8-1.8-1.8s0.8-1.8,1.8-1.8H50c1,0,1.8,0.8,1.8,1.8
	C51.8,298.6,51,299.4,50,299.4z M24.9,299.4L24.9,299.4c-3.1,0-5.5-2.4-5.5-5.4v-1.6c0-1,0.8-1.8,1.8-1.8s1.8,0.8,1.8,1.8v1.6
	c0,1,0.8,1.8,1.8,1.8c1,0,1.8,0.8,1.8,1.8C26.7,298.6,25.9,299.4,24.9,299.4z M218.6,299.3c-0.9,0-1.6-0.6-1.8-1.5
	c-0.2-1,0.5-1.9,1.5-2c0.9-0.1,1.5-0.9,1.5-1.8v-2.1c0-1,0.8-1.8,1.8-1.8c1,0,1.8,0.8,1.8,1.8v2.1c0,2.7-1.9,4.9-4.5,5.3
	C218.7,299.3,218.6,299.3,218.6,299.3z M21.3,276.3c-1,0-1.8-0.8-1.8-1.8v-7.2c0-1,0.8-1.8,1.8-1.8s1.8,0.8,1.8,1.8v7.2
	C23.1,275.5,22.3,276.3,21.3,276.3z M221.6,275.8c-1,0-1.8-0.8-1.8-1.8v-7.2c0-1,0.8-1.8,1.8-1.8c1,0,1.8,0.8,1.8,1.8v7.2
	C223.4,275,222.6,275.8,221.6,275.8z M21.3,251.2c-1,0-1.8-0.8-1.8-1.8v-7.2c0-1,0.8-1.8,1.8-1.8s1.8,0.8,1.8,1.8v7.2
	C23.1,250.4,22.3,251.2,21.3,251.2z M21.3,226.1c-1,0-1.8-0.8-1.8-1.8v-7.2c0-1,0.8-1.8,1.8-1.8s1.8,0.8,1.8,1.8v7.2
	C23.1,225.3,22.3,226.1,21.3,226.1z M21.3,201c-1,0-1.8-0.8-1.8-1.8v-7.2c0-1,0.8-1.8,1.8-1.8s1.8,0.8,1.8,1.8v7.2
	C23.1,200.2,22.3,201,21.3,201z M21.3,175.9c-1,0-1.8-0.8-1.8-1.8V167c0-1,0.8-1.8,1.8-1.8s1.8,0.8,1.8,1.8v7.2
	C23.1,175.1,22.3,175.9,21.3,175.9z M221.6,175.4c-1,0-1.8-0.8-1.8-1.8v-7.2c0-1,0.8-1.8,1.8-1.8c1,0,1.8,0.8,1.8,1.8v7.2
	C223.4,174.6,222.6,175.4,221.6,175.4z M21.3,150.8c-1,0-1.8-0.8-1.8-1.8V147c0-2.6,2-4.9,4.6-5.3c1-0.1,1.9,0.5,2,1.5
	c0.1,1-0.5,1.9-1.5,2c-0.9,0.1-1.5,0.9-1.5,1.8v2.1C23.1,150,22.3,150.8,21.3,150.8z M221.6,150.3c-1,0-1.8-0.8-1.8-1.8V147
	c0-1-0.8-1.8-1.8-1.8c-1,0-1.8-0.8-1.8-1.8c0-1,0.8-1.8,1.8-1.8h0c3,0,5.4,2.4,5.4,5.4v1.5C223.4,149.5,222.6,150.3,221.6,150.3z
	 M200,145.2h-7.2c-1,0-1.8-0.8-1.8-1.8c0-1,0.8-1.8,1.8-1.8h7.2c1,0,1.8,0.8,1.8,1.8C201.8,144.4,201,145.2,200,145.2z M174.9,145.2
	h-7.2c-1,0-1.8-0.8-1.8-1.8c0-1,0.8-1.8,1.8-1.8h7.2c1,0,1.8,0.8,1.8,1.8C176.7,144.4,175.9,145.2,174.9,145.2z M149.8,145.2h-7.2
	c-1,0-1.8-0.8-1.8-1.8c0-1,0.8-1.8,1.8-1.8h7.2c1,0,1.8,0.8,1.8,1.8C151.6,144.4,150.8,145.2,149.8,145.2z M124.7,145.2h-7.2
	c-1,0-1.8-0.8-1.8-1.8c0-1,0.8-1.8,1.8-1.8h7.2c1,0,1.8,0.8,1.8,1.8C126.5,144.4,125.7,145.2,124.7,145.2z M99.6,145.2h-7.2
	c-1,0-1.8-0.8-1.8-1.8c0-1,0.8-1.8,1.8-1.8h7.2c1,0,1.8,0.8,1.8,1.8C101.4,144.4,100.6,145.2,99.6,145.2z M74.5,145.2h-7.2
	c-1,0-1.8-0.8-1.8-1.8c0-1,0.8-1.8,1.8-1.8h7.2c1,0,1.8,0.8,1.8,1.8C76.3,144.4,75.5,145.2,74.5,145.2z M49.4,145.2h-7.2
	c-1,0-1.8-0.8-1.8-1.8c0-1,0.8-1.8,1.8-1.8h7.2c1,0,1.8,0.8,1.8,1.8C51.2,144.4,50.4,145.2,49.4,145.2z"/>
<path class="st9" d="M10.7,299.1V141.9c0-7.9,6.4-14.3,14.3-14.3H14.3C6.4,127.6,0,134,0,141.9v157.1c0,7.9,6.4,14.3,14.3,14.3H25
	C17.1,313.3,10.7,306.9,10.7,299.1z"/>
<path class="st10" d="M243.2,249.1h-66.1c-15,0-27.1-12.2-27.1-27.1v-2.9c0-15,12.2-27.1,27.1-27.1h66.1c3.7,0,6.8,3,6.8,6.8v43.6
	C250,246,247,249.1,243.2,249.1z"/>
<g>
	<g>
		<defs>
			<path id="SVGID_3_" d="M242.9,191.9h-17.2v57.1h17.2c3.9,0,7.1-3.2,7.1-7.1v-42.9C250,195.1,246.8,191.9,242.9,191.9z"/>
		</defs>
		<clipPath id="SVGID_4_">
			<use xlink:href="#SVGID_3_"  style="overflow:visible;"/>
		</clipPath>
		<rect x="239.3" y="178.9" class="st11" width="10.7" height="87.1"/>
	</g>
</g>
<g>
	<g>
		<defs>
			<path id="SVGID_5_" d="M243.2,249.1h-66.1c-15,0-27.1-12.2-27.1-27.1v-2.9c0-15,12.2-27.1,27.1-27.1h66.1c3.7,0,6.8,3,6.8,6.8
				v43.6C250,246,247,249.1,243.2,249.1z"/>
		</defs>
		<clipPath id="SVGID_6_">
			<use xlink:href="#SVGID_5_"  style="overflow:visible;"/>
		</clipPath>
		<polygon class="st12" points="168.4,230 189.4,250.6 226.2,250.6 187.2,211.6 		"/>
	</g>
</g>
<g>
	<circle class="st13" cx="177.5" cy="220.5" r="13.2"/>
	<path class="st14" d="M171.4,220.5c0-5.1,1.6-9.7,4.1-13c-6.4,0.9-11.3,6.4-11.3,13c0,6.6,4.9,12.1,11.3,13
		C173,230.2,171.4,225.6,171.4,220.5z"/>
	<path class="st15" d="M183.5,220.5c0,5.1-1.6,9.7-4.1,13c6.4-0.9,11.3-6.4,11.3-13c0-6.6-4.9-12.1-11.3-13
		C181.9,210.8,183.5,215.4,183.5,220.5z"/>
</g>
</svg>
