<?xml version="1.0" encoding="utf-8"?>
<!-- Generator: Adobe Illustrator 21.0.0, SVG Export Plug-In . SVG Version: 6.00 Build 0)  -->
<svg version="1.1" id="Camada_1" xmlns="http://www.w3.org/2000/svg" xmlns:xlink="http://www.w3.org/1999/xlink" x="0px" y="0px"
	 viewBox="0 0 250 41.9" style="enable-background:new 0 0 250 41.9;" xml:space="preserve">
<style type="text/css">
	.st0{fill:#252122;}
	.st1{fill:#262324;}
	.st2{fill:#272324;}
	.st3{fill:#262223;}
	.st4{fill:#F58935;}
	.st5{fill:#343031;}
	.st6{fill:#474445;}
	.st7{fill:#4A4748;}
	.st8{fill:#171213;}
	.st9{fill:#120E0F;}
	.st10{fill:#F6F6F6;}
	.st11{fill:#F69041;}
	.st12{fill:#F7974E;}
	.st13{fill:#F79D58;}
	.st14{fill:#F8A463;}
	.st15{fill:#F9AD73;}
	.st16{fill:#FAB884;}
	.st17{fill:#FBC396;}
	.st18{fill:#FCD0AD;}
	.st19{fill:#FDE0C7;}
</style>
<g>
	<path class="st0" d="M1,1c4.2,0,8.4,0,12.6,0c0.7,0.1,1.4,0.2,2.1,0.3C26.2,2.3,33.5,11,33,21.7c-0.5,10.6-8.9,18.8-19.3,19
		c-0.8-0.2-1.6-0.5-2.4-0.5c-2.6-0.1-5.2-0.1-7.8,0C1.4,40.3,1,39.5,1,37.6C1,25.4,1,13.2,1,1z M8.2,7.8c0,8.8,0,17.5,0,26.1
		c10.6,0.5,16.6-4.3,16.7-13C24.9,12.2,18.7,7.3,8.2,7.8z"/>
	<path class="st0" d="M220.9,40.1c0-13,0-25.9,0-38.7c5.6,0,11.1-0.5,16.5,0.1c5.6,0.7,8.8,4.9,9.1,10.4c0.3,5.9-2.2,9.7-7.8,11.8
		c-0.3,0.1-0.6,0.3-1.1,0.5c4,5.4,8,10.7,12.4,16.6c-3.5,0-6.2,0.1-8.9-0.1c-0.6,0-1.4-0.8-1.8-1.5c-2.9-4.2-5.7-8.5-8.6-12.7
		c-0.4-0.6-0.9-1.2-1.4-1.9c-0.3,0.1-0.5,0.1-0.8,0.2c0,5.1,0,10.1,0,15.2c-0.2,0.2-0.4,0.4-0.6,0.6c-2.2,0-4.3,0-6.5,0
		C221.3,40.5,221.1,40.3,220.9,40.1z M228.7,19.2c3.6,0,7,0.3,9-3.1c1.2-2,1.2-4.3-0.2-6.2c-2.2-3.1-5.5-2.6-8.8-2.6
		C228.7,11.3,228.7,15.1,228.7,19.2z"/>
	<path class="st1" d="M47.3,34.4c1.6-1.8,3.1-3.4,4.2-4.6c2.5,1.6,4.6,3.4,7,4.4c1.4,0.6,3.5,0.2,5.1-0.4c2.1-0.7,3-2.6,3.1-4.8
		c0-2.1-1-3.6-2.8-4.4c-3-1.3-6.1-2.5-9-3.8c-8-3.7-6.5-13.7-1.9-17.5c3.7-3,7.9-3.8,12.3-2.7c2.9,0.7,5.5,2.2,8.6,3.5
		c-1.7,2.3-3,4-4.4,5.8c-0.8-0.7-1.6-1.3-2.3-1.8c-2.4-1.6-5.6-1.7-7.8-0.2c-2.6,1.7-2.7,4.7-0.1,6.4c1.1,0.7,2.4,1.2,3.6,1.7
		c1.6,0.7,3.3,1.3,4.9,2c5.9,2.9,8,6.8,6.9,13c-1,5.9-5.2,9.9-11.1,10.7C56.6,42.5,51.1,40.2,47.3,34.4z"/>
	<path class="st2" d="M214.9,40.7c-6.9,0-13.7,0-20.6,0c-0.2-0.2-0.3-0.4-0.5-0.6c0-13,0-25.9,0-39.1c7.3,0,14.5,0,21.9,0
		c0,2.1,0,4.2,0,6.6c-4.6,0-9.2,0-14,0c0,3.1,0,5.9,0,8.8c4.5,0,8.9,0,13.5,0c0,2.3,0,4.4,0,6.8c-4.5,0-8.9,0-13.5,0
		c0,3.6,0,7,0,10.7c3.8,0,7.6,0,11.4,0c0.8,0,1.7,0.3,2.5,0.5c0,0.2,0,0.4,0,0.7c0,1.6,0,3.2,0,4.8
		C215.4,40.2,215.1,40.4,214.9,40.7z"/>
	<path class="st2" d="M190.2,0.9c-2.4,5.8-4.7,11.2-7,16.7c-3.2,7.6-6.4,15.1-9.5,22.7c-0.6,1.5-1.6,1.7-2.9,1.6
		c-1.2,0-2.1,0-2.7-1.5c-5.3-12.9-10.6-25.8-16-38.8c-0.1-0.1,0-0.3,0-0.8c2.5,0,4.9-0.1,7.4,0.1c0.6,0.1,1.3,1.1,1.6,1.8
		c3.1,7.5,6,15.1,9,22.6c0.2,0.5,0.4,1,0.8,2c1.1-2.6,2-4.9,3-7.2c2.3-5.7,4.7-11.5,6.9-17.2c0.6-1.6,1.4-2.2,3.1-2
		C185.9,1,187.9,0.9,190.2,0.9z"/>
	<path class="st3" d="M107.9,2.7c0,2.4,0,4.8,0,7.1c-0.3,0.3-0.6,0.6-0.9,0.9C101.4,6.4,95.7,6,90.7,9.6c-5.1,3.7-6.8,10.7-4.4,16.9
		c2.6,6.9,12.6,11.2,20.3,5c0.4,0,0.9,0.1,1.3,0.1c0,1.4,0.1,2.8,0.1,4.3c0,3.9,0,3.9-3.9,5.1c-9.2,2.6-19-1-23.9-8.9
		s-4-18.2,2.3-25.2C88.7,0,98.8-2,107.3,2.1C107.5,2.3,107.7,2.5,107.9,2.7z"/>
	<path class="st4" d="M132.2,41.7c-12.2,0.1-21.4-9-21.4-20.9c0-11.4,9.4-20.6,21.2-20.7c12,0,21.4,9,21.4,20.7
		C153.5,32.5,144.2,41.7,132.2,41.7z M132.7,2.9c-10.9,0-18.5,7.2-18.8,19.9c-0.1,7.7,9.1,16.2,17.6,16.4
		c10.9,0.3,18.9-8.8,18.8-18.2C150.2,11.2,142.8,2.9,132.7,2.9z"/>
	<path class="st0" d="M43.8,1c0.2,0.5,0.4,1,0.4,1.6c0,12.2,0,24.4,0,36.6c0,0.5-0.3,1-0.5,1.5c-0.2,0-0.3,0-0.5,0c-2,0-4,0-6,0
		c-0.2-0.2-0.4-0.4-0.6-0.6c0-12.7,0-25.5,0-38.2C36.8,1.6,37,1.3,37.2,1c2,0,3.9,0,5.9,0C43.4,1,43.6,1,43.8,1z"/>
	<path class="st5" d="M1,1c0,12.2,0,24.4-0.1,36.6c0,1.9,0.5,2.8,2.5,2.6c2.6-0.2,5.2-0.1,7.8,0c0.8,0,1.6,0.3,2.4,0.5
		c-4.4,0-8.8,0-13.4,0c0-0.4-0.1-0.9-0.1-1.3C0,27.2,0,15.1,0,3C0,2.3,0.6,1.6,1,1z"/>
	<path class="st5" d="M15.6,1.3c-0.7-0.1-1.4-0.2-2.1-0.3C14.2,1.1,14.9,1.2,15.6,1.3z"/>
	<path class="st6" d="M107.9,31.6c-0.4,0-0.9-0.1-1.3-0.1c0.4-0.3,0.8-0.7,1.2-1C107.9,30.9,107.9,31.2,107.9,31.6z"/>
	<path class="st7" d="M107.1,10.8c0.3-0.3,0.6-0.6,0.9-0.9c0,0.4,0,0.9,0,1.3C107.6,11,107.4,10.9,107.1,10.8z"/>
	<path class="st7" d="M107.9,2.7c-0.2-0.2-0.4-0.4-0.6-0.6C107.5,2.3,107.7,2.5,107.9,2.7z"/>
	<path class="st8" d="M43.8,1c-0.2,0-0.4,0-0.6,0C43.4,1,43.6,1,43.8,1z"/>
	<path class="st9" d="M215.6,35.2c0-0.2,0-0.4,0-0.7C215.6,34.7,215.6,34.9,215.6,35.2z"/>
	<path class="st8" d="M37.3,1c-0.2,0.3-0.4,0.6-0.6,0.9C36.8,1.6,37.1,1.3,37.3,1z"/>
	<path class="st8" d="M36.6,40.1c0.2,0.2,0.4,0.4,0.6,0.6C37,40.5,36.8,40.3,36.6,40.1z"/>
	<path class="st8" d="M43.2,40.7c0.2,0,0.3,0,0.5,0C43.6,40.7,43.4,40.7,43.2,40.7z"/>
	<path class="st9" d="M193.8,40.1c0.2,0.2,0.3,0.4,0.5,0.6C194.1,40.5,193.9,40.3,193.8,40.1z"/>
	<path class="st9" d="M214.9,40.7c0.3-0.2,0.5-0.5,0.8-0.7C215.4,40.2,215.1,40.4,214.9,40.7z"/>
	<path class="st9" d="M220.9,40.1c0.2,0.2,0.3,0.4,0.5,0.6C221.3,40.5,221.1,40.3,220.9,40.1z"/>
	<path class="st9" d="M227.9,40.7c0.2-0.2,0.4-0.4,0.6-0.6C228.3,40.3,228.1,40.5,227.9,40.7z"/>
	<path class="st10" d="M228.7,19.2c0-4.1,0-7.9,0-11.9c3.3,0,6.6-0.4,8.8,2.6c1.4,1.9,1.4,4.2,0.2,6.2
		C235.7,19.5,232.3,19.2,228.7,19.2z"/>
	<path class="st11" d="M132.7,2.9c10.1,0.1,17.5,8.3,17.7,18.1c0.1,9.4-7.9,18.4-18.8,18.2c-8.5-0.2-17.8-8.7-17.6-16.4
		C114.2,10,121.8,2.8,132.7,2.9z M148.9,20.8C149,10.6,140.8,4,132.7,4c-9.1,0-17.6,6.8-17.4,17.5c0.2,9.5,7.5,16,15.6,16.4
		C141.3,38.5,149.3,30.5,148.9,20.8z"/>
	<path class="st12" d="M148.9,20.8c0.3,9.7-7.7,17.7-18.1,17.1c-8.1-0.5-15.4-6.9-15.6-16.4C115,10.8,123.6,3.9,132.7,4
		C140.8,4,149,10.6,148.9,20.8z M120.8,30.5L120.8,30.5c0.5,0.9,0.8,2.2,1.6,2.6c2.3,1.3,4.7,2.6,7.3,3.1c5.9,1.2,11-0.9,14.7-5.5
		c3.6-4.4,4.7-9.6,2.7-15.1c-2.7-7.7-12-13-20.9-9.2c-7.7,3.3-12.3,12.7-8.1,21.4C118.6,28.9,119.8,29.7,120.8,30.5z"/>
	<path class="st13" d="M120.8,30.5c-0.9-0.9-2.2-1.6-2.7-2.7c-4.2-8.7,0.4-18.1,8.1-21.4C135,2.7,144.3,8,147,15.7
		c2,5.5,0.9,10.7-2.7,15.1c-3.7,4.6-8.8,6.8-14.7,5.5c-2.5-0.5-4.9-1.9-7.3-3.1C121.6,32.8,121.3,31.4,120.8,30.5
		c5.8,5,11.9,6.9,19.1,2.8c4.1-2.3,7.8-8.8,7-13.4c-1.5-9.1-8.8-14.9-17.6-13.2c-9,1.8-13.9,11.5-10.4,19.4
		C119.5,27.7,120.1,29.1,120.8,30.5z"/>
	<path class="st14" d="M120.8,30.5c-0.6-1.4-1.3-2.9-1.9-4.3c-3.5-7.9,1.4-17.6,10.4-19.4c8.9-1.8,16.2,4.1,17.6,13.2
		c0.7,4.6-3,11-7,13.4C132.7,37.5,126.5,35.5,120.8,30.5L120.8,30.5z M144.9,20.9c0.6-7.2-6.4-13.2-12.8-12.9
		c-7.1,0.4-13,5.1-12.8,13.3c0.2,7.6,5.5,12.4,13.2,12.6C138.9,34.1,145.5,28.1,144.9,20.9z"/>
	<path class="st15" d="M144.9,20.9c0.6,7.2-6.1,13.2-12.4,13c-7.7-0.2-13-5-13.2-12.6c-0.2-8.2,5.6-13,12.8-13.3
		C138.5,7.7,145.5,13.7,144.9,20.9z M142.9,20.8c0-5.9-5-11.2-10.9-10.8c-5.9,0.4-10.5,4.3-10.7,10.8c-0.2,5.8,4.4,10.7,9.5,10.9
		C138.3,32,142.6,27.9,142.9,20.8z"/>
	<path class="st16" d="M142.9,20.8c-0.3,7.1-4.6,11.3-12.1,11c-5-0.2-9.7-5.1-9.5-10.9c0.2-6.5,4.8-10.4,10.7-10.8
		C137.9,9.6,142.9,14.8,142.9,20.8z M140.9,20.8c0.3-5.1-4.4-8.5-7.8-8.7c-6.1-0.3-9.9,4.6-9.8,8.6c0.1,5,4.2,9.2,9.1,9.1
		C137.1,29.8,140.9,25.7,140.9,20.8z"/>
	<path class="st17" d="M140.9,20.8c0,4.9-3.8,9-8.5,9.1c-4.9,0.1-9-4.1-9.1-9.1c-0.1-4,3.7-8.9,9.8-8.6
		C136.5,12.3,141.2,15.7,140.9,20.8z M132.4,14.4c-3.8,0-6.6,2.8-6.6,6.7c0,3.6,2.6,6.4,6.2,6.4c3.9,0.1,6.9-3,6.9-7
		C138.8,17.2,135.8,14.4,132.4,14.4z"/>
	<path class="st18" d="M132.4,14.4c3.5,0,6.4,2.8,6.5,6c0,4.1-3,7.1-6.9,7c-3.5-0.1-6.2-2.8-6.2-6.4
		C125.8,17.3,128.6,14.4,132.4,14.4z M135.9,20.9c0-2.2-1.7-3.9-3.7-3.9s-3.8,1.9-3.8,3.9c0,2.1,1.8,4.1,3.7,4
		C134.3,24.9,135.9,23.2,135.9,20.9z"/>
	<path class="st19" d="M135.9,20.9c0,2.3-1.6,4-3.8,4.1c-1.9,0.1-3.7-1.9-3.7-4s1.8-3.9,3.8-3.9C134.2,17,135.8,18.7,135.9,20.9z"/>
</g>
</svg>
