<?xml version="1.0" encoding="utf-8"?>
<!-- Generator: Adobe Illustrator 21.0.0, SVG Export Plug-In . SVG Version: 6.00 Build 0)  -->
<svg version="1.1" id="Camada_1" xmlns="http://www.w3.org/2000/svg" xmlns:xlink="http://www.w3.org/1999/xlink" x="0px" y="0px"
	 viewBox="0 0 251.1 250.4" style="enable-background:new 0 0 251.1 250.4;" xml:space="preserve">
<style type="text/css">
	.st0{fill:#231F20;}
	.st1{fill:#FCFCFC;}
	.st2{fill:#FAFAFA;}
	.st3{fill:#EC4324;}
	.st4{fill:#02A3DD;}
	.st5{fill:#FCEF03;}
	.st6{fill:#252123;}
</style>
<path class="st0" d="M134.6,250.4c-6.5,0-13,0-19.5,0c-0.4-0.1-0.8-0.4-1.3-0.4c-16.7-1.6-32.6-6-47.2-14.1
	C29.9,215.5,8.1,184.5,1.5,143c-0.4-2.5-0.8-4.9-1.2-7.4c0-6.9,0-13.8,0-20.8c0.2-0.4,0.4-0.8,0.5-1.2c0.9-5.5,1.5-11,2.7-16.5
	C15.2,46.7,56.6,8.8,107.8,1.6c2.6-0.4,5.2-0.8,7.8-1.2c6.4,0,12.7,0,19.1,0c0.3,0.1,0.6,0.4,0.9,0.4C152.6,2.1,169,6.6,184,15
	c40.5,22.7,62.8,57.4,66.1,103.8c1.6,22.9-3.2,44.8-14.2,65c-20.2,36.9-51.2,58.7-92.8,65.4C140.2,249.6,137.4,250,134.6,250.4z
	 M107.2,120.1c-2.2-13.1-14.5-25-28.4-27.7c-15.1-2.9-30.4,3.8-38.4,16.9c-7.8,12.8-6.3,29.1,0.8,38.9
	C63.3,138.9,85.2,129.5,107.2,120.1z M114.1,75.5c-0.1,0.3-0.2,0.4-0.2,0.6c0,23.3,0,46.6,0,69.9c0,4.9,1.3,9.7,5.8,12.3
	c4.6,2.7,9.7,4.6,14.7,6.8c2.1-4.9,3.9-9.5,5.9-14.2c-3.5-1.5-6.8-3-10.2-4.2c-1.6-0.6-2-1.5-2-3.1c0.1-21.9,0-43.8,0-65.7
	c0-0.8,0-1.5,0-2.4C123.3,75.5,118.7,75.5,114.1,75.5z M199.8,132.3c-1.5,6.4-4.8,11.3-10.4,14.5c-5.6,3.3-11.5,3.5-17.7,1.7
	c-1.6,4.9-3.2,9.6-4.8,14.3c21.3,7.6,44.2-6.5,47.6-27.7C209.7,134.2,204.9,133.3,199.8,132.3z M154.8,101
	c-17.8,14.9-15.6,42.7,0.4,54.8c3.2-3.7,6.4-7.5,9.5-11.2c-8.8-9.2-10.5-22,0-32.5C161.4,108.4,158.1,104.7,154.8,101z M214.4,121
	c-4-22.5-28.9-34.7-47.7-26.8c1.6,4.6,3.3,9.2,4.9,14c6.2-2,12.1-1.6,17.7,1.6c5.6,3.1,8.9,8,10.5,14.3
	C204.8,123,209.5,122,214.4,121z M52.3,159.1c13.1,9.2,34.4,6.9,45.2-5c-3.7-3.3-7.4-6.7-11.1-10.1c-9.4,6.9-14.4,7.4-26.2,2.5
	C57.6,150.7,55,154.8,52.3,159.1z"/>
<path class="st1" d="M107.2,120.1c-22,9.4-44,18.8-65.9,28.2c-7.2-9.8-8.6-26.1-0.8-38.9c8-13.1,23.2-19.9,38.4-16.9
	C92.8,95.1,105,107,107.2,120.1z M87.9,114.5c-6.4-7.5-16.7-9.6-25.4-5.5c-8.1,3.9-13.5,13.4-11.9,21.4
	C63.1,125.1,75.4,119.8,87.9,114.5z"/>
<path class="st2" d="M114.1,75.5c4.7,0,9.2,0,14,0c0,0.9,0,1.6,0,2.4c0,21.9,0,43.8,0,65.7c0,1.6,0.4,2.5,2,3.1
	c3.4,1.3,6.7,2.8,10.2,4.2c-1.9,4.7-3.8,9.2-5.9,14.2c-5-2.3-10.1-4.1-14.7-6.8c-4.5-2.6-5.8-7.3-5.8-12.3c0-23.3,0-46.6,0-69.9
	C113.9,75.9,114,75.8,114.1,75.5z"/>
<path class="st3" d="M199.8,132.3c5.1,1,9.9,1.9,14.7,2.8c-3.4,21.1-26.3,35.3-47.6,27.7c1.6-4.7,3.1-9.4,4.8-14.3
	c6.3,1.9,12.2,1.6,17.7-1.7C195,143.6,198.3,138.7,199.8,132.3z"/>
<path class="st4" d="M154.8,101c3.3,3.7,6.6,7.4,9.9,11.1c-10.5,10.5-8.8,23.3,0,32.5c-3.2,3.7-6.4,7.5-9.5,11.2
	C139.2,143.8,137,115.9,154.8,101z"/>
<path class="st5" d="M214.4,121c-4.9,1-9.6,2-14.6,3c-1.6-6.3-5-11.2-10.5-14.3c-5.6-3.1-11.5-3.6-17.7-1.6c-1.7-4.7-3.3-9.3-4.9-14
	C185.5,86.3,210.4,98.5,214.4,121z"/>
<path class="st1" d="M52.3,159.1c2.7-4.3,5.3-8.4,7.9-12.6c11.8,4.9,16.8,4.4,26.2-2.5c3.7,3.4,7.4,6.7,11.1,10.1
	C86.7,166,65.4,168.3,52.3,159.1z"/>
<path class="st6" d="M87.9,114.5c-12.5,5.4-24.9,10.6-37.2,15.9c-1.6-8,3.8-17.5,11.9-21.4C71.2,104.9,81.6,107,87.9,114.5z"/>
</svg>
