<?xml version="1.0" encoding="utf-8"?>
<!-- Generator: Adobe Illustrator 21.0.0, SVG Export Plug-In . SVG Version: 6.00 Build 0)  -->
<svg version="1.1" id="Camada_1" xmlns="http://www.w3.org/2000/svg" xmlns:xlink="http://www.w3.org/1999/xlink" x="0px" y="0px"
	 viewBox="0 0 1055.7 362.9" style="enable-background:new 0 0 1055.7 362.9;" xml:space="preserve">
<style type="text/css">
	.st0{fill:#030302;}
	.st1{fill:#005827;}
	.st2{fill:#019034;}
	.st3{fill:#008733;}
	.st4{fill:#02431F;}
	.st5{fill:#007932;}
	.st6{fill:#013119;}
	.st7{fill:#003A1B;}
	.st8{fill:#189F33;}
	.st9{fill:#019935;}
	.st10{fill:#008233;}
	.st11{fill:#00672C;}
	.st12{fill:#006C2E;}
	.st13{fill:#080806;}
	.st14{fill:#57B330;}
	.st15{fill:#00612A;}
	.st16{fill:#004F24;}
	.st17{fill:#004922;}
	.st18{fill:#249D32;}
	.st19{fill:#37A633;}
	.st20{fill:#2CA233;}
	.st21{fill:#5DB24D;}
	.st22{fill:#007230;}
	.st23{fill:#4BAF30;}
	.st24{fill:#45AA36;}
	.st25{fill:#69BA3B;}
	.st26{fill:#61B53F;}
</style>
<g>
	<path class="st0" d="M413.3,251.9c15,0,29.6-1.2,43.9,0.3c16.6,1.8,21.6,16.5,11.3,29.8c-6.4,8.2-15.3,11.8-25.7,13.1
		c14.8,8.8,10.8,23.4,12,37.6c3.6-5.1,6.5-9.2,9.4-13.4c14.8-21.5,29.7-43,44.4-64.6c2-3,4.2-4.2,7.7-3.9c4.8,0.3,9.6,0.1,15,0.1
		c0.6,12.3,1.4,24.3,1.7,36.4c0.3,12,0.1,24,0.1,35.9c0.7,0.1,1.4,0.2,2.1,0.3c1.8-5.3,3.7-10.7,5.7-16.6c1.6,1.2,3,2.2,4.4,3.2
		c7.4,5.6,15.6,9.1,25,7.8c3-0.4,6.1-1.6,8.8-3.1c3.5-1.9,6.5-5.4,5.1-9.3c-1-2.7-4.5-4.9-7.4-6.3c-3.4-1.7-7.3-2-10.9-3.3
		c-14.5-5.2-18.8-18.5-9.9-31.1c6.8-9.8,17-13.5,28.3-14.7c11.6-1.2,22.4,1.7,32.8,8.3c-1.9,5.7-3.8,11.4-6,17.8
		c-1.7-1.2-3.1-2.2-4.6-3.1c-6.7-4.4-14-7.2-22.1-6.1c-3.1,0.4-6.6,1.6-9.1,3.5c-4.6,3.5-3.9,8.1,1.4,10.5c3.8,1.7,7.9,2.6,11.8,3.9
		c18.4,5.8,22.8,21.8,10.1,36.4c-13.6,15.6-39.4,18.9-58.6,7.7c-1.7-1-3.3-2-5.4-3.3c0,2.9,0,5.4,0,8.1c-6.8,0-13.5,0-20.6,0
		c0-5.4,0-10.8,0-16.8c-8.5,0-16.8-0.1-25.1,0.1c-0.9,0-1.9,1-2.8,1.6c-0.5,0.4-0.8,1.1-1.1,1.7c-4.5,11.7-12.8,15.6-25.2,14
		c-8.3-1.1-16.9-0.2-25.7-0.2c0-5.8,0.1-11.1,0-16.4c-0.1-3.1-0.3-6.4-1.1-9.4c-1.6-6.1-10.4-10.3-15.8-7.6
		c-1.1,0.5-1.7,2.3-2.1,3.7c-3.1,8.8-6.1,17.6-9,26.4c-0.8,2.4-1.9,3.4-4.6,3.3c-5.1-0.2-10.3-0.1-16.1-0.1
		C395.1,306,404.3,278.5,413.3,251.9z M422,284.7c5.8,0,11.2,0.4,16.4-0.2c3.3-0.4,7.2-1.4,9.5-3.6c2.1-2.1,3.4-6.1,3.2-9.1
		c-0.1-1.6-3.8-4.1-6.1-4.4c-5.7-0.6-11.5-0.2-17.2-0.2C425.8,273.1,424,278.7,422,284.7z M514.7,272.7
		c-5.9,9.4-11.5,18.5-17.3,27.9c6,0,11.4,0,17.3,0C514.7,291.4,514.7,282.3,514.7,272.7z"/>
	<path class="st1" d="M183.3,19c-2.1-4.6-1.1-8.6,2.1-12.3c0.9,5.6,5.4,8.4,9.7,9.7c13.4,4.2,27,7.8,40.7,11c11.9,2.7,24,4.5,36,6.8
		c8.2,1.5,16.4,3.1,24.6,4.7c0.3,0,0.7,0,1,0c2,0.7,4,1.3,6,2c0.7,0,1.3,0,2,0c1,0.7,2,1.3,3,2c0.7,0,1.3,0,2,0c0.7,0.3,1.3,0.7,2,1
		c1.7,0,3.3,0,5,0c1.3,0.7,2.7,1.3,4,2c2,0,4,0,6,0c2.3,1,4.7,2,7,3c1,0,2,0,3,0c0.7,0.3,1.3,0.7,2,1c0.7,0,1.3,0,2,0
		c0.9,0.4,1.8,0.9,2.7,1.1c9.7,2.2,19.5,4.1,29.1,6.4c9.5,2.3,18.8,5.1,28.2,7.5c12.2,3.2,24.4,6,36.6,9.4c17.5,4.9,34,12.9,52,16.6
		c13.2,2.7,25.7,8.5,38.6,12.8c2.3,0.8,4.7,1.5,7.1,2.2c11.3,3.3,22.6,6.5,33.8,10c15.3,4.9,30.5,10,45.8,15.1c2,0.7,4,1.5,6.1,2.3
		c13,5,26,10,39,15c6.2,2.4,12.5,4.6,18.4,7.5c11.5,5.8,22.7,12.3,34.2,17.9c22.9,11.2,46.2,21.6,69,33c8.4,4.2,15.9,10.1,24,15
		c7.6,4.7,15.6,8.8,22.8,14c10.3,7.5,20,15.9,30.2,23.7c6.9,5.2,15.4,8.7,21,14.9c12.3,13.5,29,22.2,39.9,37.2c1.2,1.6,4,3,5.9,2.9
		c6.6-0.5,13.2-1.3,19.6-2.7c3.2-0.7,6.1-3.1,9.1-4.8c1.6-0.5,3.3-0.7,4.6-1.5c2.2-1.3,4.3-3,6.4-4.5c1.3-0.3,2.7-0.7,4-1
		c1.3-1,2.7-2,4-3c0.7,0,1.3,0,2,0c7.3-4.3,14.7-8.7,22-13c1.2-0.7,2.5-1.5,3.7-2.2c4.4-2.6,8.9-5.2,13.3-7.8c-0.3,1-0.7,2-1,3
		c-1,0.7-2,1.3-3,2c-2.7,2-5.3,4-8,6h0c-3,2.3-6,4.7-9,7c0,0,0,0,0,0c-1,0.7-2,1.3-3,2l0,0c-2,1-4,2-6,3h0c-2.7,1.7-5.3,3.3-8,5
		c0,0,0,0,0,0c-1.3,0.3-2.6,0.4-3.8,1c-13,6.3-26.1,12.3-40.2,16c-4.7,0.9-9.4,2-14.2,2.4c-3.9,0.3-8.7,1.1-11.5-0.8
		c-6.2-4-11.8-9.1-16.9-14.5c-15.6-16.4-33.4-30.3-52-42.9c-15.2-10.3-31-19.7-46.6-29.4c-4.2-2.6-8.7-4.8-12.8-7.6
		c-5.6-3.7-10.8-8.2-16.6-11.5c-7.3-4.1-15.3-7-22.6-11.1c-12.6-7.2-24.9-15.1-37.5-22.5c-2.6-1.5-5.7-2.2-8.6-3.3
		c-4.8-1.7-9.6-3.4-14.4-5.2c-6-2.2-12-4.4-17.9-6.9c-5.2-2.2-10.3-4.9-15.4-7.4c-4.6-2.2-9.1-4.7-13.8-6.4
		c-4.8-1.7-10.1-2.1-14.8-4c-14.6-5.8-29-12.2-43.5-18.2c-10.3-4.2-20.6-8.3-30.9-12.3c-3.5-1.4-7.2-2.3-10.9-3.5c-1-0.3-2-0.7-3-1
		c-0.7-0.7-1.3-1.3-2-2c-3-0.7-6-1.3-9-2c-3.7-1.7-7.3-3.3-11-5c-2.7-1-5.3-2-8-3c-1.9-1.3-3.5-3.2-5.6-3.9
		c-17.1-5.8-34.3-11.4-51.4-17.1c-5.2-1.4-10.5-2.6-15.7-4.1c-13.3-3.9-26.4-8.1-39.8-11.7c-12.4-3.3-25-6-37.5-9
		c-17.9-4.3-35.8-9-53.8-13c-21.2-4.8-42.5-9.2-63.8-13.7c-11.7-2.5-23.5-4.8-35.3-7.2C191.5,20.3,187.3,19.7,183.3,19z"/>
	<path class="st2" d="M715.5,40.7c1.3,0.2,2.7,0.3,4,0.5c0.6,0.2,1.3,0.4,1.9,0.6c14.2,2.8,28.4,5.4,42.5,8.4
		c10.9,2.3,21.6,5.1,32.5,7.7c-0.3,1-0.6,2-1,3c-5.7-0.8-11.4-1.3-17.1-2.4c-7.2-1.4-14.2-3.5-21.5-4.6c-14.8-2.3-29.3-6-44.5-6.7
		c-15.4-0.8-30.6-5.3-46-7.8c-21.3-3.4-42.5-6.7-63.9-9.5c-15.9-2.1-31.8-3.3-47.8-5c-6.4-0.7-12.8-1.6-19.3-2.1
		c-11.4-0.8-22.8-1.3-34.2-2c-8.2-0.5-16.5-1.6-24.7-1.8c-7-0.2-14.1,0.5-21.2,0.8c-1.3,0-2.6,0-3.9,0c-0.7-0.3-1.4-0.6-2-1
		c-6-0.3-12-0.6-18-0.9c-10-0.7-20-1.3-30-2c-0.7,0-1.3,0-2,0c-1.3,0-2.7,0-4,0c-4.3,0.7-9.2-1.9-13,2c-1.3,0-2.7,0-4,0
		c-5.7-0.3-11.3-0.8-17-0.7c-6.6,0.1-13.3,1-19.9,1.1c-8.8,0.1-17.6-0.3-26.4-0.4c-0.7,0-1.4,0.4-2.5,0.7c1.3,2.7,1.8,6.1,3.6,7
		c4,2.1,8.6,3.3,13.1,4.2c9.5,1.7,19.2,3,28.8,4.4c11.1,1.6,22.3,3.1,33.4,4.7c0.7,0,1.3,0,2,0c2,0.3,4,0.7,6,1c0.3,0,0.7,0,1,0
		c9.7,1.3,19.3,2.7,29,4c2,0.7,4,1.3,6,2c1,0,2,0,3,0c0.6,0.6,1.2,1.7,1.9,1.9c9.8,1.8,19.6,3.4,29.3,5.2c22,4.2,43.9,8.9,65.9,12.9
		c46.2,8.3,90.7,23,136,34.7c9.1,2.4,18,5.9,27.1,8.3c15.4,4.1,30.9,7.7,46.3,11.8c18,4.8,36.2,9,53.7,15.1
		c18.4,6.4,36.6,14,54.1,22.7c22.4,11.1,42.6,25.9,60.6,43.2c15.1,14.5,34.2,21.4,52.3,30.4c9.9,5,19.9,10,30.1,14.3
		c6.3,2.6,10.8,11.5,19.6,6.6c-1.1,1.3-2.1,2.6-3.3,3.7c-5.3,5.4-6.1,5.2-12,0.6c-3.9-3-8-6.1-12.5-8.1c-15.1-7-30.3-13.5-45.5-20.4
		c-15.6-7-29-17.2-41.8-28.4c-6.5-5.7-12.4-12.3-19.5-16.9c-11.3-7.2-23.9-12.5-35.2-19.6c-22.1-14-47.3-20.3-71.6-28.5
		c-18.6-6.4-38.1-10.4-57.1-15.7c-22.7-6.3-45.4-12.7-68-19.4c-11.5-3.4-22.5-8.1-34-11.4c-13.2-3.8-26.7-6.8-40.1-9.9
		c-22-5.1-43.9-10.3-66-14.9c-14.4-3.1-29-5.5-43.5-8c-14.2-2.5-28.4-4.8-42.7-7c-13.6-2.1-27.2-3.7-40.8-5.7
		c-14.6-2.2-29.1-5.1-43.6-7.2c-19-2.8-37.3-7.8-55.1-14.9c-1.9-0.8-3.2-3.2-4.8-4.9c1.8-1.4,3.5-3.8,5.5-4.1
		c6.5-1.1,13.1-2.1,19.7-2.1c10.1-0.1,20.3,0.5,30.4,0.9c16.1,0.6,32.2,1.5,48.3,1.9c17.8,0.5,35.6,0.8,53.4,1
		c1.6,0,3.1-1.2,4.7-1.9c1,0,2,0,3,0c5.2,2.4,10.5,2.9,16,1c0.7,0,1.3,0,2,0c1.3,0,2.7,0,4,0c1.7,0,3.3,0,5,0
		c0.6,0.3,1.1,0.8,1.7,0.9c14,1.1,28.1,2,42.1,3.1c5.2,0.4,10.4,1,15.7,1.7c8,1,16,2.2,24.1,3.1c1.1,0.1,2.3-1.2,3.4-1.9
		c1,0,2,0,3,0c2.3,0.7,4.7,1.3,7,2c1.7,0,3.3,0,5,0c1.7,0,3.3,0,5,0c0.7,0,1.3,0,2,0c0.3,0.3,0.7,0.7,1,1c0.3,0,0.7,0,1,0
		c1.3,0,2.7,0,4,0c2,0.3,3.9,0.7,5.9,1c15.7,2.3,31.4,4.5,47.1,6.8c6.2,0.9,12.3,2.3,18.5,3.1c5.9,0.7,12,0.6,17.9,1.5
		c12.6,1.9,25.1,4.3,37.7,6.4C713.3,41.8,714.5,41.1,715.5,40.7z M312,22.7c-0.3-0.1-0.5-0.2-0.8-0.3c-0.1,0-0.3,0.3-0.2,0.3
		c0.1,0.2,0.3,0.4,0.5,0.6C311.6,23.2,311.8,23,312,22.7z"/>
	<path class="st3" d="M440.4,11.9c-1.6,0.7-3.2,1.9-4.7,1.9c-17.8-0.2-35.6-0.4-53.4-1c-16.1-0.5-32.2-1.3-48.3-1.9
		c-10.1-0.4-20.3-1-30.4-0.9c-6.6,0.1-13.2,1-19.7,2.1c-2,0.4-3.7,2.7-5.5,4.1c1.6,1.7,2.9,4.1,4.8,4.9
		c17.8,7.1,36.1,12.1,55.1,14.9c14.6,2.1,29.1,5,43.6,7.2c13.6,2.1,27.2,3.7,40.8,5.7c14.2,2.2,28.5,4.5,42.7,7
		c14.5,2.5,29.1,4.9,43.5,8c22.1,4.7,44,9.8,66,14.9c13.4,3.1,26.8,6.1,40.1,9.9c11.5,3.3,22.6,8,34,11.4
		c22.6,6.7,45.3,13.1,68,19.4c19,5.3,38.4,9.3,57.1,15.7c24.3,8.3,49.4,14.6,71.6,28.5c11.4,7.2,23.9,12.4,35.2,19.6
		c7.2,4.6,13.1,11.2,19.5,16.9c12.8,11.2,26.2,21.4,41.8,28.4c15.1,6.8,30.4,13.4,45.5,20.4c4.5,2.1,8.6,5.1,12.5,8.1
		c5.9,4.6,6.7,4.7,12-0.6c1.2-1.2,2.2-2.5,3.3-3.7c1.3-2,2.7-4,4-6c1.2-0.4,3.2-0.5,3.5-1.3c2.1-5.1,6.1-9.7,4.4-15.8
		c0.3-2,0.5-4,0.8-6.1c1-9.5-0.1-18.6-4.4-27.2c-3.2-6.3-6.9-12.4-10.4-18.6c0.7-2.5,0.8-6.6,2.3-7.2c6.1-2.5,2.6-6.2,1.1-8.7
		c-7.7-12.9-17.5-24-30-32.5c-1.4-0.9-2.2-2.6-3.3-3.9c5.3,3.3,10.7,6.7,16,10c1,0.7,2,1.4,3.1,2.1c0,0,0,0,0,0
		c0.7,1.3,1.2,2.7,2.2,3.8c4,4.4,8.4,8.5,12,13.2c5.4,6.9,10.7,13.9,15.1,21.4c2.7,4.6,4.5,10.1,5.4,15.4c1.6,8.4,2.8,17,3,25.5
		c0.3,16.1-3.7,31-17.7,40.6c-6.6,4.5-14.7,6.9-22.1,10.3c-2.1-1.6-4.1-3.4-6.4-4.7c-13.8-7.2-27.7-14.2-41.6-21.4
		c-5.5-2.8-10.7-6-16.3-8.6c-16.2-7.4-31.5-16.2-44.1-29.3c-2.6-2.7-5.5-5.2-8.4-7.6c-4-3.2-8.6-5.8-12.3-9.3
		c-9.4-8.9-20.8-14.3-32.4-19.2c-18.1-7.5-36.5-14.3-54.8-21.3c-9.3-3.6-18.5-7.4-27.9-10.3c-14.4-4.5-29-8.4-43.5-12.6
		c-13.7-4-27.3-8-40.9-12c-14.8-4.4-29.6-8.8-44.3-13.4c-7.9-2.5-15.5-6-23.5-8c-21.7-5.4-43.6-10.3-65.4-15.5
		c-6.4-1.5-12.8-3.6-19.3-5c-12.8-2.7-25.7-5-38.6-7.4c-11.4-2.2-22.7-4.7-34.2-6.5c-15.7-2.5-31.4-4.7-47.2-6.8
		c-4.9-0.7-10-0.8-14.9-1.2c-0.7,0-1.3,0-2,0c-2.8-3.1-6.2-3.5-10-2c-2.7-0.3-5.3-0.7-8-1c-1-0.3-2-0.7-3-1c-0.7,0-1.3,0-2,0
		c-3.3-1-6.7-2-10-3c-0.7,0-1.3,0-2,0c-5.7-0.7-11.3-1.3-17-2c-1,0-2,0-3,0c-3.8-3.4-8.2-4.1-13-3c-2-0.3-4-0.7-6-1
		c-1-0.7-1.8-1.8-2.9-2.1c-10.7-3-21.4-5.9-32.1-8.9c-7.8-2.2-15.6-4.5-23.3-7c-1.3-0.4-3.3-2.3-3.2-3.2c0.3-1.4,1.9-2.8,3.2-3.7
		c1.2-0.7,2.8-0.9,4.3-1c5.7-0.5,11.5-1.1,17.2-1.3c12.9-0.5,25.8-0.6,38.7-1.1c3.7-0.1,7.4-1.1,11.1-1.7c1.7,0,3.3,0,5,0
		c4.1,3.8,8.6,2.1,13,1c2,0,4,0,6,0c3.7,3.8,7.9,2.1,12,1c1.3,0,2.7,0,4,0c0.4,0.6,0.8,1.2,1.3,1.8c0.6-0.6,1.2-1.2,1.7-1.8
		c1,0,2,0,3,0c1,0.3,2,0.7,3,1c6.1,0,12.2-0.2,18.3,0.1c10.4,0.5,20.8,1.4,31.3,1.8c6.8,0.3,13.7,0.1,20.5,0.1
		C440.4,10.6,440.4,11.2,440.4,11.9z"/>
	<path class="st4" d="M183.3,19c4.1,0.7,8.2,1.4,12.3,2.2c11.8,2.4,23.5,4.7,35.3,7.2c21.3,4.5,42.6,8.9,63.8,13.7
		c18,4.1,35.8,8.7,53.8,13c12.5,3,25.1,5.7,37.5,9c13.3,3.6,26.5,7.8,39.8,11.7c5.2,1.5,10.5,2.7,15.7,4.1c1,1,1.8,2.5,3,2.9
		c6.4,2.5,13,4.6,19.5,7.1c5.9,2.2,11.7,4.6,17.5,7c8.3,3,16.7,6,25,9c0.7,0.3,1.3,0.7,2,1c0.7,0.3,1.3,0.7,2,1c1,0.3,2,0.7,3,1
		c8.7,4,17.3,8,26.1,11.9c12.3,5.4,24.6,10.8,37,16.1c7.3,3.1,14.7,6,22,9c0.7,0.3,1.3,0.7,2,1c0.9,0.9,1.6,2.1,2.6,2.7
		c8.1,4.2,16.3,8.2,24.4,12.3c5.6,2.9,11,6,16.6,8.9c4.9,2.5,10.1,4.6,15,7.3c4.8,2.5,9.2,5.6,14,8.2c5.9,3.3,11.9,6.4,17.9,9.6
		c7.5,4,14.6,8.6,22.4,11.7c16.9,6.8,32.1,16.6,47,26.8c3.8,2.6,7.3,5.7,11.2,8c13.6,8.1,27.5,15.8,41,24.1
		c12.6,7.7,24.5,16.1,34.7,27.1c3.7,4,8.5,6.8,12.8,10.2c1.8,1.4,3.6,2.8,5.2,4.5c6.6,6.7,12.1,14.3,20.5,19.2
		c3.9,2.2,7.4,2.9,11.3,2.3c2.9-0.4,5.6-1.8,8.4-2.8c1,0,2,0,3,0c1.3-0.3,2.7-0.7,4-1c6.7-1.7,13.3-3.3,20-5c1.3-0.3,2.7-0.7,4-1
		c-0.8,0.7-1.5,1.7-2.4,2c-9.3,3.3-18.6,6.8-28.1,9.5c-8,2.3-16.3,3.7-24.5,5.5c-1.2-0.1-2.4-0.3-3.6-0.3c-4.3-0.1-8.4,0-11.9-3.4
		c-4.1-4-8.6-7.6-12.9-11.3c-3.5-3-8-5.4-10.1-9.2c-6-10.8-17.2-15.5-25.7-23.4c-6.6-6.1-14.1-11.3-21.5-16.5
		c-7.9-5.6-15.6-12-24.3-16c-11.6-5.3-23.1-10.5-33.3-18.2c-6.5-4.9-12.7-10-19.3-14.8c-8-5.9-16.2-11.5-24.4-17.1
		c-0.3-0.2-1.3,0.7-2,1.1c-8.3-5.4-16.7-10.8-25-16.3c-0.7-1.2-1.2-2.8-2.2-3.4c-7.1-4.5-14.2-9.1-21.5-13.2
		c-15.4-8.8-30.7-18-46.6-25.9c-17.9-8.9-36.3-17-54.8-24.8c-20.6-8.8-41.3-17.3-62.4-25.1c-24.3-8.9-48.8-17.5-73.5-25.1
		c-24.9-7.7-50.1-14.4-75.3-20.8c-21.5-5.5-43.2-10.2-65-14.7c-12.8-2.7-25.8-4.4-38.6-6.6c-13.3-2.7-26.7-5.2-39.9-8.2
		C185.9,23.3,184.7,20.6,183.3,19z"/>
	<path class="st5" d="M1000.4,267.9c7.4-3.4,15.5-5.8,22.1-10.3c14-9.6,18.1-24.5,17.7-40.6c-0.2-8.5-1.4-17.1-3-25.5
		c-1-5.3-2.7-10.8-5.4-15.4c-4.4-7.5-9.8-14.5-15.1-21.4c-3.7-4.7-8.1-8.8-12-13.2c-0.9-1.1-1.5-2.5-2.2-3.8c3,1.9,6,3.8,9,5.7
		c1,1.6,1.8,3.5,3,4.9c3.3,3.9,6.8,7.7,10.3,11.5c2.2,2.4,4.4,4.7,6.6,7c0.4,1,0.7,2,1.1,2.9c1.3,3.3,2.6,6.7,3.9,10
		c2.3,6,4.6,12,7,18c0,0.7,0,1.3,0,2c0.3,0.7,0.7,1.4,1,2c0.3,2,0.7,4,1,6c-0.5,0.8-1.3,1.6-1.3,2.4c0.3,13.2-1.7,25.9-8.8,37.4
		c-0.9,1.4-0.6,3.5-0.9,5.2l0,0c-1.5,0.6-3.2,0.9-4.4,1.9c-5.5,4.7-10.8,9.7-16.3,14.4c-1.1,1-2.9,1.2-4.3,1.7c-1.7,1.3-3.3,2.7-5,4
		c-2,0.6-4.1,1-6.1,1.7c-6.6,2.2-13.2,5.1-19.7,0.3c-3.3-2.4-5.8-6.1-9.3-7.9c-14.4-7.6-28.9-15.2-43.7-22
		c-12.5-5.8-24.1-12.4-34-22.2c-8.1-8.1-16.5-15.7-25.1-23.2c-11.9-10.4-25.6-18-39.9-24.4c-7.8-3.5-15.9-6.6-23.9-9.7
		c-12.9-5-26-9.8-39-14.6c-11.5-4.3-22.9-8.8-34.4-12.9c-16.1-5.8-32.1-11.5-48.3-16.8c-10.9-3.6-22.1-6.1-33-9.5
		c-18.3-5.7-36.4-12.5-54.9-17.5c-28.3-7.7-56.9-14.4-85.4-21.5c-13.4-3.3-26.9-6.4-40.3-9.6c1.2-0.3,2.5-1,3.7-0.8
		c13.9,2.3,27.8,4.3,41.6,7.2c15.6,3.2,31.1,7,46.5,10.8c14.8,3.7,29.6,7.5,44.2,11.9c18.1,5.5,36.1,11.6,54.1,17.5
		c4.3,1.4,8.4,3.2,12.7,4.3c6.4,1.7,13,2.5,19.3,4.4c13.1,4,26,8.8,39.2,12.9c15.5,4.9,31.2,9.3,46.7,14.1c6,1.9,11.9,4.1,17.7,6.5
		c15,6.3,30,12.5,44.7,19.5c10.4,5,21,10.2,30.2,17.2c14.3,10.7,27.4,23,41.1,34.5c3.3,2.8,6.7,5.6,10.5,7.5
		c15.4,7.8,31.1,15,46.4,22.9c7.3,3.8,14.4,8.1,21.1,12.8C993.8,272.8,995.9,273.1,1000.4,267.9z"/>
	<path class="st0" d="M307.8,334.1c9.4-28.1,18.7-55.6,27.6-82.3c15.6,0,30.6-1,45.4,0.3c13.1,1.1,18,12.7,11.7,24.4
		c-3.3,6.1-7,8.9-18.7,13.9c6.3,1.8,11.9,4.5,13.3,11.2c1.7,7.9-1,14.7-6.5,20.6c-6.5,6.9-14.7,10.2-23.8,11.3
		c-4.1,0.5-8.3,0.6-12.5,0.6C332.5,334.1,320.5,334.1,307.8,334.1z M333.2,317.8c7.7,0,15,0.4,22.2-0.2c2.9-0.2,6.5-1.9,8.1-4.1
		c1.9-2.6,3.3-6.8,2.6-9.8c-0.5-2.2-4.7-4.5-7.5-4.9c-5.4-0.8-10.9-0.5-16.4-0.4c-1.1,0-2.8,1.1-3.2,2.2
		C336.9,306,335.2,311.7,333.2,317.8z M344.9,282.9c6.2,0,11.6,0.3,17.1-0.1c2.5-0.2,5.7-1,7.2-2.7c2-2.2,4-5.8,3.6-8.4
		c-0.3-1.9-4.4-4.1-7.1-4.5c-4.2-0.8-8.6-0.4-12.9-0.1c-1.2,0.1-2.9,1.1-3.3,2C347.9,273.3,346.6,277.7,344.9,282.9z"/>
	<path class="st0" d="M168.4,281.9c0,32.1-30.4,58.1-62,52.9C90,332.1,79.5,318.3,80.7,301c1.7-24.9,18.7-45.2,43.1-50.3
		c6.4-1.3,13.4-1.4,19.8-0.2C159.4,253.3,168.4,265.3,168.4,281.9z M101.3,297.6c-0.2,18.1,11.5,25.9,25.3,19.5
		c13.5-6.3,20.1-17.7,20.7-32.2c0.7-15.5-11-23.4-25.2-17C108.2,274,102.6,286.1,101.3,297.6z"/>
	<path class="st0" d="M162.1,334c9.2-27.4,18.1-54,27.2-80.5c0.4-1.1,1.9-2.6,2.8-2.6c14,0.2,28-0.5,41.8,1.2
		c16,2,21.1,16.2,11.4,29.2c-6.3,8.5-15.3,12.3-25.9,13.7c15.1,9.7,10.5,24.8,12,38.7c-7.2,0-13.8,0-20.8,0c0-6.9,0.2-13.5,0-20.1
		c-0.3-9.4-4.4-13-13.7-13.3c-2.8-0.1-4.1,0.8-5,3.5c-2.9,9-6.1,17.9-9,26.9c-0.8,2.5-1.9,3.4-4.6,3.4
		C173.1,333.9,168,334,162.1,334z M198.4,284.9c5.3,0,10,0.4,14.6-0.1c3.7-0.4,7.9-1.1,10.7-3.3c2.4-1.9,4.2-6.1,4.1-9.2
		c0-1.8-4.2-4.4-6.8-4.9c-4.7-0.9-9.6-0.6-14.4-0.4c-1.1,0-2.6,1.3-3,2.4C201.7,274.3,200.2,279.4,198.4,284.9z"/>
	<path class="st6" d="M881.4,336.9c8.2-1.8,16.5-3.2,24.5-5.5c9.5-2.7,18.8-6.3,28.1-9.5c0.9-0.3,1.6-1.3,2.4-2c8.3-3,16.7-6,25-9
		c0,1.4,0,2.7,0.1,4.1c-18.7,8.2-36.9,17.5-56.1,24.4c-23.4,8.4-47.5,14.8-71.3,22.3c-16.2,5.1-28.7-5.6-33.5-16.2
		c-1.2-2.6-2.1-5.3-2.7-8c-5.4-23.8-17-44.4-31.8-63.4c-0.4-0.5-0.6-1.1-0.9-1.7c0.7-0.3,1.6-1,2-0.7c3.4,2.1,7.7,3.7,9.7,6.8
		c6,8.8,14.8,13.9,23,19.8c7.4,5.3,13.5,12.7,22.9,15.3c7.5,9.7,19.9,13.9,26.5,24.6c0.5,0.7,1.6,1.2,2.5,1.5c9.6,2.6,19.1,1,28.5-1
		C880.8,338.4,881.1,337.4,881.4,336.9z"/>
	<path class="st0" d="M41.5,267.9c-1.8,5.5-3.6,10.8-5.5,16.7c12.6,0,24.7,0,37.7,0c-1.9,5.4-3.3,10.2-5.3,14.8
		c-0.4,0.9-2.7,1.4-4.2,1.4c-11.2,0.1-22.3,0.1-33.6,0.1c-3.4,10-6.8,19.6-10,29.4c-0.9,2.9-2.1,4-5.2,3.9c-5-0.3-10-0.1-15.4-0.1
		c0.3-1.5,0.5-2.8,0.9-3.9c8.4-25,16.8-50.1,25.1-75.1c1-2.9,2-4.3,5.4-4.2c18.2,0.2,36.3,0.1,55.7,0.1c-2,5.7-3.7,11-5.8,16.2
		c-0.3,0.7-2.6,0.8-4,0.8C65.4,267.9,53.6,267.9,41.5,267.9z"/>
	<path class="st0" d="M329.1,251c-1.8,5.3-3.2,10.3-5.2,15c-0.4,1.1-2.5,2-3.8,2c-5.3,0.2-10.7,0.4-16,0c-3.8-0.3-5.5,1.1-6.7,4.7
		c-6.2,19.1-12.8,38.1-19.1,57.2c-1.2,3.6-2.8,5.1-6.6,4.8c-4.6-0.4-9.3-0.1-14.7-0.1c7.5-22.3,14.7-44.1,22.2-66.5
		c-8.3,0-15.7,0-23.7,0c1.8-5.4,3.3-10.3,5.1-15.1c0.3-0.9,1.9-1.9,2.9-1.9C285.3,250.9,306.9,251,329.1,251z"/>
	<path class="st7" d="M881.4,336.9c-0.3,0.5-0.6,1.5-1,1.6c-9.4,2-18.9,3.6-28.5,1c-0.9-0.2-2.1-0.7-2.5-1.5
		c-6.6-10.7-19.1-14.9-26.5-24.6c-9.3-2.5-15.4-9.9-22.9-15.3c-8.2-5.9-17.1-11-23-19.8c-2.1-3.1-6.4-4.7-9.7-6.8
		c-0.4-0.2-1.3,0.5-2,0.7c-21-25.2-45.9-45.9-72.8-64.5c0.7-0.4,1.7-1.3,2-1.1c8.2,5.6,16.3,11.3,24.4,17.1
		c6.5,4.8,12.8,9.9,19.3,14.8c10.2,7.7,21.7,12.9,33.3,18.2c8.7,4,16.4,10.4,24.3,16c7.4,5.2,14.9,10.4,21.5,16.5
		c8.5,7.8,19.7,12.5,25.7,23.4c2.1,3.8,6.7,6.2,10.1,9.2c4.3,3.8,8.9,7.3,12.9,11.3c3.5,3.4,7.6,3.3,11.9,3.4
		C879,336.6,880.2,336.8,881.4,336.9z"/>
	<path class="st0" d="M659.9,317.2c13.2,0,25.7,0,39,0c-2,5.6-3.6,10.6-5.5,15.4c-0.3,0.7-1.8,1.4-2.7,1.4
		c-18.5,0.1-36.9,0.1-56.3,0.1c9.4-28,18.7-55.6,27.9-83.1c6.7,0,13,0,19.8,0C674.8,273,667.5,294.6,659.9,317.2z"/>
	<path class="st0" d="M651.6,250.9c-9.2,27.3-18.2,53.8-27.2,80.3c-0.4,1.2-2.1,2.7-3.2,2.8c-5.6,0.3-11.3,0.1-17.5,0.1
		c3.4-10.2,6.6-19.9,9.9-29.6c5.6-16.6,11.3-33.2,16.9-49.9c0.9-2.7,2.1-4,5.2-3.8C640.7,251.1,645.9,250.9,651.6,250.9z"/>
	<path class="st5" d="M327.4,38.9c1,0,2,0,3,0c5.5,2.4,11,3.8,17,2c0.7,0,1.3,0,2,0c3.3,1,6.7,2,10,3c0.7,0,1.3,0,2,0
		c1,0.3,2,0.7,3,1c2.7,0.3,5.3,0.7,8,1c3.3,0.7,6.7,1.3,10,2c0.7,0,1.3,0,2,0c7.2,2,14.3,4.6,21.7,5.9c15.4,2.7,30.9,4.8,46.4,7.3
		c0.7,0.1,1.3,1.2,1.9,1.9c-5.1-0.4-10.2-0.7-15.3-1.3c-6.2-0.7-12.4-1.8-18.7-2.7c-1,0-2,0-3,0c-0.7,0-1.3,0-2,0c-0.7,0-1.3,0-2,0
		c-6.8-4.4-14.1-5.9-22-4c-0.7,0-1.3,0-2,0c-0.7,0-1.3,0-2,0c-1-0.3-2-0.7-3-1c-1-0.7-2-1.3-3-2c-0.7,0-1.3,0-2,0
		c-1.3-0.3-2.7-0.7-4-1c-0.7,0-1.3,0-2,0c-6.3-1-12.7-2-19-3c-2.7,0-5.3,0-8,0c-1.3-0.3-2.7-0.7-4-1c-2.3-0.7-4.7-1.3-7-2
		c-1,0-2,0-3,0c-1.3,0-2.7,0-4,0c-2-2.8-4.4-2.6-7-1c-0.7,0-1.3,0-2,0c-0.9-4.4-4.5-2.5-7-3c-1.3-0.7-2.7-1.3-4-2c-0.7,0-1.3,0-2,0
		c-1-0.3-2-0.7-3-1c-0.7-0.3-1.3-0.7-2-1c-0.7,0-1.3,0-2,0c-1-0.3-2-0.7-3-1c-2-0.3-4-0.7-6-1c-5.7-1.3-11.3-2.7-17-4
		c-1.7,0-3.3,0-5,0c-1.7-1-3.4-2.5-5.2-2.9c-12.6-2.8-25.4-5.1-37.9-8.2c-5.7-1.4-11.2-4.2-16.5-6.7c-3.7-1.8-4-4.4-0.7-7.4
		c1.4-1.2,2.2-3,3.3-4.6c3.3-0.1,6.6-0.2,9.9-0.3c18.7,0,37.5,0,56.2,0c7.6,0.1,15.3,0.2,22.9,0.3c-1.7,0.9-3.3,2.6-5,2.7
		c-15,0.9-30.1,1.2-45.1,2.2c-6,0.4-12,1.9-18,3.1c-1,0.2-2.5,1.5-2.6,2.5c-0.1,0.9,1.1,2.3,2.1,2.8c3.3,1.6,6.6,3.2,10.1,4.2
		c11.8,3.4,23.6,6.7,35.6,9.6c10.2,2.5,20.6,4.4,31,6.5c2,0.3,4,0.7,6,1C318.7,36.9,323.1,37.9,327.4,38.9z"/>
	<path class="st7" d="M227.6,31.9c12.9,2.2,25.9,3.9,38.6,6.6c21.7,4.6,43.5,9.3,65,14.7c25.2,6.4,50.4,13.1,75.3,20.8
		c24.7,7.6,49.2,16.2,73.5,25.1c21,7.7,41.7,16.3,62.4,25.1c18.5,7.8,36.9,15.9,54.8,24.8c15.9,7.9,31.2,17.1,46.6,25.9
		c7.3,4.2,14.4,8.7,21.5,13.2c1,0.7,1.5,2.3,2.2,3.4c-32.8-19.7-67.1-36.6-102-52.1c-1.3-0.6-2.7-1.2-4-1.7c-1-0.4-2-0.9-3-1.3
		c-3.3-1.5-6.7-2.9-10-4.4c0,0,0,0,0,0c-1.1-1.1-2.1-2.5-3.4-3.2c-5.2-2.6-10.4-5.3-15.8-7.4c-34-12.8-68-25.7-102.2-38
		c-15.5-5.6-31.2-10.3-47-15c-13.5-4-27.1-7.7-40.8-11.2c-5.5-1.4-11.2-1.6-16.8-2.3c-0.3,0-0.7-0.1-1-0.1c-1-0.3-2-0.6-3-0.9
		c-0.7,0-1.4-0.1-2-0.1c-0.4-0.2-0.8-0.5-1.3-0.7c-0.3,0.1-0.5,0-0.7-0.2c-1-0.3-2-0.6-3-0.9c-11.7-2.8-23.3-5.6-35-8.4
		C260.2,39.6,243.9,35.7,227.6,31.9z"/>
	<path class="st8" d="M795.4,61c0.3-1,0.6-2,1-3c15.6,4,31.4,7.3,46.7,12.1c28.3,9,56.3,18.9,84.4,28.5c3.4,1.2,6.6,2.9,9.9,4.4
		c1,1,1.8,2.3,3,3c16.7,9.1,31.5,20.7,45.1,33.9c1,0.9,2.1,2.9,1.7,3.8c-1.7,4,1.2,6.5,2.5,9.5c0.6,1.3,1.1,2.6,1.6,4
		c-6-4-11.9-8.1-17.9-12.1c-2.9-5.7-5.6-11.6-8.9-17.1c-1.1-1.8-3.7-2.6-5.6-3.9c-2.5-1.6-6.6-2.7-7.2-4.8c-0.9-3.2-3.2-3.9-5.1-4.9
		c-7.9-4.1-16-8-24.1-11.7c-2.8-1.3-6-1.8-9.1-2.6c-1.7-0.7-3.3-1.3-5-2c-0.7-0.6-1.4-1.3-2-1.9c-1-0.3-2-0.7-3-1
		c-0.7-0.3-1.3-0.7-2-1c-2.7-1-5.3-2-8-3c-6.3-2.3-12.7-4.7-19-7c-7.7-2.1-15.5-4.1-23.2-6.3c-13.3-3.8-26.6-7.8-39.8-11.7
		c-2-0.7-4-1.3-6.1-2c-0.6,0-1.3,0-1.9,0C800.7,63,798.1,62,795.4,61z"/>
	<path class="st9" d="M991.3,157c-0.5-1.3-1-2.7-1.6-4c-1.3-3-4.2-5.5-2.5-9.5c0.4-0.9-0.7-2.9-1.7-3.8
		c-13.6-13.1-28.4-24.8-45.1-33.9c-1.2-0.6-2-2-3-3c14.9,7.1,29.8,14.3,44.7,21.5c0.5,0.3,0.9,0.9,1.3,1.4c1.1,1.3,1.9,3,3.3,3.9
		c12.5,8.5,22.3,19.6,30,32.5c1.5,2.4,4.9,6.1-1.1,8.7c-1.5,0.6-1.6,4.7-2.3,7.2c-4.5-4.5-9-9.1-13.6-13.5
		C997.1,161.9,994.2,159.5,991.3,157z"/>
	<path class="st6" d="M322.4,54.8c5.6,0.7,11.3,0.9,16.8,2.3c13.7,3.4,27.3,7.1,40.8,11.2c15.8,4.7,31.5,9.4,47,15
		c34.2,12.4,68.2,25.2,102.2,38c5.4,2,10.6,4.8,15.8,7.4c1.3,0.7,2.3,2.1,3.4,3.2c-18.7-7.2-37.4-14.5-56.1-21.7
		c-54.9-21-110.8-39.2-167.6-54.5C323.9,55.5,323.2,55.1,322.4,54.8z"/>
	<path class="st7" d="M961.5,315c0-1.4,0-2.7-0.1-4.1c0.5-0.3,1.1-0.7,1.6-1c4.5-2.7,8.9-5.3,13.4-8c0,0,0,0,0,0
		c2.7-1.7,5.3-3.3,8-5c0,0,0,0,0,0c2-1,4-2,6-3c0,0,0,0,0,0c1-0.7,2-1.3,3-2c0,0,0,0,0,0c3-2.3,6-4.7,9-7c0,0,0,0,0,0
		c2.7-2,5.3-4,8-6c1-0.7,2-1.3,3-2c2.3-1.7,4.6-3.3,7-5c0-0.3,0-0.6,0-1c1.3-1,2.7-2,4-3c1.7-1.7,3.3-3.4,5-5.1
		c1.7-3.3,3.4-6.5,5.1-9.8c0,0,0,0,0,0c0.7,0,1.3,0,2,0c8.7-8.7,11.1-20.1,12.9-31.6c1.9-12-1.2-23.5-5.3-34.6
		c-2.3-6.4-5.2-13-11.5-16.8c-0.4-1-0.7-2-1.1-2.9c-0.3-1.3-0.7-2.7-1-4c0.8-0.3,1.7-0.6,2.5-0.9c0,0,0.2,0.4,0.2,0.4
		c0.3,0.3,0.5,0.5,0.8,0.7c0,0,0.3,0.3,0.3,0.3c1.2,2.5,2.2,5.1,3.7,7.4c8.5,13,15.1,26.8,14.2,42.6c-0.6,10.3-3.7,20.4-5.7,30.6
		c-6,12.1-14.9,21.9-24.8,30.8C1003.7,291.3,983.4,304.4,961.5,315z"/>
	<path class="st10" d="M308.4,34.9c-10.3-2.1-20.7-4-31-6.5c-11.9-2.9-23.7-6.3-35.6-9.6c-3.5-1-6.8-2.6-10.1-4.2
		c-1-0.5-2.2-2-2.1-2.8c0.1-1,1.5-2.3,2.6-2.5c6-1.2,11.9-2.7,18-3.1c15-1,30.1-1.4,45.1-2.2c1.7-0.1,3.3-1.8,5-2.7
		c4.7,0.3,9.3,0.7,14,1c2.3,0.9,4.7,1.9,7,2.8c-3.7,0.6-7.4,1.5-11.1,1.7c-12.9,0.5-25.8,0.6-38.7,1.1c-5.8,0.2-11.5,0.8-17.2,1.3
		c-1.5,0.1-3.1,0.3-4.3,1c-1.4,0.9-3,2.3-3.2,3.7c-0.2,0.8,1.8,2.7,3.2,3.2c7.7,2.5,15.5,4.8,23.3,7c10.7,3,21.4,5.9,32.1,8.9
		C306.6,33.1,307.4,34.2,308.4,34.9z"/>
	<path class="st5" d="M321.4,4.9c-2.3-0.9-4.7-1.9-7-2.8C332,2.3,349.7,2.2,367.2,3c28.7,1.3,57.4,3.3,86.2,5.1c-1,0.9-2,1.9-3,2.8
		c-2.3,0-4.7,0-7,0c-1-0.3-2-0.7-3-1c-6.8,0-13.7,0.2-20.5-0.1c-10.4-0.4-20.8-1.3-31.3-1.8c-6.1-0.3-12.2-0.1-18.3-0.1
		c-1-0.3-2-0.7-3-1c-1,0-2,0-3,0c-1,0-2,0-3,0c-1.3,0-2.7,0-4,0c-4-0.3-8-0.7-12-1c-2,0-4,0-6,0c-4.3-0.3-8.7-0.7-13-1
		C324.7,4.9,323.1,4.9,321.4,4.9z"/>
	<path class="st11" d="M268.4,30.9c1.7,0,3.3,0,5,0c4.6,1.6,9.2,3.4,13.8,4.9c0.9,0.3,2.1-0.5,3.2-0.9c2,0.3,4,0.7,6,1c0,1,0,2,0,3
		c-8.2-1.6-16.4-3.2-24.6-4.7c-12-2.2-24.1-4-36-6.8c-13.7-3.2-27.3-6.8-40.7-11c-4.4-1.4-8.9-4.1-9.7-9.7c2.9-1.6,5.9-3.3,8.8-4.9
		c1.1,0.1,2.1,0.2,3.2,0.3c-1.3,7.4-0.4,9.3,6.2,13.3c1.3,0.8,2.7,1.3,4.1,1.7c8.6,2.3,17.1,4.8,25.8,6.8
		C245.1,26.4,256.8,28.6,268.4,30.9z"/>
	<path class="st10" d="M581.4,22.9c-0.3,0-0.7,0-1,0c-0.3-0.3-0.7-0.7-1-1c-0.7,0-1.3,0-2,0c0-0.7,0-1.4,0-2
		c9.4,1.2,18.7,2.4,28.1,3.6c7.9,1.1,15.8,2.2,23.7,3.3c19.3,2.8,38.7,5.6,58,8.6c9.5,1.5,18.9,3.5,28.3,5.3c-1,0.3-2.2,1-3.1,0.9
		c-12.6-2.1-25.1-4.5-37.7-6.4c-5.9-0.9-12-0.7-17.9-1.5c-6.2-0.8-12.3-2.2-18.5-3.1c-15.7-2.3-31.4-4.6-47.1-6.8
		c-2-0.3-3.9-0.7-5.9-1C584.1,22.9,582.7,22.9,581.4,22.9z"/>
	<path class="st12" d="M268.4,30.9c-11.7-2.3-23.4-4.5-35-7c-8.7-1.9-17.2-4.4-25.8-6.8c-1.4-0.4-2.8-1-4.1-1.7
		c-6.6-4-7.5-5.9-6.2-13.3c1.6-0.3,3.3-0.5,4.9-0.7c0.7,0,1.5,0,2.2,0c1.6-0.1,3.2-0.1,4.9-0.2c0.7,0,1.3,0,2,0
		c-1.1,1.5-1.9,3.3-3.3,4.6c-3.3,2.9-3,5.6,0.7,7.4c5.4,2.6,10.8,5.3,16.5,6.7c12.5,3.1,25.3,5.4,37.9,8.2
		C265.1,28.4,266.7,29.9,268.4,30.9z"/>
	<path class="st6" d="M1046.5,244.1c2-10.2,5-20.3,5.7-30.6c0.9-15.8-5.7-29.7-14.2-42.6c-1.5-2.3-2.5-5-3.7-7.4
		c22.4,21.8,27.7,51.3,13.9,78.2C1047.7,242.5,1047,243.3,1046.5,244.1z"/>
	<path class="st13" d="M45.1,230.8c-0.7,1-1.2,2.6-2.1,2.8c-11,2.3-17.5-3.1-16.1-13.1c1.3-9.5,9-15.2,18.5-13.8
		c1.1,0.2,2,1.5,3,2.2c-1.2,0.5-2.4,1.5-3.5,1.5c-7.3-0.3-11.8,2.8-13.1,9.4c-1.4,6.9,2.5,11.1,9.4,10.4c1-0.1,2-0.3,2.9-0.4
		C44.4,230.2,44.8,230.5,45.1,230.8z"/>
	<path class="st13" d="M67.6,215.1c-1,6.3-1.9,12.3-2.9,19.1c-1.6-0.6-3.1-1.2-3.2-1.2c-4.4,0-8.4,1.2-10.7-0.3
		c-4-2.5-2.6-7.1-1-10.8C52.4,215.2,59.4,212.6,67.6,215.1z M63.6,217.6c-7.2,0.5-10.8,4.2-10.3,9.4c0.1,1.2,0.9,3,1.6,3.2
		c1.2,0.3,3.4-0.3,3.8-1.1C60.5,225.7,61.8,222,63.6,217.6z"/>
	<path class="st13" d="M114.8,234.5c-1.8-1-3.3-1.8-4.8-2.6c0.1,0.4,0.1,0.7,0.2,1.1c-3.2,0-6.9,1.1-9.3-0.3c-3.5-1.9-2.7-6-1.6-9.5
		c2.4-7.5,9.6-10.9,18.5-8.3C116.8,221.2,115.9,227.5,114.8,234.5z M113.3,217.9c-6.2-0.1-9.7,2.9-9.7,8.1c0,1.5,1.2,3.1,1.9,4.6
		c1.5-0.8,3.7-1.3,4.3-2.5C111.3,224.9,112.1,221.4,113.3,217.9z"/>
	<path class="st3" d="M557.4,19.9c-1.1,0.7-2.4,2-3.4,1.9c-8-0.9-16-2.1-24.1-3.1c-5.2-0.7-10.4-1.3-15.7-1.7
		c-14-1.1-28.1-2.1-42.1-3.1c-0.6,0-1.2-0.6-1.7-0.9c1.7-0.3,3.4-0.7,5.1-1c2.3-0.4,4.6-0.7,7-1.1c0.7,0.1,1.3,0.2,2,0.3
		c3.1,3.4,6.6,2.1,10,0.7c1,0.1,2,0.1,3,0.2c2.7,3.1,5.8,2.4,9,0.9c0.7,0,1.3,0.1,2,0.1c2.7,0.3,5.4,0.6,8,0.8c1.6,0,3.3,0,4.9,0.1
		c1.5,3.4,3.8,2.2,6,1c0.7,0,1.3,0.1,2,0.1c1.3,0.6,2.6,1.7,4,1.9C541.4,18,549.4,18.9,557.4,19.9z"/>
	<path class="st13" d="M128.6,234.2c-5,0-8.2-3.2-8.2-8.1c0-6.6,5.4-12.3,11.4-12.2c4.8,0.1,7.8,3.4,7.8,8.5
		C139.5,229.1,134.8,234.2,128.6,234.2z M135,221c-0.8-0.7-2.1-2.8-3.8-3.3c-2.9-0.8-5.8,3.5-5.9,7.8c-0.1,2.7,0.5,5.1,3.8,5.2
		C132,230.8,134.9,226.7,135,221z"/>
	<path class="st13" d="M93.3,210.8c1.1,1.2,2.3,2.4,3.3,3.7c0.4,0.5,1,1.3,0.9,1.9c-0.1,0.6-0.9,1.2-1.5,1.5
		c-0.9,0.3-1.9,0.2-3.1,0.4c-0.5,2.9-1.1,5.6-1.5,8.4c-0.1,1.1,0,2.3,0.5,3.3c0.5,1.1,1.5,2,2.2,3c-1.3,0.4-2.8,1.4-3.9,1.1
		c-1.5-0.5-2.8-1.9-3.7-3.2c-0.5-0.6,0-1.9,0.1-2.9c0-3.7,3.3-7.3,0-11.3c-0.4-0.5,4-4.8,6.1-7.4C92.9,209.7,93.1,210.2,93.3,210.8z
		"/>
	<path class="st13" d="M70,233.5c1-5.7,1.8-11.1,2.8-16.5c0.2-0.9,1.1-2.4,1.7-2.4c1,0,2,1,3.2,1.7c1.4-0.8,3.2-1.8,6.3-3.4
		c-0.8,2.6-0.9,4.8-1.5,5c-6.7,1.8-6.4,7.7-7.6,12.7C74.1,233.8,74.2,233.8,70,233.5z"/>
	<path class="st10" d="M482.5,10.8c-2.3,0.4-4.7,0.7-7,1.1c-1.7,0.3-3.4,0.7-5.1,1c-1.7,0-3.3,0-5,0c-1.3-2.8-2.7-2.8-4,0
		c-0.7,0-1.3,0-2,0c-3-0.7-6-1.3-9-2c1-0.9,2-1.9,3-2.8C463.1,9,472.8,9.9,482.5,10.8z"/>
	<path class="st1" d="M1030.4,162.9c0.3,1.3,0.7,2.7,1,4c-2.2-2.3-4.4-4.6-6.6-7c-3.5-3.8-7-7.6-10.3-11.5c-1.2-1.4-2-3.3-3-4.9
		c4.3,3.5,8.6,7,12.9,10.5c0.7,0.6,1.4,1.3,2.1,1.9c0.3,0.3,0.6,0.6,0.9,0.9c0.4,0.4,0.7,0.8,1.1,1.1c0,0,0-0.1,0-0.1
		c0.3,1,0.6,2.1,0.9,3.1C1029.7,161.6,1030,162.2,1030.4,162.9z"/>
	<path class="st10" d="M557.4,19.9c-8-1-16-1.9-24-3.1c-1.4-0.2-2.7-1.2-4-1.9c8.9,0.8,17.7,1.5,26.6,2.3c2.8,0.3,5.6,1,8.4,1.5
		c-1.4,0.4-2.7,0.7-4.1,1.1C559.4,19.9,558.4,19.9,557.4,19.9z"/>
	<path class="st14" d="M277.5,0.7c-18.7,0-37.5,0-56.2,0c1.8-0.2,3.6-0.7,5.4-0.7c15.7,0,31.3,0,47,0.1
		C274.9,0.1,276.2,0.5,277.5,0.7z"/>
	<path class="st13" d="M116.5,207.4c-0.3,2.7-1.5,4-4.8,3.1c-1.5-0.4-3.1-0.1-5.5-0.1c0.5-2.2,1.1-4,4.5-3.4
		C112.3,207.3,114,207.3,116.5,207.4z"/>
	<path class="st10" d="M494.5,11.8c-3.5,1.3-6.9,2.7-10-0.7C487.8,11.3,491.1,11.5,494.5,11.8z"/>
	<path class="st10" d="M572.4,21.9c-1.7,0-3.3,0-5,0c-0.3-1-0.7-2-1-2.9c2.3,0.3,4.7,0.6,7,0.8C573.1,20.5,572.8,21.2,572.4,21.9z"
		/>
	<path class="st10" d="M506.4,12.8c-3.2,1.5-6.3,2.2-9-0.9C500.4,12.2,503.4,12.5,506.4,12.8z"/>
	<path class="st6" d="M548.4,131.9c3.3,1.5,6.7,2.9,10,4.4C555.1,134.8,551.7,133.4,548.4,131.9z"/>
	<path class="st10" d="M516.5,13.8c-2.7-0.3-5.4-0.6-8-0.8C511.1,13.2,513.8,13.5,516.5,13.8z"/>
	<path class="st3" d="M566.4,18.9c0.3,1,0.7,2,1,2.9c-2.3-0.7-4.7-1.3-7-2c1.4-0.4,2.7-0.7,4.1-1.1
		C565.1,18.8,565.8,18.9,566.4,18.9z"/>
	<path class="st3" d="M572.4,21.9c0.4-0.7,0.7-1.4,1.1-2.1c1.3,0,2.6,0,3.9,0.1c0,0.7,0,1.4,0,2C575.7,21.9,574.1,21.9,572.4,21.9z"
		/>
	<path class="st10" d="M527.4,14.8c-2.3,1.3-4.5,2.5-6-1C523.4,14.2,525.4,14.5,527.4,14.8z"/>
	<path class="st5" d="M202.3,1.3c-1.6,0.2-3.3,0.5-4.9,0.7c-1.1-0.1-2.1-0.2-3.2-0.3C196.9,1.6,199.6,1.5,202.3,1.3z"/>
	<path class="st6" d="M561.4,137.6c1.3,0.6,2.7,1.2,4,1.7C564.1,138.8,562.7,138.2,561.4,137.6z"/>
	<path class="st6" d="M1030.4,162.9c-0.3-0.7-0.7-1.3-1-2c0.4-0.4,0.7-0.8,1.1-1.2c0.8,0.8,1.6,1.6,2.4,2.3
		C1032.1,162.3,1031.2,162.6,1030.4,162.9z"/>
	<path class="st6" d="M318.4,53.8c1,0.3,2,0.6,3,0.9C320.4,54.4,319.4,54.1,318.4,53.8z"/>
	<path class="st5" d="M1002.5,137.8c-1-0.7-2-1.4-3.1-2.1C1000.5,136.5,1001.5,137.1,1002.5,137.8z"/>
	<path class="st7" d="M1030.5,159.7c-0.4,0.4-0.7,0.8-1.1,1.2c-0.3-1-0.6-2.1-0.9-3.1C1029.1,158.4,1029.8,159.1,1030.5,159.7z"/>
	<path class="st5" d="M209.4,1.1c-1.6,0.1-3.2,0.1-4.9,0.2C206.1,1.2,207.8,1.1,209.4,1.1z"/>
	<path class="st6" d="M311.4,51.9c1,0.3,2,0.6,3,0.9C313.4,52.5,312.4,52.2,311.4,51.9z"/>
	<path class="st7" d="M1026.5,155.9c-0.7-0.6-1.4-1.3-2.1-1.9C1025.1,154.6,1025.8,155.3,1026.5,155.9z"/>
	<path class="st10" d="M721.5,41.9c-0.6-0.2-1.3-0.4-1.9-0.6C720.2,41.5,720.8,41.7,721.5,41.9z"/>
	<path class="st7" d="M1028.5,157.9c-0.4-0.4-0.7-0.8-1.1-1.1C1027.8,157.1,1028.1,157.5,1028.5,157.9z"/>
	<path class="st6" d="M315.1,53c0.4,0.2,0.8,0.5,1.3,0.7C316,53.5,315.5,53.3,315.1,53z"/>
	<path class="st6" d="M1033.9,163.2c-0.3-0.2-0.5-0.5-0.8-0.7C1033.4,162.7,1033.6,162.9,1033.9,163.2z"/>
	<path class="st15" d="M954.4,306.9c-3,1.7-5.9,4.1-9.1,4.8c-6.4,1.5-13,2.3-19.6,2.7c-1.9,0.1-4.7-1.3-5.9-2.9
		c-10.9-15-27.6-23.7-39.9-37.2c-5.6-6.2-14.2-9.7-21-14.9c-10.2-7.7-19.8-16.2-30.2-23.7c-7.2-5.2-15.2-9.3-22.8-14
		c-8-5-15.6-10.9-24-15c-22.8-11.3-46.1-21.8-69-33c-11.6-5.6-22.7-12.2-34.2-17.9c-5.9-2.9-12.2-5.1-18.4-7.5c-13-5-26-10-39-15
		c-2-0.8-4-1.6-6.1-2.3c-15.3-5.1-30.5-10.2-45.8-15.1c-11.2-3.6-22.5-6.7-33.8-10c-2.4-0.7-4.8-1.4-7.1-2.2
		c-12.8-4.4-25.4-10.1-38.6-12.8c-18-3.7-34.5-11.8-52-16.6c-12.1-3.4-24.4-6.2-36.6-9.4c-9.4-2.5-18.8-5.2-28.2-7.5
		c-9.7-2.3-19.4-4.3-29.1-6.4c-0.9-0.2-1.8-0.7-2.7-1.1c0.3-0.3,0.7-0.7,1-1c1,0,2,0,3,0c8.4,2,16.9,4,25.3,5.9
		c0.8,0.2,1.8-0.6,2.7-0.9c0.7,0,1.3,0,2,0l0,0c3,1.3,5.9,3.2,9.1,3.9c17.9,4.1,35.9,7.9,53.9,12c12.9,3,25.8,6.3,38.6,9.5
		c10.9,2.7,22,5,32.8,8c9.9,2.8,19.6,6.4,29.4,9.4c9.6,2.9,19.4,5.6,29.1,8.4c4.6,1.3,9.2,2.6,13.8,3.9c3,0.8,6.1,1.4,9,2.5
		c14.5,5.6,27.6,14.5,42.9,18.4c5.1,1.3,10,4.1,15.1,4.9c7.6,1.2,14.3,3.9,20.6,8.2c1.9,1.3,4.1,2.3,6.2,3.1
		c13.4,5.1,26.8,9.9,40.1,15.1c5.9,2.3,12.5,1.7,18.1,6c6.6,5.1,13.5,11,23.2,9.1c0.5-0.1,1.1,0.6,1.7,0.9
		c11.4,6.9,22.9,13.6,34,20.7c12.9,8.3,25.5,17.1,38.3,25.6c4,2.6,8.6,4.4,12.3,7.4c11.2,8.8,22.1,18,33.1,27c2.7,2.2,5.7,4,8.6,5.9
		c3.7,2.5,7.6,4.7,11,7.5c8,6.5,15.8,13.1,23.6,19.8c3,2.6,5.8,5.4,8.5,8.3c5.4,5.8,10.6,11.7,19.9,8.6
		C950.4,307.3,952.5,307.2,954.4,306.9z"/>
	<path class="st12" d="M417.4,58.9c1,0,2,0,3,0c0.6,0.6,1.2,1.7,1.9,1.9c4.8,1.1,9.7,2.1,14.6,3.1c17,3.6,34.1,6.9,51,10.8
		c10.3,2.3,20.5,5.5,30.8,8.1c19.1,4.9,38.4,9.3,57.4,14.7c13.7,3.9,27.1,8.8,40.6,13.4c16.2,5.5,32.4,11,48.5,16.5
		c13.2,4.5,26.3,9,39.5,13.5c4.4,1.5,9,2.5,13.3,4.1c8.9,3.3,18.2,6.1,26.6,10.5c5.5,2.8,10.2,6.7,16.9,5.6c0.9-0.1,2,0.2,2.8,0.7
		c8.5,4.6,16.9,9.2,25.3,13.8c11.6,6.5,22.8,14,34.9,19.2c13.2,5.6,24.8,13.7,35.2,22.9c9,8,19,14.4,28.6,21.3
		c10.3,7.4,21.2,14.1,31.6,21.5c8.7,6.2,17.1,12.9,25.6,19.3c1.8,1.4,4.4,1.9,6,3.5c2.7,2.8,6.2,5.8,6.9,9.3c1,4.8,2.2,6.5,7,4.5
		c5.7-2.3,11.3-4.6,16.9-7c-2.3,2.3-4.7,4.7-7,7c-0.7,0-1.3,0-2,0c-1.3,1-2.7,2-4,3c-1.3,0.3-2.7,0.7-4,1c-1.6,0.5-3.2,1.1-4.8,1.4
		c-4.5,0.7-9.8,3.1-13.4,1.6c-7-2.9-14-6.7-18.9-13.4c-2.7-3.7-5.9-7-9.2-10.2c-3.4-3.3-7.2-6.2-10.9-9.2
		c-5.7-4.6-11.5-9.1-17.2-13.8c-2.2-1.8-3.9-4.1-6-5.9c-5.3-4.5-11.1-8.5-15.9-13.5c-3.9-4.1-7.2-7.8-13.1-5.2
		c-1.2-2.2-1.7-4.2-3-5.2c-8.1-6.3-16-13.1-24.7-18.4c-13.1-8-26.9-14.9-40.3-22.4c-4.1-2.3-7.7-5.6-11.9-7.6
		c-11.5-5.6-23.2-10.8-34.8-16.2c-5.5-2.5-11.1-5.2-16.8-7.4c-7-2.7-14.2-5.1-21.4-7.5c-1.1-0.4-2.2-0.8-3.3-1
		c-12.8-1.8-24.2-7.2-35.1-13.6c-10.2-6-20.9-10.6-32.4-13.6c-10.3-2.6-20.9-4.8-30.4-9.3c-8.6-4-17-7.5-26.4-9.7
		c-15.2-3.5-29.9-8.8-45-12.7c-21.7-5.6-43.5-10.7-65.3-15.8c-14.7-3.4-29.5-6.5-44.2-9.9c-1.4-0.3-2.5-1.7-3.8-2.7
		C417.4,59.6,417.4,59.2,417.4,58.9z"/>
	<path class="st11" d="M417.4,59.9c1.2,0.9,2.4,2.3,3.8,2.7c14.7,3.4,29.5,6.4,44.2,9.9c21.8,5.1,43.6,10.2,65.3,15.8
		c15.1,3.9,29.8,9.2,45,12.7c9.4,2.1,17.8,5.6,26.4,9.7c9.5,4.5,20.1,6.7,30.4,9.3c11.5,2.9,22.2,7.6,32.4,13.6
		c10.9,6.4,22.4,11.8,35.1,13.6c1.1,0.2,2.2,0.6,3.3,1c7.1,2.5,14.3,4.8,21.4,7.5c5.7,2.2,11.2,4.8,16.8,7.4
		c11.6,5.3,23.3,10.6,34.8,16.2c4.2,2.1,7.8,5.3,11.9,7.6c13.4,7.5,27.2,14.4,40.3,22.4c8.7,5.3,16.6,12.1,24.7,18.4
		c1.3,1,1.8,3.1,3,5.2c5.9-2.6,9.2,1.1,13.1,5.2c4.8,5,10.6,8.9,15.9,13.5c2.1,1.8,3.9,4.1,6,5.9c5.7,4.7,11.5,9.2,17.2,13.8
		c3.7,3,7.5,5.9,10.9,9.2c3.3,3.2,6.6,6.5,9.2,10.2c4.8,6.6,11.8,10.4,18.9,13.4c3.6,1.5,8.9-0.8,13.4-1.6c1.6-0.3,3.2-0.9,4.8-1.4
		c-2.1,1.5-4.1,3.2-6.4,4.5c-1.4,0.8-3.1,1-4.6,1.5c-2,0.3-4,0.4-5.9,1c-9.3,3.1-14.5-2.8-19.9-8.6c-2.7-2.9-5.5-5.7-8.5-8.3
		c-7.8-6.7-15.6-13.4-23.6-19.8c-3.4-2.8-7.3-5-11-7.5c-2.9-2-5.9-3.7-8.6-5.9c-11.1-9-21.9-18.2-33.1-27c-3.7-2.9-8.3-4.7-12.3-7.4
		c-12.8-8.5-25.4-17.3-38.3-25.6c-11.2-7.2-22.7-13.9-34-20.7c-0.6-0.3-1.2-1-1.7-0.9c-9.6,1.9-16.5-4-23.2-9.1
		c-5.6-4.3-12.2-3.6-18.1-6c-13.3-5.3-26.7-10.1-40.1-15.1c-2.2-0.8-4.3-1.8-6.2-3.1c-6.3-4.2-13.1-6.9-20.6-8.2
		c-5.2-0.8-10-3.6-15.1-4.9c-15.3-3.9-28.4-12.8-42.9-18.4c-2.9-1.1-6-1.6-9-2.5c-4.6-1.3-9.2-2.6-13.8-3.9
		c-9.7-2.8-19.4-5.4-29.1-8.4c-9.9-3-19.5-6.6-29.4-9.4c-10.8-3-21.9-5.3-32.8-8c-12.9-3.2-25.7-6.5-38.6-9.5
		c-17.9-4.1-35.9-7.8-53.9-12c-3.2-0.7-6.1-2.6-9.1-3.9c0.7,0,1.3,0,2,0c1.3,0.3,2.7,0.7,4,1c0.7,0,1.3,0,2,0c1.3,0,2.7,0,4,0
		c0.7,0,1.3,0,2,0c0.7,0.7,1.3,1.3,2,2c1,0,2,0,3,0c0.7,0.3,1.3,0.7,2,1c0.7,0,1.3,0,2,0c2.3,0,4.7,0,7,0c0.7,0,1.3,0,2,0
		c1,0.3,2,0.7,3,1c0.7,0,1.3,0,2,0c1,0.3,2,0.7,3,1C416.1,59.9,416.7,59.9,417.4,59.9z"/>
	<path class="st16" d="M908.4,326.9c-1,0-2,0-3,0c-1.1-0.7-2.4-2-3.4-1.9c-4,0.4-6.4-1.5-9.1-4c-9.1-8.5-18.3-16.8-27.6-25.1
		c-2.9-2.6-6.2-4.9-9.3-7.2c-4-3-8-5.8-12-8.7c-10-7.4-19.7-15.1-29.9-22.1c-10.8-7.4-22-14.1-33-21.2c-1.9-1.2-3.5-3.1-5.6-4.2
		c-8.2-4.3-16.7-8-24.7-12.6c-9.5-5.4-18.6-11.6-27.9-17.3c-4.8-3-9.4-6.4-14.5-8.6c-13.8-5.8-27.8-11-41.7-16.6
		c-2.6-1-4.9-2.6-7.3-4.1c-6.6-4.1-12.9-8.9-19.8-12.1c-9-4.1-18.6-7-27.9-10.4c-3.7-1.4-7.5-2.6-11.2-3.9c-0.7-0.3-1.3-0.7-2-1
		c-0.8-0.7-1.4-1.8-2.3-2.2c-12.1-5.7-24.2-11.3-36.4-16.8c-9.4-4.3-18.9-8.6-28.3-13c3.6,1.2,7.3,2.1,10.9,3.5
		c10.4,4,20.7,8.1,30.9,12.3c14.5,6,28.9,12.4,43.5,18.2c4.7,1.9,10,2.3,14.8,4c4.8,1.7,9.3,4.2,13.8,6.4c5.1,2.5,10.2,5.1,15.4,7.4
		c5.9,2.5,11.9,4.7,17.9,6.9c4.8,1.8,9.6,3.4,14.4,5.2c2.9,1,6,1.8,8.6,3.3c12.5,7.4,24.8,15.3,37.5,22.5c7.3,4.1,15.3,7,22.6,11.1
		c5.8,3.3,11,7.8,16.6,11.5c4.1,2.7,8.6,4.9,12.8,7.6c15.6,9.7,31.4,19.2,46.6,29.4c18.7,12.6,36.4,26.4,52,42.9
		c5.1,5.4,10.7,10.5,16.9,14.5c2.9,1.8,7.7,1.1,11.5,0.8c4.8-0.4,9.5-1.6,14.2-2.4c0,0.7,0,1.3,0,2c-6.7,1.7-13.3,3.3-20,5
		C911.1,326.2,909.7,326.6,908.4,326.9z"/>
	<path class="st17" d="M531.4,113.9c9.4,4.3,18.9,8.6,28.3,13c12.1,5.6,24.3,11.2,36.4,16.8c0.9,0.4,1.5,1.5,2.3,2.2
		c-7.3-3-14.7-5.9-22-9c-12.4-5.3-24.7-10.7-37-16.1c-8.7-3.9-17.4-7.9-26.1-11.9c1.3,0,2.7,0,4,0c3,0.7,6,1.3,9,2
		c0.7,0.7,1.3,1.3,2,2C529.4,113.2,530.4,113.6,531.4,113.9z"/>
	<path class="st12" d="M1034.5,252.9c-1.7,3.3-3.4,6.5-5.1,9.8c-4.8-1.6-4.4,2.9-6,5.1c-0.7,0-1.3,0-2,0.1c-2,1.7-4,3.3-6,5
		c-0.3,0.3-0.7,0.7-1,1c-4.4,2.6-8.9,5.2-13.3,7.8c-1.2,0.7-2.5,1.5-3.7,2.2c-1,0-2,0-3,0c3.3-3,6.7-6,10-9c1.7-1.3,3.3-2.7,5-4
		c1.5-0.6,3.2-0.8,4.3-1.7c5.5-4.7,10.8-9.7,16.3-14.4C1031.2,253.8,1033,253.5,1034.5,252.9z"/>
	<path class="st16" d="M481.4,96.9c-5.8-2.3-11.6-4.8-17.5-7c-6.5-2.4-13-4.6-19.5-7.1c-1.2-0.5-2-1.9-3-2.9
		c17.2,5.7,34.3,11.3,51.4,17.1c2.1,0.7,3.7,2.6,5.6,3.9c-1.4-0.4-2.8-0.7-4.2-1.1C490,98.8,485.7,97.9,481.4,96.9z"/>
	<path class="st17" d="M932.4,320.9c0-0.7,0-1.3,0-2c14-3.7,27.2-9.8,40.2-16c1.2-0.6,2.5-0.7,3.8-1c-4.5,2.7-8.9,5.3-13.4,8
		c-0.5,0.3-1.1,0.7-1.6,1c-8.3,3-16.7,6-25,9C935.1,320.2,933.7,320.6,932.4,320.9z"/>
	<path class="st11" d="M994.4,283.9c1,0,2,0,3,0c-7.3,4.3-14.7,8.7-22,13c2.3-2.3,4.7-4.7,7-7C986.4,287.9,990.4,285.9,994.4,283.9z
		"/>
	<path class="st17" d="M481.4,96.9c4.3,1,8.5,1.9,12.8,2.9c1.4,0.3,2.8,0.7,4.2,1.1c2.7,1,5.3,2,8,3c0,0.7,0,1.3,0,2
		C498.1,102.9,489.7,99.9,481.4,96.9z"/>
	<path class="st16" d="M506.4,105.9c0-0.7,0-1.3,0-2c3.7,1.7,7.3,3.3,11,5c-1.3,0-2.7,0-4,0c-1-0.3-2-0.7-3-1c-0.7-0.3-1.3-0.7-2-1
		C507.7,106.6,507.1,106.2,506.4,105.9z"/>
	<path class="st17" d="M1002.4,284.9c-3,2.3-6,4.7-9,7C996.4,289.5,999.4,287.2,1002.4,284.9z"/>
	<path class="st11" d="M342.4,48.9c-0.3,0.3-0.7,0.7-1,1c-0.7,0-1.3,0-2,0c-0.7-0.3-1.3-0.7-2-1c-1,0-2,0-3,0c0-1,0-2,0-3
		c0.3-0.3,0.7-0.7,1-1c2.3,0.7,4.7,1.3,7,2C342.4,47.6,342.4,48.2,342.4,48.9z"/>
	<path class="st15" d="M334.4,45.9c0,1,0,2,0,3c-2.3-1-4.7-2-7-3c0.3-0.3,0.7-0.7,1-1c1.3,0,2.7,0,4,0
		C333.1,45.2,333.7,45.6,334.4,45.9z"/>
	<path class="st11" d="M328.4,44.9c-0.3,0.3-0.7,0.7-1,1c-2,0-4,0-6,0c0-0.7,0-1.3,0-2C324,42.3,326.4,42.1,328.4,44.9z"/>
	<path class="st11" d="M312.4,40.9c2.6,0.5,6.1-1.4,7,3c-0.7,0-1.4,0-2,0c-1.7,0-3.3,0-5,0c0-0.7,0-1.3,0-2
		C312.4,41.6,312.4,41.2,312.4,40.9z"/>
	<path class="st17" d="M1010.4,278.9c-2.7,2-5.3,4-8,6C1005.1,282.9,1007.7,280.9,1010.4,278.9z"/>
	<path class="st17" d="M984.4,296.9c-2.7,1.7-5.3,3.3-8,5C979.1,300.2,981.7,298.6,984.4,296.9z"/>
	<path class="st17" d="M1014.4,273.9c0.3-0.3,0.7-0.7,1-1c1.7-0.3,3.3-0.7,5-1c-2.3,1.7-4.6,3.3-7,5
		C1013.7,275.9,1014.1,274.9,1014.4,273.9z"/>
	<path class="st15" d="M306.4,38.9c0.7,0,1.3,0,2,0c0,0.3,0,0.7,0,1c0,1,0,2,0,3c-1-0.7-2-1.3-3-2C305.7,40.2,306.1,39.6,306.4,38.9
		z"/>
	<path class="st15" d="M303.4,40.9c-2-0.7-4-1.3-6-2c0.3,0,0.7,0,1,0c1,0.3,2,0.7,3,1c0.7,0,1.3,0,2,0
		C303.4,40.2,303.4,40.6,303.4,40.9z"/>
	<path class="st17" d="M990.4,293.9c-2,1-4,2-6,3C986.4,295.9,988.4,294.9,990.4,293.9z"/>
	<path class="st15" d="M317.4,43.9c0.7,0,1.4,0,2,0c0.7,0,1.3,0,2,0c0,0.7,0,1.3,0,2C320.1,45.2,318.7,44.6,317.4,43.9z"/>
	<path class="st11" d="M969.4,299.9c1.3-1,2.7-2,4-3C972.1,297.9,970.7,298.9,969.4,299.9z"/>
	<path class="st11" d="M303.4,40.9c0-0.3,0-0.7,0-1c0-0.7,0-1.3,0-2c1,0.3,2,0.7,3,1c-0.3,0.7-0.7,1.3-1,2
		C304.7,40.9,304.1,40.9,303.4,40.9z"/>
	<path class="st12" d="M298.4,38.9c-0.3,0-0.7,0-1,0c-0.3,0-0.7,0-1,0c0-1,0-2,0-3c1,0.3,2,0.7,3,1
		C299.1,37.6,298.7,38.2,298.4,38.9z"/>
	<path class="st11" d="M308.4,42.9c0-1,0-2,0-3c0.7,0.7,1.3,1.3,2,2c0,0.3,0,0.7,0,1C309.7,42.9,309.1,42.9,308.4,42.9z"/>
	<path class="st17" d="M993.4,291.9c-1,0.7-2,1.3-3,2C991.4,293.2,992.4,292.5,993.4,291.9z"/>
	<path class="st16" d="M528.4,112.9c-0.7-0.7-1.3-1.3-2-2C527.1,111.6,527.7,112.2,528.4,112.9z"/>
	<path class="st15" d="M337.4,48.9c0.7,0.3,1.3,0.7,2,1C338.7,49.5,338.1,49.2,337.4,48.9z"/>
	<path class="st15" d="M310.4,42.9c0-0.3,0-0.7,0-1c0.7,0,1.3,0,2,0c0,0.7,0,1.3,0,2C311.7,43.6,311.1,43.2,310.4,42.9z"/>
	<path class="st9" d="M1019.4,246.9c-1.3,2-2.7,4-4,6c-8.9,4.9-13.3-3.9-19.6-6.6c-10.2-4.3-20.2-9.3-30.1-14.3
		c-18.1-9-37.2-15.9-52.3-30.4c-18-17.3-38.2-32.1-60.6-43.2c-17.5-8.7-35.7-16.2-54.1-22.7c-17.5-6.1-35.7-10.3-53.7-15.1
		c-15.4-4.1-30.9-7.7-46.3-11.8c-9.1-2.5-18-6-27.1-8.3c-45.3-11.7-89.8-26.4-136-34.7c-22-3.9-43.9-8.6-65.9-12.9
		c-9.8-1.9-19.6-3.4-29.3-5.2c-0.7-0.1-1.3-1.2-1.9-1.9c2.1,0.2,4.3,0.3,6.4,0.7c11.8,1.8,23.5,3.6,35.3,5.4c8,1.2,16.1,2,24,3.5
		c7.9,1.5,15.7,3.7,23.6,5.3c2.1,0.4,4.5-0.5,6.7-0.7c0,0,0.5,0,0.5,0s0.5,0,0.5,0c1.5,1,2.9,2.6,4.6,2.9c16,3.1,32.1,5.8,48.1,9.1
		c11.9,2.5,23.7,5.7,35.6,8.6c9.8,2.4,19.5,4.8,29.2,7.3c5.9,1.5,11.7,3.6,17.6,5c10.1,2.4,20.5,3.4,30.3,7
		c5.8,2.1,12.2,2.8,18.3,4.3c8.1,2.1,16.2,4.5,24.3,6.8c9.4,2.6,18.8,5.2,28.1,7.9c3.4,1,6.7,3.8,10.1,3.8
		c12.4-0.1,22.8,6.2,34.2,9.3c9.7,2.6,18.9,7.1,28.1,11.1c7.5,3.2,15,6.5,22,10.7c11.3,6.7,22.3,13.9,33.1,21.4
		c5.8,4.1,10.9,9.2,16.2,14.1c5.4,5.1,10.1,11.1,16,15.4c7.3,5.3,15.3,9.8,23.5,13.8c6.9,3.4,14.3,7.1,21.8,8.1
		c8.6,1.2,16,4.2,23.4,8.1c2.2,1.2,4.4,2.2,6.6,3.3c2.2,1.6,4.9,2.9,6.6,5c2.1,2.6,4,2.1,6.4,0.9
		C1019.4,244.9,1019.4,245.9,1019.4,246.9z"/>
	<path class="st18" d="M795.4,61c2.7,1,5.3,2,8,3c-5.3-0.1-10.6,0.5-15.8-0.3c-12.7-2.1-25.2-4.9-37.8-7.2
		c-10.8-2-21.7-3.7-32.6-5.5c-3.4-0.6-6.8-1.6-10.2-1.9c-8.3-0.9-16.8-1.2-25-2.5c-13.1-2-26-4.8-39.1-6.9
		c-13.4-2.1-26.8-3.8-40.2-5.6c-8.3-1.1-16.5-2.3-24.8-2.9c-4.4-0.3-8.9,0.5-13.4,0.8c-10.7-1-21.3-2-32-3.1c-0.7-0.3-1.4-0.6-2-0.9
		c-1.3,0-2.7,0-4,0c-1.4-0.3-2.9-0.9-4.3-1c-11.5-0.4-23.1-0.7-34.6-1.1c-1.2-1-2.2-2.6-3.5-2.8c-4.9-0.6-9.8-0.7-14.7-1.2
		c-4.7-0.5-9.3-1.3-13.9-2c7.1-0.3,14.1-1,21.2-0.8c8.3,0.2,16.5,1.3,24.7,1.8c11.4,0.7,22.8,1.2,34.2,2c6.4,0.5,12.8,1.4,19.3,2.1
		c15.9,1.7,31.9,2.9,47.8,5c21.3,2.8,42.6,6.1,63.9,9.5c15.4,2.5,30.6,7,46,7.8c15.2,0.8,29.7,4.4,44.5,6.7
		c7.2,1.1,14.3,3.3,21.5,4.6C784,59.7,789.7,60.2,795.4,61z"/>
	<path class="st19" d="M455.4,19.9c4.6,0.7,9.2,1.5,13.9,2c4.9,0.5,9.8,0.5,14.7,1.2c1.3,0.2,2.3,1.8,3.5,2.8
		c-12.4,0.4-24.9,0.6-37.3,1.1c-4,0.1-7.9,0.5-11.8,1.1c-1.4,0.2-2.6,1.7-3.9,2.7c0.1,0.5,0.2,1,0.3,1.5c6.4,1.9,12.8,4.1,19.4,5.5
		c10,2.2,20.1,3.6,30.2,5.6c11.1,2.2,22.2,4.7,33.4,7.1c5.3,1.1,10.6,2.3,15.8,3.4c-4.4-0.2-8.9-0.1-13.3-0.7
		c-6.6-0.9-13.1-2.2-19.7-3.3c-0.7,0-1.3,0-2,0c-2-0.7-4-1.6-6-1.9c-13.8-2.1-27.6-4-41.4-6.2c-12.2-2-24.4-4.1-36.5-6.4
		c-5.6-1.1-11.2-2.7-16.7-4.3c-0.9-0.2-2.2-1.6-2.1-2.2c0.2-1.1,1.2-2.6,2.1-2.8c3.4-1,6.8-1.5,10.3-2.2c5.8-1,11.5-2,17.3-3
		c2,0.3,4,0.7,6,1c6-0.7,12-1.3,18-2c0.7,0,1.4,0,2-0.1C452.8,19.9,454.1,19.9,455.4,19.9z"/>
	<path class="st8" d="M391.4,38.9c-11.1-1.5-22.3-3.1-33.4-4.7c-9.6-1.4-19.2-2.7-28.8-4.4c-4.5-0.8-9.1-2.1-13.1-4.2
		c-1.8-0.9-2.3-4.3-3.6-7c1.1-0.3,1.8-0.7,2.5-0.7c8.8,0.1,17.6,0.5,26.4,0.4c6.6-0.1,13.3-1,19.9-1.1c5.7-0.1,11.3,0.4,17,0.7
		c-0.5,0.6-0.9,1.7-1.4,1.8c-6.5,0.8-13.1,1.8-19.7,2.2c-6.6,0.4-13.2,0.1-19.8,0.4c-1,0-1.9,1.7-2.9,2.7c1.2,0.7,2.3,1.7,3.6,2.1
		c1.5,0.3,3.2-0.3,4.7,0.1c10.5,2.4,20.9,4.9,31.4,7.3c4.7,1,9.4,1.7,14.1,2.6c1,0.3,2,0.7,3,1C391.4,38.2,391.4,38.5,391.4,38.9z"
		/>
	<path class="st18" d="M388.4,36.9c-4.7-0.8-9.5-1.5-14.1-2.6c-10.5-2.3-20.9-4.9-31.4-7.3c-1.5-0.3-3.2,0.3-4.7-0.1
		c-1.3-0.3-2.4-1.3-3.6-2.1c1-0.9,1.9-2.6,2.9-2.7c6.6-0.3,13.2,0,19.8-0.4c6.6-0.4,13.1-1.3,19.7-2.2c0.5-0.1,1-1.1,1.4-1.8
		c1.3,0,2.7,0,4,0c1.3,0.7,2.7,1.3,4,2c-5.7,2.1-11.4,4.3-18.3,6.9c3.4,1.5,6.3,3,9.3,4C381.5,32.2,385.9,32.8,388.4,36.9z"/>
	<path class="st8" d="M498.4,49.9c0.7,0,1.3,0,2,0c0.8,1,1.4,2.5,2.3,2.8c4.9,1.3,10,2.1,15,3.2c5.6,1.3,11.2,2.7,16.7,4
		c-2.2,0.3-4.6,1.1-6.7,0.7c-7.9-1.6-15.7-3.8-23.6-5.3c-8-1.5-16-2.3-24-3.5c-11.8-1.8-23.5-3.6-35.3-5.4c-2.1-0.3-4.3-0.4-6.4-0.7
		c-1,0-2,0-3,0c-2-0.7-4-1.3-6-2c-9.7-1.3-19.3-2.7-29-4c1.3-0.7,2.7-1.3,4-2c10.6,1.5,20.9,4.9,31.7,4.1c0.5,0,1,0.1,1.5,0.2
		c18.9,2.9,37.7,5.8,56.6,8.6C495.5,51,497,50.2,498.4,49.9z"/>
	<path class="st18" d="M431.4,21.9c-2-0.3-4-0.7-6-1c-1.7-0.3-3.5-0.9-5.2-1c-10.6-0.1-21.2,0-31.8,0c1.2-0.7,2.5-1.3,3.7-2
		c1.1-0.6,2.2-1.3,3.3-2c1.3,0,2.7,0,4,0c0.3,0.5,0.7,1,1,1.4c0.3-0.5,0.7-1,1-1.4c10,0.7,20,1.3,30,2
		C431.4,19.3,431.4,20.6,431.4,21.9z"/>
	<path class="st20" d="M431.4,21.9c0-1.3,0-2.6,0-3.9c6,0.3,12,0.6,18,0.9c0,0.3,0,0.7,0,1C443.4,20.6,437.4,21.2,431.4,21.9z"/>
	<path class="st18" d="M404.4,37.9c-1.3,0.7-2.7,1.3-4,2c-0.3,0-0.7,0-1,0c-2-0.3-4-0.7-6-1c-0.7,0-1.3,0-2,0c0-0.3,0-0.7,0-1
		c-0.1-3.3,2.2-3.3,4.3-2.8C398.7,35.7,401.5,36.9,404.4,37.9z"/>
	<path class="st3" d="M450.4,10.9c3,0.7,6,1.3,9,2c-5.5,1.9-10.8,1.4-16-1c0-0.3,0-0.7,0-1C445.7,10.9,448.1,10.9,450.4,10.9z"/>
	<path class="st8" d="M395.4,15.9c-1.1,0.7-2.2,1.3-3.3,2c-1.2,0.7-2.5,1.3-3.7,2c-0.7,0-1.3,0-2,0c-1.3-0.7-2.7-1.3-4-2
		C386.3,14,391.1,16.7,395.4,15.9z"/>
	<path class="st9" d="M429.4,43.9c2,0.7,4,1.3,6,2C433.4,45.2,431.4,44.6,429.4,43.9z"/>
	<path class="st8" d="M393.4,38.9c2,0.3,4,0.7,6,1C397.4,39.6,395.4,39.2,393.4,38.9z"/>
	<path class="st3" d="M461.4,12.9c1.3-2.8,2.7-2.8,4,0C464.1,12.9,462.7,12.9,461.4,12.9z"/>
	<path class="st10" d="M443.4,10.9c0,0.3,0,0.7,0,1c-1,0-2,0-3,0c0-0.7,0-1.3,0-2C441.4,10.2,442.4,10.6,443.4,10.9z"/>
	<path class="st3" d="M581.4,22.9c1.3,0,2.7,0,4,0C584.1,22.9,582.7,22.9,581.4,22.9z"/>
	<path class="st18" d="M449.4,19.9c0-0.3,0-0.7,0-1c0.7,0.3,1.4,0.6,2,1C450.8,19.9,450.1,19.9,449.4,19.9z"/>
	<path class="st8" d="M401.4,15.9c-0.3,0.5-0.7,1-1,1.4c-0.3-0.5-0.7-1-1-1.4C400.1,15.9,400.7,15.9,401.4,15.9z"/>
	<path class="st8" d="M312,22.7c-0.2,0.2-0.3,0.4-0.5,0.7c-0.2-0.2-0.4-0.4-0.5-0.6c0-0.1,0.2-0.4,0.2-0.3
		C311.5,22.5,311.7,22.6,312,22.7z"/>
	<path class="st3" d="M579.4,21.9c0.3,0.3,0.7,0.7,1,1C580.1,22.6,579.7,22.2,579.4,21.9z"/>
	<path class="st10" d="M454.4,62.9c-0.6-0.6-1.2-1.7-1.9-1.9c-15.5-2.5-31-4.5-46.4-7.3c-7.3-1.3-14.5-3.9-21.7-5.9
		c5,0.4,10,0.6,14.9,1.2c15.7,2.2,31.5,4.3,47.2,6.8c11.4,1.9,22.8,4.3,34.2,6.5c12.9,2.5,25.7,4.8,38.6,7.4
		c6.5,1.3,12.8,3.5,19.3,5c21.8,5.2,43.6,10,65.4,15.5c8,2,15.6,5.5,23.5,8c14.7,4.6,29.5,9,44.3,13.4c13.6,4.1,27.3,8.1,40.9,12
		c14.5,4.2,29.1,8.1,43.5,12.6c9.5,3,18.7,6.8,27.9,10.3c18.3,7,36.7,13.8,54.8,21.3c11.6,4.8,23,10.3,32.4,19.2
		c3.7,3.5,8.3,6.1,12.3,9.3c2.9,2.4,5.8,4.9,8.4,7.6c12.5,13,27.8,21.8,44.1,29.3c5.6,2.5,10.9,5.7,16.3,8.6
		c13.9,7.1,27.8,14.2,41.6,21.4c2.3,1.2,4.3,3.1,6.4,4.7c-4.5,5.2-6.7,4.9-13.5,0.1c-6.7-4.7-13.8-9.1-21.1-12.8
		c-15.3-7.9-31-15.1-46.4-22.9c-3.8-1.9-7.2-4.7-10.5-7.5c-13.7-11.5-26.8-23.8-41.1-34.5c-9.2-6.9-19.8-12.2-30.2-17.2
		c-14.7-7-29.7-13.2-44.7-19.5c-5.8-2.4-11.7-4.6-17.7-6.5c-15.5-4.8-31.2-9.2-46.7-14.1c-13.1-4.1-26-8.9-39.2-12.9
		c-6.3-1.9-12.9-2.7-19.3-4.4c-4.3-1.1-8.4-2.9-12.7-4.3c-18-5.9-35.9-12-54.1-17.5c-14.6-4.4-29.4-8.2-44.2-11.9
		c-15.4-3.9-30.9-7.6-46.5-10.8c-13.8-2.8-27.7-4.9-41.6-7.2c-1.2-0.2-2.5,0.5-3.7,0.8c-1,0-2,0-3,0c-0.7-0.7-1.3-1.3-2-2
		c-1,0-2,0-3,0c-1,0-2,0-3,0C455.7,62.9,455.1,62.9,454.4,62.9z"/>
	<path class="st21" d="M991.3,157c2.8,2.5,5.7,4.9,8.4,7.5c4.6,4.4,9,9,13.6,13.5c3.5,6.2,7.2,12.2,10.4,18.6
		c4.3,8.5,5.4,17.7,4.4,27.2c-1.6,2-3.3,3.9-4.6,5.4c-6.2-4.1-11.7-7.7-17.2-11.3c-3.3-8.4-5.3-10.8-15.9-9.5
		c-6.1,0.8-12.7-2.9-19.1-4.5c0-1.3,0-2.7,0-4c0.8-0.9,1.7-2.6,2.2-2.5c4.8,1.2,5.7-2.2,6.8-5.5c0.1-0.7,0.6-1.5,0.4-2.2
		c-0.9-3.5-2.8-7-2.7-10.4c0.3-7.3-2.6-13.3-5.7-19.4c-2.5-4.3-5.1-8.6-7.6-12.8c-2.1-3.4-4.2-6.8-6.3-10.3c5,2.7,10,5.4,15,8.1
		C979.4,148.9,985.4,153,991.3,157z"/>
	<path class="st19" d="M1006.4,217.9c5.5,3.6,10.9,7.2,17.2,11.3c1.3-1.5,2.9-3.5,4.6-5.4c-0.3,2-0.5,4-0.8,6.1c-1.7,3-3.3,6-5,9
		c-2.6-0.9-5.5-1.3-7.9-2.7c-7.4-4.2-14.7-8.8-22-13.3c-0.3-0.7-0.7-1.3-1-2C996.7,221.6,1002.2,222.8,1006.4,217.9z"/>
	<path class="st2" d="M1022.3,238.8c1.7-3,3.3-6,5-9c1.7,6.1-2.3,10.7-4.4,15.8c-0.3,0.8-2.3,0.9-3.5,1.3c0-1,0-2,0-3
		c0-0.3,0-0.6,0-1c0.3-0.3,0.7-0.7,1-1C1021,240.9,1021.7,239.9,1022.3,238.8z"/>
	<path class="st10" d="M347.4,40.9c-6,1.8-11.5,0.4-17-2C336.1,39.6,341.7,40.2,347.4,40.9z"/>
	<path class="st10" d="M326.4,4.9c4.3,0.3,8.7,0.7,13,1C335,7,330.5,8.7,326.4,4.9z"/>
	<path class="st10" d="M345.4,5.9c4,0.3,8,0.7,12,1C353.3,8,349.1,9.7,345.4,5.9z"/>
	<path class="st10" d="M327.4,38.9c-4.3-1-8.7-2-13-3C319.2,34.8,323.6,35.5,327.4,38.9z"/>
	<path class="st10" d="M382.4,47.9c-3.3-0.7-6.7-1.3-10-2C376.2,44.3,379.6,44.7,382.4,47.9z"/>
	<path class="st10" d="M359.4,43.9c-3.3-1-6.7-2-10-3C352.7,41.9,356.1,42.9,359.4,43.9z"/>
	<path class="st10" d="M367.4,6.9c1,0.3,2,0.7,3,1C369.4,7.6,368.4,7.2,367.4,6.9z"/>
	<path class="st10" d="M361.4,6.9c1,0,2,0,3,0c-0.6,0.6-1.2,1.2-1.7,1.8C362.3,8.1,361.8,7.5,361.4,6.9z"/>
	<path class="st10" d="M364.4,44.9c-1-0.3-2-0.7-3-1C362.4,44.2,363.4,44.6,364.4,44.9z"/>
	<path class="st17" d="M600.4,146.9c3.7,1.3,7.5,2.6,11.2,3.9c9.3,3.4,18.9,6.3,27.9,10.4c7,3.2,13.2,8,19.8,12.1
		c2.4,1.5,4.7,3,7.3,4.1c13.9,5.6,27.9,10.8,41.7,16.6c5.1,2.2,9.8,5.6,14.5,8.6c9.3,5.8,18.4,11.9,27.9,17.3
		c8,4.6,16.5,8.3,24.7,12.6c2,1.1,3.6,2.9,5.6,4.2c11,7.1,22.2,13.8,33,21.2c10.2,7,20,14.7,29.9,22.1c4,2.9,8,5.8,12,8.7
		c3.2,2.3,6.4,4.6,9.3,7.2c9.3,8.3,18.5,16.6,27.6,25.1c2.7,2.5,5.2,4.5,9.1,4c1.1-0.1,2.3,1.2,3.4,1.9c-2.8,1-5.5,2.3-8.4,2.8
		c-3.9,0.6-7.4,0-11.3-2.3c-8.4-4.9-13.9-12.6-20.5-19.2c-1.6-1.6-3.4-3-5.2-4.5c-4.3-3.4-9.1-6.2-12.8-10.2
		c-10.1-10.9-22.1-19.4-34.7-27.1c-13.5-8.2-27.4-15.9-41-24.1c-3.9-2.4-7.4-5.4-11.2-8c-15-10.2-30.1-20-47-26.8
		c-7.8-3.1-15-7.8-22.4-11.7c-6-3.2-12-6.3-17.9-9.6c-4.7-2.6-9.2-5.6-14-8.2c-4.9-2.6-10.1-4.7-15-7.3c-5.6-2.9-11.1-6-16.6-8.9
		c-8.1-4.2-16.3-8.2-24.4-12.3C602,149,601.3,147.8,600.4,146.9z"/>
	<path class="st17" d="M908.4,326.9c1.3-0.3,2.7-0.7,4-1C911.1,326.2,909.7,326.6,908.4,326.9z"/>
	<path class="st17" d="M508.4,106.9c0.7,0.3,1.3,0.7,2,1C509.7,107.6,509.1,107.2,508.4,106.9z"/>
	<path class="st22" d="M454.4,62.9c0.7,0,1.3,0,2,0c1,0,2,0,3,0c1,0,2,0,3,0c0.7,0.7,1.3,1.3,2,2c1,0,2,0,3,0
		c13.4,3.2,26.9,6.3,40.3,9.6c28.5,7.1,57.1,13.8,85.4,21.5c18.5,5.1,36.5,11.8,54.9,17.5c10.9,3.4,22.1,6,33,9.5
		c16.2,5.3,32.3,11,48.3,16.8c11.5,4.1,23,8.6,34.4,12.9c13,4.9,26,9.7,39,14.6c8,3.1,16.1,6.2,23.9,9.7c14.3,6.4,28,14.1,39.9,24.4
		c8.6,7.5,17.1,15.1,25.1,23.2c9.8,9.8,21.5,16.4,34,22.2c14.8,6.9,29.3,14.4,43.7,22c3.5,1.9,6,5.5,9.3,7.9
		c6.6,4.8,13.2,1.9,19.7-0.3c2-0.7,4.1-1.2,6.1-1.7c-3.3,3-6.7,6-10,9c-4,2-8,4-12,6c-5.6,2.3-11.3,4.7-16.9,7c-4.9,2-6,0.3-7-4.5
		c-0.7-3.4-4.2-6.5-6.9-9.3c-1.5-1.6-4.1-2.1-6-3.5c-8.6-6.4-16.9-13.1-25.6-19.3c-10.4-7.4-21.2-14.1-31.6-21.5
		c-9.6-6.9-19.6-13.3-28.6-21.3c-10.4-9.2-21.9-17.2-35.2-22.9c-12.2-5.2-23.3-12.7-34.9-19.2c-8.4-4.7-16.8-9.3-25.3-13.8
		c-0.8-0.5-2-0.8-2.8-0.7c-6.7,1.1-11.4-2.8-16.9-5.6c-8.4-4.3-17.6-7.2-26.6-10.5c-4.4-1.6-8.9-2.6-13.3-4.1
		c-13.2-4.4-26.3-9-39.5-13.5c-16.2-5.5-32.3-11-48.5-16.5c-13.5-4.6-26.9-9.5-40.6-13.4c-19-5.3-38.3-9.8-57.4-14.7
		c-10.3-2.6-20.4-5.8-30.8-8.1c-17-3.8-34-7.2-51-10.8c-4.9-1-9.8-2-14.6-3.1c-0.8-0.2-1.3-1.2-1.9-1.9c6.2,0.9,12.4,1.9,18.7,2.7
		C444.2,62.2,449.3,62.5,454.4,62.9z"/>
	<path class="st1" d="M1032.5,169.8c6.3,3.9,9.2,10.4,11.5,16.8c4.1,11.1,7.2,22.6,5.3,34.6c-1.8,11.5-4.2,22.9-12.9,31.6
		c0.4-1.7,0.5-3.5,1.1-5c2.8-6.8,6.4-13.3,8.3-20.4c1.7-6.3,3.3-13.1-0.3-19.6c-0.3-2-0.7-4-1-6c-0.3-0.7-0.7-1.4-1-2
		c0-0.7,0-1.3,0-2c1.1-4.5-3.1-15.1-7-18C1035.1,176.5,1033.8,173.2,1032.5,169.8z"/>
	<path class="st22" d="M1045.4,207.9c3.6,6.5,2,13.3,0.3,19.6c-1.9,7-5.5,13.6-8.3,20.4c-0.6,1.6-0.7,3.3-1.1,5c-0.7,0-1.3,0-2,0
		c0.3-1.8,0-3.8,0.9-5.2c7.1-11.5,9.1-24.1,8.8-37.4C1044.1,209.5,1045,208.7,1045.4,207.9z"/>
	<path class="st12" d="M1036.4,179.9c3.9,2.9,8,13.5,7,18C1041.1,191.9,1038.7,185.9,1036.4,179.9z"/>
	<path class="st22" d="M1009.4,270.9c-1.7,1.3-3.3,2.7-5,4C1006.1,273.6,1007.7,272.2,1009.4,270.9z"/>
	<path class="st12" d="M1043.4,199.9c0.3,0.7,0.7,1.4,1,2C1044.1,201.2,1043.8,200.5,1043.4,199.9z"/>
	<path class="st11" d="M373.4,53.9c-0.9,0.3-1.9,1.1-2.7,0.9c-8.5-1.9-16.9-3.9-25.3-5.9c0.3-0.3,0.7-0.7,1-1c2.7,0,5.3,0,8,0
		c1,0.7,1.9,1.7,2.9,2c5.3,1.1,10.7,2,16.1,3C373.4,53.2,373.4,53.6,373.4,53.9z"/>
	<path class="st22" d="M407.4,57.9c-0.7,0-1.3,0-2,0c-2.3,0-4.7,0-7,0c-0.7,0-1.3,0-2,0c-0.7-0.3-1.3-0.7-2-1c-1,0-2,0-3,0
		c0-0.7,0-1.3,0-2c7.9-1.9,15.2-0.4,22,4c-0.3,0-0.7,0-1,0c-0.7,0-1.3,0-2,0C409.4,58.6,408.4,58.2,407.4,57.9z"/>
	<path class="st22" d="M373.4,52.9c-5.4-1-10.7-1.9-16.1-3c-1.1-0.2-2-1.3-2.9-2c6.3,1,12.7,2,19,3
		C373.4,51.6,373.4,52.2,373.4,52.9z"/>
	<path class="st12" d="M290.4,34.9c-1.1,0.3-2.3,1.1-3.2,0.9c-4.7-1.5-9.2-3.2-13.8-4.9C279.1,32.2,284.7,33.6,290.4,34.9z"/>
	<path class="st12" d="M346.4,47.9c-0.3,0.3-0.7,0.7-1,1c-1,0-2,0-3,0c0-0.7,0-1.3,0-2C343.7,47.2,345.1,47.6,346.4,47.9z"/>
	<path class="st22" d="M377.4,53.9c-0.7,0-1.3,0-2,0c0,0,0,0,0,0c0-1,0-2,0-3c1.3,0.3,2.7,0.7,4,1C378.7,52.6,378.1,53.2,377.4,53.9
		z"/>
	<path class="st12" d="M377.4,53.9c0.7-0.7,1.3-1.3,2-2c0.7,0,1.3,0,2,0c0,1,0,2,0,3C380.1,54.6,378.7,54.2,377.4,53.9z"/>
	<path class="st12" d="M312.4,41.9c-0.7,0-1.3,0-2,0c-0.7-0.7-1.3-1.3-2-2c0-0.3,0-0.7,0-1c1.3,0.7,2.7,1.3,4,2
		C312.4,41.2,312.4,41.6,312.4,41.9z"/>
	<path class="st22" d="M381.4,54.9c0-1,0-2,0-3c1,0.7,2,1.3,3,2c-0.3,0.3-0.7,0.7-1,1C382.7,54.9,382.1,54.9,381.4,54.9z"/>
	<path class="st12" d="M383.4,54.9c0.3-0.3,0.7-0.7,1-1c1,0.3,2,0.7,3,1C386.1,54.9,384.7,54.9,383.4,54.9z"/>
	<path class="st11" d="M298.4,38.9c0.3-0.7,0.7-1.3,1-2c0.7,0,1.3,0,2,0c0,1,0,2,0,3C300.4,39.6,299.4,39.2,298.4,38.9z"/>
	<path class="st12" d="M301.4,39.9c0-1,0-2,0-3c0.7,0.3,1.3,0.7,2,1c0,0.7,0,1.3,0,2C302.7,39.9,302.1,39.9,301.4,39.9z"/>
	<path class="st12" d="M334.4,45.9c-0.7-0.3-1.3-0.7-2-1c1,0,2,0,3,0C335.1,45.2,334.7,45.6,334.4,45.9z"/>
	<path class="st12" d="M412.4,58.9c0.3,0,0.7,0,1,0c0.7,0,1.3,0,2,0c0,0.3,0,0.7,0,1C414.4,59.6,413.4,59.2,412.4,58.9z"/>
	<path class="st12" d="M375.4,50.9c0,1,0,2,0,3c-0.7,0-1.3,0-2,0c0-0.3,0-0.7,0-1c0-0.7,0-1.3,0-2C374.1,50.9,374.7,50.9,375.4,50.9
		z"/>
	<path class="st22" d="M415.4,59.9c0-0.3,0-0.7,0-1c0.7,0,1.3,0,2,0c0,0.3,0,0.7,0,1C416.7,59.9,416.1,59.9,415.4,59.9z"/>
	<path class="st12" d="M391.4,54.9c0,0.7,0,1.3,0,2c-0.7-0.7-1.3-1.3-2-2C390.1,54.9,390.7,54.9,391.4,54.9z"/>
	<path class="st19" d="M564.4,31.9c4.5-0.3,9-1.1,13.4-0.8c8.3,0.6,16.6,1.8,24.8,2.9c13.4,1.8,26.8,3.5,40.2,5.6
		c13.1,2.1,26,4.9,39.1,6.9c8.3,1.3,16.7,1.5,25,2.5c3.4,0.4,6.8,1.3,10.2,1.9c10.9,1.9,21.8,3.6,32.6,5.5
		c12.6,2.3,25.1,5.1,37.8,7.2c5.1,0.8,10.5,0.3,15.8,0.3c0.6,0,1.3,0,1.9,0c2,0.7,4,1.3,6.1,2c13.3,3.9,26.5,7.9,39.8,11.7
		c7.7,2.2,15.4,4.2,23.2,6.3c5.4,4.9,11.9,6.8,19,7c2.7,1,5.3,2,8,3c0.7,0.3,1.3,0.7,2,1c1,0.3,2,0.7,3,1c0.7,0.6,1.4,1.3,2,1.9
		c1.7,0.7,3.3,1.3,5,2c2.1,5.1,7,6.5,11.4,7.9c11.9,3.9,18.4,13.2,24.6,23.1c-8.7-4-17.3-8-26-12.1c-1.7-2.2-3.2-4.6-5.2-6.4
		c-10.7-9.3-22.7-16.4-36.2-20.9c-10.8-3.6-21.6-7.3-32.6-10.6c-8.4-2.5-16.8-5-25.4-6.5c-11.3-2-22.8-3-34.2-4.6
		c-6.2-0.8-12.3-2.4-18.5-2.7c-2.5-0.1-5.7-3.3-7.9,0.7c-3.7-1-7.3-2-11-2.9c-1-0.3-2-0.6-3-0.9c-1.6-0.1-3.3,0-4.9-0.3
		c-8.3-1.6-16.7-3.2-25-4.9c-1.9-0.6-3.7-1.5-5.6-1.9c-24.7-4.6-49.4-9.4-74.2-13.7c-13-2.2-26.2-3.6-39.3-5.4
		c-3.8-0.7-7.6-1.4-11.5-2C580.8,34.5,572.6,33.2,564.4,31.9z"/>
	<path class="st20" d="M949.4,130.9c-6.1-9.9-12.6-19.3-24.6-23.1c-4.4-1.4-9.3-2.8-11.4-7.9c3,0.9,6.2,1.4,9.1,2.6
		c8.1,3.7,16.2,7.6,24.1,11.7c1.9,1,4.2,1.6,5.1,4.9c0.6,2.1,4.7,3.2,7.2,4.8c1.9,1.2,4.5,2.1,5.6,3.9c3.3,5.5,6,11.4,8.9,17.1
		c-5-2.7-10-5.4-15-8.1C955.4,134.9,952.4,132.9,949.4,130.9z"/>
	<path class="st20" d="M893.4,90.9c-7.1-0.2-13.6-2.1-19-7C880.7,86.3,887.1,88.6,893.4,90.9z"/>
	<path class="st18" d="M811.4,66c-2-0.7-4-1.3-6.1-2C807.4,64.6,809.4,65.3,811.4,66z"/>
	<path class="st20" d="M903.4,94.9c-0.7-0.3-1.3-0.7-2-1C902.1,94.3,902.7,94.6,903.4,94.9z"/>
	<path class="st20" d="M908.4,97.9c-0.7-0.6-1.4-1.3-2-1.9C907.1,96.6,907.8,97.2,908.4,97.9z"/>
	<path class="st1" d="M1023.4,267.8c1.6-2.2,1.2-6.7,6-5.1c-1.7,1.7-3.3,3.4-5,5.1C1024.1,267.9,1023.7,267.9,1023.4,267.8z"/>
	<path class="st1" d="M1020.4,271.9c-1.7,0.3-3.3,0.7-5,1c2-1.7,4-3.3,6-5c-0.3,1-0.7,2-1,3C1020.4,271.2,1020.4,271.5,1020.4,271.9
		z"/>
	<path class="st17" d="M1020.4,270.9c0.3-1,0.7-2,1-3c0.7,0,1.3,0,2-0.1c0.3,0,0.7,0,1,0C1023.1,268.9,1021.7,269.9,1020.4,270.9z"
		/>
	<path class="st12" d="M398.4,57.9c2.3,0,4.7,0,7,0C403.1,57.9,400.7,57.9,398.4,57.9z"/>
	<path class="st12" d="M407.4,57.9c1,0.3,2,0.7,3,1C409.4,58.6,408.4,58.2,407.4,57.9z"/>
	<path class="st12" d="M394.4,56.9c0.7,0.3,1.3,0.7,2,1C395.7,57.6,395.1,57.2,394.4,56.9z"/>
	<path class="st20" d="M991.4,220.9c0.3,0.7,0.7,1.3,1,2c-0.3,1-0.7,2-1,3c-7.9-2.2-15.9-4.1-23.5-6.8c-7.2-2.6-14.3-5.5-20.8-9.4
		c-6.8-4-13.1-8.9-19-14.1c-5.2-4.6-9.2-10.7-14.6-15.1c-9.2-7.5-19-14.2-28.7-21c-6.2-4.3-12.6-8.3-19.2-11.8
		c-7.5-4-15.3-7.3-23.1-10.7c-2.4-1.1-5.2-1.5-7.6-2.5c-6.5-2.7-12.7-6.1-19.4-8.4c-6.4-2.2-13.3-3.4-19.9-5
		c-0.8-0.2-1.4-0.9-2.1-1.2c-1.6-0.7-3.2-1.4-4.9-1.8c-3.4-0.8-6.9-1.1-10.2-2c-5.9-1.5-11.7-3.5-17.7-5
		c-14.8-3.7-29.7-7.1-44.6-10.8c-6.4-1.6-12.7-3.3-19-5c-9.6-2.5-19.2-5.1-28.9-7.4c-12.7-2.9-25.5-5.4-38.2-8.4
		c-12-2.8-23.8-6.1-35.8-8.8c-11.1-2.5-22.2-4.6-33.4-6.7c-8.4-1.5-16.9-2.7-25.3-4.1c0,0-0.5,0-0.5,0s-0.5,0-0.5,0
		c-5.6-1.3-11.1-2.7-16.7-4c-5-1.1-10-2-15-3.2c-1-0.2-1.6-1.8-2.3-2.8c6.6,1.1,13.1,2.4,19.7,3.3c4.4,0.6,8.9,0.5,13.3,0.7
		c0.7,0,1.3,0,2,0c1.4,1,2.6,2.6,4.1,2.9c6.3,1.3,12.7,2.2,19,3.3c9.1,1.6,18.2,3.2,27.2,5.1c8.3,1.7,16.5,3.7,24.7,5.7
		c4.8,1.2,9.6,2.8,14.4,4c10.2,2.4,20.5,4.6,30.8,7c3.7,0.9,7.3,2.1,11,2.9c6.4,1.4,12.9,2.3,19.2,3.7c8.4,1.9,16.7,4.4,25.1,6.3
		c8.4,2,16.9,3.4,25.2,5.4c13.5,3.3,27,6.9,40.4,10.5c15.9,4.4,32.2,7.8,47.6,13.7c13.9,5.4,28.6,9.3,41.5,17.6
		c10.8,6.9,22.6,12.2,33.5,19c5.1,3.2,9.3,7.9,13.6,12.2c4.7,4.7,8.7,10.1,13.6,14.6c7.3,6.6,14,14,23.2,18.4
		c4.8,2.3,9.1,5.7,14,7.4c6.9,2.4,14.3,3.8,21.4,5.5c1.8,0.4,3.7,0.5,5.5,0.7C990.7,220.2,991.1,220.6,991.4,220.9z"/>
	<path class="st8" d="M535.4,59.9c8.4,1.4,16.9,2.5,25.3,4.1c11.2,2.1,22.3,4.2,33.4,6.7c12,2.7,23.8,6,35.8,8.8
		c12.7,2.9,25.5,5.4,38.2,8.4c9.7,2.2,19.3,4.9,28.9,7.4c6.3,1.6,12.7,3.4,19,5c14.9,3.6,29.7,7.1,44.6,10.8
		c5.9,1.5,11.7,3.4,17.7,5c3.4,0.9,6.8,1.2,10.2,2c1.7,0.4,3.3,1.1,4.9,1.8c0.7,0.3,1.3,1,2.1,1.2c6.6,1.7,13.4,2.8,19.9,5
		c6.6,2.3,12.9,5.7,19.4,8.4c2.5,1,5.2,1.4,7.6,2.5c7.8,3.4,15.6,6.8,23.1,10.7c6.6,3.5,13,7.6,19.2,11.8c9.8,6.7,19.5,13.5,28.7,21
		c5.4,4.4,9.3,10.5,14.6,15.1c5.9,5.2,12.3,10.1,19,14.1c6.5,3.9,13.7,6.8,20.8,9.4c7.7,2.8,15.7,4.6,23.5,6.8
		c4.1,2.7,8.2,5.4,12.1,8.2c1.2,0.9,1.9,2.5,2.9,3.7c-2.2-1.1-4.4-2.2-6.6-3.3c-7.4-3.9-14.8-6.9-23.4-8.1c-7.5-1-14.8-4.7-21.8-8.1
		c-8.1-4-16.2-8.5-23.5-13.8c-5.9-4.3-10.6-10.4-16-15.4c-5.2-4.9-10.4-10-16.2-14.1c-10.7-7.5-21.8-14.7-33.1-21.4
		c-7-4.1-14.5-7.4-22-10.7c-9.3-4-18.5-8.5-28.1-11.1c-11.4-3-21.9-9.4-34.2-9.3c-3.3,0-6.6-2.8-10.1-3.8
		c-9.3-2.8-18.7-5.3-28.1-7.9c-8.1-2.3-16.2-4.7-24.3-6.8c-6.1-1.6-12.4-2.2-18.3-4.3c-9.9-3.6-20.2-4.7-30.3-7
		c-5.9-1.4-11.7-3.4-17.6-5c-9.7-2.5-19.5-4.9-29.2-7.3c-11.8-2.9-23.6-6.1-35.6-8.6c-16-3.3-32.1-6-48.1-9.1
		C538.3,62.5,536.9,60.9,535.4,59.9z"/>
	<path class="st18" d="M1006.4,237.9c-1-1.3-1.7-2.8-2.9-3.7c-3.9-2.9-8.1-5.5-12.1-8.2c0.3-1,0.7-2,1-3c7.3,4.4,14.6,9,22,13.3
		c2.4,1.4,5.2,1.8,7.9,2.7c-0.6,1-1.3,2-1.9,3.1c-0.3,0.3-0.7,0.7-1,1c0,0.3,0,0.6,0,1c-2.3,1.2-4.2,1.7-6.4-0.9
		C1011.4,240.8,1008.7,239.5,1006.4,237.9z"/>
	<path class="st23" d="M564.4,31.9c8.2,1.3,16.4,2.6,24.5,4c3.8,0.6,7.6,1.3,11.5,2c-2.1,0.3-4.2,1-6.2,0.9
		c-5.4-0.1-10.9-0.7-16.3-0.9c-3.4-0.1-6.9-0.1-10.4-0.1c-7.2,0-14.4-0.1-21.5,0.2c-1.1,0-2.1,1.5-3.2,2.2c1,1.2,1.9,3.1,3.1,3.4
		c6,1.6,12.1,2.9,18.2,4.2c8.5,1.8,17,3.3,25.5,5.3c7.8,1.9,15.5,4.8,23.4,6.2c13.4,2.5,26.6,5.2,39.4,9.8c9.3,3.3,19,6,28.6,8.2
		c6.9,1.6,14.2,1.5,21.1,3c16.2,3.5,32.2,7.4,48.3,11.3c11.9,2.9,23.8,5.8,35.6,9.1c16.1,4.6,32.3,9,48.1,14.6
		c13.1,4.6,25.7,10.5,38.4,16.1c8.5,3.8,16.9,7.8,24.9,12.5c7.6,4.5,14.8,9.9,21.9,15.4c6.9,5.3,13.6,11.1,20.1,17
		c9.9,8.9,18.5,19.5,32,23.5c0,1.3,0,2.7,0,4c-2.3,0-4.7,0-7,0c-0.3,0-0.7,0-1,0c-1.5-1.3-2.7-3.1-4.4-3.9
		c-9.3-4.3-15.5-12.2-22.9-18.9c-9.7-8.8-19.4-17.7-29.7-25.7c-17.9-13.9-38.6-22.6-59.3-31.3c-11.3-4.7-23.1-8.2-34.8-11.8
		c-14.9-4.5-30-8.5-45-12.5c-11.6-3.1-23.4-5.7-35.1-8.6c-2.9-0.7-5.7-1.8-8.7-2.3c-14.2-2.5-28.5-4.5-42.5-7.5
		c-24.8-5.4-49.4-11.5-74-17.2c-6.4-1.5-12.8-3.1-19.3-4.3c-16.1-2.9-32.4-5.2-48.4-8.4c-14.1-2.8-28-6.4-42-9.7
		c-6.9-1.6-13.8-3.2-20.7-4.7c-1.9-0.4-3.8-0.8-5.7-1.2c8.1-5.7,17-6.7,25.8-6.9c8.4-0.2,16.9,0.6,25.4,0.8c1.5,0,3-1.2,4.4-1.9
		c1.3,0,2.7,0,4,0c0.7,0.3,1.4,0.6,2,0.9C543.1,29.9,553.8,30.9,564.4,31.9z"/>
	<path class="st24" d="M526.4,27.9c-1.5,0.7-3,1.9-4.4,1.9c-8.5-0.1-16.9-1-25.4-0.8c-8.9,0.2-17.7,1.2-25.8,6.9
		c1.9,0.4,3.8,0.7,5.7,1.2c6.9,1.6,13.8,3.1,20.7,4.7c14,3.2,27.9,6.9,42,9.7c16.1,3.2,32.3,5.5,48.4,8.4c6.5,1.2,12.9,2.8,19.3,4.3
		c24.7,5.8,49.3,11.8,74,17.2c14.1,3.1,28.3,5,42.5,7.5c2.9,0.5,5.8,1.6,8.7,2.3c11.7,2.9,23.5,5.5,35.1,8.6c15.1,4,30.1,8,45,12.5
		c11.7,3.5,23.6,7,34.8,11.8c20.7,8.7,41.4,17.4,59.3,31.3c10.3,8,20,17,29.7,25.7c7.3,6.6,13.6,14.5,22.9,18.9
		c1.7,0.8,3,2.5,4.4,3.9c-2.7-0.6-6-0.4-8-2c-9.5-7.4-18.6-15.3-27.8-23c-2.3-1.9-4.1-4.3-6.3-6.2c-8-6.6-15.4-14.2-24.2-19.4
		c-13.4-7.9-27.8-14.1-41.8-20.9c-19.5-9.5-40.1-15.6-60.9-21.3c-10.2-2.8-20.7-4.5-31-7c-13.3-3.2-26.6-6.8-39.9-9.9
		c-6.3-1.5-12.8-2.1-19.1-3.5c-10.2-2.4-20.2-5.4-30.4-7.7c-9.7-2.2-19.5-3.6-29.2-5.9c-11.2-2.6-22.3-5.9-33.5-8.7
		c-8.2-2-16.4-3.9-24.7-5.4c-17-3.2-34.1-6-51.1-9c-0.7,0-1.3,0-2,0c-5.3-1.2-10.5-2.3-15.8-3.4c-11.1-2.4-22.2-4.9-33.4-7.1
		c-10-2-20.2-3.5-30.2-5.6c-6.5-1.4-12.9-3.7-19.4-5.5c-0.1-0.5-0.2-1-0.3-1.5c1.3-0.9,2.5-2.4,3.9-2.7c3.9-0.7,7.9-1,11.8-1.1
		c12.4-0.4,24.9-0.7,37.3-1.1c11.5,0.4,23.1,0.7,34.6,1.1C523.5,27,525,27.6,526.4,27.9z"/>
	<path class="st24" d="M532.4,28.8c-0.7-0.3-1.4-0.6-2-0.9C531.1,28.2,531.8,28.5,532.4,28.8z"/>
	<path class="st20" d="M386.4,19.9c0.7,0,1.3,0,2,0c10.6,0,21.2,0,31.8,0c1.7,0,3.5,0.6,5.2,1c-5.8,1-11.6,2-17.3,3
		c-3.5,0.6-6.9,1.2-10.3,2.2c-0.9,0.3-1.9,1.8-2.1,2.8c-0.1,0.6,1.2,1.9,2.1,2.2c5.5,1.6,11.1,3.2,16.7,4.3
		c12.1,2.3,24.3,4.5,36.5,6.4c13.8,2.2,27.6,4.1,41.4,6.2c2.1,0.3,4,1.3,6,1.9c-1.4,0.3-2.9,1-4.2,0.8c-18.9-2.8-37.7-5.7-56.6-8.6
		c-0.5-0.1-1-0.2-1.5-0.2c-10.9,0.9-21.2-2.6-31.7-4.1c-2.9-1-5.7-2.2-8.7-2.8c-2.1-0.5-4.4-0.5-4.3,2.8c-1-0.3-2-0.7-3-1
		c-2.5-4.1-6.9-4.7-11-6c-3-1-5.9-2.5-9.3-4C375.1,24.2,380.7,22.1,386.4,19.9z"/>
	<path class="st5" d="M459.4,62.9c-1,0-2,0-3,0C457.4,62.9,458.4,62.9,459.4,62.9z"/>
	<path class="st5" d="M464.4,64.9c-0.7-0.7-1.3-1.3-2-2C463.1,63.6,463.7,64.2,464.4,64.9z"/>
	<path class="st14" d="M971.4,199.9c-13.5-4-22.1-14.6-32-23.5c-6.5-5.9-13.1-11.6-20.1-17c-7-5.4-14.2-10.8-21.9-15.4
		c-8-4.7-16.4-8.7-24.9-12.5c-12.7-5.7-25.3-11.5-38.4-16.1c-15.8-5.5-32-10-48.1-14.6c-11.8-3.3-23.7-6.2-35.6-9.1
		c-16.1-3.9-32.1-7.8-48.3-11.3c-6.9-1.5-14.2-1.4-21.1-3c-9.7-2.2-19.3-4.9-28.6-8.2c-12.9-4.6-26.1-7.3-39.4-9.8
		c-7.9-1.5-15.5-4.4-23.4-6.2c-8.4-2-17-3.5-25.5-5.3c-6.1-1.3-12.2-2.6-18.2-4.2c-1.3-0.3-2.1-2.2-3.1-3.4c1.1-0.8,2.1-2.2,3.2-2.2
		c7.2-0.2,14.4-0.2,21.5-0.2c3.5,0,6.9-0.1,10.4,0.1c5.4,0.2,10.9,0.8,16.3,0.9c2.1,0.1,4.1-0.6,6.2-0.9c13.1,1.8,26.3,3.1,39.3,5.4
		c24.8,4.3,49.5,9,74.2,13.7c1.9,0.4,3.7,1.2,5.6,1.9c-0.8,2-5,3.4-2.2,6c3.5,3.2,7.7,5.8,11.8,8.4c2.2,1.4,4.8,2.3,7.2,3.2
		c8,3.2,16.1,6.3,24.1,9.5c3,1.2,6,2.5,9.1,3.5c8.8,2.9,17.6,5.7,26.4,8.5c15.6,5.1,31.5,9.4,46.8,15.4
		c18.7,7.3,37.1,15.2,55.1,24.1c22.8,11.2,42.5,27.1,61.1,44.3c0.5,0.4,1.2,1.1,1.6,1c4.3-0.7,7,2.3,10.2,4.3c3,1.9,6.4,3.3,9.6,4.9
		c-1,3.3-2,6.6-6.8,5.5C973.1,197.3,972.1,199,971.4,199.9z"/>
	<path class="st25" d="M760.4,85.9c-8-3.1-16.1-6.3-24.1-9.5c-2.5-1-5-1.8-7.2-3.2c-4.1-2.6-8.3-5.2-11.8-8.4c-2.9-2.7,1.3-4,2.2-6
		c8.3,1.6,16.7,3.3,25,4.9c1.6,0.3,3.3,0.2,4.9,0.3c1,0.3,2,0.6,3,0.9c3.7,1,7.3,2,11,2.9c35.2,8.9,70.6,17.4,104.7,30.1
		c18.5,6.9,36.9,14,55.4,20.9c8.7,4,17.3,8,26,12.1c3,2,6,3.9,9,5.9c2.1,3.4,4.3,6.8,6.3,10.3c2.6,4.3,5.1,8.5,7.6,12.8
		c-4.4-1.7-8.8-3.3-13.6-1.1c-1,0.4-2.6-0.2-3.8-0.7c-6.7-3-13.5-5.5-20-9.3c-13.9-8-29.1-13.9-44-20.2c-11.9-5-24.1-9.5-36.2-14
		c-12.7-4.7-25.3-9.5-38.2-13.7c-13.1-4.2-26.4-7.9-39.7-11.6C771.5,87.8,765.9,87,760.4,85.9z"/>
	<path class="st26" d="M760.4,85.9c5.5,1.1,11.1,1.9,16.5,3.4c13.3,3.7,26.6,7.3,39.7,11.6c12.9,4.2,25.5,8.9,38.2,13.7
		c12.1,4.5,24.3,9,36.2,14c14.9,6.3,30,12.2,44,20.2c6.5,3.7,13.3,6.3,20,9.3c1.2,0.5,2.8,1.1,3.8,0.7c4.8-2.2,9.2-0.6,13.6,1.1
		c3.2,6.1,6.1,12.1,5.7,19.4c-0.2,3.4,1.8,6.9,2.7,10.4c0.2,0.7-0.2,1.5-0.4,2.2c-3.2-1.6-6.6-3-9.6-4.9c-3.2-2-5.8-5-10.2-4.3
		c-0.5,0.1-1.2-0.5-1.6-1c-18.6-17.2-38.3-33-61.1-44.3c-18-8.8-36.4-16.8-55.1-24.1c-15.3-6-31.2-10.3-46.8-15.4
		c-8.8-2.8-17.6-5.6-26.4-8.5C766.5,88.4,763.4,87.1,760.4,85.9z"/>
	<path class="st24" d="M964.4,203.9c2.3,0,4.7,0,7,0c6.4,1.6,13,5.2,19.1,4.5c10.6-1.3,12.6,1.2,15.9,9.5c-4.2,4.8-9.6,3.7-15,3
		c-0.3-0.3-0.7-0.7-1-1c-1.9-1.3-3.8-2.7-5.8-3.8c-6.4-3.6-12.9-7-19.4-10.5C964.8,205.3,964.7,204.5,964.4,203.9z"/>
	<path class="st9" d="M1019.4,242.9c0.3-0.3,0.7-0.7,1-1C1020.1,242.2,1019.8,242.6,1019.4,242.9z"/>
	<path class="st23" d="M923.4,118.9c-18.5-7-36.9-14-55.4-20.9c-34.1-12.7-69.5-21.2-104.7-30.1c2.2-4,5.4-0.8,7.9-0.7
		c6.2,0.3,12.3,1.8,18.5,2.7c11.4,1.6,22.9,2.6,34.2,4.6c8.6,1.5,17.1,4,25.4,6.5c10.9,3.3,21.7,7.1,32.6,10.6
		c13.5,4.4,25.5,11.6,36.2,20.9C920.3,114.2,921.7,116.7,923.4,118.9z"/>
	<path class="st23" d="M752.4,64.9c-1-0.3-2-0.6-3-0.9C750.4,64.3,751.4,64.6,752.4,64.9z"/>
	<path class="st19" d="M964.4,203.9c0.3,0.6,0.4,1.4,0.9,1.7c6.4,3.6,12.9,7,19.4,10.5c2,1.1,3.9,2.5,5.8,3.8
		c-1.8-0.2-3.7-0.3-5.5-0.7c-7.2-1.7-14.5-3.1-21.4-5.5c-4.9-1.7-9.3-5.1-14-7.4c-9.2-4.3-15.9-11.7-23.2-18.4
		c-4.9-4.5-8.9-9.9-13.6-14.6c-4.3-4.3-8.5-9-13.6-12.2c-10.9-6.7-22.7-12-33.5-19c-12.9-8.3-27.5-12.2-41.5-17.6
		c-15.3-5.9-31.6-9.4-47.6-13.7c-13.4-3.7-26.9-7.2-40.4-10.5c-8.4-2.1-16.9-3.5-25.2-5.4c-8.4-2-16.7-4.4-25.1-6.3
		c-6.4-1.5-12.8-2.4-19.2-3.7c-3.7-0.8-7.3-2.1-11-2.9c-10.2-2.4-20.5-4.6-30.8-7c-4.8-1.1-9.6-2.8-14.4-4c-8.2-2-16.4-4-24.7-5.7
		c-9-1.9-18.1-3.4-27.2-5.1c-6.3-1.1-12.7-2-19-3.3c-1.5-0.3-2.7-1.9-4.1-2.9c17,3,34.1,5.9,51.1,9c8.3,1.5,16.5,3.4,24.7,5.4
		c11.2,2.8,22.3,6.1,33.5,8.7c9.7,2.3,19.5,3.7,29.2,5.9c10.2,2.3,20.2,5.3,30.4,7.7c6.3,1.5,12.8,2,19.1,3.5
		c13.3,3.1,26.6,6.7,39.9,9.9c10.3,2.5,20.8,4.2,31,7c20.8,5.7,41.4,11.8,60.9,21.3c14,6.8,28.4,13,41.8,20.9
		c8.8,5.2,16.3,12.8,24.2,19.4c2.3,1.9,4.1,4.3,6.3,6.2c9.2,7.8,18.3,15.6,27.8,23c2,1.5,5.3,1.4,8,2
		C963.7,203.9,964.1,203.9,964.4,203.9z"/>
</g>
</svg>
