<?xml version="1.0" encoding="utf-8"?>
<!-- Generator: Adobe Illustrator 21.0.0, SVG Export Plug-In . SVG Version: 6.00 Build 0)  -->
<svg version="1.1" id="Camada_1" xmlns="http://www.w3.org/2000/svg" xmlns:xlink="http://www.w3.org/1999/xlink" x="0px" y="0px"
	 viewBox="0 0 250 45.1" style="enable-background:new 0 0 250 45.1;" xml:space="preserve">
<style type="text/css">
	.st0{fill:#00315F;}
	.st1{fill:#797776;}
	.st2{fill:#02315E;}
	.st3{fill:#01305D;}
	.st4{fill:#02305E;}
	.st5{fill:#02315D;}
	.st6{fill:#01315E;}
	.st7{fill:#8B898A;}
	.st8{fill:#8C8B8B;}
	.st9{fill:#908F8F;}
	.st10{fill:#8B8B8B;}
	.st11{fill:#8F8E8E;}
	.st12{fill:#8C8C8C;}
	.st13{fill:#8E8D8E;}
	.st14{fill:#918F90;}
	.st15{fill:#939392;}
	.st16{fill:#909194;}
	.st17{fill:#D6E0E9;}
	.st18{fill:#E5EDF2;}
	.st19{fill:#EBF4F6;}
	.st20{fill:#183556;}
	.st21{fill:#8E8E8E;}
	.st22{fill:#A2A6A9;}
	.st23{fill:#8D8D8C;}
	.st24{fill:#929091;}
	.st25{fill:#878787;}
	.st26{fill:#C9D6E1;}
	.st27{fill:#B9C1C9;}
	.st28{fill:#888686;}
	.st29{fill:#0B2F4F;}
	.st30{fill:#999899;}
	.st31{fill:#AEC1D0;}
	.st32{fill:#908E8F;}
	.st33{fill:#BAC4D2;}
	.st34{fill:#94AABB;}
	.st35{fill:#7E7D7D;}
	.st36{fill:#CAD4E1;}
	.st37{fill:#A5A2A1;}
	.st38{fill:#868485;}
	.st39{fill:#A4A2A3;}
	.st40{fill:#B5C5D3;}
	.st41{fill:#B3C6D4;}
	.st42{fill:#8E8C8C;}
	.st43{fill:#7D7D7D;}
	.st44{fill:#CEDCEA;}
	.st45{fill:#919191;}
	.st46{fill:#BBCCDA;}
	.st47{fill:#395672;}
	.st48{fill:#4E6E89;}
	.st49{fill:#41607A;}
	.st50{fill:#AEADAE;}
	.st51{fill:#AEADAD;}
	.st52{fill:#A3BED9;}
	.st53{fill:#919090;}
	.st54{fill:#9A9999;}
	.st55{fill:#909090;}
	.st56{fill:#979595;}
	.st57{fill:#99AEBC;}
	.st58{fill:#EEEEEE;}
	.st59{fill:#A7A7A7;}
	.st60{fill:#395C78;}
	.st61{fill:#9E9E9D;}
	.st62{fill:#8A8A8A;}
	.st63{fill:#A3A0A1;}
	.st64{fill:#F9F9F9;}
	.st65{fill:#979696;}
	.st66{fill:#D9D9D9;}
	.st67{fill:#4D667D;}
	.st68{fill:#979797;}
	.st69{fill:#939192;}
	.st70{fill:#A9B7C7;}
	.st71{fill:#9A9899;}
	.st72{fill:#AFACAD;}
	.st73{fill:#969595;}
	.st74{fill:#969594;}
	.st75{fill:#D4D2D2;}
	.st76{fill:#979596;}
	.st77{fill:#FDFDFD;}
	.st78{fill:#496981;}
	.st79{fill:#67717B;}
	.st80{fill:#515D6B;}
	.st81{fill:#D5D5D4;}
	.st82{fill:#81A0BF;}
	.st83{fill:#FCFDFD;}
	.st84{fill:#FCFCFD;}
	.st85{fill:#F8FAFB;}
	.st86{fill:#CED5DC;}
	.st87{fill:#F8FAFA;}
	.st88{fill:#6B89A2;}
	.st89{fill:#C5D7E3;}
	.st90{fill:#F0F4F7;}
	.st91{fill:#7F9FB7;}
	.st92{fill:#F0F5F7;}
	.st93{fill:#31597A;}
	.st94{fill:#BED4E8;}
	.st95{fill:#F9F8F8;}
	.st96{fill:#F8F8F8;}
	.st97{fill:#9A9898;}
	.st98{fill:#FAFAFA;}
	.st99{fill:#E8E6E7;}
	.st100{fill:#818181;}
	.st101{fill:#EEECED;}
</style>
<g>
	<path class="st0" d="M46.8,1.8c2.7-0.5,5.4-1,8.1-1.5c1.7-0.3,3.4-0.6,5,0.2c1.7,0.8,2.7,2.1,2.9,3.9c0.2,1.4,0.3,2.7,0.5,4.1
		c0.3,2.4,0.2,4.9,0.8,7.3c0.6,2.3,0.4,4.5,0.4,6.7c-0.6,2.2-2.1,3.5-4.1,4.3c-2.1,0.8-4.4,1.2-6.6,1.4c-0.4,0-0.9,0.1-1.1-0.3
		c-0.2-0.4,0.2-0.7,0.5-1c0.5-0.4,0.5-0.9,0.5-1.5c-0.1-2.7,0-5.4,0-8.1c0-1.6-0.4-1.9-1.9-1.5c-1.5,0.3-3,0.7-4.5,0.9
		c-1.2,0.2-1.7,1.3-1.3,2.5c0.3,0.7,0.9,0.5,1.4,0.5c1.9-0.3,1.9-0.3,2.2,1.5c0.6,3.7,0.1,4.4-3.6,4.9c-3.2,0.4-5.7-1.1-6.8-4.1
		c-1.6-4.5,0.7-10.7,6.7-11.7c1.6-0.2,3.1-0.4,4.7-0.3c1,0,1.4-0.3,1.5-1.3c0.3-3,0.3-2.6-2.5-2.5c-1.3,0-2.5,0.1-3.7,0.6
		c-1.6,0.7-3.2,1.1-4.8,1.9c-4.5,2.2-6.9,6-7.1,10.9c-0.1,2.8,0.9,5.4,2.9,7.5c0.4,0.5,1,0.8,1.3,1.4c0.2,1.1-0.6,1-1.1,0.9
		c-1.1-0.3-2.2-0.4-3.3-0.7c-0.8,0-1.6-0.3-2.2-0.7c-1.9-0.9-4.1-1.2-6.1-1.9c-1.7-0.6-2.4-1.3-2.7-3c-0.1-0.9-0.3-1.8-0.5-2.7
		c-0.1-0.5-0.1-1-0.1-1.5c0.1-2-0.2-3.9-0.4-5.8c-0.3-3,1-4.8,3.3-6.3c1-0.6,2-1,3.1-1.3c2.7-0.9,5.5-1.1,8.2-1.8
		c2.1-0.5,4.3-0.6,6.4-1.3C44.1,2,45.5,2,46.8,1.8z"/>
	<path class="st1" d="M22.5,19c0,0.5,0,1,0,1.4c0.2,1.4,0.3,2.8,0.6,4.1c0,0.9,0.6,1.4,1.4,1.6c3.2,0.9,6.3,1.9,9.6,2.5
		c1.5,0,2.8,0.9,4.4,0.7c0.4-0.1,0.9,0.1,1.1-0.3c3.8,1,7.7,1.6,11.6,2c6.7,0.6,13.4,0.9,20.1-0.4c1.9-0.4,3.8-1,5.3-2.4
		c1.1-0.9,0.7-2,0.2-3c-0.1-0.1-0.1-0.2-0.2-0.3c-0.5-0.8-1.2-1.4-1.9-1.9c-0.1-0.1-0.2-0.2-0.3-0.3c-0.2-0.4-0.7-0.7-0.5-1.2
		c0.2-0.4,0.6-0.2,0.9,0l0,0c0.2,0.3,0.6,0.4,0.9,0.6c2.2,1.2,4.1,2.7,5.6,4.7c1.6,2.9,0.5,4.8-2.1,6.2c-2.5,1.4-5.2,1.9-8,2.3
		c-5.9,0.7-11.8,0.6-17.7,0.2c-7.7-0.6-15.3-1.8-22.8-3.7c-7.6-1.8-15.1-4.1-22-7.8c-2.8-1.5-5.6-3.1-7.6-5.7
		c-1.9-2.6-1.5-4.9,1.4-6.5c2.9-1.6,6-2.2,9.3-2.5c2.5-0.1,4.9-0.5,7.4-0.3c0,0.7-0.5,0.7-0.8,0.9c-2.9,0.5-5.7,0.7-8.5,1.7
		c-1.5,0.5-3.1,1.1-3.4,2.9c-0.3,1.8,1,2.9,2.2,3.9c3.6,2.9,7.9,4.5,12.2,6.2c1,0.4,1.2-0.1,1.1-1c-0.3-1.4-0.1-2.7-0.4-4.1
		c-0.1-0.6-0.2-1.3,0.3-1.8C22.9,17.6,22.1,18.5,22.5,19z"/>
	<path class="st2" d="M145.8,17.4c-0.6,3-1.3,6-1.9,9.1c-0.2,1-0.6,1.3-1.6,1.2c-0.4,0-0.9,0-1.3,0c-1.1,0.1-1.2-0.4-1-1.3
		c1.1-5.2,2.2-10.5,3.3-15.7c0.1-0.3,0-0.8,0.4-0.9c1.4-0.4,2.8-0.3,4.2-0.1c1,0.1,0.8,1.2,1.2,1.8c0.3,1.4,0.9,2.8,1.5,4.1
		c0.9,1.9,1.2,4,2,5.9c0.3,0.2,0.5,0,0.4-0.3c-0.1-1.2,0.2-2.4,0.3-3.6c0.4-2.4,1-4.7,1.4-7c0.1-0.7,0.5-1.2,1.3-1.1
		c0.2,0,0.4,0,0.6,0c2.7,0,2.9,0.2,1.9,2.8c-0.1,0.1-0.1,0.2,0,0.2c-0.3,2.3-0.9,4.5-1.3,6.8c-0.5,2.4-1.2,4.7-1.3,7.1
		c-0.2,1-0.8,1.4-1.8,1.4c-0.1,0-0.2,0-0.3,0c-3.4-0.2-2.7,0.5-3.8-2.4c-0.9-2.2-1.6-4.5-2.6-6.7c0-1.1-0.7-2.1-1-3.1
		c-0.4,0.2-0.1,0.7-0.3,0.9C145.9,16.9,146,17.2,145.8,17.4z"/>
	<path class="st3" d="M159.4,27.5c-0.1-1.9,0.6-3.6,0.9-5.3c0.7-3.8,1.6-7.5,2.3-11.3c0.1-0.5,0.2-0.9,0.9-1
		c3.1-0.4,6.2-0.7,9.2,0.3c4.3,1.3,6.2,5.2,5,9.6c-1.2,4.4-4.2,6.8-8.5,7.8C165.9,28.1,162.6,28.2,159.4,27.5z"/>
	<path class="st4" d="M247.1,11.3c4.6,3.1,3.4,11.3-1.5,14.4c-1.9,1.2-4,1.8-6.2,2.1c-2.2,0.2-4.4,0.1-6.6,0
		c-1.2-0.1-1.6-0.5-1.3-1.7c0.7-3.3,1.4-6.6,2.1-9.9c0.3-1.3,0.6-2.6,0.9-3.9c0.4-0.6,0.2-1.4,0.6-2.1c3.5-0.8,6.9-0.8,10.3,0.3
		C245.9,10.6,246.6,10.8,247.1,11.3z"/>
	<path class="st2" d="M112.8,9.5c1.4,0,2.7,0.1,4.1,0.4c2.2,0.6,3.5,1.9,3.8,3.8c0.2,1.8-0.8,3.8-2.7,4.7c-1.1,0.5-1.6,0.7-0.6,2
		c1,1.3,0.9,3.1,1,4.7c0.3,2.6,0.2,2.6-2.4,2.6c-1.1,0-1.5-0.3-1.6-1.4c-0.1-1.2-0.2-2.4-0.4-3.5c-0.2-1-0.6-2-1.8-2.2
		c-1.9-0.3-2.1-0.1-2.4,1.7c-0.2,1.4-0.6,2.7-0.8,4c-0.1,1-0.6,1.3-1.6,1.3c-2.9,0-2.9,0-2.3-2.8c0.9-4.2,1.8-8.4,2.6-12.7
		c0.5-2.4,0.4-2.4,2.8-2.7C111.2,9.5,112,9.5,112.8,9.5z"/>
	<path class="st2" d="M230,16.2c-1.2,1.6-1.4,1.8-3.8,2.9c2.4,2.2,1.5,5.2,2.3,7.9c0.1,0.2,0,0.6-0.2,0.6c-1,0.1-2,0.1-2.9,0.1
		c-1.5,0-1.1-1.2-1.2-2c-0.2-1-0.3-1.9-0.4-2.9c-0.2-1-0.6-1.8-1.6-2.1c-0.8-0.2-1.7-0.8-2.3,0.3c-0.3,1.8-0.7,3.6-1,5.3
		c-0.2,1.1-0.7,1.6-1.8,1.4c-0.4-0.1-0.8,0-1.2,0c-1.2,0.1-1.5-0.4-1.2-1.5c1.1-5.1,2.2-10.2,3.2-15.3c0.1-0.7,0.4-1.1,1.2-1.2
		c2.5-0.4,5.1-0.5,7.6,0.1c1.4,0.3,2.6,1,3.5,2.2C230.6,13.5,230.6,14.9,230,16.2z"/>
	<path class="st5" d="M92.3,23.9c0.6,0.5,1.3,0.5,2,0.7c2.7,0.4,3.8-0.6,3.7-3.3c0-0.7-0.4-0.7-0.9-0.8c-2.1-0.1-2.2-0.4-1.2-2.4
		c1.8-0.6,3.7-0.3,5.6-0.3c0.7,0,1,0.5,1,1.1c-0.1,1.4-0.5,2.8-0.8,4.1c-0.7,1.2-0.2,2.8-1.2,3.9c-0.5,0.2-1,0.3-1.5,0.5
		c-2.7,0.7-5.3,0.7-8,0c-0.3-0.1-0.6-0.2-0.9-0.3c-1.5-0.5-2.8-1.4-3.6-2.9C83.9,18.4,87.4,11.6,94,10c2.8-0.7,5.6-0.7,8.5-0.1
		c0.9,0.2,1,0.6,0.7,1.3c-0.7,2.1-0.7,2.1-2.8,1.8c-3.3-0.6-6.4-0.2-8.6,2.7c-1,1.4-1.4,2.9-1.3,4.5C90.4,21.8,90.9,23.1,92.3,23.9z
		"/>
	<path class="st6" d="M211.4,22.7c0.2,1.2,0.3,2.3,0.5,3.5c0.2,1,0,1.5-1.2,1.5c-3,0-3,0.1-3.2-2.8c-0.1-1.6-0.7-1.9-2.2-2
		c-2.7-0.2-4.4,0.5-5.3,3.2c-0.4,1.4-3.3,2.2-4.6,1.5c-0.7-0.4-0.1-1,0.1-1.4c1.8-3.4,3.6-6.8,5.4-10.3c0.9-1.8,1.8-3.6,2.7-5.3
		c0.3-0.9,0.9-1.2,1.8-1.1c1.1,0.1,2.2,0.1,3.2,0c0.8,0,1.2,0.3,1.3,1.1c0.1,2.6,0.8,5.2,0.9,7.8C210.9,19.9,210.8,21.4,211.4,22.7z
		"/>
	<path class="st5" d="M137.5,26.6c0.1,0.7-0.1,1.2-1,1.1c-0.1,0-0.2,0-0.3,0c-3,0.1-3.1,0.1-3.2-2.9c-0.1-1.5-0.7-1.7-2-1.9
		c-2.8-0.3-4.6,0.5-5.5,3.4c-0.4,1.2-3.4,2.1-4.5,1.3c-0.6-0.4-0.1-0.9,0.1-1.3c2-3.7,3.9-7.5,5.9-11.2c0.8-1.5,1.6-3,2.4-4.6
		c0.4-0.8,0.9-1.1,1.7-1c1,0,2.1,0,3.1,0c0.9,0,1.2,0.4,1.3,1.2c0.1,1.5,0.4,3,0.6,4.5C136.6,19.1,137.1,22.9,137.5,26.6z"/>
	<path class="st5" d="M184.7,18c-1.1,4.3,1.3,7.1,5.7,6.7c0.3,0,0.7-0.1,1-0.1c2-0.3,2.2-0.2,2.1,1.9c0,0.6-0.2,0.9-0.8,1
		c-2.7,0.6-5.5,0.8-8.1-0.2c-3.5-1.2-5.3-4.6-4.8-8.4c0.9-6,5.5-8.9,10.3-9.4c1.4-0.1,2.8,0,4.3,0c0.4,0.2,0.8,0.1,1.1,0.2
		c0.7,0.2,0.9,0.5,0.7,1.2c0,0.1-0.1,0.2-0.1,0.3c-0.7,2-0.7,2.1-2.9,1.8c-2.7-0.3-5.1,0-7,2.2C185.5,16,185.3,17.1,184.7,18z"/>
	<path class="st7" d="M126.3,44.1c-0.1,0.1-0.2,0.2-0.3,0.3c-0.3,0.2-0.7,0.3-0.9-0.1c0.1-0.8,0.8-1.1,1.1-1.7
		c0.4-0.4,0.7-0.9,0.7-1.5c0-1.1,0-2.3-1.3-2.6c-1.6-0.5-2.6,0.5-3.3,1.7c-0.7,1-0.7,2.1-0.1,3.2c0.1,0.2,0.2,0.4,0.3,0.5
		c0.2,0.6,0,0.9-0.6,0.6c-0.3-0.1-0.5-0.4-0.7-0.7c-0.8-1.3-0.5-2.7-0.1-4.1c1.4-2.7,3.6-3.4,6.5-2c0.7,0.5,0.9,1.3,0.8,2.1
		c0,0.5,0.1,1-0.1,1.4c0,0.3,0,0.6-0.3,0.8c-0.3,0.4-0.3,0.8-0.6,1.2l0,0C126.9,43.5,126.6,43.8,126.3,44.1z"/>
	<path class="st7" d="M157.6,41.3c0.2-0.3,0.4-0.7,0.6-1c0.9-1,1.9-1.5,3.3-1.2c1.1,0.3,1.7,1.1,1.7,2.2c0.1,1.4-0.5,2.5-1.7,3.2
		c-0.5,0.3-0.9,0.6-1.5,0.4c-0.2-0.6,0.4-0.8,0.6-1.2c0.4-0.5,0.7-0.9,0.9-1.5c0.1-0.6,0.3-1.2-0.3-1.6c-0.6-0.5-1.2-0.2-1.7,0.2
		c-0.2,0.1-0.3,0.3-0.4,0.4c-0.6,0.7-0.7,1.5-0.1,2.3c0.1,0.1,0.3,0.3,0.4,0.5c0.2,0.3,0.4,0.6,0.1,1c-0.9,0.2-1.4-0.5-1.8-1.1
		C157.4,43,157.4,42.1,157.6,41.3z"/>
	<path class="st8" d="M197.6,43.2c0.7-1.3,1.3-2.4,2-3.4c0.2-0.3,0.5-0.7,0.9-0.5c0.5,0.3,0.2,0.7,0,1c-0.8,1.4-1.7,2.8-2.5,4.1
		c-0.3,0.4-0.6,0.6-1.1,0.5c-0.5-0.1-0.5-0.5-0.6-0.9c-0.2-1.2-0.5-2.4-0.6-3.6c-0.1-0.4-0.5-0.9,0.2-1.1c0.7-0.1,0.9,0.4,0.9,1
		C196.9,41.2,197,42.2,197.6,43.2z"/>
	<path class="st9" d="M201.4,41.4c0.3-1,1-1.7,1.9-2.1c1.2-0.5,2.3-0.4,3.2,0.7c0.7,0.9,0.7,2.8-0.2,3.6c-0.7,0.6-1.4,1.6-2.6,1.4
		c-0.1-0.1-0.1-0.2-0.1-0.4c0.2-0.4,0.6-0.6,0.8-0.9c0.4-0.5,0.8-1,0.9-1.7c0.1-0.6,0.1-1.1-0.5-1.4c-0.6-0.3-1.1,0-1.6,0.4
		c-0.4,0.3-0.5,0.8-0.6,1.3c-0.1,0.4-0.1,0.9-0.5,1.2C201.1,43.1,201.9,42,201.4,41.4z"/>
	<path class="st10" d="M210.4,45.1c-1.1-0.1-2.1-0.2-2.5-1.4c-0.4-1.3,0-2.5,0.9-3.5c0.8-0.9,1.9-1.2,3.1-1.1c0.3,0,0.8,0,0.8,0.5
		c0,0.5-0.4,0.5-0.8,0.4c-1.4-0.2-2.3,0.5-2.8,1.7c-0.6,1.3,0,2.3,1.4,2.4c0.4,0,1.3-0.5,1.3,0.4C211.8,45.3,210.9,44.8,210.4,45.1z
		"/>
	<path class="st11" d="M180,39.3c0.4,0.3,0.8,0.6,1.2,0.9c0.6,0.9,0.4,1.8,0,2.7c-0.3,0.6-0.6,1.1-1.1,1.5c-0.2,0.1-0.4,0.1-0.6,0.1
		c-0.3-0.2-0.2-0.5-0.1-0.8c0.2-0.4,0.4-0.9,0.7-1.2c0.5-0.6,0.5-1.1-0.1-1.6c-0.9-0.6-1.7-0.6-2.4,0.2c-0.6,0.8-0.6,1.7-0.2,2.6
		c0.1,0.1,0.2,0.2,0.3,0.3c0.5,0.5,1.3-0.1,1.8,0.5c0.2,0.6-0.5,0.3-0.6,0.6c-1,0.2-2.1,0.2-2.7-0.9c-0.6-1.2-0.5-2.4,0.2-3.6
		c0.3-0.3,0.8-0.4,1-0.9c0.3-0.1,0.5-0.2,0.8-0.4C178.8,39.1,179.4,39.1,180,39.3z"/>
	<path class="st12" d="M173.5,40.2c-0.8,0.1-1.2,0.7-1.5,1.3c-0.9,1.6-0.3,2.6,1.4,2.7c0.4,0,0.9-0.2,1,0.3c0,0.7-0.6,0.5-1,0.6
		c-1,0.1-2,0.1-2.6-0.9c-0.5-1-0.4-2,0.1-3c0.9-1.6,2.3-2.1,4.1-2.1c0.8,0.5,0.8,0.9-0.2,1C174.4,40.1,173.9,39.9,173.5,40.2z"/>
	<path class="st13" d="M150,37.4c-0.5,2.3-0.9,4.6-1.4,6.9c-0.1,0.5-0.4,0.7-0.8,0.6c-0.5-0.1-0.4-0.4-0.3-0.8
		c0.5-2.3,0.9-4.5,1.4-6.8c0.1-0.4,0.2-1,0.8-0.9C150.2,36.5,150.1,37,150,37.4z"/>
	<path class="st14" d="M146.1,41.7c-0.5,0.7-1.3,0.5-2,0.7c-0.5,0.1-1.3-0.1-1.3,0.8c0,0.9,0.7,0.9,1.4,0.9c0.1,0,0.3,0,0.4,0
		c0.4,0,1-0.3,1.1,0.2c0.1,0.7-0.6,0.6-1.1,0.7c-1.2,0.1-2.3,0.1-2.9-1.1c-0.6-1.2-0.1-2.9,1.3-4.2c0.2,0.1,0.4,0.2,0.4,0.4
		c0.1,0.3-0.1,0.5-0.1,0.8c-0.1,0.9,0.4,0.6,0.8,0.4c0.3-0.2,0.7-0.2,1-0.2C145.5,41.3,145.9,41.3,146.1,41.7z"/>
	<path class="st15" d="M188.6,39.7c0.1,0,0.2-0.1,0.3-0.1c0.1,0.1,0.2,0.2,0.2,0.3c0,0.1-0.1,0.3-0.1,0.4c-1,1-1.1,2.3-1.4,3.6
		c-0.1,0.5-0.1,1.2-0.9,1c-0.8-0.2-0.3-0.8-0.2-1.2c0.1-0.6,0.2-1.3,0.3-1.9c0.3-1.7,0-2-1.6-1.5c-0.1-0.1-0.2-0.2-0.2-0.3
		c0-0.1,0.1-0.3,0.2-0.4c0.9-0.7,1.8-0.8,2.7,0C188,40.1,188.3,40.1,188.6,39.7z"/>
	<path class="st16" d="M18.1,9.4c0.2-0.4,0.6-0.2,0.9-0.5c-2.5-0.2-4.8,0.6-7.2,0.2c2.5-0.7,5-0.5,7.6-0.5c1,0,2.1,0,3.1,0
		c0,0,0.1,0.1,0,0.1c-1,2.6-0.5,5.4-0.4,8.1c0,0.2-0.1,0.3-0.2,0.4c-0.8,0-0.7-0.7-0.8-1.2c-0.3-1.4-0.4-2.9-0.3-4.4
		c0.1-1.2-0.1-1.9-1.5-1.8C19,9.9,18.5,9.9,18.1,9.4z"/>
	<path class="st17" d="M46.8,1.8c-4.8,1-9.7,1.9-14.5,2.9C30.9,5,29.5,5,28.2,5.6c-0.8,0.3-1.5,0.7-2.4,0.4c1.6-1.1,3.5-1.1,5.3-1.5
		C34,3.8,37,3.3,40,2.8C42.3,2.5,44.4,1.5,46.8,1.8z"/>
	<path class="st18" d="M184.7,18c0.5-2.9,2.9-5.1,6-5.3c1.1-0.1,2.3-0.1,3.3,0.2c1.8,0.5,1.4-1.1,1.9-1.9c0.6-1-0.4-1-0.9-1.3
		c-0.2-0.1-0.3-0.2-0.5-0.3c0.7-0.1,1.7-0.2,2,0.5c0.5,1.1-0.5,2-0.8,3c-0.2,0.9-1,0.4-1.6,0.3c-3.3-0.5-6.3-0.2-8.3,3
		C185.3,16.9,185.6,17.8,184.7,18z"/>
	<path class="st19" d="M147.5,18.6c1,2.6,2,5.3,3,7.9c0.3,0.8,0.7,1.2,1.6,1.2c0.7,0,1.4,0,2.1,0c0.8,0.1,1.3-0.3,1.4-1.1
		c0.3-0.1,0-0.7,0.6-0.6c0,1.3-0.4,2.2-2,2.2c-1,0-1.9-0.2-2.9-0.1c-0.8,0.1-0.9-0.7-1.1-1.2c-1-2.7-1.9-5.4-3.1-8
		c-0.1-0.2,0-0.4,0-0.6C147.3,18.1,147.4,18.4,147.5,18.6z"/>
	<path class="st20" d="M25.8,6c0.8,0.1,1.5-0.6,2.4-0.4c-0.7,0.9-1.8,0.7-2.6,1.2c-2.5,1.4-3.6,3.4-3.3,6.2c0.2,2,0.2,4,0.3,6
		c-0.4-0.4-0.1-1.1-0.5-1.5c-0.1-0.1-0.1-0.1-0.1-0.2c0-0.1,0-0.1,0-0.1c0-0.9,0.1-1.8,0-2.6c-0.5-2.1-0.1-4.1,0.6-6
		C23.5,7.5,24.6,6.7,25.8,6z"/>
	<path class="st21" d="M133.1,39.8c1.1-0.5,2.1-1.4,3.2-0.2c0,0.6,1,0.2,0.9,0.9c-0.1,0.1-0.2,0.2-0.3,0.3c-0.5,0.5-0.4,1.2-0.6,1.8
		c-0.6,0.7-0.1,1.9-1.2,2.3c-0.3-0.8,0.3-1.6,0.3-2.3l0,0c0.2-0.8,0.4-1.6,0-2.4c-1.1-0.4-1.8,0.1-2.3,1c-0.3,0.5-0.4,1-0.6,1.5
		C131.7,41.5,132.6,40.7,133.1,39.8z"/>
	<path class="st8" d="M165.3,43.7c-0.1,0.3-0.1,0.7-0.3,1c-0.2,0.3-0.5,0.3-0.8,0.2c-0.3-0.1-0.2-0.4-0.1-0.6
		c0.2-1.1,0.4-2.1,0.6-3.2c0,0,0.1-0.1,0.1-0.1c0.2-1.7,0.2-1.7,1.7-1.4l0,0c1.1-0.6,1.1-0.6,1.2,0.3c-0.8,0.4-1.6,0.7-1.8,1.8
		C165.6,42.3,165.7,43.1,165.3,43.7z"/>
	<path class="st22" d="M64.2,22.7c0.4-3.6-0.3-7.2-0.7-10.8c-0.1-1.1-0.3-2.2-0.1-3.4c0.8,1.9,0.5,3.9,0.7,5.9
		c0.2,1.4,0.6,2.3,1.9,2.7c-0.2,0.2,0.3,0.7-0.3,0.8c-0.8,0.2-0.8,0.7-0.7,1.3c0.2,0.9,0.2,1.8-0.2,2.7
		C64.8,22.4,64.8,22.9,64.2,22.7z"/>
	<path class="st23" d="M188.9,39.9c0-0.1,0-0.2,0-0.4c0.1-0.1,0.2-0.2,0.3-0.3c0.9-0.2,1.8-0.4,2.4,0.6c0.6,1.6-0.2,3.1-0.5,4.6
		c0,0.3-0.3,0.5-0.7,0.4c-0.4-0.1-0.4-0.4-0.4-0.7c0.1-0.4,0.2-0.7,0.3-1.1c0.4-0.7,0.2-1.4,0.3-2.1
		C190.9,39.7,189.6,40.2,188.9,39.9z"/>
	<path class="st24" d="M185.1,39.9c0,0.1,0,0.2,0,0.4c-0.1,0.2-0.2,0.3-0.3,0.5c-0.3,0.3-0.4,0.8-0.6,1.2c-0.2,0.8-0.4,1.5-0.5,2.3
		c-0.1,0.4-0.3,0.8-0.8,0.7c-0.6-0.1-0.4-0.5-0.4-0.9c0.3-1.2,0.5-2.4,0.7-3.6c0.4-0.3-0.1-1.3,0.9-1.2l0,0
		C184.4,39.7,184.6,40,185.1,39.9z"/>
	<path class="st25" d="M155.3,44.6c-0.6,0.5-0.9,0.3-0.9-0.4c0-0.6,0.3-1.2,0.4-1.8c0.1-0.9,0.6-1.8-0.5-2.5
		c-0.2-0.2-0.4-0.4-0.3-0.6c0.3-0.4,0.8-0.3,1.2-0.1c0.9,0.3,1,1.1,0.9,1.8C155.9,42.3,155.8,43.5,155.3,44.6
		c-0.2-0.1-0.3-0.3-0.3-0.5C155,44.4,155.1,44.5,155.3,44.6z"/>
	<path class="st26" d="M158.5,12.4c0-0.1-0.1-0.2-0.1-0.3c0.4-2.6,0.4-2.6-2.4-2.4c-0.7,0.1-1,0.3-1.1,1c-0.5,2.4-1,4.9-1.5,7.3
		c-0.1,0.1-0.2,0.1-0.3,0c0.1-2.6,1-5,1.4-7.6c0.1-0.8,0.6-1.1,1.3-1c0.5,0,1,0,1.5,0c0.6,0.1,1.5-0.4,1.6,0.5
		C159.2,10.7,159.5,11.8,158.5,12.4z"/>
	<path class="st27" d="M210.8,18.6c-0.3-2.4-0.6-4.9-0.9-7.3c-0.1-1.1-0.5-1.7-1.7-1.6c-0.7,0.1-1.5,0.1-2.2,0c-1-0.1-1.7,0.2-2.3,1
		c0-0.9,0.5-1.3,1.4-1.3c1.3,0,2.6,0,3.8,0c0.6,0,1.2,0.1,1.2,0.8c0.1,2.8,1,5.6,0.9,8.4C210.9,18.7,210.8,18.7,210.8,18.6z"/>
	<path class="st28" d="M152.3,41.1c-0.1,0.2-0.2,0.4-0.3,0.6c-0.4,0.9-0.4,2-0.6,3l0,0c-0.8,0.3-0.7-0.3-0.7-0.8
		c0-0.8,0.3-1.5,0.4-2.3c0-0.2,0-0.3,0-0.5c0.4-0.9,0.4-1.8,0.6-2.7l0,0c0.3-0.5,0.3-1.2,0.6-1.7c1.3,0.4,0,1.2,0.3,1.7
		c-0.3,0.4-0.3,0.9,0,1.2C152.9,40.2,152.6,40.6,152.3,41.1z"/>
	<path class="st29" d="M102.6,18.9c-0.4-0.6-0.9-0.9-1.7-0.9c-1.7,0.1-3.3,0-5,0c0-0.8,0.6-0.6,1.1-0.6c1.6,0,3.1,0,4.7,0
		C102.8,17.4,103.2,17.8,102.6,18.9z"/>
	<path class="st11" d="M139.6,39.3c0.2,0.2,0.4,0.4,0.6,0.6c0.2,0.8,0.2,1.6,0,2.4c-0.3,0.3-0.2,0.8-0.3,1.2
		c-0.4,0.4,0.1,1.2-0.6,1.5c-0.6,0-0.6-0.3-0.5-0.8c0.1-0.5,0.2-1.1,0.2-1.6c0.7-0.7,0.5-1.5,0.2-2.4l0,0c-0.3-0.4-0.7-0.1-1.1-0.2
		c-0.3-0.1-0.7,0.1-0.7-0.4c0.2-0.1,0.3-0.2,0.5-0.4C138.5,39.1,139.1,39.1,139.6,39.3z"/>
	<path class="st30" d="M66,17.8c0.1-0.2-0.9-0.5,0-0.6c1.9,0.6,3.8,1.4,5.5,2.4c-0.5,0.4-1.1,0.1-1.6,0.3C68.5,19.3,67,19.1,66,17.8
		z"/>
	<path class="st31" d="M137.5,26.6c-0.7-3.7-1.2-7.5-1.4-11.3c1,1.3,0.5,2.8,0.8,4.3C137.2,21.9,137.7,24.3,137.5,26.6z"/>
	<path class="st32" d="M70.1,19.6c0.4-0.7,1,0.1,1.5-0.1c0.9,0.9,2.4,0.8,3.3,1.8c-1.7,0.4,0.4,0.8,0,1.2c-0.1,0.1-0.2,0.1-0.3,0.1
		C73,21.7,71.3,21.1,70.1,19.6z"/>
	<path class="st21" d="M143.5,40.2c-0.1-0.1-0.3-0.3-0.4-0.4c0.3-0.2,0.6-0.3,0.9-0.5c0.6-0.2,1.3-0.2,1.9,0
		c1.2,0.8,1.2,1.3,0.3,2.4c-0.3,0-0.7,0-0.9-0.3C145.3,39.9,144.1,40.4,143.5,40.2z"/>
	<path class="st33" d="M159.4,27.5c3.2,0.4,6.5,0.4,9.7,0c-0.5,0.5-1.1,0.6-1.8,0.6c-2.2,0-4.4,0-6.6,0
		C160.2,28,159.7,28,159.4,27.5z"/>
	<path class="st10" d="M121.3,43.7c0.4,0.1,0.5,0.6,0.9,0.5c0,0,0-0.3,0-0.5c1-0.3,2-0.3,3,0.3c0.2,0.3,0.6,0.3,0.9,0.3
		c-1.6,1.1-3.4,0.9-4.7-0.3C121.2,44,121.1,43.9,121.3,43.7C121.2,43.8,121.2,43.7,121.3,43.7z"/>
	<path class="st8" d="M133.1,39.8c0.3,1-1,1.7-0.6,2.8c0,0.2,0,0.3,0,0.5c0,0-0.1,0.1-0.1,0.1c-0.3,0.5-0.1,1.6-0.8,1.4
		c-0.7-0.2,0.1-1,0-1.6c0-0.2,0-0.3,0-0.5c0.5-0.9,0.4-1.8,0.6-2.8c0-0.3,0.2-0.5,0.5-0.5C133,39.3,133.1,39.5,133.1,39.8z"/>
	<path class="st34" d="M92.3,23.9c-1.8-0.6-2.1-2.2-2.2-3.7c-0.1-1.7,0.2-3.3,1.6-4.5c-0.3,0.7-0.6,1.4-0.8,2.2
		C90.2,20.1,90.4,22.2,92.3,23.9z"/>
	<path class="st35" d="M201.4,41.4c1.2,0.3,0.1,1.6,0.9,2c0.1,0,0.1,0.1,0.2,0.1c0.4,0.5,1,0.6,1.3,1.1c0,0.1,0,0.2,0,0.3
		C201.5,45,200.7,43.7,201.4,41.4z"/>
	<path class="st36" d="M157,19.4c0.5-2.3,0.7-4.6,1.5-6.8c0.1,2.5-0.7,4.9-1.4,7.2C156.9,19.8,156.8,19.6,157,19.4z"/>
	<path class="st37" d="M79.3,32.8c0.2-0.5,0.6-0.6,1-0.8c1.7-1.3,2-2.5,1.2-4.5c-0.1-0.3-0.1-0.6-0.1-0.9
		C83.3,28.9,82.3,31.7,79.3,32.8z"/>
	<path class="st38" d="M216.1,42.3l-0.1,0l-0.1,0c-0.4,0.2-0.9,0.1-1.4,0.1c-0.2,0-0.3,0-0.4-0.1c-0.1-0.3,0-0.4,0.2-0.5
		c0.7-0.3,1.5-0.2,2.2-0.6c0.5-0.3,0.4-0.7,0.2-1.2c-0.5-1,0.1-0.9,0.7-0.7l0,0c0.4,0.3,0.8,0.6,1,1.1
		C218.3,41.9,217.1,41.9,216.1,42.3z"/>
	<path class="st39" d="M217.8,38.6c-0.7-0.5-1.2-1.3-1.9-0.3c0,0.1-0.4,0-0.5-0.1c-0.2-0.1-0.1-0.4,0.1-0.5c0.5-0.5,0.9-1.2,1.7-1
		C217.8,37.1,218,37.7,217.8,38.6z"/>
	<path class="st40" d="M91.1,27.5c2.7,0.5,5.3,0.3,8,0C96.4,28.4,93.8,28.5,91.1,27.5z"/>
	<path class="st41" d="M157,19.4c0,0.1,0.1,0.3,0.1,0.4c0,2.1-1,4-1,6.1c-0.2,0.2-0.4,0.4-0.6,0.6C155.8,24.2,156.3,21.8,157,19.4z"
		/>
	<path class="st42" d="M217.3,39.3c-0.7-0.1-0.6,0.3-0.4,0.7c-0.7,0.4-1.5,0.5-2.1,1.1c-0.1,0.1-0.2,0.1-0.4,0.1
		c-0.2,0-0.4-0.2-0.5-0.4c-0.1-0.1,0-0.3,0.1-0.4C214.9,39.4,215.9,38.7,217.3,39.3z"/>
	<path class="st43" d="M214,40.8c0.1,0.1,0.2,0.2,0.3,0.3c0.2,0.3,0.2,0.6,0,0.9c-0.1,0.1-0.2,0.2-0.3,0.3c0,0.6,0.1,1.3,0.6,1.7
		l0,0c0.4,0.6,1.6-0.1,1.8,0.9c-0.5,0-1,0-1.5,0C213.1,44,212.8,42.8,214,40.8z"/>
	<path class="st44" d="M147.5,18.6c-0.2-0.1-0.4-0.2-0.6-0.3c-0.1-0.7,0.1-1.8-1.2-0.9c0-0.3,0-0.6,0-0.9c0.4-0.3-0.1-1.3,0.9-1.2
		C146.9,16.5,147.2,17.5,147.5,18.6z"/>
	<path class="st45" d="M214,40.8c-0.9,2.5-0.8,2.7,0.9,4.1c-2-0.5-2.4-2.4-0.9-4.5C214,40.6,214,40.7,214,40.8z"/>
	<path class="st46" d="M86.7,24.2c1,1.2,2.2,2.2,3.6,2.9C88.5,26.9,87.2,26,86.7,24.2z"/>
	<path class="st45" d="M216.4,44.9c-0.5-0.5-1.4-0.2-1.8-0.9c0.6,0,1.2,0,1.7,0.1c0.4,0,1-0.3,1,0.3C217.4,44.9,216.8,45,216.4,44.9
		z"/>
	<path class="st47" d="M100.6,26.9c0.7-1.2,0.1-2.8,1.2-3.9C101.4,24.3,101.9,25.9,100.6,26.9z"/>
	<path class="st48" d="M210.8,18.6c0.1,0,0.2,0,0.3,0c-0.1,1.4,0.6,2.7,0.4,4.1C210.3,21.5,210.9,20,210.8,18.6z"/>
	<path class="st49" d="M150.5,15.7c-0.9-1.3-1.5-2.6-1.5-4.1C149.7,12.8,150.3,14.2,150.5,15.7z"/>
	<path class="st50" d="M188.9,39.9c2-0.3,2.5,0.3,1.4,3.2c0-0.5,0-1,0.1-1.5c0.3-1.3-0.3-1.7-1.5-1.4
		C188.9,40.1,188.9,40,188.9,39.9z"/>
	<path class="st51" d="M166.5,39.6c-0.1,0.1-0.3,0.4-0.3,0.4c-1.4-0.9-0.9,0.8-1.4,1.1c0-0.2,0-0.4,0-0.6
		C164.8,38.9,165,38.8,166.5,39.6z"/>
	<path class="st52" d="M153.2,18c0.1,0,0.2,0,0.3,0c-0.1,1.3-0.3,2.5-0.4,3.8c0,0.2,0,0.6-0.4,0.3c-0.1-0.1,0-0.4,0-0.5
		C153.1,20.5,152.6,19.2,153.2,18z"/>
	<path class="st53" d="M121.3,43.7c0,0.1,0,0.2,0,0.3c-1.3-1.4-1.1-2.9-0.3-4.5C120.8,40.9,120.3,42.4,121.3,43.7z"/>
	<path class="st54" d="M151.1,41.6c0.1,0.6,0,1.2-0.2,1.8c-0.1,0.5-0.3,1.1,0.5,1.2c-0.6,0.5-1.1,0.7-1-0.4
		C150.5,43.3,150.5,42.4,151.1,41.6z"/>
	<path class="st55" d="M131.6,43.1c0,0.5,0,0.9,0,1.5c0.5-0.4,0.4-1.1,0.9-1.4c0,0,0,0.1,0,0.1c-0.1,0.6,0,1.3-0.7,1.6
		c-0.1,0.1-0.5,0-0.5-0.1C130.9,44.1,131.3,43.6,131.6,43.1z"/>
	<path class="st56" d="M152.3,41.1c0.6-0.8-0.5-1.8,0.3-2.6c0.2,0.4-0.4,1.1,0.6,1.2c0.3,0,0.7,0,0.9,0.3
		C153.4,40.1,152.8,40.6,152.3,41.1z"/>
	<path class="st57" d="M230,16.2c0.3-1.4,0.4-2.7,0-4.1C230.9,13.4,230.9,14.9,230,16.2z"/>
	<path class="st58" d="M173.5,40.2c0.4-0.3,0.8-0.2,1.2-0.2c0.9-0.1,0.6-0.5,0.2-0.9c0.4,0,1-0.2,1,0.5c0,0.4-0.4,0.9-1,0.8
		C174.5,40.2,174,40.2,173.5,40.2z"/>
	<path class="st59" d="M216.1,42.3c0.7-0.6,2.2-0.5,2-2.1c-0.1-0.1-0.1-0.2,0.1-0.3C218.7,41.5,218.1,42.2,216.1,42.3z"/>
	<path class="st60" d="M219.7,21c0.5-1.2,1-1.2,2.3-0.3C221.2,20.9,220.4,20.4,219.7,21z"/>
	<path class="st61" d="M137.5,39.6c0.4,0.6,1.3-0.1,1.7,0.6c-0.7-0.2-1.4-0.2-2,0.3c-0.2-0.4-1-0.3-0.9-0.9
		C136.7,39.9,137.1,39.6,137.5,39.6z"/>
	<path class="st62" d="M154.1,39.9c-0.3-0.1-0.7,0-0.9-0.3c0.6-0.5,1.3-0.7,2.1-0.3c-0.3,0.2-1.2-0.4-0.9,0.6c0,0-0.1,0-0.1,0
		L154.1,39.9z"/>
	<path class="st54" d="M151.4,44.6c0-1-0.1-2.1,0.6-3C152.1,42.7,151.7,43.7,151.4,44.6z"/>
	<path class="st63" d="M160.8,44c-0.3,0.3-0.6,0.6-0.9,1c-0.2,0-0.4,0-0.6,0c-0.1-0.3-0.2-0.6-0.3-0.9
		C159.6,43.5,160.2,43.6,160.8,44z"/>
	<path class="st55" d="M132.1,39.8c0,1,0.3,2-0.6,2.8C131.6,41.6,131.9,40.7,132.1,39.8z"/>
	<path class="st64" d="M128.1,39.5c0.2-0.8-0.5-1.3-0.7-1.9c1.5,0.2,0.8,1.3,0.9,2.1C128.2,39.7,128.1,39.6,128.1,39.5z"/>
	<path class="st65" d="M181.3,42.9c0.1-0.9,0.2-1.8,0-2.7C182.1,41.1,181.9,42,181.3,42.9z"/>
	<path class="st56" d="M151.7,38.4c0.1,0.9,0.1,1.9-0.6,2.7C151.1,40.1,151.4,39.3,151.7,38.4z"/>
	<path class="st66" d="M165.3,43.7c-0.1-0.8,0.2-1.5,0.6-2.1C165.8,42.4,166.2,43.2,165.3,43.7z"/>
	<path class="st50" d="M191.6,39.9c-0.7-0.6-1.6-0.6-2.4-0.6C190.1,38.9,191.1,38.5,191.6,39.9z"/>
	<path class="st67" d="M235,10c0,0.7,0.1,1.5-0.6,2.1C234.3,11.3,234.4,10.6,235,10z"/>
	<path class="st68" d="M135.4,42.5c0.2,0.8-0.3,1.6-0.3,2.3C134.6,44,135.1,43.3,135.4,42.5z"/>
	<path class="st45" d="M214.7,44c-0.7-0.4-1.1-0.9-0.6-1.7c0.1,0,0.2,0,0.3,0c0.2,0.1,0.2,0.2,0,0.4C214.3,43.1,214.5,43.5,214.7,44
		z"/>
	<path class="st53" d="M139.2,40.2c0.4,0.8,0.8,1.7-0.2,2.4C139.3,41.8,139.4,41,139.2,40.2z"/>
	<path class="st68" d="M135.4,40.2c0.8,0.8,0.4,1.6,0,2.4C135.4,41.8,135.4,41,135.4,40.2z"/>
	<path class="st53" d="M140.2,42.2c0-0.8,0-1.6,0-2.4C140.7,40.7,140.5,41.4,140.2,42.2z"/>
	<path class="st69" d="M157.6,41.3c0,0.8,0,1.7,0,2.5C157.2,43,157.2,42.1,157.6,41.3z"/>
	<path class="st51" d="M167.6,39.9c-0.2-1.1-0.8-0.1-1.2-0.3c0.3-0.5,0.8-0.7,1.3-0.4C168.1,39.4,168.1,39.7,167.6,39.9z"/>
	<path class="st70" d="M247.1,11.3c-0.6-0.2-1.2-0.5-1.8-0.9C246.1,10.3,246.7,10.5,247.1,11.3z"/>
	<path class="st68" d="M136.3,42.6c-0.1-0.7-0.1-1.4,0.6-1.8C136.8,41.4,136.6,42,136.3,42.6z"/>
	<path class="st71" d="M177.4,39.6c-0.1,0.6-0.4,0.9-1,0.9C176.4,39.9,177,39.9,177.4,39.6z"/>
	<path class="st72" d="M184.2,39.3c-0.6,0.2-0.5,0.9-0.9,1.2C183.4,39.9,182.9,38.9,184.2,39.3z"/>
	<path class="st56" d="M152.3,36.7c-0.1,0.6-0.1,1.3-0.6,1.7C151.7,37.8,151.6,37.1,152.3,36.7z"/>
	<path class="st73" d="M139.3,44.9c0.4-0.4,0.1-1.1,0.6-1.5C139.8,44,140.2,44.7,139.3,44.9z"/>
	<path class="st72" d="M185.1,39.9c-0.5,0.1-1,0.2-0.9-0.6c0.3,0.1,0.6,0.2,0.9,0.3C185.1,39.7,185.1,39.8,185.1,39.9z"/>
	<path class="st71" d="M180,39.3c-0.6,0-1.2,0-1.8,0C178.8,39,179.4,38.8,180,39.3z"/>
	<path class="st74" d="M145.8,39.3c-0.6,0-1.3,0-1.9,0C144.6,39,145.2,38.9,145.8,39.3z"/>
	<path class="st10" d="M127.2,43.2c0-0.5,0.2-0.9,0.6-1.2C127.8,42.5,127.6,42.9,127.2,43.2z"/>
	<path class="st59" d="M214.4,42.6c0-0.1,0-0.2,0-0.4c0.5,0,1,0,1.5,0C215.4,42.7,214.8,42.5,214.4,42.6z"/>
	<path class="st75" d="M184.2,42c-0.1-0.5,0.1-0.9,0.6-1.2C184.8,41.3,184.6,41.6,184.2,42z"/>
	<path class="st10" d="M126.3,44.1c0.2-0.4,0.5-0.7,0.9-0.9C127.1,43.7,126.8,44,126.3,44.1z"/>
	<path class="st50" d="M188.6,39.7c-0.1,0.2-0.1,0.5-0.4,0.5c-0.4,0-0.5-0.2-0.5-0.5C188,39.6,188.3,39.6,188.6,39.7z"/>
	<path class="st13" d="M128.1,39.5c0.1,0.1,0.1,0.1,0.2,0.2c-0.1,0.5,0.1,1-0.2,1.5C128.1,40.6,128.1,40,128.1,39.5z"/>
	<path class="st42" d="M218.2,39.9c0,0.1,0,0.2-0.1,0.3c-0.4-0.2-0.7-0.5-0.8-0.9C217.7,39.3,218,39.5,218.2,39.9z"/>
	<path class="st61" d="M139.6,39.3c-0.5,0-1,0-1.6,0C138.5,39,139.1,38.8,139.6,39.3z"/>
	<path class="st32" d="M75.8,21.8c-0.5,0-0.9,0-0.9-0.6C75.3,21.3,75.6,21.5,75.8,21.8z"/>
	<path class="st76" d="M178.9,44.9c0.2-0.2,0.4-0.4,0.6-0.6c0,0,0,0,0,0c0.2,0,0.5,0,0.7,0.1C179.8,44.7,179.4,45,178.9,44.9z"/>
	<path class="st77" d="M70.1,19.6c1.6,1,3.2,1.9,4.8,2.9c0,0.1,0,0.1,0,0.2c0.7,0.7,1.5,1.3,2,2.1l0,0c0.5,1.1,0.8,2.1,0.3,3.3
		c-1.3,1.8-3.3,2.4-5.3,2.9c-5.9,1.3-11.8,1.2-17.8,0.7c-2.9-0.2-5.9-0.6-8.8-0.9c-2-0.3-4-0.9-6-1.5c-0.8,0.4-1-0.4-1.5-0.7
		c-6.1-4.3-5.6-14,0.5-18.6c2.1-1.6,4.6-2.6,7.2-3.2c1.8-0.6,3.6-0.6,5.5-0.7c0.9,0,1.4,0.4,1.3,1.5c-0.3,2.7-0.2,2.7-2.9,2.8
		c-1.2,0.1-2.4-0.1-3.6,0.4c-5.8,1.2-8.3,7.4-5.8,12.3c1,2,2.9,2.8,5,2.8c1,0,1.9-0.2,2.9-0.5c1.1-0.3,1.8-0.9,1.5-2.2
		c-0.1-0.3,0-0.6,0-0.9c-0.2-2.4-0.2-2.4-2.5-2.1c-1,0.2-1.3-0.2-1.3-1.1c0-0.5-0.1-1-0.1-1.5c0-0.6,0.2-1,0.9-1.1
		c2-0.4,4-0.8,6-1.3c1.3-0.3,1.7,0.1,1.7,1.5c0,3,0,6.1,0.2,9.1c0.1,1.2-0.9,1.2-1.4,1.8c4.6,0.6,9.4-1.6,11.3-5.1
		c0.8-1.1,0.7-2.4,0.4-3.6c-0.3-1.6-0.2-1.6,1.3-1.3C67.4,18.4,68.7,19,70.1,19.6z"/>
	<path class="st78" d="M45.9,10.9c1.5-0.9,3.1-0.7,4.7-0.6c1.1,0.1,1.5-0.2,1.5-1.3c0.1-2.8,0.2-2.8-2.7-2.6
		c-1.3,0.1-2.5,0.3-3.8,0.4c1-1.1,2.3-0.7,3.4-0.8c3.6-0.5,4.3,0.4,3.3,3.9c-0.1,0.5-0.5,0.8-1,0.7C49.6,10.6,47.7,10.7,45.9,10.9z"
		/>
	<path class="st79" d="M34.1,28.9c-2.3-0.5-4.7-0.8-7-1.6c-1.2-0.4-2.5-0.6-3.6-1.2c-0.7-0.4-0.7-0.8-0.6-1.4c2,1.5,4.5,1.7,6.7,2.5
		c0.7,0.2,1.4,0.4,2.1,0.6c0.7,0.3,1.3,0.6,2.1,0.6C34,28.5,34.2,28.6,34.1,28.9z"/>
	<path class="st20" d="M31.7,27.8c-2.7-0.3-5.3-1.3-7.9-2.1c-0.5-0.1-0.6-0.6-0.9-0.9c0-1.5-0.5-2.9-0.3-4.3
		c0.4,0.9,0.5,1.9,0.6,2.8c0.1,1.4,0.9,2.1,2.2,2.5C27.5,26.5,29.8,26.7,31.7,27.8z"/>
	<path class="st80" d="M34.1,28.9c-0.1-0.2-0.2-0.4-0.3-0.6c1.1,0.3,2.3,0.3,3.4,0.8c0.4,0.2,0.9,0.2,0.7-0.5c0.5,0.2,1,0.4,1.5,0.7
		c0.1,1.2-0.7,0.5-1,0.5C36.9,29.7,35.6,28.8,34.1,28.9z"/>
	<path class="st77" d="M21.9,17.2c0,0.1,0,0.2,0,0.3c-0.1,2.1,0.4,4.2,0.5,6.3c0.1,1.1,0.1,1.6-1.2,1.1c-4.4-1.7-8.9-3.4-12.7-6.4
		c-1.4-1.1-2.8-2.3-2.5-4.2c0.3-2,2.1-2.7,3.8-3.3c2.7-0.9,5.4-1.3,8.2-1.5c1.1,0,2.5-0.3,3.3,0.2c0.7,0.5-0.2,1.9-0.1,3
		C21.5,14.2,21.5,15.7,21.9,17.2z"/>
	<path class="st81" d="M77.2,28.1c0.1-1.1-0.1-2.2-0.3-3.3C77.8,25.8,78.2,26.9,77.2,28.1z"/>
	<path class="st81" d="M76.9,24.8c-0.8-0.6-1.5-1.2-2-2.1C75.8,23.2,76.6,23.8,76.9,24.8z"/>
	<path class="st82" d="M146.6,15.4c-0.6,0.1-0.4,0.9-0.9,1.2c-0.1-0.5,0-1,0.2-1.5c0.1-0.2,0.2-0.5,0.5-0.4
		C146.7,14.8,146.7,15.1,146.6,15.4z"/>
	<path class="st83" d="M168.2,12.6c4.5,0.1,6.4,3.3,4.6,7.7c-1.2,3-4.8,4.9-7.9,4.4c-1-0.2-0.8-0.8-0.7-1.4c0.5-2.6,1.1-5.3,1.7-7.9
		c0.1-0.3,0.2-0.6,0.2-0.9C166.1,12.8,167,12.4,168.2,12.6z"/>
	<path class="st84" d="M240.4,12.6c4.4,0.1,6.3,3.4,4.5,7.7c-1.2,3-4.7,4.9-7.9,4.4c-0.6-0.1-0.9-0.4-0.7-1
		c0.7-3.5,1.4-6.9,2.1-10.4C238.6,12.2,239.8,12.9,240.4,12.6z"/>
	<path class="st85" d="M112.4,12.7c0.4,0,0.9-0.1,1.3-0.1c1.3,0,2.4,0.5,2.6,1.8c0.2,1.3-0.6,2.2-1.7,2.8c-0.4,0.2-0.8,0.3-1.2,0.4
		c-2.6,0.4-2.7,0.3-2.1-2.2c0.3-0.6,0.5-1.2,0.4-1.8C111.6,13,112,12.9,112.4,12.7z"/>
	<path class="st86" d="M112.4,12.7c-1,0.6-0.2,2.1-1.2,2.7c-0.2-0.8,0.3-1.5,0.4-2.3C111.6,12.6,112,12.6,112.4,12.7z"/>
	<path class="st87" d="M222,12.7c0.4,0,0.9-0.1,1.3-0.1c1.1,0,2.2,0.3,2.7,1.4c0.4,1.1-0.1,2.1-1,2.8c-1.1,0.9-2.4,0.8-3.6,0.7
		c-1.1,0-0.6-0.9-0.7-1.4c0.3-0.7,0.5-1.4,0.6-2.1C221.3,13.4,221.5,13,222,12.7z"/>
	<path class="st88" d="M220.9,16c-0.4,1.3,0.2,1.6,1.4,1.5c1,0,1.8-0.5,2.7-0.7c-1.2,1.4-2.8,0.9-4.2,0.9c-0.3,0-0.5-0.3-0.4-0.6
		c0.4-1,0.1-2.1,0.8-2.9C221.4,14.8,221.2,15.4,220.9,16z"/>
	<path class="st89" d="M220.9,16c-0.1-0.6,0.4-1.2,0.2-1.8c0.2-0.5-0.3-1.5,0.9-1.5c-0.4,0.6-0.6,1.2-0.6,1.9
		C221.4,15.1,221.6,15.8,220.9,16z"/>
	<path class="st90" d="M206.6,16.3c0.1,0.9,0.2,1.9,0.4,2.8c0.1,0.7-0.1,1.2-0.9,1.1c-1-0.1-2.2,0.5-2.8-0.3
		c-0.5-0.7,0.6-1.6,0.9-2.5c0.3-0.8,0.7-1.5,1-2.3c0.3-0.4,0.4-0.8,0.6-1.2l0,0c0.5-0.3,0.7,0,0.7,0.5
		C206.6,15,206.3,15.6,206.6,16.3z"/>
	<path class="st91" d="M206.6,16.3c-0.7-0.7,0.3-1.9-0.9-2.4c0-0.4,0.2-0.8,0.6-0.8c0.4,0.1,0.3,0.5,0.3,0.9
		C206.7,14.7,206.6,15.5,206.6,16.3z"/>
	<path class="st91" d="M205.8,13.9c0.1,0.5,0,1-0.6,1.2C205.2,14.6,205.4,14.2,205.8,13.9z"/>
	<path class="st92" d="M128.7,19.2c0.7-1.3,1.4-2.6,2-3.9c0.5-0.4,0.5-1.2,1.2-1.6c0.5,1.9,0.4,3.9,0.8,5.7c0,0.4-0.1,0.8-0.6,0.8
		c-1,0-1.9,0-2.9,0C128.4,20.2,128.4,19.7,128.7,19.2z"/>
	<path class="st93" d="M128.7,19.2c0.1,0.3-0.1,0.8,0.4,0.8c1,0,2,0,3,0c0.5,0,0.4-0.4,0.4-0.8c-0.2-1.5-0.7-2.9-0.3-4.4
		c0.9,1.6,0.5,3.3,0.6,5c0,0.3-0.2,0.6-0.5,0.6c-1.2,0-2.5,0.2-3.7,0C127.6,20.2,128.3,19.6,128.7,19.2z"/>
	<path class="st94" d="M132.2,14.8c-0.2,1.5,0.5,2.9,0.3,4.4c-0.9-1.6-0.4-3.3-0.6-5.1c-0.6,0.3-0.5,1.1-1.1,1.2
		c0.2-0.8,0.5-1.6,1.1-2.3C132.3,13.6,132,14.2,132.2,14.8z"/>
	<path class="st64" d="M125.1,44c-1,0-2,0.1-3-0.3c-0.1-0.1-0.2-0.2-0.3-0.3c-0.7-1.2-0.6-2.4,0-3.5c0.5-0.8,1-1.6,1.9-2
		c2.1-0.8,3.3,0.3,3.4,3.1c-0.2,0.6-0.3,1.1-0.8,1.6C126.2,43.3,125.6,43.6,125.1,44z"/>
	<path class="st53" d="M121.8,39.9c-0.3,1.2-0.3,2.4,0,3.5C120.9,42.3,121,41.1,121.8,39.9z"/>
	<path class="st10" d="M126.3,42.6c0.3-0.5,0.5-1,0.8-1.6C127.1,41.7,127.1,42.3,126.3,42.6z"/>
	<path class="st95" d="M160.8,44c-0.6,0-1.2,0.1-1.8,0.1c-0.1-0.1-0.2-0.2-0.3-0.3c-0.7-0.9-0.5-1.8,0.1-2.7
		c0.3-0.3,0.5-0.6,0.8-0.8c0.6-0.4,1.2-0.5,1.8-0.1c0.6,0.4,0.7,1,0.6,1.7C161.8,42.7,161.4,43.4,160.8,44z"/>
	<path class="st69" d="M158.8,41.1c-0.3,0.9-0.5,1.8-0.1,2.7C157.8,42.8,157.9,41.9,158.8,41.1z"/>
	<path class="st96" d="M202.2,43.4c0-0.7-0.1-1.4,0.2-2c0.5-1,1.3-1.8,2.4-1.3c1.1,0.5,0.8,1.4,0.6,2.4c-0.2,0.6-0.7,0.9-0.9,1.5
		C203.6,44.6,202.8,44.4,202.2,43.4L202.2,43.4z"/>
	<path class="st97" d="M202.2,43.4c0.6,0.7,1.4,0.9,2.3,0.5c-0.1,0.4-0.6,0.5-0.9,0.7C203,44.4,202.3,44.4,202.2,43.4z"/>
	<path class="st98" d="M180.3,42.6c-0.2,0.4-0.4,0.7-0.6,1.1c-0.7,0.7-1.4,0.8-2.3,0.4l0,0c-0.9-1.1-0.5-2.1,0-3.2
		c0.9-1,1.8-1,2.8-0.3C180.7,41.2,180.7,41.8,180.3,42.6z"/>
	<path class="st71" d="M177.4,40.8c-0.2,1.1-0.6,2.2,0,3.2C176.3,42.9,176.6,41.9,177.4,40.8z"/>
	<path class="st76" d="M177.4,44c0.8,0.2,1.6,0.2,2.3-0.4c-0.1,0.2-0.2,0.5-0.3,0.7c0,0,0,0,0,0C178.8,44.3,177.9,45,177.4,44z"/>
	<path class="st65" d="M180.3,42.6c0-0.7,0.1-1.4-0.1-2C181,41.2,181.3,41.8,180.3,42.6z"/>
	<path class="st99" d="M143.5,40.2c0.3-0.1,0.6-0.2,1-0.3c0.4,0,0.9-0.1,1.2,0.3c0.3,0.5-0.1,0.8-0.4,1.1c-0.3,0-0.6,0-0.9,0.3
		c-0.8,0.2-1.6,0.5-1.2-0.9C143.2,40.6,143.3,40.4,143.5,40.2z"/>
	<path class="st74" d="M143.1,40.8c-0.1,1,0.6,0.9,1.2,0.9c-0.4,0.5-0.9,0.5-1.3,0.1C142.7,41.5,142.8,41.1,143.1,40.8z"/>
	<path class="st100" d="M155.3,44.6c-1-0.3-0.5-0.8-0.1-1.6C155.2,43.8,155.2,44.2,155.3,44.6C155.3,44.7,155.3,44.6,155.3,44.6z"/>
	<path class="st101" d="M214.6,41.1c0.5-0.9,1.3-1.3,2.3-1.1c0.5,0.6,0.3,1-0.2,1.4c-0.5,0.2-1,0.2-1.5,0.3
		C214.6,41.9,214.4,41.7,214.6,41.1z"/>
	<path class="st59" d="M214.6,41.1c0.5,1.1,1.4,0,2.1,0.3c-0.7,0.5-1.5,0.6-2.3,0.5c0-0.3,0-0.6,0-0.9
		C214.4,41.1,214.5,41.1,214.6,41.1z"/>
</g>
</svg>
