<?xml version="1.0" encoding="utf-8"?>
<!-- Generator: Adobe Illustrator 21.0.0, SVG Export Plug-In . SVG Version: 6.00 Build 0)  -->
<svg version="1.1" id="Camada_1" xmlns="http://www.w3.org/2000/svg" xmlns:xlink="http://www.w3.org/1999/xlink" x="0px" y="0px"
	 viewBox="0 0 250 108.9" style="enable-background:new 0 0 250 108.9;" xml:space="preserve">
<style type="text/css">
	.st0{fill:#B4151D;}
	.st1{fill:#FBF7F8;}
	.st2{fill:#FBF7F7;}
	.st3{fill:#FBF6F6;}
	.st4{fill:#FBF5F6;}
	.st5{fill:#B4161E;}
	.st6{fill:#BB3137;}
</style>
<g>
	<path class="st0" d="M250,0c-1.8,8.8-3.6,17.3-5.3,25.8c-4.5,21.9-9,43.7-13.4,65.6c-1.8,9.1-7.3,14.4-16.2,16.3
		c-3.4,0.7-6.8,1.1-10.3,1.1c-67.4,0.1-134.8,0-202.2,0c-0.8,0-1.6,0-2.7,0C2.1,98.8,4,89,6.1,79.2c4.1-20.2,8.5-40.4,12.3-60.7
		C20.7,6.3,29,2,37.5,0.6C40.1,0.2,42.8,0,45.4,0c67.2,0,134.3,0,201.5,0C247.8,0,248.7,0,250,0z M28.6,33.2
		c-2.2,12.3-4.3,24.5-6.4,36.7c2.1,0,4,0,6,0c1-6.1,2-12.1,3.1-18c5.7,0,11.2,0,16.8,0c-1.1,6.1-2.2,12.1-3.3,18c2.3,0,4.2,0,6.1,0
		c2.2-12.3,4.3-24.4,6.4-36.6c-2.1,0-4,0-6,0c-0.9,5-1.7,9.9-2.5,14.7c-5.7,0-11.2,0-16.8,0c0.9-5,1.8-9.8,2.6-14.7
		C32.5,33.2,30.6,33.2,28.6,33.2z M72.1,68.5c2.2,0.8,4.1,2.1,6.2,2.2c4.2,0.3,8-1.2,10.6-4.8c3.3-4.5,4.7-9.7,4.2-15.3
		c-0.4-4.5-3.2-7.4-7.8-7.4c-3.1,0-6.3,1.1-9.5,1.7c0,0.1,0-0.5,0-1.2c-1.5,0-2.9,0-4.3,0c-0.2,0.8-0.4,1.5-0.5,2.2
		c-1.8,10.4-3.6,20.7-5.5,31.1c-0.9,5.1-0.9,5.1,4.1,4.6c0.1,0,0.3-0.2,0.5-0.3C70.8,76.9,71.5,72.5,72.1,68.5z M223.1,32.5
		c-0.7,4-1.3,7.7-1.9,11.5c-0.7-0.2-1.3-0.3-1.9-0.4c-9-1.8-15.5,1.8-18.2,10.5c-0.9,2.9-1.1,6.1-1.1,9.2c0.1,4.2,2.5,6.6,6.7,7.2
		c4.1,0.5,7.9-0.1,11-3.9c-0.1,1.5-0.1,2.4-0.2,3.3c1.7,0,3.2,0,4.3,0c2.1-12.5,4.2-24.9,6.4-37.3C226.6,32.5,225,32.5,223.1,32.5z
		 M176.6,52.7c-3.7,0.3-7.4,0.2-10.8,1c-5.4,1.2-8,5-7.9,10.5c0.1,3.7,1.9,5.8,5.6,6.3c4.2,0.6,8-0.3,11.2-3.9
		c0.1,1.4,0.1,2.3,0.2,3.2c1.5,0,3,0,4.2,0c1-6.4,2-12.5,3.1-18.6c0.9-5.1-0.5-7.3-5.6-7.8c-4.1-0.4-8.2-0.1-12.3-0.1
		c-0.5,1.8-0.8,3.1-1.1,4.3c3.2-0.3,6.3-0.9,9.4-0.9C176.9,46.7,178.1,48.7,176.6,52.7z M118.6,55.9c0.2-2.2,0.6-4.1,0.6-6
		c0.1-2.5-1-4.4-3.2-5.6c-6.2-3.3-16-0.4-18.7,6.1c-1.5,3.7-2.2,7.9-2.5,12c-0.3,4.1,2.2,7.1,6.2,7.7c3.6,0.5,7.4,0.2,11-0.1
		c3.5-0.3,3.8-0.9,3.6-4.1c-3.2,0.4-6.4,1-9.7,1.1c-3.1,0.1-5.3-1.7-5.6-4.4c-0.3-2.1-0.1-4.3-0.1-6.6
		C106.6,55.9,112.4,55.9,118.6,55.9z M158.5,43.5c-3.8,0-7.5-0.2-11.2,0.1c-3.4,0.2-6,2.2-7.9,5c-3,4.6-4.2,9.7-3.4,15.2
		c0.5,3.8,3.1,6.3,6.9,6.6c2.7,0.2,5.4,0,8-0.4c3.5-0.5,3.6-0.8,3.4-4.2c-2.4,0.4-4.7,1-7.1,1.1c-3.7,0.2-5.9-1.8-5.8-5.4
		c0.1-3.3,0.8-6.6,1.8-9.8c1.1-3.6,4-5.2,7.6-5c2.3,0.1,4.6,0.6,7,0.9C158,46.3,158.2,45.1,158.5,43.5z M125.1,69.9
		c0.8-4.9,1.4-9.6,2.6-14.1c0.7-2.6,2-5.3,3.8-7.1c1.4-1.3,4.2-1.3,6.7-1.9c0.1-0.5,0.3-1.7,0.5-2.8c-4.2-1.9-7,0.3-10.1,2.7
		c0.2-0.9,0.3-1.8,0.5-2.7c-1.5,0-3,0-4.4,0c-1.5,8.7-3.1,17.3-4.6,26.1C121.8,69.9,123.4,69.9,125.1,69.9z M202.1,47.5
		c0.2-1.3,0.4-2.4,0.6-3.6c-4.5-1.9-7.3,0.4-10.2,3.1c0.2-1,0.5-2,0.7-3.1c-1.7,0-3.1,0-4.6,0c-1.5,8.7-3.1,17.3-4.6,26
		c1.8,0,3.5,0,5.1,0c0.4-2.9,0.8-5.5,1.2-8.2c0.5-2.6,0.9-5.3,1.6-7.9C193.6,48.5,196.6,46.6,202.1,47.5z M61.2,43.8
		c-1.5,8.8-3.1,17.4-4.6,26.1c1.8,0,3.4,0,5.1,0c1.5-8.7,3.1-17.3,4.6-26.1C64.5,43.8,62.9,43.8,61.2,43.8z M64.6,39.1
		c2.1,0,3.6-1.7,3.6-4.1c0-1.7-0.9-2.5-2.5-2.5c-2.1,0-3.5,1.7-3.5,4.1C62.1,38.4,62.9,39.2,64.6,39.1z"/>
	<path class="st1" d="M28.6,33.2c2,0,3.9,0,6,0c-0.9,4.9-1.7,9.7-2.6,14.7c5.6,0,11.1,0,16.8,0c0.8-4.8,1.7-9.7,2.5-14.7
		c2,0,3.9,0,6,0c-2.1,12.2-4.3,24.3-6.4,36.6c-1.9,0-3.8,0-6.1,0c1.1-5.9,2.2-11.9,3.3-18c-5.6,0-11.1,0-16.8,0c-1,6-2,11.9-3.1,18
		c-2,0-3.9,0-6,0C24.3,57.6,26.5,45.5,28.6,33.2z"/>
	<path class="st2" d="M72.1,68.5c-0.6,4-1.3,8.5-2,12.9c-0.2,0.1-0.3,0.3-0.5,0.3c-5.1,0.5-5,0.5-4.1-4.6C67.4,66.7,69.2,56.4,71,46
		c0.1-0.7,0.3-1.5,0.5-2.2c1.5,0,2.8,0,4.3,0c0,0.7,0,1.3,0,1.2c3.2-0.6,6.4-1.7,9.5-1.7c4.6,0,7.4,2.9,7.8,7.4
		c0.5,5.6-0.9,10.7-4.2,15.3c-2.6,3.5-6.4,5.1-10.6,4.8C76.2,70.6,74.2,69.3,72.1,68.5z M88.2,53.7c-0.2-0.1-0.4-0.1-0.6-0.2
		c0-0.3,0-0.7,0-1c-0.1-3.6-1.8-5.6-5.3-5.8c-3.8-0.3-6.7,1.6-7.3,4.9c-0.5,3.1-1.2,6.1-1.6,9.2c-0.7,5,2.4,7.7,7.2,6.1
		c1.7-0.6,3.6-2.1,4.4-3.7C86.5,60.2,87.2,56.8,88.2,53.7z"/>
	<path class="st1" d="M223.1,32.5c1.8,0,3.5,0,5.1,0c-2.1,12.5-4.2,24.8-6.4,37.3c-1.1,0-2.6,0-4.3,0c0.1-0.9,0.1-1.8,0.2-3.3
		c-3.1,3.9-6.9,4.5-11,3.9c-4.2-0.5-6.7-3-6.7-7.2c0-3.1,0.2-6.3,1.1-9.2c2.7-8.7,9.2-12.3,18.2-10.5c0.6,0.1,1.1,0.2,1.9,0.4
		C221.9,40.2,222.5,36.5,223.1,32.5z M220.7,47.9c-6.1-2.9-11.4-1.2-13.6,4.8c-1,2.7-1.6,5.7-1.6,8.6c-0.1,5,3.8,7.4,8.2,5.1
		c1.7-0.9,3.4-2.9,4-4.8C219.1,57.1,219.8,52.4,220.7,47.9z"/>
	<path class="st3" d="M176.6,52.7c1.5-4,0.3-6-4.1-6c-3.1,0-6.1,0.6-9.4,0.9c0.3-1.2,0.6-2.5,1.1-4.3c4.1,0,8.2-0.3,12.3,0.1
		c5.1,0.5,6.4,2.7,5.6,7.8c-1,6.1-2,12.3-3.1,18.6c-1.2,0-2.6,0-4.2,0c-0.1-1-0.1-1.8-0.2-3.2c-3.2,3.6-7,4.5-11.2,3.9
		c-3.7-0.5-5.5-2.6-5.6-6.3c-0.2-5.5,2.4-9.3,7.9-10.5C169.2,52.9,172.9,53,176.6,52.7z M169.1,56.3c-0.7,0.1-1.3,0.2-2,0.4
		c-2.5,1-3.8,2.9-4.1,5.6c-0.2,1.8,0.1,3.4,1.9,4.3c2.4,1.1,4.8,0.7,6.9-0.8c1-0.7,1.9-1.8,2.4-2.9c0.7-1.6,1.1-3.3,1.6-5
		c0.6-1.1,0.5-1.8-0.9-1.8C172.9,56.1,171,56.2,169.1,56.3z"/>
	<path class="st3" d="M118.6,55.9c-6.2,0-12,0-18.3,0c0,2.3-0.2,4.5,0.1,6.6c0.4,2.7,2.5,4.5,5.6,4.4c3.2-0.1,6.5-0.7,9.7-1.1
		c0.2,3.2-0.1,3.8-3.6,4.1c-3.7,0.3-7.4,0.6-11,0.1c-4.1-0.6-6.5-3.6-6.2-7.7c0.3-4,1-8.2,2.5-12c2.7-6.5,12.5-9.4,18.7-6.1
		c2.3,1.2,3.3,3.1,3.2,5.6C119.1,51.8,118.8,53.7,118.6,55.9z M113.7,52.7c0.8-3.6,0.3-5-1.9-5.8c-4.6-1.8-9.2,0.8-10.3,5.8
		C105.5,52.7,109.6,52.7,113.7,52.7z"/>
	<path class="st2" d="M158.5,43.5c-0.2,1.6-0.4,2.8-0.6,4c-2.4-0.3-4.7-0.8-7-0.9c-3.7-0.1-6.6,1.4-7.6,5c-0.9,3.2-1.7,6.5-1.8,9.8
		c-0.1,3.7,2.1,5.6,5.8,5.4c2.4-0.1,4.8-0.7,7.1-1.1c0.2,3.3,0.1,3.7-3.4,4.2c-2.6,0.4-5.4,0.6-8,0.4c-3.8-0.3-6.3-2.9-6.9-6.6
		c-0.8-5.5,0.4-10.6,3.4-15.2c1.8-2.8,4.4-4.7,7.9-5C151,43.3,154.6,43.5,158.5,43.5z"/>
	<path class="st3" d="M125.1,69.9c-1.7,0-3.4,0-5,0c1.5-8.8,3.1-17.4,4.6-26.1c1.5,0,2.9,0,4.4,0c-0.2,1-0.3,1.9-0.5,2.7
		c3.1-2.4,5.9-4.6,10.1-2.7c-0.2,1.2-0.4,2.3-0.5,2.8c-2.5,0.6-5.3,0.6-6.7,1.9c-1.9,1.8-3.2,4.5-3.8,7.1
		C126.5,60.3,126,65,125.1,69.9z"/>
	<path class="st3" d="M202.1,47.5c-5.5-0.9-8.5,1-10,6.3c-0.7,2.6-1.2,5.3-1.6,7.9c-0.5,2.7-0.8,5.3-1.2,8.2c-1.6,0-3.3,0-5.1,0
		c1.5-8.6,3-17.2,4.6-26c1.4,0,2.9,0,4.6,0c-0.3,1.1-0.5,2.1-0.7,3.1c2.9-2.6,5.7-5,10.2-3.1C202.5,45,202.3,46.2,202.1,47.5z"/>
	<path class="st3" d="M61.2,43.8c1.7,0,3.3,0,5.1,0c-1.5,8.8-3.1,17.4-4.6,26.1c-1.7,0-3.3,0-5.1,0C58.1,61.2,59.6,52.6,61.2,43.8z"
		/>
	<path class="st4" d="M64.6,39.1c-1.7,0.1-2.5-0.7-2.5-2.4c0-2.4,1.5-4.1,3.5-4.1c1.6,0,2.5,0.8,2.5,2.5
		C68.2,37.5,66.7,39.1,64.6,39.1z"/>
	<path class="st5" d="M88.2,53.7c-1,3.2-1.7,6.5-3.1,9.4c-0.8,1.6-2.7,3.1-4.4,3.7c-4.8,1.6-7.8-1.1-7.2-6.1c0.4-3.1,1-6.1,1.6-9.2
		c0.6-3.3,3.5-5.2,7.3-4.9c3.4,0.3,5.2,2.2,5.3,5.8c0,0.3,0,0.7,0,1C87.8,53.5,88,53.6,88.2,53.7z"/>
	<path class="st5" d="M220.7,47.9c-1,4.5-1.7,9.2-3.1,13.6c-0.6,1.9-2.3,3.8-4,4.8c-4.4,2.3-8.3-0.1-8.2-5.1
		c0.1-2.9,0.6-5.9,1.6-8.6C209.3,46.8,214.6,45,220.7,47.9z"/>
	<path class="st5" d="M175.8,57.8c-0.5,1.7-0.8,3.4-1.6,5c-0.5,1.1-1.4,2.1-2.4,2.9c-2.1,1.5-4.5,2-6.9,0.8
		c-1.8-0.8-2.1-2.5-1.9-4.3c0.3-2.6,1.6-4.6,4.1-5.6c0.6-0.2,1.3-0.3,2-0.4c1.2,0.2,2.4,0.2,3.6,0.5C173.7,57,174.7,57.4,175.8,57.8
		z"/>
	<path class="st6" d="M175.8,57.8c-1-0.4-2-0.8-3.1-1c-1.2-0.3-2.4-0.3-3.6-0.5c1.9-0.1,3.8-0.2,5.7-0.2
		C176.2,56,176.4,56.7,175.8,57.8z"/>
	<path class="st0" d="M113.7,52.7c-4.2,0-8.2,0-12.3,0c1.1-5,5.7-7.6,10.3-5.8C114,47.7,114.5,49.2,113.7,52.7z"/>
</g>
</svg>
