<?xml version="1.0" encoding="utf-8"?>
<!-- Generator: Adobe Illustrator 21.0.0, SVG Export Plug-In . SVG Version: 6.00 Build 0)  -->
<svg version="1.1" id="Camada_1" xmlns="http://www.w3.org/2000/svg" xmlns:xlink="http://www.w3.org/1999/xlink" x="0px" y="0px"
	 viewBox="0 0 197.4 197" style="enable-background:new 0 0 197.4 197;" xml:space="preserve">
<style type="text/css">
	.st0{fill:#15104E;}
	.st1{fill:#072B99;}
	.st2{fill:#1D4FD1;}
	.st3{fill:#161462;}
	.st4{fill:#5162B2;}
	.st5{fill:#484DA3;}
	.st6{fill:#1C43BD;}
	.st7{fill:#7898FD;}
	.st8{fill:#0F34A5;}
	.st9{fill:#181F7A;}
	.st10{fill:#110E42;}
	.st11{fill:#2F242F;}
	.st12{fill:#012284;}
	.st13{fill:#264ECE;}
	.st14{fill:#183DB3;}
	.st15{fill:#152692;}
	.st16{fill:#0C309D;}
	.st17{fill:#345FE9;}
	.st18{fill:#F7EA3D;}
	.st19{fill:#5980FD;}
	.st20{fill:#406CF9;}
	.st21{fill:#021A62;}
	.st22{fill:#021D6A;}
	.st23{fill:#021E73;}
	.st24{fill:#120F38;}
	.st25{fill:#021F7B;}
	.st26{fill:#F4E52B;}
	.st27{fill:#F8E408;}
	.st28{fill:#0D2079;}
</style>
<g>
	<path class="st0" d="M14.3,189.8c0,0-0.3-0.2-0.3-0.2c-0.4-0.3-0.8-0.5-1.1-0.8c0,0-0.1-0.1-0.1-0.1c-0.3-0.3-0.7-0.6-1-0.9
		c0,0,0,0,0,0c-0.1-0.4-0.3-0.7-0.4-1.1c-0.1-0.3-0.2-0.7-0.3-1c2.8-0.4,5.9-0.2,8.2-1.4c11.1-5.6,23.1-5.8,34.9-6.5
		c10-0.5,20,0,30-0.1c6-0.1,12.1-1.6,17.8-0.7c15.3,2.4,30.7,2.8,46.1,2.9c7.8,0.1,14.7-1.7,21.4-5.4c3.2-1.8,4-3.7,2.3-6.8
		c2,0,4,0,6,0c5.5,2,7.2,1,7-4.4c-0.1-1.6-0.9-3.3-0.7-4.8c0.4-3-2.3-6.6,1.8-8.8c2,9,4.1,18,6.1,27c-0.3,0.7-0.7,1.4-1,2
		c-1.7,2-3.4,3.9-5.2,5.9c-5.8,2.4-11.5,4.7-17.3,7.3c-1.4,0.6-2.5,1.8-3.8,2.7c-1,0.1-2,0.1-2.9,0.2c-0.3-0.4-0.7-0.7-1-1.1
		c0.5-1.5,1.1-3,1.9-5.4c-14.5-1.2-28.4-3.2-42.4-3.5c-22.1-0.4-44.3,0.2-66.4,0.9c-9.4,0.3-18.7,1.8-28,3.2
		c-1.5,0.2-2.8,2.3-4.1,3.6c-1.4-0.3-2.7-0.5-4.1-0.8c0,0,0.1-0.1,0.1-0.1c-0.6-0.3-1.3-0.7-1.9-1c0,0-0.1-0.1-0.1-0.1
		C15.2,190.4,14.7,190.1,14.3,189.8z"/>
	<path class="st1" d="M0.7,32.6c0.1-1,0.2-2,0.3-2.9c1.3-1.7,2.6-3.3,4-5c0,1.3,0,2.6-0.1,4c0,2.7-0.1,5.4-0.1,8.1c0,4.3,0,8.7,0,13
		c0,6,0,12,0,18c1,7.6,2,15.2,3.2,22.7c0.2,1.2,2,2.1,3,3.2c0.9-1.3,1.8-2.6,2.7-3.9c5.4-2.7,6.2-8.3,7.9-13.1
		c2.7-7.6,4.5-15.6,7.2-23.3c2.7-7.7,6.5-14.8,15.2-17.2c8.6-2.4,17.4-4.3,26-6.5c2.7-0.7,5.2-1.9,7.8-2.9c1,0,2,0,3,0
		c0.7-0.3,1.3-0.7,2-1c9.5-0.7,19.1-1.3,28.6-2.1c0.8-0.1,1.6-1.2,2.4-1.9c1,0,2,0,3,0c3.7,0,7.3,0,11,0c2.7-0.3,5.3-0.6,8-1
		c1,0.7,2,1.3,3,2c-1.1,0.3-2.1,0.8-3.2,1c-13.8,1.7-27.6,2.8-41.3,5.1c-11.1,1.8-21.9,5-32.8,7.6c-15.2,3.6-26.2,11.8-29.6,27.8
		c-2.5,11.5-4.6,23-6.9,34.5c-1.5,0.1-3,0.3-4.5,0.2c-3.9-0.4-4.8,1.7-4.6,5.1c0.4,7.2,0.5,14.5,0.8,21.7c-3.3,1-6.6,2-9.8,3
		c-0.4-5.1-0.3-10.3-1.3-15.3c-0.5-2.8-2.9-5.2-4.4-7.7c0-1.3,0-2.7-0.1-4C1,92.4,1,83.1,1,73.8C0.9,60.1,0.8,46.3,0.7,32.6z"/>
	<path class="st2" d="M25.8,1.8c4.9-0.6,9.8-1.6,14.8-1.7C79.1,0,117.7,0,156.3,0.1c4.8,0,9.6,0.6,14.4,1.4
		c5.4,0.9,10.5,2.9,13.4,8.1c0.6,1.3,1.3,2.7,1.9,4c-0.8,0.7-1.5,1.4-2.3,2.2c-1,0-2,0-3,0c0.3-1.3,0.7-2.6,1-4
		c-0.6-0.7-1.3-1.4-1.9-2.1c-1.4-1-2.8-1.9-4.2-2.9c-0.3-0.1-0.5-0.1-0.8,0c-0.4,0-0.7-0.1-1.1-0.1c-2.6-0.7-5.3-1.4-7.9-2.2
		c-0.9,0.4-1.8,0.8-2.6,1.1c-0.2-0.1-0.5-0.2-0.8-0.1c-1.6-0.6-3.2-1.7-4.7-1.7c-31.3-0.1-62.6-0.1-93.9-0.1
		c-10.7,0-21.4,0-32.1-0.1C29.8,3.1,27.8,2.4,25.8,1.8z"/>
	<path class="st3" d="M191.9,176.8c-2-9-4.1-18-6.1-27c-0.3-6.9-0.9-13.9-0.9-20.8c0-4.4-0.4-8.5-3.1-12.2c2.3-1,4.7-2,7-3
		c1,0.3,2,0.7,3,1c0,0.7,0,1.3,0,2c-0.3,11-1,22.1-0.8,33.1c0.1,4,2.4,7.9,3.8,11.9c0.3,2.7,0.5,5.4,0.8,8.1
		c-0.1,0.6-0.2,1.2-0.4,1.8C194.1,173.3,193,175,191.9,176.8z"/>
	<path class="st4" d="M195.5,169.8c-0.3-2.7-0.5-5.4-0.8-8.1c0.3-1.7,0.9-3.5,0.9-5.2c-0.2-13.3-0.5-26.5-0.7-39.8
		c0-3.3-0.1-6.7-0.1-10c-0.1-1.3-0.2-2.7-0.2-4c0-4.6,0.1-9.3,0.1-13.9c0.2-5.4,0.5-10.8,0.6-16.2c0-0.3-1-0.6-1.6-0.9
		c0.2-1.7,0.4-3.3,0.6-5c0.4-1,0.8-2,1.2-3.1c0.1-8.7,0.1-17.3,0.2-26c0-1.7,0.6-3.4,1-5.2c0.2,3,0.7,5.9,0.7,8.9
		c0,38.5,0,77.1-0.2,115.6C197.2,161.3,196.1,165.5,195.5,169.8z"/>
	<path class="st5" d="M0.7,32.6C0.8,46.3,0.9,60.1,1,73.8C1,83.1,1,92.4,1,101.6c0,1.3,0,2.7,0.1,4c0.2,5.9,0.1,11.9,0.7,17.8
		c0.5,5.1,1.8,10.2,2.8,15.3c-0.3,10-0.6,20-0.9,29.9c0.5,3.3,0.9,6.5,1.4,9.8c-0.2,0.1-0.4,0.3-0.5,0.4c-1.5-6.4-4.2-12.8-4.3-19.2
		C-0.1,119,0,78.2,0,37.5C0,35.9,0.4,34.2,0.7,32.6z"/>
	<path class="st6" d="M161.8,194.8c1-0.1,2-0.1,2.9-0.2c5-1.1,9.9-2.1,14.9-3.2c0.1,0.1,0.2,0.3,0.3,0.4c-6.3,1.7-12.7,4.7-19,4.8
		c-41.6,0.4-83.1,0.3-124.7,0.1c-3.6,0-7.2-1.1-10.7-1.7c0.1-0.2,0.3-0.3,0.4-0.5c1.3,0,2.6-0.1,3.9-0.1c1,0.1,1.9,0.2,2.9,0.3
		c1.8,0.3,3.5,0.8,5.3,0.8c39.7,0,79.4,0,119.1,0C158.6,195.7,160.2,195.1,161.8,194.8z"/>
	<path class="st6" d="M25.8,1.8c2,0.7,4,1.3,6,2c-5,2-10.1,3.9-15.1,5.9l0.1,0c-1,0.7-2,1.4-3,2.1c-0.7,0.7-1.3,1.4-2,2
		c-0.4,0.6-0.8,1.3-1.2,1.9c-0.6,1-1.3,2-1.9,3c-1.2,2-2.5,4-3.7,6c-1.3,1.7-2.6,3.3-4,5C2.6,14.9,11.7,4.7,25.8,1.8z"/>
	<path class="st7" d="M186,13.6c-0.6-1.3-1.3-2.7-1.9-4c4.2,0.6,10.3,9.1,9.9,13.8c-0.1,1.1-0.2,2.3-0.2,3.4c-0.7,0-1.3-0.1-2-0.1
		c-1.3-1.7-2.5-3.4-3.8-5.1C187.3,18.9,186.7,16.3,186,13.6z"/>
	<path class="st7" d="M196.7,32.6c-0.3,1.7-0.9,3.4-1,5.2c-0.2,8.7-0.2,17.3-0.2,26c-0.3,0.1-0.7,0.1-1,0.2
		c-0.2-4.7-0.3-9.4-0.5-14.2c-0.1-5.3-0.2-10.6-0.3-15.9c0.1-2.1,0.1-4.2,0.2-6.2C194.8,29.2,195.8,30.9,196.7,32.6z"/>
	<path class="st8" d="M193.9,27.6c-0.1,2.1-0.1,4.2-0.2,6.2c-0.2,1.3-0.3,2.7-0.5,4c-0.5-1.7-1-3.4-1.5-5c0-2,0-4,0-6
		c0.7,0,1.3,0.1,2,0.1C193.9,27.1,193.9,27.3,193.9,27.6z"/>
	<path class="st4" d="M191.9,176.8c1.1-1.7,2.2-3.4,3.3-5.2c-1.4,3.5-2.8,6.9-4.2,10.4c-0.2-0.2-0.4-0.3-0.5-0.5
		c0.1-0.9,0.3-1.8,0.4-2.7C191.2,178.1,191.5,177.4,191.9,176.8z"/>
	<path class="st6" d="M17.7,191.8c1.4,0.3,2.7,0.5,4.1,0.8c0.4,0.3,0.7,0.7,1.1,1c-0.2,0.2-0.3,0.4-0.5,0.6
		C20.8,193.4,19.2,192.6,17.7,191.8z"/>
	<path class="st4" d="M191,182c-0.6,0.8-1.1,1.7-1.7,2.5c-0.2-0.3-0.4-0.5-0.6-0.7c0.6-0.7,1.1-1.5,1.7-2.2
		C190.7,181.7,190.8,181.8,191,182z"/>
	<path class="st6" d="M188,185.9c-0.7,0.7-1.4,1.3-2.1,2c0,0-0.3-0.3-0.3-0.3c0.6-0.6,1.2-1.2,1.8-1.8
		C187.6,185.8,187.8,185.9,188,185.9z"/>
	<path class="st6" d="M25.4,195.1c-1-0.3-2.1-0.6-3.1-0.9c0.2-0.2,0.3-0.4,0.5-0.6c1,0.3,2,0.7,3,1
		C25.7,194.8,25.6,194.9,25.4,195.1z"/>
	<path class="st5" d="M11,185.7c0.1,0.3,0.2,0.7,0.3,1c-0.2,0.2-0.3,0.5-0.4,0.8c-0.5-0.4-1.1-0.9-1.6-1.3c0.2-0.2,0.5-0.4,0.7-0.7
		C10.3,185.6,10.6,185.7,11,185.7z"/>
	<path class="st6" d="M185.9,187.9c-0.5,0.5-1.1,1-1.6,1.4c-0.2-0.2-0.3-0.4-0.5-0.6c0.6-0.4,1.2-0.8,1.8-1.2L185.9,187.9z"/>
	<path class="st6" d="M183.1,190.1c-0.6,0.4-1.2,0.8-1.9,1.2c-0.2-0.2-0.3-0.4-0.5-0.6c0.6-0.4,1.3-0.7,1.9-1.1
		C182.8,189.8,182.9,189.9,183.1,190.1z"/>
	<path class="st4" d="M189.4,184.5c-0.4,0.5-0.9,0.9-1.3,1.4c-0.2,0-0.4-0.1-0.7-0.2c0.1-0.4,0.1-0.7,0.2-1.1
		c0.2-0.2,0.2-0.5,0.2-0.8c0.3,0,0.7,0,1,0C189,184,189.2,184.2,189.4,184.5z"/>
	<path class="st9" d="M15.8,190.8c0.6,0.3,1.3,0.7,1.9,1C17.1,191.4,16.4,191.1,15.8,190.8z"/>
	<path class="st5" d="M6.7,182.8c-0.4-0.6-0.8-1.3-1.1-1.9c0.2-0.1,0.3-0.3,0.5-0.4c0.4,0.6,0.7,1.3,1.1,1.9
		C7,182.5,6.9,182.6,6.7,182.8z"/>
	<path class="st5" d="M5.6,180.9c-0.3-0.7-0.7-1.3-1-2c0.2-0.1,0.4-0.3,0.5-0.4c0.3,0.7,0.7,1.3,1,2C5.9,180.6,5.7,180.7,5.6,180.9z
		"/>
	<path class="st6" d="M181.2,191.3c-0.4,0.2-0.9,0.4-1.3,0.6c-0.1-0.1-0.2-0.3-0.3-0.4c0.4-0.3,0.8-0.5,1.1-0.8
		C180.9,190.9,181.1,191.1,181.2,191.3z"/>
	<path class="st9" d="M14.3,189.8c0.5,0.3,1,0.6,1.5,0.9C15.2,190.4,14.7,190.1,14.3,189.8z"/>
	<path class="st6" d="M184.2,189.3c-0.4,0.3-0.8,0.5-1.2,0.8c-0.1-0.2-0.3-0.3-0.4-0.5c0.4-0.3,0.7-0.6,1.1-0.9
		C183.9,188.9,184.1,189.1,184.2,189.3z"/>
	<path class="st9" d="M12.8,188.8c0.4,0.3,0.8,0.5,1.1,0.8C13.6,189.3,13.2,189,12.8,188.8z"/>
	<path class="st9" d="M11.7,187.8c0.3,0.3,0.7,0.6,1,0.9C12.4,188.4,12,188.1,11.7,187.8z"/>
	<path class="st9" d="M10.9,187.5c0.1-0.3,0.3-0.5,0.4-0.8c0.1,0.4,0.3,0.7,0.4,1.1c0,0-0.5,0.1-0.5,0.1L10.9,187.5z"/>
	<path class="st5" d="M9.3,186.2c-0.3-0.4-0.6-0.7-0.9-1.1c0.2-0.2,0.4-0.4,0.5-0.6c0.3,0.1,0.6,0.2,0.9,0.1c0,0.3,0.1,0.6,0.2,0.8
		C9.7,185.8,9.5,186,9.3,186.2z"/>
	<path class="st5" d="M8.4,185.1c-0.3-0.4-0.6-0.8-0.8-1.2c0.1-0.1,0.3-0.3,0.4-0.4c0.3,0.4,0.6,0.7,0.9,1.1
		C8.7,184.7,8.6,184.9,8.4,185.1z"/>
	<path class="st5" d="M7.6,183.9c-0.3-0.4-0.6-0.8-0.8-1.2c0.1-0.1,0.3-0.2,0.4-0.4c0.3,0.4,0.6,0.7,0.8,1.1
		C7.9,183.6,7.7,183.8,7.6,183.9z"/>
	<path class="st3" d="M10,185.5c-0.1-0.3-0.2-0.6-0.2-0.8c1.1-1.7,1.9-3.9,3.5-5.1c3.4-2.6,7.2-4.7,10.7-7c-1.5-2.3-2.3-3.6-3.2-4.9
		c1.2,0,2.3,0.1,3.5,0.1c11.4,0,11.1,0.1,9.8-11.4c-0.6-4.8,0.4-9.7,0.6-14.6c0.4,3.5,0.6,7.1,1.1,10.6c0.5,3.7,0.8,7.6,2.1,11.1
		c0.6,1.6,3.7,3.3,5.3,3c1.8-0.4,3.2-2.8,4.6-4.6c0.6-0.8,0.8-2,1.1-3.1c1.7,1.6,3.3,3.1,5,4.7c0.7,0.4,1.4,0.8,2.1,1.2l-0.1-0.1
		c1.2,5.2,6,3.3,9.1,4c5.5,1.3,7.8-1.2,7.8-6.8c0-1.7,0-3.3,0-5c1.8,0,3.6,0,5.4-0.1c2.5,2.7,5,5.4,7.4,8c3.1,1,6.1,2.3,9.2,3
		c5.9,1.3,10.8-1.8,15.9-4.1c0.3,0.1,0.7,0.2,1,0.3c2.7,5.1,7.3,2.3,11.1,2.5c0.6,0,1.3-3.7,2-5.7c1.2,2.2,2.5,4.3,3.6,6.5
		c2.2,4.3,6.1,2.5,9.2,2.3c1.2-0.1,2.1-3.1,3.2-4.8c8,3.5,15.8,4.9,24.2,0.8c1.5-0.7,4.5,1.5,6.7,2.3c1.7,3.1,0.9,5-2.3,6.8
		c-6.7,3.7-13.6,5.4-21.4,5.4c-15.4-0.1-30.8-0.4-46.1-2.9c-5.8-0.9-11.9,0.6-17.8,0.7c-10,0.2-20-0.4-30,0.1
		c-11.9,0.6-23.9,0.9-34.9,6.5c-2.4,1.2-5.5,1-8.2,1.4C10.6,185.7,10.3,185.6,10,185.5z"/>
	<path class="st10" d="M25.9,194.6c-1-0.3-2-0.7-3-1c-0.4-0.3-0.7-0.7-1.1-1c1.4-1.2,2.6-3.4,4.1-3.6c9.3-1.3,18.6-2.9,28-3.2
		c22.1-0.7,44.3-1.3,66.4-0.9c14,0.2,27.9,2.2,42.4,3.5c-0.9,2.4-1.4,3.9-1.9,5.4c-1,0-2,0-3,0c-2.4-1.3-4.8-3.6-7.3-3.9
		c-7.4-0.8-14.9-1.1-22.3-1.1c-27.8-0.1-55.6-0.1-83.4,0c-3.9,0-7.9,1-11.7,2.1c-1.3,0.4-2.2,2.3-3.3,3.6
		C28.5,194.5,27.2,194.6,25.9,194.6z"/>
	<path class="st10" d="M181.8,116.8c2.7,3.6,3.1,7.7,3.1,12.2c0,6.9,0.6,13.9,0.9,20.8c-4,2.2-1.4,5.8-1.8,8.8
		c-0.2,1.6,0.7,3.2,0.7,4.8c0.2,5.4-1.5,6.4-7,4.4c0.4-1.2,0.7-2.3,1.1-3.5c0.6-1.7,1.7-3.4,1.7-5.1c0.2-14.1,0.2-28.2,0.2-42.4
		C181.1,116.8,181.4,116.8,181.8,116.8z"/>
	<path class="st11" d="M178.8,164.2c-0.4,1.2-0.7,2.3-1.1,3.5c-2,0-4,0-6,0c-2.3-0.8-5.2-3-6.7-2.3c-8.4,4.1-16.2,2.7-24.2-0.8
		c-0.1-0.3-0.2-0.6-0.3-0.9c0-0.2,0-0.5,0-0.7c9.7,3.9,18.5,2.5,26-5.5c0.6,1.4,0.9,2.3,1.3,3.2c0.3,0.7,0.5,1.4,0.8,2.1l0,0
		C172,163.3,175.4,163.8,178.8,164.2z"/>
	<path class="st9" d="M157.8,193.8c1,0,2,0,3,0c0.3,0.4,0.7,0.7,1,1.1c-1.6,0.3-3.2,0.8-4.8,0.8c-39.7,0-79.4,0-119.1,0
		c-1.8,0-3.5-0.5-5.3-0.8c1.8-0.1,3.7-0.1,5.5-0.1c38,0,75.9,0,113.9-0.1C153.9,194.7,155.9,194.1,157.8,193.8z"/>
	<path class="st9" d="M183.7,188.7c-0.4,0.3-0.7,0.6-1.1,0.9c-0.6,0.4-1.3,0.7-1.9,1.1c-0.4,0.3-0.8,0.5-1.1,0.8
		c-5,1.1-9.9,2.1-14.9,3.2c1.2-0.9,2.4-2.1,3.8-2.7c5.7-2.5,11.5-4.9,17.3-7.3c0.4,0,0.8-0.1,1.2-0.1c0.2,0.1,0.4,0.1,0.6,0.1
		c-0.1,0.4-0.1,0.7-0.2,1.1c-0.6,0.6-1.2,1.2-1.8,1.8C184.9,187.9,184.3,188.3,183.7,188.7z"/>
	<path class="st3" d="M186.9,184.5c-0.4,0-0.8,0.1-1.2,0.1c1.7-2,3.4-3.9,5.2-5.9c-0.1,0.9-0.3,1.8-0.4,2.7
		c-0.6,0.7-1.1,1.5-1.7,2.2c-0.3,0-0.7,0-1,0C187.5,184,187.2,184.3,186.9,184.5z"/>
	<path class="st12" d="M24.9,98.7c2.3-11.5,4.5-23,6.9-34.5c3.5-16,14.4-24.3,29.6-27.8c10.9-2.6,21.8-5.7,32.8-7.6
		c13.7-2.3,27.5-3.4,41.3-5.1c1.1-0.1,2.1-0.6,3.2-1c4.3,0,8.6,0,13,0c4,0,8,0,12.1,0c1.3,0,2.7,0,4,0c0,0.3,0,0.7,0,1
		c-5.2,6.1-12.9,6.6-19.9,7.8c-10.4,1.8-21,2.3-31.5,3.3c-14.6,1.3-29.2,2.3-43.8,4C63.4,40,54.2,41,47,48.8
		C33.8,63,30.7,80.5,28.8,98.7C27.5,98.7,26.2,98.7,24.9,98.7z"/>
	<path class="st13" d="M181.8,11.8c-0.3,1.3-0.7,2.6-1,4c-3.4,0.1-6.9,0.1-10.3,0.4c-2.3,0.2-4.4,1-6.7,1.6c-0.7,0-1.3,0-2,0
		c-2,0-4,0-6,0c-1.7,0-3.3,0-5,0c-1.3,0-2.7,0-4,0.1c-3.6,0-7.3,0-10.9,0.1c-2.7,0-5.4,0-8-0.1c-7.8-0.3-15.5-0.9-23.3-1
		c-20.7-0.1-41.4-0.2-62.1,0C28.1,16.9,17.2,23.9,8,34.2c-0.9,1-2.2,1.7-3.3,2.6c0-2.7,0.1-5.4,0.1-8.1c0.5-0.2,1.2-0.2,1.3-0.5
		c4.3-8,11.6-12.2,19.7-14.8c5.4-1.8,11.2-2.4,16.8-3.5c1.3,0,2.6,0,3.9,0c1.5,0.7,3,1.8,4.4,1.9c9.8,0.2,19.6,0.1,29.4,0.1
		c1.4,0,2.8-0.6,4.2-0.9c1.3,0,2.6,0,4,0c1.5,0.7,3,1.8,4.4,1.9c9.3,0.2,18.6,0,27.9,0.1c3.6,0,7.2,0.8,10.8,0.7
		c5.9-0.3,11.8-1.5,17.7-1.6C160.3,11.6,171,11.8,181.8,11.8z"/>
	<path class="st8" d="M80.8,26.7c-1,0-2,0-3,0c-11.9,2.1-23.8,4-35.6,6.5c-3.4,0.7-7.6,2.3-9.6,4.9C24.5,48.8,17.1,60,15.7,74
		c-0.5,5.3-1.3,10.5-2,15.7c-0.9,1.3-1.8,2.6-2.7,3.9c-1.1-1.1-2.8-2-3-3.2c-1.3-7.5-2.2-15.2-3.2-22.7c2-1.1,5.2-1.7,5.9-3.3
		c2.8-6.5,5.3-13.2,7-20.1c2.4-9.5,9.2-16.7,18.4-17.5c6.7-0.6,13.6-0.5,20.3-1.1c6.8-0.7,13.6-1.9,20.4-2.9c3-0.3,6-0.7,9-1
		c1-0.3,2-0.7,3-1c4.3,0,8.6,0,13,0c4,0.3,8,0.7,12,1c-0.8,0.7-1.6,1.8-2.4,1.9c-9.5,0.8-19.1,1.4-28.6,2.1
		C82.1,26.1,81.4,26.4,80.8,26.7z"/>
	<path class="st6" d="M85.7,21.8c-3,0.3-6,0.7-9,1c-1.6-0.3-3.1-0.9-4.7-1c-9.8-0.1-19.6-0.1-29.4,0c-14.5,0.1-28.6,10-34,23.5
		c-0.7,1.7-2.6,3-3.9,4.5c0-4.3,0-8.7,0-13c1.1-0.9,2.4-1.6,3.3-2.6c9.2-10.3,20.1-17.3,34.3-17.4c20.7-0.2,41.4-0.1,62.1,0
		c7.8,0.1,15.5,0.6,23.3,1c-0.3,0.7-0.7,1.3-1,2c-3.3,0-6.6,0-9.9,0c-5,0.3-10,0.7-15,1c-4.3,0-8.6,0-13,0
		C87.8,21.1,86.8,21.4,85.7,21.8z"/>
	<path class="st14" d="M4.8,49.7C6.1,48.2,8,47,8.7,45.2c5.4-13.5,19.5-23.4,34-23.5c9.8,0,19.6-0.1,29.4,0c1.6,0,3.1,0.6,4.7,1
		c-6.8,1-13.6,2.3-20.4,2.9c-6.7,0.7-13.5,0.6-20.3,1.1c-9.2,0.8-16,8-18.4,17.5c-1.7,6.9-4.2,13.6-7,20.1c-0.7,1.6-3.9,2.2-5.9,3.3
		C4.8,61.7,4.8,55.7,4.8,49.7z"/>
	<path class="st15" d="M3.7,168.7c0.3-10,0.6-20,0.9-29.9c0.7-3.4,1.4-6.7,2.1-10.1c3.3-1,6.6-2,9.8-3c0,11.7,0,23.4,0,35.1
		c-1.3,0.7-3.3,1.1-3.8,2.2C10.8,166.9,7.7,168.4,3.7,168.7z"/>
	<path class="st16" d="M13.8,89.7c0.7-5.2,1.5-10.5,2-15.7c1.3-14,8.7-25.2,16.9-35.8c2-2.6,6.1-4.2,9.6-4.9
		c11.8-2.5,23.7-4.4,35.6-6.5c-2.6,1-5.1,2.2-7.8,2.9c-8.6,2.3-17.4,4.1-26,6.5c-8.7,2.4-12.5,9.5-15.2,17.2
		C26.1,61,24.4,69,21.7,76.7C20,81.5,19.1,87.1,13.8,89.7z"/>
	<path class="st17" d="M42.8,9.8c-5.6,1.1-11.4,1.7-16.8,3.5C17.8,16,10.5,20.1,6.2,28.2c-0.2,0.3-0.9,0.4-1.3,0.5
		c0-1.3,0-2.6,0.1-4c1.2-2,2.5-4,3.7-6c1.1-1,2.1-2,3.2-2.9c1.7-0.6,3.4-1.1,5.1-1.7c5.3-1.8,10.5-3.7,15.8-5.2
		c2.6-0.7,5.4-0.7,8.1-1.1c0.7,0,1.3,0,2,0C42.7,8.5,42.8,9.1,42.8,9.8z"/>
	<path class="st8" d="M6.8,128.7c-0.7,3.4-1.4,6.7-2.1,10.1c-1-5.1-2.3-10.2-2.8-15.3c-0.6-5.9-0.5-11.9-0.7-17.8
		c1.5,2.6,3.9,5,4.4,7.7C6.5,118.4,6.4,123.6,6.8,128.7z"/>
	<path class="st18" d="M16.6,160.8c0-11.7,0-23.4,0-35.1c-0.2-7.2-0.4-14.5-0.8-21.7c-0.2-3.5,0.6-5.5,4.6-5.1
		c1.5,0.1,3-0.1,4.5-0.2c1.3,0,2.6,0,3.9,0c0.8,0.4,1.6,0.7,2.4,1.1c-2.8,0.1-5.7,0.3-8.5,0.1c-3.6-0.2-5,1.1-5,4.9
		c0.2,11,0.1,22,0.1,32.9c0,7.4,0,14.8,0,22.2c0,1.2-0.1,2.4-0.1,3.6C17.4,162.6,17,161.7,16.6,160.8z"/>
	<path class="st8" d="M135.8,17.9c3.6,0,7.3,0,10.9-0.1c1.3,0.3,2.7,0.6,4,1c0.3,0.3,0.7,0.7,1,1c0,1,0,2,0,2.9c-4.3,0-8.6,0-13,0
		c-1-0.7-2-1.3-3-2C135.8,19.8,135.8,18.8,135.8,17.9z"/>
	<path class="st8" d="M116.8,19.8c3.3,0,6.6,0,9.9,0c0.3,0.7,0.7,1.3,1,2c-3.7,0-7.3,0-11,0C116.8,21.1,116.8,20.4,116.8,19.8z"/>
	<path class="st14" d="M127.8,21.7c-0.3-0.7-0.7-1.3-1-2c0.3-0.7,0.7-1.3,1-2c2.7,0,5.4,0,8,0.1c0,1,0,1.9-0.1,2.9
		C133.1,21.1,130.4,21.4,127.8,21.7z"/>
	<path class="st14" d="M116.8,19.8c0,0.7,0,1.3,0,2c-1,0-2,0-3,0c-4-0.3-8-0.7-12-1C106.8,20.4,111.8,20.1,116.8,19.8z"/>
	<path class="st8" d="M1,101.6C1,92.4,1,83.1,1,73.8C1,83.1,1,92.4,1,101.6z"/>
	<path class="st16" d="M80.8,26.7c0.7-0.3,1.3-0.7,2-1C82.1,26.1,81.4,26.4,80.8,26.7z"/>
	<path class="st19" d="M42.7,7.8c-0.7,0-1.3,0-2,0c-1.6-0.3-3.2-1.1-4.6-0.9c-6.5,0.8-13,1.9-19.5,2.8c5-2,10.1-3.9,15.1-5.9
		c10.7,0,21.4,0,32.1,0.1c0.6,0.3,1.1,0.8,1.7,0.9c18.8,0.7,37.7,1.6,56.5,1.9c12.9,0.2,25.8-0.5,38.7-0.8c-1.1,0.7-2.3,1.8-3.4,1.9
		c-9.6,0.5-19.2,0.9-28.8,1.1c-14.6,0.2-29.2,0.1-43.8,0.1c-1,0-2,0-3,0c-1.6-0.3-3.1-1-4.7-1C65.6,7.7,54.2,7.8,42.7,7.8z"/>
	<path class="st7" d="M160.8,5.8c-12.9,0.3-25.8,1-38.7,0.8c-18.9-0.3-37.7-1.2-56.5-1.9c-0.6,0-1.1-0.6-1.7-0.9
		c31.3,0,62.6,0,93.9,0.1c1.6,0,3.2,1.1,4.7,1.7C161.9,5.7,161.3,5.7,160.8,5.8z"/>
	<path class="st20" d="M160.8,5.8c0.5-0.1,1.1-0.1,1.6-0.2c0.3-0.1,0.5,0,0.8,0.1c0.8,0,1.7,0,2.5,0c2.7,0.3,5.3,0.6,8,1
		c0.4,0,0.7,0.1,1.1,0.1c0.3,0,0.6,0,0.8,0c1.4,1,2.8,1.9,4.2,2.9c-30.4,0.4-60.7,0.7-91.1,1.1c-1.3,0-2.6,0-4,0c0-0.7,0-1.4,0-2
		c14.6,0,29.2,0.1,43.8-0.1c9.6-0.1,19.2-0.6,28.8-1.1C158.5,7.6,159.6,6.4,160.8,5.8z"/>
	<path class="st17" d="M88.7,10.8c30.4-0.4,60.7-0.7,91.1-1.1c0.6,0.7,1.3,1.4,1.9,2.1c-10.7,0-21.4-0.2-32.2,0.1
		c-5.9,0.1-11.8,1.3-17.7,1.6c-3.6,0.2-7.2-0.6-10.8-0.7c-9.3-0.1-18.6,0-27.9-0.1C91.7,12.6,90.2,11.4,88.7,10.8z"/>
	<path class="st6" d="M163.8,17.7c2.2-0.5,4.4-1.3,6.7-1.6c3.4-0.3,6.9-0.3,10.3-0.4c1,0,2,0,3,0c-0.3,1.5-0.2,3.8-1.1,4.2
		c-2.1,1.1-4.6,1.3-6.9,1.8c-0.7,0-1.3,0-2,0c-1-0.3-2-0.7-3-1c-0.3,0-0.7,0-1,0c-0.7-0.6-1.4-1.3-2-1.9c-1.3,0-2.6,0-4,0
		C163.8,18.4,163.8,18.1,163.8,17.7z"/>
	<path class="st8" d="M175.7,21.8c2.3-0.6,4.8-0.8,6.9-1.8c0.9-0.5,0.8-2.8,1.1-4.2c0.8-0.7,1.5-1.4,2.3-2.2c0.7,2.7,1.3,5.4,2,8
		c-0.8,1-1.5,2.1-2.3,3.1C181.8,25.6,177.7,27.3,175.7,21.8z"/>
	<path class="st19" d="M173.8,6.7c-2.7-0.3-5.3-0.6-8-1c0-0.4,0.1-0.8,0.1-1.2C168.5,5.3,171.1,6,173.8,6.7z"/>
	<path class="st7" d="M165.9,4.6c0,0.4-0.1,0.8-0.1,1.2c-0.8,0-1.7,0-2.5,0C164.1,5.3,165,5,165.9,4.6z"/>
	<path class="st19" d="M175.7,6.9c-0.3,0-0.6,0-0.8,0C175.1,6.8,175.4,6.8,175.7,6.9z"/>
	<path class="st21" d="M181.8,116.8c-0.3,0-0.7,0-1,0c-0.3-0.2-0.6-0.5-1-0.7c-4.7-0.1-9.4-0.1-14.1-0.2c-0.3-0.1-0.6-0.2-0.9-0.2
		c-0.7-0.6-1.4-1.2-2.1-1.8c3.5-2.3,7-4.7,10.6-6.9c4.3-2.6,4.3-4,0-7.4c-0.1-0.2,0-0.4,0.3-0.4c0.4-1.2,1.2-2.5,1.2-3.7
		c0.4-10.7,0.6-21.4,1.1-32.1c0.3-6.3,0.9-12.5,1.9-18.7c0.5-3.2,8-5.9,10.1-4.1c2.7,2.1,4.6,11.5,3.2,14.8
		c-0.6,1.5-1.3,3.1-1.3,4.6c-0.4,17.9-0.7,35.8-1.1,53.8C186.4,114.8,184.1,115.8,181.8,116.8z"/>
	<path class="st22" d="M188.7,113.7c0.3-17.9,0.6-35.8,1.1-53.8c0-1.5,0.7-3.1,1.3-4.6c1.4-3.4-0.5-12.7-3.2-14.8
		c-2.2-1.7-9.6,0.9-10.1,4.1c-1,6.2-1.6,12.4-1.9,18.7c-0.5,10.7-0.7,21.4-1.1,32.1c-0.1,1.3-0.8,2.5-1.2,3.7
		c-2.6,0.1-5.2,0.3-7.7,0.4c-0.3-0.9-0.8-1.9-0.8-2.8c0.2-10.2,0-20.4,1-30.5c0.9-9.1,3-18.1,5-27.1c1-4.3,4-7.2,8.9-7.3
		c1.3,1.9,2.5,3.9,4.4,6.9c0.7-3.2,1.1-5,1.5-6.9l0,0c2,0.3,4,0.7,6,1c0.5,1.7,1,3.4,1.5,5c0.3,4,0.5,7.9,0.8,11.9
		c0.2,4.7,0.3,9.4,0.5,14.2c-0.1,1-0.1,1.9-0.2,2.9c-0.2,1.7-0.4,3.3-0.6,5c0.3,5.7,0.6,11.4,0.9,17.1c0,4.6-0.1,9.3-0.1,13.9
		c-0.9,1-2.5,2-2.7,3.1c-0.4,2.9-0.1,5.9-0.1,8.9C190.7,114.4,189.7,114.1,188.7,113.7z"/>
	<path class="st9" d="M194.9,116.7c0.3,13.3,0.5,26.5,0.7,39.8c0,1.7-0.6,3.5-0.9,5.2c-1.3-4-3.7-7.9-3.8-11.9
		c-0.2-11,0.5-22.1,0.8-33.1c0.7,0,1.4,0,2.1,0C194.2,116.7,194.6,116.7,194.9,116.7z"/>
	<path class="st23" d="M193.8,116.7c-0.7,0-1.4,0-2.1,0c0-0.7,0-1.3,0-2c0-3-0.2-6,0.1-8.9c0.2-1.1,1.7-2.1,2.7-3.1
		c0.1,1.3,0.2,2.7,0.2,4C194.5,110,194.1,113.4,193.8,116.7z"/>
	<path class="st8" d="M194.7,88.8c-0.3-5.7-0.6-11.4-0.9-17.1c0.5,0.3,1.6,0.6,1.6,0.9C195.2,78,194.9,83.4,194.7,88.8z"/>
	<path class="st8" d="M193.8,116.7c0.3-3.3,0.7-6.7,1-10c0,3.3,0.1,6.7,0.1,10C194.6,116.7,194.2,116.7,193.8,116.7z"/>
	<path class="st19" d="M194.3,66.8c0.1-1,0.1-1.9,0.2-2.9c0.3-0.1,0.7-0.1,1-0.2C195.1,64.7,194.7,65.7,194.3,66.8z"/>
	<path class="st9" d="M16.6,160.8c0.4,0.9,0.8,1.8,1.2,2.7c0.3,0.1,0.7,0.2,1,0.4c0.7,1.3,1.3,2.5,2,3.8c0.8,1.3,1.7,2.6,3.2,4.9
		c-3.6,2.3-7.3,4.4-10.7,7c-1.5,1.2-2.3,3.3-3.5,5.1c-0.3,0-0.6,0-0.9-0.1c-0.3-0.4-0.6-0.7-0.9-1.1c-0.3-0.4-0.6-0.7-0.8-1.1
		c-0.4-0.6-0.7-1.3-1.1-1.9c-0.3-0.7-0.7-1.3-1-2c-0.5-3.3-0.9-6.5-1.4-9.8c4-0.4,7.1-1.9,9-5.7C13.3,161.9,15.3,161.5,16.6,160.8z"
		/>
	<path class="st24" d="M157.8,193.8c-1.9,0.3-3.8,0.9-5.8,0.9c-38,0.1-75.9,0-113.9,0.1c-1.8,0-3.7,0.1-5.5,0.1
		c-1-0.1-1.9-0.2-2.9-0.3c1.1-1.2,1.9-3.2,3.3-3.6c3.8-1.1,7.8-2.1,11.7-2.1c27.8-0.2,55.6-0.2,83.4,0c7.5,0,14.9,0.3,22.3,1.1
		C153,190.2,155.3,192.5,157.8,193.8z"/>
	<path class="st20" d="M16.6,9.7c6.5-1,13-2,19.5-2.8c1.5-0.2,3.1,0.6,4.6,0.9c-2.7,0.3-5.5,0.3-8.1,1.1c-5.3,1.5-10.5,3.5-15.8,5.2
		c-1.7,0.6-3.4,1.1-5.1,1.7c0,0,0-0.1,0-0.1c0-0.7,0-1.3,0-2c0.7-0.7,1.3-1.4,2-2C14.7,11,15.7,10.4,16.6,9.7
		C16.7,9.7,16.6,9.7,16.6,9.7z"/>
	<path class="st20" d="M11.8,15.8c-1.1,1-2.1,2-3.2,2.9c0.6-1,1.3-2,1.9-3C10.9,15.7,11.3,15.7,11.8,15.8
		C11.7,15.7,11.8,15.8,11.8,15.8z"/>
	<path class="st19" d="M16.7,9.7c-1,0.7-2,1.4-3,2.1C14.7,11,15.7,10.4,16.7,9.7z"/>
	<path class="st19" d="M11.7,15.7c-0.4,0-0.8,0-1.2,0c0.4-0.6,0.8-1.3,1.2-1.9C11.7,14.4,11.7,15.1,11.7,15.7z"/>
	<path class="st25" d="M191.7,32.7c-2-0.3-4-0.7-6-1c0-2.3,0-4.7,0-7c0.8-1,1.5-2.1,2.3-3.1c1.3,1.7,2.5,3.4,3.8,5.1
		C191.8,28.7,191.8,30.7,191.7,32.7z"/>
	<path class="st19" d="M194,49.7c-0.3-4-0.5-7.9-0.8-11.9c0.2-1.3,0.3-2.7,0.5-4C193.8,39.1,193.9,44.4,194,49.7z"/>
	<path class="st0" d="M186.9,184.5c0.3-0.3,0.6-0.5,0.8-0.8c0,0.3,0,0.6-0.2,0.8C187.3,184.6,187.1,184.6,186.9,184.5z"/>
	<path class="st26" d="M85.6,164.7c-2.5-2.7-5-5.4-7.5-8c-0.4-1.3-0.9-2.7-1.3-4c0-1.3-0.1-2.5-0.1-3.8
		c2.4-10.7,10.4-14.4,19.9-16.1c4-0.7,8.1-1,12.4-1.4c-0.4-1.6-0.7-2.9-1-4.2c4.2,1.7,2.4,4,0.3,6.4c1.1,0.4,2,0.9,2.9,1.1
		c3.3,0.5,8.4-0.4,9.7,1.5c1.7,2.5,0.6,7,0.7,10.6c-4.5-0.2-10.1,1.9-10.9-5.6c0-0.1-0.9-0.2-1.4-0.3c-4.6,0.6-9.4,0.5-13.6,2.1
		c-6.3,2.5-6.8,7.6-2,11.6c2.6,0.7,5.3,1.4,7.9,2.2c-0.7,3.5,1.6,4.1,4.2,4.4c-3.2,1.3-6.3,3.1-9.5,3.7
		C92.9,165.4,89.2,164.8,85.6,164.7z M104.5,134.8c0.3-0.5,0.5-0.8,0.7-1.2c-0.4-0.2-0.8-0.6-1.2-0.5c-0.3,0-0.6,0.6-0.8,0.9
		C103.6,134.2,104,134.4,104.5,134.8z M97.6,134c0,0.2,0.1,0.5,0.1,0.7c0.7-0.1,1.3-0.2,2-0.3c0-0.2,0-0.4-0.1-0.6
		C99,133.9,98.3,133.9,97.6,134z"/>
	<path class="st9" d="M76.8,152.7c0.4,1.3,0.9,2.7,1.3,4c-1.8,0-3.6,0-5.4,0.1c-0.7-1-1.4-2-2.1-3c-2.3-0.4-4.6-0.8-6.9-1.2
		c-2.7-8-2.1-16.2-1.8-24.3c2-0.6,3.4-1.1,4.8-1.5c1.4-0.7,2.8-1.4,4.1-2.1c3.8,0,7.6,0,11.4,0c0.7,2.4,2,2.3,4.1,1.5
		c6-2.4,12.1-3.2,18.5-1.5c0.1,0.3,0.4,0.4,0.7,0.4c0.4,0.2,0.8,0.5,1.2,0.7c0.5,0.5,0.9,0.9,1.4,1.4c0,0,0,0,0,0
		c0.3,1.3,0.6,2.5,1,4.2c-4.3,0.5-8.4,0.7-12.4,1.4c-9.5,1.7-17.6,5.4-19.9,16.1C76.8,150.1,76.8,151.4,76.8,152.7z"/>
	<path class="st9" d="M48.8,158.7c-0.4,1-0.5,2.3-1.1,3.1c-1.4,1.7-2.8,4.2-4.6,4.6c-1.6,0.3-4.7-1.5-5.3-3
		c-1.3-3.5-1.6-7.3-2.1-11.1c-0.5-3.5-0.8-7-1.1-10.6c0-3.7,0-7.3,0-11c0.4-3.3,0.7-6.7,1.1-10c0.9-0.4,2.7-0.9,2.7-1.3
		c-0.3-5.3,3.6-5.2,7.1-5.7c0.1,0.7,0.2,1.4,0.4,2.2c-2,0.4-4,0.8-6.4,1.2c0.2,3.1,0.4,6,0.6,9c0.6,0.6,1.2,1.1,1.7,1.7
		c1,2.6,2.4,5.1,2.8,7.8c0.5,3.4,0,7,0.2,10.4c0.1,1.2,1.1,2.4,1.6,3.6c0.7,2.5,1.5,5,2.2,7.5C48.7,157.7,48.8,158.2,48.8,158.7z"/>
	<path class="st26" d="M48.8,158.7c-0.1-0.5-0.1-1-0.2-1.5c-0.3-5.5-0.5-11-0.8-16.5c3.5-0.5,7-1.1,10.7-1.6
		c0.9,3.8,1.7,7.1,2.5,10.4c0,0-0.1,0.1-0.1,0.1c0.4,0.7,0.7,1.4,1.1,2.1l-0.2-0.1c0.3,0.4,0.6,0.8,0.9,1.2c0.3,0,0.7-0.1,1-0.1
		c2.3,0.4,4.6,0.8,6.9,1.2c0,2-0.3,4-0.1,5.9c0.6,4-1.4,5.5-5,5.5c-3.3,0-6.5-0.4-9.8-0.6c0,0,0.1,0.1,0.1,0.1
		c-0.7-0.4-1.4-0.8-2.1-1.2C52.1,161.9,50.5,160.3,48.8,158.7z"/>
	<path class="st9" d="M140.6,163.7c0.1,0.3,0.2,0.6,0.3,0.9c-1,1.7-2,4.8-3.2,4.8c-3.1,0.2-7,2-9.2-2.3c-1.1-2.2-2.4-4.3-3.6-6.5
		c0-3.6-0.1-7.3-0.1-10.9c-0.3-7-0.7-14-1-21c2.7-4,5.4-2.2,8.1,0c0.1,2.5,0.1,5,0.2,7.4c0,7.7-0.7,15.5,3.8,22.4
		c0.3,0.4,0.6,0.8,0.9,1.1l0.1,0.1c0.3,0.3,0.6,0.6,0.9,0.9l0.1,0.1c0.3,0.3,0.6,0.6,0.9,0.9l0.1,0.1c0.3,0.3,0.7,0.6,1,0.9l0,0
		C140.1,163,140.3,163.4,140.6,163.7z"/>
	<path class="st24" d="M34.7,130.8c0,3.7,0,7.3,0,11c-0.3,4.9-1.2,9.8-0.6,14.6c1.3,11.5,1.6,11.4-9.8,11.4c-1.2,0-2.3,0-3.5-0.1
		c-0.7-1.3-1.3-2.5-2-3.8c4.2,0,8.4,0,13,0c0-5,0-9,0-13.1c0-6.7,0-13.3,0-20c0-3.7,0-7.3,0-11c0.3-6.4,0.6-12.7,0.9-19.1
		c0.4,6.3,0.8,12.7,1.2,19C34.2,123.4,34.4,127.1,34.7,130.8z"/>
	<path class="st11" d="M85.6,164.7c3.6,0.1,7.3,0.7,10.8,0.1c3.3-0.6,6.4-2.4,9.5-3.7c0,0,0-0.1,0-0.1c0.6-0.4,1.1-0.9,1.7-1.3l0,0
		c1,1.3,2,2.6,3,3.9c-5.1,2.2-10,5.4-15.9,4.1C91.7,167,88.7,165.7,85.6,164.7z"/>
	<path class="st24" d="M124.8,149.7c0,3.6,0.1,7.3,0.1,10.9c-0.7,2-1.4,5.7-2,5.7c-3.8-0.2-8.4,2.6-11.1-2.5c0,0-0.1-0.3-0.1-0.3
		c3,0,6,0,9.1,0c0.7-1.1,2-2.2,2-3.3c0.2-7.1,0.2-14.3,0.2-21.5C123.6,142.5,124.2,146.1,124.8,149.7z"/>
	<path class="st24" d="M55.9,164.5c3.3,0.2,6.5,0.6,9.8,0.6c3.5,0,5.5-1.5,5-5.5c-0.3-1.9,0-3.9,0.1-5.9c0.7,1,1.4,2,2.1,3
		c0,1.7,0,3.3,0,5c0,5.7-2.3,8.1-7.8,6.8C61.9,167.8,57.1,169.7,55.9,164.5z"/>
	<path class="st26" d="M110.8,163.6c-1-1.3-2-2.6-3-3.9c0.8-2.4,1.9-2.7,3-0.3c0.6,1.3,0.7,2.8,1,4.2c0,0,0.1,0.3,0.1,0.3
		C111.5,163.8,111.1,163.7,110.8,163.6z"/>
	<path class="st24" d="M53.8,163.4c0.7,0.4,1.4,0.8,2.1,1.2C55.2,164.2,54.5,163.8,53.8,163.4z"/>
	<path class="st26" d="M179.8,116c0.3,0.2,0.6,0.5,1,0.7c-0.1,14.1,0,28.2-0.2,42.4c0,1.7-1.1,3.4-1.7,5.1
		c-3.4-0.5-6.8-0.9-10.1-1.4c10.1-0.3,10.1-0.3,10.1-10.4c0-1.5-0.1-3,0-4.5c0.3-3.2-0.9-4.3-4.2-4.3c-6.9,0-6.9-0.2-6.7-7
		c3.4,0.2,6.8,0.5,10.5,0.7c0.3,1.3,0.6,2.8,0.9,4.3c0.2,0,0.3,0,0.5-0.1c0-8.3,0-16.5,0-24.8C179.7,116.6,179.7,116.3,179.8,116z"
		/>
	<path class="st18" d="M167.8,136.7c-0.1,6.8-0.1,7,6.7,7c3.3,0,4.5,1.2,4.2,4.3c-0.1,1.5,0,3,0,4.5c0,10,0,10-10.1,10.4
		c0,0,0,0,0,0c-0.3-0.7-0.5-1.4-0.8-2.1c-0.4-0.9-0.7-1.8-1.3-3.2c-7.6,7.9-16.3,9.3-26,5.5c-0.2-0.3-0.5-0.4-0.8-0.3c0,0,0,0,0,0
		c-0.3-0.3-0.7-0.6-1-0.9c0,0-0.1-0.1-0.1-0.1c-0.3-0.3-0.6-0.6-0.9-0.9c0,0-0.1-0.1-0.1-0.1c-0.3-0.3-0.6-0.6-0.9-0.9
		c0,0-0.1-0.1-0.1-0.1c-0.3-0.4-0.6-0.8-0.9-1.1c-4.5-6.9-3.8-14.7-3.8-22.4c0-2.5-0.1-5-0.2-7.4c0.1-3.3,0-6.6,0.3-9.9
		c0.1-1,1.1-1.9,1.7-2.8c0,6.2,0,12.4,0,18.6c-0.3,12-0.3,9.9,9.9,10.1c0.3,0,0.7,0,1,0c1.1,3.6,1.1,8,6.2,8.9
		c3.7-0.7,7.3-1.4,11-2.1c0.3-0.2,0.5-0.4,0.8-0.6c0.4-0.4,0.8-0.9,1.2-1.3c0.6-1,1.1-1.9,1.7-2.9c0-0.3-0.1-0.7-0.1-1
		c0-7.6-0.1-15.2-0.1-22.8c0-2.1,0-4.2,0-6.3c0.2-0.2,0.3-0.5,0.3-0.8c4.7,0.1,9.4,0.1,14.1,0.2c-0.1,0.3-0.1,0.5-0.2,0.8
		c-2.6,0-5.3,0.1-7.9-0.1c-3.1-0.2-4.1,1-4,4C167.9,126.1,167.8,131.4,167.8,136.7z"/>
	<path class="st26" d="M167.9,160.7c0.3,0.7,0.5,1.4,0.8,2.1C168.4,162.1,168.2,161.4,167.9,160.7z"/>
	<path class="st3" d="M139.8,162.7c0.3-0.1,0.6,0,0.8,0.3c0,0.2,0,0.5,0,0.7C140.3,163.4,140.1,163,139.8,162.7z"/>
	<path class="st25" d="M33.9,119.7c-0.4-6.3-0.8-12.7-1.2-19c-0.3-0.3-0.7-0.6-1-0.9c-0.2-0.1-0.3-0.1-0.5,0
		c-0.8-0.4-1.6-0.7-2.4-1.1c1.9-18.1,5-35.7,18.2-49.9c7.2-7.8,16.4-8.8,25.6-9.9c14.5-1.7,29.2-2.7,43.8-4
		c10.5-1,21.1-1.5,31.5-3.3c6.9-1.2,14.6-1.7,19.9-7.8c2.7,1,5.3,2,8,3c-4.9,3.3-10.3,6.1-14.4,10.2c-9.4,9.4-18.5,19.2-27.2,29.4
		c-8.9,10.5-17.1,21.7-27.8,30.6c-1.4,1.2-2.1,3.7-2.1,5.7c0,0.7,2.8,2,4.4,2.2c9.1,1.2,18.3,1.9,27.4,3.2c2.7,0.4,5.2,1.9,7.7,2.9
		c-8-0.3-15.9-1-23.9-0.9c-17.5,0.1-34.9,0.5-52.4,1c-3.7,0.1-5-1.1-4.9-4.8c0.1-2.1-1.1-4.2-1.8-6.3l-0.5,0
		c-4.8-0.4-9.5-0.8-14.9-1.2c0,5.7,0,10.5,0,15.2c-3.5,0.5-7.4,0.4-7.1,5.7c0,0.4-1.7,0.9-2.7,1.3C35.1,120.4,34.5,120,33.9,119.7z"
		/>
	<path class="st1" d="M175.8,26.7c-2.7-1-5.3-2-8-3c0-0.3,0-0.7,0-1c0-0.7,0-1.3,0-2c0.7,0,1.3,0,2,0c0.3,0,0.7,0,1,0
		c1,0.3,2,0.7,3,1c0.7,0,1.3,0,2,0c2,5.6,6.1,3.9,10,3c0,2.3,0,4.7,0,7c0,0,0,0,0,0c-2-0.3-4-0.7-6-1
		C178.4,29.4,177.1,28.1,175.8,26.7z"/>
	<path class="st1" d="M151.7,22.7c0-1,0-2,0-2.9c1.3,0,2.7,0,4,0c2,0,4,0,6,0c0.7,0,1.3,0,2,0c0,1,0,2,0,3
		C159.8,22.7,155.7,22.7,151.7,22.7z"/>
	<path class="st8" d="M163.8,22.7c0-1,0-2,0-3c0-0.3,0-0.7,0-1c1.3,0,2.6,0,4,0c0,0.7,0,1.3,0,2c0,0.7,0,1.3,0,2
		C166.4,22.7,165.1,22.7,163.8,22.7z"/>
	<path class="st17" d="M84.7,8.8c0,0.7,0,1.4,0,2c-1.4,0.3-2.8,0.9-4.2,0.9c-9.8,0.1-19.6,0.1-29.4-0.1c-1.5,0-3-1.2-4.4-1.9
		c10,0,19.9,0,29.9-0.1c1.7,0,3.5-0.6,5.2-0.9C82.7,8.8,83.7,8.8,84.7,8.8z"/>
	<path class="st20" d="M81.8,8.8c-1.7,0.3-3.5,0.9-5.2,0.9c-10,0.1-19.9,0.1-29.9,0.1c-1.3,0-2.6,0-3.9,0c0-0.7,0-1.4,0-2.1
		c11.5,0,22.9,0,34.4,0C78.6,7.8,80.2,8.4,81.8,8.8z"/>
	<path class="st8" d="M161.8,19.7c-2,0-4,0-6,0c0-0.7,0-1.3,0-2c2,0,4,0,6,0C161.8,18.4,161.8,19.1,161.8,19.7z"/>
	<path class="st14" d="M155.8,17.8c0,0.7,0,1.3,0,2c-1.3,0-2.7,0-4,0c-0.3-0.3-0.7-0.7-1-1c0-0.3,0-0.7,0-1
		C152.4,17.7,154.1,17.7,155.8,17.8z"/>
	<path class="st6" d="M150.8,17.7c0,0.3,0,0.7,0,1c-1.3-0.3-2.7-0.6-4-1C148.1,17.8,149.4,17.8,150.8,17.7z"/>
	<path class="st14" d="M161.8,19.7c0-0.7,0-1.3,0-2c0.7,0,1.3,0,2,0c0,0.3,0,0.7,0,1c0,0.3,0,0.7,0,1
		C163.1,19.7,162.4,19.7,161.8,19.7z"/>
	<path class="st14" d="M85.7,21.8c1-0.3,2-0.7,3-1C87.8,21.1,86.8,21.4,85.7,21.8z"/>
	<path class="st27" d="M31.8,119.7c0,3.7,0,7.3,0,11c0,6.7,0,13.3,0,20c0,4.1,0,8.2,0,13.1c-4.6,0-8.8,0-13,0
		c-0.3-0.1-0.7-0.2-1-0.4c0-1.2,0.1-2.4,0.1-3.6c11.9-0.6,11.9-0.6,11.8-12.7c0-0.2,0-0.3,0-0.5c0-7.4-0.4-7.9-7.5-6.7
		c-2.7,0.5-3.5-0.4-4.4-2.3c0-11,0.1-22-0.1-32.9c-0.1-3.7,1.3-5.1,5-4.9c2.8,0.2,5.6-0.1,8.5-0.1c0.2-0.1,0.3,0,0.5,0
		C31.7,106.4,31.8,113.1,31.8,119.7z"/>
	<path class="st26" d="M17.9,137.7c0.9,1.9,1.7,2.8,4.4,2.3c7.1-1.2,7.5-0.7,7.5,6.7c0,0.2,0,0.3,0,0.5c0,12.1,0,12.1-11.8,12.7
		C17.9,152.5,17.9,145.1,17.9,137.7z"/>
	<path class="st8" d="M173.8,21.7c-1-0.3-2-0.7-3-1C171.7,21.1,172.7,21.4,173.8,21.7z"/>
	<path class="st14" d="M167.8,20.8c0-0.7,0-1.3,0-2c0.7,0.6,1.4,1.3,2,1.9C169.1,20.7,168.4,20.7,167.8,20.8z"/>
	<path class="st28" d="M60.9,99.7c0.6,2.1,1.8,4.2,1.8,6.3c-0.1,3.7,1.1,4.9,4.9,4.8c17.5-0.5,34.9-0.9,52.4-1
		c8-0.1,15.9,0.6,23.9,0.9c2.3,0.3,4.7,0.7,7,1c4,0.7,7.9,1.4,11.9,2.1c0.7,0.6,1.4,1.2,2.1,1.8c0,0.4,0,0.8,0,1.1
		c0,4.6-0.1,9.2-0.1,13.8c0,4.7-0.1,9.4-0.1,14.1c-0.3-0.6-0.7-1.2-0.8-1.8c-1.1-10.6-3.1-12.5-14.1-13.2c-0.6-2.7-1.2-5.4-1.9-8.1
		c-0.4-1.7-0.8-3.4-1.2-5c-4.3-0.2-8.5-0.4-12.8-0.6c-0.6,0.9-1.6,1.8-1.7,2.8c-0.3,3.3-0.3,6.6-0.3,9.9c-2.7-2.2-5.4-4-8.1,0
		c-0.5,0-0.9,0.1-1.4,0.1c-1.6-5.4-4.3-10.1-9.9-12.3c-11-4.4-21.6-2.9-31.8,2.4c0.7,2.3,1.2,4,1.7,5.8c-3.8,0-7.6,0-11.4,0
		c-0.4-2.8,0.2-6.7-1.5-8.3c-1.6-1.6-5.4-1-8.6-1.3C60.9,109.8,60.9,104.8,60.9,99.7z"/>
	<path class="st27" d="M165.8,99.6c2.6-0.1,5.2-0.3,7.7-0.4c-0.3,0-0.3,0.2-0.3,0.4c-1.3,1.3-2.7,2.5-3.8,3.9
		c-4.6,5.4-9.4,10.3-17.6,8.2C155.7,106.7,156.8,98.7,165.8,99.6z"/>
	<path class="st24" d="M151.8,111.7c8.1,2.1,12.9-2.8,17.6-8.2c1.2-1.4,2.5-2.6,3.8-3.9c4.3,3.4,4.3,4.7,0,7.4
		c-3.6,2.2-7,4.6-10.6,6.9c-4-0.7-7.9-1.4-11.9-2.1C151.1,111.7,151.5,111.7,151.8,111.7z"/>
	<path class="st11" d="M164.8,116.9c0-0.4,0-0.8,0-1.1c0.3,0,0.6,0,0.9,0.2c0,0.3-0.1,0.6-0.3,0.8
		C165.2,116.8,165,116.8,164.8,116.9z"/>
	<path class="st23" d="M151.8,111.7c-0.3,0-0.7,0-1,0.1c-2.3-0.3-4.7-0.7-7-1c-2.6-1-5.1-2.5-7.7-2.9c-9.1-1.2-18.3-2-27.4-3.2
		c-1.6-0.2-4.4-1.4-4.4-2.2c0-1.9,0.7-4.5,2.1-5.7c10.7-8.9,18.9-20.1,27.8-30.6c8.6-10.2,17.7-20,27.2-29.4
		c4.1-4.1,9.6-6.8,14.4-10.2c1.3,1.3,2.7,2.7,4,4c0,0.3,0,0.7,0,1c-4.8,0.2-7.9,3-8.9,7.3c-2,9-4,18-5,27.1c-1,10.1-0.8,20.3-1,30.5
		c0,0.9,0.5,1.9,0.8,2.8C156.8,98.7,155.7,106.7,151.8,111.7z"/>
	<path class="st25" d="M179.7,31.7c0-0.3,0-0.7,0-1c2,0.3,4,0.7,6,1c-0.4,1.8-0.8,3.7-1.5,6.9C182.3,35.6,181,33.7,179.7,31.7z"/>
	<path class="st27" d="M82.3,124.7c-0.5-1.7-1-3.5-1.7-5.8c10.2-5.3,20.8-6.9,31.8-2.4c5.5,2.2,8.2,6.9,9.9,12.3
		c0.2,3.3,0.4,6.6,0.7,10c0,7.2,0,14.3-0.2,21.5c0,1.1-1.3,2.2-2,3.3c0.3-5.6,0.6-11.2,1-16.8c-0.1-3.6,1-8.1-0.7-10.6
		c-1.3-1.8-6.3-1-9.7-1.5c-0.9-0.1-1.8-0.7-2.9-1.1c2.1-2.4,3.9-4.6-0.3-6.4c0,0,0,0,0,0c-0.5-0.5-0.9-0.9-1.4-1.4
		c-0.4-0.2-0.8-0.5-1.2-0.7c-0.2-0.1-0.4-0.2-0.7-0.4c-6.3-1.7-12.5-1-18.5,1.5C84.3,127.1,83,127.1,82.3,124.7z"/>
	<path class="st18" d="M121.7,146.7c-0.3,5.6-0.6,11.2-1,16.8c-3,0-6,0-9.1,0c-0.3-1.4-0.4-2.9-1-4.2c-1.1-2.4-2.2-2.1-3,0.3
		c0,0,0,0,0,0c-0.6,0.4-1.1,0.9-1.7,1.3c0,0,0,0.1,0,0.1c-2.7-0.3-4.9-0.9-4.2-4.4c5.5-3.1,8.8-7.3,7.6-14c0-0.6,0-1.2,0-1.8
		c0.5,0.1,1.4,0.1,1.4,0.3C111.6,148.7,117.3,146.5,121.7,146.7z"/>
	<path class="st9" d="M109.4,142.7c1.2,6.7-2.1,11-7.6,14c-2.6-0.7-5.3-1.4-7.9-2.2c-0.4-7.5,2.4-11.2,9.1-11.9
		C105.1,142.5,107.2,142.7,109.4,142.7z"/>
	<path class="st11" d="M109.4,142.7c-2.1,0-4.3-0.2-6.4,0c-6.7,0.7-9.5,4.4-9.1,11.9c-4.8-4-4.3-9.1,2-11.6c4.2-1.7,9-1.5,13.6-2.1
		C109.4,141.5,109.4,142.1,109.4,142.7z"/>
	<path class="st27" d="M104.5,134.8c-0.5-0.3-0.9-0.6-1.3-0.8c0.3-0.3,0.5-0.9,0.8-0.9c0.4-0.1,0.8,0.3,1.2,0.5
		C105.1,133.9,104.8,134.3,104.5,134.8z"/>
	<path class="st3" d="M76.8,152.7c0-1.3-0.1-2.5-0.1-3.8C76.8,150.1,76.8,151.4,76.8,152.7z"/>
	<path class="st27" d="M97.6,134c0.7-0.1,1.4-0.1,2-0.2c0,0.2,0,0.4,0.1,0.6c-0.7,0.1-1.3,0.2-2,0.3C97.7,134.5,97.7,134.2,97.6,134
		z"/>
	<path class="st27" d="M60.9,99.7c0,5.1,0,10.1,0,15.4c3.2,0.4,7-0.3,8.6,1.3c1.6,1.6,1.1,5.4,1.5,8.3c-1.4,0.7-2.8,1.4-4.1,2.1
		c-1.9,0-3.9,0-5.8,0c0,7.7,0,15.2,0,22.6c-0.8-3.3-1.6-6.7-2.5-10.4c-3.7,0.6-7.2,1.1-10.7,1.6c0-1.9,0.1-3.9-0.1-5.8
		c-0.3-2.9-0.8-5.7-1.3-8.5c-2.1-0.1-4.3-0.2-6.4-0.2c-0.2-2.9-0.4-5.9-0.6-9c2.4-0.5,4.4-0.8,6.4-1.2c0.6-1.2,1.7-2.3,1.8-3.5
		c0.4-3.9-1.1-9.5,1-11.3c2.4-2.1,7.7-1,11.7-1.3C60.4,99.8,60.9,99.7,60.9,99.7z"/>
	<path class="st11" d="M61,149.5c0-7.5,0-14.9,0-22.6c1.9,0,3.8,0,5.8,0c-1.4,0.4-2.8,0.9-4.8,1.5c-0.3,8-0.9,16.2,1.8,24.3
		c-0.3,0-0.7,0.1-1,0.1c-0.3-0.4-0.6-0.8-0.9-1.2c0,0,0.2,0.1,0.2,0.1c-0.4-0.7-0.7-1.4-1.1-2.1L61,149.5z"/>
	<path class="st26" d="M106.7,125.8c0.5,0.5,0.9,0.9,1.4,1.4C107.6,126.7,107.2,126.3,106.7,125.8z"/>
	<path class="st26" d="M104.8,124.7c0.2,0.1,0.4,0.2,0.7,0.4C105.2,125.2,105,125,104.8,124.7z"/>
	<path class="st18" d="M60.4,99.8c-4,0.3-9.4-0.8-11.7,1.3c-2,1.8-0.6,7.4-1,11.3c-0.1,1.2-1.2,2.4-1.8,3.5
		c-0.1-0.7-0.2-1.4-0.4-2.2c0-4.8,0-9.5,0-15.2C50.9,99,55.6,99.4,60.4,99.8z"/>
	<path class="st23" d="M46.5,149.7c-0.6-1.2-1.5-2.4-1.6-3.6c-0.2-3.5,0.3-7-0.2-10.4c-0.4-2.7-1.9-5.2-2.8-7.8
		c1.5-0.2,3-0.3,4.6-0.5c0,0.8,0,1.6,0,2.4c0,4.7,0,9.4,0,14.1C46.4,145.8,46.4,147.7,46.5,149.7z"/>
	<path class="st18" d="M46.5,149.7c-0.1-2-0.1-3.9-0.2-5.9c0-4.7,0-9.4,0-14.1c0-0.8,0-1.6,0-2.4c0-0.3,0.1-0.7,0.1-1
		c0.4,2.8,1,5.7,1.3,8.5c0.2,1.9,0.1,3.9,0.1,5.8c0.3,5.5,0.5,11,0.8,16.5C47.9,154.7,47.2,152.2,46.5,149.7z"/>
	<path class="st3" d="M33.9,119.7c0.6,0.4,1.2,0.7,1.8,1.1c-0.4,3.3-0.7,6.7-1.1,10C34.4,127.1,34.2,123.4,33.9,119.7z"/>
	<path class="st5" d="M46.5,126.3c0,0.3-0.1,0.7-0.1,1c-1.5,0.1-3,0.3-4.6,0.5c-0.6-0.6-1.2-1.1-1.7-1.7
		C42.2,126.2,44.3,126.2,46.5,126.3z"/>
	<path class="st27" d="M60.9,149.6c0.4,0.7,0.7,1.4,1.1,2.1C61.7,151,61.3,150.3,60.9,149.6z"/>
	<path class="st27" d="M61.9,151.5c0.3,0.4,0.6,0.8,0.9,1.2C62.5,152.3,62.2,151.9,61.9,151.5z"/>
	<path class="st3" d="M123,138.8c-0.2-3.3-0.4-6.6-0.7-10c0.5,0,0.9-0.1,1.4-0.1c0.3,7,0.7,14,1,21
		C124.2,146.1,123.6,142.5,123,138.8z"/>
	<path class="st3" d="M135.8,158.6c0.3,0.4,0.6,0.8,0.9,1.1C136.4,159.4,136.1,159,135.8,158.6z"/>
	<path class="st3" d="M136.7,159.8c0.3,0.3,0.6,0.6,0.9,0.9C137.3,160.4,137,160.1,136.7,159.8z"/>
	<path class="st3" d="M137.7,160.9c0.3,0.3,0.6,0.6,0.9,0.9C138.3,161.4,138,161.2,137.7,160.9z"/>
	<path class="st3" d="M138.8,161.8c0.3,0.3,0.7,0.6,1,0.9C139.5,162.4,139.1,162.1,138.8,161.8z"/>
	<path class="st11" d="M31.8,119.7c0-6.7-0.1-13.3-0.1-20c0.3,0.3,0.7,0.6,1,0.9C32.4,107,32.1,113.4,31.8,119.7z"/>
	<path class="st11" d="M31.9,150.7c0-6.7,0-13.3,0-20C31.9,137.4,31.9,144.1,31.9,150.7z"/>
	<path class="st26" d="M106,161.1c0.6-0.4,1.1-0.9,1.7-1.3C107.1,160.2,106.6,160.6,106,161.1z"/>
	<path class="st27" d="M167.8,136.7c0-5.3,0.1-10.6-0.1-15.9c-0.1-3,0.9-4.3,4-4c2.6,0.2,5.3,0.1,7.9,0.1c0,8.3,0,16.5,0,24.8
		c-0.2,0-0.3,0-0.5,0.1c-0.3-1.5-0.6-3-0.9-4.3C174.6,137.1,171.2,136.9,167.8,136.7z"/>
	<path class="st9" d="M149.7,129.7c11,0.7,13,2.6,14.1,13.2c0.1,0.6,0.5,1.2,0.8,1.8c0.1,0.3,0.1,0.7,0.2,1c0,0.3,0,0.7,0,1
		c-0.3,1-0.6,1.9-0.8,2.9c-0.4,0.4-0.8,0.9-1.2,1.3c-0.3,0.2-0.5,0.4-0.8,0.6c-3.7,0.7-7.3,1.4-11,2.1c-0.4-0.8-0.8-1.6-1.2-2.4
		c-0.3-0.5-0.7-1-1-1.5l0,0.1c0-1,0.1-2.1,0.1-3.1c-0.3-0.7-0.6-1.4-0.9-2.1c0-4.3,0-8.6,0-12.9
		C148.5,131.1,149.1,130.4,149.7,129.7z"/>
	<path class="st27" d="M149.7,151.3c0.4,0.8,0.8,1.6,1.2,2.4c-5.1-0.9-5-5.3-6.2-8.9c0.1-9.8,0.1-9.8-9.9-10c-0.3,0-0.7,0-1-0.1
		c0-6.2,0-12.4,0-18.6c4.3,0.2,8.5,0.4,12.8,0.6c0,8.8-0.2,17.6,0,26.3c0.1,2.3,1.3,4.6,2,6.9c0,0,0-0.1,0-0.1
		C149,150.3,149.3,150.8,149.7,151.3z"/>
	<path class="st26" d="M133.9,134.7c0.3,0,0.7,0.1,1,0.1c9.9,0.2,9.9,0.2,9.9,10c-0.3,0-0.7,0-1,0
		C133.6,144.6,133.5,146.6,133.9,134.7z"/>
	<path class="st11" d="M164.8,145.7c-0.1-0.3-0.1-0.7-0.2-1c0-4.7,0.1-9.4,0.1-14.1c0.2-2.6,0.5-5.2,0.7-7.7
		c0,7.6,0.1,15.2,0.1,22.8C165.2,145.8,165,145.8,164.8,145.7z"/>
	<path class="st21" d="M165.4,122.9c-0.2,2.6-0.5,5.2-0.7,7.7c0-4.6,0.1-9.2,0.1-13.8c0.2,0,0.4-0.1,0.6-0.2
		C165.4,118.7,165.4,120.8,165.4,122.9z"/>
	<path class="st11" d="M163.9,149.7c0.3-1,0.6-1.9,0.8-2.9c0.3,0,0.6,0,0.9,0C165,147.7,164.5,148.7,163.9,149.7z"/>
	<path class="st28" d="M165.6,146.8c-0.3,0-0.6,0-0.9,0c0-0.3,0-0.7,0-1c0.2,0,0.5,0,0.7,0C165.5,146.1,165.6,146.4,165.6,146.8z"/>
	<path class="st11" d="M161.9,151.6c0.3-0.2,0.5-0.4,0.8-0.6C162.4,151.2,162.2,151.4,161.9,151.6z"/>
	<path class="st10" d="M148.7,149.9c-0.7-2.3-1.9-4.6-2-6.9c-0.2-8.8,0-17.6,0-26.3c0.4,1.7,0.8,3.4,1.2,5c0,3.4,0,6.7,0,10.1
		c0,4.3,0,8.6,0,12.9c0.3,0.7,0.6,1.4,0.9,2.1C148.7,147.8,148.7,148.8,148.7,149.9z"/>
	<path class="st3" d="M147.9,131.8c0-3.4,0-6.7,0-10.1c0.6,2.7,1.2,5.4,1.9,8C149.1,130.4,148.5,131.1,147.9,131.8z"/>
	<path class="st5" d="M46.4,129.7c0,4.7,0,9.4,0,14.1C46.3,139.1,46.3,134.4,46.4,129.7z"/>
	<path class="st3" d="M148.7,146.7c-0.3-0.7-0.6-1.4-0.9-2.1C148.2,145.4,148.4,146.1,148.7,146.7z"/>
	<path class="st3" d="M149.7,151.3c-0.4-0.5-0.7-1-1.1-1.5C149,150.3,149.3,150.8,149.7,151.3z"/>
</g>
</svg>
