<?xml version="1.0" encoding="utf-8"?>
<!-- Generator: Adobe Illustrator 21.0.0, SVG Export Plug-In . SVG Version: 6.00 Build 0)  -->
<svg version="1.1" id="Camada_1" xmlns="http://www.w3.org/2000/svg" xmlns:xlink="http://www.w3.org/1999/xlink" x="0px" y="0px"
	 viewBox="0 0 250.5 149.2" style="enable-background:new 0 0 250.5 149.2;" xml:space="preserve">
<style type="text/css">
	.st0{fill:#CB0001;}
	.st1{fill:#0066CA;}
	.st2{fill:#FDFDFD;}
	.st3{fill:#FDFCFC;}
	.st4{fill:#282122;}
	.st5{fill:#272122;}
	.st6{fill:#252224;}
	.st7{fill:#0266C9;}
	.st8{fill:#252325;}
	.st9{fill:#FAE8E8;}
	.st10{fill:#FCFDFD;}
	.st11{fill:#FCFCFD;}
	.st12{fill:#232022;}
	.st13{fill:#242123;}
	.st14{fill:#262427;}
	.st15{fill:#222227;}
	.st16{fill:#363333;}
	.st17{fill:#CB0102;}
	.st18{fill:#282223;}
	.st19{fill:#CF1112;}
	.st20{fill:#0668CA;}
	.st21{fill:#F1F1F1;}
</style>
<g>
	<g>
		<path class="st0" d="M169.8,0.2c3.2,0,6.4,0,9.6,0c0.1,0.1,0.3,0.2,0.4,0.2c2.3,0.3,4.6,0.4,6.9,0.8c15.1,2.4,28.3,9,39.4,19.5
			C246,39.5,254,67.6,246.7,94.1c-6,21.9-19.5,37.8-39.8,48c-12.7,6.3-26.3,8-40.2,6.8c-8.7-0.7-16.9-3.3-24.7-7.1
			c-6.3-3.1-12-7-17.2-11.6c1.1-1.2,2.3-2.3,3.4-3.5c1.3-1.4,2.6-2.9,4.1-4.5c-0.6,0-0.9,0-1.2,0c-4.3,0-8.6,0-12.9,0
			c-0.8,0-1.3-0.2-1.7-0.9c-1.1-1.6-2.4-3.2-3.5-4.8c-0.5-0.7-0.9-1.4-1.5-2.2c0.5,0,0.9,0,1.2,0c8.1,0,16.1,0,24.2,0
			c0.7,0,1.1-0.2,1.5-0.8c1.1-2.2,2.3-4.3,3.5-6.4c0.1-0.2,0.1-0.4,0.2-0.7c-0.5,0-0.9,0-1.3,0c-10.9,0-21.8,0-32.7,0
			c-0.6,0-1.1-0.1-1.3-0.8c-0.7-1.9-1.5-3.7-2.2-5.5c-0.2-0.5-0.3-1-0.5-1.6c5.2,0,10.2,0,15.2,0c8.4,0,16.7,0,25.1,0
			c0.7,0,1-0.2,1.2-0.9c0.3-1.3,0.7-2.5,1.1-3.7c0.5-0.6,1.1-1.1,1.6-1.7l0,0c0.1-0.1,0.2-0.2,0.2-0.3c1.8-1.1,3.3-2.6,3.9-4.7
			c1.1-4,0.8-8.3-3.3-10.9c0-1.6,0-3.1,0-4.7c1.7,0,1.7,0,2.1-1.8c0-0.2,0-0.3,0.1-0.5c0.7,0,1.3,0.1,2,0.1c0.4-2.4,0.9-4.7,1.3-7.1
			c-2.2-0.2-4.4-0.4-6.5-0.6c-0.2-1-0.4-1.9-0.6-2.9c-15.2,0-30.4,0-45.8,0c0.7-2.4,1.4-4.6,2-6.9c0.2-0.9,0.6-1.1,1.5-1.1
			c13,0,25.9,0,38.9,0c0.4,0,0.8,0,1.4,0c-1-2.5-1.9-4.8-2.8-7.1c-0.3-0.7-0.7-0.9-1.4-0.9c-11,0-21.9,0-32.9,0
			c-0.3,0-0.7,0-1.2-0.1c1.3-2.4,2.6-4.7,3.9-7c0.4-0.7,0.8-0.9,1.5-0.9c8.1,0,16.1,0,24.2,0c0.3,0,0.7,0,1,0
			c0.1-0.1,0.1-0.2,0.2-0.3c-1.7-2.3-3.5-4.7-5.2-7c-0.3-0.5-0.7-0.6-1.3-0.6c-4.4,0-8.7,0-13.1,0c-0.3,0-0.7,0-1,0
			c0-0.1-0.1-0.2-0.1-0.3c2.5-2.6,5-5.1,7.5-7.7c1.8-1.5,3.6-3.1,5.5-4.5c10.6-7.9,22.4-12.6,35.5-14.2
			C167.1,0.6,168.5,0.4,169.8,0.2z M218.1,91.4c0.1-0.1,0.2-0.2,0.2-0.2c1.3-1.4,2.9-2.6,4-4.2c2.9-4.4,3.5-9.4,2.6-14.5
			c-0.9-4.8-3.7-8.1-8.4-9.8c-5.6-2-15.1-1.3-20.5,5.3c-0.1,0.1-0.2,0.2-0.3,0.2l0,0c-0.3,0.2-0.6,0.4-0.9,0.6
			c-0.6,0.6-1.2,1.3-1.8,1.9c1-2.6,2-5.2,2.9-7.9c-2.5-1.1-5.2-0.8-7.3,0.9c-1.2,0.9-2.2,2-3.2,3l-0.1-0.1c0.2-1.4,0.5-2.7,0.7-4.1
			c-2.9,0-5.6,0-8.4,0c-0.2,0.8-0.3,1.5-0.5,2.2c-1.9,0-1.9,0-2.1,1.4c-1.6,8.6-3.2,17.3-4.8,25.9c-0.2,1.1-0.4,2.1-0.5,3.3
			c2.5,0,4.9,0,7.2,0c2.1,0,2.1,0,2.3-2.1c0.7,0,1.4,0,2.1,0c0.1-0.4,0.2-0.8,0.3-1.1c0.7-3.7,1.3-7.3,2.2-11c0.6-2.4,1.5-4.6,2.3-7
			c1.7-0.8,3.5-1.1,5.3-0.2c-1.5,3.7-1.8,7.4-1.2,11.2c0.8,4.9,3.5,8.4,8.3,10.1c2.5,0.9,5.1,1,7.7,0.9c4-0.2,7.8-1.3,10.9-3.9
			c0.2-0.2,0.4-0.5,0.6-0.8l0,0C217.8,91.5,217.9,91.4,218.1,91.4L218.1,91.4z M166.8,72.2c0.2,0,0.4,0,0.6,0c2.2,0,2.2,0,2.6-2.1
			c0.6,0,1.3-0.1,2-0.1c0.4-2.5,0.9-4.9,1.3-7.5c-1.7,0-3.2,0-4.7,0c0.4-2.4,0.9-4.7,1.3-7c-3.1,0-6.1,0-9.2,0
			c-0.2,0.7-0.3,1.4-0.4,2.1c-0.2,0-0.3,0-0.5,0c-1.6,0-1.4-0.1-1.7,1.3c-1.1,6.2-2.3,12.5-3.4,18.7c-0.7,3.7-1.4,7.3-1.8,11.1
			c-0.4,3.8,1.3,6.6,5.5,7.2c2.3,0.3,4.6,0,6.9-0.5c1.6-0.3,1.6-0.4,1.8-2c0.5-0.1,1.1-0.3,1.6-0.5c0.2-0.1,0.5-0.3,0.5-0.4
			c0.4-2.1,0.8-4.2,1.1-6.2c-1.1,0-2.1,0-3.1,0c-2.1-0.1-2.8-1.1-2.5-3.1C165.4,79.5,166.1,75.9,166.8,72.2z M228.4,90.9
			c0-1.3-1.1-2.4-2.4-2.4c-1.3,0-2.5,1.1-2.5,2.4s1.1,2.4,2.4,2.4C227.3,93.3,228.4,92.2,228.4,90.9z"/>
		<path class="st1" d="M124.7,19.4c-2.5,2.6-5,5.1-7.5,7.7c0,0.1,0.1,0.2,0.1,0.3c0.3,0,0.7,0,1,0c4.4,0,8.7,0,13.1,0
			c0.6,0,1,0.2,1.3,0.6c1.7,2.4,3.4,4.7,5.2,7c-0.1,0.1-0.1,0.2-0.2,0.3c-0.3,0-0.7,0-1,0c-8.1,0-16.1,0-24.2,0
			c-0.8,0-1.2,0.2-1.5,0.9c-1.2,2.3-2.5,4.5-3.9,7c0.6,0,0.9,0.1,1.2,0.1c11,0,21.9,0,32.9,0c0.7,0,1.1,0.2,1.4,0.9
			c0.9,2.3,1.8,4.6,2.8,7.1c-0.6,0-1,0-1.4,0c-13,0-25.9,0-38.9,0c-0.9,0-1.3,0.2-1.5,1.1c-0.6,2.3-1.3,4.5-2,6.9
			c15.4,0,30.5,0,45.8,0c0.2,1,0.4,2,0.6,2.9c-1.1,0-2.3,0-3.4,0c-4.1,0.3-8,1.1-10.8,4.5c-0.1,0.1-0.1,0.1-0.2,0.2l0,0
			c-0.1,0.1-0.1,0.2-0.2,0.2l0,0c-0.3,0.2-0.7,0.4-0.9,0.6c-2.6,2.5-3.1,5.6-2.5,8.9c0.4,2.6,2.2,4.3,4.4,5.5
			c1.7,0.9,3.5,1.7,5.3,2.5c1,0.5,1.7,1.2,1.6,2.4c-2.1,0-4.3,0.2-6.4,0.1c-1.7-0.1-3.3-0.6-5-0.9c-0.2,0.9-0.4,1.7-0.6,2.6
			c-0.6-0.2-1.2-0.3-1.9-0.5c-0.4,2.5-0.8,4.7-1.2,7.1c3.5,0.8,6.9,0.9,10.3,0.9c3.5,0,6.9-0.5,10-2.1c-0.4,1.2-0.8,2.5-1.1,3.7
			c-0.2,0.7-0.5,0.9-1.2,0.9c-8.4,0-16.7,0-25.1,0c-5,0-10,0-15.2,0c0.2,0.6,0.3,1.1,0.5,1.6c0.7,1.8,1.5,3.7,2.2,5.5
			c0.3,0.7,0.7,0.8,1.3,0.8c10.9,0,21.8,0,32.7,0c0.4,0,0.8,0,1.3,0c-0.1,0.3-0.1,0.5-0.2,0.7c-1.2,2.1-2.3,4.3-3.5,6.4
			c-0.3,0.6-0.7,0.8-1.5,0.8c-8.1,0-16.1,0-24.2,0c-0.3,0-0.7,0-1.2,0c0.5,0.8,1,1.6,1.5,2.2c1.2,1.6,2.4,3.2,3.5,4.8
			c0.4,0.6,0.9,0.9,1.7,0.9c4.3,0,8.6,0,12.9,0c0.3,0,0.6,0,1.2,0c-1.5,1.6-2.8,3.1-4.1,4.5c-1.1,1.2-2.3,2.3-3.4,3.5
			c-0.2,0.2-0.5,0.3-0.7,0.5c-16.2,14.2-35.2,19.9-56.4,18.4c-8.9-0.7-17.3-3.1-25.3-7c-12.5-6.1-22.7-15-30.3-26.7
			C5.8,105.6,2,95.1,0.7,83.7c-0.2-1.3-0.4-2.7-0.5-4c0-3.2,0-6.4,0-9.6c0.1-0.2,0.2-0.4,0.2-0.6c0.4-3.1,0.6-6.3,1.3-9.4
			c4.6-21.8,16.6-38.4,35.7-49.9C46,5,55.6,1.9,65.7,0.7c1.4-0.2,2.7-0.4,4.1-0.5c3.2,0,6.4,0,9.6,0c1.4,0.2,2.9,0.4,4.3,0.6
			c12.5,1.5,23.8,5.9,34.1,13.2C120.2,15.6,122.4,17.6,124.7,19.4z M104.4,67.8L104.4,67.8c0,0.1-0.1,0.1-0.2,0.2l0,0
			c-0.1,0.1-0.1,0.3-0.2,0.4l0,0c-0.5,0.4-1.1,0.7-1.5,1.2c-3.5,4.4-4.7,9.5-4.1,14.9c0.7,6.3,4.1,9.7,10.2,11
			c4.4,0.9,8.8,0.6,13.3-0.3c1.3-0.2,2-0.7,2-2.1c0.5-0.1,1-0.2,1.4-0.4c0.3-0.1,0.6-0.4,0.7-0.6c0.5-2.3,1-4.7,1.4-6.9
			c-2.4,0.5-4.9,1.1-7.4,1.5c-2.4,0.3-4.8,0.2-7.1-0.6c-1.6-0.6-2.7-1.6-3-3.4c4.6,0,9.3,0,13.9,0c2.1,0,2.1,0,2.5-2.1
			c0.6,0,1.2-0.1,1.9-0.1c0.7-3,1.4-5.9,1-9c-0.5-4.3-2.8-7.3-6.8-8.8c-3-1.1-6-1.2-9.1-0.6c-3.5,0.8-6.3,2.7-8.6,5.4
			C104.6,67.6,104.5,67.7,104.4,67.8z M71.8,78.9L71.8,78.9c-0.1,0.1-0.1,0.1-0.2,0.2l0,0c-0.3,0.2-0.7,0.3-1,0.6
			c-2.8,2.6-3.7,5.9-3.1,9.6c0.6,3.5,2.7,5.8,6.2,6.5c4,0.8,7.8,0,11-2.6c0.2-0.2,0.5-0.4,0.8-0.6c0,1.1,0,1.9,0,2.9
			c2.5,0,5.1,0,7.6,0c0.1-0.7,0.2-1.4,0.3-2.1c0.7,0,1.5,0,2.2,0c0.2-1.5,0.4-2.9,0.6-4.2c0.9-5.3,1.9-10.5,2.7-15.8
			c1-6.2-1.7-9.9-7.8-11c-4.5-0.8-8.9-0.2-13.2,0.7c-1.3,0.3-2.4,0.6-2.4,2.2c-0.3,0.1-0.5,0.1-0.8,0.2c-1,0-1.5,0.5-1.6,1.5
			c0,0.6-0.2,1.1-0.4,1.7c-0.2,1.2-0.5,2.5-0.7,3.8c0.3,0,0.4,0.1,0.5,0.1c2.1-0.3,4.2-0.8,6.3-1c2.2-0.2,4.5-0.1,6.8,0.1
			c1.1,0.1,2,0.7,2.2,2c-1.8,0.1-3.6,0-5.4,0.2c-4,0.4-7.6,1.7-10.3,4.8C71.9,78.8,71.9,78.8,71.8,78.9z M57.7,73.4
			c0,0.3,0.1,0.5,0,0.8c-0.8,4.3-1.6,8.6-2.5,12.9c-0.5,2.8-1.1,5.6-1.6,8.5c3.1,0,6.1,0,9.1,0c0.2,0,0.4-0.3,0.5-0.5
			c0.1-0.5,0.2-1.1,0.3-1.6c0.3,0,0.7-0.1,1,0c0.7,0.1,1-0.1,1.2-0.9c2-10.3,4-20.5,6-30.8c0.4-2,0.8-4,1.1-6.1
			c-4.2,0-8.3,0.1-12.4,0c-1.9-0.1-3.2,0.2-3.6,2.2c-1.9-0.1-1.9-0.1-2.6,1.6c-2.3,5.2-4.5,10.3-6.8,15.5c-0.4-6.6-0.6-13-0.8-19.5
			c-4.9,0-9.7,0-14.4,0c-0.2,0.7-0.5,1.4-0.7,2.1c-0.4,0.1-0.8,0.2-1.1,0.2c-0.7,0-0.9,0.1-1.1,0.9c-0.5,2.9-1.1,5.9-1.7,8.8
			c-0.7,3.4-1.4,6.8-2,10.2c-0.8,4.4-1.6,8.7-2.5,13.1c-0.3,1.5-0.6,3.1-0.9,4.6c2.9,0,5.7,0,8.5,0c0.2-0.7,0.3-1.4,0.5-2
			c0.4,0,0.8-0.1,1.3,0c0.6,0,0.8-0.2,0.9-0.7c0.6-3.4,1.3-6.9,2-10.3c0.6-3.2,1.3-6.4,1.9-9.6c0.1,2,0.3,4.1,0.4,6.1
			c0.3,5.3,0.6,10.6,0.8,15.9c0,0.7,0.3,0.8,0.9,0.8c1.6,0,3.1,0,4.7,0c2.3,0,2.3,0,3.2-2.1c1.3,0.2,1.8-0.5,2.2-1.6
			c0.8-2.1,1.8-4.2,2.8-6.3C54.1,81.4,55.9,77.4,57.7,73.4z"/>
		<path class="st2" d="M196.1,67.9c5.4-6.6,14.8-7.3,20.5-5.3c4.7,1.7,7.5,4.9,8.4,9.8c0.9,5.1,0.2,10.1-2.6,14.5
			c-1,1.6-2.6,2.8-4,4.2c-0.1,0.1-0.2,0.2-0.2,0.2l0,0c-0.1,0.1-0.3,0.1-0.4,0.2l0,0c-4.3,2.3-8.9,2.9-13.7,2.4
			c-5.7-0.6-9.8-4-11.2-9.3c-0.8-2.9-0.7-5.9-0.2-8.8c0.5-2.8,1.7-5.3,3.2-7.6l0,0C195.9,68.1,196,68,196.1,67.9z M204.8,72.5
			c0,0.1-0.1,0.1-0.1,0.2c-2,3.3-2.7,6.9-1.4,10.6c0.7,2,2.1,3.3,4.4,3.4c1.6,0.1,2.9-0.7,4-1.7c0.1-0.1,0.2-0.2,0.2-0.3l0,0
			c0.2-0.2,0.5-0.3,0.7-0.6c2.9-3.4,3.4-7.4,2.3-11.6c-0.6-2.4-2.9-3.6-5.3-3.2C207.4,69.6,205.9,70.7,204.8,72.5L204.8,72.5z"/>
		<path class="st2" d="M129.5,88.5c0.2-0.8,0.4-1.7,0.6-2.6c1.7,0.3,3.3,0.8,5,0.9c2.1,0.1,4.3,0,6.4-0.1c0.2,0,0.3-0.1,0.5-0.1
			c1-0.3,1.7-1,1.9-2.1c0.1-1.1-0.5-1.8-1.4-2.3c-0.8-0.4-1.7-0.7-2.5-1.1c-1.5-0.8-3.1-1.5-4.5-2.5c-2.3-1.6-3.2-3.9-3.1-6.6
			c0-1.8,0.7-3.4,1.3-5.1l0,0c0.1-0.1,0.1-0.2,0.2-0.2l0,0c0.1-0.1,0.1-0.1,0.2-0.2c2.8-3.4,6.7-4.3,10.8-4.5c1.1-0.1,2.3,0,3.4,0
			c2.2,0.2,4.3,0.4,6.5,0.6c-0.5,2.4-0.9,4.7-1.3,7.1c-0.7,0-1.3-0.1-2-0.1c-1.3-0.1-2.5-0.3-3.8-0.3s-2.5,0.1-3.7,0.4
			c-0.9,0.2-1.7,0.8-1.7,1.9c-0.3,1.3,0.6,1.9,1.6,2.3c1.8,0.9,3.7,1.7,5.5,2.5c4.1,2.6,4.4,6.8,3.3,10.9c-0.6,2.1-2,3.6-3.9,4.7
			c-0.1,0.1-0.2,0.2-0.2,0.3l0,0c-1.1,0.3-2.2,0.8-3.4,1c-4.3,1-8.6,0.6-12.9,0.3c-1.1-0.1-2.2-0.3-3.3-0.5
			C129,91.3,129.2,89.9,129.5,88.5z"/>
		<path class="st3" d="M160.2,57.7c0.1-0.7,0.3-1.4,0.4-2.1c3,0,6.1,0,9.2,0c-0.4,2.3-0.8,4.6-1.3,7c1.6,0,3.1,0,4.7,0
			c-0.5,2.6-0.9,5-1.3,7.5c-0.7,0-1.3,0.1-2,0.1c-0.9,0-1.9,0-2.8,0c-0.1,0.7-0.3,1.4-0.4,2.1c-0.7,3.7-1.4,7.3-2.1,11
			c-0.4,2.1,0.4,3,2.5,3.1c1,0.1,2,0,3.1,0c-0.4,2-0.7,4.1-1.1,6.2c0,0.2-0.3,0.4-0.5,0.4c-0.5,0.2-1.1,0.3-1.6,0.5
			c-1.8,0.1-3.6,0.4-5.3,0.4c-4.3-0.1-6.7-2.7-6.6-6.9c0-1.2,0.2-2.4,0.4-3.6C157,74.8,158.6,66.3,160.2,57.7z"/>
		<path class="st3" d="M185.5,66.8c1.1-1,2.1-2.1,3.2-3c2.1-1.7,4.9-1.9,7.3-0.9c-1,2.6-2,5.2-2.9,7.9c-0.1,0.2-0.2,0.5-0.4,0.7
			c-3.6-0.7-5.5,0-6.7,2.9c-0.8,2.3-1.7,4.6-2.3,7c-0.9,3.6-1.5,7.3-2.2,11c-0.1,0.3-0.2,0.7-0.3,1.1c-0.7,0-1.4,0-2.1,0
			c-2.4,0-4.7,0-7.2,0c0-0.4,0.1-0.7,0.1-1c0.9-5.1,1.9-10.2,2.8-15.3c0.7-4.1,1.5-8.2,2.2-12.3c0.2-0.7,0.3-1.5,0.5-2.2
			c2.8,0,5.5,0,8.4,0C185.8,64,185.6,65.3,185.5,66.8c-0.1,0-0.1,0.1-0.1,0.1S185.4,66.8,185.5,66.8z"/>
		<path class="st4" d="M186,74.3c1.2-2.8,3.1-3.5,6.7-2.9c0.1-0.2,0.2-0.5,0.4-0.7c0.6-0.6,1.2-1.3,1.8-1.9c0.3-0.3,0.6-0.4,0.9-0.6
			c-1.5,2.3-2.8,4.8-3.2,7.6c-0.5,2.9-0.6,5.9,0.2,8.8c1.4,5.3,5.5,8.7,11.2,9.3c4.8,0.5,9.4-0.1,13.7-2.4c-0.2,0.3-0.4,0.6-0.6,0.8
			c-3.2,2.6-6.9,3.6-10.9,3.9c-2.6,0.2-5.2,0-7.7-0.9c-4.8-1.7-7.5-5.1-8.3-10.1c-0.6-3.8-0.2-7.5,1.2-11.2
			C189.5,73.2,187.8,73.5,186,74.3z"/>
		<path class="st5" d="M160.2,57.7c-1.6,8.6-3.1,17.2-4.7,25.8c-0.2,1.2-0.4,2.4-0.4,3.6c-0.1,4.2,2.3,6.8,6.6,6.9
			c1.8,0,3.6-0.3,5.3-0.4c-0.2,1.6-0.2,1.6-1.8,2c-2.3,0.5-4.5,0.8-6.9,0.5c-4.3-0.6-5.9-3.5-5.5-7.2s1.1-7.4,1.8-11.1
			c1.1-6.2,2.3-12.5,3.4-18.7c0.3-1.4,0-1.3,1.7-1.3C159.9,57.7,160,57.7,160.2,57.7z"/>
		<path class="st5" d="M177.2,64.8c-0.7,4.1-1.5,8.2-2.2,12.3c-0.9,5.1-1.9,10.2-2.8,15.3c-0.1,0.3-0.1,0.6-0.1,1c2.4,0,4.8,0,7.2,0
			c-0.2,2.1-0.2,2.1-2.3,2.1c-2.3,0-4.7,0-7.2,0c0.2-1.2,0.4-2.2,0.5-3.3c1.6-8.6,3.2-17.3,4.8-25.9
			C175.4,64.8,175.3,64.8,177.2,64.8z"/>
		<path class="st6" d="M129.5,88.5c-0.2,1.4-0.5,2.9-0.7,4.4c1.1,0.2,2.2,0.4,3.3,0.5c4.3,0.4,8.6,0.7,12.9-0.3
			c1.1-0.3,2.3-0.7,3.4-1c-0.5,0.6-1.1,1.1-1.6,1.7c-3.1,1.6-6.5,2.2-10,2.1c-3.4,0-6.8-0.1-10.3-0.9c0.4-2.3,0.8-4.6,1.2-7.1
			C128.3,88.2,128.9,88.3,129.5,88.5z"/>
		<path class="st7" d="M149.1,76.3c-1.8-0.8-3.7-1.7-5.5-2.5c-1-0.5-1.8-1-1.6-2.3c2.4,0.1,4.7,0.1,7.1,0.2
			C149.1,73.2,149.1,74.8,149.1,76.3z"/>
		<path class="st8" d="M149.1,71.7c-2.4-0.1-4.7-0.1-7.1-0.2c0-1.2,0.8-1.7,1.7-1.9c1.2-0.2,2.5-0.4,3.7-0.4c1.3,0,2.5,0.2,3.8,0.3
			c0,0.2,0,0.3-0.1,0.5C150.9,71.7,150.9,71.7,149.1,71.7z"/>
		<path class="st9" d="M228.4,90.9c0,1.3-1.1,2.4-2.4,2.4c-1.3,0-2.4-1.2-2.4-2.4c0-1.3,1.2-2.4,2.5-2.4
			C227.4,88.5,228.5,89.6,228.4,90.9z M226,92.7c0.9,0,1.8-0.9,1.8-1.9S226.9,89,226,89c-1,0-1.8,0.9-1.8,1.8
			C224.1,91.8,225,92.8,226,92.7z"/>
		<path class="st5" d="M166.8,72.2c0.1-0.7,0.2-1.4,0.4-2.1c1,0,1.9,0,2.8,0c-0.4,2.1-0.4,2.1-2.6,2.1
			C167.2,72.2,167,72.2,166.8,72.2z"/>
		<path class="st4" d="M217.7,91.6c0.1-0.1,0.3-0.1,0.4-0.2C217.9,91.4,217.8,91.5,217.7,91.6z"/>
		<path class="st4" d="M196.1,67.9c-0.1,0.1-0.2,0.2-0.3,0.2C195.9,68.1,196,68,196.1,67.9z"/>
		<path class="st4" d="M218.1,91.4c0.1-0.1,0.2-0.2,0.2-0.2C218.2,91.3,218.1,91.3,218.1,91.4z"/>
		<path class="st6" d="M148.3,92.2c0.1-0.1,0.2-0.2,0.2-0.3C148.5,92,148.4,92.1,148.3,92.2z"/>
		<path class="st10" d="M37.4,72.7c-0.6,3.2-1.3,6.4-1.9,9.6c-0.7,3.4-1.3,6.9-2,10.3c-0.1,0.6-0.3,0.8-0.9,0.7c-0.4,0-0.8,0-1.3,0
			c-2.1,0-4.2,0-6.5,0c0.2-1.2,0.5-2.3,0.7-3.4c0.6-2.9,1.1-5.9,1.7-8.9c0.5-2.5,1-5,1.4-7.5c0.7-3.7,1.4-7.3,2.1-11
			c0.3-1.7,0.5-3.4,0.8-5.1c0.2-0.7,0.5-1.4,0.7-2.1c4.7,0,9.5,0,14.4,0c0.2,6.5,0.4,12.9,0.6,19.3c0,1.2,0,2.4,0,3.6
			c0.1,0,0.2,0,0.3,0c0.9-2,1.8-4.1,2.7-6.1c2.1-4.9,4.3-9.8,6.4-14.7c0.4-2,1.8-2.3,3.6-2.2c4.1,0.2,8.2,0,12.4,0
			c-0.4,2.1-0.8,4.1-1.1,6.1c-2,10.3-4,20.5-6,30.8c-0.2,0.8-0.5,1-1.2,0.9c-0.3,0-0.6,0-1,0c-2.4,0-4.9,0-7.4,0
			c1.8-9.4,3.5-18.6,5.3-27.8c-0.1,0-0.2,0-0.2-0.1c-0.4,1-0.9,1.9-1.3,2.9c-0.7,1.6-1.4,3.3-2,4.9c-1.8,4-3.6,8.1-5.4,12.1
			c-0.9,2.1-1.9,4.2-2.8,6.3c-0.4,1.1-0.9,1.8-2.2,1.6c-2.3,0-4.5,0-6.9,0c-0.5-9.5-1-18.9-1.5-28.3c-0.1,0-0.1,0-0.2,0
			C38.3,67.6,37.8,70.2,37.4,72.7z"/>
		<path class="st10" d="M72,78.7c2.7-3.1,6.3-4.4,10.3-4.8c1.8-0.2,3.6-0.2,5.4-0.2c0.7,0.1,1.4,0.2,2.1,0.3c0.1-0.6,0.2-1,0.3-1.4
			c0.2-1.8-0.3-2.5-2.1-2.9c-3.1-0.8-6.2-0.5-9.3,0c-1.4,0.2-2.8,0.6-4.2,0.9c0.3-1.8,0.6-3.5,0.8-5.1c0-1.6,1-2,2.4-2.2
			c4.4-0.9,8.8-1.5,13.2-0.7c6.1,1.1,8.8,4.8,7.8,11c-0.7,5-1.7,10.3-2.6,15.5c-0.2,1.3-0.4,2.7-0.6,4.2c-0.7,0-1.4,0-2.2,0
			c-1.8,0-3.6,0-5.5,0c0.1-1.1,0.1-2.1,0.2-3.2c-3,3-6.5,3.8-10.3,3.6c-4.6-0.2-7.8-3.5-7.9-8.1c-0.1-2.4,0.6-4.5,1.8-6.6l0,0
			c0.1-0.1,0.1-0.1,0.2-0.2l0,0C71.9,78.8,71.9,78.8,72,78.7z M86.1,85.7L86.1,85.7c2-1.5,2.5-3.7,2.7-6.1c-2.4-0.2-4.6-0.2-6.8,0.5
			c-1.3,0.4-2.4,1.1-2.9,2.5c-0.9,2.6,0.3,4.6,2.8,4.7c1.4,0,2.8-0.3,3.9-1.3C85.9,85.9,86,85.8,86.1,85.7z"/>
		<path class="st11" d="M109.9,82.8c0.3,1.8,1.5,2.8,3,3.4c2.3,0.9,4.7,1,7.1,0.6c2.5-0.4,4.9-1,7.4-1.5c-0.4,2.2-0.9,4.5-1.4,6.9
			c-0.1,0.3-0.4,0.5-0.7,0.6c-0.4,0.2-0.9,0.3-1.4,0.4c-0.2,0-0.5,0-0.7,0.1c-4.1,0.8-8.2,1-12.3,0.1c-5.3-1.1-8.9-4.1-10-9.7
			c-0.6-2.8-0.4-5.7,0.2-8.5c0.5-2.4,1.6-4.6,2.8-6.8l0,0c0.1-0.1,0.1-0.3,0.2-0.4l0,0c0.1-0.1,0.1-0.2,0.2-0.2l0,0
			c0.1-0.1,0.2-0.2,0.3-0.2c2.3-2.7,5.1-4.6,8.6-5.4c3.1-0.7,6.2-0.6,9.1,0.6c4.1,1.5,6.3,4.5,6.8,8.8c0.3,3.1-0.3,6-1,9
			c-0.7,0-1.3,0.1-1.9,0.1c-0.2,0-0.4-0.1-0.6-0.1c-5.1,0-10.3,0-15.4,0c-0.2,0-0.3,0-0.7,0.1C109.8,81.4,109.8,82.1,109.9,82.8z
			 M112,71.5c-0.1,0.1-0.1,0.2-0.2,0.2c-0.4,0.8-0.8,1.7-1.2,2.6c3,0,5.7,0,8.5,0c0.6,0,1.3,0,1.9,0c0-0.8,0-1.5,0-2.1
			c-0.1-1.2-0.7-2.2-1.8-2.8C116.8,68.1,113.4,69,112,71.5L112,71.5z"/>
		<path class="st6" d="M104,68.4c-1.2,2.1-2.3,4.3-2.8,6.8c-0.6,2.8-0.8,5.7-0.2,8.5c1.1,5.5,4.7,8.5,10,9.7
			c4.1,0.9,8.2,0.7,12.3-0.1c0.2,0,0.4-0.1,0.7-0.1c0.1,1.4-0.7,1.8-2,2.1c-4.4,0.9-8.8,1.2-13.3,0.3c-6.2-1.3-9.5-4.8-10.2-11
			c-0.6-5.5,0.6-10.5,4.1-14.9C103,69.1,103.5,68.8,104,68.4z"/>
		<path class="st12" d="M31.6,57.6c-0.3,1.7-0.5,3.4-0.8,5.1c-0.7,3.7-1.4,7.3-2.1,11c-0.5,2.5-1,5-1.4,7.5
			c-0.6,2.9-1.1,5.9-1.7,8.9c-0.2,1.1-0.4,2.1-0.7,3.4c2.3,0,4.4,0,6.5,0c-0.2,0.7-0.3,1.3-0.5,2c-2.8,0-5.6,0-8.5,0
			c0.3-1.6,0.6-3.1,0.9-4.6c0.8-4.4,1.6-8.7,2.5-13.1c0.6-3.4,1.3-6.8,2-10.2c0.6-2.9,1.2-5.9,1.7-8.8c0.1-0.8,0.4-0.9,1.1-0.9
			C30.8,57.8,31.2,57.7,31.6,57.6z"/>
		<path class="st6" d="M71.6,79.1c-1.2,2-1.8,4.2-1.8,6.6c0.1,4.6,3.3,7.9,7.9,8.1C81.5,94,85,93.1,88,90.2
			c-0.1,1.1-0.1,2.1-0.2,3.2c1.9,0,3.7,0,5.5,0c-0.1,0.7-0.2,1.3-0.3,2.1c-2.5,0-5,0-7.6,0c0-0.9,0-1.8,0-2.9
			c-0.3,0.3-0.6,0.4-0.8,0.6c-3.3,2.6-7,3.4-11,2.6c-3.5-0.7-5.6-3-6.2-6.5c-0.6-3.7,0.4-7,3.1-9.6C70.9,79.4,71.3,79.3,71.6,79.1z"
			/>
		<path class="st12" d="M57.7,73.4c0.7-1.6,1.3-3.3,2-4.9c0.4-1,0.9-2,1.3-2.9c0.1,0,0.2,0,0.2,0.1c-1.7,9.2-3.5,18.4-5.3,27.8
			c2.5,0,4.9,0,7.4,0c-0.1,0.5-0.1,1.1-0.3,1.6c-0.1,0.2-0.3,0.5-0.5,0.5c-3,0-6,0-9.1,0c0.6-2.9,1.1-5.7,1.6-8.5
			c0.8-4.3,1.6-8.6,2.5-12.9C57.7,73.9,57.7,73.6,57.7,73.4z"/>
		<path class="st6" d="M133.6,66.8c-0.6,1.6-1.3,3.3-1.3,5.1c-0.1,2.8,0.9,5.1,3.1,6.6c1.4,1,3,1.7,4.5,2.5c0.8,0.4,1.7,0.7,2.5,1.1
			c1,0.5,1.5,1.2,1.4,2.3c-0.1,1.2-0.8,1.8-1.9,2.1c-0.2,0-0.3,0.1-0.5,0.1c0.1-1.2-0.6-1.9-1.6-2.4c-1.8-0.8-3.6-1.6-5.3-2.5
			c-2.2-1.2-4-2.9-4.4-5.5c-0.6-3.3-0.1-6.4,2.5-8.9C132.9,67.2,133.2,67,133.6,66.8z"/>
		<path class="st8" d="M37.4,72.7c0.5-2.5,0.9-5.1,1.4-7.6c0.1,0,0.1,0,0.2,0c0.5,9.4,1,18.8,1.5,28.3c2.4,0,4.6,0,6.9,0
			c-0.9,2.1-0.9,2.1-3.2,2.1c-1.6,0-3.1,0-4.7,0c-0.6,0-0.9-0.1-0.9-0.8c-0.2-5.3-0.5-10.6-0.8-15.9C37.7,76.8,37.5,74.7,37.4,72.7z
			"/>
		<path class="st13" d="M75.3,65.2c-0.3,1.7-0.5,3.3-0.8,5.1c1.5-0.3,2.9-0.7,4.2-0.9c3.1-0.5,6.2-0.7,9.3,0
			c1.8,0.4,2.3,1.2,2.1,2.9c-0.1,0.4-0.2,0.9-0.3,1.4c-0.7-0.1-1.4-0.2-2.1-0.3c-0.2-1.3-1.1-1.9-2.2-2c-2.2-0.2-4.5-0.3-6.8-0.1
			c-2.1,0.1-4.2,0.6-6.3,1c-0.1,0-0.2,0-0.5-0.1c0.2-1.3,0.4-2.5,0.7-3.8c0.1-0.6,0.3-1.1,0.4-1.7c0.1-1,0.6-1.5,1.6-1.5
			C74.8,65.4,75.1,65.3,75.3,65.2z"/>
		<path class="st14" d="M56.6,57.7c-2.1,4.9-4.3,9.8-6.4,14.7c-0.9,2-1.8,4.1-2.7,6.1c-0.1,0-0.2,0-0.3,0c0-1.2,0-2.4,0-3.6
			c2.3-5.2,4.5-10.3,6.8-15.5C54.8,57.6,54.8,57.6,56.6,57.7z"/>
		<path class="st15" d="M109.9,82.8c-0.1-0.7-0.1-1.4-0.2-2.1c0.3,0,0.5-0.1,0.7-0.1c5.1,0,10.3,0,15.4,0c0.2,0,0.4,0,0.6,0.1
			c-0.4,2.1-0.4,2.1-2.5,2.1C119.2,82.8,114.5,82.8,109.9,82.8z"/>
		<path class="st6" d="M104.3,68c-0.1,0.1-0.1,0.3-0.2,0.4C104.1,68.2,104.2,68.1,104.3,68z"/>
		<path class="st6" d="M71.8,78.9c-0.1,0.1-0.1,0.1-0.2,0.2C71.7,79,71.7,79,71.8,78.9z"/>
		<path class="st6" d="M104.4,67.8c-0.1,0.1-0.1,0.2-0.2,0.2C104.3,67.9,104.4,67.9,104.4,67.8z"/>
		<path class="st6" d="M104.7,67.6c-0.1,0.1-0.2,0.2-0.3,0.2C104.5,67.7,104.6,67.6,104.7,67.6z"/>
		<path class="st6" d="M133.7,66.6c-0.1,0.1-0.1,0.2-0.2,0.2C133.6,66.8,133.7,66.7,133.7,66.6z"/>
		<path class="st6" d="M133.9,66.5c-0.1,0.1-0.1,0.1-0.2,0.2C133.8,66.6,133.8,66.5,133.9,66.5z"/>
		<path class="st6" d="M72,78.7c-0.1,0.1-0.1,0.2-0.2,0.2C71.9,78.8,71.9,78.8,72,78.7z"/>
		<path class="st16" d="M239.3,116.3c0-1.3,1.1-2.4,2.4-2.4c1.3,0,2.4,1.1,2.5,2.4c0,1.3-1.1,2.5-2.5,2.5
			C240.4,118.7,239.3,117.6,239.3,116.3z M243.6,116.3c0-1-0.9-1.9-1.9-1.9s-1.8,0.8-1.8,1.8s0.8,1.8,1.7,1.9
			C242.7,118.2,243.6,117.3,243.6,116.3z"/>
		<path class="st17" d="M211.6,84.9c-1.1,1-2.4,1.8-4,1.7c-2.2-0.1-3.7-1.3-4.4-3.4c-1.2-3.7-0.6-7.3,1.4-10.6
			c0-0.1,0.1-0.1,0.1-0.2l0,0c0.3-0.1,0.6-0.2,0.9-0.4c3.3-1.4,6.5,0.1,7.2,3.6c0.2,1.2,0.3,2.4,0.2,3.6c-0.3,1.8-0.8,3.6-1.2,5.4
			l0,0C211.8,84.7,211.7,84.8,211.6,84.9z"/>
		<path class="st18" d="M211.9,84.6c0.4-1.8,1-3.6,1.2-5.4c0.2-1.2,0.1-2.4-0.2-3.6c-0.7-3.5-3.9-5-7.2-3.6
			c-0.3,0.1-0.6,0.2-0.9,0.4c1.1-1.8,2.6-2.9,4.7-3.3c2.4-0.4,4.7,0.8,5.3,3.2c1.1,4.2,0.7,8.2-2.3,11.6
			C212.4,84.3,212.1,84.4,211.9,84.6z"/>
		<path class="st18" d="M211.6,84.9c0.1-0.1,0.2-0.2,0.2-0.3C211.8,84.7,211.7,84.8,211.6,84.9z"/>
		<path class="st18" d="M204.8,72.5c0,0.1-0.1,0.1-0.1,0.2C204.7,72.6,204.8,72.5,204.8,72.5z"/>
		<path class="st0" d="M185.5,66.8l-0.1,0.1C185.3,66.9,185.4,66.8,185.5,66.8C185.4,66.7,185.4,66.8,185.5,66.8z"/>
		<path class="st19" d="M226,92.7c-1,0-1.9-0.9-1.9-1.9c0-0.9,0.9-1.8,1.8-1.8c1,0,1.8,0.8,1.8,1.8C227.8,91.9,227,92.7,226,92.7z
			 M225.3,91.9c0.1,0,0.2,0,0.2,0c0.1-0.3,0.2-0.5,0.3-0.8c0.3,0.4,0.6,0.6,0.8,0.9c0.1-0.4,0-0.6,0-0.9c0.1-1.4,0-1.5-1.3-1.2
			C225.3,90.6,225.3,91.3,225.3,91.9z"/>
		<path class="st7" d="M85.8,86c-1.1,0.9-2.4,1.3-3.9,1.3c-2.5-0.1-3.8-2.1-2.8-4.7c2.5-0.9,5-1.2,7.7-0.8c0,0.3,0,0.6-0.1,0.8
			c-0.2,1-0.4,2.1-0.7,3.1l0,0C86,85.8,85.9,85.9,85.8,86z"/>
		<path class="st14" d="M86.1,85.8c0.2-1,0.4-2.1,0.7-3.1c0-0.2,0-0.4,0.1-0.8c-2.6-0.4-5.2-0.2-7.7,0.8c0.5-1.4,1.6-2.1,2.9-2.5
			c2.2-0.7,4.4-0.7,6.8-0.5C88.5,82,88.1,84.2,86.1,85.8z"/>
		<path class="st14" d="M85.8,86c0.1-0.1,0.2-0.2,0.2-0.3C86,85.8,85.9,85.9,85.8,86z"/>
		<path class="st8" d="M112,71.5c1.4-2.4,4.8-3.4,7.2-2.1c1.1,0.6,1.7,1.6,1.8,2.8c0.1,0.7,0,1.4,0,2.1c-0.6,0-1.3,0-1.9,0
			c-0.3-1.9-1.5-3.2-3.5-3.2C114.4,71.1,113.2,71.3,112,71.5z"/>
		<path class="st20" d="M112,71.5c1.2-0.1,2.4-0.4,3.6-0.4c2,0.1,3.2,1.3,3.5,3.2c-2.7,0-5.5,0-8.5,0c0.5-1,0.8-1.8,1.2-2.6
			C111.9,71.6,112,71.5,112,71.5L112,71.5z"/>
		<path class="st8" d="M112,71.5c-0.1,0.1-0.1,0.2-0.2,0.2C111.9,71.6,112,71.5,112,71.5z"/>
		<path class="st21" d="M243.6,116.3c0,1-0.9,1.8-1.9,1.8s-1.8-0.9-1.7-1.9c0-1,0.8-1.8,1.8-1.8
			C242.8,114.5,243.7,115.4,243.6,116.3z M242.4,117.6c0.1-0.7,0.3-1.1,0.2-1.5c0-0.3-0.3-0.7-0.5-0.8c-0.3-0.1-0.7,0-1,0
			c0,0.7,0,1.4,0,2.1c0.1,0,0.1,0,0.2,0c0.1-0.3,0.2-0.6,0.4-1C241.9,116.8,242.1,117.1,242.4,117.6z"/>
		<path class="st9" d="M225.3,91.9c0-0.7,0-1.3,0-2c1.3-0.3,1.4-0.2,1.3,1.2c0,0.2,0.1,0.5,0,0.9c-0.2-0.3-0.5-0.6-0.8-0.9
			c-0.1,0.3-0.2,0.6-0.3,0.8C225.5,91.9,225.4,91.9,225.3,91.9z"/>
		<path class="st16" d="M242.4,117.6c-0.3-0.5-0.4-0.7-0.7-1.2c-0.2,0.4-0.3,0.7-0.4,1c-0.1,0-0.1,0-0.2,0c0-0.7,0-1.4,0-2.1
			c0.3,0,0.7-0.1,1,0c0.2,0.1,0.5,0.5,0.5,0.8C242.6,116.5,242.5,116.9,242.4,117.6z"/>
	</g>
</g>
</svg>
