<?xml version="1.0" encoding="utf-8"?>
<!-- Generator: Adobe Illustrator 21.0.0, SVG Export Plug-In . SVG Version: 6.00 Build 0)  -->
<svg version="1.1" id="Camada_1" xmlns="http://www.w3.org/2000/svg" xmlns:xlink="http://www.w3.org/1999/xlink" x="0px" y="0px"
	 viewBox="0 0 160.7 102.7" style="enable-background:new 0 0 160.7 102.7;" xml:space="preserve">
<style type="text/css">
	.st0{fill:#242021;}
	.st1{fill:#F2F1F1;}
</style>
<g>
	<path class="st0" d="M80.3,102.7c-24.3,0-48.6,0-72.9,0c-6.3,0-7.4-1.1-7.4-7.2c0-29.5,0-59,0-88.4C0,1.1,1.1,0,6.9,0
		c49,0,97.9,0,146.9,0c5.7,0,6.9,1.2,6.9,7.1c0,29.5,0,59,0,88.4c0,6.1-1.1,7.1-7.4,7.1C129,102.7,104.6,102.7,80.3,102.7z
		 M47.5,33.2c0.3,0.4,0.6,0.8,0.9,1.2c-2.6,6.7-5.8,13.2-7.6,20.2c-0.7,2.7-1.1,5.5-1.4,8.3c-0.2,1.7,0.2,3.4,2,4.2
		c1.8,0.9,3.2-0.2,4.5-1.3c2.5-2.2,4.3-5.1,6.1-7.9c5.3-8,10.7-16,16-24c0.7-1,1.4-2.7,2.9-1.6c1.3,1-0.3,2.1-0.7,3
		c-3.5,7.7-7.4,15.2-10.7,22.9c-2.4,5.6-4.6,11.4-4.4,17.8c0.1,2.1,0.4,4.3,3.2,4.1c2.3-0.1,2.9-2.2,2.7-4.1
		c-0.6-5.4,1.2-10.2,2.9-15c4.7-13.6,11.7-26,18.7-38.6c1.5-2.7,4.9-6.6,1.9-8.9c-3.8-2.9-6.4,1.8-8.7,4.4
		c-8.7,9.9-15.8,21-23.3,31.8c-2,2.9-4.3,5.6-6.4,8.5c2.1-12.9,8.9-23.6,14.2-34.9c0.8-1.8,2.1-3.5,2-5.6c-0.1-3.1-1.6-4.3-4.5-2.8
		c-1.3,0.7-2.5,1.8-3.4,2.9C39,36.5,25.4,56.2,16.9,78.9c-0.5,1.4-1.6,3,0.4,3.9c1.6,0.7,2.8-0.7,3.7-1.9c0.6-0.8,1.1-1.7,1.5-2.6
		C27.3,67.2,33.6,56.8,39.3,46C41.7,41.5,43.8,36.8,47.5,33.2z M84.9,59.4c0.1-4-1.8-5.5-5.7-4.3c-6,1.8-13.5,13.6-12.6,20
		c0.4,3.1,2.4,5.4,5.4,3.8c3.3-1.8,5.6-2.7,8,1c0.6,1,2.3,1.4,3.5,0.2c0.9-0.9,0.6-1.9-0.4-2.5c-3.8-2.2-2.2-5.3-1.5-8.4
		C82.4,65.9,85.6,63.4,84.9,59.4z M114.4,58.5c-0.4,1.9-1.7,2.1-2.7,2.9c-1.4,1.1-5.3,0.3-4.1,2.9c0.9,2,4.1,0.6,6.2-0.3
		c1.5-0.7,2.9-1.7,3.7-3.2c0.9-1.6,1.8-3.3,0.7-5.1c-1-1.7-2.7-1.7-4.4-1.7c-4.6,0.1-8.5,1.7-11.2,5.6c-2.7,4-0.7,7.5,1.7,11
		c1,1.5,2.2,3.3,0.6,5c-1.1,1.1-2.9,1.1-4.1,0.5c-1.9-0.9-1.9-2.8-1.8-4.8c0.1-1.3,1.8-2.6,0.2-4c-3.7,2.5-4.8,7.3-2.3,10.5
		c2.3,3,7.3,3.4,10.3,0.8c3.5-3.1,2.5-6.6,0.2-9.8c-1.9-2.6-3.3-5-1.2-8.1C108.2,57.6,111,57.6,114.4,58.5z M144.1,35
		c0.3-2.4-0.1-3.3-1.2-3.5c-1.1-0.2-1.8,0.7-2.3,1.6c-6.6,11.5-13.1,23.1-19.7,34.6c-0.8,1.5-1.6,3.3,0.3,4.3c1.9,1,2.5-0.9,3.2-2.2
		c6.1-10.5,12.1-21,18.1-31.5C143.4,37,143.9,35.4,144.1,35z M85.8,76.8c-0.3,1.2-0.3,2.5,1,3c1.4,0.6,2.1-0.6,2.4-1.7
		c1.8-6.8,5.1-12.9,9-18.7c0.5-0.8,1.2-1.8,0.1-2.6c-1.1-0.9-1.9,0.1-2.4,0.8C91.2,63.3,88.2,69.9,85.8,76.8z M116.8,83.9
		c2.4-1,3.1-3.2,3.3-5.6c0.1-1.3-0.7-2.5-2.1-2c-2.4,0.8-2.9,3.1-3.1,5.2C114.6,82.7,115.1,83.9,116.8,83.9z M106.3,44.7
		c0-1.4-0.6-2.5-2-2.2c-2.5,0.6-3.7,2.6-4.1,5c-0.2,1.2,0.6,2,1.7,1.8C104.5,48.9,105.6,46.9,106.3,44.7z"/>
	<path class="st1" d="M47.5,33.2c-3.8,3.6-5.9,8.4-8.2,12.9c-5.7,10.7-11.9,21.1-16.8,32.3c-0.4,0.9-0.9,1.8-1.5,2.6
		c-0.9,1.2-2.1,2.6-3.7,1.9c-2-0.9-0.9-2.5-0.4-3.9C25.4,56.2,39,36.5,54.4,18c0.9-1.1,2.1-2.2,3.4-2.9c2.9-1.6,4.5-0.3,4.5,2.8
		c0,2-1.2,3.8-2,5.6c-5.2,11.3-12,22-14.2,34.9c2.1-2.8,4.4-5.6,6.4-8.5C60.1,39.1,67.1,28,75.9,18.1c2.3-2.6,4.9-7.3,8.7-4.4
		c3,2.3-0.4,6.2-1.9,8.9c-7,12.5-14,25-18.7,38.6c-1.7,4.9-3.6,9.7-2.9,15c0.2,1.9-0.4,3.9-2.7,4.1c-2.7,0.2-3.1-2.1-3.2-4.1
		c-0.3-6.3,1.9-12.2,4.4-17.8c3.3-7.7,7.2-15.2,10.7-22.9c0.4-0.9,2-2,0.7-3c-1.5-1.1-2.2,0.6-2.9,1.6c-5.4,8-10.7,16-16,24
		c-1.8,2.8-3.6,5.6-6.1,7.9c-1.3,1.1-2.7,2.2-4.5,1.3c-1.8-0.8-2.2-2.6-2-4.2c0.3-2.8,0.7-5.6,1.4-8.3c1.8-7,5-13.5,7.6-20.2
		c0.8-0.4,1.5-0.9,0.8-1.7C48.5,31.7,48,32.5,47.5,33.2z"/>
	<path class="st1" d="M84.9,59.4c0.7,4-2.5,6.5-3.2,9.9c-0.7,3-2.3,6.1,1.5,8.4c1,0.6,1.3,1.5,0.4,2.5c-1.2,1.2-2.9,0.8-3.5-0.2
		c-2.4-3.8-4.7-2.8-8-1c-3,1.6-4.9-0.7-5.4-3.8c-0.9-6.3,6.6-18.1,12.6-20C83.1,53.9,84.9,55.3,84.9,59.4z M72,74.8
		c1.4-0.3,2.4-1.3,3-2.4c2-3.4,4-6.9,5.8-10.4c0.5-0.9,2-1.7,0.5-2.9c-1.1-0.8-2.3-0.5-3.2,0.3c-4.1,3.4-6.6,7.8-7.5,13
		C70.4,73.6,70.7,74.5,72,74.8z"/>
	<path class="st1" d="M114.4,58.5c-3.4-0.9-6.2-0.9-8.2,2.1c-2,3.1-0.6,5.5,1.2,8.1c2.3,3.2,3.3,6.7-0.2,9.8c-3,2.6-8,2.2-10.3-0.8
		c-2.4-3.2-1.4-8.1,2.3-10.5c1.7,1.4-0.1,2.7-0.2,4c-0.1,1.9-0.1,3.8,1.8,4.8c1.3,0.6,3.1,0.7,4.1-0.5c1.6-1.7,0.5-3.5-0.6-5
		c-2.4-3.4-4.5-6.9-1.7-11c2.6-3.8,6.6-5.4,11.2-5.6c1.7,0,3.4,0,4.4,1.7c1.1,1.9,0.2,3.5-0.7,5.1c-0.8,1.5-2.2,2.5-3.7,3.2
		c-2.1,0.9-5.3,2.3-6.2,0.3c-1.1-2.6,2.7-1.8,4.1-2.9C112.7,60.6,114,60.4,114.4,58.5z"/>
	<path class="st1" d="M144.1,35c-0.2,0.4-0.7,2-1.5,3.4c-6,10.5-12.1,21-18.1,31.5c-0.7,1.2-1.3,3.2-3.2,2.2c-2-1-1.2-2.9-0.3-4.3
		c6.5-11.6,13.1-23.1,19.7-34.6c0.5-0.9,1.2-1.8,2.3-1.6C144,31.7,144.4,32.6,144.1,35z"/>
	<path class="st1" d="M85.8,76.8c2.4-6.9,5.4-13.5,10.1-19.2c0.6-0.7,1.3-1.7,2.4-0.8c1.1,0.8,0.4,1.8-0.1,2.6
		c-3.8,5.8-7.2,11.9-9,18.7c-0.3,1.2-1,2.3-2.4,1.7C85.5,79.3,85.4,78.1,85.8,76.8z"/>
	<path class="st1" d="M116.8,83.9c-1.7,0-2.1-1.2-2-2.4c0.3-2.1,0.7-4.4,3.1-5.2c1.4-0.4,2.2,0.7,2.1,2
		C119.9,80.8,119.2,82.9,116.8,83.9z"/>
	<path class="st1" d="M106.3,44.7c-0.8,2.2-1.9,4.2-4.5,4.6c-1.1,0.2-1.9-0.7-1.7-1.8c0.4-2.4,1.7-4.4,4.1-5
		C105.7,42.2,106.3,43.3,106.3,44.7z"/>
	<path class="st0" d="M47.5,33.2c0.4-0.7,0.9-1.5,1.7-0.5c0.7,0.8,0,1.4-0.8,1.7C48.1,34,47.8,33.6,47.5,33.2z"/>
	<path class="st0" d="M72,74.8c-1.2-0.3-1.5-1.3-1.4-2.3c0.8-5.3,3.3-9.7,7.5-13c0.9-0.8,2.2-1.1,3.2-0.3c1.6,1.1,0,2-0.5,2.9
		c-1.9,3.5-3.8,7-5.8,10.4C74.3,73.6,73.4,74.6,72,74.8z"/>
</g>
</svg>
