<?xml version="1.0" encoding="utf-8"?>
<!-- Generator: Adobe Illustrator 21.0.0, SVG Export Plug-In . SVG Version: 6.00 Build 0)  -->
<svg version="1.1" id="Camada_1" xmlns="http://www.w3.org/2000/svg" xmlns:xlink="http://www.w3.org/1999/xlink" x="0px" y="0px"
	 viewBox="0 0 250 149.7" style="enable-background:new 0 0 250 149.7;" xml:space="preserve">
<style type="text/css">
	.st0{fill:#CB0000;}
	.st1{fill:#FE9800;}
	.st2{fill:#FBB84F;}
	.st3{fill:#FDFDFD;}
	.st4{fill:#030366;}
	.st5{fill:#030266;}
	.st6{fill:#040266;}
	.st7{fill:#040367;}
	.st8{fill:#010066;}
	.st9{fill:#050467;}
	.st10{fill:#040366;}
	.st11{fill:#050568;}
	.st12{fill:#FEF6EA;}
	.st13{fill:#CB0202;}
	.st14{fill:#CA0102;}
	.st15{fill:#FD9801;}
	.st16{fill:#FB9803;}
	.st17{fill:#FE9D0A;}
</style>
<g>
	<path class="st0" d="M125,130.4c-1.5,1.3-3.1,2.6-4.6,3.8c-7.7,6-16.3,10.2-25.7,12.8c-8.7,2.4-17.5,3.2-26.4,2.4
		c-13.9-1.3-26.5-6-37.7-14.3C17.9,125.7,9,113.6,3.9,98.6C1.1,90.3-0.3,81.8,0,73c0.7-21.5,9.1-39.5,25-53.9
		c8.7-7.9,18.7-13.3,30-16.4c7.7-2.1,15.5-3,23.4-2.6C96,1,111.4,7.4,124.6,19c0.1,0.1,0.3,0.2,0.5,0.3c-0.1,0.2-0.2,0.4-0.4,0.6
		c-1.9,1.8-3.7,3.7-5.6,5.5c-0.5,0.5-0.9,1-1.4,1.6c0.4,0,0.6,0,0.9,0c4.4,0,8.8,0,13.2,0c0.4,0,0.7,0.1,0.9,0.4
		c1.6,2.3,3.3,4.5,4.9,6.7c0.2,0.2,0.3,0.5,0.5,0.8c-0.4,0-0.6,0-0.9,0c-8.3,0-16.5,0-24.8,0c-0.5,0-0.8,0.1-1,0.6
		c-0.6,1.1-1.2,2.1-1.8,3.1c-0.7,1.4-1.4,2.8-2.2,4.3c0.4,0,0.6,0,0.9,0c11.2,0,22.4,0,33.6,0c0.4,0,0.7,0,0.8,0.4
		c0.9,2.3,1.9,4.6,2.8,7c0.1,0.2,0.1,0.3,0.1,0.6c-0.4,0-0.6,0-0.9,0c-13.2,0-26.5,0-39.8,0c-0.5,0-0.8,0.1-0.9,0.7
		c-0.3,1-0.6,2-0.9,3c-0.4,1.4-0.7,2.7-1.1,4.2c15.3,0,30.5,0,45.8,0c0.3,1.5,0.5,2.9,0.7,4.3c-1.5-0.2-3-0.1-4.3,0.9
		c-1,0.9-1.9,1.9-2.8,2.9c-0.1,0.2-0.3,0.3-0.4,0.5c0,0-0.1-0.1-0.1-0.1c0.2-1.3,0.4-2.6,0.6-3.9c-2.5,0-4.9,0-7.4,0
		c-0.2,0.8-0.3,1.6-0.4,2.4c-0.5,0-1.1,0-1.6,0c-1.7,10.3-3.3,20.6-5,30.9c2.7,0,5.3,0,7.8,0c0.1,0,0.4-0.2,0.4-0.4
		c0.2-0.7,0.2-1.3,0.3-2c0.6,0,1.1,0,1.7,0c0.7-4.3,1.3-8.4,2.1-12.6c0.3-1.9,0.9-3.7,1.4-5.6c1.1-1,2.3-1.3,3.7-1
		c0.4,0.1,0.5,0.3,0.5,0.7c-0.1,1.6-0.2,3.2-0.3,4.8c-0.1,3.9,0.7,7.7,2.9,11c-0.6,2.1-1.2,4.1-1.7,6.2c-0.2,0.6-0.4,0.8-1.1,0.8
		c-13.2,0-26.4,0-39.6,0c-0.3,0-0.5,0-0.9,0c0.1,0.3,0.1,0.5,0.2,0.7c0.8,2.1,1.7,4.3,2.5,6.4c0.2,0.5,0.5,0.7,1.1,0.7
		c11.2,0,22.4,0,33.6,0c0.2,0,0.5,0,0.9,0c-1.4,2.6-2.8,5-4.1,7.4c-0.2,0.4-0.5,0.6-1.1,0.6c-8.3,0-16.6,0-24.9,0
		c-0.2,0-0.5,0-0.8,0c0.1,0.2,0.2,0.3,0.2,0.4c1.6,2.2,3.2,4.4,4.8,6.7c0.3,0.5,0.7,0.6,1.3,0.6c4.6,0,9.2,0,13.7,0
		c0.2,0,0.4,0,0.8,0c-1,1.2-1.9,2.2-2.9,3.2C128.3,127.1,126.7,128.7,125,130.4z M107.5,69L107.5,69c0,0.1-0.1,0.2-0.1,0.3l0,0
		c-0.2,0.1-0.4,0.2-0.5,0.4c-1.2,1.4-2.2,3-2.9,4.8c-1.7,4.1-2.2,8.3-1.5,12.7c-1,0-2,0.2-3,0.1c-1.3-0.1-1.8-1-1.7-2.2
		c0.1-0.6,0.2-1.2,0.3-1.7c0.5-3.2,1.1-6.4,1.6-9.7c0.8,0,1.7,0,2.5,0c0.4,0,0.6-0.1,0.6-0.5c0-0.7,0.1-1.4,0.2-2.1
		c0.4,0,0.8,0,1.3,0c0.3-2.5,0.7-5,1-7.5c-1.3,0-2.6,0-4,0c0.3-1.6,0.5-3.1,0.8-4.6c-2.6,0-5.3,0-8,0c-0.2,0.8-0.3,1.6-0.5,2.4
		c-0.3,0-0.6,0-0.8,0c-0.6-0.1-0.8,0.2-0.9,0.8C90.9,67.5,90,72.9,89,78.3c-0.3,1.5-0.5,3-0.7,4.5c-0.1-0.2-0.1-0.4-0.1-0.6
		c-0.4-1.9-1.3-3.6-2.9-4.7c-1-0.7-2.1-1.2-3.1-1.8c-0.8-0.4-1.6-0.8-2.4-1.3c-0.6-0.4-0.9-1-0.9-1.7c2.5,0,5.1,0,7.7,0
		c0.1-0.7,0.2-1.5,0.4-2.3c0.6,0,1.1,0,1.7,0c0.3-2.3,0.7-4.6,1-6.9c-0.2-0.1-0.3-0.1-0.4-0.1c-3.1-0.5-6.2-0.7-9.3-0.4
		c-3.5,0.4-6.4,1.7-8.3,4.8c0,0-0.1,0.1-0.1,0.1l0,0c-0.3,0.2-0.6,0.4-0.8,0.7c-0.7,1.1-1.3,2.1-1.9,3.2c0-0.3-0.1-0.6-0.1-0.9
		c-0.3-2.7-1.4-5-3.8-6.5c-1.3-0.8-2.8-1.3-4.3-1.5c-3.6-0.4-7,0-10.5,0.9c-1.4,0.4-2.3,0.9-2.2,2.4c0,0,0,0,0,0.1
		c-0.4,0.1-0.9,0.2-1.3,0.4c-0.2,0.1-0.5,0.4-0.5,0.6c-0.3,1.5-0.5,2.9-0.8,4.4c-0.1,0.6-0.2,1.3-0.3,1.9c1.1-0.3,2.1-0.6,3.2-0.8
		c1.1-0.2,2.1-0.4,3.2-0.4c1.8,0,3.7,0,5.5,0.2c1,0.1,1.7,0.7,1.9,1.8c-1.5,0.1-3,0-4.5,0.2c-3.8,0.5-7.1,1.8-9.4,5
		c-1.3,0.9-2.2,2.1-2.8,3.6c-1.1,2.4-1.3,4.9-0.9,7.5c0.6,3.5,2.7,5.9,6.1,6.3c3.4,0.5,6.4-0.4,8.9-2.9c0.2-0.2,0.3-0.3,0.5-0.5
		c0,1,0,1.9,0,2.8c2.3,0,4.6,0,7,0c0.1-0.8,0.2-1.6,0.3-2.3c0.5,0,1.1,0,1.6,0c0,0.3-0.1,0.5-0.1,0.7c-0.2,1.2-0.2,1.2,1,1.4
		c3.4,0.7,6.8,0.7,10.3,0.6c2.2-0.1,4.3-0.7,6.1-2.1c0.8-0.6,1.6-1.2,1.9-2.2v0c0-0.1,0.1-0.1,0.1-0.2c1.1-0.8,1.9-1.8,2.5-3
		c0,0.7,0,1.4,0,2.1c0.2,3.1,2,5.1,5,5.6c1.9,0.3,3.7,0,5.5-0.5c1.8-0.4,1.8-0.5,2-2.4c0.4-0.1,0.8-0.3,1.2-0.4
		c0.5-0.1,0.6-0.4,0.7-0.8c0.2-1.8,0.5-3.5,0.8-5.3c0,0.1,0.1,0.2,0.1,0.3c1.2,4.5,4,7.4,8.6,8.6c3.9,1,7.9,0.7,11.8-0.3
		c2.3-0.6,1.7-0.1,2.1-2.4c0.1-0.1,0.3-0.1,0.4-0.2c0.6-0.1,0.9-0.5,1-1.1c0.2-1.3,0.5-2.5,0.7-3.8c0.2-1,0.4-2,0.5-2.9
		c-2,0.5-3.9,1.1-5.9,1.5c-2.1,0.4-4.2,0.4-6.2-0.3c-1.6-0.6-2.9-1.6-3.3-3.4c0.1,0,0.3,0,0.4,0c4.4,0,8.8,0,13.2,0
		c0.5,0,0.7-0.1,0.8-0.6c0.1-0.6,0.2-1.2,0.3-1.8c0.5,0,0.9,0,1.4,0c0.1-0.5,0.2-0.9,0.3-1.3c0.4-2.6,1-5.1,0.7-7.8
		c-0.3-2.4-1.1-4.6-2.7-6.5c-3.1-3.5-9.1-4.1-12.7-2.5c-2.7,1.1-4.7,3.1-6.3,5.4C107.7,68.9,107.6,68.9,107.5,69z M24.6,94.3
		c0.4,0,0.8,0,1.2,0c0.1-0.2,0.1-0.3,0.2-0.4c1.8-5,3.5-9.9,5.3-14.9c0.5-1.4,1-2.7,1.5-4.1c-0.1,1-0.2,1.9-0.4,2.9
		c-0.8,5.3-1.7,10.5-2.5,15.8c-0.2,1-0.3,2-0.5,3c2.7,0,5.4,0,8.1,0c0.1-0.8,0.3-1.6,0.4-2.4c0.6,0,1.1,0,1.7,0
		c2.1-12.7,4.2-25.3,6.3-38c-4.2,0-8.4,0-12.6,0c-0.3,0.8-0.6,1.5-0.8,2.3c-0.3,0-0.6,0-1,0c-0.5-0.1-0.7,0.2-0.9,0.6
		c-0.9,2.9-1.9,5.8-2.9,8.6c-0.8,2.4-1.6,4.7-2.4,7.1c0-0.2,0-0.5,0-0.7c-0.1-5-0.2-10-0.3-15c0-1,0-1.9,0-2.9c-4,0-7.8,0-11.7,0
		c-0.2,0.8-0.3,1.6-0.5,2.4c-0.6,0-1.2,0-1.9,0C9,71.4,6.9,84,4.8,96.7c2.7,0,5.3,0,7.9,0c0.1-0.8,0.3-1.6,0.4-2.3
		c0.6,0,1.1,0,1.7,0c0.7-4.1,1.4-8.2,2.1-12.3c0.3-1.6,0.6-3.2,0.9-4.8c0.1,2.6,0.2,5.3,0.3,7.9c0.1,3.7,0.2,7.5,0.3,11.2
		c0,0.1,0,0.2,0.1,0.4c1.7,0,3.4,0,5.1,0c0.1,0,0.3-0.2,0.4-0.3C24.1,95.7,24.4,95,24.6,94.3z"/>
	<path class="st1" d="M125,130.4c1.7-1.7,3.3-3.3,5-5c1-1,1.8-2.1,2.9-3.2c-0.4,0-0.6,0-0.8,0c-4.6,0-9.2,0-13.7,0
		c-0.6,0-1-0.1-1.3-0.6c-1.6-2.2-3.2-4.5-4.8-6.7c-0.1-0.1-0.1-0.2-0.2-0.4c0.3,0,0.6,0,0.8,0c8.3,0,16.6,0,24.9,0
		c0.5,0,0.8-0.2,1.1-0.6c1.3-2.4,2.7-4.8,4.1-7.4c-0.5,0-0.7,0-0.9,0c-11.2,0-22.4,0-33.6,0c-0.6,0-0.9-0.2-1.1-0.7
		c-0.8-2.1-1.7-4.3-2.5-6.4c-0.1-0.2-0.1-0.4-0.2-0.7c0.4,0,0.6,0,0.9,0c13.2,0,26.4,0,39.6,0c0.6,0,0.9-0.2,1.1-0.8
		c0.5-2.1,1.2-4.1,1.7-6.2c0,0.1,0.1,0.1,0.1,0.1c2.3,3.2,5.5,5,9.4,5.5c2.6,0.3,5.2-0.1,7.7-0.6c1.5-0.3,1.5-0.3,1.8-1.9
		c0-0.1,0.1-0.3,0.1-0.4c1.2-0.1,2.1-0.6,2.1-2c1.2,3.1,3.5,4.8,6.8,4.9c3,0.2,5.6-0.7,7.8-2.8c0.2-0.1,0.4-0.2,0.7-0.3
		c0,0.8,0,1.7,0,2.5c2.3,0,4.6,0,7,0c0.1-0.8,0.2-1.6,0.3-2.3c1,0,2.1,0,3.1,0c-0.1,0.8-0.3,1.6-0.4,2.4c2.8,0,5.4,0,8.2,0
		c0.1-0.8,0.2-1.6,0.4-2.4c0.6,0,1.2,0,1.7,0c0.1-0.3,0.1-0.5,0.2-0.7c0.6-3.5,1.1-7,1.7-10.5c0.4-2,0.8-4,1.3-5.9
		c0.5-0.5,0.9-1,1.4-1.4c0.6-0.5,1.4-0.8,2.3-0.8c-0.8,2.6-1.3,5.2-1.4,7.8c-0.1,3,0.3,5.9,1.6,8.7c2.5,5.2,8.1,7,13.1,4.2
		c0.9-0.5,1.7-1.2,2.5-1.8c-0.1,0.8-0.2,1.7-0.3,2.6c2.6,0,5.1,0,7.7,0c0.1-0.8,0.2-1.6,0.4-2.4c0.6,0,1.1,0,1.7,0
		c2-12.7,4.1-25.3,6.1-37.9c-2.6,0-5.1,0-7.6,0c-0.1,0-0.4,0.2-0.4,0.4c-0.2,0.6-0.2,1.3-0.3,1.9c-0.6,0-1.3,0-2,0
		c-0.3,2.3-0.6,4.4-0.9,6.6c-0.1-0.1-0.3-0.2-0.4-0.3c-2.9-2.3-6-2.8-9.4-1.4c-2,0.8-3.5,2.2-4.9,3.8c-0.2,0.1-0.4,0.1-0.5,0.3
		c-1,1.1-2.1,2.3-3.1,3.4c0-0.2,0-0.3,0-0.5c0.5-2.3,1.2-4.6,2.3-6.8c0.1-0.2,0.2-0.4,0.3-0.6c-3.8-0.6-5.7,1.9-7.7,4.6
		c0.2-1.5,0.4-2.9,0.7-4.3c-2.4,0-4.8,0-7.1,0c-0.1,0-0.3,0.2-0.4,0.4c-0.2,0.7-0.3,1.4-0.4,2c-0.5,0-1.1,0-1.7,0
		c0,0.2-0.1,0.4-0.1,0.6c-0.3,2-0.7,3.9-1,5.9c0-1.7-0.2-3.3-1-4.8c-1.5-3-4.1-4.3-7.2-4.7c-3.7-0.5-7.4,0-10.9,1.1
		c-1.4,0.4-1.4,0.4-1.7,1.9c-1,0.3-2,0.6-3,0.9c-0.4,0.1-0.5,0.4-0.6,0.8c-0.1,0.9-0.3,1.8-0.5,2.7c-0.2,1.2-0.4,2.3-0.5,3.3
		c2.1-0.4,4.2-0.9,6.3-1c1.8-0.1,3.7,0,5.5,0.2c1,0.1,1.7,0.7,1.9,1.8c-0.3,0-0.5,0.1-0.7,0.1c-3.7,0.1-7.1,1-9.9,3.5
		c0,0-0.1,0.1-0.1,0.1l0,0c-2.1,0.6-3.8,1.9-5,3.6c-0.8,1.2-1.5,2.5-1.6,4l0,0c0,0-0.1,0.1-0.1,0.1c-1.1,0.4-2.1,0.8-3.2,1.1
		c-4.9,1.2-8.7-1.2-9.7-6.1c-0.4-1.9-0.3-3.8-0.1-5.7c0.3-2.6,1.1-5.1,2.6-7.2c0.1,0,0.2,0,0.3-0.1c2.7-2,5.7-2.1,8.8-1.1
		c1.3,0.4,2.4,1,3.7,1.5c0.2-1,0.3-2.1,0.5-3.1c0.5,0.3,1,0.5,1.5,0.7c0.1-0.1,0.1-0.1,0.1-0.1c0.4-2.6,0.8-5.2,1.2-7.7
		c0.1-0.4-0.1-0.6-0.4-0.7c-1.1-0.3-2.2-0.7-3.3-1c-2.6-0.7-5.3-1-8-0.5c-2.7,0.5-5.1,1.7-7.3,3.3c-0.1,0-0.1,0.1-0.2,0.1l0,0
		c-0.4,0.2-0.7,0.3-1.1,0.5c-1.7,1-3.1,2.3-4.3,3.8c-0.4-0.1-0.7-0.2-1-0.3c0,0,0-0.1,0-0.1c-0.2-1.4-0.5-2.9-0.7-4.3
		c-15.3,0-30.5,0-45.8,0c0.4-1.5,0.7-2.8,1.1-4.2c0.3-1,0.6-2,0.9-3c0.1-0.5,0.4-0.7,0.9-0.7c13.2,0,26.5,0,39.8,0
		c0.3,0,0.5,0,0.9,0c-0.1-0.2-0.1-0.4-0.1-0.6c-0.9-2.3-1.9-4.6-2.8-7c-0.2-0.4-0.5-0.4-0.8-0.4c-11.2,0-22.4,0-33.6,0
		c-0.2,0-0.5,0-0.9,0c0.8-1.5,1.4-2.9,2.2-4.3c0.6-1.1,1.2-2.1,1.8-3.1c0.2-0.4,0.5-0.6,1-0.6c8.3,0,16.5,0,24.8,0
		c0.2,0,0.5,0,0.9,0c-0.2-0.4-0.3-0.6-0.5-0.8c-1.6-2.3-3.3-4.5-4.9-6.7c-0.2-0.3-0.5-0.4-0.9-0.4c-4.4,0-8.8,0-13.2,0
		c-0.2,0-0.5,0-0.9,0c0.5-0.6,0.9-1.2,1.4-1.6c1.8-1.8,3.7-3.7,5.6-5.5c0.2-0.2,0.2-0.4,0.4-0.6c2.2-1.8,4.3-3.7,6.6-5.4
		c8.4-6.1,17.7-10.1,27.8-12.3c6.7-1.4,13.6-1.9,20.4-1.5c10.1,0.6,19.8,3.1,28.8,7.8c20.3,10.6,33.4,27,39.1,49.1
		c1.7,6.4,2.3,13,2.1,19.6c-0.5,16.9-6.1,32.1-16.7,45.3c-7.2,9-16.2,15.9-26.6,20.7c-6.5,3-13.3,5.1-20.4,6.1
		c-6.3,1-12.7,1.1-19,0.4c-12.5-1.4-24-5.5-34.4-12.7C130.2,134.7,127.6,132.4,125,130.4z M242.5,94.4c1.3,0,2.4-1.1,2.4-2.4
		s-1.1-2.4-2.4-2.4c-1.4,0-2.5,1.1-2.5,2.4C240.1,93.4,241.2,94.4,242.5,94.4z"/>
	<path class="st2" d="M242.5,118.8c-1.4,0-2.4-1-2.5-2.4c0-1.3,1.1-2.5,2.4-2.5c1.3,0,2.4,1.1,2.4,2.4
		C245,117.7,243.9,118.8,242.5,118.8z M244.5,116.4c0-1.1-0.9-2-2-2c-1.1,0-2,0.9-2,2c0,1.1,0.8,2,2,2
		C243.6,118.4,244.5,117.5,244.5,116.4z"/>
	<path class="st3" d="M32.8,75.1c-0.5,1.4-1,2.7-1.5,4.1c-1.8,5-3.5,9.9-5.3,14.9c0,0.1-0.1,0.2-0.2,0.4c-0.4,0-0.8,0-1.2,0
		c-1.4,0-2.8,0-4.2,0c-0.2-9.4-0.5-18.8-0.7-28.1c-0.3,1.5-0.6,2.9-0.8,4.4c-0.4,2.2-0.7,4.4-1.1,6.6c-0.3,1.6-0.6,3.2-0.9,4.8
		c-0.7,4.1-1.4,8.1-2.1,12.3c-0.6,0-1.1,0-1.7,0c-2,0-4,0-6,0c0.7-4.3,1.4-8.6,2.1-12.8c1-5.6,1.9-11.3,2.9-17
		c0.3-1.9,0.6-3.9,0.9-5.8c0.2-0.8,0.3-1.6,0.5-2.4c3.9,0,7.7,0,11.7,0c0,1,0,1.9,0,2.9c0.1,5,0.2,10,0.3,15c0,0.2,0,0.5,0,0.7
		c0,1.4,0,2.8,0,4.3c0.2-0.2,0.3-0.4,0.4-0.6c1.3-3.9,2.6-7.9,4-11.8c0.9-2.7,1.8-5.5,2.8-8.3c0.3-0.8,0.6-1.5,0.8-2.3
		c4.2,0,8.4,0,12.6,0c-2.1,12.6-4.2,25.2-6.3,37.9c-0.6,0-1.1,0-1.7,0c-2.1,0-4.3,0-6.5,0c1.5-9.3,2.9-18.5,4.4-27.7
		c-0.2,0.1-0.2,0.1-0.2,0.1c-0.9,2.6-1.9,5.3-2.8,7.9C32.9,74.8,32.8,74.9,32.8,75.1C32.8,75.1,32.8,75.1,32.8,75.1z"/>
	<path class="st3" d="M47.9,66.3C47.9,66.3,48,66.3,47.9,66.3c-0.1-1.6,0.8-2.2,2.2-2.5c3.5-0.9,7-1.3,10.5-0.9
		c1.5,0.2,3,0.6,4.3,1.5c2.4,1.5,3.5,3.7,3.8,6.5c0,0.3,0.1,0.6,0.1,0.9c-0.2,1.4-0.3,2.8-0.5,4.2c0,0.1-0.1,0.3-0.1,0.4
		c-0.3,2.3-0.7,4.5-1,6.8c-0.3,2-0.5,4-0.8,6c-0.2,1.1-0.3,2.2-0.5,3.3c-0.1,0.6-0.3,1.2-0.4,1.8c-0.5,0-1.1,0-1.6,0
		c-1.7,0-3.5,0-5.2,0c0-0.5,0.1-0.8,0.1-1.2c0-0.6,0-1.2,0-1.8c0,0,0.1,0,0.1,0c0,0-0.1,0-0.1,0c-2.3,2.7-5.3,3.7-8.7,3.5
		c-3.4-0.2-5.9-2.4-6.7-5.7c-0.7-3.3-0.3-6.4,1.5-9.4c2.3-3.2,5.6-4.6,9.4-5c1.5-0.2,3-0.1,4.5-0.2c0.6,0.1,1.3,0.1,1.9,0.2
		c0.1-0.4,0.2-0.7,0.2-1c0.3-2.3-0.4-3.3-2.7-3.6c-2.6-0.3-5.1-0.2-7.7,0.3c-1.1,0.2-2.2,0.5-3.4,0.8C47.4,69.6,47.7,67.9,47.9,66.3
		z M51.1,83.7C51.1,83.8,51,84,51,84.2c-0.4,1.8,0.4,3.4,1.9,3.8c1.2,0.3,2.3,0.2,3.3-0.4c0.2-0.1,0.3-0.1,0.4-0.2
		c2.1-1.6,2.8-4,3-6.5c0-0.1-0.3-0.4-0.4-0.4c-2-0.3-3.9-0.1-5.7,0.6C52.4,81.6,51.5,82.4,51.1,83.7z"/>
	<path class="st3" d="M107.7,68.8c1.6-2.4,3.6-4.3,6.3-5.4c3.7-1.6,9.7-1,12.7,2.5c1.6,1.9,2.4,4.1,2.7,6.5c0.3,2.6-0.3,5.2-0.7,7.8
		c-0.1,0.4-0.2,0.8-0.3,1.3c-0.5,0-0.9,0-1.4,0c-0.2,0-0.3,0-0.5,0c-4.6,0-9.2,0-13.7,0c-0.2,0-0.4,0-0.7,0c0.1,0.8,0.2,1.6,0.3,2.4
		c0.4,1.8,1.6,2.8,3.3,3.4c2,0.7,4.1,0.7,6.2,0.3c2-0.4,3.9-1,5.9-1.5c-0.2,0.9-0.3,1.9-0.5,2.9c-0.2,1.3-0.5,2.5-0.7,3.8
		c-0.1,0.7-0.4,1-1,1.1c-0.1,0-0.3,0.1-0.4,0.2c-3.6,0.9-7.3,1.2-11,0.5c-4.8-1-8.1-3.7-9.3-8.6c-1-3.9-0.8-7.8,0.3-11.5
		c0.5-1.8,1.5-3.5,2.2-5.2l0,0c0.1-0.1,0.1-0.2,0.1-0.3l0,0C107.6,68.9,107.7,68.9,107.7,68.8z M119.8,75.2c0.7,0,1.4,0,2.3,0
		c-0.1-1-0.1-2-0.3-2.9c-0.4-1.6-1.5-2.4-3.1-2.5c-2.2-0.1-3.8,0.9-4.8,3c-0.3,0.8-0.5,1.6-0.8,2.4
		C115.4,75.2,117.6,75.2,119.8,75.2z"/>
	<path class="st3" d="M71.7,67.7c1.9-3.1,4.9-4.4,8.3-4.8c3.1-0.4,6.2-0.1,9.3,0.4c0.1,0,0.3,0.1,0.4,0.1c-0.3,2.3-0.7,4.6-1,6.9
		c-0.6,0-1.2,0-1.7,0c-0.9-0.1-1.8-0.2-2.8-0.2c-1.2,0-2.4,0.1-3.6,0.3c-1.2,0.2-1.7,1.1-1.7,2.3c-0.1,0.8,0.3,1.3,0.9,1.7
		c0.7,0.5,1.6,0.9,2.4,1.3c1.1,0.6,2.1,1.1,3.1,1.8c1.6,1.1,2.5,2.8,2.9,4.7c0,0.2,0.1,0.4,0.1,0.6c0.2,2.3,0,4.6-0.9,6.8
		c-0.6,1.2-1.5,2.2-2.5,3c0,0.1-0.1,0.1-0.1,0.2v0c-0.1,0-0.1,0-0.2,0c-2.2,1.4-4.6,1.9-7.1,1.9c-2.3,0-4.5-0.1-6.8-0.3
		c-1.1-0.1-2.2-0.4-3.3-0.6c0.2-1.5,0.4-2.8,0.6-4.2c0.2-0.9,0.3-1.9,0.5-2.8c1.2,0.3,2.4,0.6,3.6,0.8c2.1,0.4,4.2,0.6,6.3,0
		c1.1-0.3,1.8-0.9,2-2c0.2-1.2-0.4-2-1.3-2.5c-0.8-0.5-1.7-0.9-2.5-1.4c-1.3-0.8-2.7-1.5-3.8-2.6c-2.3-2.2-2.6-5-2.2-8
		c0.2-1.2,0.6-2.3,1-3.4l0,0C71.6,67.8,71.6,67.8,71.7,67.7z"/>
	<path class="st3" d="M102.6,87.9c-0.3,1.8-0.5,3.5-0.8,5.3c-0.1,0.5-0.2,0.8-0.7,0.8c-0.4,0.1-0.8,0.2-1.2,0.4
		c-1.5,0.2-3.1,0.5-4.6,0.5c-3.1,0-5.2-1.7-5.7-4.7c-0.2-1.3-0.2-2.7-0.1-4c1-6.5,2-13,3.1-19.5c0.3-1.8,0.6-3.7,0.9-5.5
		c0.2-0.8,0.3-1.6,0.5-2.4c2.7,0,5.3,0,8,0c-0.3,1.5-0.5,3.1-0.8,4.6c1.4,0,2.6,0,4,0c-0.3,2.5-0.7,5-1,7.5c-0.4,0-0.9,0-1.3,0
		c-1,0-1.9,0-3,0c-0.1,0.9-0.3,1.7-0.4,2.6c-0.5,3.2-1.1,6.4-1.6,9.7c-0.1,0.6-0.2,1.2-0.3,1.7c-0.1,1.3,0.4,2.1,1.7,2.2
		c1,0.1,2-0.1,3-0.1C103,87.3,102.5,87.7,102.6,87.9z"/>
	<path class="st3" d="M148.7,63.2C148.7,63.2,148.7,63.2,148.7,63.2c-1.5,3-2.3,6.1-2.9,9.3c-1.5-0.5-2.7-0.2-3.5,1
		c-0.6,0.8-0.9,1.8-1.4,2.7c-0.5,1.9-1,3.7-1.4,5.6c-0.7,4.1-1.4,8.3-2.1,12.6c-0.6,0-1.1,0-1.7,0c-2.1,0-4.3,0-6.5,0
		c0-0.2,0-0.3,0-0.4c0.3-2.2,0.7-4.4,1-6.5c0.9-5.4,1.7-10.8,2.6-16.2c0.3-1.8,0.5-3.6,0.8-5.4c0.2-0.8,0.3-1.6,0.4-2.4
		c2.5,0,4.9,0,7.4,0c-0.2,1.3-0.4,2.6-0.6,3.9c0,0,0.1,0.1,0.1,0.1c0.1-0.2,0.2-0.3,0.4-0.5c0.9-1,1.8-2,2.8-2.9
		C145.7,63,147.2,63,148.7,63.2z"/>
	<path class="st4" d="M141,76.2c0.4-0.9,0.8-1.9,1.4-2.7c0.8-1.2,2-1.5,3.5-1c0.6-3.2,1.4-6.3,2.9-9.2c0.3,0.1,0.6,0.2,1,0.3
		c1.2-1.5,2.6-2.8,4.3-3.8c0.3-0.2,0.7-0.3,1.1-0.5c-0.1,0.1-0.1,0.1-0.2,0.2c-2.7,2.3-4.6,5.2-5.8,8.5c-1.7,4.6-2.1,9.3-1.6,14.1
		c0.3,2.6,1.1,5.2,2.6,7.4c2.5,3.8,6.2,5.3,10.7,5.6c2.1,0.1,4.1-0.3,6.1-0.6c0,0.1-0.1,0.3-0.1,0.4c-0.3,1.6-0.3,1.6-1.8,1.9
		c-2.5,0.5-5.1,0.9-7.7,0.6c-3.9-0.5-7.1-2.2-9.4-5.5c0-0.1-0.1-0.1-0.1-0.1c-2.2-3.4-3-7.1-2.9-11c0-1.6,0.2-3.2,0.3-4.8
		c0-0.4-0.1-0.6-0.5-0.7C143.2,74.9,142,75.2,141,76.2z"/>
	<path class="st5" d="M102.6,87.9c-0.1-0.3,0.4-0.6-0.2-0.8c-0.7-4.4-0.2-8.6,1.5-12.7c0.7-1.7,1.7-3.3,2.9-4.8
		c0.1-0.2,0.3-0.2,0.5-0.4c-0.7,1.7-1.6,3.4-2.2,5.2c-1.2,3.8-1.4,7.7-0.3,11.5c1.3,4.8,4.5,7.6,9.3,8.6c3.7,0.7,7.3,0.4,11-0.5
		c-0.4,2.4,0.1,1.9-2.1,2.4c-3.9,1-7.8,1.2-11.8,0.3c-4.5-1.1-7.4-4-8.6-8.6C102.7,88.1,102.7,88,102.6,87.9z"/>
	<path class="st5" d="M13,58.8c-0.3,1.9-0.6,3.9-0.9,5.8c-1,5.6-1.9,11.3-2.9,17C8.5,85.8,7.8,90,7.1,94.3c2,0,4,0,6,0
		c-0.1,0.8-0.2,1.5-0.4,2.3c-2.6,0-5.3,0-7.9,0C6.9,84,9,71.5,11.1,58.8C11.8,58.8,12.4,58.8,13,58.8z"/>
	<path class="st6" d="M93.6,61.2c-0.3,1.8-0.6,3.7-0.9,5.5c-1,6.5-2.1,13-3.1,19.5c-0.2,1.3-0.2,2.7,0.1,4c0.5,3,2.6,4.7,5.7,4.7
		c1.5,0,3.1-0.3,4.6-0.5c-0.2,1.9-0.2,1.9-2,2.4s-3.6,0.8-5.5,0.5c-3-0.5-4.8-2.5-5-5.6c0-0.7,0-1.4,0-2.1c1-2.2,1.1-4.4,0.9-6.8
		c0.3-1.5,0.5-3,0.7-4.5c0.9-5.4,1.9-10.9,2.8-16.4c0.1-0.6,0.3-0.9,0.9-0.8C93,61.3,93.3,61.2,93.6,61.2z"/>
	<path class="st6" d="M58.8,91.3c0,0.6,0,1.2,0,1.8c0,0.4,0,0.7-0.1,1.2c1.8,0,3.5,0,5.2,0c-0.1,0.8-0.2,1.5-0.3,2.3
		c-2.3,0-4.6,0-7,0c0-0.9,0-1.8,0-2.8c-0.2,0.2-0.3,0.3-0.5,0.5c-2.5,2.5-5.5,3.3-8.9,2.9c-3.4-0.5-5.6-2.8-6.1-6.3
		c-0.4-2.6-0.2-5.1,0.9-7.5c0.6-1.4,1.5-2.7,2.8-3.6c-1.8,2.9-2.2,6.1-1.5,9.4c0.7,3.4,3.2,5.5,6.7,5.7C53.6,95.1,56.5,94,58.8,91.3
		L58.8,91.3z"/>
	<path class="st7" d="M133.9,65.9c-0.3,1.8-0.5,3.6-0.8,5.4c-0.9,5.4-1.7,10.8-2.6,16.2c-0.4,2.2-0.7,4.4-1,6.5c0,0.1,0,0.2,0,0.4
		c2.2,0,4.3,0,6.5,0c-0.1,0.7-0.2,1.3-0.3,2c0,0.2-0.3,0.4-0.4,0.4c-2.6,0-5.1,0-7.8,0c1.7-10.3,3.3-20.6,5-30.9
		C132.8,65.9,133.3,65.9,133.9,65.9z"/>
	<path class="st6" d="M17.7,77.2c0.4-2.2,0.7-4.4,1.1-6.6c0.2-1.5,0.5-2.9,0.8-4.4c0.2,9.3,0.5,18.7,0.7,28.1c1.4,0,2.8,0,4.2,0
		c-0.2,0.7-0.5,1.4-0.7,2.1c-0.1,0.1-0.3,0.3-0.4,0.3c-1.7,0-3.4,0-5.1,0c0-0.2-0.1-0.3-0.1-0.4c-0.1-3.7-0.2-7.5-0.3-11.2
		C17.9,82.5,17.8,79.9,17.7,77.2z"/>
	<path class="st6" d="M32.9,74.6c0.9-2.6,1.9-5.3,2.8-7.9c0,0,0.1,0,0.2-0.1c-1.5,9.3-2.9,18.5-4.4,27.7c2.2,0,4.3,0,6.5,0
		c-0.1,0.8-0.3,1.6-0.4,2.4c-2.7,0-5.4,0-8.1,0c0.2-1,0.3-2,0.5-3c0.8-5.3,1.7-10.5,2.5-15.8c0.2-1,0.3-1.9,0.4-2.9v0
		C32.8,74.9,32.9,74.8,32.9,74.6z"/>
	<path class="st5" d="M71.6,67.8c-0.3,1.1-0.8,2.2-1,3.4c-0.4,3-0.1,5.8,2.2,8c1.1,1,2.5,1.7,3.8,2.6c0.8,0.5,1.7,0.9,2.5,1.4
		c0.9,0.6,1.5,1.4,1.3,2.5c-0.2,1.1-1,1.7-2,2c-0.1-1.1-0.7-1.8-1.6-2.3c-1.2-0.7-2.5-1.4-3.8-2.1c-2.9-1.6-4.5-4-4.6-7.4
		c0.2-1.4,0.3-2.8,0.5-4.2c0.6-1.1,1.3-2.2,1.9-3.2C71,68.3,71.3,68.1,71.6,67.8z"/>
	<path class="st5" d="M68,89.6c-0.2,1.4-0.4,2.7-0.6,4.2c1.1,0.2,2.2,0.5,3.3,0.6c2.3,0.2,4.5,0.3,6.8,0.3c2.5,0,4.9-0.5,7.1-1.9
		c0,0,0.1,0,0.2,0c-0.4,1-1.1,1.6-1.9,2.2c-1.8,1.4-3.9,2-6.1,2.1c-3.4,0.2-6.9,0.2-10.3-0.6c-1.2-0.3-1.2-0.3-1-1.4
		c0-0.3,0.1-0.5,0.1-0.7c0.1-0.6,0.3-1.2,0.4-1.8c0.2-1.1,0.3-2.2,0.5-3.3C67,89.4,67.5,89.5,68,89.6z"/>
	<path class="st6" d="M47.9,66.3c-0.3,1.6-0.5,3.3-0.8,4.9c1.2-0.3,2.3-0.6,3.4-0.8c2.5-0.5,5.1-0.7,7.7-0.3c2.3,0.3,3,1.4,2.7,3.6
		c0,0.3-0.1,0.6-0.2,1c-0.7-0.1-1.3-0.1-1.9-0.2c-0.2-1.1-0.9-1.7-1.9-1.8c-1.8-0.2-3.6-0.2-5.5-0.2c-1.1,0-2.1,0.2-3.2,0.4
		c-1,0.2-2,0.5-3.2,0.8c0.1-0.6,0.2-1.3,0.3-1.9c0.2-1.5,0.5-3,0.8-4.4c0.1-0.2,0.3-0.5,0.5-0.6C47,66.5,47.5,66.5,47.9,66.3z"/>
	<path class="st8" d="M112.4,83.9c-0.1-0.8-0.2-1.6-0.3-2.4c0.4,0,0.5,0,0.7,0c4.6,0,9.2,0,13.7,0c0.2,0,0.3,0,0.5,0
		c-0.1,0.6-0.3,1.2-0.3,1.8c-0.1,0.5-0.3,0.6-0.8,0.6c-4.4,0-8.8,0-13.2,0C112.7,83.9,112.6,83.9,112.4,83.9z"/>
	<path class="st9" d="M32.5,58.7c-0.9,2.7-1.8,5.5-2.8,8.3c-1.3,3.9-2.6,7.9-4,11.8c-0.1,0.2-0.2,0.4-0.4,0.6c0-1.4,0-2.8,0-4.3
		c0.8-2.4,1.6-4.7,2.4-7.1c1-2.9,1.9-5.7,2.9-8.6c0.2-0.5,0.4-0.7,0.9-0.6C31.9,58.7,32.2,58.7,32.5,58.7z"/>
	<path class="st5" d="M78.9,72.7c0-1.2,0.5-2,1.7-2.3c1.2-0.2,2.4-0.3,3.6-0.3c0.9,0,1.8,0.1,2.8,0.2c-0.1,0.8-0.3,1.6-0.4,2.3
		C84,72.7,81.5,72.7,78.9,72.7z"/>
	<path class="st5" d="M99.6,73.6c0.1-0.8,0.3-1.7,0.4-2.6c1,0,2,0,3,0c-0.1,0.7-0.2,1.4-0.2,2.1c0,0.4-0.2,0.5-0.6,0.5
		C101.3,73.5,100.5,73.6,99.6,73.6z"/>
	<path class="st5" d="M107.5,69c-0.1,0.1-0.1,0.2-0.1,0.3C107.5,69.2,107.5,69.1,107.5,69z"/>
	<path class="st5" d="M71.7,67.7c0,0-0.1,0.1-0.1,0.1C71.6,67.8,71.6,67.8,71.7,67.7z"/>
	<path class="st5" d="M107.7,68.8c-0.1,0.1-0.1,0.1-0.2,0.2C107.6,68.9,107.7,68.9,107.7,68.8z"/>
	<path class="st5" d="M84.7,92.8c0-0.1,0.1-0.1,0.1-0.2C84.8,92.7,84.8,92.7,84.7,92.8z"/>
	<path class="st3" d="M216.7,67.5c1.4-1.6,3-3,4.9-3.8c3.4-1.4,6.5-0.8,9.4,1.4c0.1,0.1,0.3,0.2,0.4,0.3c0.5,0.5,1.1,0.9,1.6,1.4
		c0.4-2.6,0.8-5.3,1.3-8c0.1-0.6,0.2-1.3,0.3-1.9c0-0.2,0.3-0.4,0.4-0.4c2.5,0,5,0,7.6,0c-2,12.6-4.1,25.2-6.1,37.9
		c-0.6,0-1.1,0-1.7,0c-2,0-4,0-6,0c0.1-1,0.2-1.8,0.3-2.7c-0.1,0-0.1-0.1-0.2-0.1c-0.1,0.1-0.1,0.3-0.2,0.4
		c-2.3,2.2-5.1,3.2-8.3,2.8c-3.3-0.5-5.5-2.5-7-5.4c-1.9-3.9-1.9-8.1-1.1-12.2C213,73.5,214.4,70.3,216.7,67.5z M227.5,85.9
		L227.5,85.9c0.2-0.2,0.5-0.4,0.7-0.6c1-1,1.6-2.3,2-3.6c0.9-2.8,1.1-5.6,0.2-8.4c-0.6-1.8-1.8-2.6-3.7-2.6c-2.3,0-3.7,1.3-4.7,3.2
		c-0.4,1.2-1,2.3-1.3,3.5c-0.5,2.3-0.6,4.6,0.1,6.8c0.9,3,4.1,3.9,6.6,2C227.4,86,227.5,86,227.5,85.9z"/>
	<path class="st3" d="M177.2,65.8c0.3-1.4,0.3-1.4,1.7-1.9c3.6-1.1,7.2-1.5,10.9-1.1c3.1,0.4,5.8,1.7,7.2,4.7c0.7,1.5,0.9,3.1,1,4.8
		c-0.3,2.4-0.7,4.7-1,7.1c-0.7,4.8-1.4,9.6-2.1,14.4c0,0.2-0.3,0.3-0.4,0.4c-1,0-2.1,0-3.1,0c-1.2,0-2.3,0-3.6,0
		c0.1-1,0.2-2,0.2-3.1c-1.2,1.4-2.5,2.3-4,2.9c-0.2,0.1-0.4,0.2-0.7,0.3c-1,0.1-2,0.4-3,0.4c-4,0.3-7.2-2.1-8-5.9
		c-0.8-4.1-0.1-7.8,2.9-10.9l0,0c0,0,0.1-0.1,0.1-0.1c2.9-2.5,6.3-3.3,9.9-3.5c0.3,0,0.5-0.1,0.7-0.1c1.2,0.1,2.4,0.2,3.7,0.2
		c0.1-0.6,0.2-1.2,0.2-1.8c0.1-1.5-0.6-2.3-2-2.7c-1.9-0.5-3.9-0.4-5.8-0.2c-2,0.2-4,0.7-6,1C176.6,69.4,176.9,67.6,177.2,65.8z
		 M180.5,83c-0.1,0.3-0.3,0.6-0.4,0.9c-0.6,2.5,0.8,4.4,3.2,4.2c1.3,0,2.4-0.6,3.3-1.5c1.4-1.6,2-3.6,2.1-5.7c0-0.4-0.2-0.5-0.5-0.5
		c-1.9-0.2-3.7-0.1-5.5,0.6C181.8,81.5,181,82.1,180.5,83z"/>
	<path class="st3" d="M166.9,94.3c-2,0.3-4,0.7-6.1,0.6c-4.4-0.2-8.1-1.8-10.7-5.6c-1.5-2.2-2.3-4.7-2.6-7.4
		c-0.5-4.8-0.1-9.6,1.6-14.1c1.2-3.3,3.1-6.2,5.8-8.5c0.1-0.1,0.1-0.1,0.2-0.2l0,0c0.1,0,0.1-0.1,0.2-0.1c2.2-1.6,4.6-2.8,7.3-3.3
		c2.7-0.5,5.4-0.2,8,0.5c1.1,0.3,2.2,0.7,3.3,1c0.4,0.1,0.5,0.3,0.4,0.7c-0.4,2.6-0.8,5.2-1.2,7.7c0,0-0.1,0.1-0.1,0.1
		c-0.5-0.2-1-0.5-1.5-0.7c-0.8-0.3-1.6-0.7-2.5-1c-4.4-1.3-8.4,0.1-10.8,3.7c-1.5,2.2-2.3,4.6-2.6,7.2c-0.3,1.9-0.4,3.8,0.1,5.7
		c1.1,4.9,4.9,7.3,9.7,6.1c1.1-0.3,2.1-0.7,3.2-1.1c0,0,0.1-0.1,0.1-0.1l0,0c0.4-0.1,0.8-0.3,1.2-0.4c-0.1,0.6-0.2,1.2-0.3,1.8
		c-0.3,1.7-0.5,3.5-0.8,5.2C169,93.8,168.1,94.2,166.9,94.3z"/>
	<path class="st3" d="M207.5,77.3c-0.4,2-0.9,3.9-1.3,5.9c-0.6,3.5-1.1,7-1.7,10.5c0,0.2-0.1,0.4-0.2,0.7c-0.6,0-1.2,0-1.7,0
		c-2.1,0-4.2,0-6.4,0c0.4-2.4,0.7-4.7,1.1-6.9c0.9-5.4,1.7-10.7,2.6-16.1c0.3-1.8,0.6-3.6,0.8-5.4c0.1-0.7,0.2-1.4,0.4-2
		c0-0.2,0.2-0.4,0.4-0.4c2.3,0,4.7,0,7.1,0c-0.2,1.4-0.4,2.8-0.7,4.3c1.9-2.7,3.8-5.2,7.7-4.6c-0.1,0.2-0.2,0.4-0.3,0.6
		c-1.1,2.2-1.8,4.5-2.3,6.8c0,0.2,0,0.3,0,0.5v0c0,0.1-0.1,0.1-0.1,0.2c-0.1,0.4-0.2,0.7-0.3,1.1c-2-0.4-3.1,0.1-4,1.8
		C208.2,75.2,207.9,76.3,207.5,77.3z"/>
	<path class="st10" d="M207.5,77.3c0.4-1,0.7-2.1,1.2-3.1c0.9-1.8,2-2.3,4-1.8c0.1-0.4,0.2-0.7,0.3-1.1c0-0.1,0.1-0.1,0.1-0.2v0
		c1-1.1,2-2.3,3.1-3.4c0.1-0.1,0.4-0.2,0.5-0.3c-2.2,2.8-3.6,6-4.3,9.5c-0.8,4.2-0.8,8.3,1.1,12.2c1.4,2.9,3.6,5,7,5.4
		c3.2,0.4,6-0.5,8.3-2.8c0.1-0.1,0.2-0.2,0.2-0.4c0.1,0,0.1,0.1,0.2,0.1c-0.1,0.9-0.2,1.7-0.3,2.7c2,0,4,0,6,0
		c-0.1,0.8-0.2,1.6-0.4,2.4c-2.6,0-5.2,0-7.7,0c0.1-0.9,0.2-1.7,0.3-2.6c-0.9,0.6-1.6,1.3-2.5,1.8c-5.1,2.8-10.6,1-13.1-4.2
		c-1.3-2.7-1.7-5.7-1.6-8.7c0.1-2.6,0.5-5.2,1.4-7.8c-0.9-0.1-1.7,0.2-2.3,0.8C208.4,76.4,207.9,76.9,207.5,77.3z"/>
	<path class="st4" d="M169,92.3c0.3-1.7,0.5-3.5,0.8-5.2c0.1-0.6,0.2-1.2,0.3-1.8c-0.5,0.2-0.8,0.3-1.2,0.4c0.1-1.5,0.7-2.8,1.6-4
		c1.3-1.8,2.9-3,5-3.6c-3,3.1-3.7,6.8-2.9,10.9c0.7,3.8,3.9,6.1,8,5.9c1-0.1,2-0.3,3-0.4c-2.1,2.2-4.8,3-7.8,2.8
		C172.4,97.1,170.2,95.4,169,92.3z"/>
	<path class="st11" d="M200.8,65.9c-0.3,1.8-0.5,3.6-0.8,5.4c-0.9,5.4-1.7,10.7-2.6,16.1c-0.4,2.3-0.7,4.5-1.1,6.9
		c2.2,0,4.3,0,6.4,0c-0.1,0.8-0.2,1.6-0.4,2.4c-2.7,0-5.4,0-8.2,0c0.1-0.8,0.3-1.6,0.4-2.4c0.1-0.1,0.4-0.3,0.4-0.4
		c0.7-4.8,1.4-9.6,2.1-14.4c0.3-2.4,0.7-4.7,1-7.1c0.3-2,0.7-3.9,1-5.9c0-0.2,0.1-0.4,0.1-0.6C199.7,65.9,200.2,65.9,200.8,65.9z"/>
	<path class="st4" d="M177.2,65.8c-0.3,1.8-0.6,3.6-0.9,5.3c2-0.4,4-0.8,6-1c1.9-0.2,3.9-0.3,5.8,0.2c1.4,0.3,2,1.2,2,2.7
		c0,0.6-0.1,1.2-0.2,1.8c-1.3-0.1-2.5-0.2-3.7-0.2c-0.2-1.1-0.9-1.7-1.9-1.8c-1.8-0.2-3.7-0.3-5.5-0.2c-2.1,0.2-4.2,0.7-6.3,1
		c0.2-1,0.4-2.2,0.5-3.3c0.2-0.9,0.3-1.8,0.5-2.7c0.1-0.4,0.2-0.6,0.6-0.8C175.2,66.4,176.2,66.1,177.2,65.8z"/>
	<path class="st10" d="M158.4,67.8c2.4-3.6,6.4-5,10.8-3.7c0.8,0.3,1.6,0.6,2.5,1c-0.2,1.1-0.3,2.1-0.5,3.1
		c-1.2-0.5-2.4-1.1-3.7-1.5c-3.1-1-6-0.9-8.8,1.1C158.6,67.8,158.5,67.8,158.4,67.8z"/>
	<path class="st10" d="M184.1,94.1c1.5-0.6,2.8-1.5,4-2.9c-0.1,1.1-0.2,2.1-0.2,3.1c1.2,0,2.4,0,3.6,0c-0.1,0.8-0.2,1.5-0.3,2.3
		c-2.3,0-4.6,0-7,0C184.1,95.8,184.1,95,184.1,94.1z"/>
	<path class="st9" d="M234.3,58.8c-0.4,2.7-0.9,5.4-1.3,8c-0.5-0.4-1.1-0.9-1.6-1.4c0.3-2.2,0.6-4.4,0.9-6.6
		C233,58.8,233.6,58.8,234.3,58.8z"/>
	<path class="st12" d="M242.5,94.4c-1.3,0-2.4-1.1-2.4-2.4c0-1.4,1.1-2.4,2.5-2.4c1.3,0,2.4,1.1,2.4,2.4
		C244.9,93.4,243.8,94.4,242.5,94.4z M240.5,92c0,1.1,0.9,2,2,2c1.1,0,2-0.9,2-2s-0.9-2-2-2C241.4,90,240.5,90.9,240.5,92z"/>
	<path class="st4" d="M175.5,78c0,0-0.1,0.1-0.1,0.1C175.5,78.1,175.5,78,175.5,78z"/>
	<path class="st4" d="M155.3,59.1c-0.1,0-0.1,0.1-0.2,0.1C155.2,59.2,155.3,59.1,155.3,59.1z"/>
	<path class="st4" d="M168.9,85.7c0,0-0.1,0.1-0.1,0.1C168.8,85.8,168.8,85.7,168.9,85.7z"/>
	<path class="st3" d="M244.5,116.4c0,1.2-0.8,2-2,2c-1.1,0-2-0.9-2-2c0-1.1,0.9-2,2-2C243.6,114.3,244.5,115.3,244.5,116.4z
		 M241.4,115.1c0,0.8,0,1.6,0,2.3c0,0.1,0.2,0.2,0.2,0.3c0.1-0.1,0.2-0.2,0.2-0.3c0-0.2,0-0.5,0-0.7c1-0.3,0.8,1.1,1.7,1
		c-0.3-0.4-0.5-0.8-0.7-1.1c0.1,0,0.1,0,0.2,0c0.1-0.3,0.4-0.7,0.3-1c-0.1-0.3-0.5-0.4-0.9-0.5C242.2,115,241.9,115.1,241.4,115.1z"
		/>
	<path class="st0" d="M32.9,74.6c0,0.1-0.1,0.3-0.1,0.4C32.8,74.9,32.9,74.8,32.9,74.6z"/>
	<path class="st13" d="M68,89.6c-0.5-0.1-1-0.3-1.5-0.4c0.3-2,0.5-4,0.8-6c0.3-2.3,0.6-4.5,1-6.8c0-0.1,0.1-0.3,0.1-0.4
		c0.1,3.3,1.7,5.8,4.6,7.4c1.3,0.7,2.5,1.3,3.8,2.1c0.9,0.5,1.5,1.2,1.6,2.3c-2.1,0.5-4.2,0.3-6.3,0c-1.2-0.2-2.4-0.5-3.6-0.8
		C68.3,87.8,68.1,88.7,68,89.6z"/>
	<path class="st14" d="M56.2,87.6c-1.1,0.6-2.2,0.8-3.3,0.4c-1.5-0.4-2.3-2-1.9-3.8c0-0.2,0.1-0.4,0.2-0.5c1.6-0.7,3.3-0.9,5.1-0.9
		c0.9,0,1,0.1,0.9,1C56.8,85.1,56.5,86.4,56.2,87.6z"/>
	<path class="st9" d="M56.2,87.6c0.3-1.3,0.6-2.5,0.8-3.8c0.2-0.9,0-1-0.9-1c-1.7,0-3.4,0.2-5.1,0.9c0.3-1.3,1.2-2,2.4-2.5
		c1.8-0.8,3.7-0.9,5.7-0.6c0.2,0,0.4,0.3,0.4,0.4c-0.2,2.5-0.8,4.8-3,6.5C56.5,87.5,56.4,87.5,56.2,87.6z"/>
	<path class="st6" d="M58.9,91.3c0,0,0.1,0,0.1,0C58.9,91.3,58.9,91.3,58.9,91.3C58.8,91.3,58.9,91.3,58.9,91.3z"/>
	<path class="st4" d="M113.8,72.7c1-2.1,2.6-3.1,4.8-3c1.6,0.1,2.7,0.9,3.1,2.5c0.2,0.9,0.2,1.9,0.3,2.9c-0.9,0-1.6,0-2.3,0
		c-0.4-1.9-1.5-3-3.3-3C115.6,72.2,114.7,72.5,113.8,72.7z"/>
	<path class="st14" d="M113.8,72.7c0.9-0.2,1.8-0.5,2.7-0.5c1.8,0,2.9,1.1,3.3,3c-2.2,0-4.4,0-6.8,0
		C113.2,74.3,113.5,73.5,113.8,72.7z"/>
	<path class="st15" d="M227.4,86.1c-2.5,1.9-5.6,1-6.6-2c-0.7-2.3-0.6-4.6-0.1-6.8c0.3-1.2,0.8-2.3,1.3-3.5c0.1,0,0.2-0.1,0.2-0.1
		c2.9-1.6,5.6-0.4,6.3,2.8c0.5,2.3,0.5,4.5-0.1,6.8c-0.3,1-0.6,1.9-0.9,2.8l0,0C227.5,86,227.4,86,227.4,86.1z"/>
	<path class="st4" d="M227.5,86c0.3-0.9,0.7-1.8,0.9-2.8c0.6-2.2,0.7-4.5,0.1-6.8c-0.8-3.2-3.5-4.3-6.3-2.8c-0.1,0-0.2,0.1-0.2,0.1
		c1-1.9,2.4-3.2,4.7-3.2c1.8,0,3.1,0.9,3.7,2.6c0.9,2.8,0.7,5.6-0.2,8.4c-0.4,1.3-1,2.6-2,3.6C228,85.5,227.7,85.7,227.5,86z"/>
	<path class="st4" d="M227.4,86.1c0.1,0,0.1-0.1,0.1-0.1C227.5,86,227.4,86,227.4,86.1z"/>
	<path class="st7" d="M180.5,83c0.5-1,1.3-1.6,2.2-1.9c1.8-0.7,3.6-0.8,5.5-0.6c0.3,0,0.5,0.1,0.5,0.5c-0.1,2.1-0.7,4.1-2.1,5.7
		c-0.9,1-2,1.5-3.3,1.5c0.7-1.4,1-2.8,1.1-4.3c0.1-1,0-1.1-1-1.1C182.6,82.8,181.5,83,180.5,83z"/>
	<path class="st16" d="M180.5,83c1-0.1,2-0.2,3-0.2c1,0,1,0.1,1,1.1c-0.1,1.5-0.4,3-1.1,4.3c-2.4,0.2-3.9-1.7-3.2-4.2
		C180.2,83.6,180.4,83.3,180.5,83z"/>
	<path class="st1" d="M213.1,71.1c0,0.1-0.1,0.1-0.1,0.2C213,71.2,213,71.2,213.1,71.1z"/>
	<path class="st17" d="M240.5,92c0-1.1,0.9-2,2-2c1.1,0,2,0.9,2,2c0,1.1-0.9,2-2,2C241.4,94,240.5,93.2,240.5,92z M241.9,92.3
		c1-0.3,0.8,1.1,1.7,1c-0.3-0.4-0.5-0.8-0.6-1c0.2-0.4,0.4-0.7,0.4-1c0-0.5-0.5-0.6-0.9-0.6c-0.3,0-0.7,0-1.1,0c0,0.7,0,1.4,0,2.1
		c0,0.2,0.1,0.3,0.2,0.5c0.1-0.2,0.2-0.3,0.2-0.5C241.9,92.7,241.9,92.5,241.9,92.3z"/>
	<path class="st2" d="M241.4,115.1c0.4,0,0.8-0.1,1.1,0c0.3,0.1,0.8,0.3,0.9,0.5c0.1,0.2-0.2,0.6-0.3,1c-0.1,0-0.1,0-0.2,0
		c0.2,0.3,0.4,0.7,0.7,1.1c-0.9,0.1-0.8-1.3-1.7-1c0,0.2,0,0.5,0,0.7c0,0.1-0.1,0.2-0.2,0.3c-0.1-0.1-0.2-0.2-0.2-0.3
		C241.4,116.7,241.4,115.9,241.4,115.1z M241.9,116.3c0.4-0.1,0.7-0.2,1-0.3c0,0,0-0.4,0-0.4c-0.3-0.1-0.6-0.2-1-0.2
		C241.9,115.7,241.9,115.9,241.9,116.3z"/>
	<path class="st12" d="M241.9,92.3c0,0.2,0,0.4,0,0.5c-0.1,0.2-0.1,0.3-0.2,0.5c-0.1-0.2-0.2-0.3-0.2-0.5c0-0.7,0-1.4,0-2.1
		c0.4,0,0.7,0,1.1,0c0.4,0,0.9,0.1,0.9,0.6c0,0.3-0.2,0.6-0.4,1c0.1,0.2,0.3,0.5,0.6,1C242.7,93.4,242.8,92,241.9,92.3z M241.9,92
		c0.4-0.1,0.7-0.2,1-0.3c0.1,0,0-0.4,0-0.4c-0.3-0.1-0.6-0.2-1-0.3C241.9,91.4,241.9,91.6,241.9,92z"/>
	<path class="st3" d="M241.9,116.3c0-0.4,0-0.6,0-0.9c0.4,0.1,0.7,0.1,1,0.2c0.1,0,0.1,0.4,0,0.4
		C242.6,116.1,242.3,116.2,241.9,116.3z"/>
	<path class="st17" d="M241.9,92c0-0.3,0-0.6,0-0.9c0.4,0.1,0.7,0.2,1,0.3c0,0,0,0.4,0,0.4C242.6,91.8,242.3,91.9,241.9,92z"/>
</g>
</svg>
