<?xml version="1.0" encoding="utf-8"?>
<!-- Generator: Adobe Illustrator 21.0.0, SVG Export Plug-In . SVG Version: 6.00 Build 0)  -->
<svg version="1.1" id="Camada_1" xmlns="http://www.w3.org/2000/svg" xmlns:xlink="http://www.w3.org/1999/xlink" x="0px" y="0px"
	 viewBox="0 0 250 55.1" style="enable-background:new 0 0 250 55.1;" xml:space="preserve">
<style type="text/css">
	.st0{fill:#050304;}
	.st1{fill:#8CB52A;}
	.st2{fill:#8CB629;}
	.st3{fill:#8CB62A;}
	.st4{fill:#010101;}
	.st5{fill:#020202;}
	.st6{fill:#F9FBF2;}
	.st7{fill:#82803F;}
	.st8{fill:#36231C;}
	.st9{fill:#F8FBF1;}
	.st10{fill:#472F1D;}
	.st11{fill:#635738;}
	.st12{fill:#DBEEB2;}
	.st13{fill:#252212;}
	.st14{fill:#E8F1D9;}
	.st15{fill:#DFEBC5;}
	.st16{fill:#8B7331;}
	.st17{fill:#D8E5BE;}
	.st18{fill:#D7EBA1;}
	.st19{fill:#472F1B;}
	.st20{fill:#625D31;}
	.st21{fill:#DBEBAB;}
	.st22{fill:#9CBA58;}
	.st23{fill:#9D9D9D;}
	.st24{fill:#D1EA9A;}
	.st25{fill:#D5EBB1;}
	.st26{fill:#E1EFBB;}
	.st27{fill:#D3E3A9;}
	.st28{fill:#E3EFBE;}
	.st29{fill:#DAEBAE;}
	.st30{fill:#D6E8AA;}
	.st31{fill:#70635C;}
	.st32{fill:#655B59;}
	.st33{fill:#5C4746;}
	.st34{fill:#4D3F09;}
	.st35{fill:#CBC244;}
	.st36{fill:#C02429;}
	.st37{fill:#D07827;}
	.st38{fill:#C44829;}
	.st39{fill:#C23629;}
	.st40{fill:#D48826;}
	.st41{fill:#EBD734;}
	.st42{fill:#C96029;}
	.st43{fill:#FAF5D2;}
	.st44{fill:#D07528;}
	.st45{fill:#C02B2A;}
	.st46{fill:#D17F27;}
	.st47{fill:#EDE73E;}
	.st48{fill:#EAD836;}
	.st49{fill:#E3BF2E;}
	.st50{fill:#EADB39;}
	.st51{fill:#D79524;}
	.st52{fill:#E6CF37;}
	.st53{fill:#E5C733;}
	.st54{fill:#E0BB32;}
	.st55{fill:#E3C62D;}
	.st56{fill:#DEB02B;}
	.st57{fill:#BF232C;}
	.st58{fill:#F8F0B9;}
	.st59{fill:#C75428;}
	.st60{fill:#E6CA31;}
	.st61{fill:#F5EB9C;}
	.st62{fill:#DEAF2B;}
	.st63{fill:#F4EA99;}
	.st64{fill:#DAA128;}
	.st65{fill:#D59127;}
	.st66{fill:#CE7E2A;}
	.st67{fill:#110605;}
	.st68{fill:#C65328;}
	.st69{fill:#D1802B;}
	.st70{fill:#29100A;}
	.st71{fill:#CA6D2D;}
	.st72{fill:#E4DB3E;}
	.st73{fill:#F3E680;}
	.st74{fill:#F8F2C8;}
	.st75{fill:#D68E25;}
	.st76{fill:#D69B29;}
	.st77{fill:#CD7029;}
	.st78{fill:#EFE266;}
	.st79{fill:#CF882E;}
	.st80{fill:#D5A32F;}
	.st81{fill:#2F2307;}
	.st82{fill:#C05629;}
	.st83{fill:#FBF8E6;}
	.st84{fill:#D59E2F;}
	.st85{fill:#B8542B;}
	.st86{fill:#3C110D;}
	.st87{fill:#F0E585;}
	.st88{fill:#D99823;}
	.st89{fill:#541E10;}
	.st90{fill:#592C06;}
	.st91{fill:#BE552C;}
	.st92{fill:#EFE146;}
	.st93{fill:#C1852B;}
	.st94{fill:#DCBF3C;}
	.st95{fill:#BC3428;}
	.st96{fill:#AD3D28;}
	.st97{fill:#EEE25F;}
	.st98{fill:#3C3600;}
	.st99{fill:#902624;}
	.st100{fill:#6E3E26;}
	.st101{fill:#201508;}
	.st102{fill:#979249;}
	.st103{fill:#DAD34A;}
	.st104{fill:#B7943A;}
	.st105{fill:#762B2D;}
	.st106{fill:#902B2E;}
	.st107{fill:#46391E;}
	.st108{fill:#C8AE54;}
	.st109{fill:#998623;}
	.st110{fill:#A4302D;}
	.st111{fill:#BE7C22;}
	.st112{fill:#C59C32;}
	.st113{fill:#982223;}
	.st114{fill:#EDDE42;}
	.st115{fill:#261807;}
	.st116{fill:#86221B;}
	.st117{fill:#621B1F;}
	.st118{fill:#C2AF37;}
	.st119{fill:#74251E;}
	.st120{fill:#4A0B0B;}
	.st121{fill:#B19532;}
	.st122{fill:#C16127;}
	.st123{fill:#851C2E;}
	.st124{fill:#D4D953;}
	.st125{fill:#FDFDFC;}
	.st126{fill:#D5E9A8;}
	.st127{fill:#FDFDFD;}
	.st128{fill:#EBF4D4;}
	.st129{fill:#FAFBF7;}
	.st130{fill:#DBEABA;}
	.st131{fill:#F7F7F7;}
	.st132{fill:#FEFEFE;}
	.st133{fill:#D8DF4E;}
	.st134{fill:#7C4D00;}
	.st135{fill:#D6B035;}
	.st136{fill:#5A5300;}
	.st137{fill:#A22528;}
	.st138{fill:#842426;}
	.st139{fill:#DCA829;}
	.st140{fill:#DBB028;}
	.st141{fill:#D48B27;}
	.st142{fill:#D89926;}
	.st143{fill:#DC9019;}
	.st144{fill:#CD6B28;}
	.st145{fill:#FDFAEC;}
	.st146{fill:#F8F0B7;}
	.st147{fill:#F0E066;}
	.st148{fill:#ECC92B;}
	.st149{fill:#E1B52C;}
	.st150{fill:#E2C54D;}
	.st151{fill:#8A292C;}
	.st152{fill:#C7AC57;}
	.st153{fill:#F3E77F;}
	.st154{fill:#CD4131;}
	.st155{fill:#4E460C;}
	.st156{fill:#EDDD6B;}
	.st157{fill:#444514;}
	.st158{fill:#F3E572;}
	.st159{fill:#FAF4CF;}
	.st160{fill:#5E400B;}
	.st161{fill:#C44D2B;}
	.st162{fill:#7E7B38;}
	.st163{fill:#FEFEFD;}
</style>
<g>
	<path class="st0" d="M50.5,32.5c0.1,0.1,0,0.2,0,0.3c-0.1,0.5-0.2,0.9-0.3,1.4c-2.6,9.9-8.6,16.9-18.6,19.5
		C21.4,56.3,12.8,53,6.2,45c-9.5-11.6-7.9-29.4,3.6-39c7-5.9,15-7.3,23.7-4.6c0.5,0.2,0.9,0.4,1.4,0.6c0.4,0.9,1.2,1.3,2.1,1.5l0,0
		c0.1,0.1,0.3,0.2,0.4,0.3l0,0c0.2,0.1,0.4,0.3,0.7,0.4l0,0c0.1,0.1,0.2,0.2,0.4,0.3l0,0c0.1,0.1,0.3,0.2,0.4,0.3
		c0.1,0,0.2,0.1,0.3,0.1c0.1,0.1,0.2,0.2,0.3,0.3l0,0c0.1,0.1,0.2,0.2,0.4,0.3l0,0c0.1,0.1,0.2,0.2,0.4,0.3l0,0
		c0.1,0.1,0.2,0.2,0.4,0.3c0.3,0.2,0.7,0.5,1,0.7c0,0.1,0.1,0.2,0.1,0.2c0.1,0.1,0.2,0.3,0.3,0.4l0,0C41.9,7.7,42,7.9,42.1,8l0,0
		c0.1,0.1,0.2,0.2,0.3,0.4l0,0c0.1,0.1,0.2,0.2,0.3,0.4l0,0.1C42.9,8.9,43,9,43,9.1c0.1,0.1,0.2,0.2,0.2,0.3
		c-0.2,0.2-0.3,0.3-0.5,0.5l0,0c-0.1-0.1-0.2-0.3-0.3-0.4l0,0c-0.1-0.1-0.2-0.3-0.3-0.4c-0.1-0.1-0.2-0.2-0.3-0.4
		c-0.1-0.1-0.2-0.2-0.3-0.4c-0.1-0.1-0.2-0.2-0.3-0.4c-0.2-0.7-0.6-1.3-1.5-1.3l0,0c-0.1-0.1-0.3-0.2-0.4-0.3l0,0
		c-0.1-0.1-0.3-0.2-0.4-0.3l0,0c-0.2-0.1-0.4-0.3-0.6-0.4l0,0c-0.1-0.1-0.3-0.2-0.4-0.3l0,0c-0.1-0.1-0.3-0.2-0.4-0.3l0,0
		c-0.2-0.1-0.4-0.3-0.7-0.4l0,0c-0.2-0.1-0.5-0.3-0.7-0.4l0,0C36,4.1,35.9,4,35.7,3.9c-0.1,0-0.2,0-0.2-0.1
		c-0.2-0.1-0.3-0.2-0.5-0.3c-0.1,0-0.2,0-0.2-0.1c-0.2-0.1-0.5-0.2-0.7-0.3l0,0c-0.3-0.1-0.5-0.2-0.8-0.3c-0.3,0-0.6-0.1-0.9-0.1
		c-0.4-0.1-0.9-0.2-1.3-0.4c-0.6-0.1-1.2-0.2-1.8-0.4c-1.2-0.1-2.4-0.1-3.6-0.2c-1.3,0.2-2.6,0.4-3.9,0.6c-0.2,0-0.4,0.1-0.7,0.1
		c-0.2,0.1-0.5,0.2-0.7,0.2c-0.3,0.1-0.7,0.2-1,0.4l0,0c-0.6,0.3-1.2,0.5-1.7,0.8C17.6,4,17.4,4,17.3,4.1l0,0
		c-0.9,0.6-1.8,1.1-2.8,1.7c-0.9,0.8-1.8,1.7-2.8,2.5C11.2,9,10.6,9.7,10,10.4c-1.1,1.3-2,2.8-2.4,4.5c-0.4,1-0.8,2-1.1,3.1
		C6,20.1,5.6,22.3,6,24.7c1.1-1.8,2-3.3,3-4.9l0,0c0.1-0.1,0.2-0.2,0.3-0.3l0,0c0.1-0.1,0.2-0.2,0.3-0.3c0.7-0.7,1.5-1.4,2.2-2.1
		c0,0,0,0,0,0c0.1-0.1,0.3-0.2,0.4-0.3c0.3-0.2,0.7-0.5,1-0.7c0.8-0.5,1.7-0.9,2.5-1.4c0.6-0.2,1.2-0.5,1.8-0.7l0.1,0l0.1-0.1
		c0.4-0.1,0.7-0.2,1.1-0.3c0.6-0.1,1.2-0.2,1.7-0.3c1.5,0,3-0.1,4.4-0.1c0.4,0,0.7,0.1,1.1,0.1c0.5,0.1,0.9,0.2,1.4,0.3
		c0.1,0,0.2,0,0.3,0.1c0.7,0.2,1.4,0.4,2.1,0.7c1.4,0.7,2.7,1.4,4.1,2.1c0.6,0.5,1.2,0.9,1.8,1.4c0.7,0.7,1.4,1.4,2.1,2.1
		c0.5,0.7,1,1.4,1.5,2.1c0.1,0.1,0.2,0.2,0.3,0.4c0.1,0.1,0.2,0.1,0.3,0.2c0.6,0.1,1.1,0.1,1.7,0.2c0.4,0.1,0.7,0.2,1.1,0.3
		c0.2,0.1,0.5,0.2,0.7,0.3l0.1,0.1l0.1,0c1,0.8,2,1.6,3.2,2.5c0-2.1,0-4.1,0-6c0.1-0.1,0.3-0.3,0.4-0.4c0.1,0.4,0.2,0.7,0.3,1.1
		c0,1.4,0,2.7,0,4.1c-0.5,1.1-0.5,2.2,0.3,3.2c0,0.2,0,0.5,0,0.7c0.2,0.9,0.4,1.9,0.7,2.8c0,1,0,2.1,0,3.1c-0.1-0.4-0.2-0.8-0.3-1.2
		c-0.1-0.4-0.2-0.8-0.3-1.2C48,32,48,31.9,48,31.8c0.1-0.8,0.1-1.6-0.7-2.1c-0.1-0.1-0.2-0.3-0.3-0.4c-0.3-0.4-0.5-0.9-0.8-1.3
		c-0.3-0.3-0.6-0.5-1-0.8c-0.3-0.2-0.6-0.5-1-0.7c-0.6-0.2-1.2-0.5-1.8-0.7l0,0c-0.3-0.1-0.7-0.2-1.3-0.4c0.2,0.6,0.4,0.9,0.5,1.3
		c0,0.1,0,0.2,0,0.2c0.2,0.6,0.3,1.2,0.5,1.7c0.1,0.3,0.1,0.7,0.2,1c0,0.4,0.1,0.7,0.1,1.1c0,1.7,0,3.5-0.1,5.2c0,0.4,0,0.7,0,1.1
		c-0.2,0.8-0.5,1.6-0.7,2.4c-0.1,0.3-0.3,0.7-0.4,1c0,0,0,0,0,0c-0.6,1.1-1.2,2.3-1.8,3.4c-0.7,0.7-1.3,1.5-2,2.2
		c-0.5,0-0.7-0.2-0.7-0.7c0-0.1,0-0.2,0-0.3c0.1-0.1,0.2-0.2,0.3-0.4c0,0,0,0,0,0c0.1-0.2,0.2-0.4,0.4-0.7c0.2-0.5,0.5-0.9,0.7-1.4
		c0.3-0.5,0.5-1,0.9-1.7c-0.6,0.1-0.9,0.2-1.2,0.2l0,0c0-0.1,0-0.2,0-0.3c0.9-0.6,2-1.1,1.7-2.5c0.6-2.1,0.6-4.2,0-6.3
		c-0.1-0.6-0.2-1.1-0.4-1.7c-0.2-1.5-0.8-2.8-1.6-4.1c-1.8,0.7-3.2,1.6-4.3,3c-0.1,0.1-0.2,0.3-0.4,0.4l0,0
		c-0.1,0.1-0.2,0.3-0.3,0.4c0,0,0,0,0,0c-0.4,0.6-0.9,1.2-1.3,1.8c-0.1,0.2-0.3,0.4-0.4,0.6c-0.4,0.8-0.7,1.6-1.1,2.4
		c-0.1,0.1-0.1,0.3-0.2,0.4c0,0.1-0.1,0.3-0.1,0.4c-0.1,0.5-0.3,1.1-0.4,1.6c-0.7,1.9-0.3,3.8,0.1,5.6c-0.1,0.6,0,1.2,0.6,1.5
		c0.1,0.3,0.2,0.7,0.4,1l0.2,0l0.2,0l0,0c0.1,0.2,0.3,0.4,0.4,0.6c0.1,0.1,0.2,0.2,0.3,0.3c0.2,0.1,0.4,0.3,0.6,0.4l0,0
		c0,0.8-0.5,0.7-1,0.6c-0.1-0.1-0.3-0.2-0.4-0.3l0,0C30.3,46.5,30,46,29.2,46c-0.2-0.2-0.5-0.5-0.7-0.7c-0.2-0.4-0.5-0.7-0.7-1.1
		c0-0.1,0-0.2,0-0.3c-0.2-0.5-0.4-1-0.7-1.4c-0.6-1.1-0.7-2.3-0.7-3.5c0-0.9,0-1.8,0-2.8c0.1-0.7,0.3-1.4,0.4-2.1c0,0,0,0,0,0
		c0.1-0.4,0.2-0.7,0.3-1.1c0.1-0.1,0.1-0.2,0-0.3l0,0c0.1-0.2,0.2-0.5,0.4-0.7c0.3-0.7,0.7-1.4,1-2.1c0.2-0.4,0.5-0.7,0.7-1.1
		c0.2-0.3,0.5-0.7,0.7-1c0.7-0.7,1.4-1.4,2.1-2.1c1.3-0.8,2.5-1.6,3.9-2.5c-0.7-0.6-1.3-1.2-1.8-1.7c-1.9-2.1-4.2-3.4-6.9-4.2
		c-0.4-0.1-0.7-0.2-1.1-0.4l0,0c-0.7-0.1-1.4-0.2-2.1-0.4c-1.5-0.5-3.1-0.5-4.6,0c-0.7,0.1-1.4,0.3-2.1,0.4
		c-0.4,0.1-0.7,0.2-1.1,0.3c-0.6,0.2-1.2,0.5-1.7,0.7c-0.5,0.2-0.9,0.4-1.4,0.7c-0.3,0.2-0.7,0.5-1,0.7c-0.6,0.5-1.2,1-1.7,1.4
		c-0.5,0.5-0.9,0.9-1.4,1.4c-0.2,0.3-0.5,0.7-0.7,1l0,0c-0.2,0.4-0.5,0.7-0.7,1.1c-0.2,0.3-0.3,0.6-0.5,0.9
		c-0.3,0.8-0.9,1.7-0.8,2.5c0.1,1.2,0.8,2.3,1.2,3.5c0.2,0.5,0.5,1,0.7,1.4c0.5,0.9,0.9,1.9,1.4,2.8c0.1,0.2,0.3,0.4,0.4,0.6l0,0
		c0.1,0.1,0.2,0.2,0.3,0.4c0,0.1,0.1,0.2,0.1,0.2c0,0.1,0,0.3,0,0.4c0,0.1-0.1,0.2-0.1,0.2c0-0.1,0.1-0.2,0.1-0.2
		c0.2,0.1,0.5,0.2,0.7,0.3l0,0c-0.1,0.5,0.2,0.8,0.7,0.7l0,0c-0.1,1-0.9,0.4-1.4,0.7c0,0,0,0,0,0c0-0.2,0-0.4,0-0.7
		c0-0.1,0.1-0.2,0.1-0.2c0,0.1-0.1,0.2-0.1,0.2c-0.2,0-0.4,0-0.6,0l0,0c-0.1-0.3-0.2-0.7-0.4-1c0-0.1,0.1-0.2,0.1-0.2
		c0,0.1-0.1,0.2-0.1,0.2c-0.1,0-0.3,0-0.4,0l0,0c0.2-1.1-0.5-1.5-1.4-1.8c-0.2-0.2-0.5-0.5-0.7-0.7c-0.2-0.4-0.4-0.7-0.6-1.1
		c0-0.1,0-0.2,0-0.4c-0.1-0.3-0.2-0.7-0.3-1c-0.2-0.4-0.5-0.4-0.7,0c-0.1,0-0.2,0-0.3,0c-0.1-1.1,0.2-2.3-0.7-3.3
		c0-0.5,0-0.9-0.1-1.4c-0.9-2.6-0.6-5.2-0.6-7.9c0.2-1,0.5-2.1,0.7-3.1c0.5-1.2,0.9-2.3,1.4-3.5c0.5-0.7,0.9-1.4,0.8-2.3
		c-0.4,0.6-0.8,1.3-1.2,1.9c-0.5,1-0.9,2.1-1.4,3.1c-0.2,0.7-0.5,1.4-0.7,2.1c0,0,0,0,0,0c-0.1,0.3-0.2,0.7-0.3,1
		c-0.2,1.2-0.6,2.4-0.7,3.6c-0.1,2.2-0.1,4.4,0,6.6c0.1,2.4,0.7,4.7,1.8,6.9c0.3,0.7,0.6,1.5,1,2.2c0.1,0.3,0.3,0.6,0.4,0.9
		c0.6,0.9,1.1,1.9,1.7,2.8c0.1,0.1,0.2,0.3,0.3,0.4C7.6,43.4,8,44.1,9,44.2c0.2,0.2,0.5,0.5,0.7,0.7c0,0,0,0,0,0
		c0.1,0.1,0.2,0.2,0.3,0.3l0,0c0.1,0.1,0.2,0.2,0.3,0.4l0,0c0.1,0.1,0.2,0.2,0.4,0.4l0,0c0.1,0.1,0.2,0.2,0.4,0.4l0,0
		c0.1,0.1,0.2,0.2,0.4,0.4l0,0c0.1,0.1,0.2,0.2,0.4,0.3l0,0c0.1,0.1,0.2,0.2,0.4,0.3c0.5,0.3,0.9,0.7,1.4,1c0.9,0.5,1.8,1,2.7,1.5
		c0.2,0.1,0.3,0.2,0.5,0.2l0.1,0.1l0.2,0c0.3,0.1,0.5,0.2,0.8,0.3l0.1,0.1l0.1,0c0.3,0.1,0.5,0.2,0.8,0.3c1,0.3,2.1,0.5,3.1,0.8
		c1.1,0.3,2.3,0.7,3.4,0.9c0.5,0.1,1-0.1,1.5-0.2c0.8-0.1,1.7-0.3,2.5-0.4c0.3-0.1,0.7-0.1,1-0.2c1.4-0.4,2.8-0.8,4.1-1.2
		c0.8-0.4,1.6-0.7,2.4-1.1c0.2-0.1,0.4-0.2,0.7-0.4l0,0c0.3-0.1,0.7-0.2,1-0.4c0.1-0.1,0.3-0.2,0.4-0.3l0,0c0.2-0.4,0.5-0.7,0.7-1.1
		c0.9-0.7,1.9-1.4,2.8-2c0.7-0.8,1.4-1.6,2.1-2.4l0,0c0.1-0.1,0.2-0.3,0.3-0.4c0.4-0.6,0.8-1.1,1.1-1.7c0.3-0.6,0.6-1.2,0.9-1.8
		c0.2-0.6,0.4-1.2,0.6-1.7c0.2-0.5,0.3-0.9,0.5-1.4c0.4-0.2,0.9-0.4,1.4-0.6c0-0.4,0-0.8,0-1.2c0-0.2,0-0.5,0-0.7
		c0.1-0.5,0.2-0.9,0.3-1.4l0,0c0.1-0.5,0.2-0.9,0.3-1.4c0-0.5,0.1-0.9,0.1-1.4c0.2-1.3,0.3-2.7,0.5-4c0.1,0,0.1,0,0.2,0
		c0,1.5,0,2.9,0,4.4c0.1,0.1,0.1,0.2,0,0.3C50.1,30.7,50.6,31.6,50.5,32.5z"/>
	<path class="st1" d="M170.2,22c1.9-1.8,3.9-3.4,6.5-4.2c1.1-0.3,2.2-0.7,3.4-0.8c3.3-0.3,6.6-0.5,10-0.7c-0.2,1.2-0.3,2.1-0.5,2.9
		c-0.7,3.9-1.2,7.8-2.1,11.6c-0.6,2.6-1.3,5.2-2.3,7.6c-1.5,3.6-4.4,5.7-8.1,6.7c-3.3,0.8-6.7,0.6-10-0.1c-0.3-0.1-0.6-0.2-1.2-0.4
		c0.3-1.6,0.6-3.1,0.9-4.9c0.6,0.1,1.1,0.1,1.6,0.3c1.5,0.3,3,0.8,4.6,1c1.1,0.1,2.3-0.3,3.4-0.5c0.4-0.2,0.7-0.4,1.1-0.6
		c1.7-1.2,2.6-2.9,3.1-4.9c0.2-0.6,0.5-1.2,0.7-1.8c-0.1-0.1-0.2-0.1-0.3-0.2c-0.4,0.4-0.8,0.8-1.2,1.3c0,0,0,0,0,0
		c-0.4,0.2-0.7,0.5-1.1,0.7c-1.2,0.6-2.4,1.3-3.7,1.7c-4.5,1.5-7-0.8-7.7-5.1c-0.2-1.1,0-2.3,0-3.5c0.4-1.2,0.9-2.4,1.3-3.5
		c0.1-0.1,0.1-0.2,0.1-0.3c0.2-0.4,0.5-0.7,0.7-1.1l0,0C169.7,22.7,169.9,22.3,170.2,22z M175,24c-0.2,0.4-0.4,0.7-0.7,1.1
		c-0.8,1.3-0.8,2.8-0.7,4.2c0.2,2.6,1.9,3.7,4.3,2.8c1.6-0.6,2.8-1.7,3.3-3.3c0.5-1.5,1-3,1.3-4.5c0.3-1.3,0.5-2.7,0.8-4.3
		C180,20.7,177,21.3,175,24z"/>
	<path d="M118.8,33.4c-1.9,1.5-3.8,2.8-6.2,3.3c-3.2,0.7-5.3-0.5-6.4-3.5c-0.8-2.2-0.7-4.5,0.1-6.7c1.6-4.7,4.9-7.7,9.7-9
		c4-1.1,8.1-1.1,12.2-1.1c0.1,0.2,0.2,0.3,0.2,0.4c-0.8,4.5-1.6,8.9-2.4,13.4c-0.4,2-0.8,4-1.4,5.9c-1.8,5.8-6.1,9.1-12.2,9.5
		c-2.7,0.2-5.3-0.1-8-1c0.3-1.7,0.6-3.2,0.9-5c0.7,0.2,1.2,0.3,1.7,0.4c1.6,0.3,3.2,0.8,4.8,0.9c2.7,0.2,4.9-1,6.2-3.4
		c0.6-1.1,0.9-2.2,1.4-3.4c0.1-0.4,0.3-0.8,0.4-1.2c-0.1,0-0.2-0.1-0.4-0.1C119.1,33,118.9,33.2,118.8,33.4z M121.9,20.1
		c-2.8,0.3-5.1,0.9-7.1,2.4c-2.4,1.8-3.3,4.3-2.9,7.2c0.3,2.4,2.1,3.4,4.3,2.6c2-0.7,3.2-2.1,3.7-4.1
		C120.6,25.6,121.2,23,121.9,20.1z"/>
	<path d="M55.7,44.4c2.5-9.4,5-18.6,7.6-28c1.4,0,2.9,0,4.7,0c-0.1,1.1-0.3,2.2-0.4,3.4c1.1-0.6,2-1.2,2.9-1.6
		c2.2-1.1,4.5-1.8,7-1.4c3,0.6,4.5,2.4,4.7,5.4c0.1,1.9-0.4,3.7-1.1,5.4c-2.5,5.9-6.2,9.1-14.8,8.7c-0.8,0-1.6-0.1-2.6-0.2
		c-0.7,2.8-1.3,5.5-2,8.2C59.7,44.4,57.7,44.4,55.7,44.4z M65,32.9c3.5-0.3,6.4-1,8.9-2.9c1.9-1.5,2.8-3.5,2.7-5.9
		c-0.1-2.6-1.9-4-4.5-3.5c-2.4,0.5-4.1,1.9-4.9,4.3C66.4,27.5,65.8,30,65,32.9z"/>
	<path class="st2" d="M245.1,33.5c-3.2,2.6-6.8,4-11,3.5c-4-0.5-6.8-3.9-6.4-8.2c0.6-6.5,6.6-11.1,11.1-12.2
		c1.9-0.4,3.7-0.6,5.6-0.1c4.7,1.2,6.2,5.5,5.4,9.3c-0.5,2.2-1.5,4.2-3,6c-0.3,0.3-0.5,0.6-0.8,1l0,0
		C245.7,33,245.4,33.2,245.1,33.5z M236,32.8L236,32.8c0.9,1,1.9,0.6,2.8,0c3.3-1.2,5.5-6.6,5.2-9.1c-0.4-2.7-2.5-3.9-4.9-2.5
		c-2.1,1.2-3.4,3-4.1,5.3c-0.7,0.9-0.7,2-0.7,3.1c0,0.8-0.2,1.7,0.7,2.2l0,0C234.9,32.4,235.3,32.8,236,32.8z"/>
	<path class="st1" d="M148.5,34.8c-2.6-3.4-2.8-7-1-10.8c0.1-0.2,0.2-0.4,0.2-0.6c0.2-0.4,0.4-0.7,0.7-1.1c3.1-4.3,7.3-6.2,12.5-6.3
		c0.6,0,1.2,0,1.7,0c0.3,0.1,0.5,0.3,0.8,0.4c3.2,0.9,4.8,5.2,3.1,8.2c-0.2,0.4-0.4,0.8-0.7,1.1c-3.8,3.3-8.4,3.3-13.1,3
		c-0.9,2-0.1,3.5,1.9,4.1c2.3,0.6,4.6,0,6.9-0.4c0.6-0.1,1.1-0.3,2-0.5c-0.2,1.3-0.3,2.4-0.6,3.5c-0.1,0.3-0.7,0.7-1.1,0.7
		c-2.6,0.3-5.1,0.9-7.8,0.7c-1.6-0.1-3.2-0.5-4.6-1.4C149.2,35.3,148.8,35.1,148.5,34.8z M158.9,24.1c0.4-0.1,0.7-0.2,1.1-0.3
		c1-0.9,1.3-1.9,0.8-2.7c-0.5-0.8-1.5-1-2.8-0.6c-1.4,0.5-2.6,1.1-3.4,2.5c-0.9,0.2-0.6,1-1,1.6c1.5,0,2.9-0.1,4.3-0.1
		C158.4,24.3,158.6,24.2,158.9,24.1C158.9,24.1,158.9,24.1,158.9,24.1z"/>
	<path d="M106.2,16.4c-2.2,6.7-3.7,13.3-4,20.2c-1.7,0-3.3,0-5.1,0c0.1-1.2,0.1-2.4,0.2-3.8c-0.6,0.4-1,0.7-1.3,1
		c-1.7,1.4-3.6,2.5-5.9,2.9c-3,0.6-5-0.4-6.1-3.2c-1-2.5-0.9-5,0.1-7.5c1.8-4.6,5.2-7.5,10-8.6C97.9,16.5,101.9,16.5,106.2,16.4z
		 M99.6,20.1c-2.7,0.3-5,0.9-7.1,2.3c-2.5,1.8-3.4,4.4-3,7.3c0.3,2.2,1.9,3.2,4.1,2.5c1.9-0.6,3.2-1.9,3.8-3.8
		C98.3,25.8,98.9,23.1,99.6,20.1z"/>
	<path class="st1" d="M201.9,31.4c1.9-1.4,2.3-3.5,3-5.5c0.9-2.7,1.5-5.4,2.3-8.2c0.3-1.1,0.5-1.3,1.8-1.3c1.3,0,2.5,0,3.8,0
		c-1.6,6.6-3.1,13.1-4.7,19.8c-1.3,0-2.8,0-4.6,0c-0.1-0.9-0.1-1.8-0.2-2.9c-0.5,0.4-0.9,0.6-1.3,0.9c-2.3,1.7-4.8,2.9-7.8,2.9
		c-2,0-3.9-2.2-4-3.8c-0.1-2.6,0.3-5.1,1-7.5c0.8-2.8,1.7-5.5,2.5-8.3c0.2-0.8,0.6-1,1.3-1c1.4,0,2.8,0,4.2,0
		c0.4,1.9-0.6,3.3-0.9,4.8c-0.3,1.5-0.7,3-1.1,4.5c-0.4,1.6-1,3.1-1.3,4.7c-0.1,0.5,0.4,1.1,0.6,1.7l0,0c0.4,1.2,1.4,0.6,2.1,0.7
		c0.2,0,0.5,0,0.7-0.1C200.5,32.8,201.2,32.1,201.9,31.4z"/>
	<path class="st1" d="M138,21.6c-0.5,0.8-0.3,1.6,0.4,2.1c0.9,0.7,1.8,1.4,2.7,2.1c0.3,0.3,0.7,0.5,1,0.8c2.1,2.6,2.4,4.7,0.8,7.1
		c-0.9,1.5-2.5,2.1-4,2.5c-2.7,0.7-5.5,0.7-8.3,0.3c-1-0.2-2-0.3-3.2-0.4c0.6-1.4,1.1-2.6,1.5-3.8c0.5,0,0.9-0.1,1.4-0.1
		c1.1,0.4,2.3,0.7,3.4,1.1c1.2,0.4,2.2,0.1,3.2-0.4c1.2-0.6,1.4-1.8,0.5-2.9c-0.3-0.4-0.8-0.7-1.2-0.9c-1-0.6-2-1.2-3-1.7
		c-2.3-1.1-3-3.8-1.5-6.4c0.8,0.1,0.8-0.5,0.7-1.1l0,0c0.1,0,0.3,0,0.4,0c0.1,0,0.2,0.1,0.2,0.1c-0.1,0-0.2-0.1-0.2-0.1
		c0-0.1,0-0.3,0-0.4c0,0,0,0,0,0c0.1-0.1,0.2-0.3,0.4-0.4c0-0.1,0-0.2,0.1-0.2c0.3-0.2,0.7-0.5,1-0.7c3.6-2.5,7.6-2.5,11.9-1.7
		c-0.3,1.6-0.5,3-0.8,4.5c-2.2-0.4-4.2-1.2-6.2-0.4C138.4,20.6,138,20.9,138,21.6z"/>
	<path class="st3" d="M211.9,34.9c0.7-2.1,1.5-4.1,2-6.2c0.7-2.7,1.3-5.4,2-8c0.1-0.6,0.2-1.1,0.3-1.7c0.2-0.7,0.4-1.4,0.6-2.2
		c1.4-0.6,2.9-0.2,4.4-0.2c0,1.3,0,2.5,0,3.6c3.4-3.2,6.3-3.9,8.7-3.3c-0.5,1.6-1,3.2-1.5,4.8c-0.8,0.1-1.5,0.2-2.2,0.4
		c-2.6,0.6-4.1,2.5-5.3,4.7c-1.5,2.8-2.1,5.9-2.7,8.9c0,0.2-0.1,0.4-0.2,0.8c-1.6,0-3.1,0-4.7,0c-0.5-0.2-0.9-0.3-1.4-0.5
		C212,35.4,211.9,35.1,211.9,34.9z"/>
	<path class="st4" d="M238.7,47.9c0,4-2.9,7.1-6.8,7.1c-3.9,0-6.8-3.1-6.8-7.1c0-4.1,2.9-7.1,6.8-7.1
		C235.8,40.8,238.7,43.9,238.7,47.9z M234.1,48c0-1.5-0.9-2.6-2.1-2.7c-1.2,0-2.1,1.1-2.2,2.5c-0.1,1.5,0.9,2.6,2.1,2.6
		C233.2,50.5,234.1,49.4,234.1,48z"/>
	<path class="st4" d="M218.7,41.2c1.6,0,2.9,0,4.4,0c0,0.4,0.1,0.8,0.1,1.2c0,2.4,0,4.9,0,7.3c0,2.4-1.1,4.2-3.4,5
		c-2.5,0.9-4.8,0.6-6.8-1.3c-0.9-0.8-1.3-1.9-1.3-3.1c-0.1-2.9,0-5.9,0-9c1.5,0,2.9,0,4.5,0c0,2.1,0,4.2,0,6.2c0,0.6,0,1.3,0.1,1.9
		c0.1,0.7,0.4,1.4,1.3,1.3c0.8,0,1.1-0.6,1.1-1.3c0.1-1.3,0.1-2.5,0.1-3.8C218.7,44.2,218.7,42.7,218.7,41.2z"/>
	<path class="st5" d="M240.7,41.2c1.5,0,2.9,0,4.4,0c0,1.6,0,3,0,4.5c0,1.4,0,2.9,0,4.5c1.5,0,2.9,0,4.3,0c0,1.6,0,2.9,0,4.4
		c-2.9,0-5.8,0-8.8,0C240.7,50.2,240.7,45.8,240.7,41.2z"/>
	<path class="st6" d="M165.9,25.8c0.2-0.4,0.5-0.8,0.7-1.1c1.7-3,0.1-7.3-3.1-8.2c-0.3-0.1-0.5-0.2-0.8-0.4c2.1-0.5,3.3,0.8,4.2,2.4
		c0.1,0,0.2,0.1,0.2,0.1c-0.1,0-0.2-0.1-0.2-0.1c0.2-0.4,0.4-0.8,0.7-1.5c0.3,1.1,0.6,2,0.8,3c-0.8,1.3-0.4,2.8-0.2,4.3
		c0,0.1,0.3,0.1,0.5,0.1c-0.4,1.2-0.9,2.4-1.3,3.5C167.4,26.9,167.1,26.1,165.9,25.8z"/>
	<path class="st7" d="M39,4.9c-0.1-0.1-0.2-0.1-0.3-0.1c-0.1-0.1-0.3-0.2-0.4-0.3l0,0c-0.1-0.1-0.2-0.2-0.4-0.3l0,0
		c-0.2-0.1-0.4-0.3-0.7-0.4l0,0c-0.1-0.1-0.3-0.2-0.4-0.3l0,0c-0.1-0.2-0.2-0.5-0.3-0.7c0.9,0.4,1.8,0.7,2.5,1.3
		c1.7,1.3,3.2,2.8,4.8,4.2c0,0.2,0,0.3,0,0.5c-0.6-0.5-1.2-1-1.7-1.4C42,7.2,41.9,7.1,41.7,7c0-0.1-0.1-0.2-0.1-0.3
		c0,0.1,0,0.2,0,0.3c-0.1,0-0.1,0-0.2,0c-0.3-0.2-0.7-0.5-1-0.7C40.3,6.1,40.2,6,40,5.9l0,0c-0.1-0.1-0.2-0.2-0.4-0.3l0,0
		c-0.1-0.1-0.2-0.2-0.4-0.3l0,0C39.2,5.1,39.1,5,39,4.9z"/>
	<path class="st8" d="M50.9,29.7c0-1.5,0-2.9,0-4.4c-0.1,0-0.1,0-0.2,0c-0.2,1.3-0.3,2.7-0.5,4c0-0.5-0.1-0.9-0.1-1.4
		c0-1.9,0-3.9,0-5.8c0-0.3,0-0.5,0.1-0.8c0.1,0,0.2,0,0.3,0c0,0.2,0.1,0.4,0.1,0.6c0.1,0.6,0.2,1.2,0.3,1.8
		C51.2,25.7,51.4,27.7,50.9,29.7z"/>
	<path class="st9" d="M196.6,32.1c-0.2-0.6-0.7-1.2-0.6-1.7c0.3-1.6,0.8-3.1,1.3-4.7c0,1,0,1.9,0,2.9l0,0c-0.5,0-0.7,0.2-0.7,0.7
		C196.6,30.2,196.6,31.2,196.6,32.1z"/>
	<path class="st9" d="M201.9,31.4c-0.7,0.7-1.4,1.4-2.5,1.3c0.1-0.7-1.3-1-0.6-1.7C199.9,31.2,200.9,31.3,201.9,31.4z"/>
	<path class="st10" d="M48.8,16c0.4,1.3,0.9,2.6,1.3,3.9c-0.1,0.2-0.3,0.3-0.4,0.5c-0.1-0.1-0.2-0.1-0.3-0.1c0-0.2-0.1-0.5-0.1-0.7
		c-0.1-0.2-0.2-0.5-0.3-0.7c-0.1-0.6-0.3-1.1-0.4-1.7c0-0.3,0-0.7,0-1C48.8,16.1,48.8,16,48.8,16z"/>
	<path class="st11" d="M47.4,13.2c0.5,0.9,0.9,1.9,1.4,2.8c0,0.1,0,0.1-0.1,0.2c-0.1,0-0.3,0-0.4,0c-0.2-0.3-0.4-0.5-0.6-0.8
		c-0.2-0.6-0.4-1.1-0.7-1.7C47.2,13.4,47.3,13.3,47.4,13.2z"/>
	<path class="st12" d="M179.8,34.1c0.4-0.4,0.8-0.8,1.2-1.3c0.1,0.1,0.2,0.1,0.3,0.2c-0.2,0.6-0.5,1.2-0.7,1.8
		C180.6,34.4,180.3,34.1,179.8,34.1z"/>
	<path class="st13" d="M36.6,2.7c0.1,0.2,0.2,0.5,0.3,0.7C36,3.3,35.2,2.9,34.8,2C35.4,2.2,36,2.5,36.6,2.7z"/>
	<path class="st14" d="M211.9,34.9c0,0.3,0,0.6,0.1,0.9c0.5,0.2,0.9,0.3,1.4,0.5c-0.7,0-1.3,0-2.3,0
		C211.4,35.6,211.7,35.2,211.9,34.9z"/>
	<path class="st9" d="M198.7,32.8c-0.7-0.1-1.7,0.5-2.1-0.7c0.5,0,1.1,0,1.6,0.2C198.4,32.3,198.5,32.6,198.7,32.8z"/>
	<path class="st15" d="M216.8,16.7c-0.2,0.7-0.4,1.4-0.6,2.2C216,18.1,216.1,17.3,216.8,16.7z"/>
	<path class="st16" d="M45.2,9.7c0.3,0.4,0.5,0.8,0.8,1.3c0,0.2,0,0.4-0.1,0.6c-0.1,0-0.2-0.1-0.3-0.1c-0.3-0.6-0.7-1.1-1-1.7
		c0.1,0,0.2,0,0.3,0C45,9.7,45.1,9.7,45.2,9.7z"/>
	<path class="st9" d="M197.3,28.6c1,0.1,0.6,0.7,0.6,1.2c-0.2,0-0.3,0.1-0.5,0.1C197.4,29.5,197.3,29,197.3,28.6L197.3,28.6z"/>
	<path class="st17" d="M130.4,32c-0.5,0-0.9,0.1-1.4,0.1c0.1-0.2,0.2-0.5,0.3-0.7C129.6,31.6,130,31.8,130.4,32z"/>
	<path class="st8" d="M50.5,32.5c0-0.8-0.4-1.7,0.3-2.5C50.8,30.8,50.6,31.6,50.5,32.5z"/>
	<path class="st6" d="M169.4,23c-0.2,0.4-0.5,0.7-0.7,1.1C168.4,23.2,168.4,23.2,169.4,23z"/>
	<path class="st18" d="M138,21.6c0-0.7,0.4-1,1-1.1C138.8,21,138.7,21.6,138,21.6z"/>
	<path class="st19" d="M49.7,20.3c0.1-0.2,0.3-0.3,0.4-0.5c0,0.2,0,0.3,0.1,0.5c0,0.3,0,0.6,0,0.9c0,0.3,0,0.5-0.1,0.8
		c-0.1-0.1-0.2-0.1-0.3-0.1C49.8,21.4,49.8,20.8,49.7,20.3z"/>
	<path class="st20" d="M46.6,11.8c0.2,0.4,0.4,0.7,0.6,1.1c-0.1,0.1-0.2,0.2-0.3,0.3c-0.3-0.5-0.5-0.9-0.8-1.4
		C46.4,11.9,46.5,11.9,46.6,11.8z"/>
	<path class="st21" d="M245.1,33.5c0.3-0.3,0.6-0.5,1-0.8C246.2,33.5,245.6,33.5,245.1,33.5z"/>
	<path class="st22" d="M132.4,19.8c0,0.5,0.1,1.1-0.7,1.1C131.9,20.5,132.2,20.2,132.4,19.8z"/>
	<path class="st19" d="M50.8,23.7c-0.1-0.6-0.2-1.2-0.3-1.8C50.6,22.5,50.7,23.1,50.8,23.7z"/>
	<path class="st23" d="M118.8,33.4c0.2-0.2,0.3-0.4,0.5-0.6c0.1,0,0.2,0.1,0.4,0.1c-0.1,0.4-0.3,0.8-0.4,1.2
		C119.1,33.9,118.9,33.7,118.8,33.4z"/>
	<path class="st24" d="M148.5,34.8c0.3,0.2,0.7,0.5,1,0.7C149,35.6,148.4,35.6,148.5,34.8z"/>
	<path class="st25" d="M246.1,32.7c0.3-0.3,0.5-0.6,0.8-1C246.6,32.1,246.3,32.4,246.1,32.7z"/>
	<path class="st8" d="M50.2,34.2c0.1-0.5,0.2-0.9,0.3-1.4C50.4,33.2,50.3,33.7,50.2,34.2z"/>
	<path class="st26" d="M142.2,26.6c-0.3-0.3-0.7-0.5-1-0.8C141.7,25.8,142.1,26,142.2,26.6z"/>
	<path class="st27" d="M148.5,22.3c-0.2,0.4-0.4,0.7-0.7,1.1C148,23,148.2,22.7,148.5,22.3z"/>
	<path class="st6" d="M170.2,22c-0.2,0.3-0.5,0.7-0.7,1C169.4,22.5,169.6,22.1,170.2,22z"/>
	<path class="st28" d="M178.8,34.8c0.4-0.2,0.7-0.5,1.1-0.7C179.7,34.7,179.3,34.9,178.8,34.8z"/>
	<path class="st29" d="M177.4,39.8c-0.4,0.2-0.7,0.4-1.1,0.6C176.7,40.2,177.1,40,177.4,39.8z"/>
	<path class="st30" d="M134.2,18.1c-0.3,0.2-0.7,0.5-1,0.7C133.5,18.6,133.8,18.4,134.2,18.1z"/>
	<path class="st6" d="M169,21.6c-0.1-0.1-0.1-0.3-0.2-0.4c0,0,0.2-0.2,0.3-0.1c0.1,0.1,0.2,0.2,0.2,0.4
		C169.2,21.4,169.1,21.5,169,21.6z"/>
	<path class="st31" d="M43.9,8.7c0-0.2,0-0.3,0-0.5c0.2,0.3,0.4,0.5,0.7,0.8l0,0.1c-0.1-0.1-0.2-0.1-0.3-0.1C44.1,9,44,8.8,43.9,8.7
		z"/>
	<path class="st32" d="M46.6,11.8c-0.1,0-0.3,0-0.4,0c-0.1-0.1-0.2-0.2-0.3-0.3c0-0.2,0-0.4,0.1-0.6C46.2,11.3,46.4,11.5,46.6,11.8z
		"/>
	<path class="st33" d="M45,9.7c-0.1,0-0.2,0-0.3,0c0-0.1,0-0.2-0.1-0.4c0-0.1,0-0.1,0-0.2l0-0.1c0.1,0.1,0.3,0.3,0.4,0.4
		C44.9,9.6,44.9,9.6,45,9.7z"/>
	<path class="st34" d="M47,13.3c0.1-0.1,0.2-0.2,0.3-0.3c0.1,0.1,0.1,0.2,0.1,0.3c-0.1,0.1-0.2,0.3-0.3,0.4C47,13.5,47,13.4,47,13.3
		z"/>
	<path class="st9" d="M197.9,30.9c0,0.1-0.1,0.2-0.1,0.3c0,0-0.1-0.1-0.1-0.1c0-0.1,0.1-0.2,0.1-0.3
		C197.9,30.9,197.9,30.9,197.9,30.9z"/>
	<path class="st10" d="M50.1,21.3c0-0.3,0-0.6,0-0.9c0.1,0.3,0.2,0.6,0.3,0.9C50.3,21.3,50.2,21.3,50.1,21.3z"/>
	<path class="st22" d="M133.1,19.1c-0.1,0.1-0.2,0.3-0.4,0.4C132.9,19.4,133,19.2,133.1,19.1z"/>
	<path class="st22" d="M132.7,19.5c0,0.1,0,0.3,0,0.4c0,0,0,0,0,0c-0.1,0-0.3,0-0.4,0C132.5,19.7,132.6,19.6,132.7,19.5z"/>
	<polygon class="st9" points="197,31.5 197.1,31.5 197.1,31.6 	"/>
	<path class="st35" d="M45,9.7c0-0.1,0-0.2,0-0.3c0.1,0.1,0.2,0.1,0.2,0.2C45.1,9.7,45,9.7,45,9.7z"/>
	<path class="st36" d="M7.6,31.4c-0.4-1.2-1.1-2.3-1.2-3.5c-0.1-0.8,0.5-1.7,0.8-2.5c0.1-0.3,0.3-0.6,0.5-0.9c0.7,0,0.7-0.6,0.7-1.1
		l0,0c0.2-0.2,0.5-0.4,0.7-0.7c0.5-0.6,0.9-1.1,1.4-1.7c0.6-0.5,1.2-1,1.7-1.4c0.2,0,0.5,0,0.7,0c0,0.2,0.1,0.4,0.1,0.7
		c0,0.2-0.3,0.4-0.3,0.5c0.9,1.4,0.5,3.1,1.1,4.5c0.3,0.7,0,1.3,0.5,2.1c1.7,2.6,3.5,4.9,5.8,6.9c1.6,1.4,3.5,2.5,5.7,2.7
		c0.1,0,0.3,0.1,0.3,0c0.1-0.2,0.2-0.5,0.3-0.7c0,0.9,0,1.8,0,2.8c0,1.2,0.2,2.4,0.7,3.5c0.2,0.5,0.4,1,0.7,1.4c0,0.1,0,0.2,0,0.3
		c-0.5,0-1.1,0.1-1.6,0.1c-1.3-0.1-2.6-0.3-3.9-0.4c-0.2-0.5-1.4-0.3-0.9-1.4c-0.6,0-1.2-0.2-1.2,0.8c-1.3-0.1-2.4-0.8-3.5-1.5
		c0-0.8-0.6-0.7-1.1-0.7c-1.3-0.9-2.5-1.9-3.8-2.8l0,0c-0.2-0.2-0.5-0.5-0.7-0.7l0,0c-0.2-0.3-0.5-0.5-0.7-0.8c0-0.1,0-0.2-0.1-0.2
		c-0.1-0.1-0.2-0.2-0.3-0.4l0,0c-0.1-0.2-0.3-0.4-0.4-0.6c-0.5-0.9-0.9-1.9-1.4-2.8C8,32.3,7.8,31.9,7.6,31.4z"/>
	<path class="st37" d="M28.5,45.3c0.2,0.2,0.5,0.5,0.7,0.7c0.5,0.4,0.9,0.7,1.4,1.1l0,0c0,0.1,0,0.2,0,0.3c-0.2,0-0.5,0-0.7,0
		c-0.5,0.1-0.9,0.2-1.4,0.3c-0.5,0.1-0.9,0.1-1.4,0.2c-0.8,0.2-1.7,0.5-2.5,0.5c-2.7,0.1-5.4,0-7.9-1.5c-0.3-0.2-0.8-0.2-1.2-0.3
		c-0.3-0.1-0.7-0.2-1-0.4c-0.1-0.2-0.2-0.4-0.4-0.5c-1.3-1.3-2.7-2.6-4-3.9c-0.1-0.1-0.3-0.1-0.5-0.1c-0.8-1.5-2-2.8-2.4-4.6
		c-0.2-0.8-0.5-1.6-0.8-2.4l0.2,0l0.2,0c0.2,0.2,0.5,0.5,0.7,0.7C8,36.2,8.5,36.7,9,37.3l0,0c0.3,0.3,0.5,0.6,0.8,1l0,0
		c0.2,0.2,0.4,0.5,0.7,0.7l0,0c0.6,0.6,1.2,1.2,1.9,1.7c2.6,2,5.5,3.5,8.8,3.9c0.3,0.1,0.5,0.3,0.8,0.3
		C24.1,45.1,26.3,45.2,28.5,45.3z"/>
	<path class="st38" d="M26.4,36.3c-0.1,0.2-0.2,0.5-0.3,0.7c0,0-0.2,0-0.3,0c0.1-1.1-0.4-1.7-1.5-2.1c-1.4-0.6-2.9-1.3-4-2.4
		c-1.5-1.5-3.1-3.1-3.9-5.3c-0.4-1.2-1.5-2.3-1.7-3.5c-0.3-1.8-0.1-3.6-0.1-5.4c0.6-0.2,1.2-0.5,1.7-0.7c0.2,0.4,0.4,0.8-0.3,0.7
		c-0.1,0-0.2-0.1-0.2-0.1c0.1,0,0.2,0.1,0.2,0.1c0.1,0.5-0.4,1.3,0.7,1.4c-0.2,0.3-0.3,0.7-0.5,1.1c0.2,0.3,0.5,0.6,0.5,0.9
		c-0.1,1.6,0.8,2.8,1.2,4.2c0.2,0.6,0.3,1.3,0.7,1.7c1.3,1.1,1.9,2.9,3.5,3.6c0.1,0.1,0.3,0.2,0.4,0.4c0.8,1,1.8,1.6,2.8,1.4
		c0.7,0.6,1.1,0.9,1.5,1.3C26.7,34.9,26.5,35.6,26.4,36.3z"/>
	<path class="st39" d="M14.6,18.1c0,1.8-0.2,3.7,0.1,5.4c0.2,1.2,1.3,2.3,1.7,3.5c0.8,2.2,2.3,3.8,3.9,5.3c1.1,1.1,2.6,1.8,4,2.4
		c1.1,0.5,1.6,1,1.5,2.1c-2.2-0.3-4.1-1.3-5.7-2.7c-2.3-2-4.2-4.4-5.8-6.9c-0.5-0.7-0.2-1.4-0.5-2.1c-0.6-1.4-0.3-3.1-1.1-4.5
		c0-0.1,0.3-0.3,0.3-0.5c0-0.2-0.1-0.4-0.1-0.7c0.1-0.2,0.2-0.5,0.4-0.7C13.6,18.6,14.1,18.4,14.6,18.1z"/>
	<path class="st40" d="M34.1,21.6c0.6,0.5,1.1,1.1,1.8,1.7c-1.4,0.9-2.6,1.7-3.9,2.5c-0.5-0.2-1.2-0.8-1.6-0.7
		c-1.1,0.3-1.9-0.3-2.6-0.8c-1.7-1.1-2.7-2.6-3-4.7c-0.1-0.4-0.1-0.9-0.2-1.4c0.2-0.1,0.5-0.3,0.9-0.5c-0.4-0.2-0.7-0.4-1.2-0.7
		c0.8,0,1.3,0,1.8,0l0,0c0.1,0.1,0.2,0.3,0.3,0.4c0.3,0.3,0.6,0.5,0.8,0.7c0,0.9-0.1,1.7-0.1,2.1c1.1,1.8,2,3.3,4.2,2.7
		c0,0-0.1,0.1-0.1,0.1c0.2,0.2,0.3,0.4,0.5,0.5c0.1-0.1,0.1-0.1,0.2-0.2c-0.2-0.2-0.4-0.3-0.6-0.4c0.3-0.4,0.5-0.8,0.8-1.3
		C33.5,22.5,33.5,22.5,34.1,21.6z M25.8,17.9L25.8,17.9L25.8,17.9L25.8,17.9z"/>
	<path class="st41" d="M21.8,2.4c1.3-0.2,2.6-0.4,3.9-0.6C25.5,1.9,25.3,2,25,2.1c-0.6-0.1-1.1,0-1.4,0.7c-0.3,0.8-0.9,1.4-1,2.3
		c-0.2,1.4-0.9,2.6-1.1,4.1c-0.2,1.1,0,2.2,0,3.4c0.5,0.1,0.9,0.2,1.4,0.3c0.7,0.1,1.4,0.2,2,0.3c-1.5,0-3,0.1-4.4,0.1
		c-0.5,0-1,0-1.5,0c-0.1-0.4-0.2-0.6-0.2-0.9c0-1.3-0.3-2.6,0.1-3.7c0.2-0.7,0.5-1.3,0.5-2.1c-0.1-1,0.4-1.8,0.8-2.5
		c-0.3-0.3-0.5-0.6-0.8-0.9l0,0c0.3-0.1,0.7-0.2,1-0.4c0.2-0.1,0.5-0.2,0.7-0.2c-0.1,0.2-0.1,0.3-0.2,0.6c0.6-0.2,1.2-0.3,1.7-0.5
		c0-0.1,0-0.1,0-0.2C22.4,2.4,22.1,2.4,21.8,2.4z"/>
	<path class="st42" d="M28.6,30c-0.3,0.7-0.7,1.4-1,2.1c-0.1,0.2-0.2,0.5-0.4,0.7l0,0c-0.1-0.1-0.3-0.3-0.4-0.4
		c0-0.4,0.1-0.9-0.6-1.1c-0.8-0.2-1.6-0.6-2.4-1c-2.6-1.4-3.8-4-5.1-6.4c-0.3-0.5-0.5-1.1-0.5-1.6c-0.1-0.6,0.1-1.2,0.1-2.1
		c-0.6-0.9-0.6-1.1,0.3-2.1c0.5,0.3,1.2,0.5,1.3,0.8c0.1,0.5-0.2,1.1-0.4,1.8c0.1,0.2,0.5,0.6,0.4,0.9c-0.1,1.7,0.7,3.1,1.5,4.3
		c1.3,1.8,2.6,3.8,5.2,3.5c0.3,0.6,0.5,1.1,0.7,1.5C27.9,30.5,28.2,30.2,28.6,30L28.6,30z"/>
	<path class="st43" d="M29.9,14.3c-0.7-0.2-1.4-0.4-2.1-0.7c0.4-0.2,0.9-0.4,1.3-0.6c-0.8-1.6-0.9-3.3-0.1-4.9
		c0.5-1.1,1.3-2,1.9-2.9c1.5-0.4,2.8-0.9,4.2-1.3c0.2,0.1,0.5,0.2,0.7,0.3c0.1,0,0.3,0,0.4,0l0,0c0.2,0.1,0.5,0.3,0.7,0.4l0,0
		c0.2,0.1,0.4,0.3,0.7,0.4l0,0c0.1,0.1,0.3,0.2,0.4,0.3l0,0c0.1,0.1,0.3,0.2,0.4,0.3l0,0c0.2,0.1,0.4,0.3,0.6,0.4l0,0
		c0.1,0.1,0.3,0.2,0.4,0.3l0,0c0.1,0.1,0.3,0.2,0.4,0.3l0,0c0.1,0.2,0.2,0.4,0.4,0.6c-0.4,0.1-0.7,0.3-1.1,0.4
		c-0.8,0.2-1.5-0.2-2.1-0.7c0-0.8-0.7-0.5-1.1-0.8c-1.1-0.8-2-0.7-3.2-0.2c-1.3,0.5-2.2,1.3-2.5,2.5c-0.2,0.9-0.1,1.8-0.2,2.7
		c-0.1,1.1,0.4,1.7,1.4,2c0,0.5-0.2,0.7-0.7,0.7C30.4,14,30.2,14.2,29.9,14.3z"/>
	<path class="st44" d="M30,27.9c-0.2,0.3-0.5,0.7-0.7,1c-0.1,0-0.3,0-0.4,0c-0.5-0.2-1-0.4-1.6-0.5c-0.1-0.3-0.3-0.7-0.4-1.2
		c-0.3,0.2-0.6,0.4-0.8,0.5c-0.1-0.1-0.2-0.1-0.3-0.2c-2.6-1.8-3.7-4.6-4.5-7.5c0.6-1.1-0.1-2.2,0.2-3.3c0.5,0,0.9,0,1.4,0
		c0,0.5,1.1,0.7,0.4,1.4c-0.2,0.2,0.1,0.9,0.1,1.4c0,0.6-0.1,1.2-0.2,2c0.4,1.2,1.4,2.4,2.4,3.6c0.9,1,2,1,3,1.6
		c0.3,0.2,1-0.3,1.9-0.5c-0.4,0.7-0.6,1.1-0.9,1.6c0,0.1-0.1,0.2-0.1,0.2c0-0.1,0.1-0.2,0.1-0.2C29.7,27.9,29.8,27.9,30,27.9z"/>
	<path class="st45" d="M3.5,19.9c0,2.6-0.3,5.3,0.6,7.9c0.1,0.4,0.1,0.9,0.1,1.4c0,2,0,3.9-0.1,5.9c0,0.4-0.2,0.8-0.3,1.2
		c-1-2.2-1.7-4.5-1.8-6.9c-0.1-2.2-0.1-4.4,0-6.6c0.1-1.2,0.5-2.4,0.7-3.6c0.1-0.3,0.2-0.7,0.3-1l0,0C3.2,18.7,3.3,19.3,3.5,19.9z"
		/>
	<path class="st46" d="M30,27.9c-0.1,0-0.3,0-0.4,0l0,0c0.3-0.5,0.5-0.9,0.9-1.6c-0.8,0.3-1.6,0.7-1.9,0.5c-0.9-0.6-2.1-0.7-3-1.6
		c-1.1-1.2-2-2.4-2.4-3.6c0.1-0.8,0.2-1.4,0.2-2c0-0.5-0.3-1.1-0.1-1.4c0.7-0.8-0.3-1-0.4-1.4c0.4,0,0.7,0,1.1-0.1
		c0.7,0.1,1.4,0.2,2.1,0.4c-0.5,0-1,0-1.8,0c0.5,0.3,0.8,0.5,1.2,0.7c-0.4,0.2-0.7,0.4-0.9,0.5c0.1,0.5,0.1,1,0.2,1.4
		c0.3,2,1.4,3.6,3,4.7c0.7,0.5,1.5,1.1,2.6,0.8c0.4-0.1,1.1,0.4,1.6,0.7C31.4,26.5,30.7,27.2,30,27.9z"/>
	<path class="st47" d="M33.4,29.2c1.1-1.4,2.6-2.4,4.3-3c0.8,1.3,1.5,2.6,1.6,4.1c0,0.9,0,1.9-1.2,1.8c-1.5-0.1-3.4,0.6-4.1-1.6
		c0-0.1-0.2-0.1-0.3-0.2c-0.1,0-0.2,0-0.3,0c-0.2-0.1-0.5-0.2-0.7-0.4c0,0,0,0,0,0c0.1-0.1,0.2-0.3,0.3-0.4l0,0
		C33.1,29.4,33.2,29.3,33.4,29.2z"/>
	<path class="st48" d="M43.8,23.4l-0.1,0l-0.1-0.1c-0.2-0.1-0.5-0.2-0.7-0.3c-0.4-0.1-0.7-0.2-1.1-0.3c0.1,0,0.2,0,0.3-0.1
		c0.1,0,0.1,0,0.2-0.1c0,0,0.1-0.1,0.1-0.2c-0.5-0.3-1.4,0.2-1.8-0.7c0.4-0.1,0.7-0.1,1.1-0.2c0.1-0.4,0.2-0.7,0.3-1.1
		c0.4-0.2,0.8-0.3,1.3-0.4c0-0.5,0-0.8,0-1.1l0,0c0.8-0.2,1.2-0.6,1.4-1.4c0.1-1.2,0.3-2.3,0.4-3.5c1,1.8,1.6,3.8,1.8,5.9
		c0,0.8,0,1.7,0,2.5c-0.2-0.2-0.3-0.5-0.4-0.4c-0.7,0.2-1.5,0.5-2.3,0.7c0.1,0.3,0.2,0.5,0.3,0.8C44.1,23.4,43.9,23.4,43.8,23.4z"/>
	<path class="st49" d="M14.5,5.8c0.9-0.6,1.8-1.1,2.8-1.7C17.5,4.4,17.8,4.8,18,5c-0.2,0.5-0.5,1-0.6,1.5c-0.2,1.1-0.6,2.3-0.2,3.2
		c0.4,1-1.6,2.4,0.5,3c0,0,0,0.1,0,0.2c0.1,0.1,0.2,0.2,0.3,0.3c-0.3,0.3-0.6,0.5-0.8,0.7c0,0,0.2,0,0.3,0.1
		c-0.6,0.2-1.2,0.5-1.8,0.7c-0.3-0.6-0.7-1.2-1.1-1.9c0.2-0.4,0.4-0.9,0.5-1.2c-0.9-1.8-0.8-3.4,0.2-4.9C15,6.4,14.8,6.1,14.5,5.8z"
		/>
	<path class="st50" d="M33.8,30.3c0.1,0.1,0.3,0.1,0.3,0.2c0.7,2.3,2.6,1.5,4.1,1.6c1.2,0.1,1.3-0.9,1.2-1.8
		c0.1,0.6,0.2,1.1,0.4,1.7c0,1.3,0,2.6-0.1,3.9c-0.2-0.6-0.4-1.1-0.6-1.7c-0.3,0-0.8-0.1-1,0.1c-0.9,0.8-2,0.6-2.9,0.5
		c-1.8-0.1-2.8-1.2-2.7-2.8c-0.4,0.1-0.8,0.3-1.1,0.4c0-0.2,0-0.4,0-0.7c0.4-0.6,0.9-1.2,1.3-1.8c0.2,0.1,0.5,0.2,0.7,0.4l0,0
		C33.5,30.3,33.6,30.3,33.8,30.3C33.8,30.3,33.8,30.3,33.8,30.3z"/>
	<path class="st51" d="M31.3,23c-2.2,0.5-3.1-1-4.2-2.8c0-0.5,0.1-1.2,0.1-2.1c-0.2-0.2-0.5-0.4-0.8-0.7c0.2,0,0.5,0,0.7,0
		c2.7,0.7,5,2.1,6.9,4.2c-0.6,1-0.6,1-1.9,0.1C31.9,22.1,31.6,22.6,31.3,23z"/>
	<path class="st52" d="M31.3,32.4c0.4-0.1,0.7-0.2,1.1-0.4c-0.1,1.6,0.9,2.7,2.7,2.8c1,0.1,2.1,0.3,2.9-0.5c0.2-0.2,0.6-0.1,1-0.1
		c0.2,0.6,0.4,1.2,0.6,1.7c0,0.5,0,0.9,0,1.4c0,0.1-0.2,0.2-0.4,0.4c-0.1-0.5-0.3-0.9-0.4-1.3c-2.1,1-4,0.9-5.9-0.1
		c-0.6-0.3-1.3-0.6-2-0.9c0-0.1,0-0.3,0.1-1c-0.6,0.9-1,1.4-1.3,2c0-0.2,0-0.5,0-0.7c0-0.1,0.1-0.3,0.1-0.4c0.1-0.1,0.1-0.3,0.2-0.4
		c0.4-0.8,0.7-1.6,1.1-2.4l0.1,0.1c0,0.3,0.1,0.5,0.1,0.8c0.1,0,0.1,0,0.2,0C31.3,33,31.3,32.7,31.3,32.4L31.3,32.4z"/>
	<path class="st53" d="M29.6,36.2c0.4-0.5,0.7-1.1,1.3-2c-0.1,0.7-0.1,0.9-0.1,1c0.7,0.3,1.4,0.5,2,0.9c1.9,1.1,3.9,1.1,5.9,0.1
		c0.1,0.4,0.2,0.8,0.4,1.3c0.2-0.2,0.4-0.3,0.4-0.4c0-0.5,0-0.9,0-1.4c0-1.3,0-2.6,0.1-3.9c0.6,2.1,0.5,4.2,0,6.3
		c-0.2,0.1-0.5,0.2-0.7,0.3c-0.1,0-0.2,0-0.4,0c-0.9-0.2-0.2,0.7-0.4,0.8c-0.5-0.2-0.9-0.5-1.3-0.5c-1.8,0.1-3.5,0-5-1.1
		c-0.6-0.5-1.5-0.5-2.4-0.7C29.6,36.9,29.6,36.6,29.6,36.2z"/>
	<path class="st54" d="M39,38.7c0.2-0.1,0.5-0.2,0.7-0.3c0.2,1.4-0.9,1.9-1.7,2.5c-0.1,0-0.2-0.1-0.3,0c-0.1,0.1-0.3,0.2-0.4,0.3
		l0,0c-0.2,0.1-0.4,0.3-0.7,0.4l0,0c-0.1,0.1-0.2,0.2-0.4,0.3c-0.1,0.1-0.2,0.1-0.3,0.1c-0.1-0.5-0.2-0.9-0.4-1.4
		c-0.9,0.3-1.7,0.7-2.6,1c-0.5-0.6-0.9-1.1-1.3-1.7c-0.2,0.2-0.5,0.4-0.7,0.5c-0.5-0.3-0.8-0.5-1.2-0.8c-0.2,0.3-0.3,0.5-0.6,1
		c0-1.4,0-2.3,0-3.3c0.1-0.5,0.3-1.1,0.4-1.6c0,0.2,0,0.5,0,0.7c0,0.3,0,0.7,0,0.9c0.8,0.2,1.8,0.3,2.4,0.7c1.5,1.2,3.2,1.3,5,1.1
		c0.4,0,0.8,0.3,1.3,0.5c0.2-0.1-0.5-1,0.4-0.8l0,0c0,0.3,0,0.6,0.1,0.9c0.1,0,0.2,0,0.4,0C39,39.3,39,39,39,38.7L39,38.7z"/>
	<path class="st55" d="M13.5,48.4c-0.5-0.3-0.9-0.7-1.4-1c-0.1-0.1-0.2-0.2-0.4-0.3l0,0c-0.1-0.1-0.2-0.2-0.4-0.3l0,0
		c-0.1-0.1-0.2-0.2-0.4-0.4l0,0c-0.1-0.1-0.2-0.2-0.4-0.4l0,0c-0.1-0.1-0.2-0.2-0.4-0.4c0,0,0,0,0,0c-0.1-0.1-0.2-0.2-0.3-0.4l0,0
		c-0.1-0.1-0.2-0.2-0.3-0.3c0,0,0,0,0,0c-0.2-0.3-0.4-0.7-0.7-1C9,43.8,9,43.7,9,43.6c-0.1-0.1-0.2-0.2-0.3-0.4l0,0
		c-0.1-0.1-0.2-0.2-0.3-0.4c0-0.1,0-0.2-0.1-0.3c-0.1-0.1-0.2-0.2-0.3-0.4c0,0,0,0,0,0c0-0.1,0-0.2,0-0.3c-0.1-0.1-0.2-0.2-0.3-0.4
		c0-0.1,0-0.2-0.1-0.3c0-0.1,0-0.2,0-0.3c0-0.1,0-0.3,0-0.4c0.7,0.9,1.4,1.9,2.1,2.8c0.5,0.7,1,1.5,1.6,2c0.9,0.8,2,1.4,2.9,2.1
		c0.2,0,0.5,0,0.7,0l0,0c2.1,1.8,4.7,2.2,7.3,2.4c2.3,0.2,4.7,0,6.9-0.9c0.9-0.4,1.9-0.5,2.9-0.8c0.3,0.1,0.5,0.2,0.8,0.3
		c-1.5,0.5-3,1.3-4.6,1.7c-0.8,0.2-1.6,0.5-2.4,0.6c-0.5,0.1-1-0.2-1.5-0.1c-2.6,0.2-5.1-0.1-7.6-1.1c-0.8-0.4-1.5-0.8-2.3-1.1
		C14.1,48.3,13.8,48.4,13.5,48.4z"/>
	<path class="st56" d="M14.5,5.8c0.3,0.3,0.5,0.6,0.8,0.9c-1,1.6-1.1,3.1-0.2,4.9c-0.1,0.3-0.3,0.7-0.5,1.2c0.4,0.7,0.7,1.3,1.1,1.9
		c-0.8,0.5-1.7,0.9-2.5,1.4c-0.2,0-0.4-0.1-0.7-0.2c0.4-0.3,1-0.5,0.3-0.9l0,0c0.1-0.3,0.3-0.8,0.2-0.9c-1-1.2-0.5-2.7-0.6-4.1
		c-0.1-0.7-0.2-1.3-0.7-1.7C12.7,7.5,13.6,6.6,14.5,5.8z"/>
	<path class="st57" d="M36.9,45c0,0.1,0,0.2,0,0.3c-0.5,0.5-1,0.9-1.5,1.4c-0.5,0.6-1.2,0.9-2,0.7c0-0.8-0.6-0.7-1.1-0.6
		c-0.1,0-0.2,0-0.3,0l0,0c-0.2-0.1-0.4-0.3-0.6-0.4c-0.1-0.1-0.2-0.2-0.3-0.3c-0.1-0.2-0.3-0.4-0.4-0.6l0,0c0-0.2,0-0.5,0-0.7
		c0.1,0,0.2,0,0.3,0c0.4-0.1,0.8-0.1,1.2-0.2c1.8-0.8,3.7-1.7,5.5-2.5c0.5,0,0.7,0.2,0.7,0.7c-0.2,0.5-0.5,0.9-0.7,1.4
		c-0.1,0.2-0.2,0.4-0.4,0.7c0,0,0,0,0,0C37.1,44.7,37,44.8,36.9,45z"/>
	<path class="st58" d="M35.1,3.9c-1.4,0.4-2.8,0.8-4.2,1.3C30.3,6.1,29.5,7,29,8.1c-0.8,1.6-0.7,3.3,0.1,4.9
		c-0.4,0.2-0.8,0.4-1.3,0.6c-0.1,0-0.2,0-0.3-0.1c0.1-0.8-0.1-1.6-0.3-2.4c-0.4-2-0.1-3.9,1.5-5.5c0.4-0.4,0.5-0.9,0.7-1.3
		c0.6-0.3,1.6-0.5,1.7-0.8c0.1-1.1,0.8-0.8,1.4-0.9c0.3,0,0.6,0.1,0.9,0.1c0.3,0.1,0.5,0.2,0.8,0.3l0,0c0.2,0.1,0.5,0.2,0.7,0.3
		c0,0.1,0.1,0.1,0.2,0.1C35,3.6,35.1,3.7,35.1,3.9L35.1,3.9z"/>
	<path class="st59" d="M18.8,18.1c-0.9,1-0.9,1.3-0.3,2.1c-0.1,0.9-0.2,1.5-0.1,2.1c0.1,0.6,0.2,1.1,0.5,1.6c1.3,2.4,2.5,5,5.1,6.4
		c0.7,0.4,1.5,0.8,2.4,1c0.7,0.2,0.5,0.6,0.6,1.1c-0.2,0-0.5,0.2-0.6,0.1c-1.7-0.7-3.1-1.7-4.5-2.9c-1.3-1.1-2.1-2.5-2.9-3.9
		c-0.9-1.6-1.4-3.4-1.4-5.3c0-0.5,0-0.9-0.7-0.9c-1.1-0.1-0.6-0.9-0.7-1.4l0,0c0.7,0.1,0.5-0.3,0.3-0.7c0.4-0.1,0.7-0.2,1.1-0.3
		c0.5,0.2,0.9,0.5,1.4,0.7l0,0c-0.2,0-0.3,0.1-0.5,0.1C18.4,18,18.6,18,18.8,18.1L18.8,18.1z"/>
	<path class="st60" d="M17.5,14c-0.2,0-0.3-0.1-0.3-0.1c0.2-0.2,0.5-0.5,0.8-0.7c-0.1-0.1-0.2-0.2-0.3-0.3c0-0.1,0-0.2,0-0.2
		c-2.1-0.6,0-2-0.5-3c-0.4-0.9,0.1-2.1,0.2-3.2c0.1-0.5,0.4-1,0.6-1.5c-0.2-0.3-0.4-0.6-0.7-0.9l0,0C17.4,4,17.6,4,17.7,3.9
		c0.6-0.3,1.2-0.5,1.7-0.8C19.7,3.4,20,3.7,20.3,4c-0.4,0.7-0.9,1.5-0.8,2.5c0.1,0.7-0.2,1.4-0.5,2.1c-0.4,1.1-0.1,2.5-0.1,3.7
		c0,0.3,0.1,0.5,0.2,0.9c0.5,0,1,0,1.5,0c-0.6,0.1-1.2,0.2-1.7,0.3c-0.4,0.1-0.7,0.2-1.1,0.3L17.6,14L17.5,14z M18.5,4.2
		c-0.1,0-0.2,0.1-0.3,0.1c0,0,0.1,0.1,0.1,0.1c0.1,0,0.2-0.1,0.3-0.1C18.6,4.3,18.5,4.3,18.5,4.2z"/>
	<path class="st61" d="M32.4,2.7c-0.6,0.1-1.3-0.2-1.4,0.9c0,0.3-1,0.5-1.7,0.8c-0.2,0.3-0.4,0.9-0.7,1.3c-1.5,1.6-1.9,3.5-1.5,5.5
		c0.2,0.8,0.4,1.6,0.3,2.4c-0.5-0.1-0.9-0.2-1.4-0.3c-0.1-0.6-0.3-1.2-0.3-1.8c0-1.5,0-3,0-4.5c0.4-0.3,0.9-0.5,1.2-0.8
		c0.6-1,1.1-2,1.7-3c0.2-0.3,0.7-0.6,1.1-0.7c0.4-0.1,0.9-0.1,1.4-0.1C31.5,2.5,32,2.6,32.4,2.7z"/>
	<path class="st62" d="M29.2,37.2c0,1,0,1.9,0,3.3c0.3-0.5,0.4-0.7,0.6-1c0.4,0.3,0.8,0.5,1.2,0.8c0.2-0.1,0.5-0.3,0.7-0.5
		c0.4,0.6,0.8,1.1,1.3,1.7c0.9-0.3,1.7-0.7,2.6-1c0.1,0.5,0.3,0.9,0.4,1.4c-0.5,0.2-0.9,0.5-1.4,0.7c-0.3,0-0.6,0-0.8,0
		c0,0.1,0.1,0.2,0.1,0.3c-0.7,0.3-1.5,0.6-2.2,0.8c-1.4,0.4-1.5,0.4-2.3-0.9C28.9,41,28.5,39.1,29.2,37.2z"/>
	<path class="st63" d="M37.9,19.9c-0.7-0.7-1.4-1.4-2.1-2.1c0.4-0.1,0.7-0.3,1.1-0.4c0.6,0,1.2,0,1.7-0.6c0.5-0.6,1.1-1.1,1.7-1.7
		c0.5-0.5,0.9-1.1,0.8-1.9c-0.1-1.2,1-2.2,0.7-3.4c0-0.1,0.2-0.2,0.3-0.4c0.1,0,0.2,0,0.3,0l0,0c0.1,0.1,0.2,0.3,0.3,0.4l0,0
		c0.3,0.5,0.5,1.1,0.8,1.6c-0.3,0.3-0.7,0.5-1.1,0.8c0.1,0.9,0.6,2-0.6,2.7c-0.1,0.1,0,0.5-0.1,0.7c-0.3,0.6-0.6,1.5-1.1,1.7
		c-1,0.5-1.5,1.5-2.5,2c0.1,0.1,0.1,0.2,0.2,0.2C38.2,19.6,38,19.8,37.9,19.9z"/>
	<path class="st64" d="M12.8,15c0.7,0.4,0.1,0.6-0.3,0.9C12.8,16,13,16,13.2,16c-0.3,0.2-0.7,0.5-1,0.7c-0.1,0.1-0.3,0.2-0.4,0.3
		l0,0c-0.5-0.2-0.9-0.5-1.4-0.7l0,0c0.2-1.1-0.4-2.3,0.5-3.4c-0.8-0.7-1.3-1.5-0.8-2.6c0.6-0.7,1.2-1.4,1.7-2.1
		c0.5,0.5,0.6,1,0.7,1.7c0.1,1.3-0.5,2.8,0.6,4.1C13.2,14.2,12.9,14.7,12.8,15c0,0.1-0.1,0.2-0.1,0.2C12.7,15.1,12.8,15.1,12.8,15z"
		/>
	<path class="st65" d="M10.4,16.4c0.5,0.2,0.9,0.5,1.4,0.7c-0.7,0.7-1.5,1.4-2.2,2.1c-0.1,0.1-0.2,0.2-0.3,0.3l0,0
		c-0.1,0.1-0.2,0.2-0.3,0.3l0,0c-0.1-0.1-0.2-0.2-0.2-0.2c0.1-1.5,0.3-2.9-1.1-4c-0.1-0.1-0.1-0.4-0.1-0.7c0.4-1.7,1.3-3.2,2.4-4.5
		c-0.5,1.1,0,1.9,0.8,2.6C10,14,10.6,15.3,10.4,16.4c0,0.1-0.1,0.2-0.1,0.2C10.3,16.5,10.3,16.5,10.4,16.4z"/>
	<path class="st66" d="M7.6,14.9c0,0.2-0.1,0.6,0.1,0.7c1.3,1.1,1.2,2.6,1.1,4c0,0.1,0.2,0.1,0.2,0.2c-1,1.5-1.9,3.1-3,4.9
		c-0.3-2.4,0-4.6,0.5-6.7C6.7,16.9,7.2,15.9,7.6,14.9z"/>
	<path class="st67" d="M21.1,44.7c-3.3-0.4-6.2-2-8.8-3.9c-0.7-0.5-1.3-1.1-1.9-1.7c0.4-0.2,1.3,0.3,1.4-0.7
		c1.3,0.9,2.5,1.9,3.8,2.8c0.4,0.2,0.7,0.5,1.1,0.7c1.1,0.6,2.1,1.4,3.5,1.5c0.6,0.2,1.2,0.5,1.7,0.7c0.3,0.2,0.6,0.3,1,0.6
		C22.2,44.6,21.6,44.6,21.1,44.7z"/>
	<path class="st68" d="M16.7,19.5c0.7,0,0.7,0.4,0.7,0.9c0,1.9,0.5,3.7,1.4,5.3c0.8,1.4,1.6,2.8,2.9,3.9c1.4,1.2,2.8,2.2,4.5,2.9
		c0.2,0.1,0.4-0.1,0.6-0.1c0.1,0.1,0.3,0.3,0.4,0.4c0,0.1,0,0.2,0,0.3c-0.1,0.4-0.2,0.7-0.3,1.1l0,0c-0.4-0.4-0.9-0.8-1.5-1.3
		c-1,0.2-2-0.4-2.8-1.4c-0.1-0.1-0.2-0.3-0.4-0.4c-1.7-0.7-2.3-2.5-3.5-3.6c-0.4-0.4-0.5-1.1-0.7-1.7c-0.4-1.4-1.3-2.7-1.2-4.2
		c0-0.3-0.4-0.7-0.5-0.9C16.3,20.2,16.5,19.8,16.7,19.5z"/>
	<path class="st69" d="M46,40.8c-0.4,0.6-0.8,1.1-1.1,1.7c-0.1,0.1-0.2,0.3-0.3,0.4l0,0c-0.5-0.7-1.1-0.7-1.7-0.3
		c-0.6-0.8-1-1.5-1.5-2.3l0,0c0.1-0.3,0.3-0.7,0.4-1c0.2-0.8,0.5-1.6,0.7-2.4c0.2-0.1,0.4-0.3,0.6-0.4c0,0.5-0.1,1.1,0.7,1.1
		c0,1.2,0.7,2.1,1.3,3C45.3,40.8,45.8,40.8,46,40.8z"/>
	<path class="st70" d="M33.4,47.4c0.8,0.2,1.4-0.1,2-0.7c0.5-0.5,1-0.9,1.5-1.4c0,0.5,0.2,0.8,0.7,0.7c-0.1,0.2-0.2,0.5-0.3,0.7
		c-0.3,0.3-0.6,0.6-0.9,0.9c0.1,0.1,0.1,0.2,0.2,0.3c0.8-0.2,1.6-0.4,2.4-0.6c0.2,0,0.4,0,0.7,0c-0.2,0.4-0.5,0.7-0.7,1.1
		c-1-0.4-1.2-0.4-3.2,0.3c-0.8,0-1.6-0.2-2.1,0.7c-0.9,0.4-1.8,0.8-2.8,1.3c-0.1-0.2-0.2-0.3-0.3-0.5c0.1-0.1,0.1-0.1,0.2-0.1
		c0.2-0.1,0.3-0.2,0.5-0.3l0-0.1c0.1-0.1,0.3-0.2,0.4-0.2c0.1,0,0.2,0,0.3-0.1c0.1-0.1,0.2-0.2,0.4-0.2c0.1-0.1,0.3-0.2,0.4-0.3l0,0
		c0.1-0.1,0.2-0.2,0.3-0.2c-0.1-0.1-0.2-0.1-0.3-0.2l0,0c-0.3-0.1-0.5-0.2-0.8-0.3c-0.3-0.2-0.7-0.5-1-0.7l0.1-0.1
		c0.5,0,1,0.2,1-0.6c0.1,0,0.2,0,0.3,0C32.7,46.9,33.1,47.2,33.4,47.4z"/>
	<path class="st71" d="M41.4,40.4c0.5,0.7,1,1.4,1.5,2.3c0.5-0.5,1.2-0.5,1.7,0.3c-0.7,0.8-1.4,1.6-2.1,2.4
		c-0.4-0.2-0.8-0.5-1.2-0.5c-0.3,0-0.5,0.9-0.9,0c-0.1-0.4-0.5-0.7-0.7-1C40.2,42.7,40.8,41.5,41.4,40.4z"/>
	<path class="st72" d="M32,49.4c-0.1,0.1-0.2,0.1-0.3,0.1c-0.1,0.1-0.3,0.2-0.4,0.2l0,0.1c-0.2,0.1-0.3,0.2-0.5,0.3
		c-0.1,0-0.2,0-0.2,0.1c-1,0.3-1.9,0.7-2.9,1c-0.3,0-0.6,0.1-0.9,0.1c-0.4,0.1-0.7,0.2-1.1,0.2c-1.3,0-2.5,0.1-3.8,0.1
		c-1-0.3-2.1-0.5-3.1-0.8c-0.3-0.1-0.5-0.2-0.8-0.3l-0.1,0l-0.1-0.1c-0.3-0.1-0.5-0.2-0.8-0.3l-0.2,0l-0.1-0.1c0-0.1,0-0.2,0-0.3
		c0-0.1,0-0.2,0-0.4c2.4,0.9,5,1.3,7.6,1.1c0.5,0,1,0.2,1.5,0.1c0.8-0.1,1.6-0.5,2.4-0.6c1.6-0.4,3.1-1.1,4.6-1.7l0,0
		c0,0.1,0,0.3,0,0.4c0,0,0,0,0,0c-0.2,0.1-0.5,0.2-0.7,0.3C32,49.2,32,49.3,32,49.4z"/>
	<path class="st73" d="M25.7,7c0,1.5,0,3,0,4.5c0,0.6,0.2,1.2,0.3,1.8c-0.4,0-0.7-0.1-1.1-0.1c-0.7-0.1-1.4-0.2-2-0.3
		c0-0.1,0-0.2,0-0.3l0,0c1-0.3,1.4-0.9,1.4-2c0-1,0-2.1,0-3.1c0-0.7,0.8-2.2,1.4-2.6c0.2,0,0.5,0,0.7,0C26.2,5.6,26,6.3,25.7,7z"/>
	<path class="st74" d="M36.9,17.4c-0.4,0.1-0.7,0.3-1.1,0.4c-0.6-0.5-1.2-0.9-1.8-1.4c0.1-0.3,0.2-0.7,0.3-1.1c0.6,0,1.2,0,1.8,0
		c0.5,0,0.7-0.2,0.7-0.7l0,0c0.2,0,0.5,0,0.7,0c0.5,0,0.7-0.2,0.7-0.7c0.9-0.5,1.4-1.2,1.4-2.2c0-0.5-0.3-1.2,0.7-1.3
		c0,0.4,0,0.8,0,1.2c0,2.1-1.4,4-3.4,4.6C36.9,16.6,36.9,17,36.9,17.4z"/>
	<path class="st75" d="M43.9,37.5c-0.9,0.1-0.7-0.5-0.8-1c0.2-0.3,0.5-0.7,0.7-1c0.9,0.6,1.8,1.2,2.9,2c0.2,0.3-0.9,1.1,0.2,1.5
		c-0.3,0.6-0.6,1.2-0.9,1.8c-0.3,0-0.7,0-0.8-0.1C44.5,39.8,43.8,38.9,43.9,37.5c0,0,0,0-0.1,0.1C43.9,37.6,44,37.6,43.9,37.5
		c0.1,0.1,0.1,0,0.2,0C44.1,37.5,44,37.4,43.9,37.5z"/>
	<path class="st76" d="M47,39c-1.1-0.4,0-1.2-0.2-1.5c-1.1-0.7-2-1.4-2.9-2c0.4-0.7,0.9-1.4,1.3-2.1c1,1.1,0.5-1,1.2-0.5
		c0.9,1,1,1,0.9,2.1c0,0.7-0.1,1.3-0.2,2c0,0.1,0.2,0.2,0.4,0.3C47.3,37.9,47.2,38.5,47,39z M46.8,35.7c0,0-0.1,0.1-0.1,0.1
		c0,0.1,0.1,0.2,0.1,0.3c0,0,0.1-0.1,0.1-0.1C46.9,35.9,46.9,35.8,46.8,35.7z"/>
	<path class="st77" d="M49.8,21.9c0.1,0,0.2,0.1,0.3,0.1c0,1.9,0,3.9,0,5.8c-0.2-0.2-0.4-0.3-0.7-0.6c-0.4,0.5-0.7,0.9-1.1,1.4
		c0,0,0,0,0,0c-0.1-0.2-0.2-0.5-0.4-0.7c-0.9-1-0.9-2.1-0.3-3.2c0,0.5,0.1,1.1,0.1,1.6c0.1-1.4,0.8-2.3,2-2.9
		C49.8,22.8,49.8,22.4,49.8,21.9z"/>
	<path class="st78" d="M37.9,19.9c0.1-0.1,0.3-0.2,0.4-0.4c0.9-0.7,1.1,0.8,2,0.5c0.1-0.6,0.1-1.2,0.2-1.9c1,0.1,1.4-0.4,1.4-1.4
		c0.5,0,0.9-0.1,1.3-0.1c0,0.7,0,1.4,0,2.1l0,0c-0.8,0.6-2.1,0.5-2.2,1.9c0,0.1-0.3,0.2-0.4,0.2c-0.9-0.2-0.7,0.7-1.1,1.1
		C38.9,21.3,38.4,20.6,37.9,19.9z"/>
	<path class="st79" d="M49.8,21.9c0,0.5,0,0.9,0,1.5c-1.2,0.6-2,1.4-2,2.9c0-0.5-0.1-1.1-0.1-1.6c0-1.4,0-2.7,0-4.1
		c0.2-0.3,0.5-0.7,0.5-0.7c0.9-0.7,0.6,0.8,1.3,0.3c0.1,0,0.2,0.1,0.3,0.1C49.8,20.8,49.8,21.4,49.8,21.9z"/>
	<path class="st80" d="M47.5,37.3c-0.1-0.1-0.4-0.2-0.4-0.3c0-0.7,0.1-1.3,0.2-2c0-1.2,0-1.2-0.9-2.1c-0.7-0.4-0.2,1.7-1.2,0.5
		c0,0,0,0,0,0c0.1-0.2,0.2-0.5,0.4-0.7c0.5-1.2,1-2.3,1.4-3.5c0.1,0.1,0.2,0.3,0.3,0.4c0.2,0.7,0.5,1.4,0.7,2.1c0,0.1,0,0.2,0,0.3
		c0,1.3,0,2.6,0,3.8C47.9,36.4,47.7,36.8,47.5,37.3z"/>
	<path class="st81" d="M43.6,11.4c-0.3-0.5-0.5-1.1-0.8-1.6c0.2-0.2,0.3-0.3,0.5-0.5c0.6,0.8,1.2,1.7,1.8,2.5
		c0.6,1.3,1.1,2.6,1.7,3.8c0.1,0.3,0.2,0.5,0.3,0.8c0,0.2,0.1,0.4,0.1,0.6c0.1,0.8,0.2,1.6,0.3,2.5c-0.1,0.1-0.3,0.3-0.4,0.4
		c-0.1,0-0.2-0.1-0.3-0.1c-0.2-2.1-0.7-4.1-1.8-5.9c-0.2-0.5-0.5-0.9-0.7-1.4C44,12.1,43.8,11.8,43.6,11.4z"/>
	<path class="st82" d="M39.6,43.8c0.3,0.3,0.6,0.6,0.7,1c0.4,0.9,0.6,0,0.9,0c0.4,0,0.8,0.3,1.2,0.5c-0.9,0.7-1.9,1.4-2.8,2
		c-0.2,0-0.4,0-0.7,0c-0.2-1.1-1.1-0.4-1.7-0.6c0.1-0.2,0.2-0.5,0.3-0.7C38.3,45.3,39,44.6,39.6,43.8z"/>
	<path class="st83" d="M36.9,14.6c0,0.5-0.2,0.7-0.7,0.7c-0.6,0-1.2,0-1.8,0c-0.1,0.4-0.2,0.8-0.3,1.1c-1.4-0.7-2.7-1.4-4.1-2.1
		c0.2-0.1,0.5-0.3,0.7-0.3c0.5,0,0.7-0.2,0.7-0.7c1,0.9,2.1,1.5,3.5,1.4C35.5,14.6,36.2,14.6,36.9,14.6z"/>
	<path class="st69" d="M42.5,29.6c-0.1-0.3-0.1-0.7-0.2-1c0.1,0,0.2,0,0.2,0c0.9,0,1.7,0,2.7,0c0-0.5,0.1-1,0.1-1.4
		c0.3,0.3,0.6,0.5,1,0.8c-0.1,0.6-0.2,1.1-0.3,1.7c-0.1,0.2-0.2,0.5-0.3,0.7l0,0c-0.9,0-1.9-0.4-2.8,0.3l0,0
		C42.7,30.3,42.6,30,42.5,29.6z"/>
	<path class="st84" d="M47.3,19.5c-0.1-0.8-0.2-1.6-0.3-2.5c0.1-0.3,0.2-0.6,0.3-0.9c0.1-0.3,0.3-0.6,0.4-0.9
		c0.2,0.3,0.4,0.5,0.6,0.8c0.1,0.3,0.3,0.7,0.4,1c0.1,0.6,0.3,1.1,0.4,1.7c0.1,0.2,0.2,0.5,0.3,0.7c0,0.2,0.1,0.5,0.1,0.7
		c-0.7,0.4-0.4-1-1.3-0.3c0,0-0.3,0.4-0.5,0.7C47.6,20.2,47.4,19.9,47.3,19.5z"/>
	<path class="st85" d="M3.8,36.3c0.1-0.4,0.3-0.8,0.3-1.2c0-2,0-3.9,0.1-5.9c0.9,0.9,0.5,2.2,0.7,3.3c0,0.8,0,1.6,0,2.4
		C5,35.5,5.1,36.2,5.1,37c-0.1,0.5-0.3,1-0.4,1.5C4.4,37.7,4.1,37,3.8,36.3z"/>
	<path class="st86" d="M21.1,44.7c0.5,0,1-0.1,1.7-0.1c-0.4-0.3-0.7-0.4-1-0.6c0.1,0,0.2,0,0.4-0.1c1.3,0.1,2.6,0.3,3.9,0.4
		c0.5,0,1.1-0.1,1.6-0.1c0.2,0.4,0.5,0.7,0.7,1.1c-2.2-0.1-4.4-0.2-6.6-0.3C21.6,44.9,21.4,44.8,21.1,44.7z"/>
	<path class="st87" d="M25.7,7c0.2-0.7,0.5-1.4,0.7-2.1c0.1-0.7,1-1.2,0.7-2.1c0.7-0.3,1.4-0.5,2.2-0.8c0.6,0.1,1.2,0.2,1.8,0.4
		c-0.5,0-0.9,0-1.4,0.1c-0.4,0.1-0.9,0.3-1.1,0.7c-0.6,1-1.1,2-1.7,3C26.7,6.5,26.1,6.7,25.7,7z"/>
	<path class="st88" d="M45.3,27.1c0,0.4-0.1,0.9-0.1,1.4c-1,0-1.8,0-2.7,0c0.2-0.4,0.3-0.7,0.5-1.1c-0.4-0.2-0.8-0.4-1.2-0.6
		c-0.1-0.1-0.1-0.1,0-0.2c0-0.5,0.2-0.9,0.8-0.9l0,0c0,0.5,0.1,0.8,0.6,0.7c0.4,0,0.8,0,1.2,0C44.6,26.7,45,26.9,45.3,27.1z"/>
	<path class="st89" d="M29.3,42.8c0.9,1.3,0.9,1.3,2.3,0.9c0.8-0.2,1.5-0.6,2.2-0.8c0.2-0.1,0.5-0.2,0.7-0.3
		c0.5-0.2,0.9-0.5,1.4-0.7c0.1,0,0.2,0,0.3-0.1c0.1-0.1,0.2-0.2,0.4-0.3l0,0c0.2-0.1,0.4-0.3,0.7-0.4l0,0c0.1,0,0.2,0,0.3,0
		c0.1,0,0.2,0,0.4,0l0,0c-0.1,0.2-0.2,0.5-0.4,0.7c-1.8,0.9-3.6,1.7-5.5,2.5c-0.4,0.2-0.8,0.2-1.2,0.2c-0.4-0.1-0.7-0.2-1.1-0.3
		C29.3,44,29.1,43.5,29.3,42.8z"/>
	<path class="st90" d="M45.9,29.6c0.1-0.6,0.2-1.1,0.3-1.7c0.3,0.4,0.5,0.9,0.8,1.3c-0.5,1.2-1,2.3-1.4,3.5
		c-0.1,0.2-0.2,0.5-0.4,0.7l0,0c-0.4,0.7-0.9,1.4-1.3,2.1c-0.2,0.3-0.5,0.7-0.7,1c-0.2,0.1-0.4,0.3-0.6,0.4c0-0.4,0-0.7,0-1.1
		c1-0.7,1.4-1.8,2-2.8c0.1-0.3,0.3-0.7,0.4-1l0,0c0.1-0.1,0.2-0.2,0.3-0.3c0.1-0.5,0.3-0.9,0.4-1.4l0,0
		C45.7,30.1,45.8,29.9,45.9,29.6z"/>
	<path class="st91" d="M48.4,28.6c0.3-0.4,0.7-0.9,1.1-1.4c0.3,0.3,0.5,0.4,0.7,0.6c0,0.5,0.1,0.9,0.1,1.4c0,0.5-0.1,0.9-0.1,1.4
		c-0.1,0.5-0.2,0.9-0.3,1.4l0,0c-0.1,0.3-0.3,0.7-0.4,1c-0.1-0.3-0.2-0.6-0.3-0.9c-0.1-0.4-0.2-0.8-0.3-1.2
		C48.7,30.2,48.5,29.4,48.4,28.6z"/>
	<path class="st92" d="M39.4,21.9c0.4-0.3,0.2-1.2,1.1-1.1c0.1,0,0.4-0.1,0.4-0.2c0.1-1.4,1.5-1.3,2.2-1.9c0,0.3,0,0.7,0,1.1
		c-0.4,0.1-0.8,0.3-1.3,0.4c-0.1,0.4-0.2,0.7-0.3,1.1c-0.4,0.1-0.7,0.1-1.1,0.2c0.3,0.9,1.2,0.4,1.8,0.7c-0.1,0.1-0.1,0.1-0.1,0.2
		c0,0-0.1,0-0.2,0.1c-0.1,0-0.2,0-0.3,0.1c-0.6-0.1-1.1-0.1-1.7-0.2c-0.1-0.1-0.2-0.1-0.3-0.2C39.6,22.2,39.5,22.1,39.4,21.9z"/>
	<path class="st93" d="M31,50.7c0.9-0.4,1.8-0.8,2.8-1.3c0.8,0,0.7,0.6,0.7,1.1c-1.4,0.4-2.8,0.8-4.1,1.2c0.4-0.5,0-0.6-0.4-0.6
		C30.3,51.1,30.6,50.9,31,50.7z"/>
	<path class="st94" d="M46.7,19.8c0.1,0,0.2,0.1,0.3,0.1c0,1.9,0,3.8,0,6c-1.2-0.9-2.2-1.7-3.2-2.5c0.2,0,0.3,0,0.5-0.1
		c0.8,0.5,1.5,0.5,2.4,0.2c0-0.4,0-0.8,0-1.2C46.7,21.5,46.7,20.6,46.7,19.8z"/>
	<path class="st95" d="M44.5,33.1c-0.6,1-1,2.1-2,2.8c0-1.7,0-3.5,0.1-5.2c0.1,0,0.2,0,0.3,0l0,0c0,0.5,0,0.9,0,1.4
		c0,0.6,0,1.1,0.9,0.8C43.9,32.8,44.3,33,44.5,33.1z"/>
	<path class="st96" d="M34.5,50.6c0-0.5,0.1-1.1-0.7-1.1c0.5-0.9,1.3-0.7,2.1-0.7c0.6,0.1,1.2,0.2,1.7,0.3c0,0,0,0,0,0
		c-0.2,0.1-0.4,0.2-0.7,0.4C36.1,49.8,35.3,50.2,34.5,50.6z"/>
	<path class="st35" d="M45,11.8c-0.6-0.8-1.2-1.7-1.8-2.5c0-0.1-0.1-0.2-0.2-0.3C43,9,42.9,8.9,42.8,8.8l0-0.1
		c-0.1-0.1-0.2-0.2-0.3-0.4l0,0c-0.1-0.1-0.2-0.2-0.3-0.4l0,0c-0.1-0.1-0.2-0.2-0.3-0.4l0,0c0-0.1,0-0.2,0-0.3c0.1,0,0.2,0,0.3,0
		c0.6,0.5,1.2,1,1.7,1.4C44,8.8,44.1,9,44.2,9.1c0.1,0.1,0.2,0.2,0.3,0.3c0,0.1,0,0.2,0.1,0.4c0.3,0.6,0.7,1.1,1,1.7
		C45.4,11.6,45.2,11.7,45,11.8z"/>
	<path class="st97" d="M29.3,2c-0.7,0.3-1.4,0.5-2.2,0.8c-0.5,0-0.9,0-1.4,0l0,0c-0.2-0.2-0.5-0.5-0.7-0.7c0.2-0.1,0.4-0.2,0.7-0.3
		C26.9,1.9,28.1,2,29.3,2z"/>
	<path class="st98" d="M21.9,51.7c1.3,0,2.5-0.1,3.8-0.1c0.4,0,0.7,0,1.1,0.1c0,0.1,0,0.2,0,0.3c-0.1,0-0.2,0.1-0.3,0.1
		c-0.3,0-0.6,0.1-0.8,0.1c0,0.1,0,0.1,0,0.2c0.3,0,0.6,0,0.8,0c0.1,0,0.2,0.1,0.3,0.1c-0.5,0.1-1,0.3-1.5,0.2
		C24.2,52.4,23,52,21.9,51.7z"/>
	<path class="st99" d="M3.5,19.9c-0.1-0.6-0.3-1.2-0.4-1.8c0.2-0.7,0.5-1.4,0.7-2.1c0.1,0.3,0.3,0.5,0.4,0.8
		C3.9,17.8,3.7,18.9,3.5,19.9z"/>
	<path class="st100" d="M4.2,16.8C4,16.5,3.9,16.3,3.8,16c0.5-1,0.9-2.1,1.4-3.1c0.1,0.1,0.3,0.3,0.4,0.4
		C5.1,14.4,4.6,15.6,4.2,16.8z"/>
	<path class="st101" d="M48,35.9c0-1.3,0-2.6,0-3.8c0.1,0.4,0.2,0.8,0.3,1.2c0.1,0.4,0.2,0.8,0.3,1.2c0.2-0.1,0.5-0.2,0.7-0.3
		c0,0.4,0,0.8,0,1.2C48.9,35.5,48.5,35.7,48,35.9z"/>
	<path class="st102" d="M8.3,42.5c0,0.1,0,0.2,0.1,0.3c0.1,0.1,0.2,0.2,0.3,0.4c0,0,0,0,0,0c0.1,0.1,0.2,0.2,0.3,0.4
		c0,0.1,0,0.2,0.1,0.3c0,0.1,0,0.2,0,0.3c-1-0.1-1.4-0.8-1.8-1.6c0-0.2,0-0.3,0-0.5C7.1,42.1,7,42,6.9,41.9c0-0.1,0-0.3,0-0.4
		c0.1-0.1,0.3-0.2,0.4-0.3c0.1,0,0.2,0,0.3,0c0,0.1,0,0.2,0.1,0.3c0,0.1,0,0.2,0,0.3C7.8,41.9,7.9,42,8,42.2c0,0,0,0,0,0
		C8.1,42.3,8.2,42.4,8.3,42.5z"/>
	<path class="st103" d="M16.7,49.5c0,0.1,0,0.2,0,0.4c-0.2,0-0.3,0-0.5,0.1c-0.9-0.5-1.8-1-2.7-1.5c0.3,0,0.6-0.1,0.9,0
		C15.2,48.7,15.9,49.1,16.7,49.5z"/>
	<path class="st104" d="M6.9,41.5c0,0.1,0,0.3,0,0.4c0,0.1,0,0.2,0,0.3l-0.1,0.1c-0.6-0.9-1.1-1.9-1.7-2.8c0.1-0.2,0.3-0.5,0.4-0.7
		l0,0c0.1,0.1,0.2,0.2,0.3,0.4C6.2,39.8,6.6,40.6,6.9,41.5z"/>
	<path class="st105" d="M49.4,34.2c-0.2,0.1-0.5,0.2-0.7,0.3c0-1,0-2.1,0-3.1c0-0.1,0.1-0.3,0.1-0.4c0.1,0.4,0.2,0.8,0.3,1.2
		c0.1,0.3,0.2,0.6,0.3,0.9c0,0.1,0,0.3,0.1,0.4C49.5,33.7,49.5,33.9,49.4,34.2z"/>
	<path class="st42" d="M24,16.7c-0.4,0-0.7,0-1.1,0.1c-0.5,0-0.9,0-1.4,0c-0.7,0-1.4,0-2.1,0l-0.1-0.1C21,16.2,22.5,16.2,24,16.7z"
		/>
	<path class="st106" d="M37.6,49.1c-0.6-0.1-1.2-0.2-1.7-0.3c2-0.7,2.1-0.7,3.2-0.3l0,0c-0.1,0.1-0.3,0.2-0.4,0.3
		C38.2,48.9,37.9,49,37.6,49.1z"/>
	<path class="st42" d="M18.8,17.8c-0.5-0.2-0.9-0.5-1.4-0.7c0.7-0.1,1.4-0.3,2.1-0.4l0.1,0.1C19.2,17.1,19,17.4,18.8,17.8z"/>
	<path class="st107" d="M5.5,13.3c-0.1-0.1-0.3-0.3-0.4-0.4c0.4-0.6,0.8-1.3,1.2-1.9C6.5,11.9,6.1,12.6,5.5,13.3z"/>
	<path class="st108" d="M29.9,51.2c0.4,0,0.8,0,0.4,0.6c-0.3,0.1-0.7,0.1-1,0.2c-0.5-0.1-0.9-0.2-1.4-0.3c0.2,0,0.4-0.1,0.6-0.1
		C29,51.4,29.4,51.3,29.9,51.2z"/>
	<path class="st109" d="M27.9,51.7c0.5,0.1,0.9,0.2,1.4,0.3c-0.8,0.1-1.7,0.3-2.5,0.4c-0.1,0-0.2-0.1-0.3-0.1c0-0.1,0-0.2,0-0.3
		c0.1,0,0.2,0,0.3-0.1C27.1,51.8,27.5,51.7,27.9,51.7z"/>
	<path class="st110" d="M37.6,41.8c0.1-0.2,0.2-0.5,0.4-0.7c0.3-0.1,0.6-0.1,1.2-0.2c-0.4,0.7-0.6,1.2-0.9,1.7
		C38.3,42.1,38.1,41.8,37.6,41.8z"/>
	<path class="st111" d="M5.6,38.6c-0.1,0.2-0.3,0.5-0.4,0.7c-0.1-0.3-0.3-0.6-0.4-0.9c0.1-0.5,0.3-1,0.4-1.5c0,0.1,0,0.2,0,0.3
		c0.1,0.1,0.2,0.2,0.3,0.4C5.5,38,5.5,38.3,5.6,38.6z"/>
	<path class="st67" d="M9,37.3c-0.5-0.6-0.9-1.2-1.4-1.8C8.4,35.8,9.1,36.3,9,37.3z"/>
	<path class="st112" d="M41.8,26.8c0.4,0.2,0.8,0.4,1.2,0.6c-0.2,0.4-0.3,0.7-0.5,1.1c-0.1,0-0.2,0-0.2,0
		C42.1,28,41.9,27.4,41.8,26.8z"/>
	<path class="st101" d="M48.8,31c0,0.1-0.1,0.3-0.1,0.4c-0.2-0.9-0.4-1.9-0.7-2.8c0.1,0,0.2,0,0.3,0l0,0
		C48.5,29.4,48.7,30.2,48.8,31z"/>
	<path class="st112" d="M44.3,26.4c-0.4,0-0.8,0-1.2,0c-0.5,0-0.7-0.3-0.6-0.7C43.1,26,43.7,26.2,44.3,26.4z"/>
	<path class="st113" d="M10.4,20.9c-0.5,0.6-0.9,1.1-1.4,1.7c0-0.1,0-0.2,0-0.4C9.5,21.8,9.9,21.4,10.4,20.9z"/>
	<path class="st114" d="M21.8,2.4c0.3,0,0.6,0.1,0.8,0.1c0,0.1,0,0.1,0,0.2c-0.5,0.1-1.1,0.3-1.7,0.5c0.1-0.3,0.1-0.4,0.2-0.6
		C21.4,2.5,21.6,2.4,21.8,2.4z"/>
	<path class="st101" d="M48,31.8c-0.2-0.7-0.5-1.4-0.7-2.1C48.1,30.2,48.1,31,48,31.8z"/>
	<path class="st115" d="M4.9,34.8c0-0.8,0-1.6,0-2.4c0.1,0,0.2,0,0.3,0l0,0C5.1,33.2,5,34,4.9,34.8z"/>
	<path class="st13" d="M40.1,7.2c-0.1-0.2-0.2-0.4-0.4-0.6c0.8,0.1,1.2,0.6,1.5,1.3L41.1,8C40.7,7.7,40.4,7.5,40.1,7.2z"/>
	<path class="st70" d="M30.6,47.1c-0.5-0.4-0.9-0.7-1.4-1.1C30,46,30.3,46.5,30.6,47.1z"/>
	<path class="st70" d="M29.9,44.3c0.4,0.1,0.7,0.2,1.1,0.3c-0.1,0-0.2,0-0.3,0c-0.1,0.2-0.3,0.5-0.4,0.7C30.1,45,30,44.6,29.9,44.3z
		"/>
	<path class="st116" d="M7.6,31.4c0.2,0.5,0.5,1,0.7,1.4C8,32.3,7.8,31.9,7.6,31.4z"/>
	<path class="st117" d="M8.3,23.4c0,0.5,0.1,1-0.7,1.1C7.9,24.1,8.1,23.7,8.3,23.4z"/>
	<path class="st112" d="M42.5,25.8c-0.6,0-0.8,0.4-0.8,0.9c-0.1-0.3-0.3-0.6-0.5-1.3C41.9,25.6,42.2,25.7,42.5,25.8z"/>
	<path class="st86" d="M27.8,44c-0.2-0.5-0.4-1-0.7-1.4C27.3,43,27.6,43.5,27.8,44z"/>
	<path class="st8" d="M49.8,32.1c0.1-0.5,0.2-0.9,0.3-1.4C50,31.1,49.9,31.6,49.8,32.1z"/>
	<path class="st8" d="M49.5,33.5c0-0.1,0-0.3-0.1-0.4c0.1-0.3,0.3-0.7,0.4-1C49.7,32.5,49.6,33,49.5,33.5z"/>
	<path class="st67" d="M11.1,37.6c0.2,0.2,0.5,0.5,0.7,0.7C11.3,38.4,11.1,38.1,11.1,37.6z"/>
	<path class="st118" d="M9,44.2c0-0.1,0-0.2,0-0.3c0.2,0.3,0.4,0.7,0.7,1C9.5,44.7,9.2,44.5,9,44.2z"/>
	<path class="st67" d="M9.7,38.3c-0.3-0.3-0.5-0.6-0.8-1c0.1,0,0.3,0,0.4,0l0,0C9.5,37.6,9.6,38,9.7,38.3z"/>
	<path class="st119" d="M13.2,18.8c-0.1,0.2-0.2,0.5-0.4,0.7c-0.2,0-0.5,0-0.7,0C12.5,19.3,12.8,19,13.2,18.8z"/>
	<path class="st120" d="M9,22.3c0,0.1,0,0.2,0,0.4c-0.2,0.2-0.5,0.4-0.7,0.7C8.5,23,8.8,22.6,9,22.3z"/>
	<path class="st42" d="M28.9,28.9c0.1,0,0.3,0,0.4,0c-0.2,0.4-0.5,0.7-0.7,1.1c0,0-0.1,0-0.1,0c0-0.2,0-0.5,0-0.7
		C28.6,29.2,28.8,29,28.9,28.9L28.9,28.9z"/>
	<path class="st121" d="M6.9,34.9l-0.2,0l-0.2,0c-0.1-0.3-0.3-0.7-0.4-1c0,0,0.1-0.1,0.1-0.1C6.5,34.1,6.7,34.5,6.9,34.9z"/>
	<path class="st71" d="M41.8,39.4c-0.1,0.3-0.3,0.7-0.4,1C41.5,40.1,41.6,39.7,41.8,39.4z"/>
	<path class="st67" d="M10.4,36.8c0.2,0.3,0.5,0.5,0.7,0.8c-0.2-0.1-0.5-0.2-0.7-0.3l0,0C10.4,37.1,10.4,37,10.4,36.8z"/>
	<path class="st67" d="M10.4,39c-0.2-0.2-0.4-0.5-0.7-0.7c0.2,0,0.4,0,0.6,0l0,0C10.4,38.6,10.4,38.8,10.4,39z"/>
	<path class="st38" d="M26.8,34.2c0.1-0.4,0.2-0.7,0.3-1.1C27,33.5,26.9,33.8,26.8,34.2z"/>
	<path class="st60" d="M20.5,2.8c-0.3,0.1-0.7,0.2-1,0.4C19.8,3,20.1,2.9,20.5,2.8z"/>
	<path class="st49" d="M17.7,13.9c0.4-0.1,0.7-0.2,1.1-0.3C18.5,13.7,18.1,13.8,17.7,13.9z"/>
	<path class="st46" d="M27.2,17.4c-0.2,0-0.5,0-0.7,0c-0.1-0.1-0.2-0.3-0.3-0.4C26.5,17.2,26.8,17.3,27.2,17.4z"/>
	<path class="st99" d="M3.1,18.1c-0.1,0.3-0.2,0.7-0.3,1C2.9,18.8,3,18.5,3.1,18.1z"/>
	<path class="st122" d="M42.8,30.7c-0.1,0-0.2,0-0.3,0c0-0.4-0.1-0.7-0.1-1.1C42.6,30,42.7,30.3,42.8,30.7z"/>
	<path class="st115" d="M5.9,32.4c0.1,0.3,0.2,0.7,0.3,1c-0.1,0-0.2,0-0.3,0l0,0c0-0.2-0.1-0.4-0.1-0.6C5.8,32.7,5.8,32.5,5.9,32.4
		L5.9,32.4z"/>
	<path class="st106" d="M36.9,49.5c0.2-0.1,0.4-0.2,0.7-0.4C37.3,49.2,37.1,49.4,36.9,49.5z"/>
	<path class="st13" d="M37.3,3.8c0.2,0.1,0.4,0.3,0.7,0.4C37.7,4,37.5,3.9,37.3,3.8z"/>
	<path class="st52" d="M31.3,31.7c0,0.2,0,0.4,0,0.7l0,0c-0.1,0-0.2,0-0.3,0l-0.1-0.1C31.1,32.2,31.2,32,31.3,31.7z"/>
	<path class="st13" d="M36.9,4.5c-0.2-0.1-0.5-0.3-0.7-0.4C36.4,4.3,36.7,4.4,36.9,4.5z"/>
	<path class="st13" d="M37.5,5c-0.2-0.1-0.4-0.3-0.7-0.4C37.1,4.7,37.3,4.8,37.5,5z"/>
	<path class="st70" d="M30.6,45.4c0.1,0.2,0.3,0.4,0.4,0.6C30.9,45.8,30.7,45.6,30.6,45.4z"/>
	<path class="st13" d="M38.9,6c-0.2-0.1-0.4-0.3-0.6-0.4C38.5,5.7,38.7,5.8,38.9,6z"/>
	<path class="st70" d="M31.3,46.3c0.2,0.1,0.4,0.3,0.6,0.4C31.8,46.6,31.6,46.4,31.3,46.3z"/>
	<path class="st115" d="M5.1,32.4c0.2-0.4,0.5-0.4,0.7,0c0,0,0,0,0,0C5.6,32.4,5.4,32.4,5.1,32.4L5.1,32.4z"/>
	<path class="st13" d="M34.1,3.1c-0.3-0.1-0.5-0.2-0.8-0.3C33.6,2.9,33.8,3,34.1,3.1z"/>
	<path class="st13" d="M34.8,3.4c-0.2-0.1-0.5-0.2-0.7-0.3C34.3,3.2,34.6,3.3,34.8,3.4z"/>
	<path class="st123" d="M37.2,44.6c0.1-0.2,0.2-0.4,0.4-0.7C37.5,44.1,37.3,44.4,37.2,44.6z"/>
	<path class="st91" d="M48.4,28.6c-0.1,0-0.2,0-0.3,0c0-0.2,0-0.5,0-0.7C48.1,28.1,48.3,28.4,48.4,28.6z"/>
	<path class="st55" d="M17.9,50.6c0.3,0.1,0.5,0.2,0.8,0.3C18.5,50.8,18.2,50.7,17.9,50.6z"/>
	<path class="st58" d="M35.8,4.2c-0.2-0.1-0.5-0.2-0.7-0.3l0,0c0.1,0,0.2,0,0.4,0c0,0.1,0.1,0.1,0.2,0.1C35.7,4,35.8,4.1,35.8,4.2z"
		/>
	<path class="st94" d="M42.8,23c0.2,0.1,0.5,0.2,0.7,0.3C43.3,23.2,43,23.1,42.8,23z"/>
	<path class="st55" d="M16.9,50.2c0.3,0.1,0.5,0.2,0.8,0.3C17.4,50.4,17.2,50.3,16.9,50.2z"/>
	<path class="st124" d="M42.1,7.3c-0.1,0-0.2,0-0.3,0c-0.1,0-0.2-0.1-0.3-0.1c0-0.1,0-0.2-0.1-0.2c0.1,0,0.1,0.1,0.2,0l0.1,0
		C41.9,7.1,42,7.2,42.1,7.3z"/>
	<path class="st89" d="M30.3,45.3c0.1-0.2,0.3-0.5,0.4-0.7c0,0.2,0,0.5,0,0.7l-0.2,0C30.4,45.3,30.3,45.3,30.3,45.3z"/>
	<path class="st67" d="M9.7,35.6c0.1,0.2,0.3,0.4,0.4,0.6C9.9,36,9.8,35.8,9.7,35.6z"/>
	<path class="st68" d="M27.2,32.8c0.1-0.2,0.2-0.5,0.4-0.7C27.4,32.3,27.3,32.6,27.2,32.8z"/>
	<path class="st123" d="M36.9,45c0.1-0.1,0.2-0.2,0.3-0.4C37.1,44.7,37,44.8,36.9,45z"/>
	<path class="st118" d="M11.1,46.4c0.1,0.1,0.2,0.2,0.4,0.4C11.3,46.6,11.2,46.5,11.1,46.4z"/>
	<path class="st13" d="M39.3,6.3c-0.1-0.1-0.3-0.2-0.4-0.3C39.1,6.1,39.2,6.2,39.3,6.3z"/>
	<path class="st13" d="M41.2,7.9c0.1,0.1,0.2,0.2,0.3,0.4l-0.1,0.1C41.3,8.2,41.2,8.1,41.2,7.9L41.2,7.9z"/>
	<path class="st13" d="M41.8,7.6C41.9,7.7,42,7.9,42.1,8C42,7.9,41.9,7.7,41.8,7.6z"/>
	<path class="st13" d="M40,5.9c0.1,0.1,0.2,0.2,0.4,0.3C40.3,6.1,40.2,6,40,5.9z"/>
	<path class="st118" d="M10.7,46c0.1,0.1,0.2,0.2,0.4,0.4C11,46.3,10.8,46.1,10.7,46z"/>
	<path class="st118" d="M9.7,45c0.1,0.1,0.2,0.2,0.3,0.3C9.9,45.2,9.8,45.1,9.7,45z"/>
	<path class="st118" d="M10.4,45.7c0.1,0.1,0.2,0.2,0.4,0.4C10.6,45.9,10.5,45.8,10.4,45.7z"/>
	<path class="st13" d="M39.7,6.6c-0.1-0.1-0.3-0.2-0.4-0.3C39.4,6.4,39.6,6.5,39.7,6.6z"/>
	<path class="st13" d="M41.5,7.2c0.1,0,0.2,0.1,0.3,0.1c0,0.1,0,0.2,0,0.3C41.7,7.5,41.6,7.3,41.5,7.2z"/>
	<path class="st118" d="M10.1,45.3c0.1,0.1,0.2,0.2,0.3,0.4C10.3,45.6,10.2,45.4,10.1,45.3z"/>
	<path class="st13" d="M35.5,3.8c-0.1,0-0.2,0-0.4,0C35.1,3.7,35,3.6,35,3.5C35.2,3.6,35.3,3.7,35.5,3.8z"/>
	<path class="st13" d="M36.9,3.5c0.1,0.1,0.3,0.2,0.4,0.3C37.1,3.7,37,3.6,36.9,3.5z"/>
	<path class="st49" d="M17.7,3.9C17.6,4,17.4,4,17.3,4.1C17.4,4,17.6,4,17.7,3.9z"/>
	<path class="st55" d="M16.2,49.9c0.2,0,0.3,0,0.5-0.1c0,0.1,0,0.2,0,0.3C16.5,50.1,16.3,50,16.2,49.9z"/>
	<path class="st13" d="M35.8,4.2c0-0.1-0.1-0.2-0.1-0.3C35.9,4,36,4.1,36.2,4.2C36.1,4.2,35.9,4.2,35.8,4.2z"/>
	<path class="st70" d="M38.6,48.8c0.1-0.1,0.3-0.2,0.4-0.3C38.8,48.5,38.7,48.7,38.6,48.8z"/>
	<path class="st13" d="M37.9,4.2c0.1,0.1,0.2,0.2,0.4,0.3C38.2,4.4,38.1,4.3,37.9,4.2z"/>
	<path class="st13" d="M38.3,4.5c0.1,0.1,0.3,0.2,0.4,0.3C38.6,4.7,38.4,4.6,38.3,4.5z"/>
	<path class="st13" d="M37.9,5.2c-0.1-0.1-0.3-0.2-0.4-0.3C37.6,5,37.8,5.1,37.9,5.2z"/>
	<path class="st13" d="M39,4.9c0.1,0.1,0.2,0.2,0.3,0.3C39.2,5.1,39.1,5,39,4.9z"/>
	<path class="st13" d="M38.3,5.5c-0.1-0.1-0.3-0.2-0.4-0.3C38.1,5.3,38.2,5.4,38.3,5.5z"/>
	<path class="st70" d="M30.6,47.4c0-0.1,0-0.2,0-0.3c0.1,0.1,0.3,0.2,0.4,0.3L31,47.4C30.8,47.4,30.7,47.4,30.6,47.4z"/>
	<path class="st118" d="M11.8,47.1c0.1,0.1,0.2,0.2,0.4,0.3C12,47.3,11.9,47.2,11.8,47.1z"/>
	<path class="st13" d="M39.3,5.3c0.1,0.1,0.2,0.2,0.4,0.3C39.5,5.5,39.4,5.4,39.3,5.3z"/>
	<path class="st118" d="M11.4,46.7c0.1,0.1,0.2,0.2,0.4,0.3C11.7,46.9,11.5,46.8,11.4,46.7z"/>
	<path class="st13" d="M39.7,5.6c0.1,0.1,0.2,0.2,0.4,0.3C39.9,5.8,39.8,5.7,39.7,5.6z"/>
	<path class="st67" d="M10.4,38.3c0-0.1,0.1-0.2,0.1-0.2C10.5,38.2,10.4,38.3,10.4,38.3C10.4,38.3,10.4,38.3,10.4,38.3z"/>
	<path class="st67" d="M10.4,37.3c0,0.1-0.1,0.2-0.1,0.2C10.3,37.5,10.3,37.4,10.4,37.3L10.4,37.3z"/>
	<path class="st67" d="M9.3,37.3c0-0.1,0.1-0.2,0.1-0.2C9.4,37.1,9.4,37.2,9.3,37.3C9.3,37.3,9.3,37.3,9.3,37.3z"/>
	<path class="st66" d="M9.3,19.5c0.1-0.1,0.2-0.2,0.3-0.3C9.5,19.3,9.4,19.4,9.3,19.5z"/>
	<path class="st67" d="M10.1,36.2c0.1,0.1,0.2,0.2,0.3,0.4C10.3,36.5,10.2,36.3,10.1,36.2z"/>
	<path class="st66" d="M9,19.8c0.1-0.1,0.2-0.2,0.3-0.3C9.2,19.6,9.1,19.7,9,19.8z"/>
	<path class="st48" d="M39.7,22.3c0.1,0.1,0.2,0.1,0.3,0.2C39.9,22.5,39.8,22.4,39.7,22.3z"/>
	<path class="st53" d="M29.9,34.7c-0.1,0.1-0.1,0.3-0.2,0.4C29.7,35,29.8,34.9,29.9,34.7z"/>
	<path class="st50" d="M33.4,29.2c-0.1,0.1-0.2,0.3-0.4,0.4C33.1,29.4,33.2,29.3,33.4,29.2z"/>
	<path class="st121" d="M5.9,33.4c0.1,0,0.2,0,0.3,0c0,0.1,0,0.2,0,0.4l-0.1,0.1C6.1,33.7,6,33.5,5.9,33.4z"/>
	<path class="st50" d="M33,29.6c-0.1,0.1-0.2,0.3-0.3,0.4C32.8,29.8,32.9,29.7,33,29.6z"/>
	<path class="st71" d="M44.6,42.9c0.1-0.1,0.2-0.3,0.3-0.4C44.8,42.7,44.7,42.8,44.6,42.9z"/>
	<path class="st13" d="M42.1,8c0.1,0.1,0.2,0.2,0.3,0.4C42.3,8.2,42.2,8.1,42.1,8z"/>
	<path class="st13" d="M41.5,8.3c0.1,0.1,0.2,0.2,0.3,0.4l-0.1,0.1C41.7,8.6,41.5,8.5,41.5,8.3L41.5,8.3z"/>
	<path class="st13" d="M42.5,8.4c0.1,0.1,0.2,0.2,0.3,0.4C42.7,8.6,42.6,8.5,42.5,8.4z"/>
	<path class="st104" d="M7.2,42.2c0,0.2,0,0.3,0,0.5c-0.1-0.1-0.2-0.3-0.3-0.4l0.1-0.1l0.1,0L7.2,42.2z"/>
	<path class="st13" d="M41.8,8.6C42,8.8,42.1,8.9,42.2,9l-0.1,0.1C42,9,41.9,8.8,41.8,8.6L41.8,8.6z"/>
	<path class="st13" d="M42.8,8.8C42.9,8.9,43,9,43,9.1C43,9,42.9,8.9,42.8,8.8z"/>
	<path class="st13" d="M42.4,9.4c-0.1,0-0.2,0-0.3,0c0-0.1,0-0.2,0-0.3L42.2,9C42.3,9.1,42.4,9.3,42.4,9.4z"/>
	<path class="st13" d="M42.8,9.8c-0.1-0.1-0.2-0.3-0.3-0.4C42.5,9.6,42.6,9.7,42.8,9.8z"/>
	<path class="st110" d="M38,41.1c-0.1,0-0.2,0-0.4,0c0-0.1,0-0.2,0-0.3c0.1,0,0.2,0,0.3,0C38,40.9,38,41,38,41.1z"/>
	<path class="st65" d="M11.8,17.1c0.1-0.1,0.3-0.2,0.4-0.3C12.1,16.9,11.9,17,11.8,17.1z"/>
	<path class="st125" d="M175,24c2.1-2.7,5.1-3.3,8.4-3.9c-0.3,1.6-0.5,2.9-0.8,4.3c-0.4,1.5-0.8,3-1.3,4.5c-0.6,1.6-1.7,2.7-3.3,3.3
		c-2.4,0.9-4.2-0.3-4.3-2.8c-0.1-1.5,0-2.9,0.7-4.2C174.5,24.7,174.7,24.4,175,24z"/>
	<path class="st126" d="M175,24c-0.2,0.4-0.4,0.7-0.7,1.1C174.5,24.7,174.7,24.4,175,24z"/>
	<path class="st127" d="M121.9,20.1c-0.7,2.9-1.3,5.5-2,8.1c-0.5,2-1.8,3.4-3.7,4.1c-2.2,0.8-4-0.2-4.3-2.6
		c-0.4-2.9,0.5-5.4,2.9-7.2C116.8,21,119.1,20.4,121.9,20.1z"/>
	<path class="st127" d="M65,32.9c0.8-2.9,1.5-5.5,2.3-8c0.8-2.3,2.5-3.7,4.9-4.3c2.6-0.6,4.4,0.8,4.5,3.5c0.1,2.4-0.8,4.5-2.7,5.9
		C71.4,32,68.4,32.6,65,32.9z"/>
	<path class="st125" d="M234.9,26.5c0.7-2.3,2-4.1,4.1-5.3c2.4-1.4,4.5-0.2,4.9,2.5c0.3,2.5-1.9,7.9-5.2,9.1c-0.9,0-1.9,0-2.8,0l0,0
		c-0.3-0.4-0.7-0.7-1-1.1l0,0c-0.1-1-0.3-1.9-0.3-2.9C234.7,28.1,234.8,27.3,234.9,26.5z"/>
	<path class="st128" d="M234.9,26.5c-0.1,0.8-0.3,1.6-0.3,2.4c0,1,0.2,1.9,0.3,2.9c-0.9-0.5-0.7-1.4-0.7-2.2
		C234.2,28.5,234.2,27.4,234.9,26.5z"/>
	<path class="st128" d="M236,32.8c0.9,0,1.9,0,2.8,0C237.9,33.4,236.9,33.8,236,32.8z"/>
	<path class="st128" d="M234.9,31.7c0.3,0.4,0.7,0.7,1,1.1C235.3,32.8,234.9,32.4,234.9,31.7z"/>
	<path class="st129" d="M154.7,22.9c0.7-1.3,2-2,3.4-2.5c1.3-0.4,2.2-0.2,2.8,0.6c0.5,0.7,0.2,1.7-0.8,2.7c-0.4,0.1-0.7,0.2-1.1,0.3
		c0,0,0,0,0,0c-1.4-0.1-2.9-0.2-4.3-0.3C154.6,23.6,154.7,23.3,154.7,22.9z"/>
	<path class="st130" d="M154.7,22.9c0,0.3-0.1,0.7-0.1,0.8c1.4,0.1,2.9,0.2,4.3,0.3c-0.3,0.1-0.6,0.3-0.9,0.3
		c-1.4,0.1-2.8,0.1-4.3,0.1C154.1,24,153.8,23.1,154.7,22.9z"/>
	<path class="st130" d="M158.9,24.1c0.4-0.1,0.7-0.2,1.1-0.3C159.7,23.8,159.3,23.9,158.9,24.1z"/>
	<path class="st127" d="M99.6,20.1c-0.8,3-1.4,5.7-2.2,8.4c-0.6,1.9-1.9,3.2-3.8,3.8c-2.1,0.6-3.7-0.3-4.1-2.5c-0.4-3,0.4-5.5,3-7.3
		C94.6,21,96.9,20.4,99.6,20.1z"/>
	<path class="st22" d="M132.8,19.9c0.1,0,0.2,0.1,0.2,0.1C132.9,20,132.9,19.9,132.8,19.9L132.8,19.9z"/>
	<path class="st131" d="M234.1,48c0,1.4-0.9,2.5-2.2,2.4c-1.3,0-2.2-1.2-2.1-2.6c0.1-1.4,1-2.5,2.2-2.5
		C233.2,45.4,234.1,46.5,234.1,48z"/>
	<path class="st132" d="M166.9,18.5c0.1,0,0.2,0.1,0.2,0.1C167.1,18.6,167,18.5,166.9,18.5L166.9,18.5z"/>
	<path class="st133" d="M41.7,7l-0.1,0c0-0.1,0-0.2,0-0.3C41.6,6.8,41.7,6.9,41.7,7z"/>
	<path class="st134" d="M48.7,17.1c-0.1-0.3-0.3-0.7-0.4-1c0.1,0,0.3,0,0.4,0C48.7,16.4,48.7,16.8,48.7,17.1z"/>
	<path class="st79" d="M49.4,19.5c-0.1-0.2-0.2-0.5-0.3-0.7C49.2,19,49.3,19.3,49.4,19.5z"/>
	<path class="st135" d="M45,11.8c0.2-0.1,0.4-0.3,0.6-0.4c0.1,0,0.2,0.1,0.3,0.1c0.1,0.1,0.2,0.2,0.3,0.3c0.3,0.5,0.5,0.9,0.8,1.4
		c0,0.1,0,0.2,0.1,0.3c0.2,0.6,0.4,1.1,0.7,1.7c-0.1,0.3-0.3,0.6-0.4,0.9c-0.1,0.3-0.2,0.6-0.3,0.9c0-0.2-0.1-0.4-0.1-0.6
		c-0.1-0.3-0.2-0.5-0.3-0.8C46.1,14.4,45.6,13.1,45,11.8z"/>
	<path class="st136" d="M44.6,9.4c-0.1-0.1-0.2-0.2-0.3-0.3c0.1,0,0.2,0,0.3,0.1C44.5,9.2,44.5,9.3,44.6,9.4z"/>
	<path class="st137" d="M22.2,43.9c-0.1,0-0.2,0-0.4,0.1c-0.6-0.2-1.2-0.5-1.7-0.7c0-0.9,0.6-0.7,1.2-0.8
		C20.8,43.6,22.1,43.3,22.2,43.9z"/>
	<path class="st138" d="M16.7,41.8c-0.4-0.2-0.7-0.5-1.1-0.7C16.1,41.1,16.7,41,16.7,41.8z"/>
	<path class="st139" d="M30.6,47.4c0.1,0,0.2,0,0.4,0c0.3,0.2,0.7,0.5,1,0.7c-1,0.3-2,0.4-2.9,0.8c-2.2,0.9-4.6,1.1-6.9,0.9
		c-2.6-0.2-5.2-0.6-7.3-2.4c0.3,0,0.7,0,1,0c1.1,0.4,2.2,0.8,3.4,1.1c0.7,0.2,1.4,0.2,2,0.3c2.5,0.6,4.8,0.1,7.2-0.8
		c0.5-0.1,1.3,0.4,1.4-0.7C30.1,47.4,30.4,47.4,30.6,47.4z"/>
	<path class="st140" d="M5.9,33.4c0.1,0.2,0.1,0.3,0.2,0.5c0.1,0.3,0.3,0.7,0.4,1c0.3,0.8,0.6,1.6,0.8,2.4c0.4,1.8,1.5,3.1,2.4,4.6
		c0.1,0.5,0.2,0.9,0.3,1.4c-0.1,0-0.2,0-0.4,0c-0.7-0.9-1.4-1.9-2.1-2.8c-0.2-0.6-0.5-1.1-0.7-1.7c0,0-0.3,0-0.4,0
		c-0.1-0.3-0.2-0.5-0.3-0.8c-0.1-0.4-0.2-0.7-0.3-1.1c0-0.2,0-0.4-0.1-0.6c-0.1-0.4-0.2-0.7-0.2-1.1c0-0.6,0-1.1-0.1-1.7
		C5.7,33.5,5.8,33.4,5.9,33.4L5.9,33.4z"/>
	<path class="st141" d="M28.5,48.1c-2.3,0.9-4.7,1.4-7.2,0.8c-0.7-0.2-1.4-0.2-2-0.3c-1.1-0.3-2.2-0.8-3.4-1.1
		c-0.1-0.2-0.2-0.5-0.3-0.7c0.4,0.1,0.8,0.1,1.2,0.3c2.5,1.4,5.2,1.5,7.9,1.5c0.8,0,1.7-0.3,2.5-0.5c0.4-0.1,0.9-0.1,1.4-0.2
		C28.5,47.9,28.5,48,28.5,48.1z"/>
	<path class="st142" d="M10,43.2c-0.1-0.5-0.2-0.9-0.3-1.4c0.2,0,0.4,0,0.5,0.1c1.3,1.3,2.7,2.6,4,3.9c0.2,0.2,0.3,0.4,0.4,0.5l0,0
		c-0.5-0.1-0.9-0.2-1.4-0.4C12.1,45.1,11.1,44.2,10,43.2z"/>
	<path class="st143" d="M28.5,48.1c0-0.1,0-0.2,0-0.4c0.5-0.1,0.9-0.2,1.4-0.3C29.9,48.5,29,48,28.5,48.1z"/>
	<path class="st142" d="M15.6,46.7c0.1,0.2,0.2,0.5,0.3,0.7c-0.3,0-0.7,0-1,0l0,0c-0.1-0.3-0.2-0.7-0.4-1l0,0
		C14.9,46.5,15.3,46.6,15.6,46.7z"/>
	<path class="st59" d="M16,18.1c-0.1,0-0.2-0.1-0.2-0.1C15.8,18,15.9,18.1,16,18.1L16,18.1z"/>
	<path class="st51" d="M31.4,22.9c0.2,0.2,0.4,0.3,0.5,0.5c-0.1,0.1-0.1,0.1-0.2,0.2c-0.2-0.2-0.3-0.4-0.5-0.5
		C31.3,23,31.3,23,31.4,22.9z"/>
	<polygon class="st46" points="25.8,17.9 25.9,17.9 25.9,18 	"/>
	<path class="st114" d="M25,2.1c0.2,0.2,0.5,0.5,0.7,0.7c-0.4,0-0.9,0.1-1.3,0.1c-0.1,0.7-0.1,1.3-0.3,1.8c-0.7,1.5-1.3,3-1.2,4.7
		c0.1,1,0,2.1,0,3.1l0,0c-0.5,0-0.9,0-1.4,0c0-1.1-0.2-2.2,0-3.4c0.2-1.4,0.9-2.7,1.1-4.1c0.1-1,0.7-1.5,1-2.3
		C23.9,2.1,24.4,2,25,2.1z"/>
	<path class="st97" d="M21.6,12.5c0.5,0,0.9,0,1.4,0c0,0.1,0,0.2,0,0.3C22.5,12.7,22,12.6,21.6,12.5z"/>
	<path class="st144" d="M28.5,29.3c0,0.2,0,0.5,0,0.7c-0.3,0.3-0.6,0.5-0.9,0.9c-0.2-0.5-0.4-0.9-0.7-1.5c-2.6,0.3-4-1.7-5.2-3.5
		c-0.8-1.2-1.7-2.6-1.5-4.3c0-0.3-0.3-0.7-0.4-0.9c0.2-0.7,0.5-1.3,0.4-1.8c-0.1-0.4-0.8-0.6-1.3-0.8l0,0c0-0.1,0-0.2,0-0.3l0,0
		c0.2-0.3,0.5-0.7,0.7-1c0.7,0,1.4,0,2.1,0c-0.4,1.1,0.3,2.3-0.2,3.3c0.8,2.9,1.8,5.7,4.5,7.5c0.1,0.1,0.2,0.1,0.3,0.2
		c0.2-0.1,0.4-0.3,0.8-0.5c0.2,0.4,0.3,0.8,0.4,1.2c0.6,0.2,1.1,0.4,1.6,0.5l0,0C28.8,29,28.6,29.2,28.5,29.3z M19.9,17.9L19.9,17.9
		L19.9,17.9L19.9,17.9z"/>
	<path class="st145" d="M36.9,14.6c-0.7,0-1.4-0.1-2.1,0c-1.4,0.1-2.5-0.5-3.5-1.4c-1-0.3-1.5-0.9-1.4-2c0.1-0.9-0.1-1.9,0.2-2.7
		c0.4-1.2,1.2-2,2.5-2.5c1.2-0.5,2.2-0.6,3.2,0.2c0.4,0.3,1.1,0,1.1,0.8c0,0.2,0,0.5,0,0.7c-0.9-0.9-2-0.7-3.1-0.7
		c-1.7,0-2.5,0.9-2.5,2.5c0,0.6-0.1,1.3,0,1.9c0.1,0.5,0.3,0.9,0.6,1.3c1,1.5,2.6,1.2,4,1.2c0.5-0.8,0.6-1.8,1.7-2.1
		c-0.1,0.5-0.2,0.9-0.3,1.4C37.1,13.7,37,14.2,36.9,14.6L36.9,14.6z"/>
	<path class="st146" d="M42.1,9.1c0,0.1,0,0.2,0,0.3c-0.1,0.1-0.3,0.3-0.3,0.4c0.3,1.3-0.8,2.2-0.7,3.4c0.1,0.9-0.3,1.4-0.8,1.9
		c-0.6,0.6-1.2,1-1.7,1.7c-0.5,0.6-1,0.6-1.7,0.6c0-0.4,0-0.8,0.1-1.2c2-0.7,3.4-2.6,3.4-4.6c0-0.4,0-0.8,0-1.2
		c-0.6-0.7,0.6-0.7,0.5-1.2c-0.7-0.3-1.3-0.6-1.9-0.9c0-0.2,0-0.5,0-0.7c0.4-0.1,0.7-0.3,1.1-0.4c0.3,0.3,0.7,0.5,1,0.8
		c0.1,0.1,0.2,0.2,0.3,0.3c0.1,0.1,0.2,0.2,0.3,0.4C41.9,8.8,42,9,42.1,9.1z"/>
	<path class="st83" d="M39,7.7c0,0.2,0,0.5,0,0.7c-0.2,0.1-0.4,0.1-0.6,0.2c0.8,1.3,0.9,2.6,0.2,4c-0.2,0.4-0.2,1-0.3,1.5
		c-0.5,0-0.7,0.2-0.7,0.7c-0.2,0-0.5,0-0.7,0c0.1-0.5,0.2-0.9,0.3-1.4c0.1-0.5,0.2-0.9,0.3-1.4c0.2-0.5,0.5-1.1,0.7-1.6
		c-0.5-0.9-0.9-1.8-1.4-2.6c0-0.2,0-0.5,0-0.7C37.5,7.4,38.1,7.8,39,7.7z"/>
	<path class="st46" d="M29.6,27.9c0,0.1-0.1,0.2-0.1,0.2C29.5,28,29.5,28,29.6,27.9L29.6,27.9z"/>
	<path class="st50" d="M33.4,30.3c0.1,0,0.2,0,0.3,0l0,0C33.6,30.3,33.5,30.3,33.4,30.3L33.4,30.3z"/>
	<path class="st147" d="M44.2,12.5c0.2,0.5,0.5,0.9,0.7,1.4c-0.1,1.2-0.3,2.3-0.4,3.5c-0.2-0.2-0.5-0.5-0.7-0.7
		c-0.2-0.2-0.5-0.5-0.7-0.7c0.2-0.5,0.5-0.9,0.7-1.4C44,13.9,44.1,13.2,44.2,12.5z"/>
	<path class="st148" d="M46.6,22.3c0,0.4,0,0.8,0,1.2c-0.9,0.3-1.7,0.3-2.4-0.2c-0.1-0.3-0.2-0.5-0.3-0.8c0.8-0.3,1.5-0.5,2.3-0.7
		C46.3,21.8,46.5,22.1,46.6,22.3z"/>
	<path class="st92" d="M43.2,16c0.2,0.2,0.5,0.5,0.7,0.7c0.2,0.2,0.5,0.5,0.7,0.7c-0.2,0.8-0.6,1.2-1.4,1.4c0-0.7,0-1.4,0-2.1
		C43.2,16.5,43.2,16.3,43.2,16z"/>
	<path class="st47" d="M33.4,30.3c0.1,0,0.2,0,0.3,0C33.6,30.3,33.5,30.3,33.4,30.3z"/>
	<path class="st50" d="M31,32.5c0.1,0,0.2,0,0.3,0c0,0.3,0,0.5,0,0.8c-0.1,0-0.1,0-0.2,0C31.1,33,31,32.7,31,32.5z"/>
	<path class="st54" d="M38.6,38.7c0.1,0,0.2,0,0.4,0l0,0C38.9,38.7,38.8,38.7,38.6,38.7L38.6,38.7z"/>
	<path class="st53" d="M38.6,38.7c0.1,0,0.2,0,0.3,0c0,0.3,0.1,0.6,0.1,0.9c-0.1,0-0.2,0-0.4,0C38.7,39.3,38.7,39,38.6,38.7z"/>
	<path class="st62" d="M37.2,41.1c-0.2,0.1-0.4,0.3-0.7,0.4C36.8,41.4,37,41.3,37.2,41.1z"/>
	<path class="st62" d="M36.6,41.5c-0.1,0.1-0.2,0.2-0.4,0.3C36.3,41.7,36.4,41.6,36.6,41.5z"/>
	<path class="st62" d="M37.6,40.8c0,0.1,0,0.2,0,0.3c-0.1,0-0.2,0-0.3,0C37.4,41,37.5,40.9,37.6,40.8z"/>
	<path class="st149" d="M10,43.2c1,0.9,2.1,1.9,3.1,2.8c0.3,0.5,0.7,0.9,1,1.4c-1-0.7-2-1.3-2.9-2.1c-0.6-0.6-1.1-1.4-1.6-2
		C9.8,43.2,9.9,43.2,10,43.2z"/>
	<path class="st150" d="M6.5,38.8c0.1,0,0.4-0.1,0.4,0c0.3,0.6,0.5,1.1,0.7,1.7c0,0.1,0,0.3,0,0.4c-0.1,0-0.2,0-0.3,0
		C7,40.1,6.8,39.4,6.5,38.8z"/>
	<path class="st139" d="M14.2,47.4c-0.3-0.5-0.7-0.9-1-1.4c0.5,0.1,0.9,0.2,1.4,0.4c0.1,0.3,0.2,0.7,0.4,1
		C14.7,47.4,14.5,47.4,14.2,47.4z"/>
	<path class="st118" d="M9,43.6c-0.1-0.1-0.2-0.2-0.3-0.4C8.8,43.3,8.9,43.5,9,43.6z"/>
	<path class="st118" d="M8.6,43.2c-0.1-0.1-0.2-0.2-0.3-0.4C8.5,43,8.6,43.1,8.6,43.2z"/>
	<path class="st118" d="M8.3,42.5c-0.1-0.1-0.2-0.2-0.3-0.4C8.1,42.3,8.2,42.4,8.3,42.5z"/>
	<path class="st104" d="M8,42.2c-0.1-0.1-0.2-0.2-0.3-0.4c0.1,0,0.2,0,0.3,0C8,41.9,8,42,8,42.2z"/>
	<path class="st140" d="M7.9,41.8c-0.1,0-0.2,0-0.3,0c0-0.1-0.1-0.2,0-0.3C7.7,41.6,7.8,41.7,7.9,41.8z"/>
	<path class="st118" d="M7.3,40.8c0.1,0,0.2,0,0.3,0c0,0.1,0,0.2,0,0.3c-0.1,0-0.2,0-0.3,0C7.3,41,7.2,40.9,7.3,40.8z"/>
	<path class="st151" d="M33.4,47.4c-0.4-0.2-0.7-0.4-1.1-0.6C32.8,46.7,33.4,46.6,33.4,47.4z"/>
	<path class="st42" d="M18.8,17.8c0,0.1,0,0.2,0,0.3c-0.2-0.1-0.3-0.2-0.5-0.2C18.4,17.8,18.6,17.8,18.8,17.8z"/>
	<path class="st49" d="M18.5,4.2c0,0,0.1,0.1,0.1,0.1c-0.1,0-0.2,0.1-0.3,0.1c0,0-0.1-0.1-0.1-0.1C18.3,4.3,18.4,4.3,18.5,4.2z"/>
	<path class="st152" d="M34.5,42.6c-0.2,0.1-0.5,0.2-0.7,0.3c0-0.1-0.1-0.2-0.1-0.3C34,42.6,34.3,42.6,34.5,42.6z"/>
	<path class="st153" d="M43.2,16c0,0.2,0,0.5,0,0.7c-0.4,0-0.8,0-1.3,0.1c0,1-0.4,1.5-1.4,1.4c-0.1,0.7-0.2,1.3-0.2,1.9
		c-0.9,0.2-1.1-1.2-2-0.5c-0.1-0.1-0.1-0.2-0.2-0.2c1-0.4,1.5-1.5,2.5-2c0.5-0.2,0.8-1.1,1.1-1.7c0.1-0.2,0-0.6,0.1-0.7
		c1.2-0.7,0.7-1.8,0.6-2.7c0.4-0.3,0.7-0.5,1.1-0.8c0.2,0.4,0.5,0.7,0.7,1.1c-0.1,0.7-0.2,1.4-0.4,2.1C43.7,15.1,43.4,15.6,43.2,16z
		"/>
	<path class="st56" d="M12.8,15c0,0.1-0.1,0.2-0.1,0.2C12.7,15.1,12.8,15.1,12.8,15C12.8,15,12.8,15,12.8,15z"/>
	<path class="st64" d="M10.4,16.4c0,0.1-0.1,0.2-0.1,0.2C10.3,16.5,10.3,16.5,10.4,16.4L10.4,16.4z"/>
	<path class="st154" d="M37.3,46.7c0.6,0.2,1.5-0.5,1.7,0.6c-0.8,0.2-1.6,0.4-2.4,0.6c-0.1-0.1-0.1-0.2-0.2-0.3
		C36.7,47.3,37,47,37.3,46.7z"/>
	<path class="st155" d="M29.9,51.2c-0.5,0.1-0.9,0.2-1.4,0.3c-0.2-0.1-0.5-0.2-0.7-0.3c1-0.3,1.9-0.7,2.9-1c0.1,0.2,0.2,0.3,0.3,0.5
		C30.6,50.9,30.3,51.1,29.9,51.2z"/>
	<path class="st156" d="M32,49.1c0.2-0.1,0.5-0.2,0.7-0.3c-0.1,0.1-0.3,0.2-0.4,0.3C32.3,49.2,32.1,49.1,32,49.1z"/>
	<path class="st155" d="M30.9,50.1c0.2-0.1,0.3-0.2,0.5-0.3C31.2,50,31,50.1,30.9,50.1z"/>
	<path class="st55" d="M31.3,49.8c0.1-0.1,0.3-0.2,0.4-0.2C31.6,49.6,31.4,49.7,31.3,49.8z"/>
	<path class="st55" d="M32,49.1c0.1,0,0.2,0,0.4,0c-0.1,0.1-0.2,0.2-0.4,0.2C32,49.3,32,49.2,32,49.1z"/>
	<path class="st156" d="M32.7,48.8c0-0.1,0-0.3,0-0.4c0.1,0.1,0.2,0.1,0.3,0.2C33,48.7,32.9,48.8,32.7,48.8z"/>
	<path class="st157" d="M27.8,51.2c0.2,0.1,0.5,0.2,0.7,0.3c-0.2,0-0.4,0.1-0.6,0.1c-0.4,0.1-0.7,0.1-1.1,0.2c0-0.1,0-0.2,0-0.3
		c0-0.1,0-0.2,0-0.3C27.1,51.3,27.5,51.2,27.8,51.2z"/>
	<path class="st109" d="M26.8,51.3c0,0.1,0,0.2,0,0.3c-0.4,0-0.7,0-1.1-0.1C26.1,51.5,26.5,51.4,26.8,51.3z"/>
	<path class="st97" d="M22.9,12.5c0-1,0.1-2.1,0-3.1c-0.1-1.7,0.6-3.2,1.2-4.7c0.2-0.5,0.2-1.1,0.3-1.8c0.4,0,0.8-0.1,1.3-0.1l0,0
		c0,0.7,0,1.4,0,2.1c-0.5,0.4-1.4,1.9-1.4,2.6c0,1,0,2.1,0,3.1C24.4,11.6,24,12.3,22.9,12.5z"/>
	<path class="st158" d="M25.7,4.9c0-0.7,0-1.4,0-2.1c0.5,0,0.9,0,1.4,0c0.3,0.9-0.6,1.4-0.7,2.1C26.2,4.9,26,4.9,25.7,4.9z"/>
	<path class="st159" d="M38.3,13.9c0.1-0.5,0.1-1,0.3-1.5c0.7-1.4,0.6-2.6-0.2-4c0.2-0.1,0.4-0.1,0.6-0.2c0.6,0.3,1.2,0.6,1.9,0.9
		c0.1,0.4-1.2,0.4-0.5,1.2c-1,0-0.7,0.8-0.7,1.3C39.7,12.8,39.2,13.5,38.3,13.9z"/>
	<path class="st159" d="M37.6,14.6c0-0.5,0.2-0.7,0.7-0.7C38.3,14.4,38.1,14.7,37.6,14.6z"/>
	<path class="st69" d="M44,37.4C44,37.4,44.1,37.5,44,37.4c0.1,0.1,0,0.2,0,0.2c0,0-0.1,0-0.1,0C43.9,37.6,44,37.5,44,37.4z"/>
	<path class="st75" d="M46.8,35.7c0,0.1,0.1,0.2,0.1,0.3c0,0-0.1,0.1-0.1,0.1c0-0.1-0.1-0.2-0.1-0.3C46.7,35.8,46.8,35.7,46.8,35.7z
		"/>
	<path class="st76" d="M45.2,33.4c0.1-0.2,0.2-0.5,0.4-0.7C45.5,32.9,45.3,33.2,45.2,33.4z"/>
	<path class="st84" d="M46.7,15.7c0.1,0.3,0.2,0.5,0.3,0.8C46.9,16.2,46.8,15.9,46.7,15.7z"/>
	<path class="st122" d="M42.9,32c0-0.5,0-0.9,0-1.4c0.9-0.8,1.9-0.3,2.8-0.3c-0.1,0.5-0.3,0.9-0.4,1.4c-0.1,0.1-0.2,0.2-0.3,0.3l0,0
		C43.9,31.1,43.8,31.1,42.9,32z"/>
	<path class="st122" d="M45.9,29.6c-0.1,0.2-0.2,0.5-0.3,0.7C45.7,30.1,45.8,29.9,45.9,29.6z"/>
	<path class="st160" d="M7.3,40.8c0,0.1,0,0.2,0.1,0.3c-0.1,0.1-0.3,0.2-0.4,0.3c-0.4-0.8-0.7-1.6-1.1-2.4c-0.1-0.1-0.2-0.2-0.3-0.4
		l0,0c0-0.3-0.1-0.7-0.1-1c-0.1-0.1-0.2-0.2-0.3-0.4c0-0.1,0-0.2,0-0.3c-0.1-0.7-0.2-1.4-0.3-2.2C5,34,5.1,33.2,5.2,32.4
		c0.2,0,0.4,0,0.7,0c0,0.1,0,0.2,0,0.4c-0.1,0.2-0.2,0.5-0.3,0.7c0,0.6,0,1.1,0.1,1.7c0.1,0.4,0.2,0.7,0.2,1.1c0,0.2,0,0.4,0.1,0.6
		C6,37.3,6.1,37.7,6.2,38c0.1,0.3,0.2,0.5,0.3,0.8C6.8,39.4,7,40.1,7.3,40.8z"/>
	<path class="st161" d="M42.9,32c0.9-0.9,1.1-0.9,2.1,0c-0.1,0.3-0.3,0.7-0.4,1c-0.3-0.1-0.6-0.3-0.8-0.2
		C42.9,33.2,42.9,32.6,42.9,32z"/>
	<path class="st161" d="M44.9,32.1c0.1-0.1,0.2-0.2,0.3-0.3C45.1,31.8,45,32,44.9,32.1z"/>
	<path class="st162" d="M26.4,51.9c0,0.1,0,0.2,0,0.3c-0.3,0-0.6,0-0.8,0c0-0.1,0-0.1,0-0.2C25.9,52,26.2,52,26.4,51.9z"/>
	<path class="st118" d="M7.2,42.2l-0.1,0l-0.1,0c0-0.1,0-0.2,0-0.3C7,42,7.1,42.1,7.2,42.2z"/>
	<path class="st111" d="M5.5,38.7c0.1,0.1,0.2,0.2,0.3,0.4C5.7,38.9,5.6,38.8,5.5,38.7z"/>
	<path class="st85" d="M5.2,37.3c0.1,0.1,0.2,0.2,0.3,0.4C5.3,37.5,5.3,37.4,5.2,37.3z"/>
	<path class="st44" d="M28.5,29.3c0.1-0.1,0.2-0.2,0.3-0.3C28.8,29,28.6,29.2,28.5,29.3z"/>
	<path class="st121" d="M5.5,33.5c0.1-0.2,0.2-0.5,0.3-0.7c0,0.2,0.1,0.4,0.1,0.6C5.8,33.4,5.7,33.5,5.5,33.5z"/>
	<path class="st121" d="M6.2,38c-0.1-0.4-0.2-0.7-0.3-1.1C6,37.3,6.1,37.7,6.2,38z"/>
	<path class="st121" d="M5.8,36.3c-0.1-0.4-0.2-0.7-0.2-1.1C5.7,35.6,5.7,35.9,5.8,36.3z"/>
	<polygon class="st42" points="19.9,17.9 20,17.9 20,18 	"/>
	<path class="st163" d="M36.9,7.7c0.4,0.8,0.9,1.7,1.4,2.6c-0.2,0.5-0.4,1-0.7,1.6c-1,0.2-1.2,1.3-1.7,2.1c-1.4,0-3,0.4-4-1.2
		c-0.3-0.4-0.5-0.9-0.6-1.3c-0.1-0.6,0-1.3,0-1.9c0-1.7,0.8-2.5,2.5-2.5C34.9,6.9,36,6.7,36.9,7.7z"/>
</g>
</svg>
