<?xml version="1.0" encoding="utf-8"?>
<!-- Generator: Adobe Illustrator 21.0.0, SVG Export Plug-In . SVG Version: 6.00 Build 0)  -->
<svg version="1.1" id="Camada_1" xmlns="http://www.w3.org/2000/svg" xmlns:xlink="http://www.w3.org/1999/xlink" x="0px" y="0px"
	 viewBox="0 0 250 51.5" style="enable-background:new 0 0 250 51.5;" xml:space="preserve">
<style type="text/css">
	.st0{fill:#050403;}
	.st1{fill:#010101;}
	.st2{fill:#F8E776;}
	.st3{fill:#77B700;}
	.st4{fill:#FAED9D;}
	.st5{fill:#FBF0B0;}
	.st6{fill:#E02026;}
	.st7{fill:#E87917;}
	.st8{fill:#E34722;}
	.st9{fill:#E55A20;}
	.st10{fill:#E76B1C;}
	.st11{fill:#FDF6D3;}
	.st12{fill:#E13424;}
	.st13{fill:#F1D616;}
	.st14{fill:#F0C511;}
	.st15{fill:#F1C805;}
	.st16{fill:#EA8114;}
	.st17{fill:#F1E51C;}
	.st18{fill:#EFB305;}
	.st19{fill:#F2D907;}
	.st20{fill:#EC8D0C;}
	.st21{fill:#FCF3C4;}
	.st22{fill:#DE2624;}
	.st23{fill:#EDA005;}
	.st24{fill:#F7E560;}
	.st25{fill:#F5E241;}
	.st26{fill:#EC930B;}
	.st27{fill:#FEFEFE;}
	.st28{fill:#FEFAEA;}
	.st29{fill:#FDFDFD;}
</style>
<g>
	<path class="st0" d="M27.4,0.1c5.4,0.4,10.2,2.4,14.4,5.8c4.6,3.8,7.6,8.7,8.7,14.6c1.6,8.6-0.6,16.1-6.5,22.5
		c-3.8,4.1-8.4,6.6-13.9,7.6C22.7,51.9,16,50.3,10,45.8c-5.2-3.9-8.4-9.2-9.6-15.5c-0.2-0.9-0.3-1.8-0.4-2.8c0-0.3,0-0.6-0.1-0.9
		c0-0.7,0-1.4,0-2.1c0-0.2,0-0.5,0.1-0.7c0-0.1,0-0.2,0-0.3c0.2-1.3,0.3-2.7,0.7-4C2.3,13,5.9,7.9,11.4,4.2
		c3.6-2.5,7.7-3.8,12.1-4.2c0.1,0,0.2,0,0.3,0C24,0,24.3,0,24.5,0c0.7,0,1.4,0,2.1,0C26.9,0,27.1,0,27.4,0.1z M6.9,9.7
		C6.9,9.7,6.9,9.7,6.9,9.7C6.8,9.8,6.8,9.8,6.8,9.9c0,0-0.1,0.1-0.1,0.1c0,0,0,0-0.1,0c0,0,0,0,0,0c0,0,0,0,0-0.1
		c0,0,0.1-0.1,0.1-0.1C6.8,9.8,6.8,9.8,6.9,9.7C6.9,9.7,6.9,9.7,6.9,9.7C7,9.6,7,9.6,6.9,9.7C7,9.6,7,9.6,6.9,9.7z M9.3,42.2
		C9.4,42.2,9.4,42.3,9.3,42.2c0.1,0.1,0.1,0.1,0.2,0.1c0,0,0,0,0,0c0,0,0,0,0,0c0,0,0,0,0,0C9.5,42.3,9.4,42.3,9.3,42.2
		C9.4,42.3,9.4,42.2,9.3,42.2c0,0,0-0.1-0.1-0.1c0,0,0-0.1-0.1-0.1c-0.1-0.1-0.2-0.3-0.3-0.4c-0.7-1.1-1.5-2.2-2.2-3.4
		c-0.2-0.5-0.5-1-0.7-1.5c-0.2-0.5-0.4-1.1-0.6-1.6c-0.2-0.6-0.3-1.3-0.5-1.9c-0.2-1.5-0.4-2.9-0.2-4.4c0-0.3-0.1-0.6-0.2-0.9
		c-0.1-0.5-0.3-1-0.4-1.5c0-0.1,0-0.1-0.1-0.2c0,0,0-0.1-0.1-0.1c0-0.1,0-0.3-0.1-0.4c-0.2-1.3-0.4-2.5-0.5-3.8
		c-0.1-1.9,0.2-3.8,0.6-5.7c0.2-0.7,0.4-1.3,0.6-2c0.3-0.6,0.5-1.2,0.8-1.8c0.4-0.7,0.7-1.3,1.1-2c0,0,0,0,0,0
		c0-0.1,0.1-0.1,0.1-0.2c0,0,0,0-0.1,0c0,0.1-0.1,0.1-0.1,0.2c0,0,0,0.1-0.1,0.1C6,11,5.6,11.6,5.2,12.2c-0.3,0.5-0.5,1-0.8,1.4
		C4.2,14,4,14.3,3.9,14.7c-0.1,0.1-0.1,0.2-0.2,0.3c-2.1,4.9-2.5,9.9-1.4,15c0.3,1.6,0.8,3.1,1.6,4.6c0.1,0.2,0.2,0.4,0.3,0.6
		c0.1,0.3,0.3,0.5,0.4,0.8c0.2,0.3,0.4,0.7,0.6,1c0.2,0.2,0.3,0.5,0.5,0.7c0.2,0.3,0.5,0.7,0.7,1c0.8,1,1.6,1.9,2.4,2.9
		C8.9,41.9,9,42,9.1,42.1c0,0,0.1,0,0.1,0.1C9.3,42.2,9.3,42.2,9.3,42.2z M34.5,1.9C34.6,1.9,34.6,2,34.5,1.9
		C34.6,1.9,34.6,1.9,34.5,1.9C34.5,1.9,34.5,1.9,34.5,1.9C34.5,1.9,34.5,1.9,34.5,1.9z M30.9,48.4c0.5-0.1,1-0.2,1.4-0.3
		c0.4-0.1,0.8-0.3,1.3-0.4c0.5-0.2,0.9-0.3,1.4-0.5c0.3-0.2,0.7-0.3,1-0.5c0.4-0.2,0.8-0.3,1.2-0.6c0.8-0.5,1.6-1,2.5-1.5
		c0,0,0,0,0.1,0c0,0,0,0,0,0c0,0,0,0,0,0.1c-0.1,0-0.1,0-0.2,0c-1.3,0.5-2.7,0.8-4.1,0.9c-0.5-0.1-0.9,0.1-1.2,0.4
		c-0.4,0.2-0.7,0.4-1.1,0.6c-0.4,0.2-0.7,0.4-1.1,0.5c-0.5,0.2-0.9,0.4-1.4,0.5c-0.5,0.2-1,0.3-1.5,0.5c-1.7,0.4-3.4,0.6-5.2,0.6
		c-0.1,0-0.2,0-0.3,0c0,0,0,0,0,0c0.1,0,0.2,0,0.3,0c1.8,0.2,3.5,0.1,5.3-0.1C29.7,48.6,30.3,48.5,30.9,48.4z M42.6,29.8
		c0,0.3,0,0.6,0.1,1c0,0.4,0,0.8-0.1,1.2c-0.1,0.8-0.2,1.5-0.2,2.4c0.9-1.1,1.7-2.2,2.3-3.5c0.2-0.3,0.3-0.7,0.5-1
		c0.2-0.4,0.3-0.7,0.5-1.1c0.1-0.3,0.2-0.7,0.4-1c0.1-0.3,0.2-0.6,0.3-1c0-0.5-0.4-0.7-0.7-1c-1.2-1.2-2.8-1.7-4.5-1.8
		c0.2,0.6,0.5,1.2,0.7,1.8c0.1,0.3,0.2,0.6,0.3,0.9c0.1,0.3,0.1,0.6,0.2,1c0.1,0.3,0.1,0.7,0.2,1C42.5,29,42.6,29.4,42.6,29.8z
		 M48.7,28.7c0.2,1.4,0.2,2.8,0,4.3c0.1-0.1,0.1-0.1,0.1-0.2c0.6-1.7,1.1-3.4,1.3-5.2c0.1-1,0.1-1.9,0.2-2.9
		c-0.1-1.1-0.1-2.1-0.2-3.2c-0.2-1.1-0.4-2.2-0.6-3.3c-0.4-1.1-0.8-2.2-1.2-3.4c-0.6-1.1-1.1-2.1-1.7-3.2c-0.6-0.9-1.3-1.8-1.9-2.6
		c0-0.1-0.1-0.1-0.1-0.2c-1.3-1.5-2.7-2.8-4.2-3.9c-1.2-0.9-2.5-1.7-3.9-2.3c-0.3-0.2-0.7-0.3-1-0.5c0,0,0,0.1,0,0.1
		c0.3,0.2,0.6,0.3,1,0.5c1.4,0.8,2.7,1.7,3.9,2.7c1.5,1.3,2.8,2.7,3.9,4.3c0.5,0.9,1.1,1.9,1.6,2.8c0.4,1.2,0.8,2.3,1.3,3.5
		c0.2,1.3,0.4,2.6,0.6,3.9c-0.1,1.3-0.1,2.7-0.2,4c0,0.2-0.1,0.3-0.1,0.5c0,0.2-0.1,0.5,0,0.6c0.2,0.5,0.5,1,0.8,1.5
		C48.3,27.3,48.5,28,48.7,28.7z M38.3,42.5c-0.8,0.8-1.7,1.6-2.5,2.4c1.4,0,2.8-0.3,4.1-0.9c0.8-0.4,1.5-0.9,2.3-1.3
		c0.7-0.7,1.4-1.4,2.1-2.1c0.6-0.8,1.2-1.5,1.8-2.3c0.7-0.9,1.1-2,1.4-3c0.9-2.8,0.9-5.6-0.7-8.2c-0.1,0.1-0.1,0.1-0.1,0.1
		c-0.6,1.9-1.4,3.6-2.4,5.2c-0.6,0.8-1.2,1.5-1.8,2.3c-0.1,0.2-0.3,0.3-0.4,0.5c-0.3,0.9-0.6,1.7-0.9,2.6c-0.5,0.9-0.9,1.7-1.4,2.6
		C39.3,41.1,38.8,41.8,38.3,42.5z M6.8,32.5c0,0,0-0.1-0.1-0.1c-0.1-0.2-0.2-0.3-0.3-0.5c-0.2-0.4-0.4-0.7-0.6-1.1
		c-0.1-0.3-0.2-0.5-0.4-0.8c-0.2,0.8,0,3.1,0.3,4.1c0.2,1.4,0.7,2.7,1.4,4c0.1,0.1,0.1,0.3,0.2,0.4c1.9,3.6,4.7,6.3,8.3,8
		c5,2.4,10,2.6,15.1,0.5c1-0.4,1.9-1,2.8-1.5c0,0,0-0.1-0.1-0.1c-0.4-0.1-0.9-0.2-1.3-0.4c-0.2-0.1-0.3-0.1-0.5-0.2
		c-0.2-0.1-0.4-0.2-0.5-0.3c-0.2-0.1-0.4-0.2-0.6-0.3c-0.1-0.1-0.2-0.1-0.2-0.2C30.2,44,30.1,44,30,43.9c-0.5-0.5-1-0.9-1.5-1.5
		c-0.2-0.2-0.4-0.3-0.7-0.3c-1.8,0.2-3.6,0.2-5.4-0.1c-5-0.7-9.4-2.8-13-6.4C8.7,35,8,34.1,7.3,33.2c-0.1-0.2-0.2-0.3-0.3-0.5
		C6.9,32.7,6.8,32.6,6.8,32.5z M22.4,12.3c0.3,0,0.5,0,0.8,0c0.5,0,0.9,0,1.4,0.1c0.5,0.1,0.9,0.1,1.4,0.2c0.5,0.1,1,0.2,1.5,0.3
		c0.4,0.1,0.8,0.2,1.2,0.3c0.5,0.2,1,0.3,1.5,0.5c1.2,0.6,2.4,1.2,3.7,1.8c0.4,0.3,0.9,0.6,1.3,0.9c0.3,0.2,0.5,0.4,0.8,0.6
		c0.5,0.4,1,0.9,1.4,1.3c0.3,0.3,0.5,0.5,0.8,0.8c0.2,0.3,0.5,0.5,0.7,0.8c0.2,0.3,0.4,0.5,0.6,0.8c0.2,0.4,0.4,0.8,1,0.6
		c1.5,0.1,2.8,0.5,4.1,1.1c0.8,0.6,1.6,1.3,2.4,1.9c0-0.3,0.1-0.6,0.1-1c0-1.1,0-2.2,0-3.3c0-0.4,0-0.8-0.1-1.1
		c-0.3-1.2-0.6-2.4-0.9-3.6c-0.2-0.4-0.3-0.8-0.5-1.3c-0.2-0.4-0.4-0.8-0.6-1.2c-0.2-0.4-0.4-0.8-0.6-1.1c-0.3-0.5-0.7-1.1-1-1.6
		c-0.6-0.7-1.2-1.5-1.9-2.2c-0.5-0.5-1-0.9-1.5-1.4c-0.3-0.3-0.7-0.6-1-0.8c-1.4-1-2.8-1.9-4.5-2.5c-0.7-0.2-1.4-0.5-2.1-0.7
		c-0.7-0.2-1.4-0.3-2.1-0.5c-0.7-0.1-1.4-0.2-2.1-0.3c-0.6,0-1.3,0-1.9-0.1c-0.3,0-0.7,0-1,0c-0.3,0-0.7,0.1-1,0.1
		c-1.2,0.2-2.4,0.5-3.7,0.7c-1.5,0.4-2.9,1-4.2,1.8C14.8,5,13.5,5.9,12.4,7c-1.2,1-2.2,2.3-3.1,3.6c-0.6,1.1-1.2,2.2-1.8,3.4
		c0,0.1-0.1,0.2-0.1,0.2c-0.8,2-1.3,4.1-1.4,6.2c0,0.5,0,1,0,1.6c0,0.5,0,1,0.1,1.5c0.8-1.7,1.8-3.3,3-4.7c0.5-0.5,1.1-1.1,1.6-1.6
		c0.9-0.7,1.7-1.3,2.6-2c1-0.5,2-1,3-1.5c1-0.3,2.1-0.6,3.1-0.9c0.8-0.1,1.7-0.2,2.5-0.3C21.9,12.3,22.2,12.3,22.4,12.3z M32.8,19
		c-1.5-1.2-3.2-2-5-2.7c-0.7-0.2-1.4-0.4-2.2-0.6c-0.7-0.1-1.3-0.2-2-0.3c-0.6,0-1.2-0.1-1.8-0.1c-0.8,0-1.6,0.1-2.5,0.1
		c-0.8,0.2-1.7,0.3-2.5,0.5c-0.8,0.3-1.6,0.6-2.5,0.9c-0.5,0.3-1.1,0.6-1.6,0.8c0,0-0.1,0-0.1,0c-3,1.8-5.2,4.4-6.5,7.7
		c0,0.1,0,0.3,0,0.4c1.6,6.4,5.4,11,11.3,13.8c2.5,1.2,5.2,1.8,8,1.9c0.7,0,1.4,0,2.1,0c-0.3-0.5-0.5-1-0.7-1.4
		c-0.7-1.7-0.9-3.5-0.9-5.3c0.1-0.5,0.1-1,0.2-1.5c0.2-0.8,0.4-1.5,0.6-2.3c0.3-0.7,0.6-1.4,1-2.1c0.5-0.7,0.9-1.4,1.4-2.2
		c0.5-0.5,0.9-1.1,1.4-1.6c1.5-1.4,3.1-2.5,5.1-3.3c-0.5-0.5-0.9-0.9-1.3-1.3C34.1,20.1,33.4,19.6,32.8,19z M29,34.7
		c-0.5,2.2-0.4,4.3,0.6,6.3c0.1,0.3,0.3,0.3,0.6,0.3c1.7-0.3,3.3-0.8,4.8-1.5c1.5-0.7,3-1.5,4.3-2.6c0,0,0.1-0.1,0.1-0.1
		c0.3-1.1,0.6-2.3,0.6-3.5c0.1-1.4,0-2.8-0.4-4.2c-0.4-1.8-1-3.4-1.9-4.9c-2.1,0.8-3.9,2-5.3,3.7c-0.9,0.9-1.6,2-2.2,3.2
		C29.7,32.4,29.3,33.5,29,34.7z M39.1,37.9c-2.7,2-5.7,3.3-9,4c1,1.5,2.3,2.4,4,2.8c0.1,0,0.3,0,0.4-0.1c0.8-0.8,1.6-1.6,2.4-2.5
		C37.9,40.8,38.6,39.4,39.1,37.9z M35.2,2.2C35.2,2.2,35.3,2.2,35.2,2.2c0-0.1-0.1-0.1-0.2-0.2c0,0,0,0,0,0.1
		C35,2.2,35.1,2.2,35.2,2.2z M48.7,33.1C48.7,33.1,48.7,33.1,48.7,33.1C48.7,33.2,48.7,33.2,48.7,33.1
		C48.7,33.2,48.7,33.2,48.7,33.1C48.7,33.2,48.7,33.2,48.7,33.1z M34.2,1.8C34.2,1.8,34.2,1.8,34.2,1.8C34.2,1.8,34.2,1.8,34.2,1.8
		C34.3,1.8,34.3,1.8,34.2,1.8C34.2,1.8,34.2,1.8,34.2,1.8z M34.8,2C34.8,2,34.8,2,34.8,2C34.8,2,34.8,2.1,34.8,2
		C34.8,2,34.8,2,34.8,2C34.8,2,34.8,2,34.8,2z"/>
	<path class="st1" d="M230.9,51.5c-2.9-0.5-5-2.3-5.6-5c-0.9-4.3,1.8-7.5,5.2-8.1c2.9-0.5,5.9,0.7,7.2,3.1c2.2,3.8,0.5,9.2-4.8,10.1
		c-0.2,0-0.4,0-0.5,0.1c-0.4,0-0.7,0-1.1,0C231.2,51.5,231,51.5,230.9,51.5z M229.8,44.9c0,0.1,0,0.3,0,0.4c0.1,1,0.9,1.8,1.8,1.9
		c1.2,0.1,2-0.4,2.3-1.5c0.1-0.4,0.1-0.8,0.1-1.1c0-1-0.7-1.8-1.5-2c-0.9-0.2-1.7,0-2.3,0.8C229.9,43.8,229.8,44.3,229.8,44.9z"/>
	<path class="st1" d="M216.3,51.5c-1.9-0.3-3.4-1.1-4.3-2.8c-0.4-0.8-0.5-1.7-0.5-2.5c0-2.5,0-5.1,0-7.6c1.5,0,3,0,4.5,0
		c0,0.1,0,0.3,0,0.4c0,2.1,0,4.2,0,6.3c0,0.5,0.1,0.9,0.1,1.4c0.1,0.6,0.5,0.9,1.1,0.9c0.6,0,1-0.3,1.1-0.9c0.1-0.4,0.1-0.8,0.1-1.3
		c0-2.2,0-4.3,0-6.5c0-0.1,0-0.3,0-0.5c1.5,0,3,0,4.5,0c0,0.1,0,0.1,0,0.2c0,2.6,0,5.2,0,7.7c0,3.3-2.5,4.8-4.7,5
		c-0.2,0-0.3,0-0.5,0.1c-0.4,0-0.8,0-1.2,0C216.7,51.5,216.5,51.5,216.3,51.5z"/>
	<path class="st2" d="M0,26.6c0,0.3,0,0.6,0.1,0.9c0,0,0,0-0.1,0C0,27.2,0,26.9,0,26.6z"/>
	<path class="st3" d="M27.4,0.1c-0.3,0-0.6,0-0.9-0.1C26.9,0,27.2,0,27.4,0.1C27.5,0,27.5,0,27.4,0.1z"/>
	<path class="st3" d="M0.1,23.8C0,24,0,24.3,0,24.5C0,24.3,0,24,0.1,23.8L0.1,23.8C0,23.8,0.1,23.8,0.1,23.8z"/>
	<path class="st3" d="M24.5,0c-0.2,0-0.5,0-0.7,0.1c0,0,0,0,0-0.1C24,0,24.3,0,24.5,0z"/>
	<path class="st3" d="M216.3,51.5c0.2,0,0.3,0,0.5,0.1C216.6,51.5,216.5,51.5,216.3,51.5C216.3,51.5,216.3,51.5,216.3,51.5z"/>
	<path class="st3" d="M218,51.5c0.2,0,0.3,0,0.5-0.1c0,0,0.1,0,0.1,0.1C218.4,51.5,218.2,51.5,218,51.5z"/>
	<path class="st4" d="M232.5,51.5c0.2,0,0.4,0,0.5-0.1c0,0,0,0,0,0.1C232.8,51.5,232.6,51.5,232.5,51.5z"/>
	<path class="st2" d="M230.9,51.5c0.1,0,0.3,0,0.4,0.1C231.2,51.5,231,51.5,230.9,51.5C230.9,51.5,230.9,51.5,230.9,51.5z"/>
	<path class="st5" d="M23.8,0C23.8,0,23.8,0,23.8,0c-0.1,0.1-0.2,0.1-0.3,0.1c0,0,0,0,0-0.1C23.6,0,23.7,0,23.8,0z"/>
	<path class="st5" d="M0.1,23.8C0.1,23.8,0,23.8,0.1,23.8L0.1,23.8C0,23.7,0,23.6,0,23.5c0,0,0,0,0.1,0C0.1,23.6,0.1,23.7,0.1,23.8z
		"/>
	<path class="st3" d="M166.8,37c0.4,0.1,0.9,0.2,1.3,0.4c1.3,0.4,2.6,0.7,4,0.9c1.5,0.2,3,0.2,4.4-0.4c1.3-0.5,2.2-1.4,3-2.5
		c0.8-1.3,1.3-2.7,1.7-4.2c0-0.1,0.1-0.2,0.1-0.4c-0.5,0.4-0.9,0.7-1.3,1c-1.6,1.2-3.4,2.2-5.3,2.7c-1.4,0.4-2.9,0.4-4.3-0.2
		c-0.8-0.4-1.4-1-1.9-1.8c-0.7-1.1-1-2.3-1.1-3.6c-0.1-1.6,0.2-3,0.7-4.5c0.5-1.4,1.3-2.6,2.3-3.7c1.3-1.5,2.8-2.5,4.6-3.3
		c1.6-0.7,3.2-1.1,4.9-1.4c0.8-0.1,1.6-0.2,2.5-0.2c1-0.1,2-0.1,3-0.2c1.2,0,2.4-0.1,3.6-0.1c0.4,0,0.8-0.1,1.2-0.1
		c-0.1,0.4-0.2,0.7-0.3,1c-0.3,1.4-0.7,2.7-0.9,4.1c-0.3,1.3-0.5,2.7-0.7,4c-0.2,1.2-0.4,2.3-0.6,3.5c-0.4,2.4-1,4.9-1.9,7.2
		c-0.7,1.7-1.7,3.2-3,4.4c-1.6,1.5-3.6,2.4-5.7,2.9c-2,0.5-4,0.6-6.1,0.5c-1.6-0.1-3.2-0.4-4.8-0.8c-0.2-0.1-0.3-0.1-0.3-0.4
		c0.2-1.2,0.5-2.4,0.7-3.6C166.6,37.7,166.7,37.3,166.8,37z M183.4,18.8c-0.6,0.1-1.2,0.1-1.9,0.2c-1.7,0.4-3.4,0.8-4.9,1.8
		c-1,0.6-1.8,1.4-2.4,2.5c-0.7,1.4-1,2.9-0.8,4.4c0.1,0.7,0.3,1.3,0.8,1.8c0.7,0.7,1.6,0.9,2.5,0.8c1.9-0.3,3.4-1.3,4.2-3
		c0.5-1.2,0.9-2.4,1.2-3.7C182.7,22.1,183,20.5,183.4,18.8z"/>
	<path class="st1" d="M128.4,15.4c-0.2,0.9-0.5,1.8-0.7,2.6c-0.5,2.4-0.9,4.7-1.3,7.1c-0.5,3.1-1.1,6.2-2.2,9.2
		c-1.6,4.5-4.9,7.1-9.4,8c-3.6,0.8-7.1,0.4-10.6-0.5c0.3-1.6,0.6-3.2,0.9-4.8c0.8,0.2,1.6,0.5,2.3,0.7c1.5,0.4,3,0.7,4.6,0.7
		c3.1,0,5.2-1.6,6.4-4.4c0.5-1.1,0.8-2.2,1.2-3.3c0,0-0.1-0.1-0.1-0.1c-0.1,0.1-0.2,0.2-0.3,0.3c-1.9,1.6-3.9,2.8-6.3,3.4
		c-1.1,0.3-2.1,0.3-3.2,0.1c-1.5-0.3-2.5-1.3-3.2-2.6c-1.1-2.4-1.1-4.8-0.2-7.1c1.5-3.9,4.3-6.5,8.2-7.8c2.3-0.8,4.7-1.1,7.1-1.3
		c2.1-0.1,4.3-0.1,6.4-0.2C128.1,15.4,128.2,15.4,128.4,15.4z M121.8,18.8c-0.7,0.1-1.4,0.2-2,0.3c-1.9,0.4-3.8,1-5.4,2.1
		c-2.3,1.7-3.3,4.9-2.4,7.4c0.4,1,1,1.6,2.1,1.8c1.6,0.2,3-0.4,4.2-1.4c1-0.9,1.5-2,1.8-3.2C120.7,23.4,121.2,21.1,121.8,18.8z"/>
	<path class="st1" d="M55.4,41.7C58.3,33,61,24.3,63,15.4c1.7,0,3.3,0,5,0c-0.2,1.1-0.4,2.2-0.6,3.3c0.8-0.5,1.6-0.9,2.3-1.3
		c1.8-1,3.8-1.7,5.9-1.7c1.6,0,3.1,0.2,4.5,1.1c1.4,1,1.9,2.4,1.9,4c0.1,2.5-0.8,4.7-2,6.8c-0.9,1.6-2,3.1-3.6,4.2
		c-1.7,1.2-3.5,1.8-5.5,2.1c-2.3,0.4-4.7,0.3-7,0c-0.1,0-0.3,0-0.5,0c-0.3,1.2-0.6,2.3-0.9,3.4c-0.3,1.4-0.7,2.7-1,4.1
		c0,0.2-0.1,0.3-0.3,0.3c-1.9,0-3.9,0-5.8,0C55.5,41.7,55.5,41.7,55.4,41.7z M64.9,30.9c1.1-0.2,2.2-0.3,3.3-0.5
		c1.9-0.4,3.8-1,5.4-2.1c2.1-1.5,3.1-3.5,2.8-6.1c-0.2-1.7-1.2-2.7-2.8-2.8c-2.6-0.2-4.6,0.8-6,2.9c-0.5,0.9-0.9,1.9-1.2,2.9
		C66,27,65.5,28.9,64.9,30.9z"/>
	<path class="st3" d="M241.9,15.1c1.7,0.1,3.3,0.4,4.7,1.2c1.8,1,2.9,2.5,3.3,4.5c0.5,2.7-0.3,5.1-1.8,7.3c-0.5,0.8-1.1,1.5-1.8,2.2
		c-2.2,2.1-4.8,3.6-7.7,4.2c-1.2,0.3-2.4,0.4-3.6,0.3c-1.5-0.1-3-0.5-4.2-1.4c-1.6-1.1-2.6-2.6-2.9-4.5c-0.2-1.6,0-3.2,0.6-4.7
		c0.8-2,2-3.6,3.6-5c2-1.8,4.2-3,6.8-3.6C239.8,15.3,240.8,15.2,241.9,15.1z M237.1,31.1c0.2,0,0.5,0,0.7,0c1.2-0.3,2.3-0.9,3.2-1.8
		c1-1,1.8-2.1,2.3-3.4c0.6-1.4,0.9-2.8,0.5-4.4c-0.4-1.6-1.7-2.4-3.1-2.3c-1.2,0.2-2.3,0.8-3.2,1.6c-1.2,1.1-2.1,2.3-2.7,3.9
		c-0.5,1.4-0.9,2.8-0.4,4.4C234.8,30.2,235.8,31.2,237.1,31.1z"/>
	<path class="st3" d="M152.4,26.9c0,0.7-0.1,1.3,0,1.9c0.1,0.9,0.7,1.5,1.5,1.8c0.7,0.3,1.4,0.4,2.1,0.4c1.9,0.1,3.8-0.2,5.7-0.7
		c0.6-0.1,1.2-0.3,1.8-0.4c0,0.3,0,0.6-0.1,0.8c-0.2,0.9-0.4,1.8-0.6,2.7c-0.1,0.3-0.2,0.3-0.4,0.4c-1,0.1-2.1,0.2-3.1,0.4
		c-1.8,0.3-3.7,0.4-5.5,0.3c-2.1-0.1-4.1-0.7-5.7-2.3c-0.8-0.8-1.2-1.9-1.5-3c-0.3-1.1-0.3-2.1-0.2-3.2c0.2-1.8,0.9-3.4,1.9-4.9
		c1.3-1.8,2.9-3.3,4.8-4.3c1.4-0.7,2.9-1.2,4.4-1.5c1.3-0.3,2.6-0.4,3.9-0.3c1.7,0.1,3.2,0.6,4.5,1.8c0.7,0.7,1,1.6,1.3,2.5
		c0.5,2.1-0.4,4.1-2.2,5.4c-1.5,1.1-3.2,1.6-5,2c-2,0.4-4,0.3-6,0.3C153.5,27,153,26.9,152.4,26.9z M153.5,23.3
		c1.3-0.5,2.5-0.7,3.8-0.7c0.6,0,1.1,0.1,1.7,0c0.7-0.1,1.4-0.3,1.8-0.9c0.4-0.7,0.5-1.8-0.4-2.4c-0.5-0.3-1-0.4-1.5-0.2
		c-0.7,0.2-1.5,0.3-2.1,0.7C155.2,20.4,154.2,21.7,153.5,23.3z"/>
	<path class="st1" d="M97.3,30.6c-0.8,0.6-1.5,1.2-2.3,1.7c-1.6,1.1-3.4,1.9-5.3,2.2c-1.8,0.2-3.5,0-4.7-1.5
		c-0.9-1.1-1.3-2.3-1.5-3.7c-0.4-3.1,0.7-5.7,2.5-8.1c2-2.6,4.7-4.1,7.9-4.9c2.7-0.7,5.4-0.8,8.1-0.9c1.4,0,2.8,0,4.2,0
		c-2.2,6.1-3.7,12.3-3.9,18.9c-1.7,0-3.4,0-5.2,0C97.1,33.1,97.2,31.9,97.3,30.6z M99.5,18.8c-0.3,0-0.6,0.1-0.9,0.1
		c-2,0.3-3.8,0.8-5.6,1.7c-2.6,1.5-4,4.2-3.5,7.1c0.3,2,1.7,2.9,3.6,2.6c2.2-0.4,3.6-1.7,4.3-3.8c0.5-1.4,0.8-2.8,1.2-4.2
		C99,21.2,99.2,20,99.5,18.8z"/>
	<path class="st3" d="M203.3,31c-0.6,0.5-1.2,0.9-1.9,1.4c-1.6,1.1-3.4,1.9-5.3,2.2c-1.5,0.3-3,0.2-4.3-0.7
		c-0.9-0.6-1.4-1.5-1.5-2.6c-0.2-1.2-0.1-2.4,0.1-3.6c0.5-2.8,1.4-5.4,2.3-8.1c0.5-1.4,1-2.8,1.5-4.2c1.8,0,3.6,0,5.5,0
		c-0.3,1.2-0.6,2.3-0.9,3.4c-0.9,3-2,5.9-2.6,9c-0.1,0.5-0.2,1.1,0,1.6c0.3,1.2,1,1.4,2.1,1.5c1.2,0.1,2.2-0.3,3.3-0.9
		c1-0.6,1.7-1.4,2.2-2.4c1.1-2.3,1.9-4.8,2.6-7.2c0.4-1.5,0.9-3.1,1.3-4.6c0.1-0.3,0.2-0.3,0.5-0.3c1.7,0,3.4,0,5.1,0
		c-2,6.1-3.8,12.3-4.6,18.7c-1.7-0.1-3.4-0.2-5.1-0.3C203.3,32.8,203.3,31.9,203.3,31c0.1,0,0.1,0,0.1-0.1
		C203.4,30.9,203.3,30.9,203.3,31z"/>
	<path class="st3" d="M127.4,33.6c0.7-1.4,1.3-2.7,1.9-4c0.6,0.2,1.1,0.5,1.7,0.7c1.1,0.4,2.3,0.7,3.5,0.8c0.8,0.1,1.5,0,2.1-0.3
		c0.8-0.3,1.3-0.8,1.4-1.6c0.1-0.7-0.2-1.2-0.8-1.5c-1.1-0.6-2.2-1.2-3.3-1.8c-0.8-0.4-1.7-0.9-2.3-1.6c-0.4-0.4-0.6-1-0.7-1.5
		c-0.3-2.2,0.7-3.8,2.3-5.2c1.2-1,2.4-1.7,3.9-2.1c1.1-0.3,2.2-0.6,3.3-0.6c0.4,0,0.9-0.1,1.3-0.1c1.4,0.1,2.9,0.1,4.3,0.5
		c-0.3,1.4-0.6,2.8-0.9,4.2c-0.9-0.2-1.7-0.4-2.6-0.6c-1.3-0.2-2.6-0.4-3.8,0.3c-0.9,0.4-1.6,1.9-0.5,2.9c0.6,0.6,1.4,1,2.1,1.6
		c0.7,0.5,1.5,1,2.1,1.6c1.8,1.6,1.8,3.9,0.6,5.9c-0.7,1.1-1.7,1.7-2.8,2.2c-1.1,0.4-2.2,0.7-3.4,0.8c-1.3,0.1-2.6,0.2-3.9,0.1
		c-1.4-0.1-2.8-0.3-4.2-0.5C128.2,33.8,127.8,33.7,127.4,33.6z"/>
	<path class="st3" d="M211.6,33.7c2.3-6,3.6-12.2,5.3-18.3c1.5,0,2.9,0,4.4,0c-0.1,1.2-0.1,2.5-0.2,3.8c2.3-2.8,5.4-3.8,8.9-3.8
		c-0.3,1-0.6,1.9-0.9,2.8c-0.2,0.6-0.4,1.2-0.6,1.9c-0.1,0.3-0.2,0.4-0.5,0.4c-0.9,0-1.7,0-2.6,0.3c-1.3,0.5-2.4,1.3-3.2,2.4
		c-0.6,0.8-1.2,1.6-1.6,2.5c-0.9,1.8-1.5,3.8-1.9,5.8c-0.2,0.8-0.3,1.7-0.5,2.5C216,33.8,213.8,33.8,211.6,33.7z"/>
	<path class="st1" d="M240.6,38.5c1.5,0,3,0,4.5,0c0,2.8,0,5.7,0,8.5c1.5,0,2.9,0,4.4,0c0,1.4,0,2.8,0,4.1c-3,0-5.9,0-9,0
		C240.6,47,240.6,42.8,240.6,38.5z"/>
	<path class="st6" d="M26.3,34.9c-0.1,1.8,0.1,3.6,0.9,5.3c0.2,0.4,0.4,0.9,0.7,1.4c-0.8,0-1.5,0-2.1,0c-2.8-0.1-5.5-0.7-8-1.9
		c-5.9-2.8-9.8-7.4-11.3-13.8c0-0.1,0-0.3,0-0.4c1.3-3.3,3.4-5.9,6.5-7.7c0,0,0,0,0.1,0c0,0.4,0,0.8,0.1,1.2c0.1,1,0.2,1.9,0.4,2.9
		c0.3,1.6,0.9,3.1,1.7,4.5c1.2,2.4,3,4.3,5.1,5.9C21.9,33.5,24,34.4,26.3,34.9z"/>
	<path class="st7" d="M7.3,33.2C8,34.1,8.7,35,9.4,35.7c3.6,3.6,8,5.7,13,6.4c1.8,0.2,3.6,0.3,5.4,0.1c0.3,0,0.5,0.1,0.7,0.3
		c0.5,0.5,1,1,1.5,1.5c-0.6,0.2-1.2,0.5-1.9,0.7c-1.2,0.3-2.4,0.6-3.6,0.7c-1.2,0.1-2.4,0-3.6-0.2c-1.1-0.1-2.2-0.4-3.2-0.8
		c-1.9-0.6-3.5-1.6-5.1-2.9c-1.1-0.9-2.1-2-2.9-3.1c-0.9-1.2-1.6-2.6-2.2-4.1C7.4,34,7.4,33.6,7.3,33.2z"/>
	<path class="st8" d="M27.1,31.1c-0.2,0.8-0.4,1.5-0.6,2.3c-1.7-0.4-3.3-1.1-4.8-2c-1.6-1-2.9-2.3-4.1-3.7c-1.1-1.5-1.9-3.1-2.5-4.8
		c-0.6-1.9-0.8-3.9-0.7-5.9c0.8-0.3,1.6-0.6,2.5-0.9c-0.2,1.3-0.2,2.7,0,4c0.5,3.1,1.9,5.8,4.2,8c1.3,1.2,2.8,2.1,4.4,2.7
		C26.1,30.9,26.6,31,27.1,31.1z"/>
	<path class="st9" d="M27.1,31.1c-0.5-0.1-1-0.2-1.5-0.4c-1.6-0.6-3.1-1.5-4.4-2.7c-2.4-2.2-3.7-4.8-4.2-8c-0.2-1.3-0.2-2.7,0-4
		c0.8-0.2,1.7-0.3,2.5-0.5c0,0.1,0,0.2,0,0.3c-0.2,1.2-0.3,2.4-0.2,3.6c0.2,1.2,0.5,2.3,1,3.4c0.7,1.4,1.6,2.7,2.8,3.6
		c0.8,0.6,1.7,1.2,2.6,1.6c0.8,0.4,1.7,0.6,2.5,0.9C27.8,29.7,27.4,30.4,27.1,31.1z"/>
	<path class="st10" d="M28.1,29c-0.8-0.3-1.7-0.5-2.5-0.9c-0.9-0.5-1.8-1-2.6-1.6c-1.2-1-2.1-2.2-2.8-3.6c-0.5-1.1-0.8-2.2-1-3.4
		c-0.2-1.2-0.1-2.4,0.2-3.6c0-0.1,0-0.2,0-0.3c0.8,0,1.6-0.1,2.5-0.1c0,0.1,0,0.2,0,0.3c-0.4,1.3-0.5,2.6-0.2,3.9
		c0.5,2.4,1.7,4.3,3.7,5.7c1.3,0.9,2.7,1.3,4.2,1.5C29,27.5,28.6,28.2,28.1,29z"/>
	<path class="st11" d="M33.8,15.4c-1.2-0.6-2.4-1.2-3.7-1.8c-0.1-0.2-0.2-0.4-0.3-0.5c-0.2-0.4-0.5-0.7-0.7-1.2
		c-0.7-1.7-0.6-3.3,0.3-4.9c0.6-1,1.5-1.8,2.6-2.3c1.6-0.7,3.3-0.6,4.8,0.2c1.4,0.8,2.4,2.1,2.7,3.7c0.4,1.9-0.1,3.5-1.4,4.9
		c-1,1.1-2.4,1.7-3.9,1.6C34.1,15.2,34,15.3,33.8,15.4z M38.5,9.7c0.2-2.3-2-4.2-4.1-4.2C32,5.4,30,7.4,30,9.7
		c0,2.5,1.9,4.3,4.2,4.3C36.6,14,38.5,12,38.5,9.7z"/>
	<path class="st12" d="M14.4,16.9c-0.1,2,0.1,4,0.7,5.9c0.6,1.8,1.4,3.4,2.5,4.8c1.1,1.5,2.5,2.7,4.1,3.7c1.5,0.9,3.1,1.6,4.8,2
		c-0.1,0.5-0.1,1-0.2,1.5c-2.2-0.5-4.3-1.4-6.2-2.8c-2.1-1.6-3.9-3.5-5.1-5.9c-0.8-1.4-1.3-2.9-1.7-4.5c-0.2-0.9-0.3-1.9-0.4-2.9
		c0-0.4-0.1-0.8-0.1-1.2C13.4,17.5,13.9,17.2,14.4,16.9z"/>
	<path class="st13" d="M39.6,29.4c0.3,1.4,0.5,2.8,0.4,4.2c-0.2,0.1-0.4,0.1-0.5,0.2c-1.3,0.6-2.7,0.9-4.2,0.7
		c-2.2-0.3-3.8-1.4-5.1-3.1c0.6-1.2,1.3-2.2,2.2-3.2c0.3,1.2,1.1,2.1,2.2,2.7c1.4,0.7,3.2,0.4,4.1-0.6C39,29.9,39.3,29.7,39.6,29.4z
		"/>
	<path class="st14" d="M30.2,31.3c1.3,1.7,2.9,2.8,5.1,3.1c1.5,0.2,2.8-0.1,4.2-0.7c0.2-0.1,0.3-0.1,0.5-0.2c0,1.2-0.2,2.3-0.6,3.5
		c0,0-0.1,0.1-0.1,0.1c-0.6,0.1-1.1,0.2-1.7,0.3c-1.3,0.2-2.5,0.1-3.7-0.1c-1.6-0.4-3-1.1-4.3-2.2c-0.2-0.2-0.4-0.3-0.6-0.4
		C29.3,33.5,29.7,32.4,30.2,31.3z"/>
	<path class="st15" d="M19.2,12.7c-1,0.3-2.1,0.6-3.1,0.9c-0.2-0.9-0.4-1.7-0.5-2.6c-0.1-2.1,0-4.2,0.6-6.2c0.1-0.2,0-0.4,0.1-0.6
		c1.3-0.8,2.7-1.4,4.2-1.8c-0.1,0.1-0.1,0.3-0.2,0.4c-1,2.1-1.6,4.4-1.6,6.7c0,0.8,0.1,1.7,0.2,2.5C18.9,12.3,19.1,12.5,19.2,12.7z"
		/>
	<path class="st16" d="M34.7,20.7c0.4,0.4,0.8,0.8,1.3,1.3c-2,0.7-3.6,1.9-5.1,3.3c-0.2,0-0.4-0.1-0.5-0.1c-0.6-0.1-1.3-0.1-1.9-0.2
		c-1.3-0.3-2.5-1-3.4-2c-1.2-1.2-1.8-2.7-1.9-4.4c-0.1-1,0.1-2,0.5-3c0.7,0.1,1.3,0.2,2,0.3c-0.4,1-0.6,2-0.4,3.1
		c0.2,0.9,0.5,1.7,1.1,2.3c0.9,1,1.9,1.6,3.3,1.8c0.8,0.1,1.6,0,2.4-0.3c1-0.4,1.8-1.1,2.5-2C34.5,20.8,34.6,20.7,34.7,20.7z"/>
	<path class="st17" d="M39.6,29.4c-0.3,0.3-0.6,0.6-0.9,0.9c-1,1-2.8,1.3-4.1,0.6c-1.1-0.6-1.8-1.5-2.2-2.7c1.4-1.7,3.2-2.9,5.3-3.7
		C38.6,26,39.3,27.6,39.6,29.4z"/>
	<path class="st18" d="M29,34.7c0.2,0.1,0.4,0.3,0.6,0.4c1.2,1.1,2.7,1.8,4.3,2.2c1.2,0.3,2.5,0.4,3.7,0.1c0.6-0.1,1.1-0.2,1.7-0.3
		c-1.3,1.1-2.8,1.9-4.3,2.6c-1.6,0.7-3.2,1.2-4.8,1.5c-0.3,0.1-0.4,0-0.6-0.3C28.7,39,28.6,36.9,29,34.7z"/>
	<path class="st18" d="M16.3,4.2c0,0.2,0,0.4-0.1,0.6c-0.6,2-0.7,4.1-0.6,6.2c0,0.9,0.3,1.7,0.5,2.6c-1,0.5-2,1-3,1.5
		c-0.2-0.5-0.4-1-0.4-1.6c-0.1-0.8-0.2-1.6-0.3-2.4c0-1,0-2,0-3c0-0.4,0-0.8,0-1.2C13.5,5.9,14.8,5,16.3,4.2z"/>
	<path class="st19" d="M19.2,12.7c-0.1-0.2-0.2-0.4-0.3-0.5c-0.1-0.8-0.2-1.7-0.2-2.5c0-2.4,0.5-4.6,1.6-6.7
		c0.1-0.1,0.1-0.3,0.2-0.4c1.2-0.2,2.4-0.5,3.7-0.7c0,0.1,0,0.1-0.1,0.2c-0.5,0.9-1.1,1.7-1.6,2.6c-0.7,1.3-1,2.7-1.1,4.2
		c-0.1,1.2-0.1,2.4,0.2,3.6C20.9,12.5,20,12.6,19.2,12.7z"/>
	<path class="st20" d="M34.7,20.7c-0.1,0.1-0.2,0.1-0.3,0.2c-0.6,0.9-1.4,1.6-2.5,2c-0.8,0.3-1.6,0.4-2.4,0.3
		c-1.3-0.2-2.4-0.8-3.3-1.8c-0.6-0.7-0.9-1.5-1.1-2.3c-0.2-1.1,0-2.1,0.4-3.1c0.7,0.2,1.4,0.4,2.2,0.6c-0.1,0.2-0.1,0.5-0.2,0.7
		c-0.4,0.9-0.2,1.8,0.3,2.5c0.9,1.4,2.5,1.7,3.9,0.9c0.5-0.3,1.1-0.7,1.1-1.4C33.4,19.6,34.1,20.1,34.7,20.7z"/>
	<path class="st21" d="M33.8,15.4c0.2-0.1,0.3-0.2,0.5-0.2c1.6,0,2.9-0.6,3.9-1.6c1.3-1.4,1.8-3,1.4-4.9c-0.3-1.7-1.3-2.9-2.7-3.7
		c-1.5-0.8-3.1-1-4.8-0.2c-1.1,0.5-2,1.2-2.6,2.3c-0.9,1.6-1,3.2-0.3,4.9c0.2,0.4,0.5,0.8,0.7,1.2c0.1,0.2,0.2,0.3,0.3,0.5
		c-0.5-0.2-1-0.3-1.5-0.5c-0.1-0.3-0.2-0.5-0.3-0.8c-0.6-1.7-0.7-3.3,0-5c0.9-2,2.3-3.2,4.3-3.7c0.6-0.1,1.1-0.2,1.7-0.3
		c1.6,0.6,3.1,1.5,4.5,2.5c0.4,0.3,0.7,0.5,1,0.8c0,0.1,0.1,0.2,0.1,0.3c0.4,1,0.7,2,0.6,3.1c-0.1,2.1-1,3.8-2.7,5
		c-0.7,0.6-1.6,0.9-2.5,1.1c-0.1,0-0.2,0.1-0.3,0.2C34.7,15.9,34.2,15.6,33.8,15.4z"/>
	<path class="st22" d="M4,16.2c-0.4,1.9-0.7,3.8-0.6,5.7c0.1,1.3,0.3,2.5,0.5,3.8c0,0.1,0,0.3,0.1,0.4c0,0,0,0.1,0.1,0.1
		c0,0.1,0,0.1,0.1,0.2c0,0.2-0.1,0.3-0.1,0.5c0,2.6,0,5.1,0,7.7c-0.7-1.5-1.2-3-1.6-4.6c-1.1-5.1-0.7-10.1,1.4-15
		c0-0.1,0.1-0.2,0.2-0.3c0,0.1,0,0.3,0,0.4C3.9,15.5,4,15.8,4,16.2z"/>
	<path class="st7" d="M23.6,15.5c-0.3,1-0.6,2-0.5,3c0.1,1.7,0.7,3.2,1.9,4.4c0.9,1,2.1,1.7,3.4,2c0.6,0.1,1.3,0.1,1.9,0.2
		c0.2,0,0.4,0.1,0.5,0.1c-0.5,0.5-0.9,1.1-1.4,1.6c-1.5-0.2-2.9-0.6-4.2-1.5c-2-1.4-3.3-3.3-3.7-5.7c-0.2-1.3-0.2-2.6,0.2-3.9
		c0-0.1,0-0.2,0-0.3C22.4,15.4,23,15.4,23.6,15.5z"/>
	<path class="st19" d="M32.1,45c0.4,0.1,0.9,0.2,1.3,0.4c0,0,0,0.1,0.1,0.1c-0.9,0.5-1.8,1.1-2.8,1.5c-5.1,2.1-10.1,1.9-15.1-0.5
		c-3.7-1.7-6.4-4.4-8.3-8c-0.1-0.1-0.1-0.3-0.2-0.4c0.1,0.1,0.3,0.2,0.4,0.4c0.9,1.5,2,2.8,3.3,3.9c1.4,1.3,3,2.3,4.7,3.1
		c2.1,1,4.4,1.6,6.8,1.7c1.2,0.1,2.4,0,3.6-0.1c2-0.2,3.9-0.8,5.7-1.6C31.7,45.4,31.9,45.2,32.1,45z"/>
	<path class="st6" d="M39.1,37.9c-0.5,1.6-1.2,3-2.3,4.2c-0.7,0.9-1.6,1.7-2.4,2.5c-0.1,0.1-0.3,0.2-0.4,0.1c-1.7-0.4-3-1.3-4-2.8
		C33.4,41.2,36.4,39.8,39.1,37.9z"/>
	<path class="st23" d="M12.4,7c0,0.4,0,0.8,0,1.2c0,1,0,2,0,3c0,0.8,0.1,1.6,0.3,2.4c0.1,0.5,0.3,1,0.4,1.6c-0.9,0.7-1.7,1.3-2.6,2
		c0-0.1,0-0.3,0-0.4c-0.5-1.7-0.8-3.4-0.9-5.2c0-0.3-0.2-0.6-0.3-0.9C10.1,9.3,11.1,8,12.4,7z"/>
	<path class="st19" d="M46,15.3c0.3,1.2,0.6,2.4,0.9,3.6c0.1,0.4,0.1,0.8,0.1,1.1c-0.2,0.1-0.3,0.3-0.5,0.4c-0.7,0.6-1.3,1.3-2,1.9
		c-1.3-0.7-2.7-1.1-4.1-1.1c0.1-0.1,0.2-0.2,0.3-0.3c1.2-0.7,2.3-1.5,3.2-2.5c0.7-0.9,1.3-1.9,2-2.8C45.8,15.5,45.9,15.4,46,15.3z"
		/>
	<path class="st18" d="M5.6,34.1c-0.3-1-0.4-3.3-0.3-4.1c0.1,0.3,0.3,0.6,0.4,0.8c0,0.1-0.1,0.3-0.1,0.4c0,0.4,0.1,0.7,0.2,1
		c0.4,1.1,0.7,2.3,1.1,3.3c0.8,1.9,1.9,3.6,3.4,5.1c1.7,1.8,3.7,3.1,5.9,4.1c1.9,0.8,3.8,1.3,5.8,1.4c1.2,0.1,2.4,0,3.6-0.1
		c1.9-0.2,3.6-0.7,5.3-1.6c0.2,0.1,0.4,0.2,0.5,0.3c-0.3,0.2-0.7,0.4-1,0.6c-2,0.9-4.1,1.4-6.2,1.5c-1.1,0.1-2.2,0-3.4-0.1
		c-1.8-0.2-3.5-0.7-5.2-1.4c-2.8-1.3-5.2-3.1-7.1-5.6c-1.2-1.5-2.1-3.2-2.7-5C6,34.5,5.8,34.3,5.6,34.1z"/>
	<path class="st4" d="M41.4,7.9c0.6,0.7,1.2,1.5,1.9,2.2c-0.1,0.3-0.1,0.6-0.2,0.9c-0.3,1.6-0.9,3.1-2,4.4c-1,1.1-2.1,2-3.4,2.5
		c-0.1,0.1-0.2,0.2-0.3,0.3c-0.5-0.4-1-0.9-1.4-1.3c0.1-0.1,0.2-0.1,0.4-0.2c1.3-0.3,2.4-1.1,3.4-2c0.9-0.9,1.4-1.9,1.7-3.1
		c0.2-0.6,0.2-1.3,0.3-1.9C41.6,9.1,41.5,8.5,41.4,7.9z"/>
	<path class="st23" d="M44.3,32.4c1-1.7,1.9-3.4,2.4-5.2c0,0,0,0,0.1-0.1c1.5,2.7,1.5,5.4,0.7,8.2c-0.2-0.1-0.4-0.1-0.5-0.2
		C46,34.1,45.2,33.3,44.3,32.4z"/>
	<path class="st2" d="M26,12.5c-0.5-0.1-0.9-0.1-1.4-0.2c0-0.2,0-0.4-0.1-0.5c-0.2-1.1-0.3-2.2-0.1-3.3c0.2-1.4,0.6-2.7,1.4-3.9
		c0.6-0.9,1.2-1.7,2.1-2.4C28,2,28.1,1.8,28.2,1.7c0.7,0.1,1.4,0.2,2.1,0.3C30.2,2,30.1,2.1,30,2.2c-0.6,0.5-1.3,0.9-1.8,1.4
		c-0.7,0.7-1.3,1.5-1.7,2.5c-0.8,1.7-1,3.4-0.7,5.2C25.8,11.6,25.9,12.1,26,12.5z"/>
	<path class="st4" d="M26,12.5c-0.1-0.4-0.2-0.9-0.2-1.3c-0.3-1.8-0.1-3.5,0.7-5.2c0.4-0.9,1-1.7,1.7-2.5c0.5-0.5,1.2-0.9,1.8-1.4
		c0.1-0.1,0.2-0.2,0.3-0.3c0.7,0.2,1.4,0.3,2.1,0.5c-0.2,0.1-0.3,0.3-0.5,0.3c-1.5,0.5-2.6,1.4-3.5,2.7c-1.5,2.1-1.8,4.4-0.9,6.8
		c0.1,0.2,0.1,0.4,0.1,0.5C27,12.7,26.5,12.6,26,12.5z"/>
	<path class="st24" d="M28.2,1.7C28.1,1.8,28,2,27.8,2.1c-0.8,0.7-1.5,1.5-2.1,2.4c-0.8,1.2-1.2,2.5-1.4,3.9
		c-0.2,1.1-0.1,2.2,0.1,3.3c0,0.2,0,0.4,0.1,0.5c-0.5,0-0.9,0-1.4-0.1c-0.1-0.9-0.3-1.7-0.3-2.6c0-0.7,0.1-1.4,0.2-2.1
		c0.3-1.8,1-3.3,2.1-4.7c0.3-0.4,0.7-0.8,1-1.3C26.9,1.6,27.5,1.7,28.2,1.7z"/>
	<path class="st23" d="M31.1,44.6c-1.7,0.9-3.4,1.4-5.3,1.6c-1.2,0.1-2.4,0.2-3.6,0.1c-2-0.1-4-0.6-5.8-1.4c-2.3-1-4.2-2.3-5.9-4.1
		c-1.4-1.5-2.6-3.2-3.4-5.1c-0.4-1.1-0.8-2.2-1.1-3.3c-0.1-0.3-0.2-0.7-0.2-1c0-0.1,0.1-0.3,0.1-0.4C6,31.2,6.2,31.6,6.4,32
		c0,0.1-0.1,0.2-0.1,0.3c0.1,0.4,0.2,0.9,0.3,1.3c0.5,1.8,1.4,3.5,2.5,5.1c0.8,1.2,1.8,2.3,2.9,3.2c1.3,1,2.6,1.9,4.1,2.6
		c1.8,0.8,3.7,1.3,5.7,1.5c2.5,0.2,4.9-0.1,7.3-1c0.4-0.2,0.8-0.4,1.2-0.6C30.7,44.4,30.9,44.5,31.1,44.6z"/>
	<path class="st23" d="M32.8,19c-0.1,0.7-0.6,1.1-1.1,1.4c-1.3,0.8-3,0.4-3.9-0.9c-0.5-0.7-0.7-1.6-0.3-2.5c0.1-0.2,0.1-0.5,0.2-0.7
		C29.6,17,31.3,17.9,32.8,19z"/>
	<path class="st20" d="M44.3,32.4c0.9,0.9,1.8,1.8,2.7,2.6c0.1,0.1,0.3,0.2,0.5,0.2c-0.3,1.1-0.7,2.1-1.4,3c0,0-0.1,0-0.1-0.1
		c-1.1-1.1-2.2-2.2-3.3-3.3c-0.1-0.1-0.1-0.2-0.1-0.3C43.1,33.9,43.7,33.1,44.3,32.4z"/>
	<path class="st16" d="M42.5,34.7c0,0.1,0.1,0.2,0.1,0.3c1.1,1.1,2.2,2.2,3.3,3.3c0,0,0.1,0.1,0.1,0.1c-0.6,0.8-1.2,1.5-1.8,2.3
		c-0.1-0.1-0.3-0.2-0.4-0.3c-0.8-0.8-1.5-1.5-2.3-2.3c-0.1-0.1-0.3-0.2-0.4-0.3c0.3-0.9,0.6-1.7,0.9-2.6
		C42.2,35,42.4,34.9,42.5,34.7z"/>
	<path class="st16" d="M8.9,18.7c-1.2,1.4-2.2,3-3,4.7c0-0.5-0.1-1-0.1-1.5c0-0.5,0-1,0-1.6c0.1-2.1,0.6-4.2,1.4-6.2
		c0-0.1,0.1-0.2,0.1-0.2c0.1,0.1,0.2,0.2,0.2,0.3c0.1,0.4,0.1,0.7,0.2,1.1C8.2,16.5,8.5,17.6,8.9,18.7z"/>
	<path class="st20" d="M8.9,18.7c-0.3-1.1-0.7-2.3-1-3.4c-0.1-0.4-0.1-0.7-0.2-1.1c0-0.1-0.1-0.2-0.2-0.3c0.6-1.1,1.2-2.2,1.8-3.4
		c0.1,0.3,0.2,0.6,0.3,0.9c0.1,1.8,0.4,3.5,0.9,5.2c0,0.1,0,0.3,0,0.4C9.9,17.6,9.4,18.2,8.9,18.7z"/>
	<path class="st5" d="M27.4,12.8c0-0.2-0.1-0.4-0.1-0.5c-0.8-2.4-0.5-4.7,0.9-6.8c0.9-1.3,2.1-2.2,3.5-2.7c0.2-0.1,0.3-0.2,0.5-0.3
		c0.7,0.2,1.4,0.5,2.1,0.7c-0.6,0.1-1.1,0.2-1.7,0.3c-2,0.5-3.5,1.8-4.3,3.7c-0.7,1.7-0.6,3.3,0,5c0.1,0.3,0.2,0.5,0.3,0.8
		C28.2,13,27.8,12.9,27.4,12.8z"/>
	<path class="st15" d="M5.6,34.1C5.8,34.3,6,34.5,6,34.7c0.6,1.8,1.5,3.4,2.7,5c1.9,2.5,4.3,4.3,7.1,5.6c1.6,0.7,3.4,1.3,5.2,1.4
		c1.1,0.1,2.2,0.2,3.4,0.1c2.2-0.1,4.3-0.6,6.2-1.5c0.3-0.2,0.7-0.4,1-0.6c0.2,0.1,0.3,0.1,0.5,0.2c-0.2,0.2-0.4,0.4-0.6,0.5
		c-1.8,0.8-3.7,1.5-5.7,1.6c-1.2,0.1-2.4,0.2-3.6,0.1c-2.4-0.1-4.6-0.7-6.8-1.7c-1.7-0.8-3.3-1.9-4.7-3.1c-1.3-1.2-2.4-2.5-3.3-3.9
		c-0.1-0.1-0.3-0.2-0.4-0.4C6.4,36.9,5.9,35.5,5.6,34.1z"/>
	<path class="st2" d="M37.3,18.2c0.1-0.1,0.2-0.2,0.3-0.3c1.4-0.6,2.5-1.4,3.4-2.5c1.1-1.3,1.7-2.8,2-4.4c0.1-0.3,0.1-0.6,0.2-0.9
		c0.3,0.5,0.7,1.1,1,1.6c-0.1,0.1-0.2,0.3-0.3,0.4c-0.3,1.2-0.8,2.4-1.5,3.4c-0.7,1-1.6,1.9-2.6,2.6c-0.6,0.4-1.2,0.6-1.8,0.9
		C37.8,18.7,37.6,18.4,37.3,18.2z"/>
	<path class="st5" d="M41.4,7.9c0.1,0.6,0.2,1.2,0.1,1.7c0,0.6-0.1,1.3-0.3,1.9c-0.3,1.2-0.8,2.2-1.7,3.1c-0.9,1-2,1.7-3.4,2
		c-0.1,0-0.2,0.1-0.4,0.2c-0.3-0.2-0.5-0.4-0.8-0.6c0.1-0.1,0.2-0.2,0.3-0.2c0.9-0.2,1.7-0.5,2.5-1.1c1.7-1.2,2.6-2.9,2.7-5
		c0-1.1-0.2-2.1-0.6-3.1c0-0.1-0.1-0.2-0.1-0.3C40.4,7,40.9,7.4,41.4,7.9z"/>
	<path class="st10" d="M41.2,37.8c0.1,0.1,0.3,0.2,0.4,0.3c0.8,0.8,1.5,1.5,2.3,2.3c0.1,0.1,0.3,0.2,0.4,0.3
		c-0.7,0.7-1.4,1.4-2.1,2.1c0-0.1,0-0.2-0.1-0.2c-0.7-0.7-1.4-1.4-2.2-2.1C40.3,39.5,40.8,38.7,41.2,37.8z"/>
	<path class="st25" d="M44.9,12.8c0.2,0.4,0.4,0.8,0.6,1.2c0,0.1-0.1,0.1-0.1,0.2c-0.4,1.1-1,2.1-1.8,3.1c-1.2,1.4-2.5,2.5-4.2,3.3
		c-0.2-0.3-0.4-0.5-0.6-0.8c0.1-0.1,0.1-0.1,0.2-0.2c1.3-0.7,2.5-1.5,3.5-2.7c0.8-0.9,1.5-2,2-3.2C44.6,13.5,44.8,13.2,44.9,12.8z"
		/>
	<path class="st24" d="M44.9,12.8c-0.2,0.3-0.3,0.7-0.5,1C44,15,43.3,16,42.5,17c-1,1.1-2.2,2-3.5,2.7c-0.1,0-0.1,0.1-0.2,0.2
		c-0.2-0.3-0.5-0.5-0.7-0.8c0.6-0.3,1.2-0.6,1.8-0.9c1.1-0.7,1.9-1.6,2.6-2.6c0.7-1,1.2-2.2,1.5-3.4c0-0.2,0.2-0.3,0.3-0.4
		C44.5,12.1,44.7,12.5,44.9,12.8z"/>
	<path class="st16" d="M47.4,24c0.1-1.3,0.1-2.7,0.2-4c0.5-0.4,1-0.9,1.4-1.3c0.1-0.1,0.3-0.2,0.5-0.3c0.2,1.1,0.4,2.2,0.6,3.3
		c-0.1,0-0.2,0.1-0.2,0.1c-0.6,0.6-1.2,1.3-1.9,1.9C47.8,23.8,47.6,23.9,47.4,24z"/>
	<path class="st20" d="M7.3,33.2c0.1,0.4,0.1,0.8,0.3,1.1c0.6,1.5,1.3,2.8,2.2,4.1c0.9,1.1,1.8,2.2,2.9,3.1c1.5,1.3,3.2,2.2,5.1,2.9
		c1,0.4,2.1,0.6,3.2,0.8c1.2,0.2,2.4,0.2,3.6,0.2c1.2-0.1,2.4-0.4,3.6-0.7c0.6-0.1,1.3-0.5,1.9-0.7c0.1,0.1,0.1,0.1,0.2,0.2
		c0,0-0.1,0.1-0.1,0.1c-0.5,0.2-1,0.4-1.6,0.6c-1.2,0.3-2.4,0.6-3.6,0.7c-1.4,0.1-2.8,0.1-4.2-0.1c-1.4-0.2-2.8-0.6-4.1-1.2
		c-1.8-0.8-3.5-1.8-4.9-3.2c-1.1-1-2.1-2.2-2.9-3.5c-0.8-1.4-1.5-2.8-1.9-4.4c0-0.1,0.1-0.2,0.1-0.4C7.1,32.9,7.2,33.1,7.3,33.2z"/>
	<path class="st10" d="M47.4,24c0.2-0.1,0.4-0.2,0.6-0.4c0.6-0.6,1.3-1.3,1.9-1.9c0.1-0.1,0.2-0.1,0.2-0.1c0.1,1.1,0.1,2.1,0.2,3.2
		c-0.1,0.1-0.3,0.1-0.4,0.2c-0.5,0.5-0.9,0.9-1.4,1.4c-0.1,0.1-0.3,0.1-0.4,0.2c-0.3-0.5-0.6-1-0.8-1.5c-0.1-0.2,0-0.4,0-0.6
		C47.3,24.3,47.4,24.2,47.4,24z"/>
	<path class="st25" d="M26.2,1.6c-0.3,0.4-0.7,0.8-1,1.3c-1.1,1.4-1.8,3-2.1,4.7C23,8.3,22.9,9,22.9,9.7c0,0.9,0.2,1.7,0.3,2.6
		c-0.3,0-0.5,0-0.8,0c0-0.3,0-0.6-0.1-0.9c-0.3-1.3-0.2-2.6,0.1-3.8c0.4-1.9,1.1-3.7,2.3-5.2c0.2-0.2,0.3-0.5,0.5-0.7
		C25.6,1.6,25.9,1.6,26.2,1.6z"/>
	<path class="st17" d="M25.2,1.6c-0.2,0.2-0.3,0.5-0.5,0.7c-1.2,1.5-2,3.3-2.3,5.2c-0.2,1.3-0.3,2.5-0.1,3.8
		c0.1,0.3,0.1,0.6,0.1,0.9c-0.2,0-0.5,0-0.7,0.1c-0.3-1.2-0.3-2.4-0.2-3.6c0.1-1.5,0.4-2.9,1.1-4.2c0.5-0.9,1-1.7,1.6-2.6
		c0-0.1,0-0.1,0.1-0.2C24.5,1.7,24.9,1.7,25.2,1.6z"/>
	<path class="st26" d="M6.9,32.8c0,0.1-0.1,0.3-0.1,0.4c0.4,1.5,1.1,3,1.9,4.4c0.8,1.3,1.8,2.5,2.9,3.5c1.4,1.3,3.1,2.4,4.9,3.2
		c1.3,0.6,2.7,1,4.1,1.2c1.4,0.2,2.8,0.3,4.2,0.1c1.2-0.1,2.4-0.4,3.6-0.7c0.5-0.2,1.1-0.4,1.6-0.6c0.1,0,0.1-0.1,0.1-0.1
		c0.1,0.1,0.2,0.1,0.2,0.2c-0.4,0.2-0.8,0.4-1.2,0.6c-2.3,0.9-4.8,1.2-7.3,1c-2-0.1-3.9-0.6-5.7-1.5c-1.5-0.7-2.9-1.5-4.1-2.6
		c-1.1-0.9-2.1-2-2.9-3.2c-1.1-1.6-2-3.3-2.5-5.1c-0.1-0.4-0.2-0.9-0.3-1.3c0-0.1,0-0.2,0.1-0.3c0.1,0.2,0.2,0.3,0.3,0.5
		c0,0,0,0.1,0.1,0.1C6.8,32.6,6.9,32.7,6.9,32.8z"/>
	<path class="st17" d="M39.3,20.6c1.6-0.8,3-1.9,4.2-3.3c0.8-0.9,1.4-1.9,1.8-3.1c0-0.1,0.1-0.2,0.1-0.2c0.2,0.4,0.3,0.8,0.5,1.3
		c-0.1,0.1-0.2,0.1-0.2,0.2c-0.7,0.9-1.2,1.9-2,2.8c-0.9,1-2,1.8-3.2,2.5c-0.1,0.1-0.2,0.2-0.3,0.3C39.7,21.3,39.5,21,39.3,20.6z"/>
	<path class="st9" d="M39.9,40.4c0.7,0.7,1.4,1.4,2.2,2.1c0.1,0.1,0.1,0.1,0.1,0.2c-0.8,0.4-1.5,0.9-2.3,1.3c-0.5-0.5-1-1-1.5-1.5
		C38.8,41.8,39.3,41.1,39.9,40.4z"/>
	<path class="st26" d="M49.5,18.3c-0.2,0.1-0.3,0.2-0.5,0.3c-0.5,0.4-1,0.9-1.4,1.3c-0.2-1.3-0.4-2.6-0.6-3.9
		c0.1-0.1,0.3-0.1,0.4-0.2c0.3-0.3,0.6-0.6,0.9-0.9C48.7,16.1,49.1,17.2,49.5,18.3z"/>
	<path class="st15" d="M44.4,22.3c0.7-0.6,1.3-1.3,2-1.9c0.2-0.1,0.3-0.3,0.5-0.4c0,1.1,0,2.2,0,3.3c0,0.4-0.1,0.7-0.1,1
		C46,23.6,45.2,23,44.4,22.3z"/>
	<path class="st19" d="M44.1,9.8c-1.1-1.6-2.4-3.1-3.9-4.3c-1.2-1-2.5-1.9-3.9-2.7c0,0,0.1-0.1,0.1-0.1c1.4,0.6,2.7,1.4,3.9,2.3
		c1.6,1.1,3,2.5,4.2,3.9c0.1,0.1,0.1,0.1,0.1,0.2C44.5,9.4,44.3,9.6,44.1,9.8z"/>
	<path class="st18" d="M48.3,15c-0.3,0.3-0.6,0.6-0.9,0.9C47.2,16,47.1,16,47,16.1c-0.4-1.2-0.8-2.3-1.3-3.5
		c0.3-0.3,0.6-0.6,0.9-0.8C47.2,12.9,47.7,13.9,48.3,15z"/>
	<path class="st23" d="M41.8,25.7c-0.2-0.6-0.4-1.2-0.7-1.8c1.7,0.1,3.2,0.6,4.5,1.8C44.4,25.7,43.1,25.7,41.8,25.7z"/>
	<path class="st9" d="M48.1,26.6c0.1-0.1,0.3-0.1,0.4-0.2c0.5-0.5,0.9-0.9,1.4-1.4c0.1-0.1,0.2-0.2,0.4-0.2c-0.1,1-0.1,1.9-0.2,2.9
		c-0.2,0.1-0.4,0.2-0.5,0.4c-0.3,0.2-0.5,0.5-0.8,0.7C48.5,28,48.3,27.3,48.1,26.6z"/>
	<path class="st8" d="M38.3,42.5c0.5,0.5,1,1,1.5,1.5c-1.3,0.6-2.6,0.9-4.1,0.9C36.6,44.1,37.4,43.3,38.3,42.5z"/>
	<path class="st16" d="M46.3,26.6c-0.1,0.3-0.2,0.6-0.3,1c-1.2,0-2.5,0-3.7,0c-0.1-0.3-0.1-0.6-0.2-1C43.5,26.6,44.9,26.6,46.3,26.6
		z"/>
	<path class="st12" d="M44.7,30.8c-0.6,1.2-1.4,2.4-2.3,3.5c0.1-0.9,0.2-1.6,0.2-2.4c0-0.4,0-0.8,0.1-1.2
		C43.3,30.7,44,30.8,44.7,30.8z"/>
	<path class="st8" d="M3.9,34.6c0-2.6,0-5.1,0-7.7c0-0.2,0.1-0.3,0.1-0.5c0.1,0.5,0.3,1,0.4,1.5c0,0.2-0.1,0.3-0.1,0.5
		c0,2.2,0,4.3,0,6.5c0,0.1-0.1,0.3-0.2,0.4C4.1,35.1,4,34.8,3.9,34.6z"/>
	<path class="st26" d="M46.3,26.6c-1.4,0-2.8,0-4.2,0c-0.1-0.3-0.2-0.6-0.3-0.9c1.3,0,2.5,0,3.8,0C45.9,26,46.3,26.2,46.3,26.6z"/>
	<path class="st7" d="M42.3,27.6c1.2,0,2.5,0,3.7,0c-0.1,0.3-0.2,0.7-0.4,1c-1.1,0-2.1,0-3.2,0C42.4,28.3,42.4,28,42.3,27.6z"/>
	<path class="st15" d="M46.6,11.8c-0.3,0.3-0.6,0.6-0.9,0.8c-0.5-0.9-1.1-1.9-1.6-2.8c0.2-0.2,0.4-0.4,0.6-0.7
		C45.3,10,46,10.9,46.6,11.8z"/>
	<path class="st8" d="M48.7,28.7c0.3-0.2,0.5-0.5,0.8-0.7c0.2-0.1,0.4-0.2,0.5-0.4c-0.2,1.8-0.6,3.5-1.3,5.2c0,0,0,0.1-0.1,0.2
		C49,31.6,48.9,30.1,48.7,28.7z"/>
	<path class="st9" d="M42.5,28.6c1.1,0,2.1,0,3.2,0c-0.2,0.4-0.3,0.7-0.5,1.1c-0.9,0-1.7,0-2.6,0C42.6,29.4,42.5,29,42.5,28.6z"/>
	<path class="st22" d="M35.3,45.6c1.4-0.1,2.8-0.3,4.1-0.9c0.1,0,0.1,0,0.2,0l0,0c-0.8,0.5-1.6,1-2.5,1.5c-0.4,0.2-0.8,0.4-1.2,0.6
		C35.8,46.4,35.6,46,35.3,45.6z"/>
	<path class="st10" d="M4.2,35.3c0.1-0.1,0.2-0.3,0.2-0.4c0-2.2,0-4.3,0-6.5c0-0.2,0.1-0.3,0.1-0.5c0.1,0.3,0.2,0.6,0.2,0.9
		c-0.1,1.5,0,2.9,0.2,4.4c-0.1,0.1-0.2,0.2-0.2,0.3c0,0.7,0,1.4,0,2.2c0,0.1-0.1,0.2-0.2,0.3C4.5,35.8,4.3,35.5,4.2,35.3z"/>
	<path class="st8" d="M42.6,29.8c0.9,0,1.7,0,2.6,0c-0.2,0.3-0.3,0.7-0.5,1c-0.7,0-1.4-0.1-2-0.1C42.6,30.4,42.6,30.1,42.6,29.8z"/>
	<path class="st10" d="M33,46.6c0.4-0.2,0.7-0.4,1.1-0.6c0.3,0.4,0.5,0.8,0.8,1.3c-0.5,0.2-0.9,0.3-1.4,0.5
		C33.6,47.2,33.3,46.9,33,46.6z"/>
	<path class="st15" d="M29.1,48.7c-1.8,0.2-3.5,0.3-5.3,0.1c0,0,0,0,0,0c1.8,0,3.5-0.2,5.2-0.6C29,48.3,29,48.5,29.1,48.7z"/>
	<path class="st8" d="M34.9,47.2c-0.3-0.4-0.5-0.8-0.8-1.3c0.3-0.3,0.7-0.5,1.2-0.4c0.2,0.4,0.4,0.8,0.6,1.2
		C35.6,46.9,35.3,47.1,34.9,47.2z"/>
	<path class="st16" d="M33,46.6c0.3,0.3,0.6,0.6,0.6,1.1c-0.4,0.1-0.8,0.3-1.3,0.4c-0.1-0.3-0.3-0.6-0.4-0.9
		C32.3,46.9,32.6,46.8,33,46.6z"/>
	<path class="st7" d="M4.6,36.1c0.1-0.1,0.2-0.2,0.2-0.3c0-0.7,0-1.4,0-2.2c0-0.1,0.1-0.2,0.2-0.3c0.2,0.6,0.3,1.3,0.5,1.9
		c0,0.1-0.1,0.3-0.1,0.4c0,0.5-0.1,1-0.1,1.5C5,36.7,4.8,36.4,4.6,36.1z"/>
	<path class="st15" d="M6.6,38.3c0.7,1.1,1.5,2.2,2.2,3.4c0,0-0.1,0.1-0.1,0.1c-0.8-1-1.6-1.9-2.4-2.9C6.5,38.7,6.5,38.5,6.6,38.3z"
		/>
	<path class="st26" d="M31.9,47.1c0.1,0.3,0.3,0.6,0.4,0.9c-0.5,0.1-1,0.2-1.4,0.3c-0.1-0.2-0.2-0.5-0.4-0.7
		C31,47.5,31.4,47.3,31.9,47.1z"/>
	<path class="st18" d="M30.5,47.7c0.1,0.2,0.2,0.5,0.4,0.7c-0.6,0.1-1.2,0.2-1.8,0.3c0-0.2-0.1-0.4-0.1-0.6
		C29.5,48,30,47.8,30.5,47.7z"/>
	<path class="st26" d="M5.2,37.1c0-0.5,0-1,0.1-1.5c0-0.1,0.1-0.3,0.1-0.4c0.2,0.5,0.4,1.1,0.6,1.6c-0.1,0.1-0.2,0.2-0.2,0.3
		c-0.1,0.2-0.1,0.5-0.1,0.8C5.5,37.6,5.3,37.3,5.2,37.1z"/>
	<path class="st18" d="M5.7,37.8c0-0.3,0-0.5,0.1-0.8c0-0.1,0.1-0.2,0.2-0.3c0.2,0.5,0.5,1,0.7,1.5c-0.1,0.2-0.2,0.4-0.3,0.6
		C6.1,38.5,5.9,38.2,5.7,37.8z"/>
	<path class="st8" d="M4,16.2c0-0.4,0-0.7-0.1-1.1c0-0.1,0-0.3,0-0.4C4,14.3,4.2,14,4.4,13.6c0.1,0.2,0.1,0.4,0.2,0.6
		C4.4,14.9,4.2,15.5,4,16.2z"/>
	<path class="st10" d="M4.6,14.2c-0.1-0.2-0.1-0.4-0.2-0.6c0.3-0.5,0.5-1,0.8-1.4c0.1,0.1,0.1,0.1,0.2,0.2C5.1,13,4.8,13.6,4.6,14.2
		z"/>
	<path class="st26" d="M5.4,12.4c-0.1-0.1-0.1-0.1-0.2-0.2C5.6,11.6,6,11,6.4,10.4c0,0,0.1,0,0.1,0C6.1,11,5.7,11.7,5.4,12.4z"/>
	<path class="st18" d="M36.4,2.7C36.4,2.7,36.3,2.8,36.4,2.7c-0.4-0.1-0.7-0.2-1-0.4c0,0,0-0.1,0-0.1C35.7,2.4,36.1,2.5,36.4,2.7z"
		/>
	<path class="st3" d="M8.8,41.7C8.8,41.7,8.8,41.7,8.8,41.7c0.2,0,0.3,0.2,0.4,0.3c0,0,0,0-0.1,0.1C9,42,8.9,41.9,8.8,41.7z"/>
	<path class="st3" d="M35.2,2.2c-0.1,0-0.2-0.1-0.3-0.1c0,0,0,0,0-0.1C35.1,2.1,35.2,2.1,35.2,2.2C35.3,2.2,35.2,2.2,35.2,2.2z"/>
	<path class="st3" d="M23.8,48.8C23.8,48.8,23.8,48.8,23.8,48.8c-0.1,0-0.2,0-0.3,0c0,0,0,0,0,0C23.6,48.8,23.7,48.8,23.8,48.8z"/>
	<path class="st20" d="M6.5,10.3c0-0.1,0.1-0.1,0.1-0.2c0,0,0,0,0.1,0C6.6,10.2,6.5,10.3,6.5,10.3C6.5,10.3,6.5,10.3,6.5,10.3z"/>
	<path class="st3" d="M6.8,9.9c0-0.1,0.1-0.1,0.1-0.2c0,0,0,0,0,0C6.8,9.8,6.8,9.8,6.8,9.9L6.8,9.9z"/>
	<path class="st8" d="M48.7,33.1C48.7,33.2,48.7,33.2,48.7,33.1C48.7,33.2,48.7,33.2,48.7,33.1C48.7,33.2,48.7,33.2,48.7,33.1
		C48.7,33.1,48.7,33.1,48.7,33.1z"/>
	<path class="st3" d="M34.2,1.8C34.2,1.8,34.2,1.8,34.2,1.8C34.3,1.8,34.3,1.8,34.2,1.8C34.2,1.8,34.2,1.8,34.2,1.8
		C34.2,1.8,34.2,1.8,34.2,1.8z"/>
	<path class="st3" d="M34.5,1.9C34.5,1.9,34.5,1.9,34.5,1.9C34.5,1.9,34.5,1.9,34.5,1.9C34.5,1.9,34.5,1.9,34.5,1.9z"/>
	<path class="st3" d="M34.5,1.9C34.6,1.9,34.6,1.9,34.5,1.9C34.6,2,34.6,1.9,34.5,1.9C34.5,1.9,34.5,1.9,34.5,1.9z"/>
	<path class="st20" d="M6.8,32.5c0,0,0-0.1-0.1-0.1C6.7,32.5,6.8,32.5,6.8,32.5z"/>
	<path class="st3" d="M9.5,42.4C9.5,42.4,9.5,42.4,9.5,42.4C9.5,42.4,9.5,42.4,9.5,42.4C9.5,42.4,9.5,42.4,9.5,42.4
		C9.5,42.4,9.5,42.4,9.5,42.4z"/>
	<path class="st3" d="M34.8,2C34.8,2,34.8,2,34.8,2C34.8,2,34.8,2,34.8,2C34.8,2.1,34.8,2,34.8,2C34.8,2,34.8,2,34.8,2z"/>
	<path class="st3" d="M9.4,42.3C9.4,42.3,9.5,42.3,9.4,42.3C9.5,42.4,9.5,42.4,9.4,42.3C9.5,42.3,9.4,42.3,9.4,42.3
		C9.4,42.3,9.4,42.3,9.4,42.3z"/>
	<path class="st8" d="M4,26.2c0,0,0-0.1-0.1-0.1C3.9,26.2,4,26.2,4,26.2z"/>
	<path class="st20" d="M6.5,10.4C6.4,10.4,6.4,10.4,6.5,10.4C6.4,10.3,6.4,10.3,6.5,10.4C6.5,10.3,6.5,10.3,6.5,10.4
		C6.5,10.4,6.5,10.4,6.5,10.4z"/>
	<path class="st3" d="M9.2,42C9.2,42.1,9.2,42.1,9.2,42c0.1,0.1,0,0.1,0,0.1C9.2,42.1,9.2,42.1,9.2,42C9.2,42.1,9.2,42,9.2,42z"/>
	<path class="st20" d="M6.7,10C6.7,10,6.7,10,6.7,10C6.7,10,6.7,10,6.7,10C6.7,10,6.7,10,6.7,10C6.7,10,6.7,10,6.7,10z"/>
	<path class="st20" d="M6.8,9.9C6.8,9.9,6.7,9.9,6.8,9.9C6.7,10,6.7,10,6.8,9.9C6.7,9.9,6.8,9.9,6.8,9.9C6.8,9.9,6.8,9.9,6.8,9.9z"
		/>
	<path class="st3" d="M9.3,42.1C9.3,42.1,9.3,42.2,9.3,42.1c0.1,0.1,0.1,0.1,0.1,0.1C9.3,42.2,9.3,42.2,9.3,42.1
		C9.2,42.1,9.2,42.1,9.3,42.1z"/>
	<path class="st3" d="M6.9,9.7C6.9,9.7,6.9,9.7,6.9,9.7C6.9,9.7,6.9,9.7,6.9,9.7C6.9,9.7,6.9,9.7,6.9,9.7L6.9,9.7z"/>
	<path class="st3" d="M6.9,9.7C7,9.6,7,9.6,6.9,9.7C7,9.6,7,9.6,6.9,9.7C6.9,9.7,6.9,9.7,6.9,9.7z"/>
	<path class="st22" d="M39.6,44.7C39.7,44.7,39.7,44.6,39.6,44.7C39.7,44.6,39.7,44.6,39.6,44.7C39.7,44.7,39.7,44.7,39.6,44.7
		C39.6,44.7,39.6,44.7,39.6,44.7z"/>
	<path class="st3" d="M9.3,42.2C9.4,42.2,9.4,42.3,9.3,42.2C9.4,42.3,9.4,42.3,9.3,42.2C9.4,42.3,9.4,42.2,9.3,42.2
		C9.3,42.2,9.3,42.2,9.3,42.2z"/>
	<path class="st27" d="M203.3,31c0,0,0.1-0.1,0.1-0.1C203.4,30.9,203.4,31,203.3,31C203.3,31,203.3,31,203.3,31z"/>
	<path class="st28" d="M38.5,9.7c0.1,2.3-1.9,4.2-4.2,4.2c-2.4,0-4.3-1.8-4.2-4.3c0-2.3,1.9-4.2,4.3-4.2C36.5,5.5,38.6,7.4,38.5,9.7
		z M37.7,9.8c0.1-1.9-1.5-3.5-3.4-3.5c-1.9,0-3.4,1.4-3.4,3.3c-0.1,2,1.4,3.6,3.5,3.6C36.1,13.1,37.7,11.6,37.7,9.8z"/>
	<path class="st29" d="M37.7,9.8c0,1.9-1.5,3.4-3.3,3.4c-2.1,0-3.6-1.6-3.5-3.6c0.1-1.9,1.5-3.2,3.4-3.3C36.1,6.3,37.8,7.9,37.7,9.8
		z"/>
</g>
</svg>
