<svg xmlns="http://www.w3.org/2000/svg" viewBox="0 0 969.18 247.82"><defs><style>.a{fill:#dde460;}.b{fill:#a7dcda;}.c{fill:#f6df3f;}</style></defs><path d="M236.61,77.28c-26-62.95-98-92.87-160.71-66.82S-16.6,108.65,9.41,171.61s98,92.86,160.7,66.81,92.52-98.19,66.5-161.14Z"/><path d="M167.19,17.6C108.37-6.82,40.91,21.23,16.52,80.25S20.05,206.9,78.86,231.31s126.27-3.62,150.66-62.64S226,42,167.19,17.6Z"/><path class="a" d="M225.24,107.72C225.24,51,179.48,5.11,123,5.11S20.81,51,20.81,107.72,66.57,210.33,123,210.33,225.24,164.39,225.24,107.72Z"/><path d="M123,213C64.4,213,16.9,165.35,16.9,106.51S64.4,0,123,0,229.11,47.69,229.11,106.51,181.61,213,123,213ZM123,7.88a98.83,98.83,0,1,0,98.39,98.63C221.36,52,177.33,7.77,123,7.71Z"/><path class="b" d="M190.75,154.71c0-47-38-85.18-84.86-85.18S21,107.67,21,154.71s38,85.17,84.85,85.17,84.86-38.14,84.86-85.17Z"/><path d="M106.07,243.76a89,89,0,0,1-18.77-2C39.41,231.48,8.91,184.15,19.18,136.07a88.69,88.69,0,0,1,105.3-68.4c47.91,10.3,78.41,57.62,68.17,105.7a88.83,88.83,0,0,1-86.46,70.39Zm-.2-170.38a81.28,81.28,0,1,0,63,30.21,81.15,81.15,0,0,0-63-30.21Z"/><path class="c" d="M232.65,158.29A52.64,52.64,0,1,0,180,211.14a52.73,52.73,0,0,0,52.64-52.85Z"/><path d="M180,215a56.71,56.71,0,1,1,56.49-56.71A56.6,56.6,0,0,1,180,215Zm0-105.68a49,49,0,1,0,48.79,49A48.8,48.8,0,0,0,180,109.32Zm153.9,21H315.32l-7.55,35.88H286.54l20.64-96.92h40c16.27,0,27.38,11.4,27.38,24.55C374.53,119.82,353.82,130.29,333.91,130.29Zm2.62-46.8H325.2l-7,32.58h7.26c14.24,0,27.41-3.23,27.41-20.23C352.9,88.13,344.81,83.49,336.53,83.49ZM442.19,140.3a136.77,136.77,0,0,0-3.49,25.87H418.2c.3-3.62,1.62-10.47,2.78-17.13-5.24,9.43-13.77,18.74-28.05,18.74-14.68,0-22.1-9.84-22.1-23.25,0-32.71,29.22-52.92,57.06-52.92,8.43,0,19.34,1.46,24.41,3.35ZM424,105.13c-16.72,0-32,17.7-32,37.22,0,6.53,2.32,11.92,9.84,11.92,10.17,0,19.9-14,24-31.48l3.93-16.86a16.41,16.41,0,0,0-5.78-.8ZM520,156.43c-6.53,29.37-17.3,42.73-49.55,42.73a81.38,81.38,0,0,1-25.3-4L449,180.7a43.71,43.71,0,0,0,20.93,5c18.16,0,25.14-9.59,28.49-23.26l2.32-9.58c-7,9.31-14.24,13.36-26.3,13.36-15,0-22.25-9.29-22.25-21.64,0-32.85,29.94-52.76,57.86-52.76A91.82,91.82,0,0,1,533.68,95Zm-14.24-51.14c-16.72,0-32.27,17.15-32.27,37.49,0,6.53,2.32,11.33,9.45,11.33,13.67,0,21.22-17.43,24.27-30.37l4.21-17.51a19.45,19.45,0,0,0-5.66-.94ZM605.27,87a46.59,46.59,0,0,0-20.07-4.8c-8.85,0-22.09,4.07-22.09,14.1,0,14.09,38.38,11.93,38.38,38.66,0,21.23-20.07,32.85-44.62,32.85a86.89,86.89,0,0,1-28.35-4.23l5.1-15.73a49.31,49.31,0,0,0,23.86,5.43c10.33-.14,21.8-4.8,21.8-15.57,0-15.24-38.06-13.65-38.06-38.22,0-23.09,23.09-31.67,45.24-31.67a67,67,0,0,1,23.84,4.35Zm23,48.39a21.67,21.67,0,0,0-1,6.83c0,9.84,7.55,13.77,16.42,13.77a43.26,43.26,0,0,0,22.37-6.69l-.71,12.95a62.84,62.84,0,0,1-27.77,5.66c-15.84,0-30.81-6.84-30.81-24.71,0-28.93,22-51.3,47.82-51.3,11.8,0,25.14,4.21,25.14,17.58.08,22.87-33.21,25.91-51.44,25.91Zm24.55-31.82c-11,0-19,11.48-22.66,20.92,13.08,0,31.38-2.32,31.38-13.77.17-5.4-3.76-7.16-8.64-7.16Zm94,52.89c-6.54,29.37-17.28,42.73-49.57,42.73a81.3,81.3,0,0,1-25.28-4l3.94-14.41a43.68,43.68,0,0,0,20.93,5c18.17,0,25.14-9.59,28.48-23.26l2.34-9.58c-7,9.31-14.24,13.36-26.32,13.36-15,0-22.22-9.29-22.22-21.64,0-32.85,29.93-52.76,57.83-52.76A91.89,91.89,0,0,1,760.56,95Zm-14.24-51.14c-16.72,0-32.26,17.15-32.26,37.49,0,6.53,2.32,11.33,9.44,11.33,13.66,0,21.21-17.43,24.28-30.37l4.21-17.51a19.26,19.26,0,0,0-5.68-.94Zm94.76,44.47a162.88,162.88,0,0,0-2.77,16.41H805.82l2-13.06c-6.25,8.56-14,14.67-26,14.67s-20-5.9-20-18a40.6,40.6,0,0,1,.72-8.3l10.31-48.39h20.07l-9.11,44a36.48,36.48,0,0,0-1.16,7.56c0,5.53,2.62,9.6,9.6,9.6,10.9,0,16-10,18-19.34l9-41.86h20Zm65.55-39.11a16.73,16.73,0,0,0-5.9-1c-13.24,0-20.64,12.81-23.12,24.44l-6.82,32.1H836.83l12-56.68a160.33,160.33,0,0,0,2.92-16.13h18.88l-2.75,15c4.5-9,13.38-16.72,23.84-16.72a19.61,19.61,0,0,1,5.8.73Zm29.35,57.13c-16.13,0-31-8.87-31-26.46,0-28.19,18.17-49.55,47.09-49.55,16.13,0,30.81,8.58,30.81,26.3,0,27.9-18.46,49.71-46.94,49.71Zm12.65-62.49c-15,0-22.52,21.2-22.52,33.85,0,8.72,3.34,15.13,12.78,15.13,14.68,0,23.12-21.36,23.12-33.88C948.27,111.68,944.33,105.29,934.89,105.29Z"/></svg>