<?xml version="1.0" encoding="utf-8"?>
<!-- Generator: Adobe Illustrator 21.0.0, SVG Export Plug-In . SVG Version: 6.00 Build 0)  -->
<svg version="1.1" id="Camada_1" xmlns="http://www.w3.org/2000/svg" xmlns:xlink="http://www.w3.org/1999/xlink" x="0px" y="0px"
	 viewBox="0 0 250.4 97.5" style="enable-background:new 0 0 250.4 97.5;" xml:space="preserve">
<style type="text/css">
	.st0{fill:#012D8A;}
	.st1{fill:#019AE0;}
	.st2{fill:#001F6B;}
	.st3{fill:#032F8B;}
	.st4{fill:#049CE0;}
	.st5{fill:#04308C;}
	.st6{fill:#059CE1;}
	.st7{fill:#042F8C;}
	.st8{fill:#F8FCFD;}
	.st9{fill:#FDFEFE;}
</style>
<path class="st0" d="M24.9,85.6c-5.6,0-11.3,0-16.9,0c-3.2,0-4-0.8-3.5-4.1C5.6,74.1,6.8,66.7,8,59.3c2.8-17.7,5.6-35.3,8.4-53
	c0.6-3.6,1.9-4.8,5.5-4.8c9.7,0,19.3-0.1,29,0c5,0.1,10,0.6,14.7,2.5c8.1,3.3,12.5,10.7,11.2,19.4c-0.1,0.6-0.2,1.2-0.3,1.8
	c-0.4-0.1-0.9-0.2-1.2-0.3c-3.8-1.5-7.7-2.3-11.7-2.3c-8.4,0-16.7,0-25.1,0c-2.3,0-3.9,1.2-4.2,3.5c-0.3,1.8-0.5,3.7-0.8,5.5
	c-1.1,6.6-2.2,13.2-3.2,19.8c-0.2,1.4-0.1,2.9-0.2,4.3c-0.3,1.1-0.8,2.2-1,3.3C27.6,67.9,26.3,76.7,24.9,85.6z"/>
<path class="st1" d="M24.9,85.6c1.4-8.8,2.8-17.6,4.2-26.4c0.2-1.1,0.7-2.2,1-3.3c1.1-1.3,2.6-1.8,4.3-1.8
	c5.1-0.1,10.3,0.1,15.4-0.5c10.7-1.3,19-6.5,23.5-16.7c1.5-3.5,2.3-7.4,3.4-11.1c4.7,2.4,7.3,6.4,7.6,11.5
	c0.7,9.1-1.4,17.5-7.7,24.4c-4.7,5.2-11.1,7.3-17.9,7.9c-2.1,0.2-4.2,0.2-6.3,0.2c-2.8,0.1-4,1-4.4,3.7c-1,6.1-2,12.2-2.9,18.3
	C44.5,95,43.5,96,40.3,96c-4.6,0-9.2,0-13.7,0c-2.3,0-3-0.8-2.7-3.1C24.1,90.4,24.5,88,24.9,85.6z"/>
<path class="st2" d="M76.7,25.7c-1.1,3.7-1.9,7.6-3.4,11.1C68.8,47,60.5,52.2,49.8,53.5c-5.1,0.6-10.2,0.4-15.4,0.5
	c-1.7,0-3.2,0.5-4.3,1.8c0.1-1.4,0-2.9,0.2-4.3c1-6.6,2.1-13.2,3.2-19.8c0.3-1.8,0.5-3.7,0.8-5.5c0.4-2.3,1.9-3.5,4.2-3.5
	c8.4,0,16.7,0,25.1,0c4,0,8,0.7,11.7,2.3c0.4,0.2,0.8,0.2,1.2,0.3C76.6,25.4,76.6,25.6,76.7,25.7z"/>
<path class="st3" d="M98.7,63.1c-4.2-0.1-4,0.5-3.3-3.9c1.3-8.2,2.6-16.4,3.9-24.6c0.4-2.9,0.5-3,3.5-3c3.7,0,7.3-0.1,11,0.1
	c6.6,0.3,9.6,4.1,8.3,10.6c-1.3,6.8-5.3,10.1-12.3,10.2c-6.4,0.1-5.2-0.7-6.4,5.6c-0.1,0.4-0.1,0.7-0.1,1.1
	C102.6,63.1,102.6,63.1,98.7,63.1z M105.4,46.4c2-0.2,3.8-0.2,5.5-0.6c2-0.4,2.7-2,2.9-3.9c0.2-1.3,0.2-2.9-1.2-3.4
	c-1.6-0.5-3.5-0.5-5.2-0.6c-0.3,0-0.8,0.8-0.9,1.2C106.1,41.5,105.8,43.7,105.4,46.4z"/>
<path class="st4" d="M179.8,63.1c-4.9,0-3.9,0-3.3-3.9c1.2-8.4,2.7-16.7,3.9-25.1c0.3-1.8,1-2.6,2.9-2.5c3.8,0.1,7.7,0,11.5,0.1
	c6.5,0.2,9.5,4,8.4,10.5c-1.2,6.9-5.3,10.3-12.3,10.4c-6.3,0-5.3-0.7-6.3,5.6c-0.1,0.4-0.2,0.9-0.2,1.3
	C183.7,63.6,184.2,63,179.8,63.1z M186.4,46.2c1.5,0,2.8,0.1,4.1,0c2-0.1,3.5-1,4-3c0.4-1.5,0.9-3.5-0.6-4.2
	c-1.7-0.8-3.8-0.7-5.7-0.9c-0.2,0-0.6,0.7-0.7,1.1C187.1,41.5,186.8,43.7,186.4,46.2z"/>
<path class="st5" d="M139.8,43.8c0-1.4,1-1.9,2.6-1.8c1.1,0.1,2.2,0.1,3.3,0c1.4-0.1,1.7,0.6,1.5,1.8c-0.9,5.7-1.8,11.5-2.7,17.2
	c-0.2,1.4-0.9,2.1-2.3,2c-0.9-0.1-1.9,0-2.8,0c-1.3,0-3,0.4-2.3-1.8c-1.9,0.7-3.5,1.6-5.3,2.1c-6.3,1.5-11.1-2.5-11-9
	c0.1-8.4,7.6-14.5,15.6-12.3C137.6,42.4,138.7,43.2,139.8,43.8z M132.8,57.8c3.5,0,6.1-2.7,6.1-6.1c0-2.6-1.8-4.3-4.5-4.4
	c-3.4,0-6.3,2.8-6.2,6.3C128.2,56.2,130,57.8,132.8,57.8z M137.1,60.8l-0.1,0.1L137.1,60.8L137.1,60.8z"/>
<path class="st6" d="M220.9,43.8c-0.1-1.4,0.9-1.9,2.4-1.7c1.1,0.1,2.2,0.1,3.3,0c1.4-0.1,1.9,0.5,1.7,1.9c-0.9,5.7-1.9,11.3-2.7,17
	c-0.2,1.7-1,2.2-2.6,2.1c-0.9-0.1-1.7,0-2.6,0c-1.4,0-2.8,0.1-2.2-2.3c-3,2.3-6,3.3-9.3,2.7c-4.4-0.8-7.2-4.1-7.1-8.9
	C201.9,46,209,40,217.2,42C218.5,42.3,219.7,43.2,220.9,43.8z M213.8,57.8c3.5,0,6.1-2.7,6.1-6.1c0-2.6-1.8-4.3-4.5-4.3
	c-3.4,0-6.3,2.9-6.2,6.3C209.2,56.2,211,57.8,213.8,57.8z"/>
<path class="st7" d="M161.1,53.9c2.4-3.5,4.7-6.7,6.8-10c0.9-1.4,1.9-2,3.5-1.8c1,0.1,2.1,0,3.2,0c0.6,0,1.4,0.2,1.6,0.6
	c0.2,0.4-0.2,1.2-0.5,1.6c-3.1,4.5-6.2,9-9.3,13.4c-2.6,3.8-5.3,7.5-7.8,11.3c-0.7,1-1.4,1.4-2.6,1.3c-1.2-0.1-2.5,0-3.7,0
	c-0.6,0-1.2-0.3-1.8-0.5c0.2-0.5,0.3-1.2,0.7-1.6c1.4-2,2.7-4,4.2-5.9c0.8-1,0.8-1.8,0.4-2.9c-1.8-5-3.4-9.9-5.1-14.9
	c-0.7-2.1-0.5-2.4,1.7-2.4c6.5,0.1,5-0.8,6.9,5C159.7,49.2,160.3,51.3,161.1,53.9z"/>
<path class="st6" d="M237.5,31.6c4.3-0.1,3.6,0.1,3.1,3.7c-1.3,8.6-2.7,17.1-4,25.7c-0.2,1.6-1,2.2-2.6,2.2c-4.9,0-4.9,0.1-4.2-4.7
	c1.3-8.2,2.6-16.4,3.8-24.6C234,31.6,234,31.6,237.5,31.6z"/>
<path class="st8" d="M186.4,46.2c0.4-2.4,0.7-4.7,1.1-7c0.1-0.4,0.5-1.2,0.7-1.1c1.9,0.2,4,0.1,5.7,0.9c1.6,0.8,1.1,2.7,0.6,4.2
	c-0.6,2-2.1,2.9-4,3C189.3,46.2,188,46.2,186.4,46.2z"/>
<polygon class="st9" points="137.1,60.8 137.1,60.9 137,60.9 "/>
</svg>
