<?xml version="1.0" encoding="utf-8"?>
<!-- Generator: Adobe Illustrator 21.0.0, SVG Export Plug-In . SVG Version: 6.00 Build 0)  -->
<svg version="1.1" id="Camada_1" xmlns="http://www.w3.org/2000/svg" xmlns:xlink="http://www.w3.org/1999/xlink" x="0px" y="0px"
	 viewBox="0 0 250 125.4" style="enable-background:new 0 0 250 125.4;" xml:space="preserve">
<style type="text/css">
	.st0{fill:#006837;}
</style>
<g>
	<path class="st0" d="M69.5,125.4c-17.1,0-34.2,0-51.4,0c-9,0-16.2-6-17.9-14.8c-0.4-2.3-0.2-4.6,0-6.9c0.4-4.1,0.7-8.3,1.1-12.4
		c0.5-5,0.9-10.1,1.4-15.1c0.3-3.9,0.7-7.8,1-11.7c0.5-5.2,0.9-10.3,1.4-15.5C5.6,44,5.9,39,6.4,34.1C7,28.2,6.9,22.2,8.3,16.4
		C10.5,7,19.6,0,29.2,0C92.5,0,155.8,0,219,0c1.3,0,1.9,0.5,2.2,1.7c2.8,8.4,3.5,17.1,3,25.8c-0.6,13.5-4.1,26.3-10.2,38.4
		c-6.4,12.7-15,23.6-25.8,32.9c-14,11.9-29.9,20-47.8,24.1c-5.4,1.2-10.9,2-16.5,2.4c-3.3,0.2-6.6,0.2-9.8,0.2
		C99.2,125.4,84.4,125.4,69.5,125.4z M121.9,93.3c0,0.6-0.1,1.3,0,1.9c0.3,2.7,1.1,5.3,3.2,7.2c2.8,2.5,7.4,2.6,10.7,0.5
		c1.5-1,2.7-2.2,3.7-3.5c0.2-0.3,0.4-0.7,0.8-0.6c0.4,0.2,0.2,0.6,0.2,1c0,0.7,0,1.4,0,2.2c0.1,1.8,0.4,2,2.2,2c0.6,0,1.2,0,1.8,0
		c0.7,0,1-0.2,0.7-0.9c-0.7-1.5-0.8-3.2-0.6-4.8c0.2-3.1,0.5-6.1,0.8-9.2c0.4-5.1,0.9-10.2,1.4-15.3c0.3-2.9,0.2-5.8,1.2-8.6
		c0.2-0.6-0.1-0.7-0.6-0.7c-1.2,0-2.3,0-3.5,0c-0.4,0-0.7,0.1-0.7,0.6c0.2,3.7-0.4,7.4-0.7,11.1c-0.1,1.8-0.1,1.8-1.9,1.3
		c-6.3-1.6-12.5,0.6-15.9,5.7C122.7,86.2,121.8,89.6,121.9,93.3z M31.5,23.4c-1.8,0-3.2,0-4.7,0c-0.5,0-0.8,0.1-0.7,0.8
		c0.3,3.5-0.2,6.9-0.5,10.4c-0.4,5.1-0.8,10.3-1.4,15.4c-0.3,3.4-0.3,6.8-1.2,10.1c-0.2,0.7,0,1,0.7,1c1.1,0,2.2,0,3.2,0
		c0.9,0,1.1-0.4,1-1.2c-0.2-1.4,0-2.8,0.1-4.2c0.4-5,0.9-10,1.3-15c0.4-4.5,0.8-9.1,1.2-13.6c0.1-0.8,0.4-1.1,1.1-1.1
		c1.2,0,2.3,0.1,3.5,0.2c4.8,0.4,7.5,3.4,7.3,8.2c-0.2,4.6-3.7,8.2-8.2,8.2c-0.9,0-1.8-0.1-2.6-0.2c-1-0.1-1.5,0.7-1.7,1.4
		c-0.2,0.6,0.7,0.6,1.1,0.8c4.6,1.5,9.9-0.1,12.9-3.8c1.8-2.2,2.5-4.8,2.6-7.6c0.2-4.9-2.5-8.6-7.2-9.4
		C36.7,23.5,33.9,23.4,31.5,23.4z M186.2,61c0.3,0,0.6,0,1,0c1.1,0.1,1.3-0.2,0.9-1.3c-0.5-1.4-0.6-2.9-0.5-4.4c0.3-4,0.7-8,1.1-12
		c0.6-5-1.6-8.2-6.5-9.4c-4.1-0.9-8.1-0.4-11.9,1.4c-1.3,0.6-2,1.4-2,2.8c0,0.3-0.2,0.8,0.2,1c0.3,0.2,0.6-0.2,0.8-0.3
		c2.1-1.3,4.4-2.4,6.9-2.7c2.7-0.4,5.3,0,7.3,2.1c1.4,1.5,1.3,3.1-0.4,4.3c-1.5,1.1-3.2,1.4-5,1.5c-3.3,0.2-6.4,0.8-9.2,2.7
		c-3.3,2.3-4.7,6.5-3.2,10c1.7,4,6.8,5.8,11,4c1.8-0.8,3.5-2,5-3.3c0.5-0.4,0.9-1.5,1.6-1.2c0.6,0.3,0.2,1.3,0.2,2
		C183.6,60.9,183.7,61,186.2,61z M81.5,76.7c0-2,0-4.1,0-6.1c0-0.7-0.4-1-0.9-1.3c-2.8-1.6-5.8-2.4-8.9-2.5
		c-7.2-0.2-12.9,3-17.2,8.6c-3.4,4.5-5,9.7-4.1,15.3c1.4,9,9.2,13.6,17.5,13.5c3.9,0,7.5-1.3,10.7-3.7c1.7-1.2,1.8-1.5,1.1-3.4
		c-0.2-0.6-0.4-0.7-0.9-0.2c-0.2,0.2-0.4,0.5-0.7,0.7c-5.5,4.9-15.6,5.9-20.9-2.9c-1.9-3.1-2.3-6.5-2.1-10.1c0.3-4.8,2-8.9,5.8-11.9
		c4.6-3.6,12.2-4.9,17.3,0C79.4,74.1,80.3,75.5,81.5,76.7z M84.6,82.6c0.4,0.1,0.7-0.2,0.9-0.4c1.4-0.9,2.9-1.6,4.4-2.1
		c3.1-1,6.2-1.2,9.1,0.8c2.2,1.6,2.1,3.8-0.3,5.2c-1.4,0.8-3,1.1-4.6,1.2c-2.9,0.2-5.7,0.7-8.3,2.2c-3.9,2.2-5.4,6.8-3.7,10.6
		c1.7,3.5,6.3,5.2,10.3,3.8c2.4-0.9,4.3-2.4,6.1-4.1c0.2-0.2,0.5-0.7,0.9-0.5c0.4,0.2,0.1,0.6,0.1,1c-0.2,3.3,0.2,3.8,3.5,3.8
		c0.2,0,0.5,0,0.7,0c0.7,0,0.8-0.2,0.5-0.9c-0.5-1.2-0.7-2.4-0.6-3.6c0.3-4.5,0.6-9.1,1-13.6c0.4-4.9-2-7.4-5.9-8.4
		c-4-1-8-0.6-11.8,1.1C85.2,79.3,84.5,80.6,84.6,82.6z M122.1,61.8c0.9-0.1,1.8-0.1,2.6-0.2c6.6-1.3,11.7-6.5,12.9-13.2
		c1.2-6.7-2.8-12.8-9.4-14.4c-6-1.5-12.4,0.9-16,5.9c-2.5,3.5-3.8,7.3-3.1,11.6C110.2,57.8,115.2,61.7,122.1,61.8z M160.1,61.1
		c0.7-0.1,1.6,0.3,2.1-0.2c0.5-0.5,0-1.4,0-2.1c0-0.1,0-0.2,0-0.2c0.5-5.8,1-11.6,1.6-17.4c0.4-3.7-1.2-6.3-4.4-7.1
		c-3.4-0.8-6.7-0.4-9.6,1.6c-1.5,1-2.8,2.1-4,3.4c-0.2,0.2-0.4,0.4-0.6,0.4c-0.4-0.1-0.2-0.4-0.2-0.7c0-1.1,0-2.2-0.1-3.2
		c-0.1-1-0.5-1.6-1.7-1.5c-0.8,0.1-1.7,0-2.5,0c-0.6,0-0.8,0.2-0.5,0.8c0.9,2,0.9,4.1,0.7,6.2c-0.3,3.3-0.5,6.7-0.9,10
		c-0.3,3.1-0.2,6.2-1.2,9.2c-0.2,0.7,0.2,0.8,0.7,0.8c1.1,0,2.2,0,3.2,0c0.8,0,0.9-0.3,0.8-1c-0.1-0.8-0.2-1.6-0.1-2.4
		c0.3-3.2,0.8-6.4,0.8-9.7c0-4.8,5-10.2,8.9-11.4c3.8-1.1,6.7,1,6.6,5c-0.1,2.2-0.3,4.3-0.5,6.4c-0.3,3.6-0.7,7.2-1,10.7
		c-0.1,0.7-0.9,1.5-0.3,2.1C158.3,61.4,159.3,61,160.1,61.1z M59.2,45.2c2.8,0,5.6-0.1,8.4,0c1.2,0,1.6-0.4,1.4-1.5
		c-0.1-0.8-0.1-1.5-0.3-2.3c-1-5.7-5.2-8.1-10-7.8c-4.5,0.3-8.1,2.5-10.7,6c-2.8,3.7-4.2,7.8-3.2,12.5c2,9.2,13.2,12.6,20.5,7.2
		c0.3-0.2,0.7-0.4,0.5-0.8c-0.2-0.4-0.4-0.8-0.8-1c-0.4-0.1-0.7,0.3-1.1,0.5c-4.2,2.4-8.5,2.1-11.6-1c-3-3-3.5-6.7-3-10.6
		c0.1-0.9,0.6-1.2,1.4-1.2C53.5,45.2,56.3,45.2,59.2,45.2z M107.1,40.2c-0.1-1.2-0.1-2.5-0.2-3.7c0-0.4-0.2-0.8-0.6-1
		c-4.2-2.5-10.3-2.8-14.1-0.1c-1.1,0.8-2,1.7-2.4,3.1c-0.9,2.8-0.1,5.4,2.2,7.3c1.9,1.6,4.2,2.4,6.4,3.4c1.5,0.7,3,1.6,4.1,2.9
		c1.3,1.6,1.3,3.5-0.1,5c-0.6,0.7-1.4,1.2-2.2,1.6c-3.4,1.3-6.6,1.1-9.8-0.8c-1.2-0.7-2.1-1.7-3.2-2.8c0,1.2,0,2.1,0,3
		c-0.1,1,0.3,1.6,1.2,2.1c1.9,1,3.8,1.6,5.9,1.8c4.4,0.4,8.4-0.6,11.4-4c2.8-3.1,2.6-6.6-0.4-9.5c-1.8-1.7-4.1-2.8-6.3-3.8
		c-1.3-0.6-2.7-1.2-3.9-2.1c-1.1-0.9-1.7-2-1.5-3.4c0.3-1.5,1.3-2.3,2.7-2.7c1.5-0.4,3-0.4,4.5-0.2C103.4,36.6,105.5,38,107.1,40.2z
		 M197.5,20.8C197.5,20.8,197.5,20.8,197.5,20.8c-0.6,0-1.2,0.1-1.8,0c-0.6,0-0.8,0.2-0.7,0.8c0.4,3.4-0.3,6.8-0.5,10.3
		c-0.4,5.2-0.8,10.4-1.4,15.6c-0.4,4.2-0.4,8.5-1.5,12.7c-0.1,0.6,0,0.9,0.6,0.9c1.2,0,2.3,0,3.5,0c0.4,0,0.6-0.2,0.6-0.7
		c-0.4-4,0.4-7.9,0.7-11.8c0.3-5.1,0.9-10.3,1.3-15.4c0.3-3.4,0.7-6.8,1-10.2c0.1-0.7,0.9-1.4,0.3-1.9
		C199.2,20.6,198.3,20.8,197.5,20.8z M76,37.4c0-0.4,0-0.9,0-1.4c-0.1-1.8-0.3-2-2.1-2c-0.7,0-1.4,0-2.2,0c-0.6,0-0.8,0.1-0.5,0.8
		c0.9,1.9,0.9,4,0.7,6c-0.3,3.4-0.5,6.8-0.9,10.1c-0.3,3.1-0.2,6.3-1.2,9.4C69.6,60.9,70,61,70.5,61c1,0,2,0,3,0
		c0.9,0,1.1-0.4,1-1.2c-0.2-0.7-0.1-1.5-0.1-2.3c0.3-3.1,0.7-6.3,0.8-9.4c0.2-4.8,2.8-7.9,6.6-10.4c1.1-0.7,2.5-1.1,3.9-0.9
		c0.8,0.1,1.5,1.1,2.3,0.5c0.6-0.5,0.9-1.4,1.3-2.1c0.1-0.2,0.2-0.3,0.3-0.5c0.6-1.1,0.6-1.2-0.6-1.2c-4.5-0.2-8.2,1.5-11.3,4.6
		c-0.5,0.5-0.9,1.5-1.4,1.2C75.6,39.1,76.2,38.1,76,37.4z M108.7,104c0.5,0,0.8,0,1.2,0c1.5,0,1.5,0,1.2-1.5
		c-0.1-0.6-0.1-1.1-0.1-1.7c0.3-3.2,0.6-6.4,0.8-9.5c0.3-5,3.1-8.3,7.3-10.6c1-0.6,2.2-0.6,3.4-0.4c0.7,0.1,1.3,0.9,1.8,0.5
		c0.5-0.4,0.8-1.2,1.2-1.8c0.2-0.4,0.5-0.8,0.7-1.2c0.4-0.6,0.3-0.9-0.5-0.9c-1.9-0.1-3.8,0-5.7,0.7c-2.6,1-4.8,2.6-6.6,4.6
		c-0.2,0.2-0.4,0.7-0.7,0.6c-0.5-0.1-0.2-0.6-0.2-0.9c0-0.8,0-1.7,0-2.5c-0.1-1.7-0.3-1.9-2-1.9c-0.7,0-1.4,0-2.2,0
		c-0.6,0-0.8,0.3-0.5,0.8c0.6,1.3,0.7,2.7,0.7,4.1c-0.1,3.5-0.6,6.9-0.8,10.4c-0.2,3-0.6,6-0.9,9c-0.1,0.7-0.8,1.5-0.4,2
		C107.1,104.3,108.1,103.9,108.7,104z"/>
	<path class="st0" d="M195.4,125.1c2.3-1.8,4.6-3.5,6.8-5.3c10.5-8.8,19.3-19,26-31C234,78.4,238,67.3,240,55.4
		c1-5.8,1.5-11.7,1.3-17.7c-0.3-9.9-1.9-19.6-5.5-28.8c-1-2.7-2.4-5.2-3.7-7.8c-0.2-0.3-0.5-0.5-0.4-1.1c1.7,1.9,3.2,3.9,4.6,5.9
		c5.6,8.4,9,17.6,11.3,27.3c1.8,7.5,2.5,15.2,2.4,23c-0.3,14-3.4,27.5-9,40.3c-4.5,10.1-10.4,19.3-17.5,27.7
		c-0.7,0.8-1.4,1.2-2.6,1.2c-8,0-16,0-24,0C196.4,125.4,196,125.5,195.4,125.1z"/>
	<path class="st0" d="M126.1,92.3c0.3-3.8,1-7.8,4.3-10.7c2.9-2.6,7.7-3.1,11.1-1.2c0.5,0.3,0.6,0.7,0.6,1.2
		c-0.3,3.7-0.3,7.4-1.1,10.9c-0.7,3.5-3,6-6.1,7.8c-2.3,1.4-5.3,0.6-6.9-1.5C126.5,97,126.2,94.8,126.1,92.3z"/>
	<path class="st0" d="M174.6,58.3c-1.9,0-3.8-1.3-4.6-3.2c-0.8-2-0.5-3.9,1-5.4c1.9-2,4.5-2.5,7-3c1.9-0.4,3.9-0.6,5.6-1.6
		c0.5-0.3,0.8-0.2,0.8,0.5c0.1,4.7-1.7,8.5-5.5,11.2C177.6,57.6,176.3,58.3,174.6,58.3z"/>
	<path class="st0" d="M100.5,89.8c0.1,5.2-2.8,8.7-7.3,10.9c-2.5,1.2-5.3,0.2-6.7-2.2c-1.3-2.3-0.6-4.9,1.7-6.5
		c2.2-1.5,4.7-2,7.2-2.4c1.4-0.2,2.8-0.6,4.1-1.2c0.3-0.1,0.6-0.5,1-0.2c0.3,0.2,0.1,0.6,0.1,0.9C100.6,89.2,100.6,89.4,100.5,89.8z
		"/>
	<path class="st0" d="M133.2,46.9c-0.1,1.9-0.4,4.1-1.1,6.2c-1.5,4-4.7,6.3-9.2,6.3c-3.9,0.1-6.9-2-8.4-6c-1.8-4.6-1.1-9.2,1.3-13.4
		c1.9-3.4,5.3-4.3,8.8-4.2c3.6,0.1,6,2.3,7.5,5.5C132.8,43.1,133.2,44.8,133.2,46.9z"/>
	<path class="st0" d="M57.2,42.6c-2,0-4,0-6,0c-0.9,0-1.1-0.3-0.8-1.1c1.5-3.6,5-5.7,8.9-5.4c2.8,0.2,5.1,2.9,5.1,5.7
		c0,0.8-0.5,0.8-1,0.8C61.4,42.6,59.3,42.6,57.2,42.6z"/>
</g>
</svg>
