<?xml version="1.0" encoding="utf-8"?>
<!-- Generator: Adobe Illustrator 21.0.0, SVG Export Plug-In . SVG Version: 6.00 Build 0)  -->
<svg version="1.1" id="Camada_1" xmlns="http://www.w3.org/2000/svg" xmlns:xlink="http://www.w3.org/1999/xlink" x="0px" y="0px"
	 viewBox="0 0 250.4 98.2" style="enable-background:new 0 0 250.4 98.2;" xml:space="preserve">
<style type="text/css">
	.st0{fill:#21449C;}
	.st1{fill:#EE4427;}
</style>
<path class="st0" d="M122.1,46c0.8-4.2,1.7-8.4,2.5-12.7c2.6-0.2,5.2-0.3,8-0.5c-0.3,1.7-0.6,3.3-0.9,4.9
	c-1.6,8.5-3.2,17.1-4.9,25.6c-0.4,2.2-1.2,4.4-2.1,6.4c-1.9,4.1-5,6.9-9.3,8.3c-5.4,1.8-10.9,2-16.3,0.1c-5.9-2.1-9.1-7.3-8.5-13.5
	c0.9-9.4,6.8-15.8,16.5-18c4.3-0.9,8.6-0.9,12.9-0.7C120.6,46.1,121.3,46,122.1,46z M120.7,51.6c-3.4-0.4-6.6-0.5-9.8,0.1
	c-2.8,0.5-5.4,1.5-7.5,3.6c-3.1,3.1-4.3,6.9-4.4,11.1c-0.1,3.5,1.8,5.8,5.2,6.6c1.1,0.2,2.2,0.3,3.3,0.3c5.5,0,9.2-2.8,10.5-8.2
	c0.6-2.5,1-5.1,1.6-7.6C119.9,55.6,120.3,53.6,120.7,51.6z"/>
<path class="st0" d="M220.6,80.3c-3.3-0.2-6.5-0.7-9.5-2.1c-4.9-2.4-7.4-7.1-6.7-12.5c1.2-9.4,7.9-16.7,17.4-18.7
	c4.2-0.9,8.5-1.1,12.7,0c7.9,2,11.7,8.2,9.7,16.1c-2.2,8.9-8.1,14-16.7,16.3C225.2,79.8,222.9,80,220.6,80.3z M221.5,74.3
	c2.8-0.1,5.4-0.8,7.7-2.4c4.2-3,6.2-7.2,6.4-12.3c0.1-4.3-2.5-7.2-6.6-7.7c-3-0.4-5.9,0.2-8.5,1.8c-5,3.2-7.3,8-7.3,13.8
	c0,3.3,1.9,5.5,5.1,6.3C219.4,74,220.5,74.1,221.5,74.3z"/>
<path class="st0" d="M63.4,79.9c-3.2-0.1-6.2-0.6-9.1-1.9c-5-2.3-7.5-7.1-6.9-12.6c1.1-9.5,8.2-16.5,17.8-18.5
	c4.6-0.9,9.3-1,13.8,0.7c6.3,2.4,8.8,7.6,7.9,13.9c-1.4,9.1-8.4,15.7-17.5,17.6C67.4,79.5,65.4,79.6,63.4,79.9z M70,51.7
	c-2.6,0.1-5.2,0.9-7.3,2.4c-4.5,3.2-6.5,7.6-6.6,13c0,3.3,1.9,5.7,5.1,6.5c3.5,0.8,6.9,0.4,10-1.5c4.7-2.9,6.9-7.4,6.9-12.8
	c0-3.5-1.9-6.1-5.1-7C72,52,71,51.9,70,51.7z"/>
<path class="st0" d="M139,65c-0.3,3.8,0.7,6.9,3.9,9.1c2.4,1.7,5.2,2.4,8,2.6c2.7,0.2,5.4,0.1,8.2,0.1c0.5,0,0.9,0,1.5,0.2
	c-0.9,0.5-1.8,1-2.8,1.5c-6.5,2.8-13.1,3.1-19.7,0.1c-5.8-2.7-8.4-8-7.4-14.4c1.3-8.5,7.6-15.2,17.1-17.2c4.3-0.9,8.6-1.1,12.8,0.2
	c2.8,0.8,5.1,2.3,5.9,5.3c1,3.5,0,6.5-2.6,8.9c-2.6,2.4-5.9,3.5-9.4,4.1C149.6,66.2,146,66.1,139,65z M140.1,60.2
	c3.8,0.7,7.5,0.9,11.3,0.4c2-0.3,3.9-0.7,5.5-1.9c1.6-1.1,2.3-2.7,1.9-4.5c-0.4-1.8-1.8-2.5-3.4-2.7c-4.5-0.7-8.5,0.5-11.8,3.6
	C142,56.5,140.9,58.2,140.1,60.2z"/>
<path class="st0" d="M8.9,77.9c0.4-1.6,0.8-3.2,1.2-4.7c2.5,0.3,4.9,0.6,7.3,0.8c3.9,0.3,7.7,0.5,11.5-0.5c1.2-0.3,2.4-0.8,3.3-1.5
	c0.7-0.5,1.3-1.3,1.6-2.2c0.7-1.7,0.1-3.1-1.6-3.7c-2-0.7-4.1-1-6.1-1.4s-4-0.6-6-1.2c-5.2-1.6-6.6-7-3.1-11.1
	c2.2-2.6,5.1-3.8,8.2-4.6c5.3-1.4,10.6-1.4,16-1.1c2.1,0.2,4.3,0.4,6.6,0.7c-0.6,1.5-1.1,3-1.6,4.4C46.3,52,46,52,45.7,52
	c-2.2-0.1-4.4-0.3-6.7-0.3c-3.8,0-7.7,0-11.4,1.2c-0.7,0.2-1.4,0.5-2,1c-1.9,1.3-1.7,3.5,0.4,4.3c1.6,0.6,3.3,0.9,5,1.2
	c2,0.4,4.1,0.7,6.2,1.2c5.2,1.4,7.2,4.5,5.5,10.3c-1,3.2-3.3,5.3-6.3,6.6c-3.5,1.6-7.3,2.1-11.1,2.3C20,80,14.7,79.5,9.5,78.2
	C9.3,78.1,9.2,78,8.9,77.9z"/>
<path class="st0" d="M208.4,35.5c0.4-1.6,0.8-3.1,1.2-4.7c0.5-1.7,1-3.4,1.5-5.3c-3-0.4-6-0.8-8.9-1.2c0-0.1-0.1-0.1-0.1-0.2
	c2.9-1.6,5.8-3.3,8.7-5c-1.2-2.9-2.4-5.7-3.7-8.8c2.8,1.3,5.5,2.5,8.3,3.8c1.5-3.2,3-6.3,4.7-9.7c0.5,3.4,0.9,6.6,1.3,9.9
	c2.8-1,5.6-1.9,8.3-2.9c0.3-0.1,0.6-0.1,0.9-0.1l0,0c-1.8,2.3-3.5,4.6-5.3,6.9c-0.3,0.4-0.7,0.8-1,1.3c2.4,1.8,4.7,3.6,7.2,5.6
	c-3.3,0.3-6.4,0.5-9.6,0.7c-0.2,3.3-0.3,6.6-0.5,9.9c-0.1,0-0.1,0.1-0.2,0.1c-1.7-2.4-3.4-4.8-5.2-7.3c-0.8,0.7-1.6,1.5-2.4,2.2
	C211.9,32.3,210.2,33.8,208.4,35.5C208.4,35.4,208.4,35.5,208.4,35.5z"/>
<path class="st1" d="M185.8,58.7c2.2-2,4.4-3.9,6.5-6c5.2-5,10.1-10.3,14.8-15.8c0.2-0.2,0.4-0.4,0.7-0.5c-0.1,0.4-0.1,0.7-0.3,1.1
	c-3.5,9.9-8.7,18.8-16.4,26c-0.2,0.2-0.4,0.4-0.5,0.5c-1.9,1.5-3.9,3.1-5.8,4.6c-2.3,1.3-4.6,2.7-7,3.9c-4.7,2.3-9.8,3.7-15.1,4
	c-0.5,0-0.9,0.1-1.4,0.1c-0.1,0-0.1-0.1-0.3-0.2c0.7-0.4,1.4-0.8,2.1-1.2c5.9-3.4,11.4-7.3,16.7-11.6c0.1-0.1,0.3-0.3,0.4-0.4
	C182.2,61.8,184,60.3,185.8,58.7z"/>
<path class="st0" d="M184.9,68.8c1.9-1.5,3.9-3.1,5.8-4.6c4.7,5.1,9.4,10.2,14.2,15.4c-0.4,0-0.6,0.1-0.9,0.1c-2.8,0-5.5,0-8.3,0
	c-0.5,0-1.1-0.2-1.4-0.6C191.1,75.6,188,72.2,184.9,68.8z"/>
<path class="st0" d="M185.8,58.7c-1.8,1.5-3.6,3.1-5.5,4.6c-2.7-3.7-5.5-7.4-8.2-11.1c-1.1-1.5-2.1-3.1-3.1-4.7
	c-0.2-0.3-0.3-0.6-0.6-1c2.5,0,4.8,0,7.1,0c0.2,0,0.5,0.2,0.7,0.4C179.4,50.9,182.6,54.8,185.8,58.7z"/>
<path class="st0" d="M208.4,35.4C208.4,35.5,208.4,35.5,208.4,35.4C208.4,35.5,208.3,35.5,208.4,35.4
	C208.4,35.5,208.4,35.5,208.4,35.4C208.4,35.5,208.4,35.4,208.4,35.4z"/>
<path class="st0" d="M230.7,11.2v-0.1h0.1C230.8,11.2,230.8,11.2,230.7,11.2L230.7,11.2z"/>
</svg>
