<?xml version="1.0" encoding="utf-8"?>
<!-- Generator: Adobe Illustrator 21.0.0, SVG Export Plug-In . SVG Version: 6.00 Build 0)  -->
<svg version="1.1" id="Camada_1" xmlns="http://www.w3.org/2000/svg" xmlns:xlink="http://www.w3.org/1999/xlink" x="0px" y="0px"
	 viewBox="0 0 250.8 250.9" style="enable-background:new 0 0 250.8 250.9;" xml:space="preserve">
<style type="text/css">
	.st0{fill:#838034;}
	.st1{fill:#CAC48C;}
	.st2{fill:#C6C3A6;}
	.st3{fill:#928F57;}
	.st4{fill:#FCFCF9;}
	.st5{fill:#858239;}
	.st6{fill:#848136;}
	.st7{fill:#858238;}
	.st8{fill:#848137;}
	.st9{fill:#848138;}
	.st10{fill:#848237;}
	.st11{fill:#D9412D;}
	.st12{fill:#0C9954;}
	.st13{fill:#FAFAF0;}
	.st14{fill:#F8F7F2;}
	.st15{fill:#FCFCFA;}
	.st16{fill:#F8F8F0;}
	.st17{fill:#FAF9F3;}
</style>
<g>
	<g>
		<path class="st0" d="M2.5,0.8c82.8,0,165.5,0,248.3,0c0,83.1,0,166.1,0,249.2c-79.9,0-159.9,0-239.8,0c-3.1,0-6.2-0.1-9.3-0.1
			c0-1.1,0-2.2,0-3.2c1.1,0,2.1,0,3.2,0c0.3,0.1,0.6,0.2,0.9,0.3c1.7,0.4,3.4,1.2,5,1.2c76.8,0.1,153.6,0.1,230.4,0c1,0,2,0,3,0
			c2.7,0.1,3.8-1.4,3.9-3.9c0-1.3,0-2.5,0-3.8c0-19.3,0-38.7,0-58c0-57.3,0-114.6,0-172c0-1.8-0.7-3.7-1.1-5.5
			c-0.2,0-0.3-0.2-0.3-0.4c-0.6-0.4-1.1-1.2-1.6-1.2c-2.2,0.1-4.4,0.6-6.6,0.6c-75.8,0-151.7,0-227.5,0c-2.1,0-4.1,0.2-6.9,0.3
			c0,2.7,0,4.9,0,7.1c0,53.2,0,106.5,0,159.7c0,22.7,0,45.5,0,68.2c0,1.6-0.1,3.1-0.2,4.7c-0.5,0-0.9,0-1.4,0c0-1.7,0-3.5,0-5.2
			c0-72.7,0-145.4,0-218.2c0-2.1-0.5-4.1-0.7-6.2c0-1.4,0-2.8,0-4.2C1.8,10.1,2,10,1.9,9.9c0-0.2-0.1-0.4-0.2-0.6c0-0.6,0-1.1,0-1.7
			c0-1.1,0-2.3,0-3.4c0-0.5,0-1.1,0-1.6C2,2,2.3,1.4,2.5,0.8z"/>
		<path class="st1" d="M1.8,2.6c0,0.5,0,1.1,0,1.6c0,1.1,0,2.3,0,3.4c0,0.6,0,1.1,0,1.7c0,0.3,0,0.6,0,0.9c0,1.4,0,2.8,0,4.2
			c0,1.5-0.1,3.1-0.1,4.6c0,74.5,0,148.9,0,223.4c0,1.4,0.1,2.8,0.1,4.2c0,1.1,0,2.2,0,3.2c0,0.3,0,0.7,0,1
			c-0.3-0.1-0.8-0.3-0.8-0.4c-0.1-1.1,0-2.3,0-3.4c0-80.8,0-161.6,0.1-242.4c0-1.2-1-2.9,0.8-3.8C1.7,1.4,1.8,2,1.8,2.6z"/>
		<path class="st2" d="M1.7,250.8c0-0.3,0-0.7,0-1c3.1,0,6.2,0.1,9.3,0.1c79.9,0,159.9,0,239.8,0c-0.1,0.3-0.3,0.8-0.4,0.8
			c-1.1,0.1-2.3,0-3.4,0C165.3,250.8,83.5,250.8,1.7,250.8z"/>
		<path class="st3" d="M1.8,2.6c0-0.6-0.1-1.2-0.1-1.7c0.3,0,0.6,0,0.8,0C2.3,1.4,2,2,1.8,2.6z"/>
		<path class="st4" d="M5.9,247c-0.3-0.1-0.6-0.2-0.9-0.3c0-1.8-0.1-3.7-0.1-5.5c0-74.6,0-149.1,0-223.7c0-3.1,0-6.2,0.1-9.3
			C5,7.1,5.2,6,5.4,4.6c80.6,0,161,0,241.3,0c0,0.2,0.1,0.4,0.3,0.4c0,1.3-0.1,2.5-0.1,3.8c0,77.2,0,154.5,0,231.7
			c0,1.9,0,3.8,0,6.2c-2.4,0-4.2,0-6,0c-75.5,0-151.1,0-226.6,0C11.5,246.8,8.7,246.9,5.9,247z M54.2,211.3
			c10.6-3,16.5-11.9,14.1-28.9c-5.6,0-11.1,0-17.4,0c0,3.7,0.2,7.2,0,10.7c-0.2,3.3-1.8,4.8-4.7,4.9c-3.1,0.2-4.9-1.3-5.4-4.6
			c-0.2-1.2-0.2-2.5-0.2-3.8c0-12.6,0-25.1,0-37.7c0-1.5,0-3.1,0.3-4.6c0.7-3.5,3.8-5.2,7.1-3.8c2.3,0.9,2.9,2.9,3,5.2
			c0.1,2.8,0.2,5.5,0.3,8.3c6,0,11.6,0,17.7,0c-0.3-4.2-0.3-8.2-1-12c-1.5-7.9-6.3-13.2-14.3-14.9c-3.5-0.8-7.3-0.9-10.9-0.7
			c-12.5,0.9-19.6,8.2-19.9,20.8c-0.3,13.7-0.3,27.4,0,41.1c0.2,9.3,4.3,16.6,13.7,19.8c0.5,0.2,0.9,0.6,1.4,0.8
			c-2,6-0.5,12.1-0.8,18.3c6.2,0,12,0,18.1,0c0-5.7,0-11.2-0.1-16.7C55.4,212.7,54.6,212,54.2,211.3z M38.1,40.6
			c-0.6,0.3-1.2,0.7-1.9,0.9c-6.7,2.4-10.6,7.2-11.9,14.1c-1.5,8.6,0.5,16.2,6.9,22.5c5.4,5.2,10.6,10.6,15.7,16
			c1.6,1.7,3.1,3.7,4.2,5.8c1.2,2.4,0.9,5-0.9,7.1c-1.7,2-4,2.1-6.2,1.4c-2.6-0.9-3.3-3.2-3.4-5.8c-0.1-1.4-0.2-2.7-0.3-4.1
			c-6,0-11.6,0-17.1,0c0,2.6-0.3,4.9,0,7c1.2,8.8,6.2,14.3,14.8,16.4c6.5,1.6,12.9,1.3,19.1-1.1c5.3-2,9.3-5.6,11-11
			c2.6-8.4,2.1-16.6-3.7-23.6c-4.3-5.2-9.4-9.7-14.1-14.6c-2.3-2.3-4.8-4.5-6.7-7c-1.2-1.6-1.9-3.8-2.1-5.8
			c-0.3-3.1,1.8-5.2,4.6-5.5c2.6-0.2,4.8,1.5,5.4,4.3c0.3,1.5,0.4,3,0.6,4.6c5.6,0,10.9,0,16.1,0c1.8-9.7-3-19.7-12.9-21.7
			c-0.4-0.1-0.7-0.4-1-0.7c0.4-0.4,1.1-0.7,1.1-1.1c0.1-5.7,0-11.4,0-17.6c-6.5,0.5-12.6-0.6-18.8,0.7c0,5.4-0.1,10.5,0.1,15.5
			C36.6,38.6,37.5,39.6,38.1,40.6z M130.3,41.1c0,27.4,0,54,0,80.7c5.8,0,11.2,0,17.2,0c0-11.3,0-22.3,0-33.3c7.4-0.2,9.3,1.5,9.6,8
			c0.1,1.3,0,2.5,0.1,3.8c0.1,5.5,0.1,11,0.3,16.5c0.1,1.7,0.6,3.5,0.9,5c6.1,0,11.7,0,16.9,0c-0.2-4.3-0.6-8.2-0.7-12.1
			c-0.1-4.5-0.1-9,0-13.5c0-7.4-1.5-14-8.7-18.5c7.6-3.2,9.3-9.3,9.2-16.4c0-1.7-0.1-3.4-0.3-5.1c-1-9-5.7-13.9-14.7-14.5
			c-7.3-0.5-14.7-0.4-22-0.5C135.6,41,133.1,41.1,130.3,41.1z M183.9,210.9c8.5,0,16.5,0,24.5,0c1.7,0,3.4-0.2,5-0.5
			c9.7-1.6,15.1-6.9,15.3-16.6c0.4-15.8,0.3-31.6-0.1-47.4c-0.3-10.1-5.3-15.1-15.2-15.7c-9.4-0.6-18.9-0.4-28.3-0.6
			c-0.4,0-0.8,0.3-1.3,0.5C183.9,157.1,183.9,183.8,183.9,210.9z M228.8,81.1c0.1,0,0.1,0,0.2,0c0-6.3,0-12.7,0-19
			c0-1.1-0.1-2.3-0.2-3.4c-1-10.2-6.7-16.9-16.8-18.4c-4.5-0.7-9.3-0.4-13.8,0.4c-8.6,1.5-13.3,7.5-15,15.8c-0.5,2.5-0.7,5-0.7,7.6
			c-0.1,11.1-0.1,22.3,0,33.4c0,2.8,0.2,5.6,0.7,8.4c1,5.8,3.5,10.9,8.8,13.8c8.8,4.7,17.9,4.7,26.8,0.5c6.8-3.2,9.5-9.5,9.9-16.6
			C229.1,96,228.8,88.5,228.8,81.1z M78.5,129.7c0.1,27.6,0,54.3,0,80.9c6.2,0,11.6,0,17.4,0c0-11.3,0-22.3,0-33.2
			c7-0.6,9.4,1.3,9.6,7.7c0.3,6.3,0.1,12.7,0.2,19c0.1,2.2,0.5,4.3,0.8,6.6c6.2,0,11.8,0,17.2,0c-0.3-4.1-0.6-8-0.7-11.9
			c-0.1-4.5-0.1-9,0-13.5c0.1-7.5-1.3-14.4-8.8-18.8c7.2-3.1,9.3-8.8,9.1-15.7c-0.1-2,0-4-0.2-5.9c-0.8-8.4-5.1-13.5-13.5-14.3
			C99.6,129.8,89.4,130,78.5,129.7z M122,81.2C122,81.2,122,81.2,122,81.2c0-6.8,0.1-13.5-0.1-20.3c-0.4-11.6-6.2-18.7-16.8-20.7
			c-2.6-0.5-5.3-0.4-8-0.4c-12.8,0.2-21,7.5-21.4,20.2c-0.5,14.1-0.5,28.2,0,42.3c0.4,11.4,6.4,18.1,17,20.1
			c5.1,1,10.4,0.9,15.5-0.7c6.9-2.2,11.1-7,12.8-13.9c0.6-2.7,0.9-5.6,1-8.4C122.1,93.3,122,87.3,122,81.2z M174,210.8
			c0-5.1,0-9.8,0-15c-7.4,0-14.5,0-21.8,0c0-6.4,0-12.4,0-18.8c6.4,0,12.5,0,18.5,0c0-5.2,0-9.9,0-15c-6.4,0-12.4,0-18.5,0
			c0-5.8,0-11.2,0-17c7.2,0,14.1,0,21.1,0c0-5.1,0-9.8,0-14.7c-13,0-25.8,0-38.6,0c0,27,0,53.7,0,80.5
			C148,210.8,160.8,210.8,174,210.8z"/>
		<path class="st3" d="M5.9,247c2.8-0.1,5.6-0.2,8.4-0.2c75.5,0,151.1,0,226.6,0c1.8,0,3.6,0,6,0c0-2.4,0-4.3,0-6.2
			c0-77.2,0-154.5,0-231.7c0-1.3,0.1-2.5,0.1-3.8c0.4,1.8,1.1,3.7,1.1,5.5c0.1,57.3,0,114.6,0,172c0,19.3,0,38.7,0,58
			c0,1.3,0,2.5,0,3.8c-0.1,2.5-1.2,4-3.9,3.9c-1,0-2,0-3,0c-76.8,0-153.6,0-230.4,0C9.3,248.2,7.6,247.4,5.9,247z"/>
		<path class="st3" d="M246.7,4.6c-80.3,0-160.7,0-241.3,0C5.2,6,5,7.1,4.9,8.1c-0.1,3.1-0.1,6.2-0.1,9.3c0,74.6,0,149.1,0,223.7
			c0,1.8,0,3.7,0.1,5.5c-1.1,0-2.1,0-3.2,0c0-1.4-0.1-2.8-0.1-4.2c0-74.5,0-148.9,0-223.4c0-1.5,0.1-3.1,0.1-4.6
			c0.2,2.1,0.7,4.1,0.7,6.2c0,72.7,0,145.4,0,218.2c0,1.7,0,3.5,0,5.2c0.5,0,0.9,0,1.4,0c0.1-1.6,0.2-3.1,0.2-4.7
			c0-22.7,0-45.5,0-68.2c0-53.2,0-106.5,0-159.7c0-2.2,0-4.4,0-7.1C6.8,4.3,8.9,4.1,11,4.1c75.8,0,151.7,0,227.5,0
			c2.2,0,4.4-0.5,6.6-0.6C245.6,3.4,246.2,4.2,246.7,4.6z"/>
		<path class="st3" d="M1.8,7.6c0-1.1,0-2.3,0-3.4C1.8,5.4,1.8,6.5,1.8,7.6z"/>
		<path class="st3" d="M1.8,10.2c0-0.3,0-0.6,0-0.9c0.1,0.2,0.1,0.4,0.2,0.6C2,10,1.8,10.1,1.8,10.2z"/>
		<path class="st5" d="M130.3,41.1c2.8,0,5.3,0,7.8,0c7.3,0.1,14.7,0,22,0.5c9,0.7,13.7,5.6,14.7,14.5c0.2,1.7,0.2,3.4,0.3,5.1
			c0.2,7.1-1.6,13.2-9.2,16.4c7.2,4.4,8.7,11.1,8.7,18.5c0,4.5-0.1,9,0,13.5c0.1,3.9,0.4,7.8,0.7,12.1c-5.3,0-10.8,0-16.9,0
			c-0.3-1.5-0.9-3.3-0.9-5c-0.2-5.5-0.2-11-0.3-16.5c0-1.3,0-2.5-0.1-3.8c-0.3-6.5-2.2-8.2-9.6-8c0,11,0,22.1,0,33.3
			c-6,0-11.4,0-17.2,0C130.3,95.1,130.3,68.4,130.3,41.1z M147.7,73.4c7.2,0.9,9.4-1,9.5-7.7c0-1.3,0-2.5,0-3.8
			c-0.2-6.4-3.1-8.6-9.5-6.9C147.7,61.2,147.7,67.3,147.7,73.4z"/>
		<path class="st6" d="M183.9,210.9c0-27.1,0-53.7,0-80.3c0.6-0.2,0.9-0.5,1.3-0.5c9.4,0.1,18.9,0,28.3,0.6
			c9.9,0.6,14.9,5.7,15.2,15.7c0.4,15.8,0.4,31.6,0.1,47.4c-0.2,9.7-5.6,15.1-15.3,16.6c-1.7,0.3-3.4,0.5-5,0.5
			C200.4,210.9,192.4,210.9,183.9,210.9z M201.5,197.1c8,1.2,9.8-0.3,9.8-7.9c0-10.6,0-21.2,0-31.8c0-2.8,0.1-5.7-0.1-8.5
			c-0.2-3.6-1.2-4.9-4.7-5.4c-1.6-0.2-3.2,0-5,0C201.5,161.7,201.5,179.4,201.5,197.1z"/>
		<path class="st7" d="M228.8,81.1c0,7.5,0.3,15-0.1,22.4c-0.4,7.1-3.1,13.4-9.9,16.6c-8.9,4.2-18.1,4.2-26.8-0.5
			c-5.3-2.9-7.8-8-8.8-13.8c-0.5-2.8-0.7-5.6-0.7-8.4c-0.1-11.1-0.1-22.3,0-33.4c0-2.5,0.2-5.1,0.7-7.6c1.7-8.3,6.4-14.2,15-15.8
			c4.5-0.8,9.3-1.1,13.8-0.4c10,1.5,15.7,8.2,16.8,18.4c0.1,1.1,0.2,2.2,0.2,3.4c0,6.3,0,12.7,0,19C229,81.1,228.9,81.1,228.8,81.1z
			 M211.1,81.7C211.1,81.7,211.1,81.7,211.1,81.7c0-6.5,0-13,0-19.4c0-1.4,0-2.8-0.2-4.2c-0.5-2.9-2.5-4.4-5.4-4.3
			c-2.7,0.1-4.7,1.7-4.7,4.5c-0.1,15.3-0.1,30.7,0,46c0,3,2.1,4.4,5.1,4.4c3.3,0,5-1.8,5.1-5.9C211.2,95.8,211.1,88.8,211.1,81.7z"
			/>
		<path class="st6" d="M78.5,129.7c10.9,0.3,21.1,0.1,31.2,1c8.4,0.7,12.6,5.9,13.5,14.3c0.2,2,0.2,3.9,0.2,5.9
			c0.2,6.9-1.9,12.5-9.1,15.7c7.5,4.4,8.8,11.3,8.8,18.8c0,4.5-0.1,9,0,13.5c0.1,3.9,0.5,7.8,0.7,11.9c-5.4,0-11,0-17.2,0
			c-0.3-2.3-0.7-4.5-0.8-6.6c-0.2-6.3,0-12.7-0.2-19c-0.3-6.4-2.7-8.2-9.6-7.7c0,10.9,0,21.9,0,33.2c-5.8,0-11.2,0-17.4,0
			C78.5,184,78.6,157.3,78.5,129.7z M96.1,162.5c7.3,0.7,9.6-1.2,9.7-8.1c0-1,0-2,0-2.9c-0.1-6.7-2.7-8.8-9.7-7.6
			C96.1,150,96.1,156.3,96.1,162.5z"/>
		<path class="st8" d="M122,81.2c0,6.1,0.1,12.1,0,18.2c-0.1,2.8-0.3,5.7-1,8.4c-1.7,7-5.9,11.7-12.8,13.9
			c-5.1,1.6-10.3,1.7-15.5,0.7c-10.6-2-16.6-8.7-17-20.1c-0.5-14.1-0.5-28.2,0-42.3c0.5-12.7,8.6-20,21.4-20.2c2.7,0,5.4-0.1,8,0.4
			c10.6,2,16.4,9.1,16.8,20.7C122.1,67.7,122,74.4,122,81.2C122,81.2,122,81.2,122,81.2z M104.2,81.4c0-6.3,0-12.7,0-19
			c0-1.4-0.1-2.8-0.3-4.2c-0.6-3.1-2.3-4.4-5.3-4.4c-2.7,0-4.2,1.4-4.8,4.4c-0.3,1.4-0.4,2.8-0.4,4.2c0,12.8,0,25.7,0,38.5
			c0,1.4,0.2,2.8,0.5,4.2c0.5,2.7,2.3,3.7,4.9,3.7c2.6,0,4.4-1.1,4.9-3.7c0.3-1.5,0.4-3.1,0.5-4.6C104.2,94.1,104.2,87.7,104.2,81.4
			z"/>
		<path class="st9" d="M54.2,40c0.3,0.2,0.6,0.6,1,0.7c10,2,14.7,12,12.9,21.7c-5.2,0-10.5,0-16.1,0c-0.2-1.6-0.2-3.1-0.6-4.6
			c-0.6-2.9-2.8-4.5-5.4-4.3c-2.9,0.2-5,2.4-4.6,5.5c0.2,2,0.9,4.2,2.1,5.8c1.9,2.6,4.4,4.7,6.7,7c4.7,4.8,9.8,9.4,14.1,14.6
			c5.9,7,6.3,15.2,3.7,23.6c-1.7,5.4-5.7,9-11,11c-6.2,2.3-12.7,2.7-19.1,1.1c-8.6-2.1-13.6-7.6-14.8-16.4c-0.3-2.2,0-4.5,0-7
			c5.6,0,11.1,0,17.1,0c0.1,1.3,0.2,2.7,0.3,4.1c0.1,2.5,0.8,4.9,3.4,5.8c2.2,0.7,4.5,0.6,6.2-1.4c1.9-2.1,2.1-4.7,0.9-7.1
			c-1.1-2.1-2.6-4.1-4.2-5.8c-5.2-5.4-10.4-10.8-15.7-16c-6.4-6.3-8.4-13.8-6.9-22.5c1.2-6.9,5.1-11.7,11.9-14.1
			c0.6-0.2,1.2-0.6,1.9-0.9C43.5,40.4,48.8,40.2,54.2,40z"/>
		<path class="st9" d="M38.1,211.8c-0.5-0.3-0.9-0.7-1.4-0.8c-9.5-3.2-13.5-10.4-13.7-19.8c-0.3-13.7-0.3-27.4,0-41.1
			c0.2-12.6,7.3-19.9,19.9-20.8c3.6-0.3,7.4-0.1,10.9,0.7c8,1.7,12.8,7,14.3,14.9c0.7,3.8,0.7,7.8,1,12c-6.1,0-11.7,0-17.7,0
			c-0.1-2.8-0.2-5.6-0.3-8.3c-0.1-2.2-0.7-4.2-3-5.2c-3.3-1.3-6.4,0.3-7.1,3.8c-0.3,1.5-0.3,3.1-0.3,4.6c0,12.6,0,25.1,0,37.7
			c0,1.3,0,2.6,0.2,3.8c0.5,3.3,2.4,4.8,5.4,4.6c2.9-0.2,4.5-1.6,4.7-4.9c0.2-3.5,0-7,0-10.7c6.2,0,11.8,0,17.4,0
			c2.4,17-3.6,25.9-14.1,28.9c-1.2,0.2-2.4,0.5-3.7,0.5C46.4,211.8,42.2,211.8,38.1,211.8z"/>
		<path class="st10" d="M174,210.8c-13.2,0-26,0-39.2,0c0-26.8,0-53.5,0-80.5c12.8,0,25.6,0,38.6,0c0,4.9,0,9.6,0,14.7
			c-7.1,0-13.9,0-21.1,0c0,5.8,0,11.1,0,17c6.1,0,12.1,0,18.5,0c0,5.1,0,9.8,0,15c-6,0-12.1,0-18.5,0c0,6.5,0,12.4,0,18.8
			c7.3,0,14.4,0,21.8,0C174,201,174,205.7,174,210.8z"/>
		<path class="st11" d="M54.2,40c-5.4,0.2-10.8,0.4-16.1,0.6c-0.5-1-1.5-2-1.5-3.1c-0.2-5-0.1-10.1-0.1-15.5
			c6.3-1.3,12.3-0.2,18.8-0.7c0,6.1,0,11.9,0,17.6C55.3,39.3,54.6,39.6,54.2,40z"/>
		<path class="st12" d="M38.1,211.8c4.1,0,8.3,0.1,12.4,0c1.2,0,2.4-0.3,3.7-0.5c0.4,0.7,1.2,1.4,1.2,2.1c0.1,5.5,0.1,10.9,0.1,16.7
			c-6.2,0-11.9,0-18.1,0C37.6,223.8,36.1,217.8,38.1,211.8z"/>
		<path class="st13" d="M147.7,73.4c0-6.1,0-12.2,0-18.4c6.4-1.7,9.4,0.5,9.5,6.9c0,1.3,0,2.5,0,3.8
			C157.1,72.4,154.8,74.3,147.7,73.4z"/>
		<path class="st14" d="M201.5,197.1c0-17.7,0-35.4,0-53.6c1.8,0,3.4-0.2,5,0c3.4,0.5,4.5,1.8,4.7,5.4c0.1,2.8,0.1,5.6,0.1,8.5
			c0,10.6,0,21.2,0,31.8C211.2,196.8,209.5,198.3,201.5,197.1z"/>
		<path class="st15" d="M211.1,81.7c0,7,0.1,14.1,0,21.1c-0.1,4.1-1.7,5.8-5.1,5.9c-3,0-5.1-1.3-5.1-4.4c-0.1-15.3-0.1-30.7,0-46
			c0-2.8,2-4.3,4.7-4.5c2.9-0.1,4.9,1.4,5.4,4.3c0.2,1.4,0.2,2.8,0.2,4.2C211.1,68.8,211.1,75.2,211.1,81.7
			C211.1,81.7,211.1,81.7,211.1,81.7z"/>
		<path class="st16" d="M96.1,162.5c0-6.2,0-12.5,0-18.7c6.9-1.2,9.6,0.9,9.7,7.6c0,1,0,2,0,2.9C105.6,161.3,103.4,163.2,96.1,162.5
			z"/>
		<path class="st17" d="M104.2,81.4c0,6.3,0,12.7,0,19c0,1.5-0.2,3.1-0.5,4.6c-0.5,2.6-2.4,3.7-4.9,3.7c-2.6,0-4.4-1-4.9-3.7
			c-0.3-1.4-0.5-2.8-0.5-4.2c0-12.8,0-25.7,0-38.5c0-1.4,0.1-2.8,0.4-4.2c0.6-3,2.1-4.3,4.8-4.4c3,0,4.7,1.3,5.3,4.4
			c0.3,1.4,0.3,2.8,0.3,4.2C104.2,68.7,104.2,75,104.2,81.4z"/>
	</g>
</g>
</svg>
