<?xml version="1.0" encoding="utf-8"?>
<!-- Generator: Adobe Illustrator 21.0.0, SVG Export Plug-In . SVG Version: 6.00 Build 0)  -->
<svg version="1.1" id="Camada_1" xmlns="http://www.w3.org/2000/svg" xmlns:xlink="http://www.w3.org/1999/xlink" x="0px" y="0px"
	 viewBox="0 0 250 72.7" style="enable-background:new 0 0 250 72.7;" xml:space="preserve">
<style type="text/css">
	.st0{fill:#ED1C24;}
	.st1{fill:#221E51;}
	.st2{fill:#231E52;}
	.st3{fill:#F37456;}
	.st4{fill:#2A2456;}
	.st5{fill:#EF392C;}
	.st6{fill:#F58365;}
	.st7{fill:#F16145;}
	.st8{fill:#F69679;}
	.st9{fill:#F8A286;}
	.st10{fill:#F04B35;}
	.st11{fill:#FBC5B0;}
	.st12{fill:#F9B299;}
	.st13{fill:#F1573D;}
	.st14{fill:#FDDBCC;}
	.st15{fill:#FCCFBD;}
	.st16{fill:#DEDDE4;}
	.st17{fill:#C8C7D4;}
	.st18{fill:#FBFCFC;}
	.st19{fill:#F6F8F9;}
	.st20{fill:#B5B4C5;}
	.st21{fill:#A5A3B8;}
	.st22{fill:#9492AB;}
	.st23{fill:#827F9D;}
	.st24{fill:#6F6C8E;}
	.st25{fill:#5D5A80;}
	.st26{fill:#4D4A73;}
	.st27{fill:#3D3A67;}
</style>
<g>
	<path class="st0" d="M48.5,50.1c-0.3,0.3-0.5,0.6-0.8,0.9c-3.7,3.1-7.9,5.2-12.6,6.3c-2.6,0.6-5.3,0.8-8,0.6
		c-6.3-0.4-11.9-2.6-16.7-6.7c-5.3-4.4-8.7-10.1-9.9-16.8C-1.1,25.1,1.1,17,7.1,9.9c0.1-0.1,0.3-0.2,0.4-0.4c0.1,0,0.1,0,0.2,0
		c1.6-0.3,3.3-0.8,4.9-0.9c0.6-0.3,1.3-0.1,2-0.2c0.7-0.1,1.3,0,2-0.2c0.1,0,0.3,0,0.4,0c0.8,0.3,1.6,0.2,2.3,0.2
		c0.4,0,0.7,0.1,1.1,0.1c0.3,0,0.6,0.1,0.9,0.1c0.2,0,0.5,0,0.7,0.1c0.8,0.2,1.7,0.4,2.5,0.6c1.8,0.4,3.5,1,5.2,1.8
		c2.1,1,4.2,2.1,6.1,3.4c1,0.7,2,1.5,2.9,2.4c0.8,0.8,1.6,1.6,2.4,2.4c0.6,0.7,1.2,1.3,1.7,2c0.9,1.2,1.7,2.5,2.5,3.8
		c0.7,1.2,1.2,2.5,1.8,3.8c0.3,0.7,0.6,1.5,0.8,2.2c0.1,0.4,0.2,0.8,0.3,1.2c0.1,0.6,0.4,1.1,0.5,1.6c0.2,1,0.4,2,0.5,3
		c0.2,1.3,0.2,2.6,0.4,3.8c0.1,0.8-0.1,1.6-0.2,2.3c-0.1,0.8-0.1,1.7-0.2,2.6c-0.2,0.9-0.3,1.9-0.5,2.8C48.6,49,48.5,49.5,48.5,50.1
		z"/>
	<path class="st1" d="M163.3,42c0.5,0.6,1,1.1,1.4,1.7c0.5,0.6,1,1.1,1.5,1.7c0.5,0.6,0.9,1.1,1.4,1.7c0.5,0.6,0.9,1.2,1.4,1.8
		c0.4,0.6,0.9,1.1,1.3,1.7c0.5,0.6,0.9,1.2,1.3,1.8c0.4,0.6,0.8,1.2,1.3,1.7c0.4,0.6,0.9,1.2,1.3,1.8c0.4,0.6,0.8,1.1,1.2,1.8
		c-1,0.2-6.7,0.3-10.8,0.1c-0.2-0.3-0.4-0.6-0.7-0.9c-2.6-3.8-5.4-7.5-8.4-10.9c-0.2-0.3-0.5-0.5-0.7-0.8c-0.3,0-0.3,0.2-0.3,0.3
		c-0.1,0.1-0.1,0.3-0.1,0.4c-0.9,3.8-1.7,7.6-2.6,11.5c0,0.1-0.1,0.3-0.1,0.4c-0.9,0.1-7.5,0.2-8.7,0c0-0.2,0-0.4,0.1-0.6
		c2.8-12.2,5.6-24.4,8.4-36.5c0-0.2,0.1-0.4,0.2-0.6c0.1-0.9,0.8-1.4,1.7-1.4c0.5,0,1.1-0.1,1.6-0.1c1.8-0.1,3.7-0.2,5.5-0.4
		c0.1,0,0.1,0,0.2,0.1c0,0,0,0,0.1,0.1c0,0,0,0.1,0,0.1c0,0.1,0,0.2,0,0.3c-1.5,6.5-3,12.9-4.5,19.4c1.4,0.1,5.4-1.7,7.6-3.3
		c2.3-1.7,4-3.9,5.4-6.4c3.3,0,6.5,0,9.8,0c-0.4,1.4-2.1,4.1-3.8,6c-1.6,1.8-3.4,3.3-5.4,4.6C167.8,40.2,165.6,41.1,163.3,42z"/>
	<path class="st2" d="M185.3,46.4c-0.3,1.3-0.1,2.4,0.4,3.4c0.3,0.7,0.9,1.2,1.6,1.5c0.8,0.4,1.6,0.6,2.5,0.6c0.6,0,1.1,0,1.7,0
		c3.3,0,6.7,0,10,0c0.4,0,0.7,0,1.1,0c0,0.3,0,0.6-0.1,0.8c-0.3,1.2-0.6,2.3-0.8,3.5c-0.1,0.2-0.1,0.4-0.2,0.6
		c-0.2,0.5-0.6,0.8-1.1,0.9c-0.2,0-0.5,0-0.8,0c-3.6,0-7.2,0-10.8,0c-1.7,0-3.4-0.2-5-0.7c-4-1.2-6.5-3.9-7.1-8.5
		c-0.3-2.6-0.1-5.2,0.6-7.7c0.3-1,0.6-2.1,1-3.1c1.5-4.1,4.4-6.9,8.3-8.5c2.1-0.9,4.3-1.3,6.5-1.4c2.4-0.1,4.8-0.1,7.2,0.4
		c1.6,0.3,3.1,0.8,4.4,1.7c1.5,1,2.5,2.2,2.9,4c0.1,0.4,0.2,0.8,0.2,1.3c0.1,2-0.2,4-1,5.9c-0.9,2.2-2.4,3.7-4.7,4.5
		c-1.7,0.6-3.4,0.8-5.2,0.8c-2.3,0-4.7,0-7,0C188.5,46.4,187,46.4,185.3,46.4z M186.4,40.7c0.2,0,0.3,0.1,0.4,0.1c2.8,0,5.5,0,8.3,0
		c0.5,0,0.9-0.1,1.4-0.2c1.1-0.2,1.8-0.9,2.2-1.9c0.4-0.8,0.5-1.7,0.5-2.6c0-1.1-0.5-1.8-1.4-2.2c-0.6-0.2-1.2-0.4-1.8-0.4
		c-1-0.1-2-0.1-3,0c-2.4,0.2-4.2,1.3-5.4,3.4c-0.6,1-1,2.2-1.2,3.3C186.4,40.4,186.4,40.5,186.4,40.7z"/>
	<path class="st2" d="M92.4,24.6c-2.5,11.1-5,22.1-7.6,33.1c-0.2,0-0.3,0.1-0.4,0.1c-2.8,0-5.6,0-8.4,0c-0.1,0-0.2,0-0.4-0.1
		c0.3-1.9,0.8-3.7,1.2-5.6c0.4-1.8,0.8-3.6,1.2-5.5c0.4-1.9,0.8-3.7,1.3-5.6c0.4-1.8,0.8-3.6,1.3-5.5c0.4-1.9,0.9-3.7,1.3-5.6
		c0.4-1.8,0.9-3.6,1.2-5.5c-1.2,0-2.2,0-3.2,0c-1,0-2.1,0-3.1,0c-1,0-2,0-3,0c-1,0-2.1,0-3.2,0c0-0.2-0.1-0.3,0-0.4
		c0.4-1.8,0.8-3.5,1.2-5.2c0-0.1,0.1-0.3,0.1-0.4c0.1,0,0.2-0.1,0.3-0.1c11.1,0,22.2,0,33.3,0c0.1,0,0.1,0.1,0.2,0.1
		c0,0.1,0,0.2,0,0.3c-0.3,1.4-0.6,2.8-0.9,4.2c-0.3,1.1-0.8,1.5-1.9,1.6c-0.3,0-0.5,0-0.8,0c-2.9,0-5.8,0-8.6,0
		C93.2,24.6,92.9,24.6,92.4,24.6z"/>
	<path class="st2" d="M226.3,52.1c-0.4,2-0.8,3.9-1.3,5.7c-0.1,0-0.1,0.1-0.2,0.1c-2.8,0-5.5,0-8.3,0c-1.1,0-2.1-0.3-3.2-0.6
		c-2.9-1-5-3.2-5.2-6.9c-0.1-1.4,0.1-2.9,0.5-4.3c1.7-7.4,3.4-14.8,5.1-22.2c0-0.2,0.1-0.4,0.1-0.5c0.2-0.6,0.6-1,1.3-1.1
		c0.4,0,0.8-0.1,1.2-0.1c2.1-0.2,4.2-0.3,6.3-0.4c0,0,0.1,0,0.1,0.1c0.1,0.3,0,0.6-0.1,0.9c-0.4,1.6-0.8,3.1-1.1,4.7
		c-0.1,0.3-0.1,0.6-0.1,0.9c3.2,0,6.3,0,9.5,0c0,0.3-0.1,0.5-0.1,0.7c-0.2,1.1-0.5,2.3-0.7,3.4c-0.3,1.2-0.8,1.6-2,1.7
		c-0.3,0-0.6,0-0.9,0c-2,0-4,0-6,0c-0.4,0-0.7,0-1.1,0c-0.3,1.1-0.5,2.1-0.7,3.2c-0.7,3.1-1.4,6.2-2.1,9.2c-0.1,0.6-0.3,1.3-0.3,1.9
		c0,2.1,1.2,3.5,3.3,3.6c1.6,0.1,3.2,0,4.7,0C225.5,52.1,225.9,52.1,226.3,52.1z"/>
	<path class="st2" d="M139.7,52.1c-0.5,2-0.9,3.8-1.3,5.7c-0.3,0-0.5,0-0.7,0c-2.8,0-5.7,0-8.5,0c-2,0-3.9-0.2-5.8-0.8
		c-0.6-0.2-1.2-0.4-1.8-0.7c-3.1-1.5-4.7-4.1-5-7.5c-0.2-2.5,0.2-4.9,0.8-7.3c0.3-1.1,0.6-2.1,1-3.2c1.5-4.3,4.5-7.3,8.9-8.7
		c1.8-0.6,3.7-0.9,5.6-1.1c1.8-0.2,3.5-0.2,5.3-0.2c2.2,0,4.3,0,6.5,0c0.3,0,0.6,0,1,0c-0.3,1.3-0.5,2.5-1,3.6
		c-0.6,1.1-1.4,1.8-2.7,2c-0.6,0.1-1.2,0.2-1.8,0.2c-1.7,0-3.3,0-5,0c-1,0-2,0.2-3,0.4c-2,0.6-3.5,1.8-4.4,3.7
		c-1.2,2.6-1.8,5.3-2,8.1c-0.1,0.7,0,1.5,0.2,2.2c0.3,1.3,1,2.3,2.3,2.8c1,0.4,2,0.6,3,0.6c1.5,0,2.9,0,4.4,0c1.1,0,2.2,0,3.2,0
		C139,52.1,139.3,52.1,139.7,52.1z"/>
	<path class="st2" d="M108.7,57.8c-1.8,0.1-7.9,0.1-8.7-0.1c0.3-1.3,0.6-2.5,0.8-3.8c1.8-7.7,3.5-15.5,5.3-23.2
		c0.1-0.3,0.1-0.6,0.2-0.8c0.3-1,1-1.5,2.1-1.6c0.1,0,0.3,0,0.4,0c2,0,4,0,6,0c0.2,0,0.3,0,0.5,0.1
		C115.4,29.1,109.1,56.6,108.7,57.8z"/>
	<path class="st3" d="M13.6,4.4c0.9-0.7,1.9-1.2,3-1.6c0.3,0.5,0.8,0.5,1.2,0.5c0.8,0,1.6-0.1,2.4,0c1.2,0.1,2.5,0.5,3.7,0.6
		c1.2,0.1,2.3,0.5,3.4,0.8c1.4,0.3,2.7,0.9,4,1.4c1.8,0.7,3.6,1.6,5.3,2.7c2.5,1.5,4.7,3.5,6.9,5.4c0.2,0.1,0.3,0.3,0.4,0.5
		c0.1,0.2,0.2,0.4,0.4,0.5c1.1,1.1,2.1,2.4,3,3.6c2.3,3.1,4,6.4,5.2,10.1c0.7,2,1.2,4.1,1.5,6.2c0.2,1.4,0.4,2.8,0.4,4.3
		c0,0.5,0.2,1,0.3,1.5c0,0.1,0.2,0.2,0.3,0.3c-0.5,1.2-1.1,2.4-1.9,3.4c-0.1-0.1-0.2-0.2-0.2-0.2c0-0.5,0-1.1,0-1.6
		c0-0.4,0.1-0.8,0.1-1.2c0-0.8-0.1-1.5-0.2-2.2c-0.1-0.9-0.1-1.9-0.2-2.9c-0.2-1.1-0.4-2.3-0.6-3.4c-0.3-1.5-0.8-3-1.4-4.5
		c-0.4-1-0.8-2.1-1.3-3.1c-0.7-1.5-1.5-2.9-2.5-4.3c-1.4-2.1-2.9-4-4.6-5.8c-0.5-0.5-1.1-1-1.7-1.5c-1-1-2.2-1.8-3.4-2.7
		c-2.2-1.6-4.5-2.9-7.1-3.9c-2.4-0.9-5-1.6-7.5-2.1C22.2,5,21.5,5,20.8,4.9c-0.4-0.1-0.8-0.1-1.3-0.1c-0.8,0-1.6,0-2.4-0.1
		c-0.8-0.1-1.6,0.2-2.4,0.1c-0.3-0.1-0.6,0-0.9,0C13.7,4.7,13.6,4.5,13.6,4.4z"/>
	<path class="st4" d="M240.5,34.1c-1.1,0-2.2-0.2-3.3-0.6c-2.5-1.1-3.8-3-4-5.8c-0.1-1.8,0.3-3.5,1.2-5.1c1.3-2.6,3.5-4,6.4-4.5
		c1.2-0.2,2.4-0.2,3.5,0c3.4,0.5,5.9,2.8,5.7,6.9c-0.1,1.2-0.3,2.3-0.7,3.5c-1.1,3.1-3.4,4.8-6.5,5.4C242,34,241.2,34,240.5,34.1z
		 M240.7,32.4C240.7,32.4,240.7,32.4,240.7,32.4c0.3-0.1,0.6-0.1,0.9-0.1c3-0.2,4.9-1.7,5.9-4.5c0.3-1,0.6-1.9,0.6-2.9
		c0.1-2.7-1.2-4.5-3.7-5c-1-0.2-1.9-0.2-2.9-0.1c-2.4,0.3-4.2,1.3-5.3,3.5c-0.8,1.5-1.1,3.2-0.9,4.9c0.2,2.1,1.5,3.6,3.6,4.1
		C239.4,32.3,240,32.4,240.7,32.4z"/>
	<path class="st5" d="M48.5,50.1c0-0.5,0-1.1,0.2-1.6c0.2-0.9,0.3-1.9,0.5-2.8c0.1-0.9,0.1-1.7,0.2-2.6c0.1-0.8,0.3-1.6,0.2-2.3
		c-0.2-1.3-0.2-2.6-0.4-3.8c-0.1-1-0.3-2-0.5-3c-0.1-0.6-0.3-1.1-0.5-1.6c-0.1-0.4-0.2-0.8-0.3-1.2c-0.2-0.7-0.5-1.5-0.8-2.2
		c-0.6-1.3-1.1-2.6-1.8-3.8c-0.8-1.3-1.6-2.6-2.5-3.8c-0.5-0.7-1.1-1.4-1.7-2c-0.8-0.8-1.6-1.6-2.4-2.4c-0.9-0.9-1.9-1.6-2.9-2.4
		c-1.9-1.4-4-2.5-6.1-3.4c-1.7-0.8-3.4-1.3-5.2-1.8c-0.8-0.2-1.7-0.4-2.5-0.6c-0.2-0.1-0.5-0.1-0.7-0.1c-0.3,0-0.6-0.1-0.9-0.1
		c-0.4,0-0.7-0.1-1.1-0.1c-0.8,0-1.6,0.1-2.3-0.2c-0.1,0-0.3,0-0.4,0c-0.7,0.1-1.3,0.1-2,0.2c-0.7,0.1-1.4-0.1-2,0.2
		C11,8.7,9.4,9.2,7.7,9.5c-0.1,0-0.1,0-0.2,0C8,8.8,8.6,8.3,9.2,7.8c0.7,0,1.4,0,2.1-0.2c0.7-0.2,1.5-0.3,2.2-0.3
		c0.3,0,0.6-0.1,0.8-0.1c0.2,0,0.5-0.1,0.7-0.1c1.1,0,2.2,0,3.2,0c0.2,0,0.4,0,0.6,0.1c0.4,0,0.8,0.1,1.3,0.2c0.2,0,0.5,0,0.8,0
		c1.5,0.4,3.1,0.5,4.6,1c2.6,0.8,5.2,1.7,7.6,3.1c2.1,1.2,4,2.6,5.9,4.2c1.5,1.3,3,2.8,4.2,4.4c1.4,1.9,2.8,3.9,3.8,6
		c0.8,1.7,1.6,3.5,2.1,5.4c0.4,1.5,0.7,3.1,1,4.6c0.1,0.7,0.2,1.3,0.2,2c0.1,0.4,0.2,0.8,0.1,1.3c0,1.7,0.2,3.4-0.2,5
		c-0.2,0.9-0.1,1.8-0.3,2.7c-0.1,0.5-0.2,1.1-0.1,1.6C49.6,49.2,49.2,49.8,48.5,50.1z"/>
	<path class="st6" d="M55.2,41.1c-0.1-0.1-0.3-0.2-0.3-0.3c-0.1-0.5-0.3-1-0.3-1.5c0-1.4-0.2-2.8-0.4-4.3c-0.3-2.1-0.8-4.2-1.5-6.2
		c-1.2-3.6-2.9-7-5.2-10.1c-1-1.3-1.9-2.5-3-3.6c-0.2-0.1-0.3-0.3-0.4-0.5c-0.1-0.2-0.3-0.4-0.4-0.5c-2.2-1.9-4.4-3.9-6.9-5.4
		c-1.7-1-3.4-1.9-5.3-2.7c-1.3-0.5-2.7-1.1-4-1.4c-1.1-0.3-2.3-0.7-3.4-0.8c-1.2-0.1-2.5-0.4-3.7-0.6c-0.8-0.1-1.6,0-2.4,0
		c-0.5,0-0.9,0-1.2-0.5c0.8-0.5,1.7-0.9,2.6-1.1c0.1,0.3,0.4,0.5,0.8,0.5c0.7,0,1.3,0.1,2,0.2c1.3,0.2,2.5,0.4,3.8,0.7
		c3,0.7,5.8,1.7,8.6,3.1c1.1,0.6,2.1,1.2,3.2,1.8c1.9,1.1,3.6,2.4,5.2,3.9c1.8,1.6,3.5,3.4,5,5.3c1.7,2.3,3.3,4.7,4.5,7.4
		c0.8,1.8,1.5,3.5,2.1,5.4c0.7,2.5,1.3,5,1.4,7.7c0,0.4,0.1,0.8,0.5,1C56,39.5,55.7,40.3,55.2,41.1z"/>
	<path class="st7" d="M13.6,4.4c0,0.2,0.1,0.4,0.3,0.4c0.3,0,0.6,0,0.9,0c0.8,0.2,1.6-0.2,2.4-0.1c0.8,0.1,1.6,0,2.4,0.1
		c0.4,0,0.8,0.1,1.3,0.1C21.5,5,22.2,5,22.9,5.2c2.6,0.5,5.1,1.2,7.5,2.1c2.5,1,4.9,2.3,7.1,3.9c1.2,0.8,2.3,1.7,3.4,2.7
		c0.5,0.5,1.2,1,1.7,1.5c1.7,1.8,3.3,3.7,4.6,5.8c0.9,1.4,1.8,2.8,2.5,4.3c0.4,1,0.9,2,1.3,3.1c0.5,1.5,1.1,3,1.4,4.5
		c0.2,1.1,0.4,2.2,0.6,3.4c0.2,1,0.1,1.9,0.2,2.9c0.1,0.7,0.2,1.5,0.2,2.2c0,0.4-0.1,0.8-0.1,1.2c0,0.5,0,1.1,0,1.6
		c0,0.1,0.1,0.2,0.2,0.2c-0.3,0.5-0.7,1-1,1.5c-0.1-0.1-0.2-0.2-0.2-0.3c0-0.6,0-1.1,0-1.7c0-0.4,0.1-0.8,0.1-1.3c0-1.1,0-2.2,0-3.2
		c0-0.3,0-0.6-0.1-0.9C52,38.1,52,37.7,52,37.2c0-0.2,0-0.4,0-0.6c-0.2-1.2-0.4-2.4-0.7-3.6c-0.6-2.4-1.4-4.7-2.5-7
		c-0.7-1.4-1.4-2.7-2.2-4.1c-1-1.5-2-3-3.2-4.3c-1.6-1.8-3.3-3.5-5.3-4.9c-1.2-0.9-2.5-1.8-3.9-2.5c-2.4-1.2-4.8-2.4-7.4-3.1
		C24.6,6.5,22.3,6,20,5.8c-0.1,0-0.3,0-0.4,0c-0.5-0.2-1-0.2-1.5-0.2c-0.9,0-1.7,0-2.6,0c-0.3,0-0.7-0.1-1,0c-1,0.3-2,0.2-3,0.1
		C12.1,5.2,12.9,4.8,13.6,4.4z"/>
	<path class="st8" d="M56.2,38.7c-0.4-0.2-0.5-0.6-0.5-1C55.6,35,55,32.5,54.3,30c-0.5-1.9-1.3-3.6-2.1-5.4
		c-1.2-2.7-2.8-5.1-4.5-7.4c-1.5-2-3.2-3.7-5-5.3C41.1,10.4,39.4,9,37.5,8c-1.1-0.6-2.1-1.2-3.2-1.8c-2.7-1.4-5.6-2.4-8.6-3.1
		c-1.2-0.3-2.5-0.6-3.8-0.7c-0.7-0.1-1.3-0.2-2-0.2c-0.4,0-0.6-0.1-0.8-0.5C20,1.2,20.9,1,21.8,0.9c0.1,0.3,0.4,0.4,0.7,0.4
		c1.2,0.2,2.3,0.4,3.5,0.7c1.4,0.3,2.8,0.7,4.1,1.2c1,0.4,2,0.7,3,1.2c1.3,0.6,2.5,1.2,3.7,1.9c1.4,0.9,2.8,1.9,4.2,2.8
		c1.2,0.8,2.2,1.7,3.2,2.7c0.7,0.7,1.3,1.3,2,2c1,1,1.9,2.2,2.7,3.3c0.9,1.2,1.7,2.5,2.5,3.7c0.5,0.8,0.9,1.5,1.3,2.3
		c0.5,1,0.9,2,1.3,3.1c0.9,2.3,1.7,4.6,2.1,7.1c0.1,0.7,0.3,1.5,0.4,2.2c0,0.3,0.2,0.5,0.5,0.7C56.9,37,56.6,37.8,56.2,38.7z"/>
	<path class="st9" d="M57,36.1c-0.3-0.1-0.4-0.3-0.5-0.7c-0.1-0.7-0.3-1.5-0.4-2.2c-0.4-2.4-1.2-4.8-2.1-7.1c-0.4-1-0.8-2.1-1.3-3.1
		c-0.4-0.8-0.8-1.6-1.3-2.3c-0.8-1.3-1.6-2.6-2.5-3.7c-0.9-1.1-1.7-2.3-2.7-3.3c-0.7-0.6-1.3-1.3-2-2c-1-1-2.1-1.9-3.2-2.7
		c-1.4-0.9-2.8-1.9-4.2-2.8C35.5,5.6,34.3,5,33,4.4c-1-0.5-2-0.8-3-1.2c-1.3-0.5-2.7-0.9-4.1-1.2c-1.1-0.2-2.3-0.5-3.5-0.7
		c-0.3-0.1-0.5-0.1-0.7-0.4c0.3-0.3,0.7-0.2,1-0.3c0.7-0.1,1.3-0.2,2-0.3c0.1,0.1,0.1,0.3,0.2,0.3c0.3,0.1,0.6,0.2,0.9,0.3
		c1.3,0.3,2.6,0.7,3.8,1.1c1.1,0.4,2.2,0.8,3.3,1.2c0.7,0.3,1.4,0.6,2.1,0.9c0.6,0.3,1.1,0.6,1.7,0.9c0.7,0.4,1.5,0.8,2.2,1.3
		c1,0.7,2,1.4,3,2.2c0.7,0.5,1.5,1,2.1,1.7c1.4,1.5,3,2.8,4.3,4.4c0.9,1.1,1.7,2.1,2.5,3.2c0.7,1.1,1.3,2.2,2,3.3
		c0.9,1.3,1.5,2.8,2.1,4.2c0.8,1.9,1.4,3.9,1.9,5.9c0.1,0.5,0.2,0.9,0.3,1.4c0,0.2,0.2,0.3,0.4,0.3C57.5,34.1,57.4,35.1,57,36.1z"/>
	<path class="st10" d="M50.1,48.6c0-0.5,0-1.1,0.1-1.6c0.2-0.9,0.1-1.8,0.3-2.7c0.3-1.7,0.1-3.4,0.2-5c0-0.4-0.1-0.8-0.1-1.3
		c-0.1-0.7-0.1-1.3-0.2-2c-0.3-1.5-0.6-3.1-1-4.6c-0.5-1.9-1.3-3.7-2.1-5.4c-1-2.1-2.3-4.1-3.8-6c-1.2-1.6-2.7-3.1-4.2-4.4
		c-1.8-1.6-3.8-2.9-5.9-4.2c-2.4-1.4-5-2.3-7.6-3.1c-1.5-0.5-3.1-0.6-4.6-1c-0.2-0.1-0.5,0-0.8,0c-0.4,0-0.8-0.1-1.3-0.2
		c-0.2,0-0.4-0.1-0.6-0.1c-1.1,0-2.2,0-3.2,0c-0.2,0-0.5,0.1-0.7,0.1c-0.3,0-0.6,0.1-0.8,0.1c-0.8,0-1.5,0.1-2.2,0.3
		c-0.7,0.2-1.4,0.2-2.1,0.2c0.4-0.4,0.7-0.9,1.2-1.1c0.7,0,1.4,0.1,2,0c0.9-0.2,1.8,0,2.7-0.3c0.1,0,0.2,0,0.3,0
		c0.8,0.2,1.7,0.2,2.6,0.1c0.1,0,0.3-0.1,0.4-0.1c0.9,0.3,1.8,0.1,2.8,0.3c1.2,0.3,2.5,0.3,3.7,0.7C25.6,7.5,26.3,7.8,27,8
		c3,0.8,5.7,2.2,8.4,3.8c1.4,0.9,2.6,2,4,2.9c0.7,0.5,1.3,1.1,1.8,1.6c0.5,0.5,1,1.2,1.5,1.7c1,0.9,1.7,2,2.5,3.1
		c1.6,2.2,2.8,4.6,3.8,7.1c0.3,0.8,0.6,1.6,0.9,2.4c0.1,0.4,0.2,0.8,0.3,1.2c0.5,1.2,0.7,2.6,0.9,3.9c0.1,0.9,0.4,1.9,0.3,2.9
		c0,0.2,0,0.4,0.1,0.5c0.2,0.4-0.2,0.8-0.1,1.2c0.1,0.4,0.2,0.9,0.1,1.3c-0.1,0.4-0.2,0.8,0,1.1c0.1,0.1,0,0.3,0,0.5
		c-0.1,1-0.2,2-0.3,3c0,0.2,0,0.4,0,0.6c0,0.1,0.2,0.2,0.3,0.3C51,47.6,50.5,48.1,50.1,48.6z"/>
	<path class="st2" d="M107.5,24.5c0.2-0.7,0.3-1.4,0.5-2.1c0.2-0.7,0.3-1.5,0.5-2.2c0.3-1.3,0.9-1.8,2.3-1.9c0.8,0,1.6,0,2.4,0
		c1.3,0,2.7,0,4,0c0.1,0,0.3,0,0.5,0c0,0.2,0,0.4,0,0.5c-0.3,1.3-0.6,2.5-0.8,3.8c0,0.2-0.1,0.3-0.2,0.5c-0.3,0.7-0.8,1.2-1.6,1.3
		c-0.2,0-0.5,0-0.8,0c-2.1,0-4.2,0-6.2,0C107.9,24.6,107.8,24.6,107.5,24.5z"/>
	<path class="st11" d="M28,0c1.1,0,2.3,0,3.4,0c0.5,0,0.9,0.1,1.4,0.2c0,0.2,0.1,0.4,0.4,0.5c0.4,0.2,0.9,0.3,1.3,0.5
		c2.2,1.1,4.4,2.1,6.4,3.5c2.2,1.5,4.4,3.2,6.3,5.2c0.7,0.7,1.4,1.4,2.1,2.1c0.2,0.2,0.3,0.3,0.4,0.5c0.7,0.9,1.5,1.9,2.2,2.8
		c1.1,1.4,2,2.9,2.9,4.4c0.8,1.5,1.5,3,2.2,4.6c0.1,0.2,0.2,0.5,0.4,0.7c0.1,0.1,0.2,0.1,0.4,0.2c0,0.1,0.1,0.1,0.1,0.2
		c0.1,1.5,0.5,3,0.3,4.6c-0.5-0.1-0.6-0.5-0.7-1c-0.5-2.1-1.4-4.1-2.2-6c-0.4-0.8-0.9-1.6-1.3-2.5c-1.2-2.3-2.7-4.4-4.4-6.3
		c-0.4-0.5-0.8-1-1.2-1.4c-0.9-1-1.9-2-2.9-2.9c-0.6-0.6-1.3-1.2-2-1.7c-1.7-1.3-3.4-2.5-5.2-3.5c-1.5-0.8-3-1.6-4.5-2.3
		c-1.7-0.7-3.4-1.4-5.2-1.8C28.1,0.4,28.1,0.2,28,0z"/>
	<path class="st12" d="M28,0c0,0.2,0.1,0.4,0.3,0.4c1.8,0.4,3.5,1.1,5.2,1.8c1.5,0.7,3,1.4,4.5,2.3c1.8,1,3.6,2.3,5.2,3.5
		c0.7,0.5,1.3,1.1,2,1.7c1,0.9,1.9,1.9,2.9,2.9c0.4,0.4,0.8,0.9,1.2,1.4c1.6,2,3.2,4,4.4,6.3c0.4,0.8,0.9,1.6,1.3,2.5
		c0.9,2,1.7,3.9,2.2,6c0.1,0.4,0.2,0.8,0.7,1c0,0.7-0.1,1.5-0.1,2.2c0,0.3-0.1,0.7-0.2,1c-0.2,0-0.3-0.1-0.4-0.3
		c-0.1-0.5-0.2-0.9-0.3-1.4c-0.5-2-1.1-4-1.9-5.9c-0.6-1.5-1.2-2.9-2.1-4.2c-0.7-1.1-1.3-2.2-2-3.3c-0.7-1.1-1.6-2.2-2.5-3.2
		c-1.3-1.6-2.8-3-4.3-4.4c-0.6-0.6-1.4-1.1-2.1-1.7c-1-0.7-2-1.5-3-2.2c-0.7-0.5-1.5-0.9-2.2-1.3c-0.6-0.3-1.1-0.7-1.7-0.9
		c-0.7-0.3-1.4-0.6-2.1-0.9c-1.1-0.4-2.2-0.9-3.3-1.2c-1.3-0.4-2.5-0.7-3.8-1.1c-0.3-0.1-0.6-0.2-0.9-0.3c-0.1,0-0.1-0.2-0.2-0.3
		C25.4,0,26.1,0,26.8,0C27.2,0,27.6,0,28,0z"/>
	<path class="st13" d="M51.4,47.1c-0.1-0.1-0.2-0.2-0.3-0.3c-0.1-0.2-0.1-0.4,0-0.6c0.1-1,0.2-2,0.3-3c0-0.2,0.1-0.4,0-0.5
		c-0.2-0.4-0.1-0.8,0-1.1c0.1-0.4-0.1-0.8-0.1-1.3c0-0.4,0.3-0.7,0.1-1.2c-0.1-0.2-0.1-0.4-0.1-0.5c0.1-1-0.1-1.9-0.3-2.9
		c-0.2-1.3-0.4-2.6-0.9-3.9c-0.2-0.4-0.2-0.8-0.3-1.2c-0.3-0.8-0.6-1.6-0.9-2.4c-1-2.5-2.3-4.9-3.8-7.1c-0.8-1.1-1.5-2.2-2.5-3.1
		c-0.5-0.5-1-1.2-1.5-1.7c-0.6-0.6-1.2-1.1-1.8-1.6c-1.3-1-2.5-2.1-4-2.9C32.8,10.1,30,8.8,27,8c-0.7-0.2-1.4-0.4-2.1-0.6
		c-1.2-0.3-2.5-0.4-3.7-0.7c-0.9-0.2-1.9,0-2.8-0.3c-0.1,0-0.3,0-0.4,0.1c-0.9,0.1-1.7,0.2-2.6-0.1c-0.1,0-0.2-0.1-0.3,0
		c-0.9,0.4-1.8,0.1-2.7,0.3c-0.6,0.2-1.4,0-2,0c0.4-0.3,0.7-0.6,1.1-0.9c1,0,2,0.1,3-0.1c0.3-0.1,0.6,0,1,0c0.9,0,1.7,0,2.6,0
		c0.5,0,1,0,1.5,0.2c0.1,0.1,0.3,0,0.4,0c2.3,0.2,4.6,0.6,6.8,1.3c2.6,0.7,5,1.9,7.4,3.1c1.4,0.7,2.6,1.6,3.9,2.5
		c2,1.4,3.7,3.1,5.3,4.9c1.2,1.3,2.3,2.8,3.2,4.3c0.8,1.3,1.5,2.7,2.2,4.1c1.1,2.2,1.9,4.6,2.5,7c0.3,1.2,0.5,2.4,0.7,3.6
		c0,0.2,0,0.4,0,0.6c0,0.5,0,0.9,0.2,1.4c0.1,0.3,0.1,0.6,0.1,0.9c0,1.1,0,2.2,0,3.2c0,0.4-0.1,0.8-0.1,1.3c0,0.6,0,1.1,0,1.7
		c0,0.1,0.2,0.2,0.2,0.3c0,0.1-0.1,0.2-0.1,0.3C51.8,46.5,51.7,46.8,51.4,47.1z"/>
	<path class="st14" d="M36.4,0.9c0.8,0.2,1.6,0.4,2.4,0.8c0.9,0.5,1.9,0.8,2.9,1.2c1.6,0.7,3,1.6,4.4,2.7c1.2,0.9,2.4,1.9,3.5,3
		c2,2.2,3.8,4.4,5.1,7.1c0.6,1.3,1.2,2.6,1.7,3.9c0.2,0.6,0.3,1.2,0.5,1.8c-0.4,0-0.6-0.3-0.8-0.7c-0.7-1.5-1.6-2.9-2.5-4.3
		c-0.7-1.1-1.5-2.2-2.4-3.2c-0.8-0.9-1.5-1.9-2.4-2.8c-1.4-1.5-2.9-2.8-4.4-4.1C42.8,5,40.9,3.8,39,2.7c-0.7-0.4-1.4-0.8-2.1-1.1
		C36.7,1.4,36.5,1.2,36.4,0.9z"/>
	<path class="st15" d="M36.4,0.9c0,0.3,0.2,0.5,0.5,0.7c0.7,0.4,1.4,0.8,2.1,1.1c1.9,1.1,3.8,2.3,5.5,3.7c1.6,1.3,3.1,2.6,4.4,4.1
		c0.8,0.9,1.6,1.9,2.4,2.8c0.9,1,1.7,2.1,2.4,3.2c0.9,1.4,1.8,2.8,2.5,4.3c0.2,0.3,0.3,0.7,0.8,0.7c0.3,1.2,0.7,2.4,0.7,3.7
		c-0.1-0.1-0.3-0.1-0.4-0.2c-0.2-0.2-0.3-0.4-0.4-0.7c-0.7-1.5-1.4-3.1-2.2-4.6c-0.8-1.5-1.8-3-2.9-4.4c-0.7-0.9-1.4-1.9-2.2-2.8
		c-0.1-0.2-0.3-0.3-0.4-0.5c-0.7-0.7-1.4-1.4-2.1-2.1c-1.9-2-4.1-3.6-6.3-5.2c-2-1.4-4.2-2.4-6.4-3.5c-0.4-0.2-0.9-0.4-1.3-0.5
		c-0.2-0.1-0.3-0.3-0.4-0.5C34.1,0.2,35.2,0.6,36.4,0.9z"/>
	<path class="st16" d="M17.7,72.1c-0.8,0.1-1.6-0.1-2.3-0.2c-1.3-0.2-2.6-0.5-3.9-0.8c-1.3-0.3-2.5-0.7-3.7-1.2
		c-0.9-0.4-1.7-0.9-2.4-1.7c-0.7-0.7-0.7-1.4,0-2.1c0.6-0.7,1.4-1.2,2.3-1.6c2.1-0.9,4.3-1.4,6.5-1.8c1.2-0.2,2.4-0.5,3.6-0.5
		c0.7,0,1.3-0.2,2-0.2c0,0.1,0,0.3,0,0.4c-0.2,0-0.4,0-0.6,0c-0.4,0-0.8-0.2-1.1,0.2c-0.1,0-0.3,0-0.4,0c-0.3,0-0.6,0-0.9,0
		c-0.7,0.1-1.3,0.3-2,0.4c-1.7,0.3-3.4,0.7-5.1,1.3c-1,0.4-1.9,0.8-2.6,1.6c-0.8,0.9-0.9,1.5-0.1,2.3c0.7,0.7,1.4,1.3,2.4,1.6
		c1.7,0.6,3.5,1.2,5.3,1.5c0.8,0.1,1.7,0.4,2.5,0.4C17.5,71.7,17.6,71.8,17.7,72.1z"/>
	<path class="st16" d="M39.9,62.2c0.9-0.1,1.8,0.2,2.7,0.3c1.6,0.2,3.1,0.6,4.6,1c1.5,0.4,2.9,0.9,4.3,1.7c0.7,0.4,1.3,0.9,1.5,1.7
		c0.1,0.4,0.1,0.6-0.1,0.9c-0.4,0.5-0.8,1-1.4,1.3c-1.9,1-3.9,1.7-5.9,2.1c-0.9,0.2-1.7,0.4-2.6,0.5c-0.8,0.1-1.7,0.4-2.5,0.3
		c0-0.2,0.2-0.4,0.4-0.4c0.7-0.1,1.4-0.1,2-0.3c1.5-0.3,3.1-0.7,4.6-1.1c1.1-0.3,2.1-0.8,3-1.4c0.5-0.3,0.8-0.7,1.1-1.2
		c0.2-0.3,0.2-0.7,0-1c-0.3-0.4-0.5-0.8-0.9-1.1c-0.7-0.5-1.4-1-2.3-1.2c-1.9-0.7-3.9-1.2-5.9-1.5c-0.7-0.1-1.3-0.1-2-0.2
		c-0.1,0-0.3,0-0.4,0C39.9,62.5,39.9,62.3,39.9,62.2z"/>
	<path class="st17" d="M40.3,62.6c0.7,0.1,1.4,0.1,2,0.2c2,0.3,4,0.9,5.9,1.5c0.8,0.3,1.6,0.7,2.3,1.2c0.4,0.3,0.6,0.7,0.9,1.1
		c0.2,0.3,0.2,0.7,0,1c-0.2,0.5-0.6,0.9-1.1,1.2c-0.9,0.6-1.9,1.1-3,1.4c-1.5,0.4-3,0.8-4.6,1.1c-0.7,0.1-1.3,0.2-2,0.3
		c-0.3,0-0.4,0.2-0.4,0.4c-0.1,0-0.3,0-0.4,0c-0.2-0.3-0.6-0.2-0.9-0.2c0-0.2,0.1-0.4,0.3-0.4c0.6-0.1,1.3-0.1,1.9-0.3
		c0.9-0.2,1.9-0.3,2.8-0.6c1.1-0.3,2.3-0.5,3.3-1.1c0.1-0.1,0.2,0,0.3-0.1c0.2-0.1,0.5-0.2,0.7-0.3c0.4-0.3,0.8-0.6,1.2-0.9
		c0.6-0.5,0.7-1.5,0.1-2.1c-0.5-0.6-1-1.1-1.8-1.4c-1.3-0.4-2.5-0.9-3.8-1.2c-1.1-0.2-2.2-0.4-3.4-0.6C40.5,63,40.4,62.8,40.3,62.6z
		"/>
	<path class="st17" d="M17.7,72.1c0-0.2-0.2-0.4-0.4-0.4c-0.9,0-1.7-0.2-2.5-0.4c-1.8-0.3-3.5-0.9-5.3-1.5c-1-0.3-1.7-0.8-2.4-1.6
		c-0.8-0.9-0.8-1.5,0.1-2.3c0.7-0.8,1.7-1.2,2.6-1.6c1.6-0.6,3.3-1,5.1-1.3c0.7-0.1,1.3-0.3,2-0.4c0.3,0,0.6,0,0.9,0
		c0,0.2-0.1,0.4-0.3,0.4c-0.8,0.2-1.7,0.3-2.5,0.5c-1.4,0.2-2.8,0.7-4.2,1.2c-0.8,0.3-1.5,0.8-2.2,1.3c-0.1,0.1-0.2,0.3-0.3,0.4
		C7.8,67.1,8,68,8.7,68.6c1.2,0.9,2.6,1.4,4.1,1.8c1.2,0.3,2.3,0.6,3.5,0.8c0.7,0.1,1.5,0.4,2.2,0.3c0.1,0,0.3,0,0.4,0
		c0,0.1,0,0.3,0,0.4c-0.3,0.1-0.6-0.1-0.9,0.2C18,72.1,17.8,72.1,17.7,72.1z"/>
	<path class="st17" d="M32.5,72.7c-2.4,0-4.9,0-7.3,0c0-0.1,0-0.3,0-0.4c0.3-0.3,0.7-0.1,1.1-0.2c1.8,0,3.6,0,5.4,0
		c0.3,0.1,0.6-0.1,0.9,0.2C32.6,72.4,32.6,72.6,32.5,72.7z"/>
	<path class="st17" d="M26.8,61.5c1.4,0,2.9,0,4.3,0c0,0.1,0,0.3,0,0.4c-0.2,0.1-0.3,0.2-0.5,0.2c-0.3,0-0.6,0-0.8,0
		c-0.5,0-1,0-1.5,0c-0.4,0-0.7,0-1.1,0c-0.2,0-0.3-0.1-0.5-0.2C26.7,61.8,26.8,61.7,26.8,61.5z"/>
	<path class="st16" d="M31.1,61.9c0-0.1,0-0.3,0-0.4c1,0,1.9,0,2.9,0c0.2,0,0.4,0,0.6,0.2c-0.2,0.3-0.6,0.2-0.9,0.2
		C32.8,62,31.9,62,31.1,61.9z"/>
	<path class="st16" d="M26.8,61.5c0,0.1,0,0.3,0,0.4c-0.8,0-1.6,0-2.4,0c-0.3-0.1-0.6,0.1-0.9-0.2c0.1-0.2,0.4-0.2,0.6-0.2
		C25,61.5,25.9,61.5,26.8,61.5z"/>
	<path class="st17" d="M23.5,61.7c0.2,0.3,0.6,0.2,0.9,0.2c0,0.1,0,0.3,0,0.4c-0.4,0-0.9,0-1.3,0c-0.3-0.1-0.6,0.1-0.9-0.2
		c0-0.1,0-0.3,0-0.4C22.7,61.8,23.1,61.7,23.5,61.7z"/>
	<path class="st16" d="M32.5,72.7c0-0.1,0-0.3,0-0.4c0.6,0,1.1,0,1.7,0c0.3,0.1,0.6-0.1,0.9,0.2c-0.1,0.2-0.3,0.2-0.6,0.2
		C33.9,72.7,33.2,72.7,32.5,72.7z"/>
	<path class="st17" d="M33.6,62c0.3-0.1,0.6,0.1,0.9-0.2c0.4,0,0.7,0,1.1,0c0,0.1,0,0.3,0,0.4c-0.2,0.3-0.4,0.2-0.7,0.2
		c-0.4,0-0.9,0-1.3,0C33.6,62.2,33.6,62.1,33.6,62z"/>
	<path class="st17" d="M35.1,72.5c-0.2-0.3-0.6-0.2-0.9-0.2c0-0.1,0-0.3,0-0.4c0.4,0,0.9,0,1.3,0c0.2,0,0.5,0,0.7,0.2
		c0,0.1,0,0.3,0,0.4C35.9,72.5,35.5,72.5,35.1,72.5z"/>
	<path class="st17" d="M22.9,72.5c-0.4,0-0.7,0-1.1,0c0-0.1,0-0.3,0-0.4c0.2-0.3,0.4-0.2,0.7-0.2c0.4,0,0.9,0,1.3,0
		c0,0.1,0,0.3,0,0.4C23.4,72.3,23.1,72.2,22.9,72.5z"/>
	<path class="st16" d="M22.9,72.5c0.2-0.3,0.6-0.2,0.9-0.2c0.5,0,1,0,1.5,0c0,0.1,0,0.3,0,0.4c-0.6,0-1.2,0-1.8,0
		C23.2,72.7,23,72.7,22.9,72.5z"/>
	<path class="st16" d="M35.6,62.2c0-0.1,0-0.3,0-0.4c0.5,0,1,0,1.5,0c0.2,0,0.3,0.1,0.5,0.2c-0.2,0.3-0.6,0.2-0.9,0.2
		C36.3,62.2,35.9,62.2,35.6,62.2z"/>
	<path class="st17" d="M38.6,72.3c-0.3,0-0.6,0-0.8,0c-0.2-0.2-0.4-0.2-0.7-0.2c0-0.1,0-0.3,0-0.4c0.2,0,0.4,0,0.6,0
		c0.3,0,0.6-0.1,0.9,0.2C38.6,72,38.6,72.1,38.6,72.3z"/>
	<path class="st17" d="M36.7,62.2c0.3-0.1,0.6,0.1,0.9-0.2c0.2,0,0.4,0,0.6,0c0,0.1,0,0.3,0,0.4c-0.2,0.3-0.6,0.2-0.9,0.2
		c-0.2,0-0.4,0-0.6,0C36.7,62.5,36.7,62.3,36.7,62.2z"/>
	<path class="st17" d="M20.1,72.3c-0.2,0-0.4,0-0.6,0c0-0.1,0-0.3,0-0.4c0.2-0.3,0.6-0.2,0.9-0.2c0.2,0,0.4,0,0.6,0
		c0,0.1,0,0.3,0,0.4C20.6,72.1,20.3,72,20.1,72.3z"/>
	<path class="st17" d="M19.8,62.4c0-0.1,0-0.3,0-0.4c0.2,0,0.4,0,0.6,0c0.2,0.3,0.6,0.2,0.9,0.2c0,0.1,0,0.3,0,0.4
		c-0.2,0-0.4,0-0.6,0C20.4,62.6,20.1,62.7,19.8,62.4z"/>
	<path class="st16" d="M21.4,62.2c-0.3-0.1-0.6,0.1-0.9-0.2c0.2-0.1,0.3-0.2,0.5-0.2c0.4,0,0.9,0,1.3,0c0,0.1,0,0.3,0,0.4
		C21.9,62.2,21.6,62.2,21.4,62.2z"/>
	<path class="st16" d="M20.1,72.3c0.2-0.3,0.6-0.2,0.9-0.2c0.3,0,0.6,0,0.9,0c0,0.1,0,0.3,0,0.4c-0.4,0-0.9,0-1.3,0
		C20.4,72.5,20.2,72.4,20.1,72.3z"/>
	<path class="st17" d="M39.9,62.2c0,0.1,0,0.3,0,0.4c-0.2,0.3-0.6,0.2-0.9,0.2c-0.1,0-0.3,0-0.4,0c0-0.1,0-0.3,0-0.4
		c0.3-0.1,0.6,0.1,0.9-0.2C39.6,62.2,39.7,62.2,39.9,62.2z"/>
	<path class="st16" d="M37.1,72.1c0.2,0,0.5,0,0.7,0.2c-0.2,0.1-0.3,0.2-0.5,0.2c-0.4,0-0.7,0-1.1,0c0-0.1,0-0.3,0-0.4
		C36.5,72.1,36.8,72.1,37.1,72.1z"/>
	<path class="st16" d="M39.5,62.2c-0.2,0.3-0.6,0.2-0.9,0.2c-0.1,0-0.3,0-0.4,0c0-0.1,0-0.3,0-0.4c0.3,0,0.6,0,0.9,0
		C39.2,62,39.3,62.1,39.5,62.2z"/>
	<path class="st16" d="M19.4,71.9c0,0.1,0,0.3,0,0.4c-0.3,0-0.6,0-0.9,0c-0.2,0-0.3-0.1-0.5-0.2c0.2-0.3,0.6-0.2,0.9-0.2
		C19.1,71.9,19.3,71.9,19.4,71.9z"/>
	<path class="st16" d="M38.6,72.3c0-0.1,0-0.3,0-0.4c0.1,0,0.3,0,0.4,0c0.3,0.1,0.6-0.1,0.9,0.2c-0.2,0.1-0.3,0.2-0.5,0.2
		C39.2,72.3,38.9,72.3,38.6,72.3z"/>
	<path class="st18" d="M186.4,40.7c0-0.2,0-0.4,0-0.5c0.2-1.2,0.6-2.3,1.2-3.3c1.2-2.1,3-3.2,5.4-3.4c1-0.1,2-0.1,3,0
		c0.6,0,1.2,0.2,1.8,0.4c1,0.4,1.4,1.1,1.4,2.2c0,0.9-0.1,1.8-0.5,2.6c-0.4,1-1.2,1.6-2.2,1.9c-0.5,0.1-0.9,0.2-1.4,0.2
		c-2.8,0-5.5,0-8.3,0C186.7,40.8,186.6,40.8,186.4,40.7z"/>
	<path class="st19" d="M240.7,32.4c-0.6-0.1-1.3-0.1-1.9-0.3c-2.1-0.5-3.4-1.9-3.6-4.1c-0.1-1.7,0.2-3.4,0.9-4.9
		c1.1-2.2,3-3.3,5.3-3.5c1-0.1,1.9-0.1,2.9,0.1c2.5,0.5,3.8,2.3,3.7,5c0,1-0.3,2-0.6,2.9c-1,2.8-2.9,4.3-5.9,4.5
		C241.3,32.4,241,32.4,240.7,32.4C240.7,32.4,240.7,32.4,240.7,32.4z M243.6,26.5c0.3-0.2,0.5-0.3,0.8-0.5c0.4-0.3,0.8-0.7,0.9-1.1
		c0.2-0.5,0.3-1,0.4-1.6c0.1-0.7-0.3-1.3-0.9-1.7c-0.4-0.2-0.9-0.3-1.4-0.3c-1,0-2.1,0-3.1,0c-1,0-1.4,0.3-1.6,1.4
		c-0.4,1.6-0.7,3.1-1.1,4.7c-0.2,0.8-0.4,1.7-0.6,2.6c0.7,0.1,1.4,0.2,2,0c0.4-1.1,0.4-2.2,0.9-3.2c0.5,0,1-0.1,1.6,0
		c0.2,0.4,0.3,0.7,0.5,1.1c0.3,0.6,0.5,1.1,0.8,1.7c0.1,0.2,0.2,0.4,0.4,0.5c0.2,0.1,0.5,0.1,0.7,0.1c0.4,0,0.9,0.1,1.4-0.1
		C244.6,28.8,244.1,27.6,243.6,26.5z"/>
	<path class="st20" d="M19.8,62.4c0.2,0.3,0.6,0.2,0.9,0.2c0,0.1,0,0.3,0,0.4c-0.1,0-0.3,0-0.4,0c-1.1-0.1-2.2,0.2-3.3,0.4
		c-2.1,0.3-4.1,0.8-5.9,1.8c-0.4,0.2-0.9,0.5-1.2,0.8c-0.7,0.7-0.7,1.3-0.1,2.1c0.3,0.4,0.7,0.6,1.1,0.9c1.2,0.7,2.5,1,3.7,1.3
		c1.2,0.3,2.4,0.5,3.6,0.7c0.3,0,0.4,0.2,0.4,0.4c-0.8,0.1-1.5-0.2-2.2-0.3c-1.2-0.2-2.4-0.5-3.5-0.8c-1.5-0.4-2.8-0.9-4.1-1.8
		c-0.7-0.5-1-1.4-0.6-2.2c0.1-0.2,0.2-0.3,0.3-0.4c0.7-0.5,1.4-1,2.2-1.3c1.4-0.5,2.8-0.9,4.2-1.2c0.8-0.1,1.7-0.3,2.5-0.5
		c0.2,0,0.3-0.2,0.3-0.4c0.1,0,0.3,0,0.4,0c0.6,0.3,0.8,0.3,1.1-0.2C19.4,62.4,19.6,62.4,19.8,62.4z"/>
	<path class="st17" d="M19.2,62.4c-0.3,0.5-0.5,0.5-1.1,0.2C18.4,62.2,18.8,62.4,19.2,62.4z"/>
	<path class="st20" d="M39,71.9c-0.1,0-0.3,0-0.4,0c-0.2-0.3-0.6-0.2-0.9-0.2c0-0.1,0-0.3,0-0.4c0.1,0,0.3,0,0.4,0
		c0.5,0.1,1.1-0.2,1.6-0.2c1.1-0.1,2.1-0.4,3.2-0.6c0.9-0.2,1.7-0.5,2.6-0.7c0.9-0.3,1.8-0.7,2.5-1.4c1-0.9,0.9-1.6,0-2.5
		c-0.1-0.1-0.2-0.1-0.3-0.2c-0.8-0.4-1.6-0.9-2.4-1.1c-1.9-0.6-3.9-1.1-5.9-1.3c-0.3,0-0.4-0.2-0.4-0.4c0.3,0,0.6,0.1,0.9-0.2
		c0.1,0,0.3,0,0.4,0c0,0.2,0.2,0.4,0.4,0.4c1.1,0.2,2.2,0.4,3.4,0.6c1.3,0.3,2.5,0.8,3.8,1.2c0.7,0.3,1.3,0.8,1.8,1.4
		c0.6,0.6,0.5,1.6-0.1,2.1c-0.4,0.3-0.8,0.6-1.2,0.9c-0.2,0.1-0.4,0.2-0.7,0.3c-0.1,0-0.2,0-0.3,0.1c-1,0.6-2.2,0.7-3.3,1.1
		c-0.9,0.3-1.9,0.4-2.8,0.6c-0.6,0.1-1.3,0.2-1.9,0.3C39.1,71.5,39.1,71.7,39,71.9z"/>
	<path class="st21" d="M18.5,71.4c0-0.2-0.2-0.4-0.4-0.4c-1.2-0.2-2.4-0.4-3.6-0.7C13.3,70,12,69.7,10.8,69
		c-0.4-0.2-0.8-0.5-1.1-0.9c-0.6-0.7-0.6-1.4,0.1-2.1c0.4-0.3,0.8-0.6,1.2-0.8c1.9-0.9,3.9-1.4,5.9-1.8c1.1-0.2,2.2-0.5,3.3-0.4
		c0,0.2-0.1,0.4-0.3,0.4c-0.6,0.1-1.1,0.2-1.7,0.2c-1.6,0.2-3.2,0.6-4.7,1.1c-0.8,0.3-1.5,0.7-2.2,1.2c-0.8,0.6-0.9,1.4-0.2,2.1
		c0.2,0.2,0.5,0.4,0.7,0.6c1.5,0.8,3.1,1.4,4.8,1.7c0.9,0.2,1.8,0.3,2.7,0.5c0.2,0,0.3,0.2,0.3,0.4c-0.3,0-0.6-0.1-0.9,0.2
		C18.8,71.4,18.7,71.4,18.5,71.4z"/>
	<path class="st20" d="M19,71.4c0.2-0.3,0.6-0.2,0.9-0.2c0.1,0,0.3,0,0.4,0c0,0.1,0,0.3,0,0.4c-0.3,0-0.6-0.1-0.9,0.2
		c-0.1,0-0.3,0-0.4,0C19,71.7,19,71.6,19,71.4z"/>
	<path class="st21" d="M31.7,72.1c-1.8,0-3.6,0-5.4,0c0-0.1,0-0.3,0-0.4c0.2-0.1,0.3-0.2,0.5-0.2c1.5,0,3,0,4.5,0
		c0.2,0,0.3,0.1,0.5,0.2C31.7,71.8,31.7,71.9,31.7,72.1z"/>
	<path class="st20" d="M26.3,71.6c0,0.1,0,0.3,0,0.4c-0.4,0.1-0.8-0.1-1.1,0.2c-0.5,0-1,0-1.5,0c0-0.1,0-0.3,0-0.4
		c0.2-0.3,0.4-0.2,0.7-0.2c0.5-0.2,1.1-0.3,1.6,0C26.1,71.7,26.2,71.6,26.3,71.6z"/>
	<path class="st20" d="M31.7,72.1c0-0.1,0-0.3,0-0.4c0.6,0,1.3,0,1.9,0c0.2,0,0.5,0,0.7,0.2c0,0.1,0,0.3,0,0.4c-0.6,0-1.1,0-1.7,0
		C32.3,72,32,72.1,31.7,72.1z"/>
	<path class="st20" d="M33.6,62c0,0.1,0,0.3,0,0.4c-0.2,0.3-0.6,0.2-0.9,0.2c-0.6,0-1.2,0-1.9,0.1c-0.4,0-0.8,0.1-1.1,0.1
		c0-0.2,0-0.4,0-0.6c0.3,0,0.6,0,0.8,0c0.2,0,0.3-0.1,0.5-0.2C31.9,62,32.8,62,33.6,62z"/>
	<path class="st20" d="M24.4,62.4c0-0.1,0-0.3,0-0.4c0.8,0,1.6,0,2.4,0c0.2,0.1,0.3,0.2,0.5,0.2c0.3,0,0.7,0,1.1,0
		c0,0.2,0,0.4,0,0.6c-0.2,0-0.5,0.1-0.7,0c-0.7-0.3-1.5-0.2-2.3-0.2C24.9,62.6,24.6,62.7,24.4,62.4z"/>
	<path class="st21" d="M28.2,62.8c0-0.2,0-0.4,0-0.6c0.5,0,1,0,1.5,0c0,0.2,0,0.4,0,0.6C29.3,62.8,28.8,62.8,28.2,62.8z"/>
	<path class="st21" d="M24.4,62.4c0.2,0.3,0.6,0.2,0.9,0.2c0,0.2,0,0.4,0,0.6c-0.3,0-0.6,0-0.9,0C24.2,63,24,63,23.7,63
		c-0.2,0-0.5,0-0.6-0.2c0-0.1,0-0.3,0-0.4C23.5,62.4,23.9,62.4,24.4,62.4z"/>
	<path class="st20" d="M23.1,62.4c0,0.1,0,0.3,0,0.4c-0.3,0-0.6,0-0.9,0c-0.3,0-0.6,0.1-0.9-0.2c0-0.1,0-0.3,0-0.4
		c0.3,0,0.6,0,0.9,0C22.4,62.5,22.8,62.3,23.1,62.4z"/>
	<path class="st21" d="M32.8,62.6c0.3,0,0.6,0.1,0.9-0.2c0.4,0,0.9,0,1.3,0c0,0.1,0,0.3,0,0.4C34.8,63,34.5,63,34.3,63
		c-0.2,0-0.5,0-0.6,0.2c-0.3,0-0.6,0-0.9,0C32.8,63,32.8,62.8,32.8,62.6z"/>
	<path class="st20" d="M34.9,62.8c0-0.1,0-0.3,0-0.4c0.2,0,0.5,0,0.7-0.2c0.4,0,0.7,0,1.1,0c0,0.1,0,0.3,0,0.4
		c-0.2,0.3-0.6,0.2-0.9,0.2C35.5,62.8,35.2,62.8,34.9,62.8z"/>
	<path class="st21" d="M34.3,71.9c-0.2-0.3-0.4-0.2-0.7-0.2c0-0.1,0-0.3,0-0.4c0.2,0,0.4,0,0.6,0c0.3,0,0.6,0,0.8,0
		c0.2,0,0.3,0.1,0.5,0.2c0,0.1,0,0.3,0,0.4C35.1,71.9,34.7,71.9,34.3,71.9z"/>
	<path class="st20" d="M35.6,71.9c0-0.1,0-0.3,0-0.4c0.2,0,0.4,0,0.6,0c0.3,0,0.6-0.1,0.9,0.2c0,0.1,0,0.3,0,0.4c-0.3,0-0.6,0-0.9,0
		C36.1,71.8,35.8,71.9,35.6,71.9z"/>
	<path class="st21" d="M24.4,71.6c-0.2,0-0.5,0-0.7,0.2c-0.4,0-0.9,0-1.3,0c0-0.1,0-0.3,0-0.4c0.2-0.2,0.4-0.2,0.6-0.2
		c0.2,0,0.5,0,0.6-0.2c0.2,0,0.4,0,0.6,0C24.4,71.2,24.4,71.4,24.4,71.6z"/>
	<path class="st20" d="M22.4,71.4c0,0.1,0,0.3,0,0.4c-0.2,0-0.5,0-0.7,0.2c-0.3,0-0.6,0-0.9,0c0-0.1,0-0.3,0-0.4
		c0.2-0.3,0.6-0.2,0.9-0.2C22,71.4,22.2,71.4,22.4,71.4z"/>
	<path class="st21" d="M37.1,71.6c-0.2-0.3-0.6-0.2-0.9-0.2c0.1-0.1,0.1-0.3,0.2-0.3c0.4-0.1,0.9-0.2,1.3,0.1c0,0.1,0,0.3,0,0.4
		C37.5,71.6,37.3,71.6,37.1,71.6z"/>
	<path class="st21" d="M35.8,62.8c0.3,0,0.6,0.1,0.9-0.2c0.2,0,0.4,0,0.6,0c0,0.1,0,0.3,0,0.4c-0.4,0.4-0.9,0.2-1.3,0.1
		C35.9,63.1,35.9,62.9,35.8,62.8z"/>
	<path class="st20" d="M37.3,63c0-0.1,0-0.3,0-0.4c0.3-0.1,0.6,0.1,0.9-0.2c0.1,0,0.3,0,0.4,0c0,0.1,0,0.3,0,0.4
		C38.4,63.1,38,63,37.7,63C37.6,63,37.5,63,37.3,63z"/>
	<path class="st21" d="M21.8,71.4c-0.3,0-0.6-0.1-0.9,0.2c-0.2,0-0.4,0-0.6,0c0-0.1,0-0.3,0-0.4c0.4-0.4,0.9-0.2,1.3-0.1
		C21.7,71.1,21.7,71.3,21.8,71.4z"/>
	<path class="st21" d="M21.3,62.6c0.2,0.3,0.6,0.2,0.9,0.2c-0.1,0.1-0.1,0.3-0.2,0.3c-0.4,0.1-0.9,0.2-1.3-0.1c0-0.1,0-0.3,0-0.4
		C20.9,62.6,21.1,62.6,21.3,62.6z"/>
	<path class="st21" d="M37.7,63c0.3,0,0.6,0.1,0.9-0.2c0.1,0,0.3,0,0.4,0c0,0.2,0.2,0.4,0.4,0.4c2,0.2,3.9,0.7,5.9,1.3
		c0.9,0.3,1.6,0.7,2.4,1.1c0.1,0.1,0.2,0.1,0.3,0.2c1,0.9,1,1.7,0,2.5c-0.7,0.6-1.6,1.1-2.5,1.4c-0.9,0.3-1.7,0.6-2.6,0.7
		c-1.1,0.2-2.1,0.5-3.2,0.6c-0.5,0-1,0.3-1.6,0.2c0-0.2,0.1-0.4,0.3-0.4c0.9-0.2,1.8-0.3,2.6-0.5c1.7-0.3,3.3-0.8,4.8-1.6
		c0.4-0.2,0.7-0.5,1-0.8c0.4-0.4,0.4-0.8,0.2-1.3c-0.1-0.3-0.3-0.6-0.6-0.8c-0.8-0.5-1.5-0.9-2.4-1.2c-1.9-0.6-3.9-1-5.9-1.2
		C38,63.4,37.8,63.3,37.7,63z"/>
	<path class="st4" d="M243.6,26.5c0.6,1.1,1.1,2.3,1.7,3.4c-0.5,0.2-1,0.1-1.4,0.1c-0.2,0-0.5,0-0.7-0.1c-0.2-0.1-0.3-0.3-0.4-0.5
		c-0.3-0.5-0.5-1.1-0.8-1.7c-0.2-0.4-0.3-0.7-0.5-1.1c-0.5-0.1-1-0.1-1.6,0c-0.4,1-0.5,2.1-0.9,3.2c-0.6,0.2-1.3,0.1-2,0
		c0.2-0.9,0.4-1.7,0.6-2.6c0.4-1.6,0.7-3.1,1.1-4.7c0.2-1,0.6-1.3,1.6-1.4c1,0,2.1,0,3.1,0c0.5,0,0.9,0.1,1.4,0.3
		c0.7,0.3,1,0.9,0.9,1.7c-0.1,0.5-0.2,1.1-0.4,1.6c-0.2,0.5-0.5,0.9-0.9,1.1C244.1,26.2,243.9,26.3,243.6,26.5z M240.1,25.2
		c0.8,0.1,1.5,0.1,2.2,0c0.4,0,0.7-0.3,0.9-0.7c0.1-0.2,0.2-0.5,0.2-0.7c0.2-0.7-0.1-1.1-0.7-1.1c-0.7-0.1-1.3-0.1-2.1,0
		C240.5,23.6,240.3,24.4,240.1,25.2z"/>
	<path class="st22" d="M20.7,63c0.4,0.4,0.9,0.2,1.3,0.1c0.1,0,0.1-0.2,0.2-0.3c0.3,0,0.6,0,0.9,0c0.2,0.2,0.4,0.2,0.6,0.2
		c0.2,0,0.5,0,0.6,0.2c-0.2,0.2-0.4,0.2-0.7,0.2c-0.5,0-1,0-1.5,0.1c-0.8,0.1-1.6,0.3-2.4,0.4c-1.9,0.2-3.6,0.7-5.4,1.3
		c-0.7,0.2-1.2,0.7-1.6,1.2c-0.4,0.5-0.3,1.5,0.2,1.9c0.6,0.4,1.2,0.8,1.9,1c2.7,0.9,5.4,1.3,8.2,1.5c0.3,0,0.5,0,0.7,0.2
		c-0.2,0.2-0.4,0.2-0.6,0.2c-0.2,0-0.5,0-0.6,0.2c-0.2,0-0.4,0-0.6,0c-0.1-0.1-0.1-0.3-0.2-0.3c-0.4-0.1-0.9-0.2-1.3,0.1
		c-0.1,0-0.3,0-0.4,0c0-0.2-0.1-0.4-0.3-0.4c-0.9-0.2-1.8-0.3-2.7-0.5c-1.7-0.3-3.3-0.8-4.8-1.7c-0.3-0.2-0.5-0.4-0.7-0.6
		c-0.6-0.7-0.6-1.5,0.2-2.1c0.7-0.5,1.4-0.9,2.2-1.2c1.5-0.6,3.1-0.9,4.7-1.1c0.6-0.1,1.1-0.1,1.7-0.2c0.2,0,0.3-0.2,0.3-0.4
		C20.4,63,20.6,63,20.7,63z"/>
	<path class="st22" d="M37.7,63c0,0.3,0.2,0.4,0.5,0.4c2,0.2,3.9,0.6,5.9,1.2c0.9,0.3,1.6,0.7,2.4,1.2c0.3,0.2,0.5,0.5,0.6,0.8
		c0.2,0.5,0.1,0.9-0.2,1.3c-0.3,0.3-0.6,0.6-1,0.8c-1.5,0.8-3.1,1.3-4.8,1.6c-0.9,0.2-1.8,0.3-2.6,0.5c-0.2,0-0.3,0.2-0.3,0.4
		c-0.1,0-0.3,0-0.4,0c-0.4-0.4-0.9-0.2-1.3-0.1c-0.1,0-0.1,0.2-0.2,0.3c-0.2,0-0.4,0-0.6,0c-0.2-0.1-0.3-0.2-0.5-0.2
		c-0.3,0-0.6,0-0.8,0c0-0.3,0.2-0.4,0.5-0.4c1,0.1,1.9-0.1,2.9-0.3c1.6-0.3,3.2-0.5,4.7-1c0.9-0.3,1.7-0.6,2.5-1.2
		c0.8-0.6,0.9-1.5,0.2-2.2c-0.2-0.2-0.4-0.4-0.7-0.5c-0.7-0.3-1.4-0.6-2.1-0.8c-1-0.3-2-0.6-3.1-0.7c-1.6-0.2-3.2-0.6-4.9-0.6
		c-0.3,0-0.5,0-0.7-0.2c0.2-0.2,0.4-0.2,0.6-0.2c0.2,0,0.5,0,0.6-0.2c0.3,0,0.6,0,0.9,0c0.1,0.1,0.1,0.3,0.2,0.3
		c0.4,0.1,0.9,0.2,1.3-0.1C37.5,63,37.6,63,37.7,63z"/>
	<path class="st22" d="M24.4,71.6c0-0.2,0-0.4,0-0.6c2.8,0,5.7,0,8.5,0c0.3,0,0.6-0.1,0.8,0.2c0,0.1,0,0.3,0,0.4c-0.6,0-1.3,0-1.9,0
		c-0.2-0.1-0.3-0.2-0.5-0.2c-1.5,0-3,0-4.5,0c-0.2,0-0.3,0.1-0.5,0.2c-0.1,0-0.2,0-0.3,0C25.5,71.4,24.9,71.5,24.4,71.6z"/>
	<path class="st22" d="M32.8,62.6c0,0.2,0,0.4,0,0.6c-2.5,0-5,0-7.6,0c0-0.2,0-0.4,0-0.6c0.8,0,1.5-0.1,2.3,0.2c0.2,0.1,0.5,0,0.7,0
		c0.5,0,1,0,1.5,0c0.4,0,0.8-0.1,1.1-0.1C31.5,62.6,32.1,62.6,32.8,62.6z"/>
	<path class="st23" d="M25.2,63.2c2.5,0,5,0,7.6,0c0.3,0,0.6,0,0.9,0c0.2,0.2,0.4,0.2,0.7,0.2c1.6,0,3.3,0.3,4.9,0.6
		c1.1,0.2,2.1,0.4,3.1,0.7c0.7,0.2,1.4,0.5,2.1,0.8c0.3,0.1,0.5,0.3,0.7,0.5c0.7,0.7,0.6,1.6-0.2,2.2c-0.7,0.6-1.6,0.9-2.5,1.2
		c-1.5,0.5-3.1,0.7-4.7,1c-0.9,0.2-1.9,0.4-2.9,0.3c-0.3,0-0.5,0.1-0.5,0.4c-0.2,0-0.4,0-0.6,0c-0.2-0.3-0.5-0.2-0.8-0.2
		c-2.8,0-5.7,0-8.5,0c-0.2,0-0.4,0-0.6,0c-0.2-0.2-0.4-0.2-0.7-0.2c-2.8-0.2-5.5-0.6-8.2-1.5c-0.7-0.2-1.3-0.6-1.9-1
		c-0.6-0.4-0.7-1.4-0.2-1.9c0.4-0.5,1-1,1.6-1.2c1.8-0.6,3.5-1.1,5.4-1.3c0.8-0.1,1.6-0.3,2.4-0.4c0.5-0.1,1,0,1.5-0.1
		c0.3,0,0.5,0,0.7-0.2C24.7,63.2,24.9,63.2,25.2,63.2z M28.7,70.6c0.2,0,0.4,0,0.6,0c1.7,0,3.4,0.2,5-0.2c1.3,0,2.5-0.2,3.7-0.4
		c1.2-0.2,2.3-0.5,3.4-0.8c0.7-0.3,1.3-0.7,1.9-1.2c0.4-0.3,0.5-0.8,0.2-1.3c-0.1-0.2-0.3-0.4-0.5-0.6c-0.4-0.3-0.9-0.6-1.4-0.8
		c-1.5-0.6-3.2-0.9-4.8-1.2c-0.9-0.2-1.8-0.2-2.8-0.3c-0.2,0-0.4,0-0.5,0c-0.6-0.2-1.3-0.2-1.9-0.2c-1.8,0-3.5,0-5.3,0
		c-0.7,0-1.5-0.1-2.2,0.2c-0.2,0.1-0.4,0-0.5,0C22.8,64,21.9,64,21,64.1c-1.5,0.3-3.1,0.6-4.6,1.1c-0.6,0.2-1.2,0.6-1.7,0.9
		c-0.7,0.5-0.6,1.5,0.1,2c0.6,0.4,1.2,0.7,1.9,1c2.1,0.7,4.3,1,6.5,1.2c0.2,0,0.4,0.1,0.6,0.1c0.4,0,0.7,0.1,1.1,0.1
		C26.2,70.6,27.4,70.6,28.7,70.6z"/>
	<path class="st19" d="M240.1,25.2c0.2-0.8,0.4-1.6,0.6-2.5c0.7-0.1,1.4-0.1,2.1,0c0.7,0.1,0.9,0.4,0.7,1.1
		c-0.1,0.2-0.1,0.5-0.2,0.7c-0.2,0.4-0.5,0.6-0.9,0.7C241.6,25.3,240.9,25.4,240.1,25.2z"/>
	<path class="st24" d="M28.7,70.6c-1.3,0-2.5,0-3.8,0c-0.4,0-0.7-0.1-1.1-0.1c-0.2,0-0.4-0.1-0.6-0.1c-2.2-0.2-4.4-0.5-6.5-1.2
		c-0.7-0.2-1.3-0.6-1.9-1c-0.7-0.5-0.8-1.5-0.1-2c0.5-0.4,1.1-0.7,1.7-0.9c1.5-0.5,3-0.8,4.6-1.1c0.9-0.2,1.8-0.2,2.8-0.3
		c0.2,0,0.4,0,0.5,0c0.7-0.3,1.5-0.2,2.2-0.2c1.8,0,3.5,0,5.3,0c0.6,0,1.3-0.1,1.9,0.2c0.2,0.1,0.4,0,0.5,0c0.9,0.1,1.9,0.1,2.8,0.3
		c1.6,0.3,3.2,0.6,4.8,1.2c0.5,0.2,1,0.4,1.4,0.8c0.2,0.1,0.4,0.4,0.5,0.6c0.2,0.5,0.2,0.9-0.2,1.3c-0.6,0.5-1.2,0.9-1.9,1.2
		c-1.1,0.4-2.3,0.6-3.4,0.8c-1.2,0.2-2.5,0.5-3.7,0.4c-1.7,0.4-3.4,0.2-5,0.2c0-0.3,0.2-0.4,0.5-0.4c1,0,1.9,0,2.9,0
		c0.3,0,0.6,0,0.9,0c0.8-0.1,1.6-0.3,2.4-0.4c1.4-0.1,2.7-0.4,4-0.9c0.5-0.2,1-0.4,1.5-0.7c0.7-0.4,0.7-1.1,0.2-1.7
		c-0.6-0.7-1.5-1-2.4-1.2c-1.8-0.5-3.6-0.9-5.5-0.9c-0.1,0-0.2,0-0.3,0c-0.7-0.3-1.5-0.2-2.2-0.2c-1.8,0-3.5,0-5.3,0
		c-0.3,0-0.6-0.1-0.9,0c-1,0.3-2.1,0.2-3.1,0.4c-1.4,0.2-2.8,0.5-4.2,0.9c-0.5,0.2-1,0.5-1.5,0.8c-0.6,0.5-0.6,1.4,0.1,1.8
		c0.6,0.4,1.2,0.7,1.8,0.9c1.7,0.4,3.4,0.9,5.2,0.9c0.2,0,0.4,0,0.5,0.1c0.5,0.2,1,0.2,1.5,0.2c0.9,0,1.8,0,2.7,0
		C28.5,70.1,28.6,70.3,28.7,70.6z"/>
	<path class="st25" d="M28.7,70.6c0-0.3-0.2-0.4-0.5-0.4c-0.9,0-1.8,0-2.7,0c-0.5,0-1,0-1.5-0.2c-0.2-0.1-0.4,0-0.5-0.1
		c-1.8,0-3.5-0.5-5.2-0.9c-0.6-0.2-1.3-0.5-1.8-0.9c-0.7-0.4-0.7-1.3-0.1-1.8c0.5-0.3,1-0.7,1.5-0.8c1.4-0.4,2.8-0.7,4.2-0.9
		c1-0.2,2.1,0,3.1-0.4c0.3-0.1,0.6,0,0.9,0c1.8,0,3.5,0,5.3,0c0.8,0,1.5-0.1,2.2,0.2c0.1,0,0.2,0,0.3,0c1.9,0,3.7,0.4,5.5,0.9
		c0.8,0.2,1.7,0.5,2.4,1.2c0.5,0.6,0.5,1.3-0.2,1.7c-0.5,0.3-1,0.5-1.5,0.7c-1.3,0.5-2.6,0.8-4,0.9c-0.8,0.1-1.6,0.3-2.4,0.4
		c-0.3,0-0.6,0-0.9,0c-1,0-1.9,0-2.9,0c-0.3,0-0.5,0.1-0.5,0.4C29.1,70.6,28.9,70.6,28.7,70.6z M40.3,67.1c-0.5-0.7-1.1-1.2-1.9-1.4
		c-1.5-0.5-3-0.8-4.6-0.9c-0.2,0-0.5-0.1-0.7-0.1c-0.4,0-0.7-0.1-1.1-0.1c-2,0-4,0-5.9,0c-0.2,0-0.4,0-0.6,0c-1,0.3-2.1,0.2-3.1,0.4
		c-1.2,0.3-2.5,0.5-3.6,1c-0.2,0.1-0.4,0.2-0.5,0.4c-0.6,0.6-0.6,1.2,0.1,1.7c0.1,0.1,0.2,0.2,0.4,0.2c0.5,0.2,1.1,0.4,1.6,0.6
		c0.8,0.2,1.7,0.4,2.5,0.5c1,0.1,2,0.4,3.1,0.4c1,0,2-0.1,3,0.2c0.2,0.1,0.4,0,0.5,0c0.5-0.2,1.1-0.1,1.6-0.2c0.7,0,1.4,0,2.2,0
		c1-0.1,1.9-0.2,2.9-0.4c1.1-0.2,2.2-0.4,3.2-0.9C39.7,68.1,40.1,67.7,40.3,67.1z"/>
	<path class="st26" d="M40.3,67.1c-0.1,0.7-0.6,1-1.1,1.3c-1,0.5-2.1,0.7-3.2,0.9c-0.9,0.2-1.9,0.3-2.9,0.4c-0.7,0.1-1.4,0-2.2,0
		c-0.5,0-1.1-0.1-1.6,0.2c-0.2,0.1-0.4,0.1-0.5,0c-1-0.3-2-0.2-3-0.2c-1,0-2.1-0.2-3.1-0.4c-0.9-0.1-1.7-0.3-2.5-0.5
		c-0.5-0.2-1.1-0.4-1.6-0.6c-0.1-0.1-0.3-0.1-0.4-0.2c-0.7-0.5-0.7-1.1-0.1-1.7c0.2-0.1,0.3-0.3,0.5-0.4c1.1-0.5,2.4-0.8,3.6-1
		c1-0.2,2.1-0.1,3.1-0.4c0.2-0.1,0.4,0,0.6,0c2,0,4,0,5.9,0c0.4,0,0.7,0.1,1.1,0.1c0.2,0,0.5,0.1,0.7,0.1c1.6,0.1,3.1,0.4,4.6,0.9
		C39.1,65.9,39.8,66.3,40.3,67.1z M29.1,69.3c1.1,0,2.5,0,3.8-0.2c1.3-0.2,2.5-0.4,3.8-0.7c0.4-0.1,0.8-0.4,1-0.7
		c0.3-0.4,0.3-0.8-0.1-1.1c-0.3-0.3-0.7-0.5-1.1-0.6c-1.3-0.3-2.6-0.8-4-0.7c-0.1,0-0.3,0-0.4,0c-0.5-0.2-1-0.2-1.5-0.2
		c-1.7,0.1-3.4,0-5.2,0.2c-1.5,0.2-2.9,0.5-4.3,0.9c-0.4,0.1-0.6,0.3-0.9,0.6c-0.4,0.5-0.3,1.1,0.3,1.4c0.3,0.1,0.5,0.3,0.8,0.4
		c1.2,0.3,2.3,0.7,3.6,0.7c0.2,0,0.4,0,0.6,0.1c0.4,0,0.8,0.1,1.3,0.1C27.5,69.3,28.2,69.3,29.1,69.3z"/>
	<path class="st27" d="M29.1,69.3c-0.9,0-1.6,0-2.3,0c-0.4,0-0.8-0.1-1.3-0.1c-0.2,0-0.4-0.1-0.6-0.1c-1.2,0-2.4-0.4-3.6-0.7
		c-0.3-0.1-0.5-0.2-0.8-0.4c-0.6-0.3-0.7-0.9-0.3-1.4c0.2-0.3,0.5-0.5,0.9-0.6c1.4-0.4,2.8-0.7,4.3-0.9c1.7-0.2,3.4-0.1,5.2-0.2
		c0.5,0,1-0.1,1.5,0.2c0.1,0.1,0.3,0.1,0.4,0c1.4,0,2.7,0.4,4,0.7c0.4,0.1,0.8,0.4,1.1,0.6c0.4,0.3,0.4,0.8,0.1,1.1
		c-0.3,0.3-0.6,0.6-1,0.7c-1.2,0.3-2.5,0.6-3.8,0.7C31.6,69.3,30.3,69.2,29.1,69.3z M28.9,68.9c1.2-0.1,2.5-0.1,3.7-0.3
		c0.8-0.1,1.6-0.2,2.4-0.6c0.2-0.1,0.3-0.1,0.5-0.2c0.5-0.4,0.4-1-0.1-1.2c-0.3-0.2-0.6-0.4-1-0.4c-1-0.2-2-0.5-3.1-0.5
		c-0.2,0-0.5-0.1-0.7-0.1c-1-0.2-2.1-0.1-3.1,0c-0.4,0-0.9,0.2-1.3,0.1c-1,0-2,0.3-2.9,0.6c-0.3,0.1-0.5,0.2-0.8,0.4
		c-0.4,0.2-0.4,0.7-0.1,1c0.2,0.2,0.5,0.4,0.8,0.5c0.5,0.2,1,0.3,1.6,0.3C26.1,68.7,27.5,68.9,28.9,68.9z"/>
	<path class="st4" d="M28.9,68.9c-1.4,0-2.8-0.2-4.2-0.4c-0.5-0.1-1.1-0.1-1.6-0.3c-0.3-0.1-0.6-0.3-0.8-0.5c-0.3-0.3-0.2-0.8,0.1-1
		c0.2-0.2,0.5-0.3,0.8-0.4c1-0.2,1.9-0.6,2.9-0.6c0.4,0,0.8-0.1,1.3-0.1c1-0.1,2.1-0.1,3.1,0c0.2,0,0.5,0.1,0.7,0.1
		c1.1-0.1,2.1,0.2,3.1,0.5c0.3,0.1,0.7,0.3,1,0.4c0.5,0.3,0.5,0.9,0.1,1.2c-0.1,0.1-0.3,0.2-0.5,0.2c-0.7,0.4-1.6,0.5-2.4,0.6
		C31.4,68.8,30.1,68.8,28.9,68.9z M33.2,67.1c-0.2-0.4-0.5-0.6-0.9-0.7c-0.9-0.2-1.8-0.3-2.6-0.4c-1.2-0.1-2.3,0.1-3.4,0.2
		c-0.5,0.1-1.2,0.2-1.4,0.9c0.2,0.5,0.7,0.7,1.2,0.8c0.3,0.1,0.6,0.1,0.8,0.2c1.4,0,2.9,0,4.3,0c0.3,0,0.6-0.1,0.8-0.2
		C32.5,67.9,32.9,67.7,33.2,67.1z"/>
	<path class="st2" d="M33.2,67.1c-0.3,0.5-0.7,0.7-1.2,0.9c-0.3,0.1-0.6,0.2-0.8,0.2c-1.4,0-2.9,0-4.3,0c-0.3,0-0.6-0.1-0.8-0.2
		c-0.5-0.1-0.9-0.3-1.2-0.8c0.2-0.7,0.9-0.8,1.4-0.9c1.1-0.1,2.3-0.4,3.4-0.2c0.9,0.1,1.8,0.2,2.6,0.4C32.7,66.5,33,66.7,33.2,67.1z
		"/>
</g>
</svg>
