<?xml version="1.0" encoding="utf-8"?>
<!-- Generator: Adobe Illustrator 21.0.0, SVG Export Plug-In . SVG Version: 6.00 Build 0)  -->
<svg version="1.1" id="Camada_1" xmlns="http://www.w3.org/2000/svg" xmlns:xlink="http://www.w3.org/1999/xlink" x="0px" y="0px"
	 viewBox="0 0 250 125" style="enable-background:new 0 0 250 125;" xml:space="preserve">
<style type="text/css">
	.st0{fill:#29166D;}
	.st1{fill:#D92317;}
	.st2{fill:#CA140E;}
	.st3{fill:#1A0A64;}
	.st4{fill:#D31910;}
	.st5{fill:#D5271F;}
	.st6{fill:#493B80;}
	.st7{fill:#F1AB03;}
	.st8{fill:#F2AB02;}
	.st9{fill:#F0AA04;}
	.st10{fill:#2E1862;}
	.st11{fill:#331C5E;}
	.st12{fill:#EFAD0A;}
	.st13{fill:#D19B2D;}
	.st14{fill:#E8A410;}
	.st15{fill:#D8261D;}
	.st16{fill:#F9F2F0;}
	.st17{fill:#FAF3F2;}
	.st18{fill:#FAF5F4;}
	.st19{fill:#D8251C;}
	.st20{fill:#D72A22;}
	.st21{fill:#C01A19;}
	.st22{fill:#C43736;}
	.st23{fill:#E8A60A;}
</style>
<g>
	<path class="st0" d="M249.8,91.1c0,0.5,0,1.1,0,1.6c-0.2,0.3-0.5,0.7-0.7,1c-0.9,0-1.9,0.1-2.8,0.1c-81.2,0-162.4,0-243.6,0
		c-0.8,0-1.7,0-2.6,0c0-0.7,0-1.2,0-1.7C1.8,91.7,1,90.3,1,89.3c0-28.2,0-56.5,0-84.7c0-0.7,0.1-1.4-0.1-2C0.9,2.3,0.4,2.1,0.1,1.9
		c0-0.5,0-1,0.1-1.5c1.2,0.2,2.3,0.5,3.5,0.5c81.8,0,163.6,0,245.5,0c0,29.1,0,58.1,0,87.2c0,0.7-0.1,1.4,0,2
		C249.2,90.5,249.6,90.8,249.8,91.1z M98,32.8L98,32.8c-0.1,0.2-0.3,0.3-0.5,0.5l0,0c-2-0.5-1.7,0.8-1.6,2l0,0
		c-0.2,0.3-0.4,0.7-0.6,1l0,0c-2.2,0.2-1.4,1.9-1.5,3.1l0,0c-0.4,0.6-1,1.1-1.2,1.8c-1.5,4.3-1.1,8.7-0.6,13.1
		c0.2,2.1,0.6,4.3,1,6.6c0.4,0,1.1,0,1.9,0l0,0c0,0.8-0.1,1.6,1,1.6c0,0,0,0,0,0c0,0.9-0.1,1.7,0,2.5c0.1,0.6,0.5,1.5,1,1.7
		c1.8,0.8,3.8,1.3,5.7,1.9l0,0c0.2,0.1,0.4,0.3,0.6,0.4l0,0c0.3,0.5,0.6,1.4,1,1.6c1.6,0.5,3.2,0.8,4.9,1.2c0.5,0.1,1.2-0.1,1.7-0.1
		c1.2-0.1,2.5,0.6,3.3-0.9c0.4-0.3,0.9-0.5,1.3-0.8c0.4-0.2,0.7-0.5,1-0.8c0.4,0.7,0.7,1.5,1.1,2.2c0.1,0.2,0.3,0.4,0.4,0.6
		c0.4,0,0.7,0,1.1,0c0.3,0,0.6,0,0.9,0c7.2,0,14.4,0,21.7,0c1.1-0.1,2.2-0.2,3.2-0.3c0.3-0.2,0.5-0.3,0.8-0.5c0-13.8,0-27.6,0-41.4
		c0-0.9-0.3-1.8-0.4-2.6c-1.1-1-1.7,0.2-2.6,0.4c0,0.9,0,1.5,0,2.2c0,0,0,0,0,0c-0.1,0.2-0.3,0.4-0.4,0.6c0,0,0,0,0,0
		c-0.2,0.3-0.4,0.7-0.6,1c0,0,0,0,0,0c-0.2,0.3-0.4,0.7-0.6,1l0,0c-0.8,0.4-2,0.6-2.3,1.2c-0.7,1.4-0.9,3-1.3,4.5l0,0
		c-0.1,0.2-0.3,0.4-0.4,0.6l0,0c-1,0-2.1,1-3-0.3c1-1.2,2.3-2.2,3-3.5c0.6-1.3,0.5-2.9,0.7-4.4l0.1-0.2c0.7-0.8,2.7-0.8,1.5-2.6
		c0,0,0,0,0,0c0.3-0.3,0.9-0.6,0.9-0.8c-0.3-1.3-1.4-1.2-2.4-1.2c-7.6,0-15.3,0.1-22.9,0c-3.8-0.1-7.3,1.2-10.8,2.2
		c-0.2,0.1-0.3,0.7-0.4,1c0,0,0,0,0,0c-0.5,0.3-1.1,0.6-1.6,0.9l0,0c-1.5-0.1-2.3,0.5-2.6,2l0,0c-0.3,0.2-0.6,0.5-0.9,0.7l0,0
		C98.4,32.4,98.2,32.6,98,32.8z M190.7,64.4L190.7,64.4c0.2,0.2,0.3,0.3,0.5,0.5c0,0,0,0,0,0c0.4,0.3,0.7,0.7,1.1,1l0,0
		c0.2,0.2,0.4,0.3,0.6,0.5l0,0c0,0.8,0.3,1.2,1.1,0.9l-0.1,0.1l0.1,0c1.7,2.5,4.4,3.4,7.1,4.2c1.1,0.4,2.2,0.7,3.3,0.9
		c1,0.2,2.3,0.6,2.6-1.1l0,0c0.6,0,1.3,0,1.9,0c-0.1-1-0.2-1.8-0.3-2.7l0.1-0.2c1.3-0.2,1.6-1,1.4-2.2l0-0.1
		c1.2,0.4,2.1,0.9,1.7,2.3c-0.4,1.1-0.5,1.1-0.2,1.6c0,0,0,0,0,0c-0.4,0.4-0.9,0.8-1.5,1.4c0.7,0.3,0.9,0.4,1.1,0.5
		c4.7,0.2,9.4,0.4,14.2,0.5c3.2,0.1,6.4-0.1,9.6-0.2c0.5,0,1-0.5,1.5-0.8c0-3.2,0-6.5,0-9.7c0-0.7-0.3-1.4-0.5-2.1
		c-0.1-0.5-0.1-1-0.2-1.5c0.1-0.1,0.1-0.3,0.2-0.5c0-0.2,0-0.4,0-0.6c-1.5-0.2-3.1-0.3-4.6-0.5c0.6-0.5,1.2-1.1,2-1.8
		c-0.7-0.3-1.3-0.5-2-0.8c0-2.7,0-5.5,0-8.2c-0.2-0.2-0.3-0.3-0.5-0.5c-1.1-0.2-2.2-0.5-3.3-0.5c-1.4,0-1.7-1.2-2.2-2
		c-0.1-0.1,0.6-0.7,0.9-1.1c0.2,0.3,0.4,0.8,0.7,0.8c2.4,0.2,4.9,0.2,7.3,0.4c1.8,0.1,2.9-0.8,2.8-2.5c-0.2-3.8-0.4-7.6-0.5-11.4
		c0-0.4,0.3-0.7,0.5-1.1c0.2,0.3,0.4,0.5,0.6,0.8c0.1-0.1,0.1-0.1,0.2-0.2c-0.3-0.2-0.6-0.4-0.8-0.6c-0.3-0.5-0.5-1.1-0.9-1.7
		c-0.6,0.5-0.9,0.8-1.3,1.1c-0.3,0.2-0.7,0.4-1.3,0.8c0.1-0.9,0.1-1.4,0.1-2.2c-1-0.2-2.1-0.4-3.2-0.4c-7.8,0-15.6-0.1-23.5,0
		c-3.4,0-6.5,0.9-9.6,2.3c-0.4,0.2-0.7,0.8-1.1,1.2c0,0.1-0.1,0.1-0.2,0.1c-0.3,0.2-0.5,0.3-0.8,0.5c-3.3,2.4-6.3,5.2-7.8,9.2
		c-3.3,8.7-2.8,17.1,2.7,25C190.4,64,190.6,64.2,190.7,64.4z M26.8,35.7L26.8,35.7c0.2,0.3,0.4,0.7,0.6,1c0,0,0,0,0,0
		c0.2,0.3,0.4,0.7,0.6,1l0,0c0.1,0.2,0.3,0.4,0.4,0.6l0,0c-0.1,0.8-0.3,1.6-0.5,2.7c0.9,0.3,1.7,0.6,2.6,0.9l0,0
		c0.2,0.4,0.4,0.8,0.7,1.1c0.1,0.1,0.2,0.2,0.2,0.3c-0.2,0.3-0.7,0.7-0.7,1c0.1,0.7,0.4,1.4,0.6,2.1c0.5-0.1,1.1-0.3,1.7-0.4l0,0
		c0,0.7,0,1.5-1,1.7c-0.2,0-0.4,0.6-0.3,0.9c-0.5,0.1-0.7,0.1-0.8,0.1c-0.1,0.2-0.1,0.5-0.2,0.7c0.3-0.2,0.5-0.5,0.6-0.8
		c1,0,2.1,0,3.1,0l0,0c0,0.9-0.1,1.8,1.2,2c0,0,0,0,0,0c-0.5,0.3-0.9,0.6-1.5,0.9c1.3,0.7,2.2,1.2,3,1.7l0,0
		c0.1,0.2,0.3,0.4,0.4,0.6l0,0c0,0.8-0.2,1.6,1,1.6c0.1,0,0.1,0.1,0.1,0.2c0.2,0.3,0.3,0.5,0.5,0.8l0,0c0,0.7-0.2,1.5,0.9,1.6
		c0.1,0,0.2,0.1,0.1,0.3c0,0.7,0,1.3,0,1.9c1.1,0.5,2.1,1,3,1.4c0,0.8,0,1.4,0,2.1l0,0c-1.7,0.7-1.7,0.7-1,2.9
		c0.4-0.5,0.7-1.1,1.1-1.6l0,0c0.2,0.2,0.3,0.4,0.5,0.6l0,0c0,0.8-0.2,1.6,1,1.6l0,0c0,0.9-0.2,1.9,1.2,1.9L45.7,69l0.1-0.1
		c0,1.5,0,3,0,4.8c0.8-0.9,1.3-1.4,1.8-2l0,0c0.4,1.4,0.4,2.7-1.1,3.6c0.1,0.1,0.2,0.3,0.3,0.4c1.1,0,2.3,0,3.4,0l0,0
		c0,0.5,0,1.1,0,1.6c0,0.2,0,0.3,0,0.5c1.1,1.4,1.6,3.2,3.7,3.5c0.9,1.2,1.8,2.4,2.8,3.8c0.4-0.7,0.7-1.1,1-1.5
		C64.1,73,70.6,62.4,77,51.8c4.2-6.9,8.5-13.8,12.7-20.7c2.2-1.3,4.1-2.7,3.5-5.7l0,0c0.2-0.3,0.4-0.7,0.6-1l0,0
		c0.8,0,1.2-0.4,0.8-1.2l0.1,0.2l-0.1-0.2c0.2-0.3,0.4-0.6,0.6-0.9c0,0,0,0,0,0c0.8-0.5,1.7-1,2.7-1.6c-0.4-0.4-0.8-0.7-1.2-1l0,0
		c1.3-0.4,1.9-1.2,1.6-2.6c0,0,0,0,0,0c0.2-0.3,0.4-0.7,0.6-1l0,0c1.1-0.4,1.4-1.3,1.4-2.7c-9.1,0-18.1,0-27.3,0
		c0,0.4-0.1,1.1-0.1,1.7c0,0,0,0,0,0c-0.2,0.3-0.3,0.5-0.5,0.8c0.1,0.1,0,0.2-0.1,0.2c-0.8,0-1.1,0.4-0.8,1.2l-0.2-0.1
		c0,0,0.2,0,0.2,0c-0.8,0.8-1.7,1.6-2.5,2.5c-0.9,1-1.7,0.9-2.3-0.5c0.2-0.4,0.3-0.8,0.5-1.1c0.2-0.6,0.5-1.2,0.7-1.8l0-0.1
		c0,0,0,0.1,0,0.1c0.1-0.2,0.3-0.4,0.4-0.6c0,0,0,0,0,0c0.3-0.4,0.6-0.9,1.1-1.5c-0.9,0-1.5,0-2.2,0c-0.3,0-0.7,0-1,0
		c-0.3,0-0.7,0-1,0c-0.9,0-1.9-0.1-2.8-0.1c-12.9,0-25.8,0-38.8,0c-2.7,0-5.4,0.1-8.2,0.1c-0.3,0-0.6,0.1-0.9,0.1
		c0.3,0.5,0.5,0.9,0.8,1.4l0,0c0.2,0.3,0.4,0.7,0.6,1c0.2,0.5,0.4,0.9,0.7,1.4c1.9,3.2,3.7,6.5,5.6,9.7c0.1,0.2,0.3,0.4,0.4,0.7
		c0.2,0.3,0.4,0.7,0.6,1c-0.3,1.3,0.2,2.2,1.5,2.6l0.1,0.2c0,1.2,0.2,2.4,1.6,2.7l0,0C26.5,35.3,26.6,35.5,26.8,35.7z M153.1,14.7
		c-1.2-0.5-0.8,0.5-0.8,0.9c0,15.5,0,31,0,46.5c0,0.7,0.5,1.3,0.7,2c1,4.3,3.7,7,8,8c1.2,0.3,2.5,0.4,3.8,0.6
		c1.7,0.3,2.8-0.3,3.7-1.8c2.9-4.9,5.9-9.7,8.9-14.6c1.6,0.6,0.9-0.8,0.9-1.2c0-9.5,0-19,0-28.5c0-3.3,0-6.6,0-9.9
		c0-0.7,0.3-1.6-0.8-1.8c-0.6-0.2-1.3-0.5-1.9-0.5c-6.9,0-13.8,0-20.7,0C154.3,14.2,153.7,14.5,153.1,14.7z M180.9,57.6
		c-0.1,0-0.2-0.1-0.4-0.1c-3,5-5.9,9.9-9,15.1c3.4,0,6.3,0,9.4,0C180.9,67.5,180.9,62.6,180.9,57.6z M228.7,44.1
		c-0.4-0.3-0.6-0.6-0.7-0.5c-0.3,0-0.5,0.2-0.7,0.4c0.1,0.2,0.3,0.4,0.4,0.4C228,44.4,228.2,44.2,228.7,44.1z M39.2,60.4
		c0-0.2-0.1-0.3-0.1-0.5c-0.3,0.1-0.6,0.1-0.9,0.3c0,0,0.1,0.4,0.1,0.6C38.7,60.6,39,60.5,39.2,60.4z M237.7,44
		c-0.1-0.1-0.1-0.4-0.2-0.4c-0.1,0-0.3,0.1-0.4,0.1c0.1,0.2,0.2,0.4,0.3,0.5C237.5,44.2,237.6,44.1,237.7,44z M139.3,30.3
		c0,0.1,0,0.2,0,0.2c0.1,0,0.2,0,0.2,0c0-0.1,0-0.2-0.1-0.3C139.4,30.2,139.3,30.3,139.3,30.3z M234.4,44.3c0-0.1,0-0.2-0.1-0.2
		c-0.1,0-0.2,0-0.2,0c0,0.1,0,0.2,0.1,0.3C234.3,44.3,234.4,44.3,234.4,44.3z"/>
	<path class="st1" d="M121,124.9c-3.9,0-7.9,0-11.8,0c-0.6-0.2-1.2-0.5-1.9-0.5c-8.7,0-17.3,0-26,0c-0.6,0-1.2,0.3-1.9,0.5
		c-3.2,0-6.5,0-9.7,0c-0.4-0.2-0.9-0.5-1.3-0.5c-2.7,0-5.4,0-8.1,0c-0.4,0-0.9,0.3-1.3,0.5c-6.2,0-12.4,0.1-18.6,0.1
		c-4.4,0-8.8-0.1-13.2-0.1c-1.4-0.8-2.7-0.8-4.1,0c-0.7,0-1.4,0-2.1,0c-0.8-0.2-1.6-0.5-2.4-0.5c-5.9,0-11.7,0-17.6,0c0-7,0-14,0-21
		c1.6,0.1,1.5,1.3,1.5,2.4c0,5,0,9.9,0,14.9c0,2.2,0.3,2.7,2.4,2.7c5.2,0.1,10.4,0,15.6,0c1.5,0,2.3-0.5,1.7-2.2
		c-0.1-0.2,0.5-0.6,0.8-0.9c0.3,0.3,0.7,0.7,1,1c0.5,0.3,1,0.7,1.6,1c0.1,0,0.3,0,0.4,0c0.7,0.2,1.4,0.4,2.1,0.5
		c9.5,0,18.9,0,28.4,0c0.3-0.1,0.6-0.3,0.9-0.4c0.8,0,1.6,0,2.5,0c0.8,0,1.5-0.2,1.4-1.2l0,0.2l0-0.2c0.2-0.2,0.4-0.3,0.5-0.5l0,0
		c0.2,0.1,0.4,0.1,0.7,0.2c0,0.3,0,0.7,0,1c0.3,0.3,0.7,0.7,1,1c2.2,0.8,4.4,0.3,6.7,0c2.5,0,5,0,7.5,0c0.9,0,1.7,0,1.6-1.3
		c0.6-0.6,1.3-1.3,1.9-1.9c0.2-0.2,0.4-0.4,0.7-0.6l0,0c0.2-0.2,0.4-0.4,0.5-0.5l0,0c0.9,0,1.8,0.1,2.7,0.1c0,1.4-1.2,1.5-2.1,2.1
		c-0.3,0.3-0.7,0.7-1,1l0,0c-0.3,0.1-0.6,0.3-0.8,0.4c0.3,0.2,0.6,0.4,0.8,0.6c1.3,0,2.6,0,3.9,0c5.7,0,11.4,0.1,17.1,0
		c1.4,0,2.7-0.6,4.1-1c0.7-0.2,1.4-0.3,2.1-0.5c0.5,0.3,1,0.7,1.5,1c0.6,0.2,1.2,0.5,1.8,0.5c2.5,0.1,4.9,0,7.4,0
		c0.5,0.1,1,0.2,1.5,0.2c1.8,0.1,3.7,0.1,5.5,0.1c0.2,0,0.4-0.4,0.6-0.7c-0.5-0.6-1-1.2-1.7-2.1c1-0.3,1.7-0.4,2.3-0.6
		c0.2,0.7,0.4,1.4,0.5,2.1c0.1,0.1,0.1,0.2,0,0.3c0.1,0.1,0.1,0.4,0.2,0.4c2.7,0,5.5,0,8.2,0c0.1,0,0.1-0.3,0.2-0.4
		c-0.1-0.1-0.1-0.2,0-0.3c0.2,0,0.4,0,0.5,0c-0.1,1.2,0.5,1.6,1.6,1.6c3.7-0.1,7.4-0.1,11.1,0c1.5,0,2.2-0.5,2.1-2.1
		c0.3,0,0.7,0,1,0c0.1,0.6,0.1,1.3,0.2,2c1.6-0.2,3.3,0.8,4.4-1c0.2,0,0.4,0,0.6,0l0,0c0.8,0.2,1.5,0.6,2.3,0.6c3.7,0.1,7.3,0,11,0
		c2.9,0.6,5.8,1,8.9-0.2c-0.7-1.3-2.1-2.4-0.1-3.4c0.3,0.4,0.7,0.7,1,1.1c0.3,0.4,0.4,1,0.6,1.5c0.2,0.2,0.3,0.4,0.5,0.5
		c0.8,0.2,1.6,0.5,2.4,0.5c8.4,0,16.9,0,25.3,0c1.9-0.2,3.8-0.3,5.6-0.5c0.7,0.4,1.5,0.7,2.6,1.3c-0.3-1.2-0.4-1.7-0.5-2.3
		c0.3-0.2,0.6-0.4,1-0.6l0,0c0.9-0.1,1.8-0.3,2.7-0.4c1.3,0.2,1.7-0.6,2-1.6c0.3-0.3,0.6-0.6,0.8-0.9c0.1,1,0.1,2,0.2,3
		c-0.3,0.3-0.7,0.7-1,1c-0.3,0.1-0.5,0.2-0.8,0.3c0,0.2,0,0.4,0,0.6c1.2,0.2,2.4,0.7,3.6,0.7c7.4,0.1,14.9,0,22.3,0c0,0.3,0,0.7,0,1
		c-6.9,0-13.8,0-20.7,0c-0.8,0-1.6,0.3-2.4,0.5c-0.3,0-0.7,0-1,0c-0.5-0.7-1-0.7-1.5,0c-1,0-2.1,0-3.1,0c-1-0.8-2-0.8-3.1,0
		c-0.9,0-1.7,0-2.6,0c-0.9-0.8-1.7-0.8-2.6,0c-4.9,0-9.8,0.1-14.7,0.1c-6,0-12-0.1-18.1-0.1c-2.4-0.8-4.8-0.8-7.2,0
		c-4.4,0-8.9,0-13.3,0c-0.5-0.7-1-0.7-1.5,0c-0.7,0-1.4,0-2.1,0c-0.5-0.2-1.1-0.5-1.6-0.5c-5.1,0-10.2,0-15.2,0
		c-0.5,0-1.1,0.3-1.6,0.5c-3.8,0-7.5,0-11.3,0C124.1,124.1,122.5,124.1,121,124.9z M222,122c-0.1,0.1-0.3,0.1-0.4,0.2
		c0,0.1,0.1,0.3,0.2,0.4c0.2-0.1,0.3-0.2,0.5-0.3C222.2,122.2,222.1,122.1,222,122z"/>
	<path class="st2" d="M249.1,124.4c0-0.3,0-0.7,0-1c0-7.6,0-15.3,0-23.1c-40.3,0-80.1,0-119.9,0c-0.9,0-1.7,0-2.6,0
		c-22.2,0-44.4,0-66.6,0c-0.3,0-0.7,0-1,0c-19.3,0-38.6,0-57.9,0c-0.2,0-0.3,0-0.5,0c0-0.2,0-0.4-0.1-0.6c0.8-0.1,1.7-0.2,2.5-0.2
		c81.3,0,162.6,0,243.9,0c0.9,0,1.8,0,2.9,0c0.1,0.9,0.2,1.6,0.2,2.2c0,7.1,0,14.2,0,21.3c0,0.5-0.1,1-0.2,1.5
		C249.6,124.4,249.3,124.4,249.1,124.4z"/>
	<path class="st3" d="M249.1,0.9c-81.8,0-163.6,0-245.5,0c-1.2,0-2.3-0.3-3.5-0.5C1,0.3,1.8,0,2.6,0c66.9,0,133.8,0,200.8,0
		c14.9,0,29.9,0,44.8,0c0.4,0,0.8,0.1,1.3,0.1c-0.1,0.2-0.1,0.4-0.2,0.6L249.1,0.9z"/>
	<path class="st3" d="M0.1,1.9C0.4,2.1,0.9,2.3,1,2.6c0.1,0.7,0.1,1.4,0.1,2c0,28.2,0,56.5,0,84.7c0,0.9,0.8,2.3-0.9,2.8
		c0-0.6-0.1-1.2-0.1-1.8C0,61.4,0,32.6,0,3.7C0,3.1,0.1,2.5,0.1,1.9z"/>
	<path class="st3" d="M249.8,91.1c-0.2-0.3-0.6-0.6-0.7-0.9c-0.1-0.7,0-1.4,0-2c0-29.1,0-58.1,0-87.2c0,0,0.1-0.1,0.1-0.1
		c0.2-0.1,0.4-0.1,0.6-0.2c0,0.8,0.1,1.5,0.1,2.3c0,28.7,0,57.4,0,86.2C250,89.7,249.9,90.4,249.8,91.1z"/>
	<path class="st4" d="M0.6,100.3c0.2,0,0.3,0,0.5,0c0,1,0,2,0,3.1c0,7,0,14,0,21c-0.3,0-0.6,0-0.9,0c0-0.7,0-1.4,0-2
		c0-0.2,0-0.3,0-0.5c0-7.2,0-14.3,0-21.5c0,0,0.2,0,0.2,0L0.6,100.3z"/>
	<path class="st5" d="M79.5,124.9c0.6-0.2,1.2-0.5,1.9-0.5c8.7,0,17.3,0,26,0c0.6,0,1.2,0.3,1.9,0.5c-6,0-12,0.1-18,0.1
		C87.3,125,83.4,124.9,79.5,124.9z"/>
	<path class="st5" d="M249.1,124.4c0.2,0,0.4,0.1,0.7,0.1c-0.3,0.2-0.7,0.5-1,0.5c-7.6,0-15.1-0.1-22.7-0.1c0.8-0.2,1.6-0.5,2.4-0.5
		C235.3,124.4,242.2,124.4,249.1,124.4z"/>
	<path class="st5" d="M0.1,124.4c0.3,0,0.6,0,0.9,0c5.9,0,11.7,0,17.6,0c0.8,0,1.6,0.3,2.4,0.5c-6.7,0-13.4,0.1-20,0.1
		C0.7,125,0.4,124.6,0.1,124.4z"/>
	<path class="st5" d="M136.9,124.9c0.5-0.2,1.1-0.5,1.6-0.5c5.1,0,10.2,0,15.2,0c0.5,0,1.1,0.3,1.6,0.5
		C149.2,124.9,143,124.9,136.9,124.9z"/>
	<path class="st5" d="M59,124.9c0.4-0.2,0.9-0.5,1.3-0.5c2.7,0,5.4,0,8.1,0c0.4,0,0.9,0.3,1.3,0.5C66.2,124.9,62.6,124.9,59,124.9z"
		/>
	<path class="st5" d="M172.2,124.9c2.4-0.8,4.8-0.8,7.2,0C177,124.9,174.6,124.9,172.2,124.9z"/>
	<path class="st5" d="M121,124.9c1.5-0.8,3.1-0.8,4.6,0C124.1,124.9,122.5,124.9,121,124.9z"/>
	<path class="st5" d="M23.1,124.9c1.4-0.8,2.7-0.8,4.1,0C25.8,124.9,24.5,124.9,23.1,124.9z"/>
	<path class="st5" d="M217.3,124.9c1-0.8,2-0.8,3.1,0C219.4,124.9,218.4,124.9,217.3,124.9z"/>
	<path class="st5" d="M212.2,124.9c0.9-0.8,1.7-0.8,2.6,0C213.9,124.9,213.1,124.9,212.2,124.9z"/>
	<path class="st5" d="M223.5,124.9c0.5-0.7,1-0.7,1.5,0C224.5,124.9,224,124.9,223.5,124.9z"/>
	<path class="st5" d="M157.4,124.9c0.5-0.7,1-0.7,1.5,0C158.4,124.9,157.9,124.9,157.4,124.9z"/>
	<path class="st3" d="M249.1,93.7c0.2-0.3,0.5-0.7,0.7-1C249.6,93,249.4,93.3,249.1,93.7z"/>
	<path class="st6" d="M249.9,0.6c-0.2,0.1-0.4,0.1-0.6,0.2c0.1-0.2,0.1-0.4,0.2-0.6C249.6,0.3,249.7,0.4,249.9,0.6z"/>
	<path class="st5" d="M0.1,121.8c0,0.2,0,0.3,0,0.5C0.1,122.2,0.1,122,0.1,121.8z"/>
	<path class="st5" d="M0.6,100.3c0,0-0.2,0-0.2,0s-0.2,0-0.2,0c0.1-0.2,0.3-0.4,0.4-0.6C0.5,99.9,0.5,100.1,0.6,100.3z"/>
	<path class="st7" d="M72.3,16.3c0.1,0,0.1-0.1,0.1-0.2c0.2-0.3,0.3-0.5,0.5-0.8l0,0c0.8-1,1.8-1.1,2.9-1.1c7.4,0,14.8,0,22.1,0
		c0.5,0,0.9,0.1,1.5,0.1c-0.2,0.8-0.4,1.3-0.6,1.9c0,0,0,0,0,0c-0.2,0.3-0.4,0.7-0.6,1c0,0,0,0,0,0c-0.5,0.9-1,1.7-1.6,2.6
		c0,0,0,0,0,0c-0.5,0.8-1,1.7-1.5,2.5l0,0c-0.2,0.3-0.4,0.6-0.6,0.9l0.1,0.2l-0.1-0.2c-0.3,0.4-0.5,0.8-0.8,1.2l0,0
		c-0.2,0.3-0.4,0.7-0.6,1c0,0,0,0,0,0c-1.2,1.9-2.3,3.8-3.5,5.7C85.5,38,81.2,44.9,77,51.8C70.6,62.4,64.1,73,57.7,83.5
		c-0.3,0.4-0.5,0.8-1,1.5c-1-1.4-1.9-2.6-2.8-3.8c-1.2-1.9-2.4-3.8-3.7-5.6l0,0c-0.9-1.3-1.7-2.7-2.6-4l0,0
		c-0.6-0.9-1.2-1.8-1.8-2.7L45.7,69l0.1-0.1c-0.4-0.6-0.8-1.3-1.2-1.9l0,0c-0.3-0.5-0.7-1-1-1.6l0,0c-0.2-0.2-0.3-0.4-0.5-0.6
		c0,0,0,0,0,0c0-0.4-0.1-0.9-0.1-1.3c0,0,0,0,0,0c0.3-0.3,0.6-0.6,0.8-1c7.3-11.9,14.7-23.7,22-35.6c1.9-3.1,3.7-6.3,5.5-9.4l-0.2,0
		l0.2,0.1C71.7,17,72,16.6,72.3,16.3z"/>
	<path class="st8" d="M208.6,68.5l-0.1,0.2c-0.5,0.9-1.1,1.8-1.6,2.7l0,0c-0.7,0-1.3,0.1-2,0c-4-0.5-7.5-2.2-11-4.1l-0.1,0l0.1-0.1
		c-0.4-0.3-0.8-0.6-1.1-0.9l0,0c-0.2-0.2-0.4-0.3-0.6-0.5c0,0,0,0,0,0c-0.4-0.3-0.7-0.7-1.1-1c0,0,0,0,0,0c-0.2-0.2-0.3-0.4-0.5-0.5
		l0,0c-0.2-0.2-0.3-0.4-0.5-0.6c-5.5-7.8-5.9-16.2-2.7-25c1.5-4,4.4-6.8,7.8-9.2c0.3-0.2,0.5-0.3,0.8-0.5c0.1,0,0.2,0,0.2-0.1
		c3.1-1.2,6.1-2.6,9.6-2.5c8.3,0,16.6,0,24.8,0c0.6,0,1.2,0.1,2,0.2c-1.5,2.8-2.9,5.3-4.3,7.8c-0.1,0.2-0.2,0.4-0.4,0.7
		c-0.7,1.2-1.4,2.4-2.1,3.6c-3.4,5.6-6.7,11.2-10,16.8c-2.1,3.5-4,7.1-6,10.6l0,0.1C209.5,67,209,67.8,208.6,68.5z"/>
	<path class="st8" d="M114.1,70.6c-0.8,1.5-2.1,0.8-3.3,0.9c-2.5-0.9-5.1-1.7-7.6-2.6l0,0c-0.2-0.1-0.4-0.3-0.6-0.4l0,0
		c-2.2-2-4.5-4.1-6.7-6.1l0,0c-0.3-0.5-0.7-1-1-1.6l0,0c-1.8-4.1-2.9-8.4-2.5-12.9c0.3-2.9,1-5.7,1.5-8.5l0,0c0.5-1,1-2.1,1.5-3.1
		l0,0c0.2-0.3,0.4-0.7,0.6-1c0,0,0,0,0,0c0.5-0.7,1.1-1.3,1.6-2c0,0,0,0,0,0c0.2-0.2,0.4-0.4,0.5-0.6l0,0c0.2-0.2,0.4-0.4,0.5-0.6
		l0,0c0.3-0.2,0.6-0.5,0.9-0.7l0,0c0.9-0.7,1.7-1.3,2.6-2l0,0c0.5-0.3,1.1-0.6,1.6-0.9c0,0,0,0,0,0c4.4-2,9.1-2.3,13.9-2.2
		c6.6,0.2,13.3,0,19.9,0.1c0.7,0,1.8-0.6,1.9,0.9l0,0c-0.5,0.9-1,1.8-1.5,2.6l-0.1,0.2c-0.4,0.5-0.8,0.9-1.1,1.4
		c-3.7,6.3-7.4,12.6-11.1,18.9c-2.9,5.1-5.8,10.2-8.8,15.3c-0.2,0.3-0.4,0.7-0.6,1c-0.1,0.2-0.3,0.4-0.4,0.6c0,0,0,0,0,0
		C115.3,68.6,114.7,69.6,114.1,70.6z"/>
	<path class="st8" d="M177.4,56.2c-3,4.8-6.1,9.7-8.9,14.6c-0.9,1.6-2,2.2-3.7,1.8c-1.2-0.2-2.5-0.3-3.8-0.6c-4.3-1-7-3.7-8-8
		c0.1-0.9,0.2-1.9,0.2-2.8c0-14.8,0-29.7,0-44.5c0-0.7-0.1-1.4-0.1-2c0.6-0.2,1.3-0.4,1.9-0.4c6.9,0,13.8,0,20.7,0
		c0.6,0,1.3,0.3,1.9,0.5c0,0.9-0.1,1.9-0.1,2.8c0,10.7,0,21.4,0,32.1c0,1.7,0.1,3.4,0.1,5.1c-0.1,0.2-0.1,0.3,0,0.5
		C177.5,55.5,177.5,55.9,177.4,56.2z"/>
	<path class="st8" d="M31.3,43.2c0-0.1-0.1-0.2-0.2-0.3c-0.2-0.4-0.4-0.8-0.7-1.1l0,0c-0.7-1.2-1.4-2.4-2.1-3.6l0,0
		c-0.1-0.2-0.3-0.4-0.4-0.6l0,0c-0.2-0.3-0.4-0.7-0.6-1l0,0c-0.2-0.3-0.4-0.7-0.6-1l0,0c-0.2-0.2-0.3-0.4-0.5-0.6l0,0
		c-0.5-0.9-1.1-1.8-1.6-2.7l-0.1-0.2c-0.5-0.9-1-1.7-1.5-2.6c-0.2-0.3-0.4-0.7-0.6-1c-0.1-0.2-0.3-0.4-0.4-0.7
		c-1.9-3.2-3.7-6.5-5.6-9.7c-0.2-0.4-0.4-0.9-0.7-1.4c-0.2-0.3-0.4-0.7-0.6-1l0,0c0-0.5,0.1-1,0.1-1.5c2.7,0,5.4-0.1,8.2-0.1
		c12.9,0,25.8,0,38.8,0c0.9,0,1.9,0.1,2.8,0.1c0.1,0.2,0.3,0.5,0.4,0.7c0.2-0.3,0.4-0.5,0.6-0.8c0.3,0,0.7,0,1,0
		c0.4,0.5,0.7,1,1.1,1.5c0,0,0,0,0,0c-0.1,0.2-0.3,0.4-0.4,0.6l0-0.1l0,0.1c-1.3,0.1-1.2,1-1.2,1.9l0,0c-0.3,0.5-0.7,1.1-1,1.6l0,0
		c-0.2,0.3-0.3,0.5-0.5,0.8c0,0.1,0,0.2-0.1,0.2c-0.1,0.2-0.3,0.4-0.4,0.6l0,0c-0.2,0.3-0.4,0.7-0.6,1l0,0c-0.2,0.3-0.3,0.5-0.5,0.8
		c0,0.1,0,0.2-0.1,0.2c-0.1,0.2-0.3,0.4-0.4,0.7c-0.3,0.6-0.6,1.2-1,1.8c-4.4,7.2-8.9,14.3-13.3,21.5c-2.5,4-4.9,7.9-7.6,12.3
		c-0.5-0.7-0.9-1.2-1.2-1.6c0-0.1,0-0.2-0.1-0.3c-0.3-0.5-0.6-1.1-0.9-1.6l0,0c-0.2-0.3-0.3-0.5-0.5-0.8c0-0.1,0-0.2-0.1-0.2
		c-0.3-0.5-0.7-1.1-1-1.6l0,0c-0.1-0.2-0.3-0.4-0.4-0.6l0,0c-0.5-0.8-1-1.7-1.5-2.5l0,0c-0.4-0.7-0.8-1.3-1.2-2l0,0
		c-0.5-0.9-1-1.7-1.5-2.6l0,0C32.4,45,31.8,44.1,31.3,43.2z"/>
	<path class="st9" d="M144.8,71.6c-1.1,0.1-2.2,0.2-3.2,0.3c0.7-0.2,1.4-0.3,2.1-0.5c0-0.1,0-0.2,0-0.3c-8.6,0-17.1,0-25.7,0
		c2.8-4.8,5.6-9.5,8.4-14.3c3.2-5.5,6.5-11,9.7-16.5c0-0.2,0.1-0.4,0.1-0.6c0.3-0.5,0.6-0.9,0.9-1.4l0,0c0.1-0.2,0.3-0.4,0.4-0.6
		l0,0c1.2-1.9,2.4-3.8,3.5-5.7c0,0,0,0,0,0c0.2-0.3,0.4-0.7,0.6-1c0,0,0,0,0,0c0.2-0.3,0.4-0.7,0.6-1l0,0c0.1-0.2,0.3-0.4,0.4-0.6
		c0,0,0,0,0,0c0.5-0.6,0.9-1.2,1.4-1.8c0.1-0.1,0.6,0.1,0.9,0.1c-0.1,0.8-0.2,1.7-0.2,2.5c0,10.4,0,20.8,0,31.2
		c0,2.8,0.1,5.6,0.1,8.4C144.8,70.6,144.8,71.1,144.8,71.6z"/>
	<path class="st8" d="M235.6,58.3c0.1,0.5,0.1,1,0.2,1.5c-0.1,3.8-0.1,7.5-0.2,11.3c-0.1,0.2-0.2,0.3-0.3,0.5
		c-0.4,0.1-0.8,0.2-1.2,0.2c-7.3,0-14.6,0-21.9,0c-0.3,0-0.6-0.1-1-0.2c0.1-0.5,0.1-0.9,0.2-1.3l0,0c0.5-0.7,1-1.4,1.4-2.1
		c1.9-3.3,3.8-6.5,5.7-9.8C224.2,58.3,229.9,58.3,235.6,58.3z"/>
	<path class="st10" d="M40.1,58c0.3,0.5,0.7,0.9,1.2,1.6c2.7-4.3,5.1-8.3,7.6-12.3c4.4-7.2,8.9-14.3,13.3-21.5
		c0.4-0.6,0.6-1.2,1-1.8c0.1-0.2,0.3-0.4,0.4-0.7c0.1,0,0.1-0.1,0.1-0.2c0.2-0.3,0.3-0.5,0.5-0.8l0,0c0.2-0.3,0.4-0.7,0.6-1l0,0
		c0.1-0.2,0.3-0.4,0.4-0.6c0.1,0,0.1-0.1,0.1-0.2c0.2-0.3,0.3-0.5,0.5-0.8l0,0c0.3-0.2,0.5-0.5,0.8-0.7c0,0,0.2,0.1,0.2,0.1
		c0.6,1.4,1.4,1.5,2.3,0.5c0.8-0.9,1.7-1.6,2.5-2.5c-1.8,3.1-3.6,6.3-5.5,9.4c-7.3,11.9-14.6,23.8-22,35.6c-0.2,0.4-0.5,0.6-0.8,1
		c0-0.7,0-1.4,0-2.1c-1-0.5-1.9-0.9-3-1.4C40.1,59.4,40.1,58.7,40.1,58z"/>
	<path class="st10" d="M136,40.4c-3.2,5.5-6.5,11-9.7,16.5c-2.8,4.8-5.6,9.5-8.4,14.3l0,0c-0.1,0.1-0.3,0.1-0.4,0.2
		c-0.4-0.7-0.7-1.5-1.1-2.2c0-0.2,0-0.3,0-0.5c-0.2-0.2-0.3-0.3-0.5-0.5c0-0.2,0-0.3,0-0.5c0,0,0,0,0,0c0.2,0,0.3,0,0.5,0
		c0.2-0.2,0.3-0.3,0.5-0.5c0-0.4,0-0.7,0-1.1c2.9-5.1,5.8-10.2,8.8-15.3c3.7-6.3,7.4-12.6,11.1-18.9c0.3-0.5,0.7-0.9,1.1-1.4
		c-0.2,1.5-0.1,3.1-0.7,4.4c-0.6,1.3-1.9,2.3-3,3.5c0.9,1.3,2,0.3,3,0.3c-0.3,0.5-0.6,0.9-0.9,1.4c-0.2,0.1-0.3,0.2-0.5,0.3
		C135.8,40.2,135.9,40.3,136,40.4z"/>
	<path class="st11" d="M218.4,58.3c-1.9,3.3-3.8,6.6-5.7,9.8c-0.4,0.7-0.9,1.4-1.4,2.1c-0.3-0.5-0.2-0.5,0.2-1.6
		c0.5-1.4-0.5-2-1.7-2.3c2-3.5,3.9-7.1,6-10.6c3.3-5.6,6.7-11.2,10-16.8c0,0,0.1,0.1,0.1,0.1c0.1,0.8,0.3,1.7,0.4,2.5c0,0,0,0,0,0
		c-0.2,0.2-0.3,0.3-0.5,0.5c0,0,0,0,0,0c-0.3,0.4-1,0.9-0.9,1.1c0.5,0.9,0.8,2,2.2,2c1.1,0,2.2,0.3,3.3,0.5
		c-0.1,0.1-0.2,0.2-0.3,0.3c-1,0-2-0.2-3-0.1c-0.8,0.1-1.6,0.5-2.4,0.8c-1.5,2.6-3,5.2-4.7,8.2c0.9-0.1,1.3-0.1,1.7-0.1l0.2,0.1
		l0.2-0.1c2.4,0,4.8,0,7.2,0c0.3-0.1,0.7-0.2,1-0.3c0.2,0,0.3,0,0.5,0c0.7,0.2,1.3,0.5,2,0.8c-0.8,0.7-1.4,1.3-2,1.8
		c-0.3,0-0.7,0-1,0c-0.4-0.3-0.9-0.9-1.3-1c-2.2-0.1-4.3-0.1-6.5,0c-0.3,0-0.6,0.6-0.9,1c-0.7,0-1.4,0.1-2.2,0.1c0,0.1,0,0.3,0,0.4
		c5.5,0,11,0,16.5,0c0,0.2,0,0.4,0,0.6c-5.5,0-11-0.1-16.6-0.1C218.9,57.8,218.7,58.1,218.4,58.3z"/>
	<path class="st12" d="M180.9,57.6c0,4.9,0,9.9,0,15c-3.1,0-6,0-9.4,0c3.1-5.2,6.1-10.2,9-15.1C180.6,57.5,180.8,57.6,180.9,57.6z"
		/>
	<path class="st11" d="M228.5,34.5c1.4-2.5,2.8-5,4.3-7.8c-0.8-0.1-1.4-0.2-2-0.2c-8.3,0-16.6,0-24.8,0c-3.4,0-6.5,1.3-9.6,2.5
		c0.3-0.4,0.6-1,1.1-1.2c3-1.4,6.2-2.3,9.6-2.3c7.8-0.1,15.6,0,23.5,0c1.1,0,2.1,0.3,3.2,0.4c-0.1,0.9-0.1,1.4-0.1,2.2
		c0.6-0.4,0.9-0.6,1.3-0.8c0.3-0.2,0.6-0.5,1.3-1.1c0.3,0.7,0.6,1.2,0.9,1.7c0,0,0,0,0,0c-0.2,0.4-0.5,0.7-0.5,1.1
		c0.1,3.8,0.2,7.6,0.5,11.4c0.1,1.7-1,2.7-2.8,2.5c-2.4-0.2-4.9-0.2-7.3-0.4c-0.2,0-0.4-0.5-0.7-0.8l0,0c0.2-0.2,0.3-0.3,0.5-0.5
		c0,0,0,0,0,0c0.2,0,0.4,0.1,0.6,0.1c2.8,1.2,5.6,0.2,8.4,0.5c0-4.9,0-9.5,0-14.6c-0.8,1.1-1.3,1.9-1.9,2.7
		c-0.1-0.5-0.2-0.9-0.3-1.6c-1.5,0.9-1.6,1.8-0.5,2.9c-0.5,1-1.1,1.9-1.6,2.9c-0.2-0.8-0.5-1.4-1.7-0.6c0.4,0.6,0.8,1.1,1.1,1.6
		c-0.3,0.5-0.6,1.1-0.9,1.6c-0.1-0.1-0.1-0.1-0.2-0.2c-0.3-0.7-0.7-1.3-1-2C228.6,34.7,228.5,34.6,228.5,34.5z"/>
	<path class="st3" d="M153.1,14.7c0.1,0.7,0.1,1.4,0.1,2c0,14.8,0,29.7,0,44.5c0,0.9-0.1,1.9-0.2,2.8c-0.3-0.7-0.7-1.3-0.7-2
		c0-15.5,0-31,0-46.5C152.3,15.1,151.9,14.2,153.1,14.7z"/>
	<path class="st3" d="M144.8,70.1c0-2.8-0.1-5.6-0.1-8.4c0-10.4,0-20.8,0-31.2c0-0.8,0.1-1.7,0.2-2.5c0.1-0.3,0.2-0.6,0.3-0.9
		c0.2,0.9,0.4,1.8,0.4,2.6c0,13.8,0,27.6,0,41.4C145.3,70.8,145.1,70.4,144.8,70.1z"/>
	<path class="st3" d="M177.5,54.7c0-1.7-0.1-3.4-0.1-5.1c0-10.7,0-21.4,0-32.1c0-0.9,0.1-1.9,0.1-2.8c1.2,0.2,0.8,1.1,0.8,1.8
		c0,3.3,0,6.6,0,9.9c0,9.5,0,19,0,28.5c0,0.5,0.7,1.9-0.9,1.2c0-0.4,0.1-0.7,0.1-1.1c0.1,0,0.2-0.1,0.2-0.1
		C177.7,54.9,177.6,54.8,177.5,54.7z"/>
	<path class="st10" d="M139.4,27.5c0-1.5-1.2-0.9-1.9-0.9c-6.6,0-13.3,0.1-19.9-0.1c-4.8-0.1-9.5,0.3-13.9,2.2c0.1-0.4,0.2-1,0.4-1
		c3.5-1,7-2.3,10.8-2.2c7.6,0.2,15.3,0.1,22.9,0c1,0,2.1-0.1,2.4,1.2C140.3,26.9,139.7,27.2,139.4,27.5z"/>
	<path class="st11" d="M211.4,70.2c-0.1,0.4-0.1,0.8-0.2,1.3c0.3,0.1,0.7,0.2,1,0.2c7.3,0,14.6,0,21.9,0c0.4,0,0.8-0.1,1.2-0.2
		c0,0,0.2,0,0.2,0l0.2,0c0.2,0,0.4,0,0.6,0c-0.5,0.3-1,0.7-1.5,0.8c-3.2,0.1-6.4,0.3-9.6,0.2c-4.7-0.1-9.4-0.3-14.2-0.5
		c-0.2,0-0.4-0.2-1.1-0.5C210.5,71,210.9,70.6,211.4,70.2z"/>
	<path class="st8" d="M117.9,71.1c8.6,0,17.1,0,25.7,0c0,0.1,0,0.2,0,0.3c-0.7,0.2-1.4,0.3-2.1,0.5c-7.2,0-14.4,0-21.7,0
		c-0.3,0-0.6,0-0.9,0c-0.4,0-0.7,0-1.1,0C117.9,71.6,117.9,71.4,117.9,71.1L117.9,71.1z"/>
	<path class="st10" d="M93.9,39.3c-0.5,2.8-1.2,5.7-1.5,8.5c-0.4,4.5,0.7,8.8,2.5,12.9c-0.8,0-1.5,0-1.9,0c-0.3-2.4-0.8-4.5-1-6.6
		c-0.4-4.4-0.9-8.8,0.6-13.1C92.9,40.5,93.5,39.9,93.9,39.3z"/>
	<path class="st10" d="M98.9,16.2c0.2-0.5,0.3-1.1,0.6-1.9c-0.6-0.1-1.1-0.1-1.5-0.1c-7.4,0-14.8,0-22.1,0c-1.2,0-2.2,0.1-2.9,1.1
		c0-0.6,0.1-1.3,0.1-1.7c9.2,0,18.2,0,27.3,0C100.3,14.9,100,15.8,98.9,16.2z"/>
	<path class="st11" d="M193.9,67.3c3.5,1.9,7,3.6,11,4.1c0.7,0.1,1.3,0,2,0c-0.3,1.7-1.6,1.2-2.6,1.1c-1.1-0.2-2.2-0.6-3.3-0.9
		C198.3,70.7,195.7,69.8,193.9,67.3z"/>
	<path class="st10" d="M95.9,62.4c2.2,2,4.5,4.1,6.7,6.1c-1.9-0.6-3.8-1.2-5.7-1.9c-0.5-0.2-0.8-1-1-1.7
		C95.8,64.1,95.9,63.2,95.9,62.4z"/>
	<path class="st13" d="M218.4,58.3c0.2-0.2,0.5-0.5,0.7-0.5c5.5,0,11,0.1,16.6,0.1c0,0.2-0.1,0.3-0.2,0.5
		C229.9,58.3,224.2,58.3,218.4,58.3z"/>
	<path class="st3" d="M235.8,57.2c-5.5,0-11,0-16.5,0c0-0.1,0-0.3,0-0.4c0.7,0,1.4-0.1,2.2-0.1c2.9,0,5.8,0,8.7,0c0.3,0,0.7,0,1,0
		C232.7,56.9,234.3,57.1,235.8,57.2z"/>
	<path class="st10" d="M103.2,68.9c2.5,0.9,5.1,1.7,7.6,2.6c-0.6,0-1.2,0.2-1.7,0.1c-1.6-0.3-3.3-0.6-4.9-1.2
		C103.7,70.3,103.5,69.4,103.2,68.9z"/>
	<path class="st10" d="M141,32.1c-1.2,1.9-2.4,3.8-3.5,5.7c0.4-1.5,0.6-3.1,1.3-4.5C139,32.7,140.2,32.5,141,32.1z"/>
	<path class="st10" d="M89.7,31.1c1.2-1.9,2.3-3.8,3.5-5.7C93.8,28.4,92,29.9,89.7,31.1z"/>
	<path class="st10" d="M50.3,75.7c1.2,1.9,2.4,3.8,3.7,5.6c-2.1-0.3-2.6-2.2-3.7-3.5l0,0c0-0.2,0-0.3,0-0.5l0,0
		C50.3,76.7,50.3,76.2,50.3,75.7z"/>
	<path class="st10" d="M47.7,71.6c0.9,1.3,1.7,2.7,2.6,4c-1.1,0-2.3,0-3.4,0c-0.1-0.1-0.2-0.3-0.3-0.4C48.1,74.3,48.1,73,47.7,71.6z
		"/>
	<path class="st10" d="M236.3,71.6c-0.2,0-0.4,0-0.6,0c0.1-0.2,0-0.3-0.1-0.5c0.1-3.8,0.1-7.5,0.2-11.3c0.2,0.7,0.5,1.4,0.5,2.1
		C236.3,65.1,236.3,68.4,236.3,71.6z"/>
	<path class="st10" d="M45.8,68.9c0.6,0.9,1.2,1.8,1.8,2.7c-0.5,0.6-1.1,1.2-1.8,2C45.8,71.9,45.8,70.4,45.8,68.9z"/>
	<path class="st10" d="M31.3,43.2c0.5,0.9,1.1,1.8,1.6,2.7c-0.6,0.1-1.1,0.3-1.7,0.4c-0.2-0.7-0.5-1.4-0.6-2.1
		C30.6,43.9,31.1,43.6,31.3,43.2z"/>
	<path class="st10" d="M28.3,38.2c0.7,1.2,1.4,2.4,2.1,3.6c-0.9-0.3-1.7-0.6-2.6-0.9C28,39.9,28.1,39,28.3,38.2z"/>
	<path class="st10" d="M32.9,45.9c0.5,0.9,1,1.7,1.5,2.6c-1,0-2.1,0-3.1,0c0.2-0.3,0.3-0.9,0.6-0.9C32.9,47.4,32.8,46.7,32.9,45.9z"
		/>
	<path class="st3" d="M231.2,54.2c-0.2,0-0.3,0-0.5,0c-0.1-2.2-0.2-4.4-0.3-6.6c0-0.4,0-0.7,0-1.1c0.1-0.2,0.1-0.4,0.2-0.6
		c0.2,0,0.4,0,0.7,0C231.2,48.7,231.2,51.4,231.2,54.2z"/>
	<path class="st10" d="M145.1,27c-0.1,0.3-0.2,0.6-0.3,0.9c-0.3-0.1-0.8-0.3-0.9-0.1c-0.5,0.5-0.9,1.2-1.4,1.8c0-0.7,0-1.4,0-2.2
		C143.4,27.3,144,26,145.1,27z"/>
	<path class="st10" d="M43.1,63.4c0,0.4,0.1,0.9,0.1,1.3c-0.4,0.5-0.7,1-1.1,1.6C41.5,64.1,41.5,64.1,43.1,63.4z"/>
	<path class="st11" d="M206.9,71.5c0.5-0.9,1.1-1.8,1.6-2.7c0.1,0.9,0.2,1.8,0.3,2.7C208.2,71.5,207.5,71.5,206.9,71.5z"/>
	<path class="st11" d="M115.9,67.5c0,0.2,0,0.3,0,0.5c0.2,0.2,0.3,0.3,0.5,0.5c0,0.2,0,0.3,0,0.5c-0.3,0.3-0.7,0.6-1,0.8
		c-0.4,0.3-0.9,0.5-1.3,0.8C114.7,69.6,115.3,68.6,115.9,67.5z"/>
	<path class="st10" d="M35.6,50.5c0.5,0.8,1,1.7,1.5,2.5c-0.8-0.5-1.7-0.9-3-1.7C34.7,51.1,35.1,50.8,35.6,50.5z"/>
	<path class="st10" d="M95.2,22.3c0.5-0.8,1-1.7,1.5-2.5c0.4,0.3,0.8,0.6,1.2,1C96.9,21.3,96.1,21.8,95.2,22.3z"/>
	<path class="st10" d="M95.4,36.3c-0.5,1-1,2.1-1.5,3.1C94,38.1,93.2,36.5,95.4,36.3z"/>
	<path class="st10" d="M23.2,29.6c0.5,0.9,1,1.7,1.5,2.6C23.3,31.8,22.9,30.9,23.2,29.6z"/>
	<path class="st10" d="M137.9,30.1c0.5-0.9,1-1.8,1.5-2.6C140.6,29.3,138.6,29.3,137.9,30.1z"/>
	<path class="st10" d="M97.6,33.3c-0.5,0.7-1.1,1.3-1.6,2C95.8,34.1,95.6,32.8,97.6,33.3z"/>
	<path class="st10" d="M96.8,19.7c0.5-0.9,1-1.7,1.6-2.6C98.7,18.5,98.1,19.4,96.8,19.7z"/>
	<path class="st10" d="M102.1,29.6c-0.9,0.7-1.7,1.3-2.6,2C99.7,30.1,100.6,29.5,102.1,29.6z"/>
	<path class="st10" d="M24.7,32.4c0.5,0.9,1.1,1.8,1.6,2.7C24.9,34.7,24.8,33.6,24.7,32.4z"/>
	<path class="st11" d="M208.6,68.5c0.5-0.7,0.9-1.5,1.4-2.2C210.2,67.5,209.9,68.3,208.6,68.5z"/>
	<path class="st14" d="M68.3,15.8c-0.4-0.5-0.7-1-1.1-1.5c0.6,0,1.2,0,2.2,0C68.9,15,68.6,15.4,68.3,15.8z"/>
	<path class="st14" d="M66.7,18.4c0-0.9-0.1-1.9,1.2-1.9c-0.2,0.6-0.5,1.2-0.7,1.8C67,18.3,66.9,18.3,66.7,18.4z"/>
	<path class="st10" d="M44.7,66.9c0.4,0.6,0.8,1.3,1.2,1.9C44.5,68.8,44.6,67.8,44.7,66.9z"/>
	<path class="st11" d="M228.7,44.1c-0.5,0.1-0.7,0.3-1,0.3c-0.2,0-0.3-0.3-0.4-0.4c0.2-0.1,0.5-0.3,0.7-0.4
		C228.1,43.5,228.3,43.8,228.7,44.1z"/>
	<path class="st10" d="M34.4,48.5c0.4,0.7,0.8,1.3,1.2,2C34.3,50.3,34.4,49.4,34.4,48.5z"/>
	<path class="st10" d="M94.9,60.8c0.3,0.5,0.7,1,1,1.6C94.7,62.4,94.8,61.6,94.9,60.8z"/>
	<path class="st10" d="M39.2,60.4c-0.3,0.1-0.6,0.2-0.8,0.3c-0.1-0.2-0.2-0.6-0.1-0.6c0.3-0.1,0.6-0.2,0.9-0.3
		C39.1,60,39.2,60.2,39.2,60.4z"/>
	<path class="st10" d="M39,56.2c0.3,0.5,0.6,1.1,0.9,1.6C38.8,57.7,39,56.9,39,56.2z"/>
	<path class="st10" d="M37.5,53.6c0.3,0.5,0.7,1.1,1,1.6C37.3,55.2,37.4,54.4,37.5,53.6z"/>
	<path class="st10" d="M43.6,65.4c0.3,0.5,0.7,1,1,1.6C43.5,67,43.6,66.2,43.6,65.4z"/>
	<path class="st14" d="M15.4,14.3c0,0.5-0.1,1-0.1,1.5c-0.3-0.5-0.5-0.9-0.8-1.4C14.8,14.4,15.1,14.4,15.4,14.3z"/>
	<path class="st14" d="M66.2,14.3c-0.2,0.3-0.4,0.5-0.6,0.8c-0.1-0.2-0.3-0.5-0.4-0.7C65.5,14.3,65.8,14.3,66.2,14.3z"/>
	<path class="st10" d="M31.6,48.5c-0.4,0.4-0.7,0.6-1,0.9c0.1-0.2,0.1-0.5,0.2-0.7C30.9,48.5,31.1,48.6,31.6,48.5z"/>
	<path class="st11" d="M237.7,44c-0.1,0.1-0.2,0.2-0.4,0.3c-0.1-0.2-0.2-0.4-0.3-0.5c0.1-0.1,0.3-0.2,0.4-0.1
		C237.6,43.6,237.6,43.9,237.7,44z"/>
	<path class="st10" d="M93.8,24.4c0.3-0.4,0.5-0.8,0.8-1.2C95,24.1,94.6,24.4,93.8,24.4z"/>
	<path class="st10" d="M72.3,16.3c-0.3,0.4-0.6,0.8-0.8,1.2C71.2,16.7,71.5,16.3,72.3,16.3z"/>
	<path class="st10" d="M103.7,28.7c-0.5,0.3-1.1,0.6-1.6,0.9C102.6,29.3,103.1,29,103.7,28.7z"/>
	<path class="st10" d="M144.8,70.1c0.3,0.3,0.5,0.7,0.8,1c-0.3,0.2-0.5,0.3-0.8,0.5C144.8,71.1,144.8,70.6,144.8,70.1z"/>
	<path class="st11" d="M192.8,66.4c0.4,0.3,0.8,0.6,1.1,0.9C193.1,67.6,192.8,67.2,192.8,66.4z"/>
	<path class="st11" d="M236.8,28c0.3,0.2,0.6,0.4,0.8,0.6c-0.1,0.1-0.1,0.1-0.2,0.2C237.3,28.6,237,28.3,236.8,28
		C236.8,28,236.8,28,236.8,28z"/>
	<path class="st11" d="M191.2,64.9c0.4,0.3,0.7,0.7,1.1,1C191.9,65.6,191.6,65.3,191.2,64.9z"/>
	<path class="st9" d="M117.9,71.1c0,0.3,0,0.5,0,0.8c-0.1-0.2-0.3-0.4-0.4-0.6C117.6,71.2,117.8,71.1,117.9,71.1z"/>
	<path class="st10" d="M142.2,30.2c-0.2,0.3-0.4,0.7-0.6,1C141.7,30.8,141.9,30.5,142.2,30.2z"/>
	<path class="st10" d="M66.7,18.4c0.1,0,0.3-0.1,0.4-0.1c-0.2,0.4-0.3,0.8-0.5,1.1l-0.2-0.1C66.6,18.9,66.7,18.6,66.7,18.4
		L66.7,18.4z"/>
	<path class="st10" d="M27.3,36.7c0.2,0.3,0.4,0.7,0.6,1C27.7,37.3,27.5,37,27.3,36.7z"/>
	<path class="st10" d="M26.8,35.7c0.2,0.3,0.4,0.7,0.6,1C27.1,36.3,26.9,36,26.8,35.7z"/>
	<path class="st10" d="M98.3,17.2c0.2-0.3,0.4-0.7,0.6-1C98.7,16.5,98.5,16.9,98.3,17.2z"/>
	<path class="st10" d="M96,35.3c-0.2,0.3-0.4,0.7-0.6,1C95.6,36,95.8,35.6,96,35.3z"/>
	<path class="st10" d="M141.6,31.1c-0.2,0.3-0.4,0.7-0.6,1C141.2,31.8,141.4,31.5,141.6,31.1z"/>
	<path class="st10" d="M99.4,31.6c-0.3,0.2-0.6,0.5-0.9,0.7C98.8,32.1,99.1,31.8,99.4,31.6z"/>
	<path class="st10" d="M93.2,25.4c0.2-0.3,0.4-0.7,0.6-1C93.6,24.8,93.4,25.1,93.2,25.4z"/>
	<path class="st10" d="M94.6,23.2c0.2-0.3,0.4-0.6,0.6-0.9C95,22.6,94.8,22.9,94.6,23.2z"/>
	<path class="st10" d="M139.3,30.3c0.1,0,0.1-0.1,0.2-0.1c0,0.1,0,0.2,0.1,0.3c-0.1,0-0.2,0-0.2,0C139.3,30.4,139.3,30.3,139.3,30.3
		z"/>
	<path class="st9" d="M119,71.9c0.3,0,0.6,0,0.9,0C119.6,71.9,119.3,71.9,119,71.9z"/>
	<path class="st14" d="M15.3,15.8c0.2,0.3,0.4,0.7,0.6,1C15.7,16.5,15.5,16.2,15.3,15.8z"/>
	<path class="st11" d="M234.4,44.3c-0.1,0-0.1,0.1-0.2,0.1c0-0.1,0-0.2-0.1-0.3c0.1,0,0.2,0,0.2,0C234.4,44.1,234.4,44.2,234.4,44.3
		z"/>
	<path class="st10" d="M30.4,41.8c0.2,0.4,0.4,0.8,0.7,1.1C30.8,42.5,30.6,42.2,30.4,41.8z"/>
	<path class="st10" d="M72.9,15.3c-0.2,0.3-0.3,0.5-0.5,0.8C72.5,15.8,72.7,15.5,72.9,15.3z"/>
	<path class="st10" d="M43.2,64.8c0.2,0.2,0.3,0.4,0.5,0.6C43.5,65.2,43.3,65,43.2,64.8z"/>
	<path class="st11" d="M190.7,64.4c0.2,0.2,0.3,0.4,0.5,0.5C191,64.8,190.9,64.6,190.7,64.4z"/>
	<path class="st11" d="M190.2,63.8c0.2,0.2,0.3,0.4,0.5,0.6C190.6,64.2,190.4,64,190.2,63.8z"/>
	<path class="st11" d="M196.1,29.2c-0.3,0.2-0.5,0.3-0.8,0.5C195.6,29.5,195.8,29.3,196.1,29.2z"/>
	<path class="st10" d="M38.6,55.4c0.2,0.3,0.3,0.5,0.5,0.8C38.9,56,38.7,55.7,38.6,55.4z"/>
	<path class="st10" d="M142.6,29.6c-0.1,0.2-0.3,0.4-0.4,0.6C142.3,30,142.4,29.8,142.6,29.6z"/>
	<path class="st10" d="M37.1,53c0.1,0.2,0.3,0.4,0.4,0.6C37.4,53.4,37.2,53.2,37.1,53z"/>
	<path class="st11" d="M231.2,46c-0.2,0-0.4,0-0.7,0l-0.1-0.2c0.1-0.1,0.2-0.2,0.3-0.3C230.8,45.6,231,45.8,231.2,46z"/>
	<path class="st10" d="M137.5,37.8c-0.1,0.2-0.3,0.4-0.4,0.6C137.2,38.2,137.3,38,137.5,37.8z"/>
	<path class="st10" d="M27.9,37.6c0.1,0.2,0.3,0.4,0.4,0.6C28.2,38,28,37.8,27.9,37.6z"/>
	<path class="st10" d="M26.3,35.1c0.2,0.2,0.3,0.4,0.5,0.6C26.6,35.5,26.5,35.3,26.3,35.1z"/>
	<path class="st10" d="M98.1,32.8c-0.2,0.2-0.4,0.4-0.5,0.6C97.7,33.1,97.9,32.9,98.1,32.8z"/>
	<path class="st10" d="M98.6,32.2c-0.2,0.2-0.4,0.4-0.5,0.6C98.2,32.6,98.4,32.4,98.6,32.2z"/>
	<path class="st14" d="M67.9,16.4c0.1-0.2,0.3-0.4,0.4-0.6C68.1,16,68,16.2,67.9,16.4z"/>
	<path class="st10" d="M50.3,77.8c0-0.2,0-0.3,0-0.5l0,0C50.3,77.4,50.3,77.6,50.3,77.8L50.3,77.8z"/>
	<path class="st10" d="M22.1,27.9c0.1,0.2,0.3,0.4,0.4,0.7C22.4,28.3,22.3,28.1,22.1,27.9z"/>
	<path class="st10" d="M102.6,68.5c0.2,0.1,0.4,0.3,0.6,0.4C103,68.8,102.8,68.6,102.6,68.5z"/>
	<path class="st11" d="M192.3,65.9c0.2,0.2,0.4,0.3,0.6,0.5C192.6,66.3,192.4,66.1,192.3,65.9z"/>
	<path class="st15" d="M60,100.3c22.2,0,44.4,0,66.6,0c0,0.7,0,1.4,0,2.2c0.8,0.3,1.4,0.6,2.1,0.9c0,5,0,9.9,0,14.9
		c-0.2,0.5-0.4,1-0.5,1.5c-0.7,0.2-1.3,0.4-2.3,0.6c0.8,0.9,1.2,1.4,1.7,2.1c-0.2,0.2-0.4,0.7-0.6,0.7c-1.8,0-3.7,0-5.5-0.1
		c-0.5,0-1-0.1-1.5-0.2c0-0.2,0-0.4,0-0.6c-0.3-0.4-0.6-0.8-1-1.1c-6.7-6.3-13.3-12.6-20-18.9c-0.2-0.3-0.3-0.8-0.5-0.8
		c-2.4-0.1-4.7-0.1-7.1-0.1c0,0,0,0.5-0.1,0.8c-2.3,2.1-4.6,4.2-6.9,6.4c-4.7,4.5-9.4,9.1-14,13.7c0,0.2,0,0.4,0,0.6
		c-2.2,0.3-4.4,0.8-6.7,0c-0.3-0.3-0.7-0.7-1-1c0-0.3,0-0.7,0-1c0.6-0.1,1.2-0.2,2.1-0.4c-0.6-0.4-1.1-0.8-1.6-1.1
		c0.7-1.4,1.2-2.8-0.3-4.1c-2.8-0.3-5.5-0.7-8.4-1c-0.1,1.5-0.2,2.7-0.3,4c-7.4,0-14.6,0-21.8,0c0-3.7,0-7.4,0-11.3
		c6.8,0,13.2,0,19.6,0.1c0.6,0,1.2,0.9,1.8,1.3c0.1-0.5,0.2-1.3,0.2-2c0.2,1,0.3,2.1,0.5,3.3c2.8-0.2,5.5-0.5,8.7-0.8
		c-0.5-1.9-0.8-3.4-1.2-4.9c-0.2-0.2-0.4-0.4-0.5-0.6l0,0c-0.3-0.2-0.5-0.3-0.8-0.5l-0.2,0C59.4,102.3,59.8,101.3,60,100.3z"/>
	<path class="st15" d="M129.2,100.3c39.8,0,79.7,0,119.9,0c0,7.8,0,15.4,0,23.1c-7.4,0-14.9,0-22.3,0c-1.2,0-2.4-0.4-3.6-0.7
		c0-0.2,0-0.4,0-0.6c0.3-0.1,0.5-0.2,0.8-0.3c0.3-0.3,0.7-0.7,1-1c-0.1-1-0.1-2-0.2-3c0,0,0.1,0,0.1,0c0.4-0.4,0.7-0.7,1.1-1.1l0,0
		c1.6-0.3,2.5,0.7,3.4,2c-0.1-1.8-1-3.5-0.2-5.2c0.1-0.2-0.1-0.5-0.3-0.7c-1.4-1.3-1.1-2.8-0.7-4.6c-1-0.4-2-0.8-2.9-1.2
		c-0.6-0.5-1.2-0.9-1.8-1.4c-0.3-0.2-0.7-0.4-1-0.7l0,0c-0.8-0.6-1.5-1.3-2.4-1.6c-3-1-6.1-1.7-9.4-1.6c-0.6-0.2-1.2-0.5-1.8-0.5
		c-8,0-16,0-23.9,0c-0.6,0-1.2,0.3-1.9,0.5c0,0.1,0,0.3,0,0.4c0,0.1-0.1,0.2-0.3,0.2c-0.2,0.7-0.7,1.4-0.7,2.2
		c-0.1,3.4,0,6.8,0,10.2c0,1.6,0.2,3.2-1,4.5c-1.9,1-0.6,2.1,0.1,3.4c-3.1,1.2-6,0.8-8.9,0.2c-0.2-0.2-0.4-0.4-0.6-0.6
		c0-0.1,0-0.2,0.1-0.4c-0.3-0.2-0.5-0.4-0.8-0.5c-4.9-1.8-9.5-4.2-14.2-6.5c1-0.2,2-0.2,2.9-0.2c2-0.1,4.1-0.2,6.1-0.6
		c1-0.2,2.5-1.2,2.6-2c0.4-2.8,1.1-5.7-0.7-8.4c-0.3-0.2-0.7-0.5-1-0.7l0,0c-0.7-0.4-1.3-0.8-2-1.1c-0.7-0.2-1.4-0.5-2.1-0.5
		c-10.4,0-20.8,0-31.1,0c-0.7,0-1.4,0.3-2.1,0.5c0,0.1,0,0.3,0,0.4c-0.1,0.1-0.2,0.2-0.3,0.2c-0.4-0.2-0.7-0.4-1.1-0.6
		C128.3,101.2,128.8,100.8,129.2,100.3z"/>
	<path class="st16" d="M171.7,121.9c0,0.1-0.1,0.2-0.1,0.4c-4.2,0-8.5,0-12.7,0c0,0,0,0,0,0c-0.2-0.2-0.4-0.3-0.5-0.5l0,0
		c-1-0.5-2.1-1-3.1-1.4c-0.9-0.5-1.8-1.1-2.6-1.6c-0.3-0.2-0.6-0.4-0.9-0.6c-1.9-1-3.8-2-5.7-2.9c-0.1-0.1-0.2-0.2-0.3-0.2
		c-2.3-0.1-4.5-0.2-6.8-0.3c-0.3,0-0.7,0-1,0c-0.2,0.4-0.6,0.7-0.6,1.1c0,2,0,4,0.1,5.9c-0.1,0.1-0.1,0.2,0,0.3c-2.9,0-5.7,0-8.6,0
		c0.1-0.1,0.1-0.2,0-0.3c0-1.2,0-2.4,0-3.6c0-5,0-9.9,0-14.9c0.1-0.3,0.1-0.6,0.2-1c0.2,0,0.3,0,0.3-0.2c0.2,0,0.3-0.1,0.5-0.1
		c11.1,0,22.2,0.1,33.3,0.1c1.2,0.2,2.3,0.5,3.5,0.7c0,0,0,0,0,0c0.3,0.2,0.7,0.5,1,0.7c1.9,2.6,1.2,5.6,0.7,8.4
		c-0.1,0.8-1.6,1.8-2.6,2c-2,0.5-4,0.5-6.1,0.6c-0.9,0.1-1.9,0-2.9,0.2c4.7,2.3,9.3,4.7,14.2,6.5
		C171.2,121.6,171.4,121.8,171.7,121.9z M137.4,106.5c0,1.4,0,2.7,0,4.1c0.6,0.2,1.1,0.6,1.7,0.6c5.9,0,11.8,0,17.7,0
		c0.8,0,1.6-0.3,2.4-0.5c1.8,0.1,1.3-1.3,1.3-2.2c0.1-1.2,0.1-2.4-1.7-2.4c-6.9-0.1-13.7-0.1-20.6-0.2
		C138,105.9,137.7,106.3,137.4,106.5z"/>
	<path class="st17" d="M224.9,117.7C224.9,117.7,224.8,117.8,224.9,117.7c-0.4,0.3-0.6,0.6-0.9,0.9c-1.1,0.5-2.2,1-3.3,1.5
		c-0.5,0.2-0.9,0.4-1.4,0.5l0,0c-3.1,0.5-6.3,1-9.4,1.6c-9,0-18,0.1-26.9,0.1c-0.2-0.2-0.3-0.4-0.5-0.5c0-0.9,0.1-1.9,0.1-2.8
		c0-5.5,0-11.1,0.1-16.6c0.1,0,0.2,0,0.3-0.2c0.3,0,0.7-0.1,1-0.1c8.6,0,17.1,0,25.7,0.1c4.4,0.5,8.7,1,12.8,2.8l0,0
		c0.3,0.2,0.7,0.4,1,0.7c0.6,0.5,1.2,0.9,1.8,1.4c2.4,3,2.5,6.2,0.7,9.6c0,0,0,0,0,0C225.6,117,225.3,117.4,224.9,117.7z
		 M205.1,118.3c2.9-0.3,5.8-0.7,8.7-1c3.2-0.9,4.6-2.4,4.7-5.1c0-2.6-1.3-4.3-4.3-5.2c-1.4-0.4-3-0.6-4.5-0.8
		c-5.8-0.1-11.6-0.1-17.4-0.2c-0.3,0-0.6,0.4-0.9,0.6c0,3.7,0,7.5,0,11.2c0.1,0.2,0.2,0.4,0.3,0.5c0.2,0,0.3,0,0.5,0.1
		C196.5,118.3,200.8,118.3,205.1,118.3z"/>
	<path class="st15" d="M1.1,103.4c0-1,0-2,0-3.1c19.3,0,38.6,0,57.9,0c-0.9,0.3-1.7,0.7-2.6,1c-8.3,0-16.7,0-25,0
		c-0.9,0-1.7,0.3-2.6,0.5c-1.4,0.2-3.1-0.5-4,1.2l0,0c-0.2,0.1-0.4,0.3-0.6,0.4c-0.2,0.2-0.4,0.3-0.5,0.5c-0.2,0.2-0.3,0.4-0.5,0.6
		c0,0,0,0,0,0c-0.2,0.4-0.3,0.7-0.5,1.1c0,0,0,0,0,0c-0.1,0-0.2,0.1-0.2,0.1c-0.6,4.6-0.8,9.1,0.1,13.7c0.2,0.3,0.4,0.7,0.6,1
		c-0.3,0.3-0.9,0.7-0.8,0.9c0.6,1.7-0.2,2.2-1.7,2.2c-5.2,0-10.4,0-15.6,0c-2.1,0-2.4-0.5-2.4-2.7c0-5,0-9.9,0-14.9
		C2.6,104.6,2.7,103.5,1.1,103.4z"/>
	<path class="st17" d="M23.6,103.9c0.2-0.2,0.4-0.3,0.5-0.5c0.2-0.1,0.4-0.3,0.6-0.4l0,0c1.5-0.3,3-0.5,4.5-0.8
		c9.2,0,18.5,0,27.7,0.1c1.2,0.2,2.4,0.4,3.6,0.7c0,0,0.2,0,0.2,0c0.3,0.2,0.5,0.3,0.8,0.5l0,0c0.2,0.2,0.4,0.4,0.5,0.6
		c0.4,1.5,0.7,3,1.2,4.9c-3.2,0.3-5.9,0.5-8.7,0.8c-0.2-1.2-0.3-2.3-0.5-3.3l-0.1,0c-0.7-0.1-1.4-0.3-2.2-0.3c-6.1,0-12.3,0-18.4,0
		c-0.7,0-1.3,0.1-2.1,0.1c0,0.6,0.1,1,0.1,1.4c0,2.9,0,5.8,0,8.7c0.1,0.7,0.3,1.4,0.4,2c0.2,0,0.3,0,0.5,0c7.2,0,14.4,0,21.8,0
		c0.1-1.3,0.2-2.6,0.3-4c2.9,0.3,5.7,0.7,8.4,1c-0.1,1.4-0.1,2.7-0.2,4.1c-0.2,0.5-0.5,0.9-0.7,1.4c0,0,0,0,0,0
		c-0.2,0.2-0.4,0.3-0.5,0.5l0,0.2c0,0,0-0.2,0-0.2c-1.3,0.4-2.6,0.8-3.9,1.2c-0.3,0.1-0.6,0.3-0.9,0.4c-0.8-0.2-1.5-0.5-2.3-0.5
		c-8.7-0.1-17.3-0.1-26-0.1c-0.7,0-1.4,0.1-2.2,0.1c-0.1,0-0.3,0-0.4,0c-0.5-0.3-1-0.7-1.6-1c-0.3-0.3-0.7-0.7-1-1
		c-0.2-0.3-0.4-0.7-0.6-1c0-4.6,0.1-9.2,0.1-13.8c0,0,0,0,0,0c0.2-0.4,0.3-0.7,0.5-1.1c0,0,0,0,0,0
		C23.3,104.3,23.5,104.1,23.6,103.9z"/>
	<path class="st18" d="M98.9,102.2c6.7,6.3,13.3,12.6,20,18.9c0.4,0.3,0.7,0.8,1,1.1c-3.1,0-6.1,0.1-9.2,0.1c-0.5-0.3-1-0.7-1.5-1
		c-0.7-0.7-1.3-1.5-2-2.2c-0.1-0.1-0.3-0.3-0.4-0.4c-0.2-0.2-0.4-0.4-0.7-0.6c-0.7-0.1-1.5-0.3-2.2-0.3c-3.9,0-7.8,0-11.7,0
		c-2.9,0-5.7,0.1-8.6,0.2c-0.4,0.2-0.8,0.4-1.3,0.6c0,0,0,0,0,0c-0.2,0.2-0.4,0.4-0.5,0.5l0,0c-0.2,0.2-0.4,0.4-0.7,0.6
		c-0.6,0.6-1.3,1.3-1.9,1.9c-0.8,0.2-1.6,0.6-2.4,0.7c-2.3,0.1-4.5,0-6.8,0c4.7-4.6,9.3-9.1,14-13.7c2.3-2.2,4.6-4.3,6.9-6.4
		C93.8,102.2,96.4,102.2,98.9,102.2z M94.2,106.3c-2.2,2.3-4.6,4.9-7.4,7.8c5.5,0,10.4,0,15.5,0C99.5,111.4,96.9,108.9,94.2,106.3z"
		/>
	<path class="st19" d="M152.7,118.8c0.9,0.5,1.8,1.1,2.6,1.6c-0.1,0.4-0.2,0.8-0.4,1.4c1.3,0,2.4,0,3.6,0c0,0,0,0,0,0
		c0,0.2,0,0.4,0,0.6c-1.1,1.8-2.8,0.8-4.4,1c-0.1-0.8-0.2-1.4-0.2-2c0-0.2,0-0.3,0-0.5c0.1,0,0.1,0,0.2-0.1c0,0,0-0.1,0-0.2
		c-0.1,0.1-0.2,0.2-0.2,0.2c-0.3,0.2-0.7,0.3-1,0.5c0.1,1.5-0.6,2.1-2.1,2.1c-3.7-0.1-7.4-0.1-11.1,0c-1.2,0-1.8-0.3-1.6-1.6
		c0-2,0-4.1,0-6.1c1.3,0,2.5,0.1,3.8,0c1.5-0.1,2.9-0.3,4.4-0.4c1.9,1,3.8,2,5.7,2.9C152.1,118.4,152.4,118.6,152.7,118.8z"/>
	<path class="st20" d="M106.8,118.7c0.1,0.1,0.3,0.3,0.4,0.4c-0.4,0.9-1.7,1.8-0.1,2.7c-1.4,0.3-2.7,1-4.1,1c-5.7,0.1-11.4,0-17.1,0
		c-1.3,0-2.6,0-3.9,0c0-0.3,0-0.7,0-1l0,0c0.3-0.3,0.7-0.7,1-1c0.9-0.5,2.1-0.7,2.1-2.1c0.2-0.1,0.4-0.1,1-0.3
		c-1-0.2-1.7-0.3-2.4-0.4c2.9-0.1,5.7-0.2,8.6-0.2c3.9,0,7.8,0,11.7,0c0.7,0,1.5,0.2,2.2,0.3C106.4,118.3,106.6,118.5,106.8,118.7z
		 M103.7,118.6c0-0.1,0-0.1,0-0.2c-1.1,0-2.2,0-3.3,0c0,0.1,0,0.1,0,0.2C101.5,118.6,102.6,118.6,103.7,118.6z"/>
	<path class="st21" d="M28.3,122.2c8.7,0,17.3,0,26,0.1c0.8,0,1.5,0.3,2.3,0.5c-9.5,0-18.9,0-28.4,0
		C28.2,122.6,28.2,122.4,28.3,122.2z"/>
	<path class="st21" d="M183,122.4c9,0,18-0.1,26.9-0.1c0.2,0.2,0.5,0.4,0.7,0.6c-8.4,0-16.9,0-25.3,0
		C184.6,122.8,183.8,122.5,183,122.4z"/>
	<path class="st5" d="M182.7,102.4c0,5.5,0,11.1-0.1,16.6c0,0.9-0.1,1.9-0.1,2.8c-0.2-0.5-0.3-1-0.6-1.5c-0.3-0.4-0.7-0.7-1-1.1
		c1.2-1.3,1-2.9,1-4.5c0-3.4,0-6.8,0-10.2C182,103.9,182.5,103.1,182.7,102.4z"/>
	<path class="st21" d="M158.9,122.3c4.2,0,8.5,0,12.7,0c0.2,0.2,0.4,0.4,0.6,0.6c-3.7,0-7.3,0-11,0
		C160.5,122.8,159.7,122.5,158.9,122.3z"/>
	<path class="st5" d="M210.7,122.9c-0.2-0.2-0.5-0.4-0.7-0.6c3.1-0.5,6.3-1,9.4-1.6c-0.3,0.2-0.6,0.4-1,0.6c-0.7,0.3-1.4,0.7-2,1
		C214.4,122.5,212.6,122.7,210.7,122.9z"/>
	<path class="st21" d="M70.3,122.2c2.3,0,4.5,0.1,6.8,0c0.8,0,1.6-0.4,2.4-0.7c0.1,1.3-0.8,1.3-1.6,1.3c-2.5,0-5,0-7.5,0
		C70.3,122.6,70.3,122.4,70.3,122.2z"/>
	<path class="st5" d="M107.2,121.8c-1.6-1-0.4-1.8,0.1-2.7c0.7,0.7,1.3,1.5,2,2.2C108.5,121.5,107.8,121.7,107.2,121.8z"/>
	<path class="st21" d="M110.7,122.4c3.1,0,6.1-0.1,9.2-0.1c0,0.2,0,0.4,0,0.6c-2.5,0-4.9,0-7.4,0C112,122.8,111.4,122.5,110.7,122.4
		z"/>
	<path class="st21" d="M128.7,122.2c2.9,0,5.7,0,8.6,0c-0.1,0.1-0.1,0.4-0.2,0.4c-2.7,0-5.5,0-8.2,0
		C128.9,122.6,128.8,122.3,128.7,122.2z"/>
	<path class="st22" d="M137.9,115.7c0,2,0,4.1,0,6.1c-0.2,0-0.4,0-0.5,0c0-2-0.1-4-0.1-5.9c0-0.4,0.4-0.7,0.6-1.1
		C137.9,115.1,137.9,115.4,137.9,115.7z"/>
	<path class="st15" d="M216.3,122.3c0.7-0.3,1.4-0.7,2-1c0.1,0.6,0.3,1.1,0.5,2.3C217.8,123.1,217.1,122.7,216.3,122.3z"/>
	<path class="st20" d="M220.7,120.2c1.1-0.5,2.2-1,3.3-1.5c-0.3,1-0.7,1.8-2,1.6C221.5,120.3,221.1,120.2,220.7,120.2z"/>
	<path class="st5" d="M57.5,122.3c1.3-0.4,2.6-0.8,3.9-1.2c0,1-0.7,1.2-1.4,1.2C59.1,122.4,58.3,122.3,57.5,122.3z"/>
	<path class="st5" d="M61.9,120.6c0.2-0.5,0.5-0.9,0.7-1.4c0.2,0,0.3,0,0.5,0c0.5,0.3,1,0.7,1.6,1.1c-0.9,0.2-1.5,0.3-2.1,0.4
		C62.3,120.7,62.1,120.7,61.9,120.6z"/>
	<path class="st5" d="M83.7,118c0.7,0.1,1.4,0.2,2.4,0.4c-0.6,0.2-0.8,0.3-1,0.3c-0.9,0-1.8-0.1-2.7-0.1
		C82.9,118.4,83.3,118.2,83.7,118z"/>
	<path class="st5" d="M128.7,118.2c0,1.2,0,2.4,0,3.6c-0.2-0.7-0.4-1.4-0.5-2.1C128.3,119.3,128.5,118.8,128.7,118.2z"/>
	<path class="st22" d="M28.3,122.2c0,0.2,0,0.4-0.1,0.6c-0.7-0.2-1.4-0.4-2.1-0.5C26.8,122.3,27.5,122.2,28.3,122.2z"/>
	<path class="st5" d="M220.7,120.2c0.4,0,0.8,0.1,1.2,0.1c-0.9,0.1-1.8,0.3-2.7,0.4C219.8,120.5,220.2,120.4,220.7,120.2z"/>
	<path class="st22" d="M24.1,121.3c0.5,0.3,1,0.7,1.6,1C25.2,122,24.7,121.6,24.1,121.3z"/>
	<path class="st5" d="M222,122c0.1,0.1,0.2,0.2,0.3,0.3c-0.2,0.1-0.3,0.2-0.5,0.3c-0.1-0.1-0.2-0.3-0.2-0.4
		C221.6,122.1,221.9,122.1,222,122z"/>
	<path class="st5" d="M225,120.8c-0.3,0.3-0.7,0.7-1,1C224.4,121.5,224.7,121.1,225,120.8z"/>
	<path class="st19" d="M62.6,121.8c0.3,0.3,0.7,0.7,1,1C63.3,122.5,62.9,122.2,62.6,121.8z"/>
	<path class="st5" d="M83.1,120.8c-0.3,0.3-0.7,0.7-1,1C82.4,121.5,82.7,121.2,83.1,120.8z"/>
	<path class="st5" d="M82,121.8c0,0.3,0,0.7,0,1c-0.3-0.2-0.6-0.4-0.8-0.6C81.5,122.1,81.8,122,82,121.8z"/>
	<path class="st5" d="M153.8,120.8c0,0.2,0,0.3,0,0.5c-0.3,0-0.7,0-1,0C153.1,121.1,153.5,121,153.8,120.8L153.8,120.8z"/>
	<path class="st5" d="M81.9,119.2c0.2-0.2,0.4-0.4,0.5-0.5C82.3,118.8,82.1,119,81.9,119.2z"/>
	<path class="st5" d="M81.3,119.7c0.2-0.2,0.4-0.4,0.7-0.6C81.8,119.3,81.5,119.5,81.3,119.7z"/>
	<path class="st5" d="M61.4,121.1c0.2-0.2,0.4-0.3,0.5-0.5C61.7,120.8,61.6,121,61.4,121.1z"/>
	<path class="st5" d="M158.4,122.3c0-0.2,0-0.4,0-0.6c0.2,0.2,0.4,0.3,0.5,0.5C158.8,122.3,158.6,122.3,158.4,122.3z"/>
	<path class="st5" d="M60.5,102.9c-1.2-0.2-2.4-0.4-3.6-0.7c-0.2-0.3-0.3-0.6-0.5-1c0.9-0.3,1.7-0.7,2.6-1c0.3,0,0.7,0,1,0
		C59.8,101.3,59.4,102.3,60.5,102.9z"/>
	<path class="st5" d="M128.9,102.4c-0.1,0.3-0.1,0.6-0.2,1c-0.7-0.3-1.3-0.6-2.1-0.9c0-0.7,0-1.5,0-2.2c0.9,0,1.7,0,2.6,0
		c-0.4,0.5-0.9,0.9-1.5,1.6C128.1,102.1,128.5,102.2,128.9,102.4z"/>
	<path class="st11" d="M226,38.8c0.7-1.2,1.4-2.4,2.1-3.6l0.1,0.1c-0.1,2.1-0.1,2.1,1.4,1.5c0.1,0.1,0.1,0.1,0.2,0.2
		c-0.7,1.2-1.4,2.4-2,3.5c0-1,0-1.9,0-2.9c-0.6,0.3-0.6,0.6-0.8,0.8c-0.2,0.2-0.5,0.3-0.8,0.5C226.1,38.9,226,38.8,226,38.8z"/>
	<path class="st11" d="M228.1,35.2c0.1-0.2,0.2-0.4,0.4-0.7c0.1,0.1,0.1,0.1,0.2,0.2C228.5,34.9,228.3,35.1,228.1,35.2
		C228.2,35.3,228.1,35.2,228.1,35.2z"/>
	<path class="st11" d="M116.9,65.9c0,0.4,0,0.7,0,1.1c-0.2,0-0.3,0-0.5,0.1l-0.1-0.1C116.5,66.6,116.7,66.2,116.9,65.9z"/>
	<path class="st11" d="M116.4,67.5c-0.2,0-0.3,0-0.5,0c0.1-0.2,0.3-0.4,0.4-0.6c0,0,0.1,0.1,0.1,0.1
		C116.4,67.2,116.4,67.3,116.4,67.5z"/>
	<path class="st0" d="M177.5,54.7c0.1,0.1,0.1,0.2,0.2,0.3c0,0-0.1,0.1-0.2,0.1C177.4,55,177.4,54.9,177.5,54.7z"/>
	<path class="st14" d="M66.7,18.3c-0.1,0.3-0.1,0.6-0.2,0.9c-0.3,0.2-0.5,0.5-0.8,0.7C66,19.4,66.4,18.9,66.7,18.3z"/>
	<path class="st14" d="M64.7,21.4c-0.2,0.3-0.4,0.7-0.6,1C64.3,22.1,64.5,21.8,64.7,21.4z"/>
	<path class="st14" d="M65.7,19.9c-0.2,0.3-0.3,0.5-0.5,0.8C65.4,20.4,65.6,20.1,65.7,19.9z"/>
	<path class="st14" d="M65.1,20.9c-0.1,0.2-0.3,0.4-0.4,0.6C64.8,21.3,65,21.1,65.1,20.9z"/>
	<path class="st14" d="M64.2,22.4c-0.2,0.3-0.3,0.5-0.5,0.8C63.9,22.9,64,22.7,64.2,22.4z"/>
	<path class="st14" d="M63.6,23.4c-0.1,0.2-0.3,0.4-0.4,0.7C63.3,23.9,63.4,23.7,63.6,23.4z"/>
	<path class="st0" d="M136,40.4c-0.1-0.1-0.2-0.2-0.3-0.3c0.2-0.1,0.3-0.2,0.5-0.3C136.1,40,136,40.2,136,40.4z"/>
	<path class="st13" d="M235.6,71.1c0.1,0.1,0.1,0.3,0.1,0.5c0,0-0.2,0-0.2,0s-0.2,0-0.2,0C235.4,71.4,235.5,71.2,235.6,71.1z"/>
	<path class="st0" d="M116.4,68.5c-0.2-0.2-0.3-0.3-0.5-0.5C116.1,68.2,116.2,68.4,116.4,68.5z"/>
	<path class="st0" d="M116.4,67.5c0-0.2,0-0.3,0-0.5c0.2,0,0.3,0,0.5-0.1C116.7,67.2,116.6,67.3,116.4,67.5z"/>
	<path class="st23" d="M230.4,46.5c0,0.4,0,0.7,0,1.1c-0.1,0.9-0.1,1.8-0.2,2.7c-0.2,1.4-0.3,2.8-0.5,4.2c-2.4,0-4.8,0-7.2,0
		c-0.2,0-0.3,0-0.5,0c-0.4,0-0.8,0.1-1.7,0.1c1.7-3,3.2-5.6,4.7-8.2C226.8,46.5,228.6,46.5,230.4,46.5z"/>
	<path class="st0" d="M230.2,56.7c-2.9,0-5.8,0-8.7,0c0.3-0.3,0.6-0.9,0.9-1c2.2-0.1,4.4-0.1,6.5,0
		C229.3,55.8,229.7,56.4,230.2,56.7z"/>
	<path class="st14" d="M230.4,46.5c-1.8,0-3.6,0-5.4,0c0.8-0.3,1.6-0.7,2.4-0.8c1-0.1,2,0.1,3,0.1l0.1,0.2
		C230.5,46.1,230.4,46.3,230.4,46.5z"/>
	<path class="st14" d="M229.6,54.5c0.2-1.4,0.4-2.8,0.5-4.2c0.1-0.9,0.2-1.8,0.2-2.7c0.1,2.2,0.2,4.4,0.3,6.6
		C230.3,54.3,230,54.4,229.6,54.5z"/>
	<path class="st0" d="M226.1,38.9c0.3-0.2,0.6-0.3,0.8-0.5c0.2-0.2,0.2-0.6,0.8-0.8c0,1,0,1.9,0,2.9l0,0c-0.2,0.3-0.4,0.7-0.6,1
		c0,0,0,0,0,0c-0.2,0-0.4-0.1-0.6-0.1C226.4,40.5,226.3,39.7,226.1,38.9z"/>
	<path class="st14" d="M222,54.5c0.2,0,0.3,0,0.5,0l-0.2,0.1L222,54.5z"/>
	<path class="st0" d="M226.6,41.4c-0.2,0.2-0.3,0.3-0.5,0.5C226.2,41.7,226.4,41.5,226.6,41.4z"/>
	<path class="st12" d="M227.8,40.4c0.7-1.2,1.4-2.4,2-3.5c0.3-0.5,0.6-1.1,0.9-1.6c0,0,0,0,0,0c0.2-0.3,0.4-0.7,0.6-1c0,0,0,0,0,0
		c0.5-1,1.1-1.9,1.6-2.9c0,0,0-0.1,0-0.1c0.1-0.2,0.3-0.4,0.4-0.6c0,0,0,0,0,0c0.1-0.2,0.3-0.4,0.4-0.6c0,0,0,0,0,0
		c0.5-0.8,1.1-1.5,1.9-2.7c0,5.1,0,9.7,0,14.6c-2.8-0.3-5.6,0.7-8.4-0.5c0,0,0,0,0,0C227.4,41.1,227.5,40.8,227.8,40.4
		C227.7,40.4,227.8,40.4,227.8,40.4z"/>
	<path class="st0" d="M232.9,31.4c-1.1-1.1-1-2,0.5-2.9c0.1,0.7,0.2,1.1,0.3,1.6l0,0c-0.1,0.2-0.3,0.4-0.4,0.6c0,0,0,0,0,0
		C233.2,30.9,233.1,31.1,232.9,31.4C232.9,31.3,232.9,31.4,232.9,31.4z"/>
	<path class="st0" d="M228.2,35.3c0.2-0.2,0.3-0.4,0.5-0.5c0.3,0.7,0.7,1.3,1,2C228.1,37.3,228.1,37.3,228.2,35.3z"/>
	<path class="st0" d="M230.7,35.3c-0.4-0.5-0.7-1.1-1.1-1.6c1.2-0.8,1.5-0.2,1.7,0.6c0,0,0,0,0,0C231.1,34.6,230.9,34.9,230.7,35.3
		C230.7,35.3,230.7,35.3,230.7,35.3z"/>
	<path class="st0" d="M50.3,77.8c0-0.2,0-0.3,0-0.5C50.3,77.4,50.3,77.6,50.3,77.8z"/>
	<path class="st4" d="M32.3,118.2c-0.2,0-0.3,0-0.5,0c-0.1-0.7-0.3-1.4-0.4-2c0-2.9,0-5.8,0-8.7c0.6-1.1,1.6-1,2.6-1
		c6.6,0,13.3-0.1,19.9-0.1l0.1,0c-0.1,0.7-0.2,1.5-0.2,2c-0.6-0.4-1.2-1.3-1.8-1.3c-6.4-0.1-12.8-0.1-19.6-0.1
		C32.3,110.8,32.3,114.5,32.3,118.2z"/>
	<path class="st4" d="M98.9,102.2c-2.6,0-5.1,0-7.7,0c0-0.3,0-0.8,0.1-0.8c2.4,0,4.7,0,7.1,0.1C98.6,101.5,98.8,102,98.9,102.2z"/>
	<path class="st2" d="M63.1,119.3c-0.2,0-0.3,0-0.5,0c0.1-1.4,0.1-2.7,0.2-4.1C64.2,116.5,63.8,117.9,63.1,119.3z"/>
	<path class="st5" d="M62,104c-0.2-0.2-0.4-0.4-0.5-0.6C61.6,103.6,61.8,103.8,62,104z"/>
	<path class="st5" d="M61.5,103.5c-0.3-0.2-0.5-0.3-0.8-0.5C61,103.1,61.2,103.3,61.5,103.5z"/>
	<path class="st4" d="M163,102.3c-11.1,0-22.2-0.1-33.3-0.1c-0.2-0.1-0.3-0.2-0.5-0.3c0.7-0.2,1.4-0.5,2.1-0.5c10.4,0,20.8,0,31.1,0
		c0.7,0,1.4,0.3,2.1,0.5C164.1,102,163.5,102.1,163,102.3z"/>
	<path class="st4" d="M209.7,102.2c-8.6,0-17.1,0-25.7-0.1c-0.3-0.1-0.7-0.2-1-0.4c0.6-0.2,1.2-0.5,1.9-0.5c8,0,16,0,23.9,0
		c0.6,0,1.2,0.3,1.8,0.5C210.3,102,210,102.1,209.7,102.2z"/>
	<path class="st5" d="M226,116.6c1.8-3.4,1.7-6.6-0.7-9.6c0.9,0.4,1.9,0.8,2.9,1.2c-0.4,1.7-0.7,3.3,0.7,4.6
		c0.2,0.2,0.3,0.5,0.3,0.7c-0.8,1.7,0.1,3.4,0.2,5.2C228.5,117.4,227.6,116.3,226,116.6z M228,113.5c-0.1,0-0.2,0-0.3,0
		c0,0.3,0,0.5,0.1,0.8c0,0,0.2,0,0.2,0C228,114,228,113.7,228,113.5z"/>
	<path class="st5" d="M209.7,102.2c0.3-0.1,0.7-0.3,1-0.4c3.2-0.2,6.3,0.6,9.4,1.6c0.9,0.3,1.6,1.1,2.4,1.6
		C218.3,103.3,214,102.7,209.7,102.2z"/>
	<path class="st5" d="M163,102.3c0.5-0.1,1-0.3,1.5-0.4c0.7,0.4,1.3,0.8,2,1.1C165.4,102.8,164.2,102.5,163,102.3z"/>
	<path class="st5" d="M224.9,117.7c0.4-0.4,0.7-0.7,1.1-1.1C225.6,117,225.3,117.4,224.9,117.7z"/>
	<path class="st5" d="M183,101.8c0.3,0.1,0.7,0.2,1,0.4c-0.3,0-0.7,0.1-1,0.1C183,102.1,183,102,183,101.8z"/>
	<path class="st5" d="M167.6,103.6c-0.3-0.2-0.7-0.5-1-0.7C166.9,103.2,167.2,103.4,167.6,103.6z"/>
	<path class="st5" d="M223.4,105.6c-0.3-0.2-0.7-0.4-1-0.7C222.7,105.2,223.1,105.4,223.4,105.6z"/>
	<path class="st5" d="M171.7,121.9c-0.3-0.2-0.5-0.4-0.8-0.5C171.2,121.6,171.4,121.8,171.7,121.9z"/>
	<path class="st5" d="M129.2,101.8c0.2,0.1,0.3,0.2,0.5,0.3c-0.2,0-0.3,0.1-0.5,0.1C129.2,102.1,129.2,102,129.2,101.8z"/>
	<path class="st19" d="M158.9,106c1.7,0,1.8,1.2,1.7,2.4c-0.1,0.9,0.5,2.3-1.3,2.2c-0.5-0.3-0.9-0.7-0.9-0.6
		c-1.4,0.2-2.4,0.5-3.3,0.5c-5.9,0-11.7,0-17.6,0c0-1.4,0-2.7,0-4.1c6.4,0,12.7,0,19.1,0C157.3,106.4,158.1,106.2,158.9,106z"/>
	<path class="st21" d="M137.4,110.5c5.9,0,11.7,0,17.6,0c0.9,0,1.9-0.3,3.3-0.5c0,0,0.4,0.3,0.9,0.6c-0.8,0.2-1.6,0.5-2.4,0.5
		c-5.9,0-11.8,0-17.7,0C138.5,111.2,138,110.8,137.4,110.5z"/>
	<path class="st2" d="M158.9,106c-0.8,0.1-1.6,0.4-2.4,0.4c-6.4,0-12.7,0-19.1,0c0.3-0.2,0.6-0.6,0.9-0.6
		C145.2,105.9,152,106,158.9,106z"/>
	<path class="st4" d="M137.9,115.7c0-0.3,0-0.6,0-0.9c0.3,0,0.7,0,1,0c2.3,0.1,4.5,0.2,6.8,0.3c0.1,0,0.3,0,0.3,0.2
		c-1.5,0.1-2.9,0.3-4.4,0.4C140.4,115.7,139.2,115.7,137.9,115.7z"/>
	<path class="st22" d="M145.8,115.1c-2.3-0.1-4.5-0.2-6.8-0.3C141.2,114.9,143.5,115,145.8,115.1z"/>
	<path class="st5" d="M158.5,121.8c-1.1,0-2.2,0-3.6,0c0.2-0.6,0.3-1,0.4-1.4C156.4,120.8,157.4,121.3,158.5,121.8z"/>
	<path class="st5" d="M152.7,118.8c-0.3-0.2-0.6-0.4-0.9-0.6C152.1,118.4,152.4,118.6,152.7,118.8z"/>
	<path class="st19" d="M209.6,106.1c1.5,0.3,3,0.4,4.5,0.8c3,0.9,4.4,2.6,4.3,5.2c0,2.7-1.4,4.2-4.7,5.1c-0.7-0.1-1.4-0.3-2-0.3
		c-2.2,0.2-4.5,0.5-6.7,0.8c-4.3,0-8.5,0-12.8,0c0-3.8,0-7.5,0-11.3c5,0,10,0,15,0C208,106.4,208.8,106.2,209.6,106.1z"/>
	<path class="st4" d="M192.3,106.4c0,3.8,0,7.5,0,11.3c0,0.2,0,0.4,0,0.6c-0.2,0-0.3,0-0.5-0.1c-0.1-0.2-0.2-0.4-0.3-0.5
		c0-3.7,0-7.5,0-11.2C191.7,106.5,192,106.5,192.3,106.4z"/>
	<path class="st22" d="M192.3,106.4c-0.3,0-0.6,0-0.9,0.1c0.3-0.2,0.6-0.6,0.9-0.6c5.8,0,11.6,0.1,17.4,0.2
		c-0.8,0.1-1.6,0.3-2.4,0.3C202.2,106.5,197.2,106.4,192.3,106.4z"/>
	<path class="st21" d="M192.2,118.3c0-0.2,0-0.4,0-0.6c4.3,0,8.5,0,12.8,0c0,0.2,0,0.3,0,0.5C200.8,118.3,196.5,118.3,192.2,118.3z"
		/>
	<path class="st5" d="M205.1,118.3c0-0.2,0-0.3,0-0.5c2.2-0.3,4.5-0.6,6.7-0.8c0.7-0.1,1.4,0.2,2,0.3
		C210.9,117.6,208,117.9,205.1,118.3z"/>
	<path class="st22" d="M191.4,117.7c0.1,0.2,0.2,0.4,0.3,0.5C191.6,118.1,191.5,117.9,191.4,117.7z"/>
	<path class="st4" d="M56.4,101.3c0.2,0.3,0.3,0.6,0.5,1c-9.2,0-18.5,0-27.7-0.1c-0.2-0.1-0.3-0.3-0.5-0.4c0.9-0.2,1.7-0.5,2.6-0.5
		C39.7,101.3,48.1,101.3,56.4,101.3z"/>
	<path class="st5" d="M22.7,105.5c0,4.6-0.1,9.2-0.1,13.8c-0.9-4.6-0.7-9.1-0.1-13.7C22.5,105.5,22.6,105.5,22.7,105.5z"/>
	<path class="st5" d="M28.8,101.8c0.2,0.1,0.3,0.3,0.5,0.4c-1.5,0.3-3,0.5-4.5,0.8C25.7,101.3,27.3,102,28.8,101.8z"/>
	<path class="st5" d="M23.2,104.4c-0.2,0.4-0.3,0.7-0.5,1.1C22.8,105.2,23,104.8,23.2,104.4z"/>
	<path class="st5" d="M23.6,103.9c-0.2,0.2-0.3,0.4-0.5,0.6C23.3,104.3,23.5,104.1,23.6,103.9z"/>
	<path class="st5" d="M24.8,103c-0.2,0.1-0.4,0.3-0.6,0.4C24.4,103.3,24.6,103.1,24.8,103z"/>
	<path class="st15" d="M53.9,106.3c-6.6,0-13.3,0.1-19.9,0.1c-1,0-2.1-0.1-2.6,1c0-0.4,0-0.8-0.1-1.4c0.8,0,1.4-0.1,2.1-0.1
		c6.1,0,12.3,0,18.4,0C52.5,106,53.2,106.2,53.9,106.3z"/>
	<path class="st15" d="M31.4,116.2c0.1,0.7,0.3,1.4,0.4,2C31.7,117.6,31.5,116.9,31.4,116.2z"/>
	<path class="st5" d="M94.2,106.3c2.7,2.6,5.4,5.1,8.1,7.8c-5.1,0-10,0-15.5,0C89.5,111.2,92,108.6,94.2,106.3z"/>
	<path class="st5" d="M106.8,118.7c-0.2-0.2-0.4-0.4-0.7-0.6C106.4,118.3,106.6,118.5,106.8,118.7z"/>
	<path class="st5" d="M153.8,120.8c0.1-0.1,0.2-0.2,0.2-0.2c0,0.1,0,0.1,0,0.2C153.9,120.8,153.9,120.8,153.8,120.8
		C153.8,120.8,153.8,120.8,153.8,120.8z"/>
	<path class="st5" d="M103.7,118.6c-1.1,0-2.2,0-3.3,0c0-0.1,0-0.1,0-0.2c1.1,0,2.2,0,3.3,0C103.7,118.5,103.7,118.5,103.7,118.6z"
		/>
	<path class="st11" d="M227.7,40.4c-0.2,0.3-0.4,0.7-0.6,1C227.4,41.1,227.5,40.8,227.7,40.4z"/>
	<path class="st11" d="M230.7,35.3c0.2-0.3,0.4-0.7,0.6-1C231.1,34.6,230.9,34.9,230.7,35.3z"/>
	<path class="st11" d="M233.3,30.7c0.1-0.2,0.3-0.4,0.4-0.6C233.6,30.3,233.4,30.5,233.3,30.7z"/>
	<path class="st11" d="M232.9,31.3c0.1-0.2,0.3-0.4,0.4-0.6C233.2,30.9,233.1,31.1,232.9,31.3z"/>
	<path class="st15" d="M228,113.5c0,0.3-0.1,0.5-0.1,0.8c0,0-0.2,0-0.2,0c0-0.3,0-0.5-0.1-0.8C227.8,113.5,227.9,113.5,228,113.5z"
		/>
</g>
</svg>
