<?xml version="1.0" encoding="utf-8"?>
<!-- Generator: Adobe Illustrator 21.0.0, SVG Export Plug-In . SVG Version: 6.00 Build 0)  -->
<svg version="1.1" id="Camada_1" xmlns="http://www.w3.org/2000/svg" xmlns:xlink="http://www.w3.org/1999/xlink" x="0px" y="0px"
	 viewBox="0 0 250.8 137.8" style="enable-background:new 0 0 250.8 137.8;" xml:space="preserve">
<style type="text/css">
	.st0{fill:#014080;}
	.st1{fill:#1A4990;}
	.st2{fill:#FBFCFC;}
	.st3{fill:#F9FAFB;}
	.st4{fill:#FBFBFC;}
	.st5{fill:#F5F6F8;}
	.st6{fill:#F3F4F7;}
	.st7{fill:#F6F7F9;}
	.st8{fill:#DFBE04;}
	.st9{fill:#DF0140;}
	.st10{fill:#DB0342;}
	.st11{fill:#FAFAFB;}
	.st12{fill:#DFBF03;}
	.st13{fill:#B70944;}
	.st14{fill:#F7F7F9;}
	.st15{fill:#DB9E08;}
	.st16{fill:#BFBFC0;}
	.st17{fill:#002F78;}
	.st18{fill:#04377C;}
	.st19{fill:#094080;}
	.st20{fill:#054180;}
	.st21{fill:#074181;}
	.st22{fill:#114684;}
</style>
<g>
	<g>
		<path class="st0" d="M11.6,137.8c-3.6,0-7.2,0-10.7,0c0-45.7,0-91.3,0-137c83.3,0,166.7,0,250,0c0,45.7,0,91.3,0,137
			c-11.6,0-23.1,0-34.7,0c-1.6-0.3-3.2-0.8-4.7-0.8c-65,0-130.1,0-195.1,0C14.7,137,13.1,137.5,11.6,137.8z M186.4,61.2
			c-3.1,0-6.2,0-9.4,0c-0.8,4-1.5,7.6-2.2,11.6c2.4-0.1,4.1-0.2,5.9-0.3c2.8-1.1,5.5-2.1,8.3-3.2c4.4,0,8.7,0.1,13.1,0
			c1.1,0,2.6-0.4,3.1-1.2c2-3.2,3.7-6.5,6-10.7c-6.4,0.4-11.9,0.7-17.3,1C191.4,59.4,188.9,60.3,186.4,61.2z M217,19.1
			c-2.8,1.1-5.5,2.2-8.3,3.3c-7.8,0-15.5,0-23.6,0c-0.8,3.8-1.5,7.5-2.3,11.2c7,0,13.5,0,20.1,0c2.5-1.1,5-2.1,7.5-3.2
			c4.7,0,9.3,0.1,14,0.1c0.9,0,2.2-0.5,2.7-1.2c2-3.2,3.8-6.5,5.9-10.3C227.3,19.1,222.1,19.1,217,19.1z M198,41.3
			c-5.6,0-11.2,0-16.9,0c-0.9,4.5-1.7,8.5-2.6,13.2c4.9-0.3,8.9-0.6,13-0.9c4.8-2.1,9.7-3.1,15-2.7c2.9,0.2,5.8-0.4,8.7-0.7
			c2.3-3.9,4.6-7.9,7.1-12.1c-6,0-11.4,0-16.8,0C203,39.2,200.5,40.3,198,41.3z M135.4,60.4c-1.4-0.3-2.8-0.9-4.2-0.9
			c-3.9-0.1-7.8-0.1-11.7-0.1c0.1-0.5,0.2-1.1,0.3-1.6c0.2-0.9,0.5-1.8,0.7-2.6c-0.1-0.2-0.1-0.5,0.1-0.7c0.2-1,0.5-2,0.7-3
			c1.9-9.6,3.8-19.2,5.7-29c-4.6,0-9.1,0-13.7,0c-3.3,15.5-6.7,30.8-10,46.1c-0.1,0.6-0.9,1.1-1.4,1.7c-2.9-16-5.7-32-8.6-48
			c-3.6,0-6.6,0.2-9.6-0.1c-2.8-0.2-4.4,0.8-5.9,3.2c-8.9,14.7-17.9,29.2-26.8,43.8c-0.6,0.9-1.1,2-1.6,2.9
			c9.1,1.2,17.6,1.8,20.7-9.1c0.1-0.2,0.3-0.4,0.3-0.4c5.5,0,10.9,0,16.5,0c0.6,3.3,1.2,6.5,1.8,9.8c4.5,0,8.7,0,13,0
			c10.8,0,21.7,0,32.8,0c0.8-3.3,1.7-6.7,2.3-10.1C136.7,61.8,135.8,61,135.4,60.4z M146.9,22.5c-3.6,16.6-7.2,33.2-10.7,49.9
			c11.2,0,21.7,0,32.4,0c0.8-3.8,1.5-7.4,2.4-11.4c-6.2,0-12.1,0-18.3,0c0.5-2.2,0.9-4,1.2-5.7c6.3-0.4,12.3-0.7,18.3-1.1
			c1-4.5,1.9-8.6,2.8-13.1c-6.2,0-12,0-18.2,0c0.6-2.6,1.1-4.9,1.6-7.1c5.2,0,10.1,0.1,15.1-0.1c1,0,2.8-0.6,3-1.2
			c0.8-3.5,1.2-7.1,1.7-10.6c-0.8-0.3-1.5-0.8-2.3-0.8c-8.8-0.1-17.7-0.1-26.5,0C148.6,21.5,147.8,22.2,146.9,22.5z M22.8,22.5
			c2.3,16.9,4.5,33.4,6.8,50.1c4,0,7.6-0.2,11.1,0.1c2.4,0.2,3.6-0.8,4.8-2.9c8.3-15,16.8-29.8,25.2-44.7c0.4-0.8,0.7-1.7,1.1-2.7
			c-3.9,0-7.5,0.2-11.1-0.1c-2.8-0.3-4.1,1-5.3,3.3c-4.8,8.9-9.7,17.7-15.1,27.5c-1.3-10.9-2.5-20.6-3.7-30.5
			C32.1,22.5,27.7,22.5,22.8,22.5z M127.6,117.2c5.7,0,10.8,0.3,15.9-0.1c12.8-0.8,20.2-9.1,19.9-21.9c-0.2-7.9-4.4-13.5-12.1-14.9
			c-5.1-0.9-10.3-0.8-15.6-1.2C132.9,92.2,130.3,104.6,127.6,117.2z M103.5,101.1c7.6-0.9,8.1-0.5,9.9,6.5c0.8,3.3,1.7,6.6,2.5,9.8
			c2,0,3.6,0,5.8,0c-1.8-6.4-3.4-12.3-5.2-18.4c0.5-0.3,1.9-0.8,3.2-1.7c3.6-2.3,5.4-6.8,4.5-10.7c-1.1-4.3-4.1-6.4-8.3-6.7
			c-4.4-0.3-8.7-0.4-13.4-0.6c-2.8,12.8-5.4,25.4-8.1,37.9c3.9,1.2,6.2,0.7,6.6-3.9C101.2,109.3,102.6,105.3,103.5,101.1z
			 M81.3,79.8c-4.2-1.1-6.6,0-8.5,3.5c-3.4,6-7.3,11.6-11,17.3c-3.5,5.5-7.1,11-10.7,16.7c4.1,1,6.9,0.3,8.7-3.6
			c0.8-1.9,2.4-4.7,3.8-4.8c6.1-0.5,12.2-0.2,18.1-0.2c2.8,9.4,2.8,9.4,7.8,8.4C86.8,104.7,84,92.3,81.3,79.8z M48.1,112
			c-1.4,0.4-2.4,0.7-3.3,0.9c-8.4,1.6-14.9-1.9-16.5-8.9c-1.8-8,3.6-17.7,11.2-19c4.3-0.8,8.9-0.1,13.7-0.1c0.3-1,0.8-2.4,1.2-3.7
			C43.6,76,25.9,79.9,22.5,96.6c-1.4,6.8-0.3,13.3,5.7,17.8c6,4.5,12.6,4.4,19.5,2.5C47.8,115.2,47.9,113.9,48.1,112z"/>
		<path class="st1" d="M11.6,137.8c1.6-0.3,3.2-0.8,4.7-0.8c65,0,130.1,0,195.1,0c1.6,0,3.2,0.5,4.7,0.8
			C148,137.8,79.8,137.8,11.6,137.8z"/>
		<path class="st2" d="M101.5,72.5c-4.2,0-8.5,0-13,0c-0.6-3.2-1.2-6.4-1.8-9.8c-5.6,0-11,0-16.5,0c0,0-0.3,0.1-0.3,0.4
			c-3.1,11-11.6,10.3-20.7,9.1c0.5-1,1-2,1.6-2.9c9-14.6,18-29.2,26.8-43.8c1.4-2.4,3-3.5,5.9-3.2c3,0.3,6,0.1,9.6,0.1
			c2.9,16,5.7,32,8.6,48C101.7,71,101.6,71.7,101.5,72.5z M83.1,39.7c-2,3.9-3.6,7-5.4,10.3c2.9,0,5,0,7.1,0
			C84.3,46.8,83.8,43.8,83.1,39.7z"/>
		<path class="st3" d="M178.2,22.3c-0.5,3.5-0.9,7.1-1.7,10.6c-0.1,0.6-1.9,1.1-3,1.2c-4.9,0.1-9.9,0.1-15.1,0.1
			c-0.5,2.3-1,4.5-1.6,7.1c6.1,0,12,0,18.2,0c-1,4.5-1.9,8.6-2.8,13.1c-6.1,0.4-12,0.7-18.3,1.1c-0.4,1.6-0.7,3.5-1.2,5.7
			c6.2,0,12,0,18.3,0c-0.8,4-1.6,7.6-2.4,11.4c-10.7,0-21.2,0-32.4,0c3.6-16.7,7.2-33.3,10.7-49.9C157.4,22.4,167.8,22.4,178.2,22.3
			z"/>
		<path class="st4" d="M22.8,22.5c4.9,0,9.3,0,13.9,0c1.2,9.9,2.4,19.7,3.7,30.5c5.4-9.8,10.3-18.6,15.1-27.5
			c1.2-2.3,2.5-3.5,5.3-3.3c3.5,0.3,7.1,0.1,11.1,0.1c-0.4,1.1-0.7,2-1.1,2.7c-8.4,14.9-16.9,29.8-25.2,44.7c-1.1,2.1-2.3,3-4.8,2.9
			c-3.5-0.2-7.1-0.1-11.1-0.1C27.3,55.9,25.1,39.3,22.8,22.5z"/>
		<path class="st4" d="M101.5,72.5c0.1-0.7,0.2-1.4,0.3-2.2c0.5-0.6,1.3-1,1.4-1.7c3.4-15.3,6.7-30.7,10-46.1c4.6,0,9.1,0,13.7,0
			c-1.9,9.8-3.8,19.4-5.7,29c-0.2,1-0.5,2-0.7,3c-0.2,0.2-0.2,0.4-0.1,0.7c-0.2,0.9-0.5,1.8-0.7,2.6c-0.1,0.5-0.2,1.1-0.3,1.6
			c0.5,0.4,1.1,1.2,1.6,1.2c4.8,0,9.5-0.1,14.3-0.2c0.4,0.7,1.3,1.4,1.2,2c-0.7,3.4-1.5,6.8-2.3,10.1
			C123.2,72.5,112.3,72.5,101.5,72.5z"/>
		<path class="st5" d="M127.6,117.2c2.7-12.6,5.3-25,8.1-38c5.2,0.4,10.5,0.3,15.6,1.2c7.7,1.4,12,7,12.1,14.9
			c0.3,12.8-7.2,21.1-19.9,21.9C138.4,117.5,133.3,117.2,127.6,117.2z M134.1,113.1c4.4-0.4,8-0.4,11.4-1c7.7-1.4,13-9.4,12-17.7
			c-0.8-7-6.6-10.8-15.3-10.2c-0.8,0.1-2,0.9-2.1,1.6C138.1,94.7,136.2,103.5,134.1,113.1z"/>
		<path class="st6" d="M103.5,101.1c-1,4.2-2.3,8.2-2.6,12.2c-0.4,4.6-2.7,5.1-6.6,3.9c2.7-12.6,5.4-25.1,8.1-37.9
			c4.7,0.2,9.1,0.3,13.4,0.6c4.2,0.3,7.2,2.3,8.3,6.7c0.9,3.9-0.9,8.4-4.5,10.7c-1.2,0.8-2.7,1.4-3.2,1.7c1.7,6.1,3.4,12.1,5.2,18.4
			c-2.2,0-3.8,0-5.8,0c-0.8-3.2-1.7-6.5-2.5-9.8C111.7,100.6,111.1,100.2,103.5,101.1z M107.2,84.1c-0.5,2-0.9,3.7-1.3,5.4
			c-0.3,1.3-0.7,2.7-0.8,4c0,0.7,0.5,1.9,1.1,2.2c2.4,1.2,9-0.4,10.7-2.5c2.7-3.2,1.4-7.7-2.7-8.5C112,84.3,109.7,84.3,107.2,84.1z"
			/>
		<path class="st5" d="M81.3,79.8c2.7,12.4,5.5,24.8,8.2,37.2c-5,1.1-5,1.1-7.8-8.4c-5.9,0-12.1-0.3-18.1,0.2
			c-1.4,0.1-3,2.9-3.8,4.8c-1.7,3.9-4.5,4.6-8.7,3.6c3.6-5.7,7.2-11.2,10.7-16.7c3.7-5.8,7.7-11.4,11-17.3
			C74.7,79.8,77.1,78.8,81.3,79.8z M80.9,103.5c-1.2-5.9-2.3-11.4-3.7-18.1c-4.1,6.6-7.4,12.1-11.1,18.1
			C71.5,103.5,76,103.5,80.9,103.5z"/>
		<path class="st7" d="M48.1,112c-0.1,1.9-0.3,3.2-0.4,4.9c-6.8,1.8-13.5,2-19.5-2.5c-6-4.5-7.1-11-5.7-17.8
			C25.9,79.9,43.6,76,54.4,81.1c-0.5,1.3-0.9,2.7-1.2,3.7c-4.8,0-9.4-0.6-13.7,0.1c-7.6,1.3-13,11-11.2,19
			c1.6,7.1,8.1,10.6,16.5,8.9C45.7,112.7,46.6,112.4,48.1,112z"/>
		<path class="st8" d="M202.9,33.7c-6.5,0-13.1,0-20.1,0c0.8-3.8,1.5-7.4,2.3-11.2c8,0,15.8,0,23.6,0
			C206.8,26.2,204.9,29.9,202.9,33.7z"/>
		<path class="st9" d="M205.5,38.2c5.4,0,10.8,0,16.8,0c-2.5,4.3-4.8,8.2-7.1,12.1c-5.1,0-10.3,0-16,0
			C201.5,45.8,203.5,42,205.5,38.2z"/>
		<path class="st10" d="M191.5,53.7c-4,0.3-8.1,0.5-13,0.9c0.9-4.7,1.7-8.8,2.6-13.2c5.7,0,11.3,0,16.9,0
			C195.8,45.5,193.6,49.6,191.5,53.7z"/>
		<path class="st11" d="M193.9,58.5c5.5-0.3,11-0.6,17.3-1c-2.3,4.1-4,7.5-6,10.7c-0.5,0.8-2,1.2-3.1,1.2c-4.4,0.1-8.7,0-13.1,0
			C190.6,65.7,192.2,62.1,193.9,58.5z"/>
		<path class="st12" d="M217,19.1c5.2,0,10.3,0,16.1,0c-2.1,3.7-3.9,7.1-5.9,10.3c-0.4,0.7-1.8,1.2-2.7,1.2c-4.7,0.1-9.3,0-14-0.1
			C212.6,26.7,214.8,22.9,217,19.1z"/>
		<path class="st13" d="M191.5,53.7c2.2-4.1,4.4-8.2,6.5-12.4c2.5-1.1,5-2.1,7.5-3.2c-2,3.8-4,7.7-6.2,12.1c5.7,0,10.8,0,16,0
			c-2.9,0.2-5.8,0.9-8.7,0.7C201.2,50.6,196.3,51.6,191.5,53.7z"/>
		<path class="st14" d="M180.6,72.5c-1.7,0.1-3.5,0.2-5.9,0.3c0.8-4,1.5-7.6,2.2-11.6c3.2,0,6.3,0,9.4,0
			C184.5,65,182.6,68.7,180.6,72.5z"/>
		<path class="st15" d="M217,19.1c-2.2,3.8-4.4,7.6-6.5,11.4c-2.5,1.1-5,2.1-7.5,3.2c1.9-3.7,3.8-7.5,5.8-11.2
			C211.5,21.3,214.2,20.2,217,19.1z"/>
		<path class="st16" d="M180.6,72.5c1.9-3.8,3.8-7.5,5.8-11.3c2.5-0.9,5-1.8,7.5-2.7c-1.6,3.6-3.3,7.2-4.9,10.8
			C186.2,70.4,183.4,71.4,180.6,72.5z"/>
		<path class="st17" d="M178.2,22.3c-10.4,0.1-20.9,0.2-31.3,0.3c0.8-0.4,1.7-1,2.5-1c8.8-0.1,17.7-0.1,26.5,0
			C176.7,21.5,177.5,22,178.2,22.3z"/>
		<path class="st18" d="M135.4,60.4c-4.8,0.1-9.5,0.2-14.3,0.2c-0.5,0-1.1-0.8-1.6-1.2c3.9,0,7.8-0.1,11.7,0.1
			C132.6,59.5,134,60.1,135.4,60.4z"/>
		<path class="st18" d="M119.7,57.8c0.2-0.9,0.5-1.8,0.7-2.6C120.2,56,120,56.9,119.7,57.8z"/>
		<path class="st18" d="M120.5,54.5c0.2-1,0.5-2,0.7-3C121,52.5,120.7,53.5,120.5,54.5z"/>
		<path class="st19" d="M83.1,39.7c0.7,4.1,1.2,7.1,1.8,10.3c-2.1,0-4.2,0-7.1,0C79.5,46.7,81.1,43.6,83.1,39.7z"/>
		<path class="st20" d="M134.1,113.1c2.1-9.6,4-18.4,6-27.2c0.2-0.7,1.3-1.5,2.1-1.6c8.7-0.7,14.5,3.2,15.3,10.2
			c1,8.2-4.3,16.3-12,17.7C142.1,112.7,138.5,112.7,134.1,113.1z"/>
		<path class="st21" d="M107.2,84.1c2.5,0.2,4.8,0.2,7.1,0.7c4.1,0.8,5.4,5.3,2.7,8.5c-1.8,2.1-8.4,3.7-10.7,2.5
			c-0.6-0.3-1.1-1.4-1.1-2.2c0-1.3,0.5-2.7,0.8-4C106.3,87.8,106.7,86.1,107.2,84.1z"/>
		<path class="st22" d="M80.9,103.5c-4.9,0-9.4,0-14.8,0c3.6-6,7-11.4,11.1-18.1C78.6,92.1,79.7,97.5,80.9,103.5z"/>
	</g>
</g>
</svg>
