<?xml version="1.0" encoding="utf-8"?>
<!-- Generator: Adobe Illustrator 21.0.0, SVG Export Plug-In . SVG Version: 6.00 Build 0)  -->
<svg version="1.1" id="Camada_1" xmlns="http://www.w3.org/2000/svg" xmlns:xlink="http://www.w3.org/1999/xlink" x="0px" y="0px"
	 viewBox="0 0 250 158.8" style="enable-background:new 0 0 250 158.8;" xml:space="preserve">
<style type="text/css">
	.st0{fill:#FEFEFE;}
	.st1{fill:#F6B500;}
	.st2{fill:#1B2071;}
	.st3{fill:#1D2273;}
	.st4{fill:#202474;}
	.st5{fill:#222776;}
	.st6{fill:#252A78;}
	.st7{fill:#202574;}
	.st8{fill:#1E2373;}
	.st9{fill:#FBFBFC;}
	.st10{fill:#FAFBFC;}
</style>
<g>
	<g>
		<path class="st0" d="M0,158.8C0,105.9,0,52.9,0,0c83.3,0,166.6,0,250,0c0,52.9,0,105.9,0,158.8C166.7,158.8,83.4,158.8,0,158.8z
			 M245.8,133.1c-80.6,0-161.1,0-241.6,0c0,7.2,0,14.4,0,21.6c80.6,0,161.1,0,241.6,0C245.8,147.4,245.8,140.3,245.8,133.1z
			 M4.2,25.7c80.6,0,161.1,0,241.6,0c0-7.2,0-14.4,0-21.5c-80.6,0-161.1,0-241.6,0C4.2,11.4,4.2,18.6,4.2,25.7z M159.2,102
			c0.5,0,0.8,0,1.1,0c4.5,0,8.9,0,13.4,0c0.7,0,1-0.2,1.2-0.9c0.9-2.5,1.8-5.1,2.7-7.5c6.3,0,12.6,0,18.8,0c0.5,2.5,1.1,5,1.6,7.5
			c0.1,0.7,0.4,0.9,1.1,0.9c3.9,0,7.8,0,11.7,0c0.3,0,0.6,0,0.9-0.1c-0.3-1.5-0.6-3-0.9-4.5c-3.6-17.1-7.1-34.2-10.7-51.2
			c-0.1-0.7-0.4-0.9-1.1-0.9c-3.7,0-7.4,0-11,0c-3.5,0-5.8,1.5-7.1,4.7c-6.3,15.1-12.6,30.1-18.9,45.2
			C161.1,97.5,160.2,99.7,159.2,102z M99.3,45.4c-0.4,0-0.7,0-0.9,0c-4.5,0-9,0-13.6,0c-0.7,0-1,0.3-1.3,0.9
			c-4.4,11.1-8.8,22.3-13.2,33.4c-0.5,1.3-1.1,2.7-1.7,4.2c-0.1-0.5-0.2-0.9-0.3-1.2c-2-10.3-3.9-20.6-5.8-30.9
			c-0.8-4.3-3.3-6.3-7.7-6.3c-7.6,0-15.1,0-22.7,0c-1.6,0-1.6,0-1.7,1.7c0.3,0.1,0.6,0.2,0.9,0.2c4.4,1.1,8.8,2.3,12.9,4.3
			c2.1,1,3.3,2.6,3.9,4.8c3.3,12.9,6.6,25.7,10,38.6c0.6,2.3,1.2,4.7,1.8,7.1c0.4,0,0.7,0,1.1,0c4.5,0,8.9,0,13.4,0
			c0.8,0,1.2-0.3,1.5-1c5.6-13.3,11.2-26.6,16.7-40C94.9,55.9,97,50.7,99.3,45.4z M118.2,99.9c0.4,0.2,0.8,0.4,1.1,0.5
			c7.4,2.5,14.9,3.2,22.6,1.9c4.6-0.8,8.8-2.5,12.4-5.7c8.2-7.3,7.5-19.4-1.7-25.5c-2.1-1.4-4.3-2.4-6.4-3.7
			c-1.9-1.1-3.8-2.2-5.5-3.6c-1.9-1.6-1.7-4,0.2-5.5c0.9-0.7,2.1-1.3,3.3-1.6c3.4-0.9,6.9-0.5,10.2,0.3c1.9,0.5,3.8,1.2,5.7,1.7
			c0.8-3.9,1.7-7.9,2.5-11.8c-0.2-0.1-0.3-0.2-0.4-0.2c-6.1-2.2-12.4-2.9-18.8-2c-5,0.7-9.7,2.4-13.6,5.9c-4.4,4-6.3,8.9-5.5,14.8
			c0.5,3.6,2.7,6.3,5.4,8.5c2.5,2.1,5.5,3.6,8.4,5.1c1.7,0.9,3.4,1.9,4.9,3.2c2.3,2,2,5.1-0.5,6.8c-1,0.7-2.1,1.2-3.3,1.4
			c-4.5,1-8.9,0.5-13.2-0.9c-1.8-0.6-3.6-1.4-5.4-2.1C119.9,91.7,119,95.8,118.2,99.9z M93.5,101.9c0.2,0.1,0.3,0.1,0.4,0.1
			c4.5,0,9,0,13.6,0c0.6,0,0.7-0.3,0.8-0.8c3.8-17.6,7.5-35.2,11.3-52.8c0.2-1,0.4-2,0.6-3c-5,0-9.8,0-14.6,0
			C101.5,64.3,97.5,83.1,93.5,101.9z M131,124.7c2.9,0,5.8,0,8.6,0c0-0.5,0-1,0-1.6c-2.2,0-4.4,0-6.5,0c0-1.9,0-3.7,0-5.6
			c2,0,3.9,0,5.8,0c0-0.6,0-1.1,0-1.6c-2,0-3.9,0-5.8,0c0-1.6,0-3.2,0-4.9c2.1,0,4.1,0,6.2,0c0-0.6,0-1.1,0-1.6c-2.8,0-5.5,0-8.2,0
			C131,114.6,131,119.6,131,124.7z M186.6,119.5c0.4,1.1,0.6,2.3,1.2,3.3c1.1,1.9,3.5,2.6,5.7,2.1c2.4-0.6,3.8-2.5,4-5.2
			c0.2-2.6-1-4.8-3.1-5.7c-0.4-0.2-0.7-0.3-1.1-0.3C189.7,113,186.8,115.5,186.6,119.5z M157.5,119.7c0.5-2.4-0.6-5-2.6-5.8
			c-2.3-0.9-4.9,0-6.1,2.1c-1,1.8-1.2,3.6-0.6,5.5c1,3.3,5.5,4.7,8.8,2.7c-0.1-0.4-0.2-0.8-0.4-1.3c-4.5,1.1-7.1-0.2-6.7-3.3
			C152.5,119.7,155,119.7,157.5,119.7z M210,124.8c0-2.6,0.1-5.2,0-7.8c-0.2-2.5-2.2-3.9-4.6-3.3c-1,0.2-1.9,0.9-2.8,1.4
			c0-0.3-0.1-0.8-0.2-1.3c-0.6,0-1.2,0-1.6,0c0,3.7,0,7.3,0,10.9c0.7,0,1.3,0,2,0c0-0.4,0-0.7,0-1c0-1.9,0-3.7,0-5.6
			c0-1.7,1.2-2.9,2.8-2.9c1.5,0,2.5,1,2.6,2.8c0,0.6,0,1.2,0,1.8c0,1.6,0,3.3,0,5C208.8,124.8,209.4,124.8,210,124.8z M172.2,115.3
			c0,1.2,0,2.3,0,3.3c0,1.1,0,2.2,0,3.3c0.1,2.7,2.1,3.9,4.7,2.7c-0.1-0.4-0.1-0.9-0.2-1.4c-1.7,0.2-2.5-0.1-2.5-1.1
			c-0.1-2.3,0-4.6,0-7c0.9,0,1.8,0,2.7,0c0-0.5,0-1,0-1.5c-0.9,0-1.8,0-2.8,0c0-0.9,0-1.7,0-2.6c-0.7,0.2-1.3,0.4-2,0.6
			c0,0.7,0,1.3,0,2c-0.6,0-1.1,0.1-1.6,0.1c0,0.5,0,1,0,1.5C171.1,115.3,171.6,115.3,172.2,115.3z M168.2,123
			c-2.7,0.8-4.4,0.5-5.5-1c-1.1-1.4-1.1-3.8-0.1-5.2c1.1-1.6,2.7-1.9,5.5-1.2c0.1-0.2,0.2-0.5,0.2-0.7c0.1-0.2,0.1-0.5,0.2-0.7
			c-2.7-1.3-6-0.5-7.5,1.6c-1.6,2.2-1.5,5.7,0.3,7.6c1.6,1.8,5,2.2,7.2,0.9C168.4,123.9,168.3,123.5,168.2,123z M144.7,124.8
			c0-5.4,0-10.8,0-16.1c-0.7,0-1.3,0-1.9,0c0,5.4,0,10.7,0,16.1C143.5,124.8,144,124.8,144.7,124.8z M181.9,124.8c0-1.9,0-3.7,0-5.4
			c0-2.7,0.7-3.6,3.4-4c0-0.6,0-1.1,0-1.7c-1.7-0.2-2.7,0.7-3.6,2.2c-0.1-0.9-0.1-1.4-0.2-2c-0.6,0-1.2,0-1.6,0c0,3.7,0,7.3,0,10.9
			C180.6,124.8,181.2,124.8,181.9,124.8z"/>
		<path class="st1" d="M245.8,133.1c0,7.2,0,14.4,0,21.6c-80.5,0-161,0-241.6,0c0-7.2,0-14.3,0-21.6
			C84.7,133.1,165.2,133.1,245.8,133.1z"/>
		<path class="st2" d="M4.2,25.7c0-7.2,0-14.3,0-21.5c80.5,0,161,0,241.6,0c0,7.1,0,14.3,0,21.5C165.3,25.7,84.8,25.7,4.2,25.7z"/>
		<path class="st2" d="M159.2,102c1-2.3,1.9-4.5,2.8-6.7c6.3-15.1,12.6-30.1,18.9-45.2c1.3-3.2,3.6-4.8,7.1-4.7c3.7,0,7.4,0,11,0
			c0.7,0,0.9,0.2,1.1,0.9c3.6,17.1,7.1,34.2,10.7,51.2c0.3,1.5,0.6,2.9,0.9,4.5c-0.3,0-0.6,0.1-0.9,0.1c-3.9,0-7.8,0-11.7,0
			c-0.7,0-1-0.2-1.1-0.9c-0.5-2.5-1-5-1.6-7.5c-6.3,0-12.5,0-18.8,0c-0.9,2.5-1.9,5-2.7,7.5c-0.2,0.7-0.5,0.9-1.2,0.9
			c-4.5,0-8.9,0-13.4,0C160,102,159.7,102,159.2,102z M189.6,61c-0.1,0-0.1,0-0.2,0c-2.5,7-5,13.9-7.6,20.9c4.1,0,8.1,0,12.1,0
			C192.5,74.9,191.1,68,189.6,61z"/>
		<path class="st2" d="M99.3,45.4c-2.2,5.3-4.4,10.5-6.6,15.7c-5.6,13.3-11.2,26.6-16.7,40c-0.3,0.7-0.7,1-1.5,1
			c-4.5,0-8.9,0-13.4,0c-0.3,0-0.6,0-1.1,0c-0.6-2.4-1.2-4.7-1.8-7.1c-3.3-12.9-6.7-25.7-10-38.6c-0.6-2.2-1.8-3.8-3.9-4.8
			c-4.1-2-8.5-3.2-12.9-4.3c-0.3-0.1-0.6-0.2-0.9-0.2c0.1-1.7,0.1-1.7,1.7-1.7c7.6,0,15.1,0,22.7,0c4.4,0,6.8,2,7.7,6.3
			c2,10.3,3.9,20.6,5.8,30.9c0.1,0.4,0.2,0.7,0.3,1.2c0.6-1.5,1.1-2.9,1.7-4.2c4.4-11.1,8.8-22.3,13.2-33.4c0.3-0.6,0.5-0.9,1.3-0.9
			c4.5,0,9,0,13.6,0C98.6,45.4,98.9,45.4,99.3,45.4z"/>
		<path class="st2" d="M118.2,99.9c0.9-4.1,1.8-8.2,2.6-12.3c1.8,0.7,3.6,1.5,5.4,2.1c4.3,1.4,8.7,1.9,13.2,0.9
			c1.1-0.3,2.3-0.8,3.3-1.4c2.5-1.7,2.8-4.8,0.5-6.8c-1.4-1.3-3.2-2.3-4.9-3.2c-2.9-1.5-5.9-3-8.4-5.1c-2.7-2.3-4.9-4.9-5.4-8.5
			c-0.9-5.9,1.1-10.8,5.5-14.8c3.8-3.5,8.5-5.2,13.6-5.9c6.4-1,12.7-0.2,18.8,2c0.1,0,0.2,0.1,0.4,0.2c-0.8,3.9-1.7,7.9-2.5,11.8
			c-1.9-0.6-3.8-1.3-5.7-1.7c-3.4-0.8-6.8-1.2-10.2-0.3c-1.2,0.3-2.3,0.9-3.3,1.6c-1.9,1.5-2.1,3.9-0.2,5.5c1.7,1.4,3.6,2.5,5.5,3.6
			c2.1,1.3,4.4,2.4,6.4,3.7c9.1,6.1,9.9,18.2,1.7,25.5c-3.6,3.2-7.8,4.9-12.4,5.7c-7.7,1.4-15.2,0.6-22.6-1.9
			C118.9,100.3,118.6,100.1,118.2,99.9z"/>
		<path class="st2" d="M93.5,101.9c4-18.9,8-37.7,12.1-56.5c4.8,0,9.7,0,14.6,0c-0.2,1-0.4,2-0.6,3c-3.8,17.6-7.5,35.2-11.3,52.8
			c-0.1,0.5-0.2,0.8-0.8,0.8c-4.5,0-9,0-13.6,0C93.8,102,93.7,102,93.5,101.9z"/>
		<path class="st3" d="M131,124.7c0-5.1,0-10.1,0-15.2c2.7,0,5.5,0,8.2,0c0,0.5,0,1,0,1.6c-2.1,0-4.1,0-6.2,0c0,1.6,0,3.2,0,4.9
			c1.9,0,3.8,0,5.8,0c0,0.6,0,1.1,0,1.6c-1.9,0-3.8,0-5.8,0c0,1.9,0,3.7,0,5.6c2.2,0,4.4,0,6.5,0c0,0.6,0,1,0,1.6
			C136.8,124.7,134,124.7,131,124.7z"/>
		<path class="st4" d="M186.6,119.5c0.2-4,3-6.5,6.8-5.9c0.4,0.1,0.8,0.2,1.1,0.3c2.1,0.9,3.3,3.1,3.1,5.7c-0.2,2.7-1.7,4.6-4,5.2
			c-2.2,0.6-4.6-0.2-5.7-2.1C187.3,121.8,187,120.6,186.6,119.5z M195.8,119.5c-0.3-1.1-0.5-2.1-0.9-2.9c-1.1-2-3.8-2.1-5.1-0.2
			c-1.1,1.6-1.1,4.3,0,5.9c1.2,1.7,3.6,1.8,4.8,0.1C195.1,121.5,195.4,120.4,195.8,119.5z"/>
		<path class="st5" d="M157.5,119.7c-2.5,0-5,0-7.5,0c-0.4,3.1,2.2,4.4,6.7,3.3c0.1,0.4,0.2,0.8,0.4,1.3c-3.3,2-7.8,0.6-8.8-2.7
			c-0.6-1.9-0.4-3.8,0.6-5.5c1.2-2.1,3.8-3,6.1-2.1C156.8,114.7,158,117.2,157.5,119.7z M155.6,118.2c0.1-1.8-0.9-3-2.3-3.1
			c-1.9-0.1-3.1,1-3.4,3.1C151.8,118.2,153.7,118.2,155.6,118.2z"/>
		<path class="st6" d="M210,124.8c-0.6,0-1.2,0-1.9,0c0-1.7,0-3.3,0-5c0-0.6,0-1.2,0-1.8c-0.1-1.8-1-2.8-2.6-2.8s-2.7,1.3-2.8,2.9
			c0,1.9,0,3.7,0,5.6c0,0.3,0,0.6,0,1c-0.7,0-1.3,0-2,0c0-3.6,0-7.2,0-10.9c0.5,0,1,0,1.6,0c0.1,0.4,0.1,1,0.2,1.3
			c0.9-0.5,1.8-1.2,2.8-1.4c2.4-0.6,4.5,0.9,4.6,3.3C210.2,119.6,210,122.1,210,124.8z"/>
		<path class="st7" d="M172.2,115.3c-0.6,0-1.1,0-1.6,0c0-0.5,0-0.9,0-1.5c0.5,0,1-0.1,1.6-0.1c0-0.6,0-1.3,0-2
			c0.7-0.2,1.3-0.4,2-0.6c0,0.9,0,1.7,0,2.6c1,0,1.9,0,2.8,0c0,0.5,0,1,0,1.5c-0.9,0-1.8,0-2.7,0c0,2.4-0.1,4.6,0,7
			c0,1,0.8,1.3,2.5,1.1c0.1,0.5,0.1,0.9,0.2,1.4c-2.5,1.1-4.6-0.1-4.7-2.7c-0.1-1.1,0-2.2,0-3.3
			C172.2,117.6,172.2,116.5,172.2,115.3z"/>
		<path class="st7" d="M168.2,123c0.1,0.5,0.2,0.9,0.3,1.3c-2.2,1.3-5.6,0.9-7.2-0.9c-1.7-1.9-1.9-5.5-0.3-7.6
			c1.6-2.2,4.8-2.9,7.5-1.6c-0.1,0.2-0.1,0.5-0.2,0.7c-0.1,0.2-0.2,0.5-0.2,0.7c-2.8-0.7-4.5-0.4-5.5,1.2c-1,1.5-1,3.8,0.1,5.2
			C163.8,123.5,165.5,123.8,168.2,123z"/>
		<path class="st2" d="M144.7,124.8c-0.6,0-1.2,0-1.9,0c0-5.4,0-10.7,0-16.1c0.6,0,1.2,0,1.9,0C144.7,114,144.7,119.4,144.7,124.8z"
			/>
		<path class="st8" d="M181.9,124.8c-0.7,0-1.3,0-2,0c0-3.6,0-7.2,0-10.9c0.5,0,1,0,1.6,0c0,0.5,0.1,1.1,0.2,2
			c0.9-1.5,1.9-2.4,3.6-2.2c0,0.6,0,1.2,0,1.7c-2.7,0.4-3.4,1.3-3.4,4C181.9,121.1,181.9,122.9,181.9,124.8z"/>
		<path class="st9" d="M189.6,61c1.4,6.9,2.9,13.8,4.3,20.9c-4,0-8,0-12.1,0c2.5-7,5.1-13.9,7.6-20.9C189.5,61,189.6,61,189.6,61z"
			/>
		<path class="st9" d="M195.8,119.5c-0.4,0.9-0.6,2-1.2,2.8c-1.2,1.7-3.6,1.6-4.8-0.1c-1.1-1.6-1.2-4.3,0-5.9c1.3-1.8,4-1.8,5.1,0.2
			C195.3,117.4,195.5,118.4,195.8,119.5z"/>
		<path class="st10" d="M155.6,118.2c-1.9,0-3.8,0-5.7,0c0.3-2.1,1.5-3.3,3.4-3.1C154.7,115.1,155.7,116.4,155.6,118.2z"/>
	</g>
</g>
</svg>
