<?xml version="1.0" encoding="utf-8"?>
<!-- Generator: Adobe Illustrator 21.0.0, SVG Export Plug-In . SVG Version: 6.00 Build 0)  -->
<svg version="1.1" id="Camada_1" xmlns="http://www.w3.org/2000/svg" xmlns:xlink="http://www.w3.org/1999/xlink" x="0px" y="0px"
	 viewBox="0 0 250.6 156.9" style="enable-background:new 0 0 250.6 156.9;" xml:space="preserve">
<style type="text/css">
	.st0{fill:#025A9C;}
	.st1{fill:#025B9C;}
	.st2{fill:#055795;}
	.st3{fill:#FBFBFB;}
	.st4{fill:#F8FBFB;}
	.st5{fill:#FBA92A;}
	.st6{fill:#015A9B;}
	.st7{fill:#025A9B;}
	.st8{fill:#FAA825;}
	.st9{fill:#3A554C;}
	.st10{fill:#7D988F;}
	.st11{fill:#CC9125;}
	.st12{fill:#CF8F27;}
	.st13{fill:#859A94;}
	.st14{fill:#3C5444;}
	.st15{fill:#90A798;}
	.st16{fill:#135C95;}
	.st17{fill:#C3B27A;}
	.st18{fill:#2D648A;}
	.st19{fill:#696237;}
	.st20{fill:#95A183;}
	.st21{fill:#515E3F;}
	.st22{fill:#446F7C;}
	.st23{fill:#CB9D3C;}
	.st24{fill:#B0A97E;}
	.st25{fill:#455745;}
	.st26{fill:#165379;}
	.st27{fill:#2E5152;}
	.st28{fill:#CEB170;}
	.st29{fill:#A1AF8F;}
	.st30{fill:#70622E;}
	.st31{fill:#31697F;}
	.st32{fill:#746633;}
	.st33{fill:#A0AB8D;}
	.st34{fill:#8E9F8E;}
	.st35{fill:#4E583B;}
	.st36{fill:#CA9940;}
	.st37{fill:#B7AE75;}
	.st38{fill:#BBAD73;}
	.st39{fill:#B6AA79;}
	.st40{fill:#44564B;}
	.st41{fill:#335157;}
	.st42{fill:#856E27;}
	.st43{fill:#BCAD7B;}
	.st44{fill:#C5B479;}
	.st45{fill:#5E5735;}
	.st46{fill:#D9A040;}
	.st47{fill:#2B618B;}
	.st48{fill:#AEB188;}
	.st49{fill:#CA9B42;}
	.st50{fill:#585B40;}
	.st51{fill:#A2A58A;}
	.st52{fill:#A3A685;}
	.st53{fill:#5B5F3D;}
	.st54{fill:#969F88;}
	.st55{fill:#505A42;}
	.st56{fill:#405245;}
	.st57{fill:#BAB483;}
	.st58{fill:#8FA295;}
	.st59{fill:#A1AB88;}
	.st60{fill:#555F3C;}
	.st61{fill:#575A31;}
	.st62{fill:#4B5240;}
	.st63{fill:#A1A692;}
	.st64{fill:#635E2D;}
	.st65{fill:#B1AA88;}
	.st66{fill:#B7974B;}
	.st67{fill:#AAAE8D;}
	.st68{fill:#5884A1;}
	.st69{fill:#A9A580;}
	.st70{fill:#655D2C;}
	.st71{fill:#3F6C7F;}
	.st72{fill:#545332;}
	.st73{fill:#BFB284;}
	.st74{fill:#565A39;}
	.st75{fill:#B2B190;}
	.st76{fill:#869D97;}
	.st77{fill:#0E4D81;}
	.st78{fill:#76652A;}
	.st79{fill:#4C513D;}
	.st80{fill:#F4A82B;}
	.st81{fill:#456C7A;}
	.st82{fill:#306889;}
	.st83{fill:#896C2B;}
	.st84{fill:#ABAB86;}
	.st85{fill:#B0AC85;}
	.st86{fill:#756532;}
	.st87{fill:#625E39;}
	.st88{fill:#E0A234;}
	.st89{fill:#3D524C;}
	.st90{fill:#90A68F;}
	.st91{fill:#3C513B;}
	.st92{fill:#525C3C;}
	.st93{fill:#FAFCFB;}
	.st94{fill:#FAFCFC;}
	.st95{fill:#FBFCFC;}
	.st96{fill:#F8A929;}
	.st97{fill:#F9FCFC;}
	.st98{fill:#125484;}
	.st99{fill:#F4AA27;}
	.st100{fill:#44584B;}
	.st101{fill:#17507B;}
	.st102{fill:#E4A536;}
	.st103{fill:#5C5B3F;}
	.st104{fill:#15507B;}
	.st105{fill:#365355;}
	.st106{fill:#15507C;}
	.st107{fill:#145380;}
	.st108{fill:#B49E67;}
	.st109{fill:#165D93;}
	.st110{fill:#E2B555;}
	.st111{fill:#09538E;}
	.st112{fill:#78642E;}
	.st113{fill:#625C2F;}
	.st114{fill:#B9B58C;}
	.st115{fill:#E0A334;}
	.st116{fill:#BC9C51;}
	.st117{fill:#4D5440;}
	.st118{fill:#5E5B32;}
	.st119{fill:#796A2E;}
	.st120{fill:#515A43;}
	.st121{fill:#4F5232;}
	.st122{fill:#475039;}
	.st123{fill:#595F31;}
	.st124{fill:#9EA890;}
	.st125{fill:#F9A829;}
	.st126{fill:#AAB183;}
	.st127{fill:#A8A986;}
	.st128{fill:#17629B;}
	.st129{fill:#779497;}
	.st130{fill:#A0B0A0;}
	.st131{fill:#BBB180;}
	.st132{fill:#C2B67D;}
	.st133{fill:#99A28A;}
	.st134{fill:#C8B47E;}
	.st135{fill:#8F9F8C;}
	.st136{fill:#999C8D;}
	.st137{fill:#A5AD95;}
</style>
<g>
	<g>
		<path class="st0" d="M0.6,8.1c0-2.5,0-5,0-7.5c83.3,0,166.7,0,250,0c0,52.1,0,104.2,0,156.2c-83.3,0-166.7,0-250,0
			c0-49.2,0-98.3,0-147.5c1.9,1,1.2,2.7,1.2,4.2c0,38.7,0,77.5,0.1,116.2c0,8.1-1,16.3,1.3,24.3c0.1,0.2,0.3,0.4,0.6,0.8
			c0.3-0.7,0.5-1.2,0.7-1.7c1.9,0,3.7,0,5.4,0c79.2,0,158.4,0,237.6,0c0.2-1,0.6-2,0.6-2.9c0-47.6,0-95.3,0-142.9
			c0-1-0.4-1.9-0.6-2.9c-0.2,0-0.5,0.1-0.7,0.1c0,0,0,0,0,0c-0.2-0.2-0.4-0.6-0.6-0.6c-1.3-0.3-2.8,0.2-3.4-1.6
			c-0.1-0.2-0.7-0.4-1.1-0.4c-3.6,0.3-7.2-0.9-10.7,0.8c-0.2,0.1-0.7,0.2-0.9,0c-0.9-0.7-1.5-0.2-2.4,0c-2.9,0.6-6.1,1.5-8.7-0.4
			c-3.6,1-6.9,1.8-10.1,0c-3.6,1.1-7,1.8-10,0c-3.7,1-7,1.8-10,0c-3.7,1-7,1.8-10,0c-3.6,1-7,1.7-10.1,0c-3.2,1.2-6.2,1.6-9.1-0.5
			c-1.7,1.4-3.3,2-5.5,1.4c-1.7-0.5-3.7-0.1-5.5-0.2c-1.9-0.1-3.9,0.3-5.7-0.9c-1.2-0.8-2.8-0.8-3.9,0.8c-0.3,0.4-0.8,0.5-1.2,0.7
			c-1.7-1.8-1.7-1.8-4-1.8c-1.6,0-3.1,0.1-4.7,0c-2.2-0.1-4.4,0-5.8,1.8c-2.1-0.3-4.3-0.1-6-0.9c-2.5-1.3-4.5-0.9-6.8,0.3
			c-1.8-1.2-3.7-1.6-5.7-0.2c-0.6,0.4-1.8,0.1-2.6-0.3c-1.6-0.8-3.1-0.7-4.8-0.2c-1.1,0.4-2.3,0.6-3.5,0.8c-1.7,0.2-3.5,0.5-5.2,0.5
			c-1.1,0-2.4-0.1-3.2-0.7c-2.4-1.7-4.8-1.2-7.3-0.4c-3.2,1-6.3,1.6-9.2-0.1c-3.6,1-6.9,1.9-10,0c-3.6,0.9-6.9,1.9-9.9,0.1
			c-3.7,0.8-7,1.9-10.3-0.2c-2.9,1.5-7.2,1.5-9.8,0.1c-3.6,1-7.1,1.8-9.7,0.3C15.8,3,13,4,10.4,3.5C7.2,2.9,4.7,3.5,2.7,5
			C1.8,6.3,1.2,7.2,0.6,8.1z"/>
		<path class="st1" d="M247.5,153.1c-79.2,0-158.4,0-237.6,0c-1.8,0-3.5,0-5.4,0c-0.2,0.5-0.4,1.1-0.7,1.7c-0.3-0.3-0.5-0.5-0.6-0.8
			c-2.3-8-1.3-16.2-1.3-24.3C1.8,91,1.9,52.3,1.9,13.6c0-1.5,0.6-3.2-1.2-4.2c0-0.4,0-0.8,0-1.2c0.6-0.9,1.2-1.8,2-3.1
			c2.1-1.5,4.6-2.1,7.8-1.5C13,4,15.8,3,19.3,2.6c2.6,1.6,6.1,0.8,9.7-0.3c2.6,1.4,6.8,1.4,9.8-0.1c3.3,2.1,6.7,1,10.3,0.2
			c3,1.8,6.3,0.9,9.9-0.1c3.1,1.8,6.4,0.9,10,0c2.9,1.7,6,1.1,9.2,0.1c2.5-0.8,4.9-1.3,7.3,0.4c0.9,0.6,2.1,0.7,3.2,0.7
			c1.7,0,3.5-0.2,5.2-0.5c1.2-0.2,2.4-0.4,3.5-0.8c1.6-0.5,3.2-0.6,4.8,0.2c0.7,0.4,2,0.6,2.6,0.3c2.1-1.4,3.9-1,5.7,0.2
			c2.3-1.2,4.3-1.5,6.8-0.3c1.6,0.8,3.8,0.6,6,0.9c1.4-1.8,3.6-1.9,5.8-1.8c1.6,0.1,3.1,0,4.7,0c2.3,0,2.3,0,4,1.8
			c0.4-0.2,1-0.4,1.2-0.7c1.1-1.5,2.7-1.5,3.9-0.8c1.9,1.2,3.8,0.8,5.7,0.9c1.8,0.1,3.8-0.3,5.5,0.2c2.2,0.6,3.8,0,5.5-1.4
			c2.9,2,5.9,1.7,9.1,0.5c3.1,1.8,6.5,1,10.1,0c3,1.8,6.3,1,10,0c3,1.8,6.3,1,10,0c3,1.8,6.5,1,10,0c3.2,1.9,6.5,1,10.1,0
			c2.6,1.9,5.7,1,8.7,0.4c0.9-0.2,1.6-0.7,2.4,0c0.2,0.1,0.6,0.1,0.9,0c3.4-1.8,7.1-0.5,10.7-0.8c0.4,0,1,0.1,1.1,0.4
			c0.6,1.7,2.1,1.3,3.4,1.6c0.2,0.1,0.4,0.4,0.6,0.6c-16.1,0-32.3,0-48.4,0c-63.3,0-126.6,0-189.9,0c-1.2,0-2.4,0-3.7,0
			c0,6.1,0,11.8,0,17.5c-0.1,1-0.2,2.1-0.2,3.1c0,37.7,0,75.3,0,113c0,1,0.1,2.1,0.2,3.1c0,3.7,0,7.4,0,11.1
			c3,0.7,239.7,0.6,242.1-0.1c0-1,0-2,0-3c0-47.2,0-94.4,0-141.5c0-1-0.1-2.1-0.1-3.1c0.2,0,0.5-0.1,0.7-0.1
			C247.5,54,247.5,103.5,247.5,153.1z"/>
		<path class="st2" d="M247.5,153.1c0-49.6,0-99.2,0-148.7c0.2,1,0.6,1.9,0.6,2.9c0,47.6,0,95.3,0,142.9
			C248.1,151.2,247.7,152.1,247.5,153.1z"/>
		<path class="st3" d="M4.8,141.2c-0.1-1-0.2-2.1-0.2-3.1c0-37.7,0-75.3,0-113c0-1,0.1-2.1,0.2-3.1c1.2,0.4,0.8-0.6,0.8-1.1
			c0-4,0-7.9,0-11.9c0-1,0.1-2,0.2-3.4c1.5,0,2.9,0,4.2,0c75.9,0,151.8,0,227.8,0c2.5,0,4.9,1.2,7.4,0.1c0.3,1.1,0.8,2,0.8,2.9
			c0,1.5-0.4,3.1-0.4,4.6c0,7,0.1,14,0,20.9c-0.1,7,0.3,14.1,0.2,21.1c0,3.7,0.3,7.4,0.4,11.1c0,0.4,0,0.8-0.1,1.2
			c-0.2,1.9-0.5,3.7-0.5,5.6c0,19.9,0,39.8,0,59.7c0,2.4,0.4,4.7,0.5,7.1c0.1,1.7-0.1,3.3-0.1,5c0,0.7-0.3,1.5-0.1,2.1
			c0.6,1.9,0.1,3.4-0.9,4.8c-79.8,0-159.4,0-239.3,0c-0.1-1.2-0.2-2.2-0.2-3.2c0-2.2,0-4.4,0-6.6C5.6,141.6,5,141.4,4.8,141.2z
			 M243,9c-0.8-1.5-2.2-0.9-3.3-0.9c-75.9,0-151.8,0-227.8,0c-1.1,0-2.2,0-3.2,0C7.8,11.9,8,54.5,8.8,56.9c1.1,0,2.2,0,3.3,0
			c75.7,0,151.4,0,227.1,0c0.8,0,1.7,0.2,2.5-0.1c0.5-0.2,0.8-0.9,1.2-1.4c0-1.1-0.1-2.3-0.1-3.4c0-11.2,0-22.4,0-33.6
			C242.9,15.2,243,12.1,243,9z M9.3,148.1L9.3,148.1c1.2,0.2,2.4,0.5,3.6,0.5c43.4,0,86.8,0,130.3,0c31.8,0,63.5,0,95.3,0
			c1.4,0,2.8-0.2,4.3-0.2c0-29.7,0-59.2,0-88.5c-4.1-0.7-231.5-0.5-234,0.3c0,1-0.1,2.1-0.1,3.2c0,8.7,0,17.5,0,26.2
			c0,18.3,0,36.7,0,55C8.7,145.8,9.1,147,9.3,148.1z"/>
		<path class="st4" d="M4.8,141.2c0.3,0.2,0.8,0.5,0.8,0.7c0.1,2.2,0,4.4,0,6.6c0,1,0.1,2,0.2,3.2c79.9,0,159.5,0,239.3,0
			c1-1.4,1.5-3,0.9-4.8c-0.2-0.6,0-1.4,0.1-2.1c0.1-1.7,0.2-3.3,0.1-5c-0.1-2.4-0.5-4.7-0.5-7.1c0-19.9,0-39.8,0-59.7
			c0-1.9,0.3-3.7,0.5-5.6c0-0.4,0.1-0.8,0.1-1.2c-0.2-3.7-0.5-7.4-0.4-11.1c0.1-7-0.3-14.1-0.2-21.1c0.1-7,0-14,0-20.9
			c0-1.5,0.4-3.1,0.4-4.6c0-0.9-0.5-1.8-0.8-2.9c-2.5,1.1-4.9-0.1-7.4-0.1c-75.9,0.1-151.8,0-227.8,0c-1.3,0-2.6,0-4.2,0
			C5.7,7,5.6,8,5.6,9c0,4,0,7.9,0,11.9c0,0.5,0.4,1.5-0.8,1.1c0-5.7,0-11.4,0-17.5c1.3,0,2.5,0,3.7,0c63.3,0,126.6,0,189.9,0
			c16.1,0,32.3,0,48.4,0l0,0c0,1,0.1,2.1,0.1,3.1c0,47.2,0,94.4,0,141.5c0,1,0,2.1,0,3c-2.5,0.7-239.1,0.8-242.1,0.1
			C4.8,148.6,4.8,144.9,4.8,141.2z"/>
		<path class="st5" d="M9.3,148.1c-0.2-1.2-0.7-2.3-0.7-3.5c0-18.3,0-36.7,0-55c0-8.7,0-17.5,0-26.2c0-1.1,0.1-2.2,0.1-3.2
			c2.4-0.8,229.9-1,234-0.3c0,29.4,0,58.8,0,88.5c-1.5,0.1-2.9,0.2-4.3,0.2c-31.8,0-63.5,0-95.3,0c-43.4,0-86.8,0-130.3,0
			C11.7,148.7,10.6,148.4,9.3,148.1c1.5,0,2.9,0,4.4,0c74.7,0,149.5,0,224.2,0c1.1,0,2.2,0,3.3,0c-1.7-1.3-3.7-1.2-5.6-1.2
			c-74.1,0-148.2,0-222.4,0c-0.9,0-1.9-0.1-2.8,0.1C10.1,147.1,9.7,147.7,9.3,148.1z M182.9,124.9c0.1-0.1,0.2-0.3,0.3-0.5
			c4.5-0.7,7.5-3.4,9.7-7.1c0-0.1-0.2-0.3-0.3-0.4c-0.3-0.2-0.5-0.4-0.8-0.6c-1.6-0.2-3.3-0.4-4.9-0.6c-0.8,0-1.7,0-2.5,0
			c-0.8,0.1-1.7,0.3-2.5,0.4c-0.2,0.2-0.4,0.5-0.6,0.7c-2.3,1.9-4.9,1.5-7.5,1.1c-1.2-1.5-2.2-2.9-1.9-4.8c6.5,0,13.1,0,19.6-0.1
			c0.9,0,1.8-0.4,2.8-0.7c0.1-0.2,0.1-0.4,0-0.5c0.1-0.4,0.1-0.8,0.2-1.2c0.2-0.1,0.3-0.2,0.4-0.3c1.2-2,1-4,0.2-6.1
			c-0.1-0.2-0.1-0.4-0.2-0.6c-1.8-5.8-5.7-9-11.8-9.5c-3.1-2.1-6.2-0.9-9.3,0.1c-4.6,1.4-8.7,3.7-11,8.2c-1,1.8-1.8,3.8-2.7,5.7
			c-1,2-1,4.1,0,6.1c0.2,0.2,0.4,0.4,0.6,0.6c0.4,3.2,1.9,5.7,4.6,7.4c1.6,1,3.3,1.8,5,2.7c0.6,0.2,1.2,0.3,1.9,0.5
			c2.9,0,5.8,0,8.7,0C181.4,125.3,182.1,125.1,182.9,124.9z M142.6,108.5c-1,0.8-0.9,1.8-0.2,2.7c-0.3,1.3-0.7,2.5-1,3.8
			c-0.2,0.6-0.4,1.3-0.5,1.9c-0.4,2.4-0.8,4.8-1.2,7.3c3.9,0,7.7,0,11.7,0c0.7-3.8,1.3-7.5,2-11.1c1.6-0.3,1-1.5,1-2.5
			c0-0.5-0.2-0.9-0.1-1.4c0.5-2.4,1-4.8,1.5-7.2c0.2-0.1,0.3-0.3,0.5-0.4c0.2-1.2,0.4-2.4,0.6-3.5c0.5-2.5,0.9-5,1.4-7.4
			c0.1-0.1,0.3-0.2,0.4-0.2c0.3-1,0.5-2.1,0.8-3.1c0,0-0.2-0.2-0.2-0.2c0.1-0.5,0.2-1,0.3-1.4c0.4-0.5,0.9-1,1-1.5
			c0.1-0.2-0.7-0.6-1.2-1c-3.6,0-7.3,0-11.1,0c-0.5,2.6-1,5-1.4,7.4c-0.2,0.1-0.3,0.3-0.5,0.4c-1.3,1-0.7,2.3-0.7,3.5
			c-0.1,0.7-0.1,1.4-0.3,2.1c-0.8,3.8-1.6,7.7-2.4,11.5C142.9,108.2,142.7,108.4,142.6,108.5z M64.6,93c0.3,0.5,0.7,0.9,1,1.4
			c0.1,0.4,0.1,0.8,0.2,1.2c0.2,1.2,0.4,2.4,0.6,3.5c0.1,0.2,0.3,0.3,0.5,0.4c0.1,1.1,0.1,2.3,0.2,3.4c0,1,0,2,0,3
			c0,0.1,0.3,0.1,0.5,0.2c0.1,0.1,0.3,0.2,0.5,0.3c0.1,1,0.1,2.1,0.2,3.1c0,0.9,0,1.8,0,2.7c0,0,0.3,0.1,0.5,0.1
			c0.2,0.1,0.4,0.3,0.5,0.4c0.1,1,0.1,1.9,0.2,2.9c0.2,1.2,0.4,2.4,0.6,3.7c0.1,0.2,0.3,0.3,0.5,0.3c0,0,0.1-0.1,0.1-0.1
			c0.2,1.4,0.5,2.9,0.7,4.3c0.3,0.2,0.5,0.7,0.8,0.7c4.4,0,8.7,0,13.2,0c7.7-13.6,15.4-27.2,23.1-41.2c-5,0-9.5,0-14,0
			c-1.7,3.4-3.5,6.8-5.1,10.2c-2.7,5.5-5,11.1-8.6,16.1c-0.5-0.5-0.9-0.9-1.4-1.4c-0.1-0.4-0.2-0.8-0.3-1.3c0-0.6,0.1-1.1,0.1-1.7
			c0-1.5,0-3,0-4.6c-0.1-1,0.4-2.2-1.1-2.5c-0.1-0.4-0.1-0.8-0.2-1.2c0-0.4,0.1-0.8,0.1-1.2c0-1.3,0-2.6-0.1-4
			c0-0.3-0.6-0.6-0.9-0.9c-0.2-1.8-0.3-3.6-0.5-5.3c0.1-0.9,0.4-1.9-1-2.3c-3.8,0-7.5-0.1-11.3-0.1c-0.2,0-0.4-0.1-0.6-0.1
			c-1,1.2-0.9,2.4,0.1,3.6c0.2,0.1,0.3,0.3,0.5,0.4c0.1,0.9,0.1,1.9,0.2,2.8C64.5,90.9,64.5,92,64.6,93z M135.1,111.2
			c0-0.4-0.1-0.7-0.1-1.1c0.4-1.3,0.8-2.6,1.1-3.8c0-0.2,0.1-0.4,0.1-0.6c0.9-1.7,0.9-3.3,0-5c-0.2-0.2-0.4-0.5-0.6-0.7
			c-0.4-3-2.7-3.9-5.1-4.9c-0.8-0.2-1.7-0.3-2.5-0.5c-0.2-0.1-0.4-0.1-0.6-0.2c-4.2-1.8-8.3-1.4-12.5,0c-0.9,0.2-1.7,0.5-2.6,0.7
			c-3.5,1.6-6.6,3.4-7,8.1c1.4,0.1,2.6,0.1,3.8,0.2c0.5,0.2,1,0.3,1.5,0.5c1.7,0.2,3.4,0.5,5.1,0.5c0.3,0,0.6-0.8,0.9-1.3
			c2.3-2.7,4.6-3,7.6-1c-0.1,1-0.2,2.1-0.3,3.1c-0.1,0.2-0.2,0.3-0.3,0.5c-0.6,0.1-1.2,0.1-1.8,0.2c-0.4,0-0.8,0-1.2-0.1
			c-1.6,0.2-3.3,0.4-4.9,0.6c-0.2,0.1-0.3,0.3-0.4,0.5c-0.8,0.1-1.5,0.1-2.3,0.2c-1.6,0-3.3-0.3-4.5,1.1c-3.3,0.5-5.7,2.4-6.5,5.6
			c-1.2,4.9,0,9.5,6.6,11.4l-0.1,0.1c2.5,0.9,5,1,7.5-0.1c0.1-0.2,0.2-0.4,0.2-0.6c1.4-0.5,2.7-0.9,4.1-1.4c0.7,0.4,1.4,0.8,2.1,1.2
			l0.3,0.1c0,0,0.3,0,0.3,0c3.7-0.1,7.4-0.2,11.1-0.4c0-2,0-3.9,0-5.9c0-0.9,0-1.8,0-2.6c0-0.4,0.1-0.7,0.1-1.1
			C135.2,113.4,136.2,112.5,135.1,111.2z"/>
		<path class="st4" d="M243,55.4c-0.4,0.5-0.7,1.2-1.2,1.4c-0.8,0.2-1.6,0.1-2.5,0.1c-75.7,0-151.4,0-227.1,0c-1.1,0-2.3,0-3.3,0
			c-0.8-2.4-1-45-0.2-48.8c1,0,2.1,0,3.2,0c75.9,0,151.8,0,227.8,0c1.1,0,2.6-0.6,3.3,0.9c-0.2,0-0.3,0-0.5,0c-1-0.1-2-0.4-3-0.4
			c-75.8,0-151.7,0-227.5,0c-1,0-2,0.1-3,0.1C8.9,9.2,8.7,9.5,8.7,9.8c0,14.8,0,29.6,0,44.4c0,0.5,0.5,1,0.7,1.5
			c1.1,0.1,2.3,0.2,3.4,0.2c75.3,0,150.6,0,225.9,0c1,0,2.1-0.1,3.1-0.2c0.2-0.1,0.4-0.1,0.7-0.2C242.7,55.4,242.8,55.4,243,55.4z"
			/>
		<path class="st6" d="M242.5,9c0.2,0,0.3,0,0.5,0c0,3.1-0.1,6.2-0.1,9.3c0,11.2,0,22.4,0,33.6c0,1.1,0.1,2.3,0.1,3.4
			c-0.2,0-0.3,0-0.5,0C242.5,39.9,242.5,24.5,242.5,9z"/>
		<path class="st6" d="M79.2,106.9c0.1,0.4,0.2,0.8,0.3,1.3c0.1,1.2,0.1,2.4,0.2,3.6c0.2,0,0.5,0,0.7,0c0.2-0.7,0.3-1.5,0.5-2.2
			c3.6-5,5.9-10.6,8.6-16.1c1.7-3.4,3.4-6.7,5.1-10.2c4.5,0,8.9,0,14,0c-7.8,13.9-15.4,27.6-23.1,41.2c-4.5,0-8.8,0-13.2,0
			c-0.3,0-0.5-0.4-0.8-0.7c1-1.7,0.5-3.1-0.7-4.3l-0.1,0.1c-0.2-1.2-0.4-2.4-0.6-3.6c-0.1-0.1-0.3-0.2-0.5-0.4
			c-0.1-1-0.1-1.9-0.2-2.9c-0.2-1-0.4-2-0.6-3c-0.1-0.1-0.3-0.1-0.4-0.2c-0.1-1-0.1-2.1-0.2-3.1c-0.2-1-0.4-2-0.6-3
			c-0.1-0.1-0.3-0.2-0.5-0.4c-0.1-1.1-0.1-2.3-0.2-3.4c-0.2-1.2-0.4-2.4-0.6-3.7c-0.1-0.1-0.3-0.2-0.5-0.3c-0.1-0.4-0.1-0.8-0.2-1.2
			c0-0.6,0-1.2,0-1.7c0-0.8,0-1.6,0-2.4c0,0-0.3,0-0.5,0c-0.2-0.1-0.3-0.3-0.5-0.4c-0.1-0.9-0.1-1.9-0.2-2.8c0-1.3,0-2.6,0.1-3.9
			c3.8,0,7.5,0.1,11.3,0.1c0,1,0,2.1,0,3.1c0.2,0,0.3,0,0.5,0c0.2-0.3,0.3-0.5,0.5-0.8c0.2,1.8,0.3,3.6,0.5,5.3
			c-0.1,0.1-0.2,0.1-0.1,0.3c0,1.4-0.1,2.8,0,4.2c0.1,0.5,0.7,1,1,1.6c0.1,0.4,0.1,0.8,0.2,1.2c0,0.6,0,1.2,0,1.9c0,1.4,0,2.8,0,4.3
			c0,1.1,0,2.2,0,3.7C78.8,107.3,79,107.1,79.2,106.9z"/>
		<path class="st7" d="M127.5,94.3c0.2,0.1,0.4,0.1,0.6,0.2c0.6,1.6,1.5,1.4,2.5,0.5c2.3,1,4.7,1.9,5.1,4.9c0.1,2.1,0.3,4.2,0.4,6.3
			c-0.4,1.3-0.8,2.6-1.1,3.8c-0.1-0.1-0.1-0.2-0.2-0.2c-0.1,0-0.2,0.1-0.2,0.1c-0.1,0.8-0.1,1.7-0.1,2.5c0,0.6,0,1.2,0,1.8
			c0,0.4-0.1,0.7-0.1,1.1c-0.2,0.1-0.3,0.3-0.5,0.4c-0.2,0.8-0.4,1.5-0.6,2.3c0.2,1.7,0.3,3.3,0.5,5c0.2,0.3,0.4,0.5,0.6,0.8
			c-3.7,0.1-7.4,0.2-11.1,0.4c-0.2-0.8-0.4-1.6-0.6-2.3c-1-0.2-1.9-0.3-2,1.1c-1.4,0.5-2.7,0.9-4.1,1.4c-2.5,0.3-5.2-0.7-7.7,0.6
			c-6.6-1.9-7.8-6.5-6.6-11.4c0.8-3.2,3.2-5,6.5-5.6c1.7,0.3,3.2,0.2,4.5-1.1c0.8-0.1,1.5-0.1,2.3-0.2c1.7,0,3.4-0.1,5.1-0.1
			c0.4-0.3,0.9-0.6,1.3-1c0.6-0.1,1.2-0.1,1.8-0.2c0.6-0.3,1.5-0.4,1.7-0.8c0.3-0.9,0.8-2-0.5-2.7c-0.2-0.1-0.3-0.2-0.5-0.1
			c-3-2-5.3-1.7-7.6,1c-0.2,0-0.4,0.1-0.5,0.1c-2.3,0.1-4.7,0.1-7,0.2c-1.2-0.1-2.4-0.1-3.8-0.2c0.4-4.7,3.6-6.5,7-8.1
			c1.2,0.9,2.2,0.5,3.2-0.5C119.6,94.4,123.5,94.3,127.5,94.3z M114.9,118.8c1.1,0.8,2.2,0.8,3.3-0.1c0.2-0.2,0.4-0.4,0.7-0.5
			c2.6-0.7,3.6-2.8,4.4-5.1c0.4-0.5,0.9-0.9,1-1.5c0.1-0.2-0.7-0.6-1.1-1c-1,0-2.2-0.4-2.5,1.1c-0.8,0.1-1.6,0.2-2.4,0.3
			c-0.7,0.3-1.3,0.6-2,1c-1.6,0.1-2.6,1-3,2.6C112.9,117.1,113.6,118.1,114.9,118.8L114.9,118.8z"/>
		<path class="st6" d="M171.8,113.2c-0.3,1.9,0.7,3.3,1.9,4.8c2.6,0.4,5.2,0.8,7.5-1.1c1.5,0,2.9,0,4.4-0.1c0.8,0,1.7,0,2.5,0
			c1.5,0,2.9,0.1,4.4,0.1c0.1,0.1,0.4,0.4,0.3,0.4c-2.3,3.7-5.2,6.4-9.7,7.1c-0.8,0-1.7,0-2.5,0c-2,0-3.9-0.1-5.9,0
			c-1.2,0-2.4,0.3-3.6,0.5c-0.4,0-0.8,0.1-1.2,0.1c-1.7-0.9-3.4-1.7-5-2.7c-2.7-1.7-4.2-4.2-4.6-7.4c0-1.9,0-3.7,0-5.6
			c-0.2-0.4-0.4-0.8-0.5-1.2c0.9-1.9,1.8-3.8,2.7-5.7c2.4-4.5,6.4-6.8,11-8.2c3.1,0,6.2-0.1,9.3-0.1c6.1,0.6,10,3.8,11.8,9.5
			c-0.1,2.3-0.3,4.6-0.4,6.9c-0.1,0.4-0.1,0.8-0.2,1.2c-6.6,0-13.2,0-19.8,0c-0.9,0-1.7,0.4-2.6,0.5
			C171.9,112.7,171.8,112.9,171.8,113.2z M183.6,103.3c-0.2-0.1-0.3-0.1-0.5-0.2c-1.5-2-3.9-3.1-5.7-2.3c-1.3,0.7-2.4,1.8-3.4,2.9
			c-0.6,0.7-0.9,1.8-1.4,3c3.8,0,7.1,0,10.4,0l0.3,0l0.3,0C184.7,105.6,184.8,104.5,183.6,103.3z"/>
		<path class="st7" d="M158.2,90.6c-0.5,2.5-0.9,5-1.4,7.4c-0.2,0.1-0.3,0.2-0.5,0.3c-0.2,1.2-0.4,2.4-0.6,3.6
			c-0.5,2.4-1,4.8-1.5,7.2c-0.1,0.4,0.1,0.9,0.1,1.4c-0.9,0.6-1.4,1.4-1,2.5c-0.6,3.7-1.3,7.3-2,11.1c-4,0-7.8,0-11.7,0
			c0.4-2.5,0.8-4.9,1.2-7.3c0.1,0.4,0.2,0.8,0.3,1.2c0.3-0.2,0.6-0.4,0.8-0.6c-0.2-0.8-0.4-1.6-0.6-2.5c0.3-1.3,0.7-2.5,1-3.8
			c0.1-0.2,0.1-0.4,0.2-0.6c0.2-0.9,0.3-1.7,0.5-2.6c0.8-3.8,1.6-7.7,2.4-11.5c0.1-0.7,0.2-1.4,0.3-2.1c0.2-0.1,0.3-0.2,0.5-0.3
			c0.2-1.2,0.4-2.4,0.7-3.6c0.5-2.4,0.9-4.8,1.4-7.4c3.8,0,7.4,0,11.1,0c0,0.8,0.1,1.7,0.1,2.5c-0.1,0.5-0.2,1-0.3,1.4
			C157.4,87.9,158.3,89.4,158.2,90.6z"/>
		<path class="st8" d="M9.3,148.1c0.4-0.4,0.7-1.1,1.2-1.2c0.9-0.2,1.9-0.1,2.8-0.1c74.1,0,148.2,0,222.4,0c1.9,0,3.8-0.1,5.6,1.2
			c-1.1,0-2.2,0-3.3,0c-74.7,0-149.5,0-224.2,0C12.3,148.1,10.8,148.2,9.3,148.1L9.3,148.1z"/>
		<path class="st9" d="M171.9,112.5c0.9-0.2,1.7-0.5,2.6-0.5c6.6,0,13.2,0,19.8,0c0.1,0.2,0.1,0.4,0,0.5
			C186.8,112.4,179.3,112.4,171.9,112.5z"/>
		<path class="st10" d="M171.9,112.5c7.5,0,14.9,0,22.4,0c-0.9,0.2-1.8,0.7-2.8,0.7c-6.5,0.1-13.1,0.1-19.6,0.1
			C171.8,112.9,171.9,112.7,171.9,112.5z"/>
		<path class="st11" d="M127.5,94.3c-4,0.1-7.9,0.1-11.9,0.2c-0.2-0.1-0.4-0.1-0.6-0.2C119.2,92.9,123.3,92.5,127.5,94.3z"/>
		<path class="st12" d="M183.1,94.2c-3.1,0-6.2,0.1-9.3,0.1C176.9,93.3,180,92.1,183.1,94.2z"/>
		<path class="st13" d="M180.6,125.5c-2.9,0-5.8,0-8.7,0c0-0.2,0-0.3-0.1-0.5c2.9-0.1,5.8-0.1,8.8-0.2c0,0,0,0.2,0,0.2
			C180.6,125.2,180.6,125.4,180.6,125.5z"/>
		<path class="st14" d="M108.7,125c2.5-1.2,5.1-0.3,7.7-0.6c-0.1,0.2-0.1,0.4-0.2,0.6C113.7,125,111.2,125.1,108.7,125L108.7,125z"
			/>
		<path class="st15" d="M108.7,125.1c2.5,0,5-0.1,7.5-0.1C113.7,126.1,111.2,126,108.7,125.1z"/>
		<path class="st16" d="M70.6,119.4c1.2,1.3,1.7,2.7,0.7,4.3C71.1,122.3,70.9,120.8,70.6,119.4z"/>
		<path class="st17" d="M160,108.2c0.2,0.4,0.4,0.8,0.5,1.2c-0.2,1.7-0.4,3.3-0.6,5C159,112.3,159,110.2,160,108.2z"/>
		<path class="st18" d="M113.1,106.9c-1.3,1.3-2.9,1.4-4.5,1.1C109.9,106.6,111.5,106.9,113.1,106.9z"/>
		<path class="st19" d="M194.5,110.7c0.1-2.3,0.3-4.6,0.4-6.9c0.1,0.2,0.1,0.4,0.2,0.6c-0.1,2-0.1,4-0.2,6.1
			C194.8,110.5,194.6,110.6,194.5,110.7z"/>
		<path class="st20" d="M116.2,103c0.2-0.1,0.4-0.1,0.5-0.1c-0.3,0.5-0.6,1.3-0.9,1.3c-1.7-0.1-3.4-0.3-5.1-0.5
			c1.1,0,2.3,0.2,3.4,0.1C114.8,103.7,115.5,103.3,116.2,103z"/>
		<path class="st21" d="M116.2,103c-0.7,0.3-1.4,0.6-2.1,0.7c-1.1,0.1-2.2,0-3.4-0.1c-0.5-0.2-1-0.3-1.5-0.5
			C111.6,103.1,113.9,103.1,116.2,103z"/>
		<path class="st22" d="M78,96.9c-0.4-0.5-1-1-1-1.6c-0.1-1.4,0-2.8,0-4.2c0.4,1.5,0.8,3,1.1,4.5C78.1,96.1,78,96.5,78,96.9z"/>
		<path class="st23" d="M80.8,109.5c-0.2,0.7-0.3,1.5-0.5,2.2c-0.2,0-0.5,0-0.7,0c-0.1-1.2-0.1-2.4-0.2-3.6
			C79.9,108.6,80.4,109,80.8,109.5z"/>
		<path class="st24" d="M194.9,110.4c0.1-2,0.1-4,0.2-6.1C195.9,106.4,196.1,108.4,194.9,110.4z"/>
		<path class="st25" d="M136.1,106.2c-0.1-2.1-0.3-4.2-0.4-6.3c0.2,0.2,0.4,0.5,0.6,0.7c0,1.7,0,3.3,0,5
			C136.2,105.8,136.2,106,136.1,106.2z"/>
		<path class="st26" d="M79.2,106.9c-0.2,0.2-0.4,0.5-1,1.1c0-1.5,0-2.6,0-3.7l0.3,0l0.3-0.1c0.2,0.4,0.4,0.7,0.5,1.1
			C79.3,105.8,79.2,106.3,79.2,106.9z"/>
		<path class="st27" d="M76.6,85.5c-0.2,0.3-0.3,0.5-0.5,0.8c-0.2,0-0.3,0-0.5,0c0-1,0-2.1,0-3.1C77,83.6,76.7,84.6,76.6,85.5z"/>
		<path class="st28" d="M134.3,123.9c-0.2-0.3-0.4-0.5-0.6-0.8c0-1.7,0.1-3.3,0.1-5c0.1,0,0.3,0,0.4,0
			C134.3,120,134.3,122,134.3,123.9z"/>
		<path class="st29" d="M78.1,95.7c-0.4-1.5-0.8-3-1.1-4.5c0-0.1,0-0.2,0.1-0.3c0.3,0.3,0.9,0.5,0.9,0.9
			C78.1,93,78.1,94.4,78.1,95.7z"/>
		<path class="st30" d="M160,114.3c0.2-1.7,0.4-3.3,0.6-5c0,1.9,0,3.7,0,5.6C160.4,114.8,160.2,114.6,160,114.3z"/>
		<path class="st31" d="M130.6,95c-1,0.9-2,1.1-2.5-0.5C128.9,94.6,129.8,94.8,130.6,95z"/>
		<path class="st32" d="M124.9,102c1.3,0.7,0.8,1.8,0.5,2.7c-0.2,0.4-1.1,0.6-1.7,0.8c0.1-0.2,0.2-0.3,0.3-0.5
			C125.8,104.4,124.8,103.1,124.9,102z"/>
		<path class="st33" d="M115.8,106.3c1.6-0.2,3.3-0.4,4.9-0.6c-0.1,0.2-0.2,0.4-0.3,0.5C118.9,106.2,117.3,106.3,115.8,106.3z"/>
		<path class="st34" d="M136.3,105.6c0-1.7,0-3.3,0-5C137.2,102.3,137.2,103.9,136.3,105.6z"/>
		<path class="st35" d="M115.8,106.3c1.5,0,3.1-0.1,4.6-0.1c0.1,0.2,0.2,0.3,0.2,0.5c-1.7,0-3.4,0.1-5.1,0.1
			C115.5,106.6,115.6,106.4,115.8,106.3z"/>
		<path class="st36" d="M159.5,85.6c0-0.8-0.1-1.7-0.1-2.5c0.4,0.3,1.2,0.8,1.2,1C160.3,84.7,159.8,85.2,159.5,85.6z"/>
		<path class="st37" d="M186.8,115.7c1.6,0.2,3.3,0.4,4.9,0.6c-1.2,0-2.4,0-3.7,0c-0.4-0.1-0.8-0.1-1.2-0.2
			C186.9,116,186.9,115.9,186.8,115.7z"/>
		<path class="st38" d="M120.5,123.1c0.1-1.4,1.1-1.3,2-1.1c0,0.8,0,1.5,0,2.3C121.9,123.9,121.2,123.5,120.5,123.1z"/>
		<path class="st39" d="M153.3,113.1c-0.4-1.1,0.1-1.9,1-2.5C154.3,111.6,154.9,112.8,153.3,113.1z"/>
		<path class="st40" d="M141.4,115c0.2,0.8,0.4,1.6,0.6,2.5c-0.3,0.2-0.6,0.4-0.8,0.6c-0.1-0.4-0.2-0.8-0.3-1.2
			C141,116.3,141.2,115.6,141.4,115z"/>
		<path class="st41" d="M185.7,116.8c-1.5,0-2.9,0-4.4,0.1c0.2-0.2,0.4-0.5,0.6-0.7c0.9,0,1.7,0,2.6,0c0.4,0,0.8,0.1,1.2,0.1
			C185.6,116.5,185.7,116.6,185.7,116.8z"/>
		<path class="st42" d="M188.1,116.4c1.2,0,2.4,0,3.7,0c0.3,0.2,0.5,0.4,0.8,0.6c-1.5,0-2.9-0.1-4.4-0.1
			C188.1,116.6,188.1,116.5,188.1,116.4z"/>
		<path class="st43" d="M124.9,102c-0.1,1.1,0.9,2.4-0.9,3c0.1-1,0.2-2.1,0.3-3.1C124.6,101.9,124.7,101.9,124.9,102z"/>
		<path class="st44" d="M79.3,105.2c-0.2-0.4-0.4-0.7-0.5-1.1c0-1.2,0-2.3-0.1-3.5l0.3,0c0,0,0.3,0,0.3,0
			C79.3,102.2,79.3,103.7,79.3,105.2z"/>
		<path class="st45" d="M158.2,90.6c0.1-1.3-0.8-2.8,1-3.6c0,0,0.2,0.2,0.2,0.2c-0.3,1-0.5,2.1-0.8,3.1
			C158.5,90.5,158.3,90.6,158.2,90.6z"/>
		<path class="st46" d="M79.3,100.6l-0.3,0l-0.3,0c-0.2-0.2-0.4-0.5-0.5-0.7c0-0.6,0-1.2,0-1.9C79.8,98.4,79.3,99.7,79.3,100.6z"/>
		<path class="st47" d="M115,94.3c0.2,0.1,0.4,0.1,0.6,0.2c-1,0.9-2,1.3-3.2,0.5C113.3,94.7,114.1,94.5,115,94.3z"/>
		<path class="st48" d="M68.2,109.4c0.1,0,0.3,0.1,0.4,0.2c0,0.9,0.1,1.8,0.1,2.6c-0.2,0-0.5-0.1-0.5-0.1
			C68.2,111.2,68.2,110.3,68.2,109.4z"/>
		<path class="st49" d="M134.4,114.4c0-0.6,0-1.2,0-1.8c0.2-0.5,0.4-0.9,0.7-1.4C136.2,112.5,135.2,113.4,134.4,114.4z"/>
		<path class="st50" d="M64.4,83.2c0,1.3,0,2.6-0.1,3.9c-0.2-0.1-0.3-0.3-0.5-0.4c0-1.2,0-2.4-0.1-3.6
			C63.9,83.1,64.2,83.2,64.4,83.2z"/>
		<path class="st51" d="M63.7,83.1c0,1.2,0,2.4,0.1,3.6C62.8,85.5,62.7,84.3,63.7,83.1z"/>
		<path class="st52" d="M69.4,115.5c0.2,0.1,0.3,0.2,0.5,0.4c0.1,1.1,0.1,2.2,0.2,3.3C69.9,117.9,69.7,116.7,69.4,115.5z"/>
		<path class="st53" d="M70.1,119.2c-0.1-1.1-0.1-2.2-0.2-3.3c0.2,1.2,0.4,2.4,0.6,3.6C70.3,119.4,70.2,119.3,70.1,119.2z"/>
		<path class="st54" d="M156.3,98.4c0.2-0.1,0.3-0.2,0.5-0.3c-0.2,1.2-0.4,2.4-0.6,3.5C156.2,100.6,156.3,99.5,156.3,98.4z"/>
		<path class="st55" d="M156.3,98.4c0,1.1-0.1,2.1-0.1,3.2c-0.2,0.1-0.3,0.3-0.5,0.4C155.9,100.8,156.1,99.6,156.3,98.4z"/>
		<path class="st56" d="M66.2,95.9c0.2,1.2,0.4,2.4,0.6,3.7c-0.2-0.1-0.3-0.2-0.5-0.4C66.3,98.1,66.2,97,66.2,95.9z"/>
		<path class="st57" d="M67,103c0.2,0.1,0.3,0.2,0.5,0.4c0,0.9,0.1,1.9,0.1,2.8c-0.2-0.1-0.5-0.1-0.5-0.2C66.9,104.9,67,104,67,103z
			"/>
		<path class="st58" d="M66.2,95.9c0,1.1,0.1,2.2,0.1,3.3c-0.2-1.2-0.4-2.4-0.6-3.5C65.9,95.7,66,95.8,66.2,95.9z"/>
		<path class="st59" d="M146.2,94.2c-0.1,0.1-0.3,0.2-0.5,0.3c0-1.2-0.6-2.5,0.7-3.5C146.3,92,146.2,93.1,146.2,94.2z"/>
		<path class="st60" d="M146.2,94.2c0.1-1.1,0.1-2.1,0.2-3.2c0.2-0.1,0.3-0.3,0.5-0.4C146.6,91.8,146.4,93,146.2,94.2z"/>
		<path class="st61" d="M68.7,112.2c0-0.9-0.1-1.8-0.1-2.6c0.2,1,0.4,2,0.6,3C69.1,112.5,68.9,112.4,68.7,112.2z"/>
		<path class="st62" d="M135.1,111.2c-0.2,0.5-0.4,0.9-0.7,1.4c0-0.8,0.1-1.7,0.1-2.5c0,0,0.2-0.1,0.2-0.1c0.1,0,0.1,0.1,0.2,0.2
			C135,110.5,135.1,110.8,135.1,111.2z"/>
		<path class="st63" d="M64.5,89.9c0.2,0.1,0.3,0.3,0.5,0.4c0,0.7,0,1.4,0,2c-0.2,0.2-0.3,0.5-0.5,0.7C64.5,92,64.5,90.9,64.5,89.9z
			"/>
		<path class="st64" d="M67.5,106.1c0-0.9-0.1-1.9-0.1-2.8c0.2,1,0.4,2,0.6,3C67.8,106.3,67.6,106.2,67.5,106.1z"/>
		<path class="st65" d="M158.6,90.4c0.3-1,0.5-2.1,0.8-3.1C159.1,88.3,158.9,89.4,158.6,90.4z"/>
		<path class="st66" d="M64.6,93c0.2-0.2,0.3-0.5,0.5-0.7c0.2,0.1,0.4,0.2,0.5,0.4c0,0.6,0,1.2,0,1.7C65.2,93.9,64.9,93.5,64.6,93z"
			/>
		<path class="st67" d="M142.6,110.6c-0.1,0.2-0.1,0.4-0.2,0.6c-0.7-1-0.8-1.9,0.2-2.7C142.6,109.2,142.6,109.9,142.6,110.6z"/>
		<path class="st68" d="M184.4,116.2c-0.9,0-1.7,0-2.6,0c0.8-0.1,1.7-0.3,2.5-0.4C184.4,115.9,184.4,116,184.4,116.2z"/>
		<path class="st69" d="M134.3,118.1c-0.1,0-0.3,0-0.4,0l-0.2,0c0.1-0.7,0.1-1.5,0.2-2.2c0.2-0.1,0.3-0.3,0.5-0.4
			C134.3,116.3,134.3,117.2,134.3,118.1z"/>
		<path class="st70" d="M122.6,124.3c0-0.8,0-1.5,0-2.3c0.2,0.8,0.4,1.6,0.6,2.3l-0.3,0L122.6,124.3z"/>
		<path class="st71" d="M120.6,106.7c0-0.2-0.1-0.3-0.2-0.5c0.1-0.2,0.2-0.3,0.3-0.5c0.4,0,0.8,0,1.2,0.1
			C121.5,106.1,121,106.4,120.6,106.7z"/>
		<path class="st72" d="M180.7,124.5c0.8,0,1.7,0,2.5,0c-0.1,0.2-0.2,0.3-0.3,0.5c-0.7,0.1-1.5,0.1-2.2,0.2l0-0.2
			C180.6,124.7,180.6,124.6,180.7,124.5z"/>
		<path class="st73" d="M171.9,125.1c0,0.2,0,0.3,0.1,0.5c-0.6-0.2-1.2-0.3-1.9-0.5c0.4,0,0.8-0.1,1.2-0.1
			C171.4,125,171.7,125,171.9,125.1z"/>
		<path class="st74" d="M142.6,110.6c0-0.7,0-1.4,0-2.1c0.2-0.1,0.3-0.3,0.5-0.4C142.9,108.9,142.7,109.8,142.6,110.6z"/>
		<path class="st75" d="M180.6,125.1c0.7-0.1,1.5-0.1,2.2-0.2c-0.8,0.2-1.5,0.4-2.3,0.6C180.6,125.4,180.6,125.2,180.6,125.1z"/>
		<path class="st76" d="M184.4,116.2c0-0.1-0.1-0.3-0.1-0.4c0.8,0,1.7,0,2.5,0c0,0.1,0,0.3,0.1,0.4c-0.4,0.1-0.8,0.1-1.3,0.2
			C185.2,116.3,184.8,116.2,184.4,116.2z"/>
		<path class="st6" d="M241.8,55.6c-1,0.1-2.1,0.2-3.1,0.2c-75.3,0-150.6,0-225.9,0c-1.1,0-2.3-0.1-3.4-0.2c0-14.5,0-28.9,0-43.4
			c0-0.9,0.2-1.8,0.3-2.6c77.5,0,154.7,0,232.2,0C241.8,25.1,241.8,40.4,241.8,55.6z M122.3,41.3c-0.1,0.2-0.3,0.3-0.4,0.5
			c-1.7,0.5-3.3,0.9-5,1.4c-0.6,0.2-1.3,0.3-1.9,0.5c-0.6,0.3-1.2,0.5-1.8,0.8c-0.4,0.2-0.9,0.3-1.3,0.5c-0.8,0.2-1.5,0.4-2.2,0.7
			c-0.6,0.3-1,0.7-1.6,1.1c-0.4,0.1-0.8,0.1-1.2,0.2c-0.8,0-1.9-0.3-1.9,1.1c-0.8,0.2-1.7,0.4-2.5,0.7c-0.2,0.2-0.5,0.3-0.7,0.5
			c-0.8,0.3-1.5,0.5-2.3,0.8c-0.9,0.4-1.7,0.7-3,1.3c2,1.1,3-0.3,4.2-0.7c0.6-0.2,1.3-0.4,1.9-0.6c0.2-0.2,0.5-0.3,0.7-0.5
			c0.6-0.3,1.2-0.5,1.8-0.8c0.6-0.2,1.3-0.4,1.9-0.6c0.4,0,0.8-0.1,1.2-0.1c1.2-0.4,2.5-0.8,3.7-1.2c0.6,0,1.1,0,1.7,0
			c0.9,0,1.8,0,3.1,0c-0.6-0.6-0.8-0.8-1-1c0.4-0.1,0.8-0.2,1.2-0.2c1,0,2,0,2.9,0c1-0.2,2-0.4,3-0.6c0.1-0.1,0.3-0.3,0.4-0.5
			c1.2-0.1,2.4-0.1,3.6-0.2c2.5,0,5,0,7.5,0c2.1,0,4.2,0,6.3,0c1.3,0,2.5,0,3.8,0c1.5,0,2.9,0,4.4,0c1.2,0.1,2.4,0.1,3.7,0.2
			c0.3,0.2,0.6,0.3,0.8,0.5c1.2,0.2,2.4,0.4,3.7,0.6c0.9-0.2,1.7-0.4,2.6-0.6c0.3,0,1,0,1-0.1c0-2,0.1-3.9,0-5.9
			c0-0.3-0.7-0.5-1.1-0.7c-1.5,0-2.9,0-4.4-0.1c-4.1,0-8.2,0-12.3,0c-1.3,0-2.5,0-3.8,0c-1,0-2,0-3.1,0c-1.4-0.2-2.8,0-3.8,1.2
			c-2.3,0.5-4.5,0.9-6.8,1.4C124.1,40.9,123.2,41.1,122.3,41.3z M118.9,12.5c-0.9,2.7-1.9,5.4-2.8,8.2c-1.3,4.2-2.6,8.5-3.9,13
			c2.2,0,4,0,5.8,0c2-6.5,3.9-12.8,5.8-19.2c0.2-0.6-0.1-1.3-0.2-2c0.1-0.1,0.2-0.1,0.2-0.2c0-0.1-0.1-0.3-0.1-0.3c-1.7,0-3.3,0-5,0
			C118.8,12.2,118.9,12.4,118.9,12.5z M109.5,12.7c-2.5,4-4.5,8.3-7.4,12.7c-0.3-4-0.4-7.2-0.7-10.4c-0.1-0.9-0.6-1.7-0.9-2.5
			c-2.2-0.9-6.4-0.9-8.6,0c0.1,0.3,0.2,0.7,0.3,0.8c2.7,0.7,3.4,2.6,3.6,5.1c0.5,5,1.2,10,1.8,15.2c2.1,0,4.1,0,6.1,0
			c3.7-6.5,7.4-13,11-19.5c0.2-0.4,0.1-1.1,0.1-1.7c0.1-0.1,0.2-0.1,0.2-0.2c0-0.1-0.1-0.3-0.1-0.3
			C113.2,12.1,111.2,11.2,109.5,12.7z M146.2,32.5c2.1-0.8,4.2-0.8,6.4-0.4c0.9,0.1-0.3,1.9,1.2,1.4c2,0.5,4,0.6,6.1-0.1
			c-0.7-7-1.4-13.9-2-20.8c-2-1-5-1-7.2-0.1c-0.3,0.3-0.6,0.6-0.8,0.9c-3.4,6.4-6.8,12.7-10.2,19.1c-0.2,0.3-0.1,0.7-0.2,1.3
			c1.7,0,3.1,0.2,4.5-0.1C144.8,33.7,145.5,33,146.2,32.5z M141.8,14.8c-3.8-2.6-7.6-3.4-11.7-1.8c-5.1,2-5.9,7.5-1.7,10.9
			c1,0.8,2.3,1.4,3.3,2.3c0.7,0.5,1.1,1.3,1.8,2c-3.4,3.4-6.2,0.8-9.3-0.2c-0.9,1.3-1.7,2.5-2.5,3.8c3.3,2.3,5.6,2.7,10.5,2.6
			c2.7-0.1,4.4-1.5,5.8-3.4c2.1-2.9,1.8-5.4-0.8-7.8c-1.2-1.1-2.7-2-4-2.9c-0.8-0.6-2-1.4-1.3-2.4c0.4-0.7,1.8-1.2,2.6-1
			c1.4,0.2,2.7,0.9,4.3,1.5C139.8,17.2,140.8,16.1,141.8,14.8z M129,35.2c-0.1,0.1-0.2,0.2-0.3,0.3c1.2,0,2.5,0,3.7,0
			c0-0.1,0-0.2,0-0.3C131.3,35.2,130.2,35.2,129,35.2z"/>
		<path class="st77" d="M241.8,55.6c0-15.3,0-30.5,0-46c-77.5,0-154.7,0-232.2,0c-0.1,0.8-0.3,1.7-0.3,2.6c0,14.5,0,28.9,0,43.4
			c-0.2-0.5-0.7-1-0.7-1.5c0-14.8,0-29.6,0-44.4c0-0.3,0.2-0.6,0.3-1.1c1,0,2-0.1,3-0.1c75.8,0,151.7,0,227.5,0c1,0,2,0.3,3,0.4
			c0,15.5,0,31,0,46.5C242.3,55.5,242.1,55.6,241.8,55.6z"/>
		<path class="st78" d="M78.2,100c0.2,0.2,0.4,0.5,0.5,0.7c0,1.2,0,2.3,0.1,3.5l-0.3,0.1l-0.3,0C78.2,102.8,78.2,101.4,78.2,100z"/>
		<path class="st79" d="M65.5,92.7c-0.2-0.1-0.4-0.2-0.5-0.4c0-0.7,0-1.4,0-2c0.2,0,0.5,0,0.5,0C65.5,91.1,65.5,91.9,65.5,92.7z"/>
		<path class="st80" d="M123.2,113.2c-0.8,2.3-1.8,4.4-4.4,5.1c-1.3,0.2-2.6,0.4-3.9,0.5c-1.4-0.6-2.1-1.7-1.8-3.2
			c0.3-1.5,1.4-2.4,3-2.6c0.9,0,1.8,0,2.9,0c-0.5-0.5-0.7-0.8-0.9-1c0.8-0.1,1.6-0.2,2.4-0.3c0.8,0,1.6,0,2.5-0.1
			C123.1,112.2,123.2,112.7,123.2,113.2z"/>
		<path class="st81" d="M123,111.7c-0.8,0-1.6,0-2.5,0.1c0.4-1.5,1.5-1.1,2.5-1.1C123.1,111,123.1,111.4,123,111.7z"/>
		<path class="st82" d="M123,111.7c0-0.3,0-0.7,0.1-1c0.4,0.3,1.2,0.8,1.1,1c-0.1,0.5-0.6,1-1,1.5
			C123.2,112.7,123.1,112.2,123,111.7z"/>
		<path class="st83" d="M133.9,118.1c0,1.7-0.1,3.3-0.1,5c-0.2-1.7-0.3-3.3-0.5-5c0.1,0,0.3,0,0.4,0L133.9,118.1z"/>
		<path class="st84" d="M118.2,112.1c0.2,0.2,0.4,0.4,0.9,1c-1.2,0-2.1,0-2.9,0C116.8,112.7,117.5,112.4,118.2,112.1z"/>
		<path class="st85" d="M115,118.8c1.3-0.2,2.6-0.4,3.9-0.5c-0.2,0.2-0.4,0.4-0.7,0.5C117.1,118.8,116,118.8,115,118.8
			C114.9,118.8,115,118.8,115,118.8z"/>
		<path class="st86" d="M114.9,118.8c1.1,0,2.2,0,3.3-0.1C117.1,119.6,116,119.7,114.9,118.8z"/>
		<path class="st87" d="M133.6,118.1c-0.1,0-0.3,0-0.4,0c0.2-0.8,0.4-1.5,0.6-2.3C133.8,116.6,133.7,117.4,133.6,118.1z"/>
		<path class="st88" d="M183.1,106.8c-3.3,0-6.5,0-10.4,0c0.5-1.2,0.8-2.3,1.4-3c1-1.1,2.1-2.2,3.4-2.9c1.7-0.9,4.2,0.3,5.7,2.3
			C183.2,104.4,183.1,105.6,183.1,106.8z"/>
		<path class="st89" d="M171.9,125.1c-0.2-0.1-0.4-0.1-0.6-0.2c1.2-0.2,2.4-0.4,3.6-0.5c2-0.1,3.9,0,5.9,0c0,0.1,0,0.3,0,0.4
			C177.7,124.9,174.8,125,171.9,125.1z"/>
		<path class="st90" d="M183.1,106.8c0-1.2,0-2.4,0.1-3.6c0.2,0.1,0.3,0.1,0.5,0.2c0,1.2,0,2.3,0.1,3.5l-0.3,0L183.1,106.8z"/>
		<path class="st91" d="M183.7,106.8c0-1.2,0-2.3-0.1-3.5C184.8,104.5,184.7,105.6,183.7,106.8z"/>
		<path class="st92" d="M185.6,116.3c0.4-0.1,0.8-0.1,1.3-0.2c0.4,0.1,0.8,0.1,1.2,0.2c0,0.1,0,0.3,0.1,0.4c-0.8,0-1.7,0-2.5,0
			C185.7,116.6,185.6,116.5,185.6,116.3z"/>
		<path class="st93" d="M157.9,12.6c0.7,6.9,1.3,13.8,2,20.8c-2.1,0.7-4.1,0.6-6.1,0.1c0-0.9-0.1-1.7-0.1-2.8c-2,0-3.7,0-5.5,0
			c-1.3,0-1.9,0.6-2,1.8c-0.7,0.4-1.4,1.2-2.2,1.3c-1.4,0.2-2.9,0.1-4.5,0.1c0.1-0.6,0.1-1,0.2-1.3c3.4-6.4,6.8-12.8,10.2-19.1
			c0.2-0.4,0.5-0.6,0.8-0.9C153.1,12.6,155.5,12.6,157.9,12.6z M153.2,18.5c-0.2,0-0.4,0-0.7,0c-1.2,2.7-2.3,5.3-3.6,8.2
			c1.8,0,3.1,0,4.7,0C153.5,23.8,153.3,21.1,153.2,18.5z"/>
		<path class="st94" d="M100.5,12.5c0.3,0.8,0.8,1.6,0.9,2.5c0.3,3.2,0.5,6.4,0.7,10.4c3-4.4,4.9-8.8,7.4-12.7
			c1.8,0,3.6-0.1,5.3-0.1c0,0.6,0.2,1.3-0.1,1.7c-3.6,6.5-7.3,13-11,19.5c-2.1,0-4,0-6.1,0c-0.6-5.2-1.3-10.2-1.8-15.2
			c-0.2-2.5-0.9-4.4-3.6-5.1c-0.2,0-0.2-0.5-0.3-0.8C94.8,12.5,97.7,12.5,100.5,12.5z"/>
		<path class="st95" d="M141.8,14.8c-1.1,1.3-2,2.4-2.9,3.5c-1.6-0.6-2.9-1.3-4.3-1.5c-0.9-0.1-2.2,0.4-2.6,1
			c-0.7,1.1,0.5,1.8,1.3,2.4c1.3,1,2.8,1.8,4,2.9c2.6,2.4,2.8,4.9,0.8,7.8c-1.4,1.9-3.1,3.4-5.8,3.4c-4.9,0.1-7.2-0.3-10.5-2.6
			c0.8-1.3,1.7-2.5,2.5-3.8c3,0.9,5.9,3.5,9.3,0.2c-0.7-0.8-1.2-1.5-1.8-2c-1.1-0.8-2.3-1.4-3.3-2.3c-4.2-3.4-3.3-8.9,1.7-10.9
			C134.2,11.4,138,12.2,141.8,14.8z"/>
		<path class="st96" d="M116.9,43.2c1.7-0.5,3.3-0.9,5-1.4c0.8-0.2,1.7-0.4,2.5-0.6c0.2-0.2,0.5-0.4,0.7-0.6
			c2.3-0.5,4.5-0.9,6.8-1.4c1.2,0,2.4,0,3.6-0.1c0.9,0,1.7,0,2.6,0c1.2-0.2,2.4-0.4,3.7-0.5c0.3-0.2,0.5-0.4,0.8-0.5
			c4.1,0,8.2,0,12.3,0c0.3,0.2,0.6,0.3,1,0.5c0.7,0.2,1.3,0.5,2,0.5c0.9,0.1,1.6,0.3,1.7,1.3c0,1.3-0.1,2.5-0.1,3.8
			c0,0.2,0,0.4,0.1,0.6c-0.9,0.2-1.7,0.4-2.6,0.6c-0.1-0.2-0.2-0.3-0.3-0.5c-1.2-1.2-2.8-0.6-4.2-0.6c-1.2-0.1-2.4-0.1-3.7-0.2
			c-0.2-0.2-0.5-0.3-0.7-0.5c-1.2-0.2-2.5-0.4-3.7-0.5c-1.2,0-2.5,0-3.7,0c-2.1,0-4.1,0-6.2,0c-1,0-2.1,0-3.1,0
			c-1.4,0.1-2.9-0.7-4.2,0.6c-0.1,0.2-0.2,0.3-0.3,0.5c-1.2,0.1-2.4,0.1-3.6,0.2c-1,0-2.1,0-3.1,0c-1.1,0.4-2.1,0.8-3.2,1.2
			c-0.4,0.1-0.8,0.2-1.2,0.2c-0.2-0.1-0.4-0.1-0.6-0.2c-0.8-0.1-1.8,0.1-1.9-1.2c0.6-0.3,1.2-0.5,1.8-0.8
			C115.7,44,116.6,44.9,116.9,43.2z"/>
		<path class="st97" d="M123.6,12.5c0.1,0.7,0.3,1.4,0.2,2c-1.9,6.4-3.8,12.7-5.8,19.2c-1.9,0-3.7,0-5.8,0c1.4-4.5,2.6-8.7,3.9-13
			c0.9-2.7,1.9-5.5,2.8-8.2C120.5,12.5,122.1,12.5,123.6,12.5z"/>
		<path class="st98" d="M146.2,32.5c0.1-1.2,0.7-1.8,2-1.8c1.7,0.1,3.5,0,5.5,0c0.1,1,0.1,1.9,0.1,2.8c-1.5,0.5-0.3-1.3-1.2-1.4
			C150.5,31.7,148.3,31.7,146.2,32.5z"/>
		<path class="st99" d="M108,46.8c0.5-0.4,1-0.8,1.6-1.1c0.7-0.3,1.5-0.5,2.2-0.7c0,0.6,0,1.2,0,1.9c-1.2,0.4-2.5,0.8-3.7,1.2
			C108.1,47.6,108.1,47.2,108,46.8z"/>
		<path class="st100" d="M159.5,45c0-0.2,0-0.4-0.1-0.6c0.2-1.3,0.3-2.5,0.5-3.8c-0.2-0.6-0.4-1.3-0.6-1.9c0-0.1,0-0.2,0-0.4
			c0.4,0.2,1.1,0.5,1.1,0.7c0.1,2,0.1,3.9,0,5.9C160.5,44.9,159.8,45,159.5,45z"/>
		<path class="st101" d="M100.5,12.5c-2.9,0-5.7,0-8.6,0C94.1,11.6,98.3,11.6,100.5,12.5z"/>
		<path class="st102" d="M111.9,46.8c0-0.6,0-1.2,0-1.9c0.4-0.2,0.9-0.3,1.3-0.5c0.1,1.2,1.1,1.1,1.9,1.2c-0.5,0.4-1,0.8-1.5,1.1
			C113,46.8,112.4,46.8,111.9,46.8z"/>
		<path class="st103" d="M126.8,44.3c0.1-0.2,0.2-0.3,0.3-0.5c1.4-0.1,2.7-0.1,4.1-0.2c1,0,2.1,0,3.1,0l0,0.2c0,0.1,0,0.3,0,0.4
			C131.8,44.3,129.3,44.3,126.8,44.3z"/>
		<path class="st104" d="M157.9,12.6c-2.4,0-4.8,0-7.2-0.1C153,11.6,155.9,11.6,157.9,12.6z"/>
		<path class="st105" d="M134.3,44.3c0-0.1,0-0.3,0-0.4c2.1,0,4.2,0,6.3,0c0,0.1,0,0.3,0,0.4C138.5,44.3,136.4,44.3,134.3,44.3z"/>
		<path class="st106" d="M114.9,12.5c-1.8,0-3.6,0.1-5.3,0.1c1.7-1.5,3.6-0.6,5.4-0.6c0,0,0.1,0.2,0.1,0.3
			C115.1,12.4,115,12.4,114.9,12.5z"/>
		<path class="st107" d="M123.6,12.5c-1.6,0-3.1,0-4.7,0c-0.1-0.2-0.1-0.3-0.2-0.5c1.7,0,3.3,0,5,0c0,0,0.1,0.2,0.1,0.3
			C123.8,12.4,123.7,12.4,123.6,12.5z"/>
		<path class="st108" d="M100.6,50.6c-1.2,0.3-2.2,1.8-4.2,0.7c1.3-0.5,2.1-0.9,3-1.3C99.9,50.2,100.2,50.4,100.6,50.6z"/>
		<path class="st109" d="M135.5,39.3c-1.2,0-2.4,0-3.6,0.1c1-1.2,2.4-1.3,3.8-1.2c0,0.2,0,0.4,0.1,0.6
			C135.7,38.9,135.6,39.1,135.5,39.3z"/>
		<path class="st102" d="M116.9,45.6c1.1-0.4,2.1-0.8,3.2-1.2c-0.1,0.2-0.1,0.4,0,0.6c-0.1,0.2-0.2,0.4-0.2,0.5
			C118.8,45.6,117.9,45.6,116.9,45.6z"/>
		<path class="st110" d="M105,48.1c0-1.4,1-1.1,1.9-1.1c0,0.4,0.1,0.8,0.1,1.1c-0.6,0.2-1.3,0.4-1.9,0.6C105,48.5,105,48.3,105,48.1
			z"/>
		<path class="st111" d="M129,35.2c1.2,0,2.3,0,3.5,0c0,0.1,0,0.2,0,0.3c-1.2,0-2.5,0-3.7,0C128.8,35.4,128.9,35.3,129,35.2z"/>
		<path class="st112" d="M148.1,43.8c0.2,0.2,0.5,0.3,0.7,0.5c-1.5,0-2.9,0-4.4,0c0-0.1,0-0.3,0-0.4l0-0.2
			C145.6,43.7,146.8,43.7,148.1,43.8z"/>
		<path class="st113" d="M159.3,38.3c0,0.1,0,0.2,0,0.4c-1.1,0-2.3,0-3.4,0.1c-0.3-0.2-0.6-0.3-1-0.5
			C156.4,38.3,157.8,38.3,159.3,38.3z"/>
		<path class="st114" d="M152.4,44.4c1.4,0,2.9-0.6,4.2,0.6c-1.1,0-2.2-0.1-3.4-0.1C153,44.8,152.7,44.6,152.4,44.4z"/>
		<path class="st115" d="M105,48.1c0,0.2,0,0.4,0.1,0.6c-0.6,0.3-1.2,0.5-1.8,0.8c-0.3-0.2-0.6-0.5-0.9-0.7
			C103.3,48.5,104.1,48.3,105,48.1z"/>
		<path class="st116" d="M100.6,50.6c-0.4-0.2-0.8-0.4-1.2-0.6c0.8-0.3,1.5-0.5,2.3-0.8c0.3,0.2,0.5,0.5,0.8,0.7
			C101.9,50.2,101.3,50.4,100.6,50.6z"/>
		<path class="st117" d="M113.6,46.8c0.5-0.4,1-0.8,1.5-1.1c0.2,0.1,0.4,0.1,0.6,0.2c0.2,0.2,0.4,0.4,1,1
			C115.4,46.8,114.5,46.8,113.6,46.8z"/>
		<path class="st118" d="M153.3,44.9c1.1,0,2.2,0.1,3.4,0.1c0.1,0.1,0.2,0.3,0.3,0.5C155.7,45.4,154.5,45.1,153.3,44.9z"/>
		<path class="st119" d="M142.6,38.2c-0.3,0.2-0.5,0.4-0.8,0.5c-1,0-2-0.1-3-0.1c0-0.1,0-0.3,0.1-0.4
			C140,38.2,141.3,38.2,142.6,38.2z"/>
		<path class="st120" d="M144.4,43.9c0,0.1,0,0.3,0,0.4c-1.3,0-2.5,0-3.8,0c0-0.1,0-0.3,0-0.4l0-0.2
			C141.9,43.7,143.1,43.8,144.4,43.9z"/>
		<path class="st121" d="M138.8,38.2c0,0.1,0,0.3-0.1,0.4c-0.2,0.1-0.4,0.1-0.6,0.2c-0.8,0-1.6,0-2.4-0.1c-0.1-0.2-0.1-0.4-0.1-0.6
			C136.7,38.2,137.8,38.2,138.8,38.2z"/>
		<path class="st122" d="M119.8,45.6c0.1-0.2,0.1-0.4,0.2-0.5c0.9,0,1.9,0,2.8-0.1C121.8,45.2,120.8,45.4,119.8,45.6z"/>
		<path class="st123" d="M125.1,40.7c-0.2,0.2-0.5,0.4-0.7,0.6c-0.7,0-1.4,0-2.1,0.1C123.2,41.1,124.1,40.9,125.1,40.7z"/>
		<path class="st124" d="M122.8,44.9c-0.9,0-1.9,0-2.8,0.1c0-0.2,0-0.4,0-0.6c1,0,2.1,0,3.1,0C123.1,44.6,123,44.8,122.8,44.9z"/>
		<path class="st102" d="M116.9,43.2c-0.3,1.6-1.2,0.8-1.9,0.5C115.6,43.5,116.2,43.4,116.9,43.2z"/>
		<path class="st125" d="M107,48.1c0-0.4-0.1-0.8-0.1-1.1c0.4-0.1,0.8-0.1,1.2-0.2c0,0.4,0.1,0.8,0.1,1.2
			C107.7,48,107.4,48.1,107,48.1z"/>
		<path class="st126" d="M122.3,41.3c0.7,0,1.4,0,2.1-0.1c-0.8,0.2-1.7,0.4-2.5,0.6C122,41.7,122.1,41.5,122.3,41.3z"/>
		<path class="st127" d="M102.5,50c-0.3-0.2-0.5-0.5-0.8-0.7c0.2-0.2,0.5-0.3,0.7-0.5c0.3,0.2,0.6,0.5,0.9,0.7
			C103,49.6,102.8,49.8,102.5,50z"/>
		<path class="st128" d="M153.2,18.5c0.1,2.6,0.3,5.3,0.4,8.1c-1.5,0-2.8,0-4.7,0c1.3-2.9,2.4-5.5,3.6-8.2
			C152.8,18.5,153,18.5,153.2,18.5z"/>
		<path class="st129" d="M140.6,43.9c-2.1,0-4.2,0-6.3,0l0-0.2c0-0.1,0-0.3,0-0.4c2.1,0,4.1,0,6.2,0c0,0.1,0,0.3,0,0.4L140.6,43.9z"
			/>
		<path class="st130" d="M155.9,38.7c1.1,0,2.3,0,3.4-0.1c0.2,0.6,0.4,1.3,0.6,1.9c-0.1,0-0.2,0-0.4,0c-0.1-1.1-0.8-1.3-1.7-1.3
			C157.2,39.2,156.5,38.9,155.9,38.7z"/>
		<path class="st131" d="M131.2,43.7c-1.4,0.1-2.7,0.1-4.1,0.2c1.2-1.3,2.8-0.5,4.2-0.6C131.3,43.4,131.2,43.5,131.2,43.7z"/>
		<path class="st132" d="M138.1,38.8c0.2-0.1,0.4-0.1,0.6-0.2c1,0,2,0.1,3,0.1c-1.2,0.2-2.4,0.4-3.7,0.5
			C138.1,39.1,138.1,39,138.1,38.8z"/>
		<path class="st133" d="M140.6,43.7c0-0.1,0-0.3,0-0.4c1.2,0,2.5,0,3.7,0c0,0.1,0,0.3,0,0.4l0,0.2
			C143.1,43.8,141.9,43.7,140.6,43.7z"/>
		<path class="st134" d="M144.4,43.6c0-0.1,0-0.3,0-0.4c1.2,0.2,2.5,0.4,3.7,0.5C146.8,43.7,145.6,43.7,144.4,43.6z"/>
		<path class="st135" d="M159.6,40.6c0.1,0,0.2,0,0.4,0c-0.2,1.3-0.3,2.5-0.5,3.8C159.5,43.1,159.5,41.9,159.6,40.6z"/>
		<path class="st136" d="M131.2,43.7c0-0.2,0-0.3,0-0.5c1,0,2.1,0,3.1,0c0,0.1,0,0.3,0,0.4C133.3,43.7,132.3,43.7,131.2,43.7z"/>
		<path class="st137" d="M138.1,38.8c0,0.2,0,0.3,0,0.5c-0.9,0-1.7,0-2.6,0c0.1-0.2,0.2-0.3,0.3-0.5
			C136.6,38.8,137.4,38.8,138.1,38.8z"/>
	</g>
</g>
</svg>
