<?xml version="1.0" encoding="utf-8"?>
<!-- Generator: Adobe Illustrator 21.0.0, SVG Export Plug-In . SVG Version: 6.00 Build 0)  -->
<svg version="1.1" id="Camada_1" xmlns="http://www.w3.org/2000/svg" xmlns:xlink="http://www.w3.org/1999/xlink" x="0px" y="0px"
	 viewBox="0 0 250 159.7" style="enable-background:new 0 0 250 159.7;" xml:space="preserve">
<style type="text/css">
	.st0{fill:#014E8C;}
	.st1{fill:#FEFEFE;}
	.st2{fill:#004E8C;}
	.st3{fill:#FEA336;}
	.st4{fill:#0C5691;}
	.st5{fill:#FEFAF6;}
	.st6{fill:#FCFDFD;}
	.st7{fill:#F9FBFC;}
	.st8{fill:#FEA53C;}
	.st9{fill:#125A93;}
	.st10{fill:#FEFAF5;}
	.st11{fill:#FEA740;}
</style>
<g>
	<g>
		<path class="st0" d="M0,0c83.4,0,166.7,0,250,0c0,53.2,0,106.4,0,159.7c-83.3,0-166.6,0-250,0C0,106.5,0,53.3,0,0z M3.1,156.7
			c81.3,0,162.6,0,243.9,0c0-51.3,0-102.4,0-153.6C165.8,3,84.4,3,3.1,3C3.1,54.2,3.1,105.5,3.1,156.7z"/>
		<path class="st1" d="M3.1,156.7c0-51.2,0-102.4,0-153.6c81.3,0,162.6,0,243.9,0c0,51.2,0,102.4,0,153.6
			C165.8,156.7,84.4,156.7,3.1,156.7z M237.2,14.5c-75,0-150.1,0-225.1,0c0,11,0,21.9,0,32.8c75,0,150.1,0,225.1,0
			C237.2,36.4,237.2,25.5,237.2,14.5z M12.1,146.4c75.1,0,150.1,0,225.2,0c0-0.3,0-0.5,0-0.7c0-10.5,0-20.9,0-31.3
			c0-0.6-0.2-0.7-0.7-0.7c-74.6,0-149.1,0-223.7,0c-0.2,0-0.4,0-0.7,0C12.1,124.5,12.1,135.4,12.1,146.4z M148.7,107.8
			c0.3,0,0.5,0,0.7,0c3.3,0,6.7,0,10,0c0.5,0,0.7-0.1,1-0.6c1.9-3.6,3.9-7.1,5.9-10.7c0.2-0.4,0.4-0.5,0.9-0.5c4.8,0,9.5,0,14.3,0
			c0.2,0,0.4,0,0.6,0c0.3,4,0.6,7.8,0.9,11.7c4.5,0,9,0,13.6,0c-1.5-17-2.9-33.9-4.4-50.9c-0.3,0-0.5,0-0.7,0c-3.9,0-7.7,0-11.6,0
			c-0.5,0-0.7,0.1-1,0.5c-9.9,16.5-20,33.2-29.9,49.7C148.9,107.3,148.8,107.5,148.7,107.8z M102.4,56.8c-0.3,0-0.5,0-0.8,0
			c-3.3,0-6.7,0-10,0c-0.5,0-0.8,0.2-1,0.6c-6.4,11.1-12.9,22.2-19.3,33.3c-0.1,0.2-0.2,0.4-0.4,0.7c-0.4-11.6-0.7-23.1-1.2-34.5
			c-7.5,0-15,0-22.5,0c0,0.4,0,0.7,0,1c1,0.2,2.1,0.2,3,0.5c3.7,0.9,5.7,3.2,5.9,7c0.1,1.9,0.2,3.8,0.2,5.7
			c0.3,10.8,0.6,21.7,0.9,32.4c0,1.4,0,2.8,0,4.2c0.3,0,0.4,0,0.5,0c4.3,0,8.5,0,12.8,0c0.4,0,0.6-0.2,0.7-0.5
			c10.3-16.6,20.4-33.2,30.7-49.8C102.2,57.2,102.3,57.1,102.4,56.8z M116.1,94.5c-1,2.9-2,5.9-2.9,8.7c0,0.1,0.1,0.4,0.2,0.6
			c1.3,0.8,2.4,1.9,3.7,2.6c2.5,1.4,5.2,1.9,8,2c5.8,0.4,11.3-0.2,16.7-2.3c5.9-2.2,9.8-6.1,11.2-12.3c1.2-5,0.2-9.4-4.2-12.6
			c-2-1.5-4.2-2.8-6.3-4.2c-1.8-1.2-3.6-2.4-4.9-4.1c-2.7-3.5-1.2-7.7,3-8.9c2-0.5,4-0.4,6-0.2c2.9,0.3,5.9,1,8.4,2.7
			c0.5,0.3,0.9,0.6,1.4,0.9c1.6-2.5,3.1-5,4.8-7.6c-1-0.5-2-1.2-2.9-1.7c-2.9-1.5-6.1-2.1-9.2-2.5c-3.9-0.5-7.6-0.7-11.5,0.1
			c-6.6,1.5-11.6,5.1-14.4,11.3c-2.2,4.8-1.6,9.3,1.9,13.4c1.3,1.5,2.8,2.7,4.5,3.8s3.3,2,5,2.9c1.6,0.9,3,2.1,4.1,3.8
			c1.4,2.2,1,4.6-1,6.2c-1,0.7-2.2,1.4-3.3,1.8c-3.6,1.2-7.1,0.6-10.6-0.4C120.9,97.6,118.4,96.3,116.1,94.5z M90.4,107.8
			c0.3,0,0.6,0,0.8,0c4.2,0,8.5,0,12.7,0c0.6,0,0.8-0.2,1-0.7c4.7-15.1,9.5-30.2,14.3-45.3c0.5-1.6,1-3.1,1.6-4.8
			c-0.3,0-0.5,0-0.8,0c-4.3,0-8.5,0-12.8,0c-0.6,0-0.8,0.2-1,0.7c-4.5,14.4-9.1,28.9-13.7,43.3C91.9,103.1,91.1,105.4,90.4,107.8z
			 M204.3,59.8c0-2.3-1.9-4.2-4.1-4.2c-2.3,0-4.2,1.9-4.2,4.1c0,2.3,1.9,4.2,4.1,4.2C202.4,63.8,204.3,62,204.3,59.8z"/>
		<path class="st2" d="M237.2,14.5c0,11,0,21.9,0,32.8c-75,0-150.1,0-225.1,0c0-10.9,0-21.8,0-32.8C87.2,14.5,162.2,14.5,237.2,14.5
			z"/>
		<path class="st3" d="M12.1,146.4c0-10.9,0-21.8,0-32.8c0.2,0,0.5,0,0.7,0c74.6,0,149.1,0,223.7,0c0.6,0,0.7,0.2,0.7,0.7
			c0,10.5,0,20.9,0,31.3c0,0.2,0,0.4,0,0.7C162.2,146.4,87.2,146.4,12.1,146.4z M229.6,144.7c2.3,0,4.1-1.8,4.1-4.2
			c0-2.3-1.9-4.2-4.2-4.1c-2.3,0-4.1,1.9-4.1,4.2C225.4,142.8,227.3,144.7,229.6,144.7z"/>
		<path class="st0" d="M148.7,107.8c0.2-0.3,0.3-0.5,0.4-0.7c9.9-16.5,20-33.2,29.9-49.7c0.2-0.4,0.5-0.5,1-0.5c3.9,0,7.7,0,11.6,0
			c0.2,0,0.4,0,0.7,0c1.5,17,2.9,33.9,4.4,50.9c-4.5,0-9,0-13.6,0c-0.3-3.9-0.6-7.7-0.9-11.7c-0.2,0-0.4,0-0.6,0
			c-4.8,0-9.5,0-14.3,0c-0.5,0-0.7,0.1-0.9,0.5c-1.9,3.6-3.9,7.1-5.9,10.7c-0.2,0.4-0.5,0.6-1,0.6c-3.3,0-6.7,0-10,0
			C149.2,107.8,149,107.8,148.7,107.8z M181.8,89.3c-0.5-6-0.9-11.9-1.5-18.1c-3.3,6.2-6.6,12-9.9,18.1
			C174.2,89.3,177.9,89.3,181.8,89.3z"/>
		<path class="st0" d="M102.4,56.8c-0.1,0.3-0.2,0.4-0.3,0.6c-10.3,16.6-20.4,33.2-30.7,49.8c-0.2,0.3-0.3,0.5-0.7,0.5
			c-4.3,0-8.5,0-12.8,0c-0.1,0-0.2,0-0.5,0c0-1.4,0-2.8,0-4.2c-0.3-10.8-0.6-21.7-0.9-32.4c-0.1-1.9-0.1-3.8-0.2-5.7
			c-0.2-3.8-2.2-6.2-5.9-7c-0.9-0.2-2-0.3-3-0.5c0-0.3,0-0.6,0-1c7.4,0,15,0,22.5,0c0.3,11.5,0.7,22.9,1.2,34.5
			c0.2-0.3,0.3-0.5,0.4-0.7c6.4-11.1,12.9-22.2,19.3-33.3c0.2-0.4,0.5-0.6,1-0.6c3.3,0,6.7,0,10,0C101.9,56.8,102.1,56.8,102.4,56.8
			z"/>
		<path class="st0" d="M116.1,94.5c2.3,1.8,4.8,3.1,7.5,4c3.5,1,7,1.6,10.6,0.4c1.2-0.4,2.4-1,3.3-1.8c2.1-1.6,2.4-4,1-6.2
			c-0.9-1.7-2.4-2.7-4.1-3.8c-1.7-1-3.3-2-5-2.9c-1.7-1-3.1-2.3-4.5-3.8c-3.6-4.1-4.2-8.6-1.9-13.4c2.9-6.2,7.8-9.8,14.4-11.3
			c3.9-0.8,7.6-0.6,11.5-0.1c3.1,0.4,6.3,1.2,9.2,2.5c0.9,0.5,1.9,1,2.9,1.7c-1.7,2.6-3.2,5.1-4.8,7.6c-0.5-0.3-0.9-0.6-1.4-0.9
			c-2.5-1.7-5.4-2.4-8.4-2.7c-2-0.2-4-0.2-6,0.2c-4.2,1-5.7,5.4-3,8.9c1.4,1.7,3.1,2.9,4.9,4.1c2.1,1.4,4.3,2.7,6.3,4.2
			c4.4,3.1,5.3,7.5,4.2,12.6c-1.4,6.3-5.3,10.2-11.2,12.3c-5.4,2-11,2.7-16.7,2.3c-2.8-0.2-5.5-0.7-8-2c-1.3-0.7-2.5-1.7-3.7-2.6
			c-0.1-0.1-0.3-0.4-0.2-0.6C114.1,100.4,115.1,97.4,116.1,94.5z"/>
		<path class="st0" d="M90.4,107.8c0.7-2.4,1.5-4.6,2.2-6.9c4.6-14.4,9.1-28.9,13.7-43.3c0.2-0.6,0.4-0.7,1-0.7c4.3,0,8.5,0,12.8,0
			c0.2,0,0.4,0,0.8,0c-0.5,1.7-1,3.2-1.6,4.8c-4.8,15.1-9.5,30.2-14.3,45.3c-0.2,0.6-0.4,0.8-1,0.7c-4.2,0-8.5,0-12.7,0
			C91,107.8,90.7,107.8,90.4,107.8z"/>
		<path class="st4" d="M204.3,59.8c0,2.3-1.9,4.2-4.2,4.1c-2.3,0-4.2-1.9-4.1-4.2c0-2.3,2-4.2,4.2-4.1
			C202.4,55.6,204.3,57.5,204.3,59.8z M196.6,59.6c0,1.9,1.5,3.5,3.5,3.5c1.9,0,3.5-1.6,3.5-3.5s-1.5-3.5-3.5-3.5
			C198.2,56.2,196.6,57.8,196.6,59.6z"/>
		<path class="st5" d="M229.6,144.7c-2.3,0-4.2-1.8-4.2-4.1s1.9-4.2,4.1-4.2c2.3,0,4.2,1.8,4.2,4.1
			C233.8,142.8,231.9,144.7,229.6,144.7z M229.6,144c1.9,0,3.5-1.6,3.5-3.5s-1.6-3.5-3.5-3.5s-3.5,1.6-3.5,3.5
			C226.1,142.5,227.7,144,229.6,144z"/>
		<path class="st6" d="M181.8,89.3c-3.8,0-7.5,0-11.4,0c3.3-6,6.6-11.9,9.9-18.1C180.8,77.3,181.2,83.3,181.8,89.3z"/>
		<path class="st7" d="M196.6,59.6c0-1.9,1.6-3.5,3.5-3.5s3.5,1.6,3.5,3.5s-1.6,3.5-3.5,3.5S196.6,61.5,196.6,59.6z M201.9,62.4
			l0.1-0.1c-0.4-0.6-0.8-1.3-1.3-2c0.2-0.1,0.3-0.1,0.4-0.2c0.6-0.3,0.7-0.8,0.7-1.5c-0.1-0.6-0.4-1.2-1-1.3c-0.7-0.1-1.6,0-2.4,0
			c0,1.6,0,3.1,0,4.6c0,0.1,0.2,0.3,0.3,0.4c0.1,0,0.1-0.1,0.2-0.1c0-0.7,0-1.4,0-2c0.7-0.3,1.3,0,1.6,0.6c0.2,0.4,0.4,0.7,0.7,1
			C201.3,62.2,201.7,62.3,201.9,62.4z"/>
		<path class="st8" d="M229.6,144c-1.9,0-3.5-1.6-3.5-3.5s1.6-3.6,3.5-3.5c1.9,0,3.5,1.6,3.5,3.5S231.5,144,229.6,144z M227.9,138.1
			c0,1.8,0,3.3,0,5c0.1,0,0.3,0,0.3,0c0.1-0.7,0.2-1.4,0.3-2.1c0.8-0.2,0.8-0.2,1.4,0.5c0.3,0.4,0.5,0.8,0.9,1.3
			c0.1,0.2,0.4,0.2,0.6,0.3l0.1-0.1c-0.4-0.6-0.8-1.3-1.3-2c0.9-0.3,1.3-0.9,1.2-1.7c-0.1-0.8-0.6-1.3-1.7-1.3
			C229.2,138.1,228.5,138.1,227.9,138.1z"/>
		<path class="st9" d="M201.9,62.4c-0.2-0.1-0.4-0.2-0.6-0.4c-0.3-0.3-0.5-0.7-0.7-1c-0.3-0.6-0.7-0.9-1.6-0.6c0,0.6,0,1.4,0,2
			c-0.1,0-0.1,0.1-0.2,0.1c-0.1-0.1-0.3-0.2-0.3-0.4c0-1.6,0-3,0-4.6c0.8,0,1.6-0.1,2.4,0c0.6,0.1,0.9,0.6,1,1.3
			c0.1,0.6-0.1,1.2-0.7,1.5c-0.1,0.1-0.3,0.1-0.4,0.2c0.4,0.6,0.8,1.4,1.3,2C201.9,62.3,201.9,62.3,201.9,62.4z M198.9,59.5
			c0.5,0,1,0,1.6,0c0.5,0,0.6-0.3,0.6-0.8c0-0.4-0.1-0.8-0.6-0.8c-0.5,0-1,0-1.6,0C198.9,58.5,198.9,59,198.9,59.5z"/>
		<path class="st10" d="M227.9,138.1c0.6,0,1.2,0,1.8,0c1,0,1.5,0.4,1.7,1.3c0.1,0.8-0.2,1.4-1.2,1.7c0.4,0.6,0.8,1.3,1.3,2
			l-0.1,0.1c-0.2-0.1-0.4-0.2-0.6-0.3c-0.3-0.4-0.6-0.8-0.9-1.3c-0.4-0.6-0.4-0.6-1.4-0.5c-0.1,0.7-0.2,1.4-0.3,2.1c0,0-0.1,0-0.3,0
			C227.9,141.5,227.9,139.9,227.9,138.1z M228.4,140.4c0.6,0,1,0,1.6,0c0.5,0,0.7-0.4,0.6-0.8c0-0.4-0.2-0.7-0.6-0.8
			c-0.5,0-1,0-1.6,0C228.4,139.4,228.4,139.9,228.4,140.4z"/>
		<path class="st6" d="M198.9,59.5c0-0.5,0-1,0-1.7c0.5,0,1,0,1.6,0c0.5,0,0.6,0.4,0.6,0.8c0,0.4-0.1,0.8-0.6,0.8
			C200,59.5,199.5,59.5,198.9,59.5z"/>
		<path class="st11" d="M228.4,140.4c0-0.6,0-1.2,0-1.7c0.5,0,1,0,1.6,0c0.5,0,0.6,0.4,0.6,0.8c0,0.4-0.1,0.8-0.6,0.8
			C229.5,140.5,229,140.4,228.4,140.4z"/>
	</g>
</g>
</svg>
