<?xml version="1.0" encoding="utf-8"?>
<!-- Generator: Adobe Illustrator 21.0.0, SVG Export Plug-In . SVG Version: 6.00 Build 0)  -->
<svg version="1.1" id="Camada_1" xmlns="http://www.w3.org/2000/svg" xmlns:xlink="http://www.w3.org/1999/xlink" x="0px" y="0px"
	 viewBox="0 0 250 244.2" style="enable-background:new 0 0 250 244.2;" xml:space="preserve">
<style type="text/css">
	.st0{fill:#5DCD8F;}
	.st1{fill:#219350;}
	.st2{fill:#159A4D;}
	.st3{fill:#129E47;}
	.st4{fill:#0D9D50;}
	.st5{fill:#1C984C;}
	.st6{fill:#0C9F48;}
	.st7{fill:#1D9649;}
	.st8{fill:#08A149;}
	.st9{fill:#0D9D4B;}
	.st10{fill:#1A974B;}
	.st11{fill:#359B5F;}
	.st12{fill:#ABE5C2;}
	.st13{fill:#6EA584;}
	.st14{fill:#2A9A57;}
	.st15{fill:#139B4C;}
	.st16{fill:#179A4D;}
	.st17{fill:#43A16B;}
	.st18{fill:#129C49;}
	.st19{fill:#269D57;}
	.st20{fill:#5BB07F;}
</style>
<g>
	<path class="st0" d="M248.4,4c0.3,0,0.6,0.1,0.9,0.1c0,74,0,147.9,0,221.9c0,3.8,0.2,7.6,0.2,11.3c-0.1,1.8-0.2,3.6-0.3,5.4
		c-0.3,0.1-0.6,0.1-0.9,0.2c-0.2-1.8-0.4-3.5-0.4-5.3c0-76.1,0-152.2,0-228.2C248,7.5,248.3,5.7,248.4,4z"/>
	<polygon class="st1" points="249.5,0.6 249.5,0.9 250,0.8 	"/>
	<path class="st1" d="M248.4,4c-0.1,1.8-0.4,3.5-0.4,5.3c0,76.1,0,152.2,0,228.2c0,1.8,0.3,3.5,0.4,5.3c-2.3,0.5-4.6,1.3-6.9,1.3
		c-78.6,0.1-157.3,0-235.9,0c-1.5,0-3-0.2-5.3-0.4c0-5.9,0-11.6,0-17.3c0.8,0,1.7,0,2.5,0c0,0.4,0,0.9,0,1.3c0,0.5,0,0.9,0,1.4
		c0,3.3-0.2,6.7,0.1,10c0.1,1.1,1.6,3,2.5,3c4.8,0.4,9.6,0.3,14.4,0.3c72.1,0,144.2,0.1,216.4-0.1c3.3,0,8.2,2.9,10.3-2.7
		c-3.3-0.8-6.7-2.3-10-2.4c-72.3-0.1-144.7-0.1-217-0.2c-2.4,0-4.8-1.7-7.2-2.6c17.4,0,34.8,0,52.1,0c58.4,0,116.7,0,175.1,0
		c3.8,0,8.1,0.8,7.2-5.4c0-0.9,0-1.8,0-2.7c0-72.5,0-145,0-217.5c0-4.1,0.8-7.7-5.8-7.7C165.9,1.5,91,1.4,16,1.5
		c-1.7,0-3.5,1.7-5.2,2.5c-0.9,0-1.8,0-2.7,0c-1-0.8-1.9-2-3.1-2.4C4.6,1.6,3.6,3.3,2.8,4.1c0,17,0,33.9,0,50.9c-0.8,0-1.7,0-2.5,0
		c0-18,0-36,0-54.5c2.4-0.1,4.3-0.4,6.3-0.4c78.4,0,156.8-0.1,235.2,0C244.4,0.2,248.4-1.3,248.4,4z"/>
	<path class="st2" d="M2.8,226.5c-0.8,0-1.7,0-2.5,0C0.1,187.9,0,149.3,0,110.6C0,92.1,0.1,73.6,0.2,55c0.8,0,1.7,0,2.5,0
		C2.8,112.2,2.8,169.4,2.8,226.5z"/>
	<path class="st2" d="M10.8,4.1c1.7-0.9,3.5-2.5,5.2-2.5c75-0.1,149.9,0,224.9-0.2c6.6,0,5.8,3.7,5.8,7.7c0,72.5,0,145,0,217.5
		c-8.9,0-17.9,0-26.8,0c0-0.9,0-1.8,0-2.6l0,0c0.9-0.5,1.7-0.9,2.6-1.4c-0.9-3.1-1.7-6.2-2.6-9.3c0-2.7,0-5.3,0-8c0.9,0,1.8,0,2.7,0
		c0.4,0.7,0.8,1.3,1.2,2c0.3-0.3,0.5-0.5,0.8-0.8c-0.7-0.4-1.3-0.8-2-1.2c-0.2-4.2,1.3-9.6-0.8-12.3c-3.3-4.2-7.9-6.3-5.4-13.4
		c1.2-3.4-2.2-8.4-3.5-12.5c-2.3,0.4-4.9,0.8-7.5,1.2c2.3-3.2,4.6-6.4,7-9.6c10.3-14.1,11.5-29.4,4.2-44.9
		C208.8,97.3,195,90,177.1,90.1c-25.9,0.1-51.7,0-77.6,0c2.3-1,4.5-2.1,6.8-2.9c3-1,6.1-1.8,9.1-2.7c0.9,0,1.8,0,2.7,0
		c1.9,0.9,3.9,2.6,5.8,2.6c26.3-0.5,52.8,1.8,80.2-1.8c-0.7-2.5-1.2-6.3-1.9-6.4c-2.5-0.2-5.2,1-7.7,1.6c-1.2-0.7-2.5-2-3.7-2
		c-5.4,0-10.8,0.6-16.3,0.6c-17.7,0.1-35.5,0.1-53.2,0c-4,0-6.5,0.8-5.9,5.4c-2.7,0-5.4,0-8,0c-0.8-6.1-2.4-6.7-10-4.1
		c0.6,1.4,1.3,2.7,1.9,4.1c-4.3,2.1-3.7,3.9,0.2,5.6c-5.4,21.1-10.8,42.1-16.3,63.2c-1.3,4.9-3.3,9.6-5.1,15
		c-1.5-1.9-2.1-2.7-2.8-3.5c-1.8-4.9-3.5-9.8-5.3-14.8c0-0.4-0.1-0.8-0.3-1.1c-3.5-9.6-6.9-19.1-10.4-28.7
		c-7.6-0.3-15.3-0.8-22.9-0.8c-6.7,0-13.5,0.6-20.2,1c-0.8,0.2-1.6,0.5-2.4,0.7c-1-2.5-2.7-5.1-2.8-7.6c-0.3-10.4,0-20.8-0.3-31.2
		c0-2-1.7-3.9-2.6-5.8c1.3-23.2-2.9-46.6,2.7-69.7C10.8,5.9,10.8,5,10.8,4.1z M81.8,144.6c1.5-6.6,2.1-12.8,4.4-18.3
		c4-9.1,2.6-17.6-0.5-26.3c-0.3-0.9-2-2-2.9-1.8c-0.9,0.1-2.1,1.6-2.2,2.6c-0.2,1.7,0.3,3.5,0.8,5.1c2.6,8.3,2.9,16-1.8,24.1
		c-2.4,4.1-1.6,9.9-2.4,15.5C80.2,145,81.7,144.7,81.8,144.6z M73.1,142.8c0.7-0.1,1.3-0.2,2-0.3c0-3,0.3-6-0.1-8.9
		c-0.2-1.2-1.9-2.2-3-3.3c-0.7,1.2-2.3,2.5-2.1,3.5C70.7,136.8,72,139.8,73.1,142.8z M214.2,161c0.6,0.9,1.2,1.7,1.8,2.6
		c2.7-2.5,5.3-4.9,8-7.4c-0.5-0.6-1-1.1-1.5-1.7C219.7,156.6,217,158.8,214.2,161z M204.3,90.8c-1.1-1-1.6-1.9-2.2-2
		c-0.6-0.1-1.2,0.7-1.8,1.2c0.5,0.6,0.9,1.5,1.6,1.8C202.3,92,203.1,91.4,204.3,90.8z M224.2,182.3c-1,2.6-1.6,3.4-1.5,4
		c0.1,0.7,0.8,1.4,1.2,2.1c0.3-0.1,0.7-0.3,1-0.4C224.8,186.8,224.6,185.6,224.2,182.3z"/>
	<path class="st3" d="M12.2,234.6c2.4,0.9,4.8,2.6,7.2,2.6c72.3,0.1,144.7,0.1,217,0.2c3.3,0,6.7,1.5,10,2.4
		c-2.1,5.6-6.9,2.7-10.3,2.7c-72.1,0.2-144.2,0.2-216.4,0.1c-4.8,0-9.6,0.1-14.4-0.3c-0.9-0.1-2.4-1.9-2.5-3
		c-0.3-3.3-0.1-6.7-0.1-10c1.8,0,3.6,0,5.4,0c0.9,1.8,1.8,3.6,2.7,5.3C11.3,234.6,11.7,234.6,12.2,234.6z"/>
	<path class="st4" d="M12.2,234.6c-0.4,0-0.9,0-1.3,0c0-1.8,0-3.6,0-5.4l0,0c78.6,0,157.2,0,235.8,0c0.9,6.2-3.5,5.4-7.2,5.4
		c-58.4,0-116.7,0-175.1,0C46.9,234.6,29.5,234.6,12.2,234.6z"/>
	<path class="st5" d="M246.6,229.2c-78.6,0-157.2,0-235.8,0c0-0.9,0-1.8,0-2.7c5.6,0,11.2-0.3,16.7,0.1c5.4,0.4,10-0.1,12.7-5.4
		c1.7,0.4,3.4,0.8,5.5,1.2c0-2.4,0-4.6,0-6.7c1.8,1.8,3.6,3.6,5.4,5.3c0,0,0,0,0,0c0.9,1,1.7,2,2.6,3c0.4,0,0.8,0,1.2,0
		c13.9,0,27.7,0,41.6,0c0.5,0.7,1.1,1.4,1.6,2c0.3-0.7,0.7-1.4,1-2c2.7,0,5.3-0.1,8-0.1c4.5,6.7,7,1.5,8.4-0.5
		c3.4,1.4,5.8,3.1,8.1,3.1c17.1,0.2,34.1,0.2,51.2,0c1.5,0,3.1-1.6,4.6-2.4c13,0,25.9-0.1,38.9-0.1c0.5,0.9,0.9,1.7,1.4,2.6
		c8.9,0,17.9,0,26.8,0C246.6,227.4,246.6,228.3,246.6,229.2z"/>
	<path class="st6" d="M10.8,4.1c0,0.9,0,1.8,0,2.7c-4.8,1.4-5.4,5-5.4,9.4c0.1,70.1,0.1,140.2,0.1,210.4c-0.9,0.4-1.8,0.9-2.7,1.3
		c0-0.4,0-0.9,0-1.3c0-57.2,0-114.4,0-171.5c0-17,0-33.9,0-50.9c1.8,0,3.6,0,5.4,0C9,4.1,9.9,4.1,10.8,4.1z"/>
	<path class="st4" d="M2.8,227.9c0.9-0.4,1.8-0.9,2.7-1.3c0.9-2.4,2.5-4.8,2.5-7.2c0.2-47.6,0.1-95.2,0.1-142.9
		c0.9,1.9,2.5,3.8,2.6,5.8c0.3,10.4-0.1,20.8,0.3,31.2c0.1,2.6,1.8,5.1,2.8,7.6c0.8,3.4,1.6,6.9,2.5,10.3c-1.7,2.1-4.8,4.2-5,6.4
		c-0.3,6.3,0.5,12.7,0.9,19c0.1,1.6,0.6,3.3,0.4,4.8c-0.4,2.7-1.7,5.4-1.7,8.1c-0.2,18.9-0.1,37.8-0.1,56.8c0,0.9,0,1.8,0,2.7
		c0,0,0,0,0,0c-0.9,0-1.8,0-2.7,0c-1.8,0-3.6,0-5.4,0C2.8,228.8,2.8,228.3,2.8,227.9z"/>
	<path class="st2" d="M8.1,4.1c-1.8,0-3.6,0-5.4,0c0.8-0.9,1.8-2.5,2.3-2.4C6.2,2,7.1,3.2,8.1,4.1z"/>
	<path class="st7" d="M8.1,76.5c0,47.6,0,95.2-0.1,142.9c0,2.4-1.7,4.8-2.5,7.2c0-70.1,0-140.2-0.1-210.4c0-4.4,0.6-8,5.4-9.4
		C5.2,29.8,9.4,53.2,8.1,76.5z"/>
	<path class="st8" d="M194.4,80.5c2.6-0.6,5.2-1.8,7.7-1.6c0.7,0.1,1.2,3.9,1.9,6.4c-27.4,3.6-53.9,1.3-80.2,1.8
		c-1.9,0-3.9-1.7-5.8-2.6c0,0,0,0,0,0c21.4,0,42.9,0,64.3,0C186.7,84.2,191.8,86,194.4,80.5z"/>
	<path class="st9" d="M203.3,175.8c-0.3-1.4-0.5-2.8-0.8-4.2c0.9-1.1,1.8-2.3,2.7-3.4c0,0,0-0.1,0-0.1c2.6-0.4,5.2-0.8,7.5-1.2
		c1.3,4.1,4.7,9,3.5,12.5c-2.4,7.1,2.1,9.2,5.4,13.4c2.1,2.7,0.7,8.1,0.8,12.3l0,0c-0.9,0-1.8,0-2.7,0c-0.9,0-1.8,0-2.6,0
		c-2.8-8.7-5.4-17.5-8.6-26.1C208,177.5,205.1,176.9,203.3,175.8z"/>
	<path class="st9" d="M81.8,144.6c-0.2,0-1.7,0.4-4.6,1c0.7-5.5,0-11.4,2.4-15.5c4.7-8.1,4.5-15.8,1.8-24.1
		c-0.5-1.6-0.9-3.5-0.8-5.1c0.1-1,1.3-2.5,2.2-2.6c0.9-0.1,2.6,0.9,2.9,1.8c3.2,8.7,4.5,17.2,0.5,26.3
		C83.9,131.8,83.3,138.1,81.8,144.6z"/>
	<path class="st10" d="M194.4,80.5c-2.6,5.5-7.7,3.7-12.1,4c-1.7-0.9-3.4-2.5-5.2-2.6c-18-0.2-36-0.2-54,0c-1.7,0-3.4,1.7-5.2,2.6
		c0,0,0,0,0,0c-0.9,0-1.8,0-2.7,0h0c-0.7-4.7,1.8-5.5,5.9-5.4c17.7,0.2,35.5,0.1,53.2,0c5.4,0,10.8-0.6,16.3-0.6
		C191.9,78.4,193.1,79.8,194.4,80.5z"/>
	<path class="st11" d="M164.9,221.2c18.1,0,36.3,0,55,0c-1-3.6-1.9-6.5-2.7-9.4c0.9,0.4,1.8,0.9,2.7,1.3c0.9,3.1,1.7,6.2,2.6,9.3
		c-0.9,0.5-1.7,0.9-2.6,1.4c0,0,0,0,0,0c-0.5,0-0.9,0-1.4,0c-13,0-25.9,0.1-38.9,0.1c-4.9-0.1-9.8-0.1-14.7-0.2
		c-0.1-0.8-0.2-1.6-0.3-2.4L164.9,221.2z"/>
	<path class="st12" d="M19.1,121.1c0.2,3.5-0.1,7.2,0.8,10.4c1.8,6,4.5,11.8,6.7,17.8c0.4,1.1,0,2.6,0,3.9c-1.6-2.8-3.4-5.5-4.8-8.4
		c-2.1-4.4-3.8-8.9-5.7-13.4c-0.8-3.4-1.6-6.9-2.5-10.3c0.8-0.2,1.6-0.5,2.4-0.7C17.1,120.6,18.1,120.8,19.1,121.1z"/>
	<path class="st12" d="M69.6,148.9c-2.6-6.5-5-13-7.9-19.3c-1.4-3.1-3.6-5.8-5.5-8.6c1-0.2,2-0.5,3-0.7
		C62.7,129.8,66.1,139.3,69.6,148.9z"/>
	<path class="st13" d="M59.2,120.2c-1,0.2-2,0.5-3,0.7c-0.8,0-1.6,0-2.4,0c-7.2,0-14.4,0-21.7,0c-0.8,0-1.6,0-2.5,0
		c-2.8,0-5.5,0-8.3,0c-0.8,0-1.6,0.1-2.3,0.1c-1-0.2-2-0.5-3-0.7c6.7-0.3,13.5-1,20.2-1C43.9,119.4,51.6,119.9,59.2,120.2z"/>
	<path class="st6" d="M73.1,142.8c-1.1-3-2.5-6-3.2-9.1c-0.2-1,1.3-2.3,2.1-3.5c1,1.1,2.8,2.1,3,3.3c0.4,2.9,0.1,6,0.1,8.9
		C74.4,142.6,73.8,142.7,73.1,142.8z"/>
	<path class="st8" d="M115.3,84.5c-3,0.9-6.1,1.7-9.1,2.7c-2.3,0.8-4.5,1.9-6.8,2.9c0,0,0.1,0,0.1,0c-3.9-1.7-4.6-3.5-0.2-5.6
		c2.7,0,5.4,0,8,0C110,84.5,112.6,84.5,115.3,84.5C115.3,84.5,115.3,84.5,115.3,84.5z"/>
	<path class="st10" d="M107.3,84.5c-2.7,0-5.4,0-8,0c-0.6-1.4-1.3-2.7-1.9-4.1C104.9,77.8,106.5,78.4,107.3,84.5z"/>
	<path class="st9" d="M214.2,161c2.8-2.2,5.5-4.3,8.3-6.5c0.5,0.6,1,1.1,1.5,1.7c-2.7,2.5-5.3,4.9-8,7.4
		C215.4,162.7,214.8,161.8,214.2,161z"/>
	<path class="st12" d="M75.2,164.8c-1.8-4.9-3.5-9.8-5.3-14.8C71.7,154.9,73.4,159.8,75.2,164.8z"/>
	<path class="st14" d="M219.8,213.1c-0.9-0.4-1.8-0.9-2.7-1.3c0,0,0,0,0,0c0-2.2,0-4.4,0-6.6l0.1-0.1c0.9,0,1.8,0,2.6,0
		C219.8,207.8,219.8,210.5,219.8,213.1z"/>
	<path class="st8" d="M204.3,90.8c-1.3,0.5-2.1,1.2-2.5,1c-0.7-0.3-1-1.2-1.6-1.8c0.6-0.4,1.3-1.2,1.8-1.2
		C202.7,88.9,203.2,89.8,204.3,90.8z"/>
	<path class="st9" d="M224.2,182.3c0.4,3.3,0.6,4.5,0.7,5.7c-0.3,0.1-0.7,0.3-1,0.4c-0.4-0.7-1.1-1.4-1.2-2.1
		C222.6,185.7,223.2,184.9,224.2,182.3z"/>
	<path class="st14" d="M222.5,205.1c0.7,0.4,1.3,0.8,2,1.2c-0.3,0.3-0.5,0.5-0.8,0.8C223.4,206.5,222.9,205.8,222.5,205.1
		C222.5,205.1,222.5,205.1,222.5,205.1z"/>
	<path class="st14" d="M219.9,223.9c0.9-0.5,1.7-0.9,2.6-1.4C221.6,222.9,220.7,223.4,219.9,223.9z"/>
	<path class="st14" d="M218.5,223.9c0.5,0,0.9,0,1.4,0c0,0.9,0,1.8,0,2.6C219.4,225.6,218.9,224.8,218.5,223.9z"/>
	<path class="st1" d="M8.1,229.2c0.9,0,1.8,0,2.7,0c0,1.8,0,3.6,0,5.4C9.9,232.8,9,231,8.1,229.2z"/>
	<path class="st15" d="M164.9,223.8c4.9,0.1,9.8,0.1,14.7,0.2c-1.5,0.8-3,2.4-4.6,2.4c-17.1,0.2-34.1,0.2-51.2,0
		c-2.4,0-4.7-1.7-8.1-3.1c-1.5,1.9-3.9,7.1-8.4,0.5c0-0.8,0.1-1.6,0.1-2.5c0,0,0.1-0.1,0.1-0.1c1.5-1.2,3.8-2.1,4.4-3.7
		c3.2-8.5,5.9-17.3,8.8-25.9c1.4-3.5,2.9-6.9,4.2-10.4c3.2-8.6,6.3-17.1,9.5-25.7c0.8-1.4,1.5-2.8,2.3-4.2c0.1-0.8,0.2-1.6,0.3-2.4
		c0.8,0,1.7,0,2.5-0.1c0.9,0,1.9,0.1,2.8,0.1c0.9,3.3,1.8,6.6,2.6,9.9c1.2,5.3,2,10.7,3.4,15.9c2.3,8.6,4.6,17.2,7.5,25.6
		c0.9,2.8,3.4,5,5.1,7.5c0.3,0.3,0.4,0.6,0.2,1c0,4.1-0.1,8.2-0.1,12.3C162.3,222,163.6,222.9,164.9,223.8z"/>
	<path class="st16" d="M16.2,131.4c1.9,4.5,3.6,9,5.7,13.4c1.4,2.9,3.2,5.6,4.8,8.4c5.5,15.4,11,30.9,16.5,46.3
		c-0.1,1.9-0.1,3.8-0.2,5.7c-5.5,1.8,1.6,3.6,0,5.4c-6.5,1.5-6.9,3-2.7,10.7c-2.8,5.3-7.4,5.8-12.7,5.4c-5.6-0.4-11.2-0.1-16.7-0.1
		c0-18.9-0.1-37.8,0.1-56.8c0-2.7,1.3-5.4,1.7-8.1c0.2-1.6-0.3-3.2-0.4-4.8c-0.4-6.3-1.3-12.7-0.9-19
		C11.3,135.6,14.4,133.5,16.2,131.4z"/>
	<path class="st17" d="M107.3,221.3c0,0.8-0.1,1.6-0.1,2.5c-2.7,0-5.3,0.1-8,0.1c-0.9,0-1.8,0-2.7,0c-13.9,0-27.7,0-41.6,0
		c-0.4,0-0.8,0-1.2,0c-0.9-1-1.7-2-2.6-3C69.9,221.1,88.6,221.2,107.3,221.3z"/>
	<path class="st9" d="M40.3,221.2c-4.2-7.8-3.8-9.2,2.7-10.7c0.5,0.5,1,0.9,1.4,1.4c0.5,1.3,0.9,2.6,1.4,3.8c0,2.1,0,4.3,0,6.7
		C43.7,221.9,42,221.5,40.3,221.2z"/>
	<path class="st17" d="M45.8,215.7c-0.5-1.3-0.9-2.6-1.4-3.8c0.4-1.3,0.7-2.6,1.1-3.9c0.2-0.2,0.5-0.4,0.7-0.5
		c1.7,4.6,3.4,9.1,5,13.7C49.4,219.2,47.6,217.5,45.8,215.7z"/>
	<path class="st18" d="M96.6,223.9c0.9,0,1.8,0,2.7,0c-0.3,0.7-0.7,1.4-1,2C97.7,225.3,97.1,224.6,96.6,223.9z"/>
	<path class="st18" d="M53.7,224c0.4-0.1,0.8-0.1,1.2,0C54.6,223.9,54.2,224,53.7,224z"/>
	<path class="st19" d="M139.4,139.4c0.1-0.4,0.3-0.8,0.4-1.3c1.6-1.4,3.6-2.6,4.6-4.3c3.6-6.1,8.3-8.4,16.5-6.1
		c5.7,1.6,10.9,4.5,10.7,11.9c0,0,0,0,0,0c-3.3,1.1-6.5,2.3-5.2,6.9c0,0,0-0.1,0-0.1c-1.8-0.1-3.7-0.1-5.5-0.2
		c-1.7-0.9-3.4-2.5-5.1-2.6c-5.5-0.4-11-0.2-16.5-0.2C139.4,142,139.4,140.7,139.4,139.4z"/>
	<path class="st11" d="M161,146.1c1.8,0.1,3.7,0.1,5.5,0.2c-6.4,1.7-12.8,3.3-20.1,5.2c3.2,12.1,6.8,25.1,10.1,38.1
		c1.6,6,2.9,12.1,4.3,18.1c-1.8-2.5-4.2-4.7-5.1-7.5c-2.8-8.4-5.2-17-7.5-25.6c-1.4-5.2-2.2-10.6-3.4-15.9c-0.8-3.3-1.7-6.6-2.6-9.9
		c2.2-0.5,4.3-1.1,6.5-1.6C153,149,157.2,151,161,146.1L161,146.1z"/>
	<path class="st14" d="M203.3,175.8c1.8,1,4.7,1.7,5.3,3.2c3.2,8.6,5.8,17.4,8.6,26.1c0,0-0.1,0.1-0.1,0.1c-0.8,0-1.6,0-2.4-0.1
		C210.9,195.3,207.1,185.6,203.3,175.8z"/>
	<path class="st11" d="M171.6,139.5c0.2-7.3-5.1-10.3-10.7-11.9c-8.1-2.3-12.8,0-16.5,6.1c-1,1.8-3.1,2.9-4.6,4.3
		c2-4,3.7-11,6.2-11.3c7.7-0.9,15.9-0.3,23.4,1.7C173.5,129.6,173.8,135.1,171.6,139.5z"/>
	<path class="st20" d="M134.3,155.5c-3.1,8.6-6.3,17.2-9.5,25.7c-1.3,3.5-2.8,6.9-4.2,10.4c-0.5-0.1-1-0.2-1.5-0.3
		c4.9-12.9,9.9-25.8,14.8-38.7c0.2,0.2,0.4,0.3,0.6,0.5C134.4,153.9,134.3,154.7,134.3,155.5z"/>
	<path class="st17" d="M119.1,191.3c0.5,0.1,1,0.2,1.5,0.3c-2.9,8.7-5.6,17.4-8.8,25.9c-0.6,1.6-2.9,2.5-4.4,3.7
		c3.6-9.4,7.3-18.8,10.9-28.2C118.6,192.5,118.8,192,119.1,191.3L119.1,191.3z"/>
	<path class="st11" d="M160.9,221.1c0-4.1,0.1-8.2,0.1-12.3c1.3,4.1,2.6,8.3,3.8,12.4c0,0-0.2,0.2-0.2,0.2
		C163.4,221.4,162.2,221.2,160.9,221.1z"/>
	<path class="st12" d="M32.1,120.9c7.2,0,14.4,0,21.7,0C46.6,120.9,39.4,120.9,32.1,120.9z"/>
	<path class="st11" d="M166.4,146.4c-1.3-4.6,1.9-5.8,5.2-6.9C169.9,141.8,168.2,144.1,166.4,146.4z"/>
	<path class="st17" d="M43,205.1c0.1-1.9,0.1-3.8,0.2-5.7c1,2.6,2,5.3,3,7.9c-0.2,0.2-0.5,0.4-0.7,0.5C44.6,207,43.8,206,43,205.1z"
		/>
	<path class="st20" d="M136.9,148.9c-0.1,0.8-0.2,1.6-0.3,2.4c-0.7,0.6-1.4,1.2-2.1,1.9c-0.2-0.2-0.4-0.3-0.6-0.5
		c1-2.6,1.9-5.3,2.9-7.9c0,0,0.5,0.4,0.5,0.4C137.1,146.4,137,147.6,136.9,148.9z"/>
	<path class="st11" d="M214.7,205.1c0.8,0,1.6,0,2.4,0.1c0,2.2,0,4.4,0,6.6C216.3,209.5,215.5,207.3,214.7,205.1z"/>
	<path class="st2" d="M205.2,168.2c-0.9,1.1-1.8,2.3-2.7,3.4C203.4,170.5,204.3,169.3,205.2,168.2z"/>
	<path class="st12" d="M21.4,120.9c2.8,0,5.5,0,8.3,0C26.9,120.9,24.2,120.9,21.4,120.9z"/>
	<path class="st20" d="M139.4,139.4c0,1.3,0,2.7,0,4c0,0,0,0,0,0c-0.7,0.6-1.4,1.2-2.1,1.7c0,0-0.5-0.4-0.5-0.4
		C137.6,143,138.5,141.2,139.4,139.4z"/>
	<path class="st20" d="M119.1,191.4c-0.3,0.5-0.5,1.1-0.8,1.6C118.6,192.5,118.8,192,119.1,191.4z"/>
	<path class="st18" d="M118,84.5c1.7-0.9,3.4-2.5,5.2-2.6c18-0.2,36-0.2,54,0c1.7,0,3.4,1.7,5.2,2.6C160.9,84.5,139.4,84.5,118,84.5
		z"/>
	<path class="st14" d="M160.9,221.1c1.2,0.1,2.5,0.2,3.7,0.3c0.1,0.8,0.2,1.6,0.3,2.4C163.6,222.9,162.3,222,160.9,221.1z"/>
	<path class="st8" d="M148.7,147.3c-2.2,0.5-4.3,1.1-6.5,1.6c-0.9,0-1.9-0.1-2.8-0.1c0-1.8,0-3.6,0-5.4c0,0,0,0,0,0
		c5.5,0,11-0.2,16.5,0.2c1.8,0.1,3.4,1.7,5.1,2.6c0,0-0.1,0-0.1,0C156.8,146.5,152.8,146.9,148.7,147.3z"/>
	<path class="st19" d="M139.4,143.4c0,1.8,0,3.6,0,5.4c-0.8,0-1.7,0-2.5,0.1c0.1-1.2,0.2-2.5,0.4-3.7
		C138,144.6,138.7,144,139.4,143.4z"/>
	<path class="st19" d="M134.5,153.1c0.7-0.6,1.4-1.2,2.1-1.9c-0.8,1.4-1.5,2.8-2.3,4.2C134.3,154.7,134.4,153.9,134.5,153.1z"/>
	<path class="st5" d="M43,205.1c0.8,0.9,1.7,1.9,2.5,2.8c-0.4,1.3-0.7,2.6-1.1,3.9c-0.5-0.5-1-0.9-1.4-1.4
		C44.6,208.7,37.5,206.9,43,205.1z"/>
	<path class="st19" d="M148.7,147.3c4.1-0.4,8.1-0.7,12.2-1.1C157.2,151,153,149,148.7,147.3z"/>
</g>
</svg>
